<svg width="76" height="14" viewBox="0 0 76 14" fill="none" xmlns="http://www.w3.org/2000/svg">
<path d="M11.844 5.756L11.178 8.87H13.554V10.67H10.8L10.08 14H8.118L8.838 10.67H5.31L4.59 14H2.628L3.348 10.67H0.558V8.87H3.726L4.392 5.756H1.62V3.956H4.77L5.472 0.68H7.434L6.732 3.956H10.26L10.962 0.68H12.924L12.222 3.956H14.616V5.756H11.844ZM9.882 5.756H6.354L5.688 8.87H9.216L9.882 5.756ZM16.7773 7.268C16.7773 5.192 17.1253 3.572 17.8213 2.408C18.5293 1.232 19.7413 0.643999 21.4573 0.643999C23.1733 0.643999 24.3793 1.232 25.0753 2.408C25.7833 3.572 26.1373 5.192 26.1373 7.268C26.1373 9.368 25.7833 11.012 25.0753 12.2C24.3793 13.376 23.1733 13.964 21.4573 13.964C19.7413 13.964 18.5293 13.376 17.8213 12.2C17.1253 11.012 16.7773 9.368 16.7773 7.268ZM24.1213 7.268C24.1213 6.296 24.0553 5.474 23.9233 4.802C23.8033 4.13 23.5513 3.584 23.1673 3.164C22.7833 2.732 22.2133 2.516 21.4573 2.516C20.7013 2.516 20.1313 2.732 19.7473 3.164C19.3633 3.584 19.1053 4.13 18.9733 4.802C18.8533 5.474 18.7933 6.296 18.7933 7.268C18.7933 8.276 18.8533 9.122 18.9733 9.806C19.0933 10.49 19.3453 11.042 19.7293 11.462C20.1253 11.882 20.7013 12.092 21.4573 12.092C22.2133 12.092 22.7833 11.882 23.1673 11.462C23.5633 11.042 23.8213 10.49 23.9413 9.806C24.0613 9.122 24.1213 8.276 24.1213 7.268ZM28.0385 2.75V0.877999H31.7825V14H29.7125V2.75H28.0385ZM34.6015 7.268C34.6015 5.192 34.9495 3.572 35.6455 2.408C36.3535 1.232 37.5655 0.643999 39.2815 0.643999C40.9975 0.643999 42.2035 1.232 42.8995 2.408C43.6075 3.572 43.9615 5.192 43.9615 7.268C43.9615 9.368 43.6075 11.012 42.8995 12.2C42.2035 13.376 40.9975 13.964 39.2815 13.964C37.5655 13.964 36.3535 13.376 35.6455 12.2C34.9495 11.012 34.6015 9.368 34.6015 7.268ZM41.9455 7.268C41.9455 6.296 41.8795 5.474 41.7475 4.802C41.6275 4.13 41.3755 3.584 40.9915 3.164C40.6075 2.732 40.0375 2.516 39.2815 2.516C38.5255 2.516 37.9555 2.732 37.5715 3.164C37.1875 3.584 36.9295 4.13 36.7975 4.802C36.6775 5.474 36.6175 6.296 36.6175 7.268C36.6175 8.276 36.6775 9.122 36.7975 9.806C36.9175 10.49 37.1695 11.042 37.5535 11.462C37.9495 11.882 38.5255 12.092 39.2815 12.092C40.0375 12.092 40.6075 11.882 40.9915 11.462C41.3875 11.042 41.6455 10.49 41.7655 9.806C41.8855 9.122 41.9455 8.276 41.9455 7.268ZM45.8807 11.264V9.716L51.9287 1.04H54.4127V9.482H56.0867V11.264H54.4127V14H52.3967V11.264H45.8807ZM52.4867 3.128L48.2387 9.482H52.4867V3.128ZM58.921 11.21C60.073 10.214 60.979 9.398 61.639 8.762C62.311 8.114 62.869 7.442 63.313 6.746C63.757 6.05 63.979 5.354 63.979 4.658C63.979 3.938 63.805 3.374 63.457 2.966C63.121 2.558 62.587 2.354 61.855 2.354C61.147 2.354 60.595 2.582 60.199 3.038C59.815 3.482 59.611 4.082 59.587 4.838H57.607C57.643 3.47 58.051 2.426 58.831 1.706C59.623 0.974 60.625 0.608 61.837 0.608C63.145 0.608 64.165 0.968 64.897 1.688C65.641 2.408 66.013 3.368 66.013 4.568C66.013 5.432 65.791 6.266 65.347 7.07C64.915 7.862 64.393 8.576 63.781 9.212C63.181 9.836 62.413 10.562 61.477 11.39L60.667 12.11H66.373V13.82H57.625V12.326L58.921 11.21ZM70.4977 3.146V6.818H74.8177V8.492H70.4977V12.326H75.3577V14H68.4457V1.472H75.3577V3.146H70.4977Z" fill="black"/>
</svg>
