<svg width="83" height="14" viewBox="0 0 83 14" fill="none" xmlns="http://www.w3.org/2000/svg">
<path d="M11.844 5.756L11.178 8.87H13.554V10.67H10.8L10.08 14H8.118L8.838 10.67H5.31L4.59 14H2.628L3.348 10.67H0.558V8.87H3.726L4.392 5.756H1.62V3.956H4.77L5.472 0.68H7.434L6.732 3.956H10.26L10.962 0.68H12.924L12.222 3.956H14.616V5.756H11.844ZM9.882 5.756H6.354L5.688 8.87H9.216L9.882 5.756ZM16.7773 7.268C16.7773 5.192 17.1253 3.572 17.8213 2.408C18.5293 1.232 19.7413 0.643999 21.4573 0.643999C23.1733 0.643999 24.3793 1.232 25.0753 2.408C25.7833 3.572 26.1373 5.192 26.1373 7.268C26.1373 9.368 25.7833 11.012 25.0753 12.2C24.3793 13.376 23.1733 13.964 21.4573 13.964C19.7413 13.964 18.5293 13.376 17.8213 12.2C17.1253 11.012 16.7773 9.368 16.7773 7.268ZM24.1213 7.268C24.1213 6.296 24.0553 5.474 23.9233 4.802C23.8033 4.13 23.5513 3.584 23.1673 3.164C22.7833 2.732 22.2133 2.516 21.4573 2.516C20.7013 2.516 20.1313 2.732 19.7473 3.164C19.3633 3.584 19.1053 4.13 18.9733 4.802C18.8533 5.474 18.7933 6.296 18.7933 7.268C18.7933 8.276 18.8533 9.122 18.9733 9.806C19.0933 10.49 19.3453 11.042 19.7293 11.462C20.1253 11.882 20.7013 12.092 21.4573 12.092C22.2133 12.092 22.7833 11.882 23.1673 11.462C23.5633 11.042 23.8213 10.49 23.9413 9.806C24.0613 9.122 24.1213 8.276 24.1213 7.268ZM32.6645 1.49C33.9965 1.49 35.1605 1.748 36.1565 2.264C37.1645 2.768 37.9385 3.5 38.4785 4.46C39.0305 5.408 39.3065 6.518 39.3065 7.79C39.3065 9.062 39.0305 10.166 38.4785 11.102C37.9385 12.038 37.1645 12.758 36.1565 13.262C35.1605 13.754 33.9965 14 32.6645 14H28.5785V1.49H32.6645ZM32.6645 12.326C34.1285 12.326 35.2505 11.93 36.0305 11.138C36.8105 10.346 37.2005 9.23 37.2005 7.79C37.2005 6.338 36.8105 5.204 36.0305 4.388C35.2505 3.572 34.1285 3.164 32.6645 3.164H30.6305V12.326H32.6645ZM48.1262 3.92C47.9942 3.368 47.7542 2.954 47.4062 2.678C47.0582 2.402 46.5722 2.264 45.9482 2.264C45.0002 2.264 44.2922 2.63 43.8242 3.362C43.3562 4.082 43.1102 5.282 43.0862 6.962C43.3982 6.434 43.8542 6.026 44.4542 5.738C45.0542 5.45 45.7022 5.306 46.3982 5.306C47.1902 5.306 47.8862 5.48 48.4862 5.828C49.0982 6.164 49.5722 6.656 49.9082 7.304C50.2562 7.952 50.4302 8.726 50.4302 9.626C50.4302 10.466 50.2622 11.216 49.9262 11.876C49.6022 12.536 49.1162 13.058 48.4682 13.442C47.8202 13.814 47.0402 14 46.1282 14C44.8922 14 43.9202 13.73 43.2122 13.19C42.5162 12.638 42.0242 11.864 41.7362 10.868C41.4602 9.872 41.3222 8.63 41.3222 7.142C41.3222 2.75 42.8702 0.553999 45.9662 0.553999C47.1662 0.553999 48.1082 0.877999 48.7922 1.526C49.4882 2.174 49.8962 2.972 50.0162 3.92H48.1262ZM45.9482 7.034C45.2162 7.034 44.5922 7.256 44.0762 7.7C43.5722 8.132 43.3202 8.762 43.3202 9.59C43.3202 10.418 43.5542 11.078 44.0222 11.57C44.5022 12.05 45.1682 12.29 46.0202 12.29C46.7762 12.29 47.3702 12.056 47.8022 11.588C48.2462 11.12 48.4682 10.496 48.4682 9.716C48.4682 8.9 48.2522 8.252 47.8202 7.772C47.4002 7.28 46.7762 7.034 45.9482 7.034ZM54.9411 3.146V6.818H59.2611V8.492H54.9411V12.326H59.8011V14H52.8891V1.472H59.8011V3.146H54.9411ZM69.6905 1.49V3.164H64.3805V6.854H68.5205V8.528H64.3805V14H62.3285V1.49H69.6905ZM75.6782 1.49C77.0102 1.49 78.1742 1.748 79.1702 2.264C80.1782 2.768 80.9522 3.5 81.4922 4.46C82.0442 5.408 82.3202 6.518 82.3202 7.79C82.3202 9.062 82.0442 10.166 81.4922 11.102C80.9522 12.038 80.1782 12.758 79.1702 13.262C78.1742 13.754 77.0102 14 75.6782 14H71.5922V1.49H75.6782ZM75.6782 12.326C77.1422 12.326 78.2642 11.93 79.0442 11.138C79.8242 10.346 80.2142 9.23 80.2142 7.79C80.2142 6.338 79.8242 5.204 79.0442 4.388C78.2642 3.572 77.1422 3.164 75.6782 3.164H73.6442V12.326H75.6782Z" fill="black"/>
</svg>
