<svg width="78" height="15" viewBox="0 0 78 15" fill="none" xmlns="http://www.w3.org/2000/svg">
<path d="M11.844 5.756L11.178 8.87H13.554V10.67H10.8L10.08 14H8.118L8.838 10.67H5.31L4.59 14H2.628L3.348 10.67H0.558V8.87H3.726L4.392 5.756H1.62V3.956H4.77L5.472 0.68H7.434L6.732 3.956H10.26L10.962 0.68H12.924L12.222 3.956H14.616V5.756H11.844ZM9.882 5.756H6.354L5.688 8.87H9.216L9.882 5.756ZM16.5073 2.75V0.877999H20.2513V14H18.1813V2.75H16.5073ZM25.6262 10.436C25.7462 11.036 26.0042 11.492 26.4002 11.804C26.7962 12.116 27.3302 12.272 28.0022 12.272C28.8542 12.272 29.4782 11.936 29.8742 11.264C30.2702 10.592 30.4682 9.446 30.4682 7.826C30.1802 8.234 29.7722 8.552 29.2442 8.78C28.7282 8.996 28.1642 9.104 27.5522 9.104C26.7722 9.104 26.0642 8.948 25.4282 8.636C24.7922 8.312 24.2882 7.838 23.9162 7.214C23.5562 6.578 23.3762 5.81 23.3762 4.91C23.3762 3.59 23.7602 2.54 24.5282 1.76C25.3082 0.967999 26.3762 0.571999 27.7322 0.571999C29.3642 0.571999 30.5222 1.118 31.2062 2.21C31.9022 3.29 32.2502 4.952 32.2502 7.196C32.2502 8.744 32.1182 10.01 31.8542 10.994C31.6022 11.978 31.1582 12.722 30.5222 13.226C29.8862 13.73 29.0042 13.982 27.8762 13.982C26.5922 13.982 25.6022 13.646 24.9062 12.974C24.2102 12.302 23.8202 11.456 23.7362 10.436H25.6262ZM27.9122 7.376C28.6322 7.376 29.1962 7.154 29.6042 6.71C30.0242 6.254 30.2342 5.654 30.2342 4.91C30.2342 4.082 30.0122 3.44 29.5682 2.984C29.1362 2.516 28.5422 2.282 27.7862 2.282C27.0302 2.282 26.4302 2.522 25.9862 3.002C25.5542 3.47 25.3382 4.088 25.3382 4.856C25.3382 5.588 25.5482 6.194 25.9682 6.674C26.4002 7.142 27.0482 7.376 27.9122 7.376ZM36.71 7.142C35.462 6.518 34.838 5.534 34.838 4.19C34.838 3.542 35 2.948 35.324 2.408C35.648 1.868 36.134 1.442 36.782 1.13C37.43 0.805999 38.222 0.643999 39.158 0.643999C40.082 0.643999 40.868 0.805999 41.516 1.13C42.176 1.442 42.668 1.868 42.992 2.408C43.316 2.948 43.478 3.542 43.478 4.19C43.478 4.862 43.304 5.456 42.956 5.972C42.62 6.476 42.17 6.866 41.606 7.142C42.29 7.394 42.83 7.808 43.226 8.384C43.622 8.948 43.82 9.614 43.82 10.382C43.82 11.162 43.622 11.852 43.226 12.452C42.83 13.052 42.278 13.514 41.57 13.838C40.862 14.162 40.058 14.324 39.158 14.324C38.258 14.324 37.454 14.162 36.746 13.838C36.05 13.514 35.504 13.052 35.108 12.452C34.712 11.852 34.514 11.162 34.514 10.382C34.514 9.602 34.712 8.93 35.108 8.366C35.504 7.802 36.038 7.394 36.71 7.142ZM41.516 4.442C41.516 3.77 41.306 3.254 40.886 2.894C40.466 2.534 39.89 2.354 39.158 2.354C38.438 2.354 37.868 2.534 37.448 2.894C37.028 3.254 36.818 3.776 36.818 4.46C36.818 5.06 37.034 5.552 37.466 5.936C37.91 6.308 38.474 6.494 39.158 6.494C39.842 6.494 40.406 6.302 40.85 5.918C41.294 5.534 41.516 5.042 41.516 4.442ZM39.158 8.042C38.366 8.042 37.718 8.24 37.214 8.636C36.722 9.02 36.476 9.578 36.476 10.31C36.476 10.994 36.716 11.552 37.196 11.984C37.676 12.404 38.33 12.614 39.158 12.614C39.974 12.614 40.616 12.398 41.084 11.966C41.564 11.534 41.804 10.982 41.804 10.31C41.804 9.59 41.558 9.032 41.066 8.636C40.586 8.24 39.95 8.042 39.158 8.042ZM54.2905 2.462L49.2865 14H47.2165L52.2745 2.678H45.6145V0.932H54.2905V2.462ZM64.5068 2.642H58.4768V6.224C58.7288 5.888 59.1008 5.606 59.5928 5.378C60.0968 5.15 60.6308 5.036 61.1948 5.036C62.2028 5.036 63.0188 5.252 63.6428 5.684C64.2788 6.116 64.7288 6.662 64.9928 7.322C65.2688 7.982 65.4068 8.678 65.4068 9.41C65.4068 10.298 65.2328 11.09 64.8848 11.786C64.5488 12.47 64.0388 13.01 63.3548 13.406C62.6828 13.802 61.8548 14 60.8708 14C59.5628 14 58.5128 13.676 57.7208 13.028C56.9288 12.38 56.4548 11.522 56.2988 10.454H58.2968C58.4288 11.018 58.7228 11.468 59.1788 11.804C59.6348 12.128 60.2048 12.29 60.8888 12.29C61.7408 12.29 62.3768 12.032 62.7968 11.516C63.2288 11 63.4448 10.316 63.4448 9.464C63.4448 8.6 63.2288 7.94 62.7968 7.484C62.3648 7.016 61.7288 6.782 60.8888 6.782C60.3008 6.782 59.8028 6.932 59.3948 7.232C58.9988 7.52 58.7108 7.916 58.5308 8.42H56.5868V0.842H64.5068V2.642ZM67.2909 11.264V9.716L73.3389 1.04H75.8229V9.482H77.4969V11.264H75.8229V14H73.8069V11.264H67.2909ZM73.8969 3.128L69.6489 9.482H73.8969V3.128Z" fill="black"/>
</svg>
