<svg width="85" height="15" viewBox="0 0 85 15" fill="none" xmlns="http://www.w3.org/2000/svg">
<path d="M11.844 5.756L11.178 8.87H13.554V10.67H10.8L10.08 14H8.118L8.838 10.67H5.31L4.59 14H2.628L3.348 10.67H0.558V8.87H3.726L4.392 5.756H1.62V3.956H4.77L5.472 0.68H7.434L6.732 3.956H10.26L10.962 0.68H12.924L12.222 3.956H14.616V5.756H11.844ZM9.882 5.756H6.354L5.688 8.87H9.216L9.882 5.756ZM16.7413 4.118C16.8133 3.002 17.2393 2.132 18.0193 1.508C18.8113 0.883999 19.8193 0.571999 21.0433 0.571999C21.8833 0.571999 22.6093 0.721999 23.2213 1.022C23.8333 1.322 24.2953 1.73 24.6073 2.246C24.9193 2.762 25.0753 3.344 25.0753 3.992C25.0753 4.736 24.8773 5.372 24.4813 5.9C24.0853 6.428 23.6113 6.782 23.0593 6.962V7.034C23.7673 7.25 24.3193 7.646 24.7153 8.222C25.1113 8.786 25.3093 9.512 25.3093 10.4C25.3093 11.108 25.1473 11.738 24.8233 12.29C24.4993 12.842 24.0193 13.28 23.3833 13.604C22.7473 13.916 21.9853 14.072 21.0973 14.072C19.8013 14.072 18.7333 13.742 17.8933 13.082C17.0653 12.41 16.6213 11.45 16.5613 10.202H18.5413C18.5893 10.838 18.8353 11.36 19.2793 11.768C19.7233 12.164 20.3233 12.362 21.0793 12.362C21.8113 12.362 22.3753 12.164 22.7713 11.768C23.1673 11.36 23.3653 10.838 23.3653 10.202C23.3653 9.362 23.0953 8.768 22.5553 8.42C22.0273 8.06 21.2113 7.88 20.1073 7.88H19.6393V6.188H20.1253C21.0973 6.176 21.8353 6.014 22.3393 5.702C22.8553 5.39 23.1133 4.898 23.1133 4.226C23.1133 3.65 22.9273 3.194 22.5553 2.858C22.1833 2.51 21.6553 2.336 20.9713 2.336C20.2993 2.336 19.7773 2.51 19.4053 2.858C19.0333 3.194 18.8113 3.614 18.7393 4.118H16.7413ZM35.2768 11.444H30.0388L29.1388 14H26.9968L31.4788 1.472H33.8548L38.3368 14H36.1768L35.2768 11.444ZM34.7008 9.77L32.6668 3.956L30.6148 9.77H34.7008ZM39.9795 4.118C40.0515 3.002 40.4775 2.132 41.2575 1.508C42.0495 0.883999 43.0575 0.571999 44.2815 0.571999C45.1215 0.571999 45.8475 0.721999 46.4595 1.022C47.0715 1.322 47.5335 1.73 47.8455 2.246C48.1575 2.762 48.3135 3.344 48.3135 3.992C48.3135 4.736 48.1155 5.372 47.7195 5.9C47.3235 6.428 46.8495 6.782 46.2975 6.962V7.034C47.0055 7.25 47.5575 7.646 47.9535 8.222C48.3495 8.786 48.5475 9.512 48.5475 10.4C48.5475 11.108 48.3855 11.738 48.0615 12.29C47.7375 12.842 47.2575 13.28 46.6215 13.604C45.9855 13.916 45.2235 14.072 44.3355 14.072C43.0395 14.072 41.9715 13.742 41.1315 13.082C40.3035 12.41 39.8595 11.45 39.7995 10.202H41.7795C41.8275 10.838 42.0735 11.36 42.5175 11.768C42.9615 12.164 43.5615 12.362 44.3175 12.362C45.0495 12.362 45.6135 12.164 46.0095 11.768C46.4055 11.36 46.6035 10.838 46.6035 10.202C46.6035 9.362 46.3335 8.768 45.7935 8.42C45.2655 8.06 44.4495 7.88 43.3455 7.88H42.8775V6.188H43.3635C44.3355 6.176 45.0735 6.014 45.5775 5.702C46.0935 5.39 46.3515 4.898 46.3515 4.226C46.3515 3.65 46.1655 3.194 45.7935 2.858C45.4215 2.51 44.8935 2.336 44.2095 2.336C43.5375 2.336 43.0155 2.51 42.6435 2.858C42.2715 3.194 42.0495 3.614 41.9775 4.118H39.9795ZM58.515 11.444H53.277L52.377 14H50.235L54.717 1.472H57.093L61.575 14H59.415L58.515 11.444ZM57.939 9.77L55.905 3.956L53.853 9.77H57.939ZM63.2178 4.118C63.2898 3.002 63.7158 2.132 64.4958 1.508C65.2878 0.883999 66.2958 0.571999 67.5198 0.571999C68.3598 0.571999 69.0858 0.721999 69.6978 1.022C70.3098 1.322 70.7718 1.73 71.0838 2.246C71.3958 2.762 71.5518 3.344 71.5518 3.992C71.5518 4.736 71.3538 5.372 70.9578 5.9C70.5618 6.428 70.0878 6.782 69.5358 6.962V7.034C70.2438 7.25 70.7958 7.646 71.1918 8.222C71.5878 8.786 71.7858 9.512 71.7858 10.4C71.7858 11.108 71.6238 11.738 71.2998 12.29C70.9758 12.842 70.4958 13.28 69.8598 13.604C69.2238 13.916 68.4618 14.072 67.5738 14.072C66.2778 14.072 65.2098 13.742 64.3698 13.082C63.5418 12.41 63.0978 11.45 63.0378 10.202H65.0178C65.0658 10.838 65.3118 11.36 65.7558 11.768C66.1998 12.164 66.7998 12.362 67.5558 12.362C68.2878 12.362 68.8518 12.164 69.2478 11.768C69.6438 11.36 69.8418 10.838 69.8418 10.202C69.8418 9.362 69.5718 8.768 69.0318 8.42C68.5038 8.06 67.6878 7.88 66.5838 7.88H66.1158V6.188H66.6018C67.5738 6.176 68.3118 6.014 68.8158 5.702C69.3318 5.39 69.5898 4.898 69.5898 4.226C69.5898 3.65 69.4038 3.194 69.0318 2.858C68.6598 2.51 68.1318 2.336 67.4478 2.336C66.7758 2.336 66.2538 2.51 65.8818 2.858C65.5098 3.194 65.2878 3.614 65.2158 4.118H63.2178ZM81.7533 11.444H76.5153L75.6153 14H73.4733L77.9553 1.472H80.3313L84.8133 14H82.6533L81.7533 11.444ZM81.1773 9.77L79.1433 3.956L77.0913 9.77H81.1773Z" fill="black"/>
</svg>
