<svg width="87" height="15" viewBox="0 0 87 15" fill="none" xmlns="http://www.w3.org/2000/svg">
<path d="M11.844 5.756L11.178 8.87H13.554V10.67H10.8L10.08 14H8.118L8.838 10.67H5.31L4.59 14H2.628L3.348 10.67H0.558V8.87H3.726L4.392 5.756H1.62V3.956H4.77L5.472 0.68H7.434L6.732 3.956H10.26L10.962 0.68H12.924L12.222 3.956H14.616V5.756H11.844ZM9.882 5.756H6.354L5.688 8.87H9.216L9.882 5.756ZM21.1333 1.49C22.4653 1.49 23.6293 1.748 24.6253 2.264C25.6333 2.768 26.4073 3.5 26.9473 4.46C27.4993 5.408 27.7753 6.518 27.7753 7.79C27.7753 9.062 27.4993 10.166 26.9473 11.102C26.4073 12.038 25.6333 12.758 24.6253 13.262C23.6293 13.754 22.4653 14 21.1333 14H17.0473V1.49H21.1333ZM21.1333 12.326C22.5973 12.326 23.7193 11.93 24.4993 11.138C25.2793 10.346 25.6693 9.23 25.6693 7.79C25.6693 6.338 25.2793 5.204 24.4993 4.388C23.7193 3.572 22.5973 3.164 21.1333 3.164H19.0993V12.326H21.1333ZM29.125 7.718C29.125 6.494 29.407 5.396 29.971 4.424C30.547 3.452 31.321 2.696 32.293 2.156C33.277 1.604 34.351 1.328 35.515 1.328C36.847 1.328 38.029 1.658 39.061 2.318C40.105 2.966 40.861 3.89 41.329 5.09H38.863C38.539 4.43 38.089 3.938 37.513 3.614C36.937 3.29 36.271 3.128 35.515 3.128C34.687 3.128 33.949 3.314 33.301 3.686C32.653 4.058 32.143 4.592 31.771 5.288C31.411 5.984 31.231 6.794 31.231 7.718C31.231 8.642 31.411 9.452 31.771 10.148C32.143 10.844 32.653 11.384 33.301 11.768C33.949 12.14 34.687 12.326 35.515 12.326C36.271 12.326 36.937 12.164 37.513 11.84C38.089 11.516 38.539 11.024 38.863 10.364H41.329C40.861 11.564 40.105 12.488 39.061 13.136C38.029 13.784 36.847 14.108 35.515 14.108C34.339 14.108 33.265 13.838 32.293 13.298C31.321 12.746 30.547 11.984 29.971 11.012C29.407 10.04 29.125 8.942 29.125 7.718ZM43.4249 4.118C43.4969 3.002 43.9229 2.132 44.7029 1.508C45.4949 0.883999 46.5029 0.571999 47.7269 0.571999C48.5669 0.571999 49.2929 0.721999 49.9049 1.022C50.5169 1.322 50.9789 1.73 51.2909 2.246C51.6029 2.762 51.7589 3.344 51.7589 3.992C51.7589 4.736 51.5609 5.372 51.1649 5.9C50.7689 6.428 50.2949 6.782 49.7429 6.962V7.034C50.4509 7.25 51.0029 7.646 51.3989 8.222C51.7949 8.786 51.9929 9.512 51.9929 10.4C51.9929 11.108 51.8309 11.738 51.5069 12.29C51.1829 12.842 50.7029 13.28 50.0669 13.604C49.4309 13.916 48.6689 14.072 47.7809 14.072C46.4849 14.072 45.4169 13.742 44.5769 13.082C43.7489 12.41 43.3049 11.45 43.2449 10.202H45.2249C45.2729 10.838 45.5189 11.36 45.9629 11.768C46.4069 12.164 47.0069 12.362 47.7629 12.362C48.4949 12.362 49.0589 12.164 49.4549 11.768C49.8509 11.36 50.0489 10.838 50.0489 10.202C50.0489 9.362 49.7789 8.768 49.2389 8.42C48.7109 8.06 47.8949 7.88 46.7909 7.88H46.3229V6.188H46.8089C47.7809 6.176 48.5189 6.014 49.0229 5.702C49.5389 5.39 49.7969 4.898 49.7969 4.226C49.7969 3.65 49.6109 3.194 49.2389 2.858C48.8669 2.51 48.3389 2.336 47.6549 2.336C46.9829 2.336 46.4609 2.51 46.0889 2.858C45.7169 3.194 45.4949 3.614 45.4229 4.118H43.4249ZM62.6084 2.642H56.5784V6.224C56.8304 5.888 57.2024 5.606 57.6944 5.378C58.1984 5.15 58.7324 5.036 59.2964 5.036C60.3044 5.036 61.1204 5.252 61.7444 5.684C62.3804 6.116 62.8304 6.662 63.0944 7.322C63.3704 7.982 63.5084 8.678 63.5084 9.41C63.5084 10.298 63.3344 11.09 62.9864 11.786C62.6504 12.47 62.1404 13.01 61.4564 13.406C60.7844 13.802 59.9564 14 58.9724 14C57.6644 14 56.6144 13.676 55.8224 13.028C55.0304 12.38 54.5564 11.522 54.4004 10.454H56.3984C56.5304 11.018 56.8244 11.468 57.2804 11.804C57.7364 12.128 58.3064 12.29 58.9904 12.29C59.8424 12.29 60.4784 12.032 60.8984 11.516C61.3304 11 61.5464 10.316 61.5464 9.464C61.5464 8.6 61.3304 7.94 60.8984 7.484C60.4664 7.016 59.8304 6.782 58.9904 6.782C58.4024 6.782 57.9044 6.932 57.4964 7.232C57.1004 7.52 56.8124 7.916 56.6324 8.42H54.6884V0.842H62.6084V2.642ZM65.3925 11.264V9.716L71.4405 1.04H73.9245V9.482H75.5985V11.264H73.9245V14H71.9085V11.264H65.3925ZM71.9985 3.128L67.7505 9.482H71.9985V3.128ZM85.7588 2.642H79.7288V6.224C79.9808 5.888 80.3528 5.606 80.8447 5.378C81.3488 5.15 81.8828 5.036 82.4468 5.036C83.4548 5.036 84.2708 5.252 84.8948 5.684C85.5308 6.116 85.9808 6.662 86.2448 7.322C86.5208 7.982 86.6588 8.678 86.6588 9.41C86.6588 10.298 86.4848 11.09 86.1367 11.786C85.8008 12.47 85.2908 13.01 84.6068 13.406C83.9348 13.802 83.1068 14 82.1228 14C80.8148 14 79.7648 13.676 78.9728 13.028C78.1808 12.38 77.7068 11.522 77.5508 10.454H79.5488C79.6808 11.018 79.9748 11.468 80.4308 11.804C80.8868 12.128 81.4568 12.29 82.1408 12.29C82.9928 12.29 83.6288 12.032 84.0488 11.516C84.4808 11 84.6968 10.316 84.6968 9.464C84.6968 8.6 84.4808 7.94 84.0488 7.484C83.6168 7.016 82.9808 6.782 82.1408 6.782C81.5528 6.782 81.0548 6.932 80.6468 7.232C80.2508 7.52 79.9628 7.916 79.7828 8.42H77.8388V0.842H85.7588V2.642Z" fill="black"/>
</svg>
