<svg width="76" height="15" viewBox="0 0 76 15" fill="none" xmlns="http://www.w3.org/2000/svg">
<path d="M11.844 5.756L11.178 8.87H13.554V10.67H10.8L10.08 14H8.118L8.838 10.67H5.31L4.59 14H2.628L3.348 10.67H0.558V8.87H3.726L4.392 5.756H1.62V3.956H4.77L5.472 0.68H7.434L6.732 3.956H10.26L10.962 0.68H12.924L12.222 3.956H14.616V5.756H11.844ZM9.882 5.756H6.354L5.688 8.87H9.216L9.882 5.756ZM24.4093 1.49V3.164H19.0993V6.854H23.2393V8.528H19.0993V14H17.0473V1.49H24.4093ZM27.1749 11.21C28.3269 10.214 29.2329 9.398 29.8929 8.762C30.5649 8.114 31.1229 7.442 31.5669 6.746C32.0109 6.05 32.2329 5.354 32.2329 4.658C32.2329 3.938 32.0589 3.374 31.7109 2.966C31.3749 2.558 30.8409 2.354 30.1089 2.354C29.4009 2.354 28.8489 2.582 28.4529 3.038C28.0689 3.482 27.8649 4.082 27.8409 4.838H25.8609C25.8969 3.47 26.3049 2.426 27.0849 1.706C27.8769 0.974 28.8789 0.608 30.0909 0.608C31.3989 0.608 32.4189 0.968 33.1509 1.688C33.8949 2.408 34.2669 3.368 34.2669 4.568C34.2669 5.432 34.0449 6.266 33.6009 7.07C33.1689 7.862 32.6469 8.576 32.0349 9.212C31.4349 9.836 30.6669 10.562 29.7309 11.39L28.9209 12.11H34.6269V13.82H25.8789V12.326L27.1749 11.21ZM44.0616 1.49V3.164H38.7516V6.854H42.8916V8.528H38.7516V14H36.6996V1.49H44.0616ZM45.4413 11.264V9.716L51.4893 1.04H53.9733V9.482H55.6473V11.264H53.9733V14H51.9573V11.264H45.4413ZM52.0473 3.128L47.7993 9.482H52.0473V3.128ZM64.9796 1.49V3.164H59.6696V6.854H63.8096V8.528H59.6696V14H57.6176V1.49H64.9796ZM66.5753 4.118C66.6473 3.002 67.0733 2.132 67.8533 1.508C68.6453 0.883999 69.6533 0.571999 70.8773 0.571999C71.7173 0.571999 72.4433 0.721999 73.0553 1.022C73.6673 1.322 74.1293 1.73 74.4413 2.246C74.7533 2.762 74.9093 3.344 74.9093 3.992C74.9093 4.736 74.7113 5.372 74.3153 5.9C73.9193 6.428 73.4453 6.782 72.8933 6.962V7.034C73.6013 7.25 74.1533 7.646 74.5493 8.222C74.9453 8.786 75.1433 9.512 75.1433 10.4C75.1433 11.108 74.9813 11.738 74.6573 12.29C74.3333 12.842 73.8533 13.28 73.2173 13.604C72.5813 13.916 71.8193 14.072 70.9313 14.072C69.6353 14.072 68.5673 13.742 67.7273 13.082C66.8993 12.41 66.4553 11.45 66.3953 10.202H68.3753C68.4233 10.838 68.6693 11.36 69.1133 11.768C69.5573 12.164 70.1573 12.362 70.9133 12.362C71.6453 12.362 72.2093 12.164 72.6053 11.768C73.0013 11.36 73.1993 10.838 73.1993 10.202C73.1993 9.362 72.9293 8.768 72.3893 8.42C71.8613 8.06 71.0453 7.88 69.9413 7.88H69.4733V6.188H69.9593C70.9313 6.176 71.6693 6.014 72.1733 5.702C72.6893 5.39 72.9473 4.898 72.9473 4.226C72.9473 3.65 72.7613 3.194 72.3893 2.858C72.0173 2.51 71.4893 2.336 70.8053 2.336C70.1333 2.336 69.6113 2.51 69.2393 2.858C68.8673 3.194 68.6453 3.614 68.5733 4.118H66.5753Z" fill="black"/>
</svg>
