<svg width="76" height="15" viewBox="0 0 76 15" fill="none" xmlns="http://www.w3.org/2000/svg">
<path d="M11.844 5.756L11.178 8.87H13.554V10.67H10.8L10.08 14H8.118L8.838 10.67H5.31L4.59 14H2.628L3.348 10.67H0.558V8.87H3.726L4.392 5.756H1.62V3.956H4.77L5.472 0.68H7.434L6.732 3.956H10.26L10.962 0.68H12.924L12.222 3.956H14.616V5.756H11.844ZM9.882 5.756H6.354L5.688 8.87H9.216L9.882 5.756ZM24.4093 1.49V3.164H19.0993V6.854H23.2393V8.528H19.0993V14H17.0473V1.49H24.4093ZM33.6729 1.49V3.164H28.3629V6.854H32.5029V8.528H28.3629V14H26.3109V1.49H33.6729ZM34.8906 7.718C34.8906 6.494 35.1726 5.396 35.7366 4.424C36.3126 3.452 37.0866 2.696 38.0586 2.156C39.0426 1.604 40.1166 1.328 41.2806 1.328C42.6126 1.328 43.7946 1.658 44.8266 2.318C45.8706 2.966 46.6266 3.89 47.0946 5.09H44.6286C44.3046 4.43 43.8546 3.938 43.2786 3.614C42.7026 3.29 42.0366 3.128 41.2806 3.128C40.4526 3.128 39.7146 3.314 39.0666 3.686C38.4186 4.058 37.9086 4.592 37.5366 5.288C37.1766 5.984 36.9966 6.794 36.9966 7.718C36.9966 8.642 37.1766 9.452 37.5366 10.148C37.9086 10.844 38.4186 11.384 39.0666 11.768C39.7146 12.14 40.4526 12.326 41.2806 12.326C42.0366 12.326 42.7026 12.164 43.2786 11.84C43.8546 11.516 44.3046 11.024 44.6286 10.364H47.0946C46.6266 11.564 45.8706 12.488 44.8266 13.136C43.7946 13.784 42.6126 14.108 41.2806 14.108C40.1046 14.108 39.0306 13.838 38.0586 13.298C37.0866 12.746 36.3126 11.984 35.7366 11.012C35.1726 10.04 34.8906 8.942 34.8906 7.718ZM48.9565 2.75V0.877999H52.7005V14H50.6305V2.75H48.9565ZM55.5195 7.268C55.5195 5.192 55.8675 3.572 56.5635 2.408C57.2715 1.232 58.4835 0.643999 60.1995 0.643999C61.9155 0.643999 63.1215 1.232 63.8175 2.408C64.5255 3.572 64.8795 5.192 64.8795 7.268C64.8795 9.368 64.5255 11.012 63.8175 12.2C63.1215 13.376 61.9155 13.964 60.1995 13.964C58.4835 13.964 57.2715 13.376 56.5635 12.2C55.8675 11.012 55.5195 9.368 55.5195 7.268ZM62.8635 7.268C62.8635 6.296 62.7975 5.474 62.6655 4.802C62.5455 4.13 62.2935 3.584 61.9095 3.164C61.5255 2.732 60.9555 2.516 60.1995 2.516C59.4435 2.516 58.8735 2.732 58.4895 3.164C58.1055 3.584 57.8475 4.13 57.7155 4.802C57.5955 5.474 57.5355 6.296 57.5355 7.268C57.5355 8.276 57.5955 9.122 57.7155 9.806C57.8355 10.49 58.0875 11.042 58.4715 11.462C58.8675 11.882 59.4435 12.092 60.1995 12.092C60.9555 12.092 61.5255 11.882 61.9095 11.462C62.3055 11.042 62.5635 10.49 62.6835 9.806C62.8035 9.122 62.8635 8.276 62.8635 7.268ZM75.3667 2.462L70.3627 14H68.2927L73.3507 2.678H66.6907V0.932H75.3667V2.462Z" fill="black"/>
</svg>
