<svg width="149" height="19" viewBox="0 0 149 19" fill="none" xmlns="http://www.w3.org/2000/svg">
<path d="M3.39205 18H0.596591L6.87784 0.545454H9.92045L16.2017 18H13.4062L8.47159 3.71591H8.33523L3.39205 18ZM3.8608 11.1648H12.929V13.3807H3.8608V11.1648ZM23.821 18.2642C22.554 18.2642 21.4631 17.9773 20.5483 17.4034C19.6392 16.8239 18.9403 16.0256 18.4517 15.0085C17.9631 13.9915 17.7188 12.8267 17.7188 11.5142C17.7188 10.1847 17.9688 9.01136 18.4688 7.99432C18.9688 6.97159 19.6733 6.1733 20.5824 5.59943C21.4915 5.02557 22.5625 4.73864 23.7955 4.73864C24.7898 4.73864 25.6761 4.9233 26.4545 5.29261C27.233 5.65625 27.8608 6.16761 28.3381 6.8267C28.821 7.4858 29.108 8.25568 29.1989 9.13636H26.7188C26.5824 8.52273 26.2699 7.99432 25.7812 7.55114C25.2983 7.10795 24.6506 6.88636 23.8381 6.88636C23.1278 6.88636 22.5057 7.07386 21.9716 7.44886C21.4432 7.81818 21.0313 8.34659 20.7358 9.03409C20.4403 9.71591 20.2926 10.5227 20.2926 11.4545C20.2926 12.4091 20.4375 13.233 20.7273 13.9261C21.017 14.6193 21.4261 15.1562 21.9545 15.5369C22.4886 15.9176 23.1165 16.108 23.8381 16.108C24.321 16.108 24.7585 16.0199 25.1506 15.8438C25.5483 15.6619 25.8807 15.4034 26.1477 15.0682C26.4205 14.733 26.6108 14.3295 26.7188 13.858H29.1989C29.108 14.7045 28.8324 15.4602 28.3722 16.125C27.9119 16.7898 27.2955 17.3125 26.5227 17.6932C25.7557 18.0739 24.8551 18.2642 23.821 18.2642ZM37.4382 18.2642C36.1712 18.2642 35.0803 17.9773 34.1655 17.4034C33.2564 16.8239 32.5575 16.0256 32.0689 15.0085C31.5803 13.9915 31.3359 12.8267 31.3359 11.5142C31.3359 10.1847 31.5859 9.01136 32.0859 7.99432C32.5859 6.97159 33.2905 6.1733 34.1996 5.59943C35.1087 5.02557 36.1797 4.73864 37.4126 4.73864C38.407 4.73864 39.2933 4.9233 40.0717 5.29261C40.8501 5.65625 41.478 6.16761 41.9553 6.8267C42.4382 7.4858 42.7251 8.25568 42.8161 9.13636H40.3359C40.1996 8.52273 39.8871 7.99432 39.3984 7.55114C38.9155 7.10795 38.2678 6.88636 37.4553 6.88636C36.745 6.88636 36.1229 7.07386 35.5888 7.44886C35.0604 7.81818 34.6484 8.34659 34.353 9.03409C34.0575 9.71591 33.9098 10.5227 33.9098 11.4545C33.9098 12.4091 34.0547 13.233 34.3445 13.9261C34.6342 14.6193 35.0433 15.1562 35.5717 15.5369C36.1058 15.9176 36.7337 16.108 37.4553 16.108C37.9382 16.108 38.3757 16.0199 38.7678 15.8438C39.1655 15.6619 39.4979 15.4034 39.7649 15.0682C40.0376 14.733 40.228 14.3295 40.3359 13.858H42.8161C42.7251 14.7045 42.4496 15.4602 41.9893 16.125C41.5291 16.7898 40.9126 17.3125 40.1399 17.6932C39.3729 18.0739 38.4723 18.2642 37.4382 18.2642ZM51.1832 18.2642C49.8935 18.2642 48.7827 17.9886 47.8509 17.4375C46.9247 16.8807 46.2088 16.0994 45.7031 15.0938C45.2031 14.0824 44.9531 12.8977 44.9531 11.5398C44.9531 10.1989 45.2031 9.01705 45.7031 7.99432C46.2088 6.97159 46.9134 6.1733 47.8168 5.59943C48.7259 5.02557 49.7884 4.73864 51.0043 4.73864C51.7429 4.73864 52.4588 4.8608 53.152 5.10511C53.8452 5.34943 54.4673 5.73295 55.0185 6.25568C55.5696 6.77841 56.0043 7.45739 56.3224 8.29261C56.6406 9.12216 56.7997 10.1307 56.7997 11.3182V12.2216H46.3935V10.3125H54.3026C54.3026 9.64205 54.1662 9.0483 53.8935 8.53125C53.6207 8.00852 53.2372 7.59659 52.7429 7.29545C52.2543 6.99432 51.6804 6.84375 51.0213 6.84375C50.3054 6.84375 49.6804 7.01989 49.1463 7.37216C48.6179 7.71875 48.2088 8.1733 47.919 8.7358C47.6349 9.29261 47.4929 9.89773 47.4929 10.5511V12.0426C47.4929 12.9176 47.6463 13.6619 47.9531 14.2756C48.2656 14.8892 48.7003 15.358 49.2571 15.6818C49.8139 16 50.4645 16.1591 51.2088 16.1591C51.6918 16.1591 52.1321 16.0909 52.5298 15.9545C52.9276 15.8125 53.2713 15.6023 53.5611 15.3239C53.8509 15.0455 54.0724 14.7017 54.2259 14.2926L56.6378 14.7273C56.4446 15.4375 56.098 16.0597 55.598 16.5938C55.1037 17.1222 54.4815 17.5341 53.7315 17.8295C52.9872 18.1193 52.1378 18.2642 51.1832 18.2642ZM62.1754 10.2273V18H59.6271V4.90909H62.0732V7.03977H62.2351C62.5362 6.34659 63.0078 5.78977 63.6499 5.36932C64.2976 4.94886 65.1129 4.73864 66.0959 4.73864C66.9879 4.73864 67.7692 4.92614 68.4396 5.30114C69.1101 5.67045 69.63 6.22159 69.9993 6.95455C70.3686 7.6875 70.5533 8.59375 70.5533 9.6733V18H68.005V9.98011C68.005 9.03125 67.7578 8.28977 67.2635 7.75568C66.7692 7.21591 66.0902 6.94602 65.2266 6.94602C64.6357 6.94602 64.1101 7.07386 63.6499 7.32955C63.1953 7.58523 62.8345 7.96023 62.5675 8.45455C62.3061 8.94318 62.1754 9.53409 62.1754 10.2273ZM80.0817 4.90909V6.95455H72.9311V4.90909H80.0817ZM74.8487 1.77273H77.397V14.1562C77.397 14.6506 77.4709 15.0227 77.6186 15.2727C77.7663 15.517 77.9567 15.6847 78.1896 15.7756C78.4283 15.8608 78.6868 15.9034 78.9652 15.9034C79.1697 15.9034 79.3487 15.8892 79.5021 15.8608C79.6555 15.8324 79.7749 15.8097 79.8601 15.7926L80.3203 17.8977C80.1726 17.9545 79.9624 18.0114 79.6896 18.0682C79.4169 18.1307 79.076 18.1648 78.6669 18.1705C77.9964 18.1818 77.3714 18.0625 76.7919 17.8125C76.2124 17.5625 75.7436 17.1761 75.3857 16.6534C75.0277 16.1307 74.8487 15.4744 74.8487 14.6847V1.77273ZM103.954 6.22159H101.295C101.192 5.65341 101.002 5.15341 100.724 4.72159C100.445 4.28977 100.104 3.9233 99.701 3.62216C99.2976 3.32102 98.8459 3.09375 98.3459 2.94034C97.8516 2.78693 97.326 2.71023 96.7692 2.71023C95.7635 2.71023 94.8629 2.96307 94.0675 3.46875C93.2777 3.97443 92.6527 4.71591 92.1925 5.69318C91.7379 6.67045 91.5107 7.86364 91.5107 9.27273C91.5107 10.6932 91.7379 11.892 92.1925 12.8693C92.6527 13.8466 93.2805 14.5852 94.076 15.0852C94.8714 15.5852 95.7663 15.8352 96.7607 15.8352C97.3118 15.8352 97.8345 15.7614 98.3288 15.6136C98.8288 15.4602 99.2805 15.2358 99.6839 14.9403C100.087 14.6449 100.428 14.2841 100.707 13.858C100.991 13.4261 101.187 12.9318 101.295 12.375L103.954 12.3835C103.812 13.2415 103.536 14.0312 103.127 14.7528C102.724 15.4688 102.204 16.0881 101.567 16.6108C100.937 17.1278 100.215 17.5284 99.4027 17.8125C98.5902 18.0966 97.7038 18.2386 96.7436 18.2386C95.2322 18.2386 93.8857 17.8807 92.7038 17.1648C91.522 16.4432 90.5902 15.4119 89.9084 14.071C89.2322 12.7301 88.8942 11.1307 88.8942 9.27273C88.8942 7.40909 89.2351 5.80966 89.9169 4.47443C90.5987 3.13352 91.5305 2.10511 92.7124 1.3892C93.8942 0.667613 95.2379 0.306818 96.7436 0.306818C97.6697 0.306818 98.5334 0.440341 99.3345 0.707386C100.141 0.96875 100.866 1.35511 101.508 1.86648C102.15 2.37216 102.681 2.99148 103.102 3.72443C103.522 4.4517 103.806 5.28409 103.954 6.22159ZM112.415 18.2642C111.188 18.2642 110.116 17.983 109.202 17.4205C108.287 16.858 107.577 16.071 107.071 15.0597C106.565 14.0483 106.312 12.8665 106.312 11.5142C106.312 10.1562 106.565 8.96875 107.071 7.9517C107.577 6.93466 108.287 6.14489 109.202 5.58239C110.116 5.01989 111.188 4.73864 112.415 4.73864C113.642 4.73864 114.713 5.01989 115.628 5.58239C116.543 6.14489 117.253 6.93466 117.759 7.9517C118.264 8.96875 118.517 10.1562 118.517 11.5142C118.517 12.8665 118.264 14.0483 117.759 15.0597C117.253 16.071 116.543 16.858 115.628 17.4205C114.713 17.983 113.642 18.2642 112.415 18.2642ZM112.423 16.125C113.219 16.125 113.878 15.9148 114.401 15.4943C114.923 15.0739 115.31 14.5142 115.56 13.8153C115.815 13.1165 115.943 12.3466 115.943 11.5057C115.943 10.6705 115.815 9.90341 115.56 9.20455C115.31 8.5 114.923 7.93466 114.401 7.50852C113.878 7.08239 113.219 6.86932 112.423 6.86932C111.622 6.86932 110.957 7.08239 110.429 7.50852C109.906 7.93466 109.517 8.5 109.261 9.20455C109.011 9.90341 108.886 10.6705 108.886 11.5057C108.886 12.3466 109.011 13.1165 109.261 13.8153C109.517 14.5142 109.906 15.0739 110.429 15.4943C110.957 15.9148 111.622 16.125 112.423 16.125ZM123.91 0.545454V18H121.362V0.545454H123.91ZM132.852 18.2642C131.625 18.2642 130.554 17.983 129.639 17.4205C128.724 16.858 128.014 16.071 127.509 15.0597C127.003 14.0483 126.75 12.8665 126.75 11.5142C126.75 10.1562 127.003 8.96875 127.509 7.9517C128.014 6.93466 128.724 6.14489 129.639 5.58239C130.554 5.01989 131.625 4.73864 132.852 4.73864C134.08 4.73864 135.151 5.01989 136.065 5.58239C136.98 6.14489 137.69 6.93466 138.196 7.9517C138.702 8.96875 138.955 10.1562 138.955 11.5142C138.955 12.8665 138.702 14.0483 138.196 15.0597C137.69 16.071 136.98 16.858 136.065 17.4205C135.151 17.983 134.08 18.2642 132.852 18.2642ZM132.861 16.125C133.656 16.125 134.315 15.9148 134.838 15.4943C135.361 15.0739 135.747 14.5142 135.997 13.8153C136.253 13.1165 136.381 12.3466 136.381 11.5057C136.381 10.6705 136.253 9.90341 135.997 9.20455C135.747 8.5 135.361 7.93466 134.838 7.50852C134.315 7.08239 133.656 6.86932 132.861 6.86932C132.06 6.86932 131.395 7.08239 130.866 7.50852C130.344 7.93466 129.955 8.5 129.699 9.20455C129.449 9.90341 129.324 10.6705 129.324 11.5057C129.324 12.3466 129.449 13.1165 129.699 13.8153C129.955 14.5142 130.344 15.0739 130.866 15.4943C131.395 15.9148 132.06 16.125 132.861 16.125ZM141.799 18V4.90909H144.262V6.98864H144.398C144.637 6.28409 145.058 5.73011 145.66 5.3267C146.268 4.91761 146.955 4.71307 147.722 4.71307C147.881 4.71307 148.069 4.71875 148.285 4.73011C148.506 4.74148 148.68 4.75568 148.805 4.77273V7.21023C148.702 7.18182 148.521 7.15057 148.259 7.11648C147.998 7.0767 147.737 7.05682 147.475 7.05682C146.873 7.05682 146.336 7.18466 145.864 7.44034C145.398 7.69034 145.029 8.03977 144.756 8.48864C144.484 8.93182 144.347 9.4375 144.347 10.0057V18H141.799Z" fill="black"/>
</svg>
