<svg width="124" height="19" viewBox="0 0 124 19" fill="none" xmlns="http://www.w3.org/2000/svg">
<path d="M3.39205 18H0.596591L6.87784 0.545454H9.92045L16.2017 18H13.4062L8.47159 3.71591H8.33523L3.39205 18ZM3.8608 11.1648H12.929V13.3807H3.8608V11.1648ZM21.0661 0.545454V18H18.5178V0.545454H21.0661ZM30.1364 18.2642C28.8466 18.2642 27.7358 17.9886 26.804 17.4375C25.8778 16.8807 25.1619 16.0994 24.6562 15.0938C24.1562 14.0824 23.9062 12.8977 23.9062 11.5398C23.9062 10.1989 24.1562 9.01705 24.6562 7.99432C25.1619 6.97159 25.8665 6.1733 26.7699 5.59943C27.679 5.02557 28.7415 4.73864 29.9574 4.73864C30.696 4.73864 31.4119 4.8608 32.1051 5.10511C32.7983 5.34943 33.4205 5.73295 33.9716 6.25568C34.5227 6.77841 34.9574 7.45739 35.2756 8.29261C35.5938 9.12216 35.7528 10.1307 35.7528 11.3182V12.2216H25.3466V10.3125H33.2557C33.2557 9.64205 33.1193 9.0483 32.8466 8.53125C32.5739 8.00852 32.1903 7.59659 31.696 7.29545C31.2074 6.99432 30.6335 6.84375 29.9744 6.84375C29.2585 6.84375 28.6335 7.01989 28.0994 7.37216C27.571 7.71875 27.1619 8.1733 26.8722 8.7358C26.5881 9.29261 26.446 9.89773 26.446 10.5511V12.0426C26.446 12.9176 26.5994 13.6619 26.9062 14.2756C27.2188 14.8892 27.6534 15.358 28.2102 15.6818C28.767 16 29.4176 16.1591 30.1619 16.1591C30.6449 16.1591 31.0852 16.0909 31.483 15.9545C31.8807 15.8125 32.2244 15.6023 32.5142 15.3239C32.804 15.0455 33.0256 14.7017 33.179 14.2926L35.5909 14.7273C35.3977 15.4375 35.0511 16.0597 34.5511 16.5938C34.0568 17.1222 33.4347 17.5341 32.6847 17.8295C31.9403 18.1193 31.0909 18.2642 30.1364 18.2642ZM38.5803 18V4.90909H41.0433V6.98864H41.1797C41.4183 6.28409 41.8388 5.73011 42.4411 5.3267C43.049 4.91761 43.7365 4.71307 44.5036 4.71307C44.6626 4.71307 44.8501 4.71875 45.0661 4.73011C45.2876 4.74148 45.4609 4.75568 45.5859 4.77273V7.21023C45.4837 7.18182 45.3018 7.15057 45.0405 7.11648C44.7791 7.0767 44.5178 7.05682 44.2564 7.05682C43.6541 7.05682 43.1172 7.18466 42.6456 7.44034C42.1797 7.69034 41.8104 8.03977 41.5376 8.48864C41.2649 8.93182 41.1286 9.4375 41.1286 10.0057V18H38.5803ZM54.6754 4.90909V6.95455H47.5249V4.90909H54.6754ZM49.4425 1.77273H51.9908V14.1562C51.9908 14.6506 52.0646 15.0227 52.2124 15.2727C52.3601 15.517 52.5504 15.6847 52.7834 15.7756C53.022 15.8608 53.2805 15.9034 53.5589 15.9034C53.7635 15.9034 53.9425 15.8892 54.0959 15.8608C54.2493 15.8324 54.3686 15.8097 54.4538 15.7926L54.9141 17.8977C54.7663 17.9545 54.5561 18.0114 54.2834 18.0682C54.0107 18.1307 53.6697 18.1648 53.2607 18.1705C52.5902 18.1818 51.9652 18.0625 51.3857 17.8125C50.8061 17.5625 50.3374 17.1761 49.9794 16.6534C49.6214 16.1307 49.4425 15.4744 49.4425 14.6847V1.77273ZM78.5476 6.22159H75.8885C75.7862 5.65341 75.5959 5.15341 75.3175 4.72159C75.0391 4.28977 74.6982 3.9233 74.2947 3.62216C73.8913 3.32102 73.4396 3.09375 72.9396 2.94034C72.4453 2.78693 71.9197 2.71023 71.3629 2.71023C70.3572 2.71023 69.4567 2.96307 68.6612 3.46875C67.8714 3.97443 67.2464 4.71591 66.7862 5.69318C66.3317 6.67045 66.1044 7.86364 66.1044 9.27273C66.1044 10.6932 66.3317 11.892 66.7862 12.8693C67.2464 13.8466 67.8743 14.5852 68.6697 15.0852C69.4652 15.5852 70.3601 15.8352 71.3544 15.8352C71.9055 15.8352 72.4283 15.7614 72.9226 15.6136C73.4226 15.4602 73.8743 15.2358 74.2777 14.9403C74.6811 14.6449 75.022 14.2841 75.3004 13.858C75.5845 13.4261 75.7805 12.9318 75.8885 12.375L78.5476 12.3835C78.4055 13.2415 78.13 14.0312 77.7209 14.7528C77.3175 15.4688 76.7976 16.0881 76.1612 16.6108C75.5305 17.1278 74.8089 17.5284 73.9964 17.8125C73.1839 18.0966 72.2976 18.2386 71.3374 18.2386C69.826 18.2386 68.4794 17.8807 67.2976 17.1648C66.1158 16.4432 65.1839 15.4119 64.5021 14.071C63.826 12.7301 63.4879 11.1307 63.4879 9.27273C63.4879 7.40909 63.8288 5.80966 64.5107 4.47443C65.1925 3.13352 66.1243 2.10511 67.3061 1.3892C68.4879 0.667613 69.8317 0.306818 71.3374 0.306818C72.2635 0.306818 73.1271 0.440341 73.9283 0.707386C74.7351 0.96875 75.4595 1.35511 76.1016 1.86648C76.7436 2.37216 77.2749 2.99148 77.6953 3.72443C78.1158 4.4517 78.3999 5.28409 78.5476 6.22159ZM87.0085 18.2642C85.7813 18.2642 84.7102 17.983 83.7955 17.4205C82.8807 16.858 82.1705 16.071 81.6648 15.0597C81.1591 14.0483 80.9062 12.8665 80.9062 11.5142C80.9062 10.1562 81.1591 8.96875 81.6648 7.9517C82.1705 6.93466 82.8807 6.14489 83.7955 5.58239C84.7102 5.01989 85.7813 4.73864 87.0085 4.73864C88.2358 4.73864 89.3068 5.01989 90.2216 5.58239C91.1364 6.14489 91.8466 6.93466 92.3523 7.9517C92.858 8.96875 93.1108 10.1562 93.1108 11.5142C93.1108 12.8665 92.858 14.0483 92.3523 15.0597C91.8466 16.071 91.1364 16.858 90.2216 17.4205C89.3068 17.983 88.2358 18.2642 87.0085 18.2642ZM87.017 16.125C87.8125 16.125 88.4716 15.9148 88.9943 15.4943C89.517 15.0739 89.9034 14.5142 90.1534 13.8153C90.4091 13.1165 90.5369 12.3466 90.5369 11.5057C90.5369 10.6705 90.4091 9.90341 90.1534 9.20455C89.9034 8.5 89.517 7.93466 88.9943 7.50852C88.4716 7.08239 87.8125 6.86932 87.017 6.86932C86.2159 6.86932 85.5511 7.08239 85.0227 7.50852C84.5 7.93466 84.1108 8.5 83.8551 9.20455C83.6051 9.90341 83.4801 10.6705 83.4801 11.5057C83.4801 12.3466 83.6051 13.1165 83.8551 13.8153C84.1108 14.5142 84.5 15.0739 85.0227 15.4943C85.5511 15.9148 86.2159 16.125 87.017 16.125ZM98.5036 0.545454V18H95.9553V0.545454H98.5036ZM107.446 18.2642C106.219 18.2642 105.148 17.983 104.233 17.4205C103.318 16.858 102.608 16.071 102.102 15.0597C101.597 14.0483 101.344 12.8665 101.344 11.5142C101.344 10.1562 101.597 8.96875 102.102 7.9517C102.608 6.93466 103.318 6.14489 104.233 5.58239C105.148 5.01989 106.219 4.73864 107.446 4.73864C108.673 4.73864 109.744 5.01989 110.659 5.58239C111.574 6.14489 112.284 6.93466 112.79 7.9517C113.295 8.96875 113.548 10.1562 113.548 11.5142C113.548 12.8665 113.295 14.0483 112.79 15.0597C112.284 16.071 111.574 16.858 110.659 17.4205C109.744 17.983 108.673 18.2642 107.446 18.2642ZM107.455 16.125C108.25 16.125 108.909 15.9148 109.432 15.4943C109.955 15.0739 110.341 14.5142 110.591 13.8153C110.847 13.1165 110.974 12.3466 110.974 11.5057C110.974 10.6705 110.847 9.90341 110.591 9.20455C110.341 8.5 109.955 7.93466 109.432 7.50852C108.909 7.08239 108.25 6.86932 107.455 6.86932C106.653 6.86932 105.989 7.08239 105.46 7.50852C104.938 7.93466 104.548 8.5 104.293 9.20455C104.043 9.90341 103.918 10.6705 103.918 11.5057C103.918 12.3466 104.043 13.1165 104.293 13.8153C104.548 14.5142 104.938 15.0739 105.46 15.4943C105.989 15.9148 106.653 16.125 107.455 16.125ZM116.393 18V4.90909H118.856V6.98864H118.992C119.231 6.28409 119.651 5.73011 120.254 5.3267C120.862 4.91761 121.549 4.71307 122.316 4.71307C122.475 4.71307 122.663 4.71875 122.879 4.73011C123.1 4.74148 123.273 4.75568 123.398 4.77273V7.21023C123.296 7.18182 123.114 7.15057 122.853 7.11648C122.592 7.0767 122.33 7.05682 122.069 7.05682C121.467 7.05682 120.93 7.18466 120.458 7.44034C119.992 7.69034 119.623 8.03977 119.35 8.48864C119.077 8.93182 118.941 9.4375 118.941 10.0057V18H116.393Z" fill="black"/>
</svg>
