<svg width="111" height="20" viewBox="0 0 111 20" fill="none" xmlns="http://www.w3.org/2000/svg">
<path d="M3.55114 1.54545V19H0.917614V1.54545H3.55114ZM9.73011 11.2273V19H7.18182V5.90909H9.62784V8.03977H9.78977C10.0909 7.34659 10.5625 6.78977 11.2045 6.36932C11.8523 5.94886 12.6676 5.73864 13.6506 5.73864C14.5426 5.73864 15.3239 5.92614 15.9943 6.30114C16.6648 6.67045 17.1847 7.22159 17.554 7.95455C17.9233 8.6875 18.108 9.59375 18.108 10.6733V19H15.5597V10.9801C15.5597 10.0312 15.3125 9.28977 14.8182 8.75568C14.3239 8.21591 13.6449 7.94602 12.7812 7.94602C12.1903 7.94602 11.6648 8.07386 11.2045 8.32955C10.75 8.58523 10.3892 8.96023 10.1222 9.45455C9.8608 9.94318 9.73011 10.5341 9.73011 11.2273ZM27.7557 5.90909V7.95455H20.358V5.90909H27.7557ZM22.3864 19V4.39204C22.3864 3.57386 22.5653 2.89489 22.9233 2.35511C23.2813 1.80966 23.7557 1.40341 24.3466 1.13636C24.9375 0.863636 25.5795 0.727272 26.2727 0.727272C26.7841 0.727272 27.2216 0.769886 27.5852 0.855114C27.9489 0.934659 28.2188 1.00852 28.3949 1.0767L27.7983 3.1392C27.679 3.10511 27.5256 3.06534 27.3381 3.01989C27.1506 2.96875 26.9233 2.94318 26.6562 2.94318C26.0369 2.94318 25.5938 3.09659 25.3267 3.40341C25.0653 3.71023 24.9347 4.15341 24.9347 4.73295V19H22.3864ZM35.3835 19.2642C34.1563 19.2642 33.0852 18.983 32.1705 18.4205C31.2557 17.858 30.5455 17.071 30.0398 16.0597C29.5341 15.0483 29.2812 13.8665 29.2812 12.5142C29.2812 11.1562 29.5341 9.96875 30.0398 8.9517C30.5455 7.93466 31.2557 7.14489 32.1705 6.58239C33.0852 6.01989 34.1563 5.73864 35.3835 5.73864C36.6108 5.73864 37.6818 6.01989 38.5966 6.58239C39.5114 7.14489 40.2216 7.93466 40.7273 8.9517C41.233 9.96875 41.4858 11.1562 41.4858 12.5142C41.4858 13.8665 41.233 15.0483 40.7273 16.0597C40.2216 17.071 39.5114 17.858 38.5966 18.4205C37.6818 18.983 36.6108 19.2642 35.3835 19.2642ZM35.392 17.125C36.1875 17.125 36.8466 16.9148 37.3693 16.4943C37.892 16.0739 38.2784 15.5142 38.5284 14.8153C38.7841 14.1165 38.9119 13.3466 38.9119 12.5057C38.9119 11.6705 38.7841 10.9034 38.5284 10.2045C38.2784 9.5 37.892 8.93466 37.3693 8.50852C36.8466 8.08239 36.1875 7.86932 35.392 7.86932C34.5909 7.86932 33.9261 8.08239 33.3977 8.50852C32.875 8.93466 32.4858 9.5 32.2301 10.2045C31.9801 10.9034 31.8551 11.6705 31.8551 12.5057C31.8551 13.3466 31.9801 14.1165 32.2301 14.8153C32.4858 15.5142 32.875 16.0739 33.3977 16.4943C33.9261 16.9148 34.5909 17.125 35.392 17.125ZM65.3835 7.22159H62.7244C62.6222 6.65341 62.4318 6.15341 62.1534 5.72159C61.875 5.28977 61.5341 4.9233 61.1307 4.62216C60.7273 4.32102 60.2756 4.09375 59.7756 3.94034C59.2813 3.78693 58.7557 3.71023 58.1989 3.71023C57.1932 3.71023 56.2926 3.96307 55.4972 4.46875C54.7074 4.97443 54.0824 5.71591 53.6222 6.69318C53.1676 7.67045 52.9403 8.86364 52.9403 10.2727C52.9403 11.6932 53.1676 12.892 53.6222 13.8693C54.0824 14.8466 54.7102 15.5852 55.5057 16.0852C56.3011 16.5852 57.196 16.8352 58.1903 16.8352C58.7415 16.8352 59.2642 16.7614 59.7585 16.6136C60.2585 16.4602 60.7102 16.2358 61.1136 15.9403C61.517 15.6449 61.858 15.2841 62.1364 14.858C62.4205 14.4261 62.6165 13.9318 62.7244 13.375L65.3835 13.3835C65.2415 14.2415 64.9659 15.0312 64.5568 15.7528C64.1534 16.4688 63.6335 17.0881 62.9972 17.6108C62.3665 18.1278 61.6449 18.5284 60.8324 18.8125C60.0199 19.0966 59.1335 19.2386 58.1733 19.2386C56.6619 19.2386 55.3153 18.8807 54.1335 18.1648C52.9517 17.4432 52.0199 16.4119 51.3381 15.071C50.6619 13.7301 50.3239 12.1307 50.3239 10.2727C50.3239 8.40909 50.6648 6.80966 51.3466 5.47443C52.0284 4.13352 52.9602 3.10511 54.142 2.3892C55.3239 1.66761 56.6676 1.30682 58.1733 1.30682C59.0994 1.30682 59.9631 1.44034 60.7642 1.70739C61.571 1.96875 62.2955 2.35511 62.9375 2.86648C63.5795 3.37216 64.1108 3.99148 64.5312 4.72443C64.9517 5.4517 65.2358 6.28409 65.3835 7.22159ZM73.8445 19.2642C72.6172 19.2642 71.5462 18.983 70.6314 18.4205C69.7166 17.858 69.0064 17.071 68.5007 16.0597C67.995 15.0483 67.7422 13.8665 67.7422 12.5142C67.7422 11.1562 67.995 9.96875 68.5007 8.9517C69.0064 7.93466 69.7166 7.14489 70.6314 6.58239C71.5462 6.01989 72.6172 5.73864 73.8445 5.73864C75.0717 5.73864 76.1428 6.01989 77.0575 6.58239C77.9723 7.14489 78.6825 7.93466 79.1882 8.9517C79.6939 9.96875 79.9467 11.1562 79.9467 12.5142C79.9467 13.8665 79.6939 15.0483 79.1882 16.0597C78.6825 17.071 77.9723 17.858 77.0575 18.4205C76.1428 18.983 75.0717 19.2642 73.8445 19.2642ZM73.853 17.125C74.6484 17.125 75.3075 16.9148 75.8303 16.4943C76.353 16.0739 76.7393 15.5142 76.9893 14.8153C77.245 14.1165 77.3729 13.3466 77.3729 12.5057C77.3729 11.6705 77.245 10.9034 76.9893 10.2045C76.7393 9.5 76.353 8.93466 75.8303 8.50852C75.3075 8.08239 74.6484 7.86932 73.853 7.86932C73.0518 7.86932 72.3871 8.08239 71.8587 8.50852C71.3359 8.93466 70.9467 9.5 70.6911 10.2045C70.4411 10.9034 70.3161 11.6705 70.3161 12.5057C70.3161 13.3466 70.4411 14.1165 70.6911 14.8153C70.9467 15.5142 71.3359 16.0739 71.8587 16.4943C72.3871 16.9148 73.0518 17.125 73.853 17.125ZM85.3395 1.54545V19H82.7912V1.54545H85.3395ZM94.282 19.2642C93.0547 19.2642 91.9837 18.983 91.0689 18.4205C90.1541 17.858 89.4439 17.071 88.9382 16.0597C88.4325 15.0483 88.1797 13.8665 88.1797 12.5142C88.1797 11.1562 88.4325 9.96875 88.9382 8.9517C89.4439 7.93466 90.1541 7.14489 91.0689 6.58239C91.9837 6.01989 93.0547 5.73864 94.282 5.73864C95.5092 5.73864 96.5803 6.01989 97.495 6.58239C98.4098 7.14489 99.12 7.93466 99.6257 8.9517C100.131 9.96875 100.384 11.1562 100.384 12.5142C100.384 13.8665 100.131 15.0483 99.6257 16.0597C99.12 17.071 98.4098 17.858 97.495 18.4205C96.5803 18.983 95.5092 19.2642 94.282 19.2642ZM94.2905 17.125C95.0859 17.125 95.745 16.9148 96.2678 16.4943C96.7905 16.0739 97.1768 15.5142 97.4268 14.8153C97.6825 14.1165 97.8104 13.3466 97.8104 12.5057C97.8104 11.6705 97.6825 10.9034 97.4268 10.2045C97.1768 9.5 96.7905 8.93466 96.2678 8.50852C95.745 8.08239 95.0859 7.86932 94.2905 7.86932C93.4893 7.86932 92.8246 8.08239 92.2962 8.50852C91.7734 8.93466 91.3842 9.5 91.1286 10.2045C90.8786 10.9034 90.7536 11.6705 90.7536 12.5057C90.7536 13.3466 90.8786 14.1165 91.1286 14.8153C91.3842 15.5142 91.7734 16.0739 92.2962 16.4943C92.8246 16.9148 93.4893 17.125 94.2905 17.125ZM103.229 19V5.90909H105.692V7.98864H105.828C106.067 7.28409 106.487 6.73011 107.089 6.3267C107.697 5.91761 108.385 5.71307 109.152 5.71307C109.311 5.71307 109.499 5.71875 109.714 5.73011C109.936 5.74148 110.109 5.75568 110.234 5.77273V8.21023C110.132 8.18182 109.95 8.15057 109.689 8.11648C109.428 8.0767 109.166 8.05682 108.905 8.05682C108.303 8.05682 107.766 8.18466 107.294 8.44034C106.828 8.69034 106.459 9.03977 106.186 9.48864C105.913 9.93182 105.777 10.4375 105.777 11.0057V19H103.229Z" fill="black"/>
</svg>
