<svg width="143" height="20" viewBox="0 0 143 20" fill="none" xmlns="http://www.w3.org/2000/svg">
<path d="M18.92 2.248V19H15.56V8.104L11.072 19H8.528L4.016 8.104V19H0.656V2.248H4.472L9.8 14.704L15.128 2.248H18.92ZM21.3779 12.304C21.3779 10.96 21.6419 9.768 22.1699 8.728C22.7139 7.688 23.4419 6.888 24.3539 6.328C25.2819 5.768 26.3139 5.488 27.4499 5.488C28.4419 5.488 29.3059 5.688 30.0419 6.088C30.7939 6.488 31.3939 6.992 31.8419 7.6V5.704H35.2259V19H31.8419V17.056C31.4099 17.68 30.8099 18.2 30.0419 18.616C29.2899 19.016 28.4179 19.216 27.4259 19.216C26.3059 19.216 25.2819 18.928 24.3539 18.352C23.4419 17.776 22.7139 16.968 22.1699 15.928C21.6419 14.872 21.3779 13.664 21.3779 12.304ZM31.8419 12.352C31.8419 11.536 31.6819 10.84 31.3619 10.264C31.0419 9.672 30.6099 9.224 30.0659 8.92C29.5219 8.6 28.9379 8.44 28.3139 8.44C27.6899 8.44 27.1139 8.592 26.5859 8.896C26.0579 9.2 25.6259 9.648 25.2899 10.24C24.9699 10.816 24.8099 11.504 24.8099 12.304C24.8099 13.104 24.9699 13.808 25.2899 14.416C25.6259 15.008 26.0579 15.464 26.5859 15.784C27.1299 16.104 27.7059 16.264 28.3139 16.264C28.9379 16.264 29.5219 16.112 30.0659 15.808C30.6099 15.488 31.0419 15.04 31.3619 14.464C31.6819 13.872 31.8419 13.168 31.8419 12.352ZM40.2116 4.12C39.6196 4.12 39.1236 3.936 38.7236 3.568C38.3396 3.184 38.1476 2.712 38.1476 2.152C38.1476 1.592 38.3396 1.128 38.7236 0.759999C39.1236 0.375999 39.6196 0.183999 40.2116 0.183999C40.8036 0.183999 41.2916 0.375999 41.6756 0.759999C42.0756 1.128 42.2756 1.592 42.2756 2.152C42.2756 2.712 42.0756 3.184 41.6756 3.568C41.2916 3.936 40.8036 4.12 40.2116 4.12ZM41.8676 5.704V19H38.5076V5.704H41.8676ZM52.5553 5.512C54.1393 5.512 55.4193 6.016 56.3953 7.024C57.3713 8.016 57.8593 9.408 57.8593 11.2V19H54.4993V11.656C54.4993 10.6 54.2353 9.792 53.7073 9.232C53.1793 8.656 52.4593 8.368 51.5473 8.368C50.6193 8.368 49.8833 8.656 49.3393 9.232C48.8113 9.792 48.5473 10.6 48.5473 11.656V19H45.1873V5.704H48.5473V7.36C48.9953 6.784 49.5633 6.336 50.2513 6.016C50.9553 5.68 51.7233 5.512 52.5553 5.512ZM65.9572 10.6C65.9572 8.952 66.3252 7.48 67.0612 6.184C67.8132 4.872 68.8292 3.856 70.1092 3.136C71.4052 2.4 72.8532 2.032 74.4532 2.032C76.3252 2.032 77.9652 2.512 79.3732 3.472C80.7812 4.432 81.7652 5.76 82.3252 7.456H78.4612C78.0772 6.656 77.5332 6.056 76.8292 5.656C76.1412 5.256 75.3412 5.056 74.4292 5.056C73.4532 5.056 72.5812 5.288 71.8132 5.752C71.0612 6.2 70.4692 6.84 70.0372 7.672C69.6212 8.504 69.4132 9.48 69.4132 10.6C69.4132 11.704 69.6212 12.68 70.0372 13.528C70.4692 14.36 71.0612 15.008 71.8132 15.472C72.5812 15.92 73.4532 16.144 74.4292 16.144C75.3412 16.144 76.1412 15.944 76.8292 15.544C77.5332 15.128 78.0772 14.52 78.4612 13.72H82.3252C81.7652 15.432 80.7812 16.768 79.3732 17.728C77.9812 18.672 76.3412 19.144 74.4532 19.144C72.8532 19.144 71.4052 18.784 70.1092 18.064C68.8292 17.328 67.8132 16.312 67.0612 15.016C66.3252 13.72 65.9572 12.248 65.9572 10.6ZM91.0991 19.216C89.8191 19.216 88.6671 18.936 87.6431 18.376C86.6191 17.8 85.8111 16.992 85.2191 15.952C84.6431 14.912 84.3551 13.712 84.3551 12.352C84.3551 10.992 84.6511 9.792 85.2431 8.752C85.8511 7.712 86.6751 6.912 87.7151 6.352C88.7551 5.776 89.9151 5.488 91.1951 5.488C92.4751 5.488 93.6351 5.776 94.6751 6.352C95.7151 6.912 96.5311 7.712 97.1231 8.752C97.7311 9.792 98.0351 10.992 98.0351 12.352C98.0351 13.712 97.7231 14.912 97.0991 15.952C96.4911 16.992 95.6591 17.8 94.6031 18.376C93.5631 18.936 92.3951 19.216 91.0991 19.216ZM91.0991 16.288C91.7071 16.288 92.2751 16.144 92.8031 15.856C93.3471 15.552 93.7791 15.104 94.0991 14.512C94.4191 13.92 94.5791 13.2 94.5791 12.352C94.5791 11.088 94.2431 10.12 93.5711 9.448C92.9151 8.76 92.1071 8.416 91.1471 8.416C90.1871 8.416 89.3791 8.76 88.7231 9.448C88.0831 10.12 87.7631 11.088 87.7631 12.352C87.7631 13.616 88.0751 14.592 88.6991 15.28C89.3391 15.952 90.1391 16.288 91.0991 16.288ZM103.86 1.24V19H100.5V1.24H103.86ZM113.083 19.216C111.803 19.216 110.651 18.936 109.627 18.376C108.603 17.8 107.795 16.992 107.203 15.952C106.627 14.912 106.339 13.712 106.339 12.352C106.339 10.992 106.635 9.792 107.227 8.752C107.835 7.712 108.659 6.912 109.699 6.352C110.739 5.776 111.899 5.488 113.179 5.488C114.459 5.488 115.619 5.776 116.659 6.352C117.699 6.912 118.515 7.712 119.107 8.752C119.715 9.792 120.019 10.992 120.019 12.352C120.019 13.712 119.707 14.912 119.083 15.952C118.475 16.992 117.643 17.8 116.587 18.376C115.547 18.936 114.379 19.216 113.083 19.216ZM113.083 16.288C113.691 16.288 114.259 16.144 114.787 15.856C115.331 15.552 115.763 15.104 116.083 14.512C116.403 13.92 116.563 13.2 116.563 12.352C116.563 11.088 116.227 10.12 115.555 9.448C114.899 8.76 114.091 8.416 113.131 8.416C112.171 8.416 111.363 8.76 110.707 9.448C110.067 10.12 109.747 11.088 109.747 12.352C109.747 13.616 110.059 14.592 110.683 15.28C111.323 15.952 112.123 16.288 113.083 16.288ZM125.844 7.768C126.276 7.064 126.836 6.512 127.524 6.112C128.228 5.712 129.028 5.512 129.924 5.512V9.04H129.036C127.98 9.04 127.18 9.288 126.636 9.784C126.108 10.28 125.844 11.144 125.844 12.376V19H122.484V5.704H125.844V7.768ZM137.275 19.216C136.187 19.216 135.211 19.024 134.347 18.64C133.483 18.24 132.795 17.704 132.283 17.032C131.787 16.36 131.515 15.616 131.467 14.8H134.851C134.915 15.312 135.163 15.736 135.595 16.072C136.043 16.408 136.595 16.576 137.251 16.576C137.891 16.576 138.387 16.448 138.739 16.192C139.107 15.936 139.291 15.608 139.291 15.208C139.291 14.776 139.067 14.456 138.619 14.248C138.187 14.024 137.491 13.784 136.531 13.528C135.539 13.288 134.723 13.04 134.083 12.784C133.459 12.528 132.915 12.136 132.451 11.608C132.003 11.08 131.779 10.368 131.779 9.472C131.779 8.736 131.987 8.064 132.403 7.456C132.835 6.848 133.443 6.368 134.227 6.016C135.027 5.664 135.963 5.488 137.035 5.488C138.619 5.488 139.883 5.888 140.827 6.688C141.771 7.472 142.291 8.536 142.387 9.88H139.171C139.123 9.352 138.899 8.936 138.499 8.632C138.115 8.312 137.595 8.152 136.939 8.152C136.331 8.152 135.859 8.264 135.523 8.488C135.203 8.712 135.043 9.024 135.043 9.424C135.043 9.872 135.267 10.216 135.715 10.456C136.163 10.68 136.859 10.912 137.803 11.152C138.763 11.392 139.555 11.64 140.179 11.896C140.803 12.152 141.339 12.552 141.787 13.096C142.251 13.624 142.491 14.328 142.507 15.208C142.507 15.976 142.291 16.664 141.859 17.272C141.443 17.88 140.835 18.36 140.035 18.712C139.251 19.048 138.331 19.216 137.275 19.216Z" fill="black"/>
</svg>
