<svg width="156" height="24" viewBox="0 0 156 24" fill="none" xmlns="http://www.w3.org/2000/svg">
<path d="M0.917614 19V1.54545H7.1392C8.49716 1.54545 9.62216 1.79261 10.5142 2.28693C11.4063 2.78125 12.0739 3.45739 12.517 4.31534C12.9602 5.16761 13.1818 6.12784 13.1818 7.19602C13.1818 8.26989 12.9574 9.2358 12.5085 10.0938C12.0653 10.946 11.3949 11.6222 10.4972 12.1222C9.60511 12.6165 8.48295 12.8636 7.13068 12.8636H2.85227V10.6307H6.89205C7.75 10.6307 8.44602 10.483 8.98011 10.1875C9.5142 9.88636 9.90625 9.47727 10.1562 8.96023C10.4062 8.44318 10.5312 7.85511 10.5312 7.19602C10.5312 6.53693 10.4062 5.9517 10.1562 5.44034C9.90625 4.92898 9.51136 4.52841 8.97159 4.23864C8.4375 3.94886 7.73295 3.80398 6.85795 3.80398H3.55114V19H0.917614ZM16.0646 19V5.90909H18.5277V7.98864H18.6641C18.9027 7.28409 19.3232 6.73011 19.9254 6.3267C20.5334 5.91761 21.2209 5.71307 21.9879 5.71307C22.147 5.71307 22.3345 5.71875 22.5504 5.73011C22.772 5.74148 22.9453 5.75568 23.0703 5.77273V8.21023C22.968 8.18182 22.7862 8.15057 22.5249 8.11648C22.2635 8.0767 22.0021 8.05682 21.7408 8.05682C21.1385 8.05682 20.6016 8.18466 20.13 8.44034C19.6641 8.69034 19.2947 9.03977 19.022 9.48864C18.7493 9.93182 18.6129 10.4375 18.6129 11.0057V19H16.0646ZM25.2756 19V5.90909H27.8239V19H25.2756ZM26.5625 3.8892C26.1193 3.8892 25.7386 3.74148 25.4205 3.44602C25.108 3.14489 24.9517 2.78693 24.9517 2.37216C24.9517 1.9517 25.108 1.59375 25.4205 1.29829C25.7386 0.997159 26.1193 0.846591 26.5625 0.846591C27.0057 0.846591 27.3835 0.997159 27.696 1.29829C28.0142 1.59375 28.1733 1.9517 28.1733 2.37216C28.1733 2.78693 28.0142 3.14489 27.696 3.44602C27.3835 3.74148 27.0057 3.8892 26.5625 3.8892ZM31.2521 19V5.90909H33.6982V8.03977H33.8601C34.1328 7.31818 34.5788 6.75568 35.1982 6.35227C35.8175 5.94318 36.5589 5.73864 37.4226 5.73864C38.2976 5.73864 39.0305 5.94318 39.6214 6.35227C40.218 6.76136 40.6584 7.32386 40.9425 8.03977H41.0788C41.3913 7.34091 41.8885 6.78409 42.5703 6.36932C43.2521 5.94886 44.0646 5.73864 45.0078 5.73864C46.1953 5.73864 47.1641 6.1108 47.9141 6.85511C48.6697 7.59943 49.0476 8.72159 49.0476 10.2216V19H46.4993V10.4602C46.4993 9.57386 46.2578 8.93182 45.7749 8.53409C45.2919 8.13636 44.7152 7.9375 44.0447 7.9375C43.2152 7.9375 42.5703 8.19318 42.1101 8.70455C41.6499 9.21023 41.4197 9.8608 41.4197 10.6562V19H38.88V10.2983C38.88 9.58807 38.6584 9.01705 38.2152 8.58523C37.772 8.15341 37.1953 7.9375 36.4851 7.9375C36.0021 7.9375 35.5561 8.06534 35.147 8.32102C34.7436 8.57102 34.4169 8.92045 34.1669 9.36932C33.9226 9.81818 33.8004 10.3381 33.8004 10.929V19H31.2521ZM56.2727 19.2898C55.4432 19.2898 54.6932 19.1364 54.0227 18.8295C53.3523 18.517 52.821 18.0653 52.429 17.4744C52.0426 16.8835 51.8494 16.1591 51.8494 15.3011C51.8494 14.5625 51.9915 13.9545 52.2756 13.4773C52.5597 13 52.9432 12.6222 53.4261 12.3438C53.9091 12.0653 54.4489 11.8551 55.0455 11.7131C55.642 11.571 56.25 11.4631 56.8693 11.3892C57.6534 11.2983 58.2898 11.2244 58.7784 11.1676C59.267 11.1051 59.6222 11.0057 59.8438 10.8693C60.0653 10.733 60.1761 10.5114 60.1761 10.2045V10.1449C60.1761 9.40057 59.9659 8.82386 59.5455 8.41477C59.1307 8.00568 58.5114 7.80114 57.6875 7.80114C56.8295 7.80114 56.1534 7.99148 55.6591 8.37216C55.1705 8.74716 54.8324 9.16477 54.6449 9.625L52.25 9.07955C52.5341 8.28409 52.9489 7.64205 53.4943 7.15341C54.0455 6.65909 54.679 6.30114 55.3949 6.07954C56.1108 5.85227 56.8636 5.73864 57.6534 5.73864C58.1761 5.73864 58.7301 5.80114 59.3153 5.92614C59.9063 6.04545 60.4574 6.26705 60.9688 6.59091C61.4858 6.91477 61.9091 7.37784 62.2386 7.98011C62.5682 8.5767 62.733 9.35227 62.733 10.3068V19H60.2443V17.2102H60.142C59.9773 17.5398 59.7301 17.8636 59.4006 18.1818C59.071 18.5 58.6477 18.7642 58.1307 18.9744C57.6136 19.1847 56.9943 19.2898 56.2727 19.2898ZM56.8267 17.2443C57.5313 17.2443 58.1335 17.1051 58.6335 16.8267C59.1392 16.5483 59.5227 16.1847 59.7841 15.7358C60.0511 15.2812 60.1847 14.7955 60.1847 14.2784V12.5909C60.0938 12.6818 59.9176 12.767 59.6562 12.8466C59.4006 12.9205 59.108 12.9858 58.7784 13.0426C58.4489 13.0937 58.1278 13.142 57.8153 13.1875C57.5028 13.2273 57.2415 13.2614 57.0312 13.2898C56.5369 13.3523 56.0852 13.4574 55.6761 13.6051C55.2727 13.7528 54.9489 13.9659 54.7045 14.2443C54.4659 14.517 54.3466 14.8807 54.3466 15.3352C54.3466 15.9659 54.5795 16.4432 55.0455 16.767C55.5114 17.0852 56.1051 17.2443 56.8267 17.2443ZM66.1271 19V5.90909H68.5902V7.98864H68.7266C68.9652 7.28409 69.3857 6.73011 69.9879 6.3267C70.5959 5.91761 71.2834 5.71307 72.0504 5.71307C72.2095 5.71307 72.397 5.71875 72.6129 5.73011C72.8345 5.74148 73.0078 5.75568 73.1328 5.77273V8.21023C73.0305 8.18182 72.8487 8.15057 72.5874 8.11648C72.326 8.0767 72.0646 8.05682 71.8033 8.05682C71.201 8.05682 70.6641 8.18466 70.1925 8.44034C69.7266 8.69034 69.3572 9.03977 69.0845 9.48864C68.8118 9.93182 68.6754 10.4375 68.6754 11.0057V19H66.1271ZM77.3473 23.9091C76.9666 23.9091 76.62 23.8778 76.3075 23.8153C75.995 23.7585 75.7621 23.696 75.6087 23.6278L76.2223 21.5398C76.6882 21.6648 77.103 21.7188 77.4666 21.7017C77.8303 21.6847 78.1513 21.5483 78.4297 21.2926C78.7138 21.0369 78.9638 20.6193 79.1797 20.0398L79.495 19.1705L74.7053 5.90909H77.4325L80.7479 16.0682H80.8842L84.1996 5.90909H86.9354L81.5405 20.7472C81.2905 21.429 80.9723 22.0057 80.5859 22.4773C80.1996 22.9545 79.7393 23.3125 79.2053 23.5511C78.6712 23.7898 78.0518 23.9091 77.3473 23.9091ZM110.384 7.22159H107.724C107.622 6.65341 107.432 6.15341 107.153 5.72159C106.875 5.28977 106.534 4.9233 106.131 4.62216C105.727 4.32102 105.276 4.09375 104.776 3.94034C104.281 3.78693 103.756 3.71023 103.199 3.71023C102.193 3.71023 101.293 3.96307 100.497 4.46875C99.7074 4.97443 99.0824 5.71591 98.6222 6.69318C98.1676 7.67045 97.9403 8.86364 97.9403 10.2727C97.9403 11.6932 98.1676 12.892 98.6222 13.8693C99.0824 14.8466 99.7102 15.5852 100.506 16.0852C101.301 16.5852 102.196 16.8352 103.19 16.8352C103.741 16.8352 104.264 16.7614 104.759 16.6136C105.259 16.4602 105.71 16.2358 106.114 15.9403C106.517 15.6449 106.858 15.2841 107.136 14.858C107.42 14.4261 107.616 13.9318 107.724 13.375L110.384 13.3835C110.241 14.2415 109.966 15.0312 109.557 15.7528C109.153 16.4688 108.634 17.0881 107.997 17.6108C107.366 18.1278 106.645 18.5284 105.832 18.8125C105.02 19.0966 104.134 19.2386 103.173 19.2386C101.662 19.2386 100.315 18.8807 99.1335 18.1648C97.9517 17.4432 97.0199 16.4119 96.3381 15.071C95.6619 13.7301 95.3239 12.1307 95.3239 10.2727C95.3239 8.40909 95.6648 6.80966 96.3466 5.47443C97.0284 4.13352 97.9602 3.10511 99.142 2.3892C100.324 1.66761 101.668 1.30682 103.173 1.30682C104.099 1.30682 104.963 1.44034 105.764 1.70739C106.571 1.96875 107.295 2.35511 107.938 2.86648C108.58 3.37216 109.111 3.99148 109.531 4.72443C109.952 5.4517 110.236 6.28409 110.384 7.22159ZM118.844 19.2642C117.617 19.2642 116.546 18.983 115.631 18.4205C114.717 17.858 114.006 17.071 113.501 16.0597C112.995 15.0483 112.742 13.8665 112.742 12.5142C112.742 11.1562 112.995 9.96875 113.501 8.9517C114.006 7.93466 114.717 7.14489 115.631 6.58239C116.546 6.01989 117.617 5.73864 118.844 5.73864C120.072 5.73864 121.143 6.01989 122.058 6.58239C122.972 7.14489 123.683 7.93466 124.188 8.9517C124.694 9.96875 124.947 11.1562 124.947 12.5142C124.947 13.8665 124.694 15.0483 124.188 16.0597C123.683 17.071 122.972 17.858 122.058 18.4205C121.143 18.983 120.072 19.2642 118.844 19.2642ZM118.853 17.125C119.648 17.125 120.308 16.9148 120.83 16.4943C121.353 16.0739 121.739 15.5142 121.989 14.8153C122.245 14.1165 122.373 13.3466 122.373 12.5057C122.373 11.6705 122.245 10.9034 121.989 10.2045C121.739 9.5 121.353 8.93466 120.83 8.50852C120.308 8.08239 119.648 7.86932 118.853 7.86932C118.052 7.86932 117.387 8.08239 116.859 8.50852C116.336 8.93466 115.947 9.5 115.691 10.2045C115.441 10.9034 115.316 11.6705 115.316 12.5057C115.316 13.3466 115.441 14.1165 115.691 14.8153C115.947 15.5142 116.336 16.0739 116.859 16.4943C117.387 16.9148 118.052 17.125 118.853 17.125ZM130.339 1.54545V19H127.791V1.54545H130.339ZM139.282 19.2642C138.055 19.2642 136.984 18.983 136.069 18.4205C135.154 17.858 134.444 17.071 133.938 16.0597C133.433 15.0483 133.18 13.8665 133.18 12.5142C133.18 11.1562 133.433 9.96875 133.938 8.9517C134.444 7.93466 135.154 7.14489 136.069 6.58239C136.984 6.01989 138.055 5.73864 139.282 5.73864C140.509 5.73864 141.58 6.01989 142.495 6.58239C143.41 7.14489 144.12 7.93466 144.626 8.9517C145.131 9.96875 145.384 11.1562 145.384 12.5142C145.384 13.8665 145.131 15.0483 144.626 16.0597C144.12 17.071 143.41 17.858 142.495 18.4205C141.58 18.983 140.509 19.2642 139.282 19.2642ZM139.29 17.125C140.086 17.125 140.745 16.9148 141.268 16.4943C141.79 16.0739 142.177 15.5142 142.427 14.8153C142.683 14.1165 142.81 13.3466 142.81 12.5057C142.81 11.6705 142.683 10.9034 142.427 10.2045C142.177 9.5 141.79 8.93466 141.268 8.50852C140.745 8.08239 140.086 7.86932 139.29 7.86932C138.489 7.86932 137.825 8.08239 137.296 8.50852C136.773 8.93466 136.384 9.5 136.129 10.2045C135.879 10.9034 135.754 11.6705 135.754 12.5057C135.754 13.3466 135.879 14.1165 136.129 14.8153C136.384 15.5142 136.773 16.0739 137.296 16.4943C137.825 16.9148 138.489 17.125 139.29 17.125ZM148.229 19V5.90909H150.692V7.98864H150.828C151.067 7.28409 151.487 6.73011 152.089 6.3267C152.697 5.91761 153.385 5.71307 154.152 5.71307C154.311 5.71307 154.499 5.71875 154.714 5.73011C154.936 5.74148 155.109 5.75568 155.234 5.77273V8.21023C155.132 8.18182 154.95 8.15057 154.689 8.11648C154.428 8.0767 154.166 8.05682 153.905 8.05682C153.303 8.05682 152.766 8.18466 152.294 8.44034C151.828 8.69034 151.459 9.03977 151.186 9.48864C150.913 9.93182 150.777 10.4375 150.777 11.0057V19H148.229Z" fill="black"/>
</svg>
