<svg width="200" height="20" viewBox="0 0 200 20" fill="none" xmlns="http://www.w3.org/2000/svg">
<path d="M6.44 19.168C5.272 19.168 4.216 18.968 3.272 18.568C2.344 18.168 1.608 17.592 1.064 16.84C0.52 16.088 0.24 15.2 0.224 14.176H3.824C3.872 14.864 4.112 15.408 4.544 15.808C4.992 16.208 5.6 16.408 6.368 16.408C7.152 16.408 7.768 16.224 8.216 15.856C8.664 15.472 8.888 14.976 8.888 14.368C8.888 13.872 8.736 13.464 8.432 13.144C8.128 12.824 7.744 12.576 7.28 12.4C6.832 12.208 6.208 12 5.408 11.776C4.32 11.456 3.432 11.144 2.744 10.84C2.072 10.52 1.488 10.048 0.992 9.424C0.512 8.784 0.272 7.936 0.272 6.88C0.272 5.888 0.52 5.024 1.016 4.288C1.512 3.552 2.208 2.992 3.104 2.608C4 2.208 5.024 2.008 6.176 2.008C7.904 2.008 9.304 2.432 10.376 3.28C11.464 4.112 12.064 5.28 12.176 6.784H8.48C8.448 6.208 8.2 5.736 7.736 5.368C7.288 4.984 6.688 4.792 5.936 4.792C5.28 4.792 4.752 4.96 4.352 5.296C3.968 5.632 3.776 6.12 3.776 6.76C3.776 7.208 3.92 7.584 4.208 7.888C4.512 8.176 4.88 8.416 5.312 8.608C5.76 8.784 6.384 8.992 7.184 9.232C8.272 9.552 9.16 9.872 9.848 10.192C10.536 10.512 11.128 10.992 11.624 11.632C12.12 12.272 12.368 13.112 12.368 14.152C12.368 15.048 12.136 15.88 11.672 16.648C11.208 17.416 10.528 18.032 9.632 18.496C8.736 18.944 7.672 19.168 6.44 19.168ZM27.641 12.064C27.641 12.544 27.609 12.976 27.545 13.36H17.825C17.905 14.32 18.241 15.072 18.833 15.616C19.425 16.16 20.153 16.432 21.017 16.432C22.265 16.432 23.153 15.896 23.681 14.824H27.305C26.921 16.104 26.185 17.16 25.097 17.992C24.009 18.808 22.673 19.216 21.089 19.216C19.809 19.216 18.657 18.936 17.633 18.376C16.625 17.8 15.833 16.992 15.257 15.952C14.697 14.912 14.417 13.712 14.417 12.352C14.417 10.976 14.697 9.768 15.257 8.728C15.817 7.688 16.601 6.888 17.609 6.328C18.617 5.768 19.777 5.488 21.089 5.488C22.353 5.488 23.481 5.76 24.473 6.304C25.481 6.848 26.257 7.624 26.801 8.632C27.361 9.624 27.641 10.768 27.641 12.064ZM24.161 11.104C24.145 10.24 23.833 9.552 23.225 9.04C22.617 8.512 21.873 8.248 20.993 8.248C20.161 8.248 19.457 8.504 18.881 9.016C18.321 9.512 17.977 10.208 17.849 11.104H24.161ZM46.6055 5.512C48.2375 5.512 49.5495 6.016 50.5415 7.024C51.5495 8.016 52.0535 9.408 52.0535 11.2V19H48.6935V11.656C48.6935 10.616 48.4295 9.824 47.9015 9.28C47.3735 8.72 46.6535 8.44 45.7415 8.44C44.8295 8.44 44.1015 8.72 43.5575 9.28C43.0295 9.824 42.7655 10.616 42.7655 11.656V19H39.4055V11.656C39.4055 10.616 39.1415 9.824 38.6135 9.28C38.0855 8.72 37.3655 8.44 36.4535 8.44C35.5255 8.44 34.7895 8.72 34.2455 9.28C33.7175 9.824 33.4535 10.616 33.4535 11.656V19H30.0935V5.704H33.4535V7.312C33.8855 6.752 34.4375 6.312 35.1095 5.992C35.7975 5.672 36.5495 5.512 37.3655 5.512C38.4055 5.512 39.3335 5.736 40.1495 6.184C40.9655 6.616 41.5975 7.24 42.0455 8.056C42.4775 7.288 43.1015 6.672 43.9175 6.208C44.7495 5.744 45.6455 5.512 46.6055 5.512ZM54.3779 12.304C54.3779 10.96 54.6419 9.768 55.1699 8.728C55.7139 7.688 56.4419 6.888 57.3539 6.328C58.2819 5.768 59.3139 5.488 60.4499 5.488C61.4419 5.488 62.3059 5.688 63.0419 6.088C63.7939 6.488 64.3939 6.992 64.8419 7.6V5.704H68.2259V19H64.8419V17.056C64.4099 17.68 63.8099 18.2 63.0419 18.616C62.2899 19.016 61.4179 19.216 60.4259 19.216C59.3059 19.216 58.2819 18.928 57.3539 18.352C56.4419 17.776 55.7139 16.968 55.1699 15.928C54.6419 14.872 54.3779 13.664 54.3779 12.304ZM64.8419 12.352C64.8419 11.536 64.6819 10.84 64.3619 10.264C64.0419 9.672 63.6099 9.224 63.0659 8.92C62.5219 8.6 61.9379 8.44 61.3139 8.44C60.6899 8.44 60.1139 8.592 59.5859 8.896C59.0579 9.2 58.6259 9.648 58.2899 10.24C57.9699 10.816 57.8099 11.504 57.8099 12.304C57.8099 13.104 57.9699 13.808 58.2899 14.416C58.6259 15.008 59.0579 15.464 59.5859 15.784C60.1299 16.104 60.7059 16.264 61.3139 16.264C61.9379 16.264 62.5219 16.112 63.0659 15.808C63.6099 15.488 64.0419 15.04 64.3619 14.464C64.6819 13.872 64.8419 13.168 64.8419 12.352ZM78.8756 5.512C80.4596 5.512 81.7396 6.016 82.7156 7.024C83.6916 8.016 84.1796 9.408 84.1796 11.2V19H80.8196V11.656C80.8196 10.6 80.5556 9.792 80.0276 9.232C79.4996 8.656 78.7796 8.368 77.8676 8.368C76.9396 8.368 76.2036 8.656 75.6596 9.232C75.1316 9.792 74.8676 10.6 74.8676 11.656V19H71.5076V5.704H74.8676V7.36C75.3156 6.784 75.8836 6.336 76.5716 6.016C77.2756 5.68 78.0436 5.512 78.8756 5.512ZM91.2868 8.464V14.896C91.2868 15.344 91.3908 15.672 91.5988 15.88C91.8228 16.072 92.1908 16.168 92.7028 16.168H94.2628V19H92.1508C89.3188 19 87.9028 17.624 87.9028 14.872V8.464H86.3188V5.704H87.9028V2.416H91.2868V5.704H94.2628V8.464H91.2868ZM98.3834 4.12C97.7914 4.12 97.2954 3.936 96.8954 3.568C96.5114 3.184 96.3194 2.712 96.3194 2.152C96.3194 1.592 96.5114 1.128 96.8954 0.759999C97.2954 0.375999 97.7914 0.183999 98.3834 0.183999C98.9754 0.183999 99.4634 0.375999 99.8474 0.759999C100.247 1.128 100.447 1.592 100.447 2.152C100.447 2.712 100.247 3.184 99.8474 3.568C99.4634 3.936 98.9754 4.12 98.3834 4.12ZM100.039 5.704V19H96.6794V5.704H100.039ZM102.495 12.352C102.495 10.976 102.775 9.776 103.335 8.752C103.895 7.712 104.671 6.912 105.663 6.352C106.655 5.776 107.791 5.488 109.071 5.488C110.719 5.488 112.079 5.904 113.151 6.736C114.239 7.552 114.967 8.704 115.335 10.192H111.711C111.519 9.616 111.191 9.168 110.727 8.848C110.279 8.512 109.719 8.344 109.047 8.344C108.087 8.344 107.327 8.696 106.767 9.4C106.207 10.088 105.927 11.072 105.927 12.352C105.927 13.616 106.207 14.6 106.767 15.304C107.327 15.992 108.087 16.336 109.047 16.336C110.407 16.336 111.295 15.728 111.711 14.512H115.335C114.967 15.952 114.239 17.096 113.151 17.944C112.063 18.792 110.703 19.216 109.071 19.216C107.791 19.216 106.655 18.936 105.663 18.376C104.671 17.8 103.895 17 103.335 15.976C102.775 14.936 102.495 13.728 102.495 12.352ZM122.699 10.6C122.699 8.952 123.067 7.48 123.803 6.184C124.555 4.872 125.571 3.856 126.851 3.136C128.147 2.4 129.595 2.032 131.195 2.032C133.067 2.032 134.707 2.512 136.115 3.472C137.523 4.432 138.507 5.76 139.067 7.456H135.203C134.819 6.656 134.275 6.056 133.571 5.656C132.883 5.256 132.083 5.056 131.171 5.056C130.195 5.056 129.323 5.288 128.555 5.752C127.803 6.2 127.211 6.84 126.779 7.672C126.363 8.504 126.155 9.48 126.155 10.6C126.155 11.704 126.363 12.68 126.779 13.528C127.211 14.36 127.803 15.008 128.555 15.472C129.323 15.92 130.195 16.144 131.171 16.144C132.083 16.144 132.883 15.944 133.571 15.544C134.275 15.128 134.819 14.52 135.203 13.72H139.067C138.507 15.432 137.523 16.768 136.115 17.728C134.723 18.672 133.083 19.144 131.195 19.144C129.595 19.144 128.147 18.784 126.851 18.064C125.571 17.328 124.555 16.312 123.803 15.016C123.067 13.72 122.699 12.248 122.699 10.6ZM147.841 19.216C146.561 19.216 145.409 18.936 144.385 18.376C143.361 17.8 142.553 16.992 141.961 15.952C141.385 14.912 141.097 13.712 141.097 12.352C141.097 10.992 141.393 9.792 141.985 8.752C142.593 7.712 143.417 6.912 144.457 6.352C145.497 5.776 146.657 5.488 147.937 5.488C149.217 5.488 150.377 5.776 151.417 6.352C152.457 6.912 153.273 7.712 153.865 8.752C154.473 9.792 154.777 10.992 154.777 12.352C154.777 13.712 154.465 14.912 153.841 15.952C153.233 16.992 152.401 17.8 151.345 18.376C150.305 18.936 149.137 19.216 147.841 19.216ZM147.841 16.288C148.449 16.288 149.017 16.144 149.545 15.856C150.089 15.552 150.521 15.104 150.841 14.512C151.161 13.92 151.321 13.2 151.321 12.352C151.321 11.088 150.985 10.12 150.313 9.448C149.657 8.76 148.849 8.416 147.889 8.416C146.929 8.416 146.121 8.76 145.465 9.448C144.825 10.12 144.505 11.088 144.505 12.352C144.505 13.616 144.817 14.592 145.441 15.28C146.081 15.952 146.881 16.288 147.841 16.288ZM160.602 1.24V19H157.242V1.24H160.602ZM169.826 19.216C168.546 19.216 167.394 18.936 166.37 18.376C165.346 17.8 164.538 16.992 163.946 15.952C163.37 14.912 163.082 13.712 163.082 12.352C163.082 10.992 163.378 9.792 163.97 8.752C164.578 7.712 165.402 6.912 166.442 6.352C167.482 5.776 168.642 5.488 169.922 5.488C171.202 5.488 172.362 5.776 173.402 6.352C174.442 6.912 175.258 7.712 175.85 8.752C176.458 9.792 176.762 10.992 176.762 12.352C176.762 13.712 176.45 14.912 175.826 15.952C175.218 16.992 174.386 17.8 173.33 18.376C172.29 18.936 171.122 19.216 169.826 19.216ZM169.826 16.288C170.434 16.288 171.002 16.144 171.53 15.856C172.074 15.552 172.506 15.104 172.826 14.512C173.146 13.92 173.306 13.2 173.306 12.352C173.306 11.088 172.97 10.12 172.298 9.448C171.642 8.76 170.834 8.416 169.874 8.416C168.914 8.416 168.106 8.76 167.45 9.448C166.81 10.12 166.49 11.088 166.49 12.352C166.49 13.616 166.802 14.592 167.426 15.28C168.066 15.952 168.866 16.288 169.826 16.288ZM182.586 7.768C183.018 7.064 183.578 6.512 184.266 6.112C184.97 5.712 185.77 5.512 186.666 5.512V9.04H185.778C184.722 9.04 183.922 9.288 183.378 9.784C182.85 10.28 182.586 11.144 182.586 12.376V19H179.226V5.704H182.586V7.768ZM194.017 19.216C192.929 19.216 191.953 19.024 191.089 18.64C190.225 18.24 189.537 17.704 189.025 17.032C188.529 16.36 188.257 15.616 188.209 14.8H191.593C191.657 15.312 191.905 15.736 192.337 16.072C192.785 16.408 193.337 16.576 193.993 16.576C194.633 16.576 195.129 16.448 195.481 16.192C195.849 15.936 196.033 15.608 196.033 15.208C196.033 14.776 195.809 14.456 195.361 14.248C194.929 14.024 194.233 13.784 193.273 13.528C192.281 13.288 191.465 13.04 190.825 12.784C190.201 12.528 189.657 12.136 189.193 11.608C188.745 11.08 188.521 10.368 188.521 9.472C188.521 8.736 188.729 8.064 189.145 7.456C189.577 6.848 190.185 6.368 190.969 6.016C191.769 5.664 192.705 5.488 193.777 5.488C195.361 5.488 196.625 5.888 197.569 6.688C198.513 7.472 199.033 8.536 199.129 9.88H195.913C195.865 9.352 195.641 8.936 195.241 8.632C194.857 8.312 194.337 8.152 193.681 8.152C193.073 8.152 192.601 8.264 192.265 8.488C191.945 8.712 191.785 9.024 191.785 9.424C191.785 9.872 192.009 10.216 192.457 10.456C192.905 10.68 193.601 10.912 194.545 11.152C195.505 11.392 196.297 11.64 196.921 11.896C197.545 12.152 198.081 12.552 198.529 13.096C198.993 13.624 199.233 14.328 199.249 15.208C199.249 15.976 199.033 16.664 198.601 17.272C198.185 17.88 197.577 18.36 196.777 18.712C195.993 19.048 195.073 19.216 194.017 19.216Z" fill="black"/>
</svg>
