<svg width="181" height="18" viewBox="0 0 181 18" fill="none" xmlns="http://www.w3.org/2000/svg">
<path d="M4.768 13.112C4.032 13.112 3.37067 12.984 2.784 12.728C2.208 12.4613 1.75467 12.0987 1.424 11.64C1.09333 11.1707 0.922667 10.632 0.912 10.024H2.464C2.51733 10.5467 2.73067 10.9893 3.104 11.352C3.488 11.704 4.04267 11.88 4.768 11.88C5.46133 11.88 6.00533 11.7093 6.4 11.368C6.80533 11.016 7.008 10.568 7.008 10.024C7.008 9.59733 6.89067 9.25067 6.656 8.984C6.42133 8.71733 6.128 8.51467 5.776 8.376C5.424 8.23733 4.94933 8.088 4.352 7.928C3.616 7.736 3.024 7.544 2.576 7.352C2.13867 7.16 1.76 6.86133 1.44 6.456C1.13067 6.04 0.976 5.48533 0.976 4.792C0.976 4.184 1.13067 3.64533 1.44 3.176C1.74933 2.70667 2.18133 2.344 2.736 2.088C3.30133 1.832 3.94667 1.704 4.672 1.704C5.71733 1.704 6.57067 1.96533 7.232 2.488C7.904 3.01067 8.28267 3.704 8.368 4.568H6.768C6.71467 4.14133 6.49067 3.768 6.096 3.448C5.70133 3.11733 5.17867 2.952 4.528 2.952C3.92 2.952 3.424 3.112 3.04 3.432C2.656 3.74133 2.464 4.17867 2.464 4.744C2.464 5.14933 2.576 5.48 2.8 5.736C3.03467 5.992 3.31733 6.18933 3.648 6.328C3.98933 6.456 4.464 6.60533 5.072 6.776C5.808 6.97867 6.4 7.18133 6.848 7.384C7.296 7.576 7.68 7.88 8 8.296C8.32 8.70133 8.48 9.256 8.48 9.96C8.48 10.504 8.336 11.016 8.048 11.496C7.76 11.976 7.33333 12.3653 6.768 12.664C6.20267 12.9627 5.536 13.112 4.768 13.112ZM12.3986 5.432V10.6C12.3986 11.0267 12.4893 11.3307 12.6706 11.512C12.852 11.6827 13.1666 11.768 13.6146 11.768H14.6866V13H13.3746C12.564 13 11.956 12.8133 11.5506 12.44C11.1453 12.0667 10.9426 11.4533 10.9426 10.6V5.432H9.80663V4.232H10.9426V2.024H12.3986V4.232H14.6866V5.432H12.3986ZM24.0028 4.232L18.7228 17.128H17.2188L18.9468 12.904L15.4108 4.232H17.0268L19.7788 11.336L22.4988 4.232H24.0028ZM26.9224 1.16V13H25.4664V1.16H26.9224ZM37.4039 8.28C37.4039 8.55733 37.3879 8.85067 37.3559 9.16H30.3479C30.4012 10.024 30.6945 10.7013 31.2279 11.192C31.7719 11.672 32.4279 11.912 33.1959 11.912C33.8252 11.912 34.3479 11.768 34.7639 11.48C35.1905 11.1813 35.4892 10.7867 35.6599 10.296H37.2279C36.9932 11.1387 36.5239 11.8267 35.8199 12.36C35.1159 12.8827 34.2412 13.144 33.1959 13.144C32.3639 13.144 31.6172 12.9573 30.9559 12.584C30.3052 12.2107 29.7932 11.6827 29.4199 11C29.0465 10.3067 28.8599 9.50667 28.8599 8.6C28.8599 7.69333 29.0412 6.89867 29.4039 6.216C29.7665 5.53333 30.2732 5.01067 30.9239 4.648C31.5852 4.27467 32.3425 4.088 33.1959 4.088C34.0279 4.088 34.7639 4.26933 35.4039 4.632C36.0439 4.99467 36.5345 5.496 36.8759 6.136C37.2279 6.76533 37.4039 7.48 37.4039 8.28ZM35.8999 7.976C35.8999 7.42133 35.7772 6.94667 35.5319 6.552C35.2865 6.14667 34.9505 5.84267 34.5239 5.64C34.1079 5.42667 33.6439 5.32 33.1319 5.32C32.3959 5.32 31.7665 5.55467 31.2439 6.024C30.7319 6.49333 30.4385 7.144 30.3639 7.976H35.8999ZM39.7898 13.096C39.5124 13.096 39.2778 13 39.0858 12.808C38.8938 12.616 38.7978 12.3813 38.7978 12.104C38.7978 11.8267 38.8938 11.592 39.0858 11.4C39.2778 11.208 39.5124 11.112 39.7898 11.112C40.0564 11.112 40.2804 11.208 40.4618 11.4C40.6538 11.592 40.7498 11.8267 40.7498 12.104C40.7498 12.3813 40.6538 12.616 40.4618 12.808C40.2804 13 40.0564 13.096 39.7898 13.096ZM39.7898 6.248C39.5124 6.248 39.2778 6.152 39.0858 5.96C38.8938 5.768 38.7978 5.53333 38.7978 5.256C38.7978 4.97867 38.8938 4.744 39.0858 4.552C39.2778 4.36 39.5124 4.264 39.7898 4.264C40.0564 4.264 40.2804 4.36 40.4618 4.552C40.6538 4.744 40.7498 4.97867 40.7498 5.256C40.7498 5.53333 40.6538 5.768 40.4618 5.96C40.2804 6.152 40.0564 6.248 39.7898 6.248ZM46.4536 8.584C46.4536 7.688 46.635 6.904 46.9976 6.232C47.3603 5.54933 47.8563 5.02133 48.4856 4.648C49.1256 4.27467 49.835 4.088 50.6136 4.088C51.3816 4.088 52.0483 4.25333 52.6136 4.584C53.179 4.91467 53.6003 5.33067 53.8776 5.832V4.232H55.3496V13H53.8776V11.368C53.5896 11.88 53.1576 12.3067 52.5816 12.648C52.0163 12.9787 51.355 13.144 50.5976 13.144C49.819 13.144 49.115 12.952 48.4856 12.568C47.8563 12.184 47.3603 11.6453 46.9976 10.952C46.635 10.2587 46.4536 9.46933 46.4536 8.584ZM53.8776 8.6C53.8776 7.93867 53.7443 7.36267 53.4776 6.872C53.211 6.38133 52.8483 6.008 52.3896 5.752C51.9416 5.48533 51.4456 5.352 50.9016 5.352C50.3576 5.352 49.8616 5.48 49.4136 5.736C48.9656 5.992 48.6083 6.36533 48.3416 6.856C48.075 7.34667 47.9416 7.92267 47.9416 8.584C47.9416 9.256 48.075 9.84267 48.3416 10.344C48.6083 10.8347 48.9656 11.2133 49.4136 11.48C49.8616 11.736 50.3576 11.864 50.9016 11.864C51.4456 11.864 51.9416 11.736 52.3896 11.48C52.8483 11.2133 53.211 10.8347 53.4776 10.344C53.7443 9.84267 53.8776 9.26133 53.8776 8.6ZM59.2661 1.16V13H57.8101V1.16H59.2661ZM69.7476 8.28C69.7476 8.55733 69.7316 8.85067 69.6996 9.16H62.6916C62.745 10.024 63.0383 10.7013 63.5716 11.192C64.1156 11.672 64.7716 11.912 65.5396 11.912C66.169 11.912 66.6916 11.768 67.1076 11.48C67.5343 11.1813 67.833 10.7867 68.0036 10.296H69.5716C69.337 11.1387 68.8676 11.8267 68.1636 12.36C67.4596 12.8827 66.585 13.144 65.5396 13.144C64.7076 13.144 63.961 12.9573 63.2996 12.584C62.649 12.2107 62.137 11.6827 61.7636 11C61.3903 10.3067 61.2036 9.50667 61.2036 8.6C61.2036 7.69333 61.385 6.89867 61.7476 6.216C62.1103 5.53333 62.617 5.01067 63.2676 4.648C63.929 4.27467 64.6863 4.088 65.5396 4.088C66.3716 4.088 67.1076 4.26933 67.7476 4.632C68.3876 4.99467 68.8783 5.496 69.2196 6.136C69.5716 6.76533 69.7476 7.48 69.7476 8.28ZM68.2436 7.976C68.2436 7.42133 68.121 6.94667 67.8756 6.552C67.6303 6.14667 67.2943 5.84267 66.8676 5.64C66.4516 5.42667 65.9876 5.32 65.4756 5.32C64.7396 5.32 64.1103 5.55467 63.5876 6.024C63.0756 6.49333 62.7823 7.144 62.7076 7.976H68.2436ZM73.1255 5.656C73.3815 5.15467 73.7442 4.76533 74.2135 4.488C74.6935 4.21067 75.2748 4.072 75.9575 4.072V5.576H75.5735C73.9415 5.576 73.1255 6.46133 73.1255 8.232V13H71.6695V4.232H73.1255V5.656ZM79.4143 5.432V10.6C79.4143 11.0267 79.5049 11.3307 79.6863 11.512C79.8676 11.6827 80.1823 11.768 80.6302 11.768H81.7023V13H80.3903C79.5796 13 78.9716 12.8133 78.5663 12.44C78.1609 12.0667 77.9583 11.4533 77.9583 10.6V5.432H76.8223V4.232H77.9583V2.024H79.4143V4.232H81.7023V5.432H79.4143ZM89.5464 6.52V7.752H83.1624V6.52H89.5464ZM102.823 4.072C103.506 4.072 104.114 4.216 104.647 4.504C105.18 4.78133 105.602 5.20267 105.911 5.768C106.22 6.33333 106.375 7.02133 106.375 7.832V13H104.935V8.04C104.935 7.16533 104.716 6.49867 104.279 6.04C103.852 5.57067 103.271 5.336 102.535 5.336C101.778 5.336 101.175 5.58133 100.727 6.072C100.279 6.552 100.055 7.25067 100.055 8.168V13H98.6149V8.04C98.6149 7.16533 98.3962 6.49867 97.9589 6.04C97.5322 5.57067 96.9509 5.336 96.2149 5.336C95.4575 5.336 94.8549 5.58133 94.4069 6.072C93.9589 6.552 93.7349 7.25067 93.7349 8.168V13H92.2789V4.232H93.7349V5.496C94.0229 5.03733 94.4069 4.68533 94.8869 4.44C95.3775 4.19467 95.9162 4.072 96.5029 4.072C97.2389 4.072 97.8895 4.23733 98.4549 4.568C99.0202 4.89867 99.4415 5.384 99.7189 6.024C99.9642 5.40533 100.37 4.92533 100.935 4.584C101.5 4.24267 102.13 4.072 102.823 4.072ZM108.219 8.584C108.219 7.688 108.401 6.904 108.763 6.232C109.126 5.54933 109.622 5.02133 110.251 4.648C110.891 4.27467 111.601 4.088 112.379 4.088C113.147 4.088 113.814 4.25333 114.379 4.584C114.945 4.91467 115.366 5.33067 115.643 5.832V4.232H117.115V13H115.643V11.368C115.355 11.88 114.923 12.3067 114.347 12.648C113.782 12.9787 113.121 13.144 112.363 13.144C111.585 13.144 110.881 12.952 110.251 12.568C109.622 12.184 109.126 11.6453 108.763 10.952C108.401 10.2587 108.219 9.46933 108.219 8.584ZM115.643 8.6C115.643 7.93867 115.51 7.36267 115.243 6.872C114.977 6.38133 114.614 6.008 114.155 5.752C113.707 5.48533 113.211 5.352 112.667 5.352C112.123 5.352 111.627 5.48 111.179 5.736C110.731 5.992 110.374 6.36533 110.107 6.856C109.841 7.34667 109.707 7.92267 109.707 8.584C109.707 9.256 109.841 9.84267 110.107 10.344C110.374 10.8347 110.731 11.2133 111.179 11.48C111.627 11.736 112.123 11.864 112.667 11.864C113.211 11.864 113.707 11.736 114.155 11.48C114.614 11.2133 114.977 10.8347 115.243 10.344C115.51 9.84267 115.643 9.26133 115.643 8.6ZM120.328 2.808C120.05 2.808 119.816 2.712 119.624 2.52C119.432 2.328 119.336 2.09333 119.336 1.816C119.336 1.53867 119.432 1.304 119.624 1.112C119.816 0.919999 120.05 0.823999 120.328 0.823999C120.594 0.823999 120.818 0.919999 121 1.112C121.192 1.304 121.288 1.53867 121.288 1.816C121.288 2.09333 121.192 2.328 121 2.52C120.818 2.712 120.594 2.808 120.328 2.808ZM121.032 4.232V13H119.576V4.232H121.032ZM127.785 4.072C128.852 4.072 129.716 4.39733 130.377 5.048C131.039 5.688 131.369 6.616 131.369 7.832V13H129.929V8.04C129.929 7.16533 129.711 6.49867 129.273 6.04C128.836 5.57067 128.239 5.336 127.481 5.336C126.713 5.336 126.1 5.576 125.641 6.056C125.193 6.536 124.969 7.23467 124.969 8.152V13H123.513V4.232H124.969V5.48C125.257 5.032 125.647 4.68533 126.137 4.44C126.639 4.19467 127.188 4.072 127.785 4.072ZM139.828 6.52V7.752H133.444V6.52H139.828ZM142.016 8.6C142.016 7.69333 142.197 6.904 142.56 6.232C142.923 5.54933 143.424 5.02133 144.064 4.648C144.715 4.27467 145.456 4.088 146.288 4.088C147.365 4.088 148.251 4.34933 148.944 4.872C149.648 5.39467 150.112 6.12 150.336 7.048H148.768C148.619 6.51467 148.325 6.09333 147.888 5.784C147.461 5.47467 146.928 5.32 146.288 5.32C145.456 5.32 144.784 5.608 144.272 6.184C143.76 6.74933 143.504 7.55467 143.504 8.6C143.504 9.656 143.76 10.472 144.272 11.048C144.784 11.624 145.456 11.912 146.288 11.912C146.928 11.912 147.461 11.7627 147.888 11.464C148.315 11.1653 148.608 10.7387 148.768 10.184H150.336C150.101 11.08 149.632 11.8 148.928 12.344C148.224 12.8773 147.344 13.144 146.288 13.144C145.456 13.144 144.715 12.9573 144.064 12.584C143.424 12.2107 142.923 11.6827 142.56 11C142.197 10.3173 142.016 9.51733 142.016 8.6ZM156.103 13.144C155.282 13.144 154.535 12.9573 153.863 12.584C153.202 12.2107 152.679 11.6827 152.295 11C151.922 10.3067 151.735 9.50667 151.735 8.6C151.735 7.704 151.927 6.91467 152.311 6.232C152.706 5.53867 153.239 5.01067 153.911 4.648C154.583 4.27467 155.335 4.088 156.167 4.088C156.999 4.088 157.751 4.27467 158.423 4.648C159.095 5.01067 159.623 5.53333 160.007 6.216C160.402 6.89867 160.599 7.69333 160.599 8.6C160.599 9.50667 160.396 10.3067 159.991 11C159.596 11.6827 159.058 12.2107 158.375 12.584C157.692 12.9573 156.935 13.144 156.103 13.144ZM156.103 11.864C156.626 11.864 157.116 11.7413 157.575 11.496C158.034 11.2507 158.402 10.8827 158.679 10.392C158.967 9.90133 159.111 9.304 159.111 8.6C159.111 7.896 158.972 7.29867 158.695 6.808C158.418 6.31733 158.055 5.95467 157.607 5.72C157.159 5.47467 156.674 5.352 156.151 5.352C155.618 5.352 155.127 5.47467 154.679 5.72C154.242 5.95467 153.89 6.31733 153.623 6.808C153.356 7.29867 153.223 7.896 153.223 8.6C153.223 9.31467 153.351 9.91733 153.607 10.408C153.874 10.8987 154.226 11.2667 154.663 11.512C155.1 11.7467 155.58 11.864 156.103 11.864ZM163.969 1.16V13H162.513V1.16H163.969ZM170.275 13.144C169.453 13.144 168.707 12.9573 168.035 12.584C167.373 12.2107 166.851 11.6827 166.467 11C166.093 10.3067 165.907 9.50667 165.907 8.6C165.907 7.704 166.099 6.91467 166.483 6.232C166.877 5.53867 167.411 5.01067 168.083 4.648C168.755 4.27467 169.507 4.088 170.339 4.088C171.171 4.088 171.923 4.27467 172.595 4.648C173.267 5.01067 173.795 5.53333 174.179 6.216C174.573 6.89867 174.771 7.69333 174.771 8.6C174.771 9.50667 174.568 10.3067 174.163 11C173.768 11.6827 173.229 12.2107 172.547 12.584C171.864 12.9573 171.107 13.144 170.275 13.144ZM170.275 11.864C170.797 11.864 171.288 11.7413 171.747 11.496C172.205 11.2507 172.573 10.8827 172.851 10.392C173.139 9.90133 173.283 9.304 173.283 8.6C173.283 7.896 173.144 7.29867 172.867 6.808C172.589 6.31733 172.227 5.95467 171.779 5.72C171.331 5.47467 170.845 5.352 170.323 5.352C169.789 5.352 169.299 5.47467 168.851 5.72C168.413 5.95467 168.061 6.31733 167.795 6.808C167.528 7.29867 167.395 7.896 167.395 8.6C167.395 9.31467 167.523 9.91733 167.779 10.408C168.045 10.8987 168.397 11.2667 168.835 11.512C169.272 11.7467 169.752 11.864 170.275 11.864ZM178.141 5.656C178.397 5.15467 178.76 4.76533 179.229 4.488C179.709 4.21067 180.29 4.072 180.973 4.072V5.576H180.589C178.957 5.576 178.141 6.46133 178.141 8.232V13H176.685V4.232H178.141V5.656Z" fill="black"/>
</svg>
