<svg width="193" height="17" viewBox="0 0 193 17" fill="none" xmlns="http://www.w3.org/2000/svg">
<path d="M4.768 12.112C4.032 12.112 3.37067 11.984 2.784 11.728C2.208 11.4613 1.75467 11.0987 1.424 10.64C1.09333 10.1707 0.922667 9.632 0.912 9.024H2.464C2.51733 9.54667 2.73067 9.98933 3.104 10.352C3.488 10.704 4.04267 10.88 4.768 10.88C5.46133 10.88 6.00533 10.7093 6.4 10.368C6.80533 10.016 7.008 9.568 7.008 9.024C7.008 8.59733 6.89067 8.25067 6.656 7.984C6.42133 7.71733 6.128 7.51467 5.776 7.376C5.424 7.23733 4.94933 7.088 4.352 6.928C3.616 6.736 3.024 6.544 2.576 6.352C2.13867 6.16 1.76 5.86133 1.44 5.456C1.13067 5.04 0.976 4.48533 0.976 3.792C0.976 3.184 1.13067 2.64533 1.44 2.176C1.74933 1.70667 2.18133 1.344 2.736 1.088C3.30133 0.831999 3.94667 0.704 4.672 0.704C5.71733 0.704 6.57067 0.965333 7.232 1.488C7.904 2.01067 8.28267 2.704 8.368 3.568H6.768C6.71467 3.14133 6.49067 2.768 6.096 2.448C5.70133 2.11733 5.17867 1.952 4.528 1.952C3.92 1.952 3.424 2.112 3.04 2.432C2.656 2.74133 2.464 3.17867 2.464 3.744C2.464 4.14933 2.576 4.48 2.8 4.736C3.03467 4.992 3.31733 5.18933 3.648 5.328C3.98933 5.456 4.464 5.60533 5.072 5.776C5.808 5.97867 6.4 6.18133 6.848 6.384C7.296 6.576 7.68 6.88 8 7.296C8.32 7.70133 8.48 8.256 8.48 8.96C8.48 9.504 8.336 10.016 8.048 10.496C7.76 10.976 7.33333 11.3653 6.768 11.664C6.20267 11.9627 5.536 12.112 4.768 12.112ZM12.3986 4.432V9.6C12.3986 10.0267 12.4893 10.3307 12.6706 10.512C12.852 10.6827 13.1666 10.768 13.6146 10.768H14.6866V12H13.3746C12.564 12 11.956 11.8133 11.5506 11.44C11.1453 11.0667 10.9426 10.4533 10.9426 9.6V4.432H9.80663V3.232H10.9426V1.024H12.3986V3.232H14.6866V4.432H12.3986ZM24.0028 3.232L18.7228 16.128H17.2188L18.9468 11.904L15.4108 3.232H17.0268L19.7788 10.336L22.4988 3.232H24.0028ZM26.9224 0.16V12H25.4664V0.16H26.9224ZM37.4039 7.28C37.4039 7.55733 37.3879 7.85067 37.3559 8.16H30.3479C30.4012 9.024 30.6945 9.70133 31.2279 10.192C31.7719 10.672 32.4279 10.912 33.1959 10.912C33.8252 10.912 34.3479 10.768 34.7639 10.48C35.1905 10.1813 35.4892 9.78667 35.6599 9.296H37.2279C36.9932 10.1387 36.5239 10.8267 35.8199 11.36C35.1159 11.8827 34.2412 12.144 33.1959 12.144C32.3639 12.144 31.6172 11.9573 30.9559 11.584C30.3052 11.2107 29.7932 10.6827 29.4199 10C29.0465 9.30667 28.8599 8.50667 28.8599 7.6C28.8599 6.69333 29.0412 5.89867 29.4039 5.216C29.7665 4.53333 30.2732 4.01067 30.9239 3.648C31.5852 3.27467 32.3425 3.088 33.1959 3.088C34.0279 3.088 34.7639 3.26933 35.4039 3.632C36.0439 3.99467 36.5345 4.496 36.8759 5.136C37.2279 5.76533 37.4039 6.48 37.4039 7.28ZM35.8999 6.976C35.8999 6.42133 35.7772 5.94667 35.5319 5.552C35.2865 5.14667 34.9505 4.84267 34.5239 4.64C34.1079 4.42667 33.6439 4.32 33.1319 4.32C32.3959 4.32 31.7665 4.55467 31.2439 5.024C30.7319 5.49333 30.4385 6.144 30.3639 6.976H35.8999ZM39.7898 12.096C39.5124 12.096 39.2778 12 39.0858 11.808C38.8938 11.616 38.7978 11.3813 38.7978 11.104C38.7978 10.8267 38.8938 10.592 39.0858 10.4C39.2778 10.208 39.5124 10.112 39.7898 10.112C40.0564 10.112 40.2804 10.208 40.4618 10.4C40.6538 10.592 40.7498 10.8267 40.7498 11.104C40.7498 11.3813 40.6538 11.616 40.4618 11.808C40.2804 12 40.0564 12.096 39.7898 12.096ZM39.7898 5.248C39.5124 5.248 39.2778 5.152 39.0858 4.96C38.8938 4.768 38.7978 4.53333 38.7978 4.256C38.7978 3.97867 38.8938 3.744 39.0858 3.552C39.2778 3.36 39.5124 3.264 39.7898 3.264C40.0564 3.264 40.2804 3.36 40.4618 3.552C40.6538 3.744 40.7498 3.97867 40.7498 4.256C40.7498 4.53333 40.6538 4.768 40.4618 4.96C40.2804 5.152 40.0564 5.248 39.7898 5.248ZM48.4536 4.864C48.7523 4.34133 49.1896 3.91467 49.7656 3.584C50.3416 3.25333 50.9976 3.088 51.7336 3.088C52.523 3.088 53.2323 3.27467 53.8616 3.648C54.491 4.02133 54.987 4.54933 55.3496 5.232C55.7123 5.904 55.8936 6.688 55.8936 7.584C55.8936 8.46933 55.7123 9.25867 55.3496 9.952C54.987 10.6453 54.4856 11.184 53.8456 11.568C53.2163 11.952 52.5123 12.144 51.7336 12.144C50.9763 12.144 50.3096 11.9787 49.7336 11.648C49.1683 11.3173 48.7416 10.896 48.4536 10.384V12H46.9976V0.16H48.4536V4.864ZM54.4056 7.584C54.4056 6.92267 54.2723 6.34667 54.0056 5.856C53.739 5.36533 53.3763 4.992 52.9176 4.736C52.4696 4.48 51.9736 4.352 51.4296 4.352C50.8963 4.352 50.4003 4.48533 49.9416 4.752C49.4936 5.008 49.131 5.38667 48.8536 5.888C48.587 6.37867 48.4536 6.94933 48.4536 7.6C48.4536 8.26133 48.587 8.84267 48.8536 9.344C49.131 9.83467 49.4936 10.2133 49.9416 10.48C50.4003 10.736 50.8963 10.864 51.4296 10.864C51.9736 10.864 52.4696 10.736 52.9176 10.48C53.3763 10.2133 53.739 9.83467 54.0056 9.344C54.2723 8.84267 54.4056 8.256 54.4056 7.584ZM57.2661 7.584C57.2661 6.688 57.4475 5.904 57.8101 5.232C58.1728 4.54933 58.6688 4.02133 59.2981 3.648C59.9381 3.27467 60.6475 3.088 61.4261 3.088C62.1941 3.088 62.8608 3.25333 63.4261 3.584C63.9915 3.91467 64.4128 4.33067 64.6901 4.832V3.232H66.1621V12H64.6901V10.368C64.4021 10.88 63.9701 11.3067 63.3941 11.648C62.8288 11.9787 62.1675 12.144 61.4101 12.144C60.6315 12.144 59.9275 11.952 59.2981 11.568C58.6688 11.184 58.1728 10.6453 57.8101 9.952C57.4475 9.25867 57.2661 8.46933 57.2661 7.584ZM64.6901 7.6C64.6901 6.93867 64.5568 6.36267 64.2901 5.872C64.0235 5.38133 63.6608 5.008 63.2021 4.752C62.7541 4.48533 62.2581 4.352 61.7141 4.352C61.1701 4.352 60.6741 4.48 60.2261 4.736C59.7781 4.992 59.4208 5.36533 59.1541 5.856C58.8875 6.34667 58.7541 6.92267 58.7541 7.584C58.7541 8.256 58.8875 8.84267 59.1541 9.344C59.4208 9.83467 59.7781 10.2133 60.2261 10.48C60.6741 10.736 61.1701 10.864 61.7141 10.864C62.2581 10.864 62.7541 10.736 63.2021 10.48C63.6608 10.2133 64.0235 9.83467 64.2901 9.344C64.5568 8.84267 64.6901 8.26133 64.6901 7.6ZM68.0786 7.6C68.0786 6.69333 68.26 5.904 68.6226 5.232C68.9853 4.54933 69.4866 4.02133 70.1266 3.648C70.7773 3.27467 71.5186 3.088 72.3506 3.088C73.428 3.088 74.3133 3.34933 75.0066 3.872C75.7106 4.39467 76.1746 5.12 76.3986 6.048H74.8306C74.6813 5.51467 74.388 5.09333 73.9506 4.784C73.524 4.47467 72.9906 4.32 72.3506 4.32C71.5186 4.32 70.8466 4.608 70.3346 5.184C69.8226 5.74933 69.5666 6.55467 69.5666 7.6C69.5666 8.656 69.8226 9.472 70.3346 10.048C70.8466 10.624 71.5186 10.912 72.3506 10.912C72.9906 10.912 73.524 10.7627 73.9506 10.464C74.3773 10.1653 74.6706 9.73867 74.8306 9.184H76.3986C76.164 10.08 75.6946 10.8 74.9906 11.344C74.2866 11.8773 73.4066 12.144 72.3506 12.144C71.5186 12.144 70.7773 11.9573 70.1266 11.584C69.4866 11.2107 68.9853 10.6827 68.6226 10C68.26 9.31733 68.0786 8.51733 68.0786 7.6ZM83.2374 12L79.7974 8.128V12H78.3414V0.16H79.7974V7.12L83.1734 3.232H85.2054L81.0774 7.6L85.2214 12H83.2374ZM90.1918 3.088C90.9491 3.088 91.6104 3.25333 92.1758 3.584C92.7518 3.91467 93.1784 4.33067 93.4558 4.832V3.232H94.9278V12.192C94.9278 12.992 94.7571 13.7013 94.4158 14.32C94.0744 14.9493 93.5838 15.44 92.9438 15.792C92.3144 16.144 91.5784 16.32 90.7358 16.32C89.5838 16.32 88.6238 16.048 87.8558 15.504C87.0878 14.96 86.6344 14.2187 86.4958 13.28H87.9358C88.0958 13.8133 88.4264 14.24 88.9278 14.56C89.4291 14.8907 90.0318 15.056 90.7358 15.056C91.5358 15.056 92.1864 14.8053 92.6878 14.304C93.1998 13.8027 93.4558 13.0987 93.4558 12.192V10.352C93.1678 10.864 92.7411 11.2907 92.1758 11.632C91.6104 11.9733 90.9491 12.144 90.1918 12.144C89.4131 12.144 88.7038 11.952 88.0638 11.568C87.4344 11.184 86.9384 10.6453 86.5758 9.952C86.2131 9.25867 86.0318 8.46933 86.0318 7.584C86.0318 6.688 86.2131 5.904 86.5758 5.232C86.9384 4.54933 87.4344 4.02133 88.0638 3.648C88.7038 3.27467 89.4131 3.088 90.1918 3.088ZM93.4558 7.6C93.4558 6.93867 93.3224 6.36267 93.0558 5.872C92.7891 5.38133 92.4264 5.008 91.9678 4.752C91.5198 4.48533 91.0238 4.352 90.4798 4.352C89.9358 4.352 89.4398 4.48 88.9918 4.736C88.5438 4.992 88.1864 5.36533 87.9198 5.856C87.6531 6.34667 87.5198 6.92267 87.5198 7.584C87.5198 8.256 87.6531 8.84267 87.9198 9.344C88.1864 9.83467 88.5438 10.2133 88.9918 10.48C89.4398 10.736 89.9358 10.864 90.4798 10.864C91.0238 10.864 91.5198 10.736 91.9678 10.48C92.4264 10.2133 92.7891 9.83467 93.0558 9.344C93.3224 8.84267 93.4558 8.26133 93.4558 7.6ZM98.8443 4.656C99.1003 4.15467 99.4629 3.76533 99.9323 3.488C100.412 3.21067 100.994 3.072 101.676 3.072V4.576H101.292C99.6603 4.576 98.8443 5.46133 98.8443 7.232V12H97.3883V3.232H98.8443V4.656ZM107.181 12.144C106.36 12.144 105.613 11.9573 104.941 11.584C104.28 11.2107 103.757 10.6827 103.373 10C103 9.30667 102.813 8.50667 102.813 7.6C102.813 6.704 103.005 5.91467 103.389 5.232C103.784 4.53867 104.317 4.01067 104.989 3.648C105.661 3.27467 106.413 3.088 107.245 3.088C108.077 3.088 108.829 3.27467 109.501 3.648C110.173 4.01067 110.701 4.53333 111.085 5.216C111.48 5.89867 111.677 6.69333 111.677 7.6C111.677 8.50667 111.474 9.30667 111.069 10C110.674 10.6827 110.136 11.2107 109.453 11.584C108.77 11.9573 108.013 12.144 107.181 12.144ZM107.181 10.864C107.704 10.864 108.194 10.7413 108.653 10.496C109.112 10.2507 109.48 9.88267 109.757 9.392C110.045 8.90133 110.189 8.304 110.189 7.6C110.189 6.896 110.05 6.29867 109.773 5.808C109.496 5.31733 109.133 4.95467 108.685 4.72C108.237 4.47467 107.752 4.352 107.229 4.352C106.696 4.352 106.205 4.47467 105.757 4.72C105.32 4.95467 104.968 5.31733 104.701 5.808C104.434 6.29867 104.301 6.896 104.301 7.6C104.301 8.31467 104.429 8.91733 104.685 9.408C104.952 9.89867 105.304 10.2667 105.741 10.512C106.178 10.7467 106.658 10.864 107.181 10.864ZM121.367 3.232V12H119.911V10.704C119.634 11.152 119.245 11.504 118.743 11.76C118.253 12.0053 117.709 12.128 117.111 12.128C116.429 12.128 115.815 11.9893 115.271 11.712C114.727 11.424 114.295 10.9973 113.975 10.432C113.666 9.86667 113.511 9.17867 113.511 8.368V3.232H114.951V8.176C114.951 9.04 115.17 9.70667 115.607 10.176C116.045 10.6347 116.642 10.864 117.399 10.864C118.178 10.864 118.791 10.624 119.239 10.144C119.687 9.664 119.911 8.96533 119.911 8.048V3.232H121.367ZM128.098 3.072C129.164 3.072 130.028 3.39733 130.69 4.048C131.351 4.688 131.682 5.616 131.682 6.832V12H130.242V7.04C130.242 6.16533 130.023 5.49867 129.586 5.04C129.148 4.57067 128.551 4.336 127.794 4.336C127.026 4.336 126.412 4.576 125.954 5.056C125.506 5.536 125.282 6.23467 125.282 7.152V12H123.826V3.232H125.282V4.48C125.57 4.032 125.959 3.68533 126.45 3.44C126.951 3.19467 127.5 3.072 128.098 3.072ZM133.516 7.584C133.516 6.688 133.697 5.904 134.06 5.232C134.423 4.54933 134.919 4.02133 135.548 3.648C136.188 3.27467 136.903 3.088 137.692 3.088C138.375 3.088 139.009 3.248 139.596 3.568C140.183 3.87733 140.631 4.288 140.94 4.8V0.16H142.412V12H140.94V10.352C140.652 10.8747 140.225 11.3067 139.66 11.648C139.095 11.9787 138.433 12.144 137.676 12.144C136.897 12.144 136.188 11.952 135.548 11.568C134.919 11.184 134.423 10.6453 134.06 9.952C133.697 9.25867 133.516 8.46933 133.516 7.584ZM140.94 7.6C140.94 6.93867 140.807 6.36267 140.54 5.872C140.273 5.38133 139.911 5.008 139.452 4.752C139.004 4.48533 138.508 4.352 137.964 4.352C137.42 4.352 136.924 4.48 136.476 4.736C136.028 4.992 135.671 5.36533 135.404 5.856C135.137 6.34667 135.004 6.92267 135.004 7.584C135.004 8.256 135.137 8.84267 135.404 9.344C135.671 9.83467 136.028 10.2133 136.476 10.48C136.924 10.736 137.42 10.864 137.964 10.864C138.508 10.864 139.004 10.736 139.452 10.48C139.911 10.2133 140.273 9.83467 140.54 9.344C140.807 8.84267 140.94 8.26133 140.94 7.6ZM150.953 5.52V6.752H144.569V5.52H150.953ZM153.141 7.6C153.141 6.69333 153.322 5.904 153.685 5.232C154.048 4.54933 154.549 4.02133 155.189 3.648C155.84 3.27467 156.581 3.088 157.413 3.088C158.49 3.088 159.376 3.34933 160.069 3.872C160.773 4.39467 161.237 5.12 161.461 6.048H159.893C159.744 5.51467 159.45 5.09333 159.013 4.784C158.586 4.47467 158.053 4.32 157.413 4.32C156.581 4.32 155.909 4.608 155.397 5.184C154.885 5.74933 154.629 6.55467 154.629 7.6C154.629 8.656 154.885 9.472 155.397 10.048C155.909 10.624 156.581 10.912 157.413 10.912C158.053 10.912 158.586 10.7627 159.013 10.464C159.44 10.1653 159.733 9.73867 159.893 9.184H161.461C161.226 10.08 160.757 10.8 160.053 11.344C159.349 11.8773 158.469 12.144 157.413 12.144C156.581 12.144 155.84 11.9573 155.189 11.584C154.549 11.2107 154.048 10.6827 153.685 10C153.322 9.31733 153.141 8.51733 153.141 7.6ZM167.228 12.144C166.407 12.144 165.66 11.9573 164.988 11.584C164.327 11.2107 163.804 10.6827 163.42 10C163.047 9.30667 162.86 8.50667 162.86 7.6C162.86 6.704 163.052 5.91467 163.436 5.232C163.831 4.53867 164.364 4.01067 165.036 3.648C165.708 3.27467 166.46 3.088 167.292 3.088C168.124 3.088 168.876 3.27467 169.548 3.648C170.22 4.01067 170.748 4.53333 171.132 5.216C171.527 5.89867 171.724 6.69333 171.724 7.6C171.724 8.50667 171.521 9.30667 171.116 10C170.721 10.6827 170.183 11.2107 169.5 11.584C168.817 11.9573 168.06 12.144 167.228 12.144ZM167.228 10.864C167.751 10.864 168.241 10.7413 168.7 10.496C169.159 10.2507 169.527 9.88267 169.804 9.392C170.092 8.90133 170.236 8.304 170.236 7.6C170.236 6.896 170.097 6.29867 169.82 5.808C169.543 5.31733 169.18 4.95467 168.732 4.72C168.284 4.47467 167.799 4.352 167.276 4.352C166.743 4.352 166.252 4.47467 165.804 4.72C165.367 4.95467 165.015 5.31733 164.748 5.808C164.481 6.29867 164.348 6.896 164.348 7.6C164.348 8.31467 164.476 8.91733 164.732 9.408C164.999 9.89867 165.351 10.2667 165.788 10.512C166.225 10.7467 166.705 10.864 167.228 10.864ZM175.094 0.16V12H173.638V0.16H175.094ZM181.4 12.144C180.578 12.144 179.832 11.9573 179.16 11.584C178.498 11.2107 177.976 10.6827 177.592 10C177.218 9.30667 177.032 8.50667 177.032 7.6C177.032 6.704 177.224 5.91467 177.608 5.232C178.002 4.53867 178.536 4.01067 179.208 3.648C179.88 3.27467 180.632 3.088 181.464 3.088C182.296 3.088 183.048 3.27467 183.72 3.648C184.392 4.01067 184.92 4.53333 185.304 5.216C185.698 5.89867 185.896 6.69333 185.896 7.6C185.896 8.50667 185.693 9.30667 185.288 10C184.893 10.6827 184.354 11.2107 183.672 11.584C182.989 11.9573 182.232 12.144 181.4 12.144ZM181.4 10.864C181.922 10.864 182.413 10.7413 182.872 10.496C183.33 10.2507 183.698 9.88267 183.976 9.392C184.264 8.90133 184.408 8.304 184.408 7.6C184.408 6.896 184.269 6.29867 183.992 5.808C183.714 5.31733 183.352 4.95467 182.904 4.72C182.456 4.47467 181.97 4.352 181.448 4.352C180.914 4.352 180.424 4.47467 179.976 4.72C179.538 4.95467 179.186 5.31733 178.92 5.808C178.653 6.29867 178.52 6.896 178.52 7.6C178.52 8.31467 178.648 8.91733 178.904 9.408C179.17 9.89867 179.522 10.2667 179.96 10.512C180.397 10.7467 180.877 10.864 181.4 10.864ZM189.266 4.656C189.522 4.15467 189.885 3.76533 190.354 3.488C190.834 3.21067 191.415 3.072 192.098 3.072V4.576H191.714C190.082 4.576 189.266 5.46133 189.266 7.232V12H187.81V3.232H189.266V4.656Z" fill="black"/>
</svg>
