<svg width="210" height="18" viewBox="0 0 210 18" fill="none" xmlns="http://www.w3.org/2000/svg">
<path d="M4.768 13.112C4.032 13.112 3.37067 12.984 2.784 12.728C2.208 12.4613 1.75467 12.0987 1.424 11.64C1.09333 11.1707 0.922667 10.632 0.912 10.024H2.464C2.51733 10.5467 2.73067 10.9893 3.104 11.352C3.488 11.704 4.04267 11.88 4.768 11.88C5.46133 11.88 6.00533 11.7093 6.4 11.368C6.80533 11.016 7.008 10.568 7.008 10.024C7.008 9.59733 6.89067 9.25067 6.656 8.984C6.42133 8.71733 6.128 8.51467 5.776 8.376C5.424 8.23733 4.94933 8.088 4.352 7.928C3.616 7.736 3.024 7.544 2.576 7.352C2.13867 7.16 1.76 6.86133 1.44 6.456C1.13067 6.04 0.976 5.48533 0.976 4.792C0.976 4.184 1.13067 3.64533 1.44 3.176C1.74933 2.70667 2.18133 2.344 2.736 2.088C3.30133 1.832 3.94667 1.704 4.672 1.704C5.71733 1.704 6.57067 1.96533 7.232 2.488C7.904 3.01067 8.28267 3.704 8.368 4.568H6.768C6.71467 4.14133 6.49067 3.768 6.096 3.448C5.70133 3.11733 5.17867 2.952 4.528 2.952C3.92 2.952 3.424 3.112 3.04 3.432C2.656 3.74133 2.464 4.17867 2.464 4.744C2.464 5.14933 2.576 5.48 2.8 5.736C3.03467 5.992 3.31733 6.18933 3.648 6.328C3.98933 6.456 4.464 6.60533 5.072 6.776C5.808 6.97867 6.4 7.18133 6.848 7.384C7.296 7.576 7.68 7.88 8 8.296C8.32 8.70133 8.48 9.256 8.48 9.96C8.48 10.504 8.336 11.016 8.048 11.496C7.76 11.976 7.33333 12.3653 6.768 12.664C6.20267 12.9627 5.536 13.112 4.768 13.112ZM12.3986 5.432V10.6C12.3986 11.0267 12.4893 11.3307 12.6706 11.512C12.852 11.6827 13.1666 11.768 13.6146 11.768H14.6866V13H13.3746C12.564 13 11.956 12.8133 11.5506 12.44C11.1453 12.0667 10.9426 11.4533 10.9426 10.6V5.432H9.80663V4.232H10.9426V2.024H12.3986V4.232H14.6866V5.432H12.3986ZM24.0028 4.232L18.7228 17.128H17.2188L18.9468 12.904L15.4108 4.232H17.0268L19.7788 11.336L22.4988 4.232H24.0028ZM26.9224 1.16V13H25.4664V1.16H26.9224ZM37.4039 8.28C37.4039 8.55733 37.3879 8.85067 37.3559 9.16H30.3479C30.4012 10.024 30.6945 10.7013 31.2279 11.192C31.7719 11.672 32.4279 11.912 33.1959 11.912C33.8252 11.912 34.3479 11.768 34.7639 11.48C35.1905 11.1813 35.4892 10.7867 35.6599 10.296H37.2279C36.9932 11.1387 36.5239 11.8267 35.8199 12.36C35.1159 12.8827 34.2412 13.144 33.1959 13.144C32.3639 13.144 31.6172 12.9573 30.9559 12.584C30.3052 12.2107 29.7932 11.6827 29.4199 11C29.0465 10.3067 28.8599 9.50667 28.8599 8.6C28.8599 7.69333 29.0412 6.89867 29.4039 6.216C29.7665 5.53333 30.2732 5.01067 30.9239 4.648C31.5852 4.27467 32.3425 4.088 33.1959 4.088C34.0279 4.088 34.7639 4.26933 35.4039 4.632C36.0439 4.99467 36.5345 5.496 36.8759 6.136C37.2279 6.76533 37.4039 7.48 37.4039 8.28ZM35.8999 7.976C35.8999 7.42133 35.7772 6.94667 35.5319 6.552C35.2865 6.14667 34.9505 5.84267 34.5239 5.64C34.1079 5.42667 33.6439 5.32 33.1319 5.32C32.3959 5.32 31.7665 5.55467 31.2439 6.024C30.7319 6.49333 30.4385 7.144 30.3639 7.976H35.8999ZM39.7898 13.096C39.5124 13.096 39.2778 13 39.0858 12.808C38.8938 12.616 38.7978 12.3813 38.7978 12.104C38.7978 11.8267 38.8938 11.592 39.0858 11.4C39.2778 11.208 39.5124 11.112 39.7898 11.112C40.0564 11.112 40.2804 11.208 40.4618 11.4C40.6538 11.592 40.7498 11.8267 40.7498 12.104C40.7498 12.3813 40.6538 12.616 40.4618 12.808C40.2804 13 40.0564 13.096 39.7898 13.096ZM39.7898 6.248C39.5124 6.248 39.2778 6.152 39.0858 5.96C38.8938 5.768 38.7978 5.53333 38.7978 5.256C38.7978 4.97867 38.8938 4.744 39.0858 4.552C39.2778 4.36 39.5124 4.264 39.7898 4.264C40.0564 4.264 40.2804 4.36 40.4618 4.552C40.6538 4.744 40.7498 4.97867 40.7498 5.256C40.7498 5.53333 40.6538 5.768 40.4618 5.96C40.2804 6.152 40.0564 6.248 39.7898 6.248ZM50.1016 13.144C49.4296 13.144 48.827 13.032 48.2936 12.808C47.7603 12.5733 47.339 12.2533 47.0296 11.848C46.7203 11.432 46.5496 10.9573 46.5176 10.424H48.0216C48.0643 10.8613 48.267 11.2187 48.6296 11.496C49.003 11.7733 49.4883 11.912 50.0856 11.912C50.6403 11.912 51.0776 11.7893 51.3976 11.544C51.7176 11.2987 51.8776 10.9893 51.8776 10.616C51.8776 10.232 51.707 9.94933 51.3656 9.768C51.0243 9.576 50.4963 9.38933 49.7816 9.208C49.131 9.03733 48.5976 8.86667 48.1816 8.696C47.7763 8.51467 47.4243 8.25333 47.1256 7.912C46.8376 7.56 46.6936 7.10133 46.6936 6.536C46.6936 6.088 46.827 5.67733 47.0936 5.304C47.3603 4.93067 47.739 4.63733 48.2296 4.424C48.7203 4.2 49.2803 4.088 49.9096 4.088C50.8803 4.088 51.6643 4.33333 52.2616 4.824C52.859 5.31467 53.179 5.98667 53.2216 6.84H51.7656C51.7336 6.38133 51.547 6.01333 51.2056 5.736C50.875 5.45867 50.427 5.32 49.8616 5.32C49.339 5.32 48.923 5.432 48.6136 5.656C48.3043 5.88 48.1496 6.17333 48.1496 6.536C48.1496 6.824 48.2403 7.064 48.4216 7.256C48.6136 7.43733 48.8483 7.58667 49.1256 7.704C49.4136 7.81067 49.8083 7.93333 50.3096 8.072C50.939 8.24267 51.451 8.41333 51.8456 8.584C52.2403 8.744 52.5763 8.98933 52.8536 9.32C53.1416 9.65067 53.291 10.0827 53.3016 10.616C53.3016 11.096 53.1683 11.528 52.9016 11.912C52.635 12.296 52.2563 12.6 51.7656 12.824C51.2856 13.0373 50.731 13.144 50.1016 13.144ZM63.133 4.232V13H61.677V11.704C61.3997 12.152 61.0103 12.504 60.509 12.76C60.0183 13.0053 59.4743 13.128 58.877 13.128C58.1943 13.128 57.581 12.9893 57.037 12.712C56.493 12.424 56.061 11.9973 55.741 11.432C55.4317 10.8667 55.277 10.1787 55.277 9.368V4.232H56.717V9.176C56.717 10.04 56.9357 10.7067 57.373 11.176C57.8103 11.6347 58.4077 11.864 59.165 11.864C59.9437 11.864 60.557 11.624 61.005 11.144C61.453 10.664 61.677 9.96533 61.677 9.048V4.232H63.133ZM65.0474 8.6C65.0474 7.69333 65.2287 6.904 65.5914 6.232C65.954 5.54933 66.4554 5.02133 67.0954 4.648C67.746 4.27467 68.4874 4.088 69.3194 4.088C70.3967 4.088 71.282 4.34933 71.9754 4.872C72.6794 5.39467 73.1434 6.12 73.3674 7.048H71.7994C71.65 6.51467 71.3567 6.09333 70.9194 5.784C70.4927 5.47467 69.9594 5.32 69.3194 5.32C68.4874 5.32 67.8154 5.608 67.3034 6.184C66.7914 6.74933 66.5354 7.55467 66.5354 8.6C66.5354 9.656 66.7914 10.472 67.3034 11.048C67.8154 11.624 68.4874 11.912 69.3194 11.912C69.9594 11.912 70.4927 11.7627 70.9194 11.464C71.346 11.1653 71.6394 10.7387 71.7994 10.184H73.3674C73.1327 11.08 72.6634 11.8 71.9594 12.344C71.2554 12.8773 70.3754 13.144 69.3194 13.144C68.4874 13.144 67.746 12.9573 67.0954 12.584C66.4554 12.2107 65.954 11.6827 65.5914 11C65.2287 10.3173 65.0474 9.51733 65.0474 8.6ZM74.7661 8.6C74.7661 7.69333 74.9475 6.904 75.3101 6.232C75.6728 5.54933 76.1741 5.02133 76.8141 4.648C77.4648 4.27467 78.2061 4.088 79.0381 4.088C80.1155 4.088 81.0008 4.34933 81.6941 4.872C82.3981 5.39467 82.8621 6.12 83.0861 7.048H81.5181C81.3688 6.51467 81.0755 6.09333 80.6381 5.784C80.2115 5.47467 79.6781 5.32 79.0381 5.32C78.2061 5.32 77.5341 5.608 77.0221 6.184C76.5101 6.74933 76.2541 7.55467 76.2541 8.6C76.2541 9.656 76.5101 10.472 77.0221 11.048C77.5341 11.624 78.2061 11.912 79.0381 11.912C79.6781 11.912 80.2115 11.7627 80.6381 11.464C81.0648 11.1653 81.3581 10.7387 81.5181 10.184H83.0861C82.8515 11.08 82.3821 11.8 81.6781 12.344C80.9741 12.8773 80.0941 13.144 79.0381 13.144C78.2061 13.144 77.4648 12.9573 76.8141 12.584C76.1741 12.2107 75.6728 11.6827 75.3101 11C74.9475 10.3173 74.7661 9.51733 74.7661 8.6ZM93.0289 8.28C93.0289 8.55733 93.0129 8.85067 92.9809 9.16H85.9729C86.0262 10.024 86.3195 10.7013 86.8529 11.192C87.3969 11.672 88.0529 11.912 88.8209 11.912C89.4502 11.912 89.9729 11.768 90.3889 11.48C90.8155 11.1813 91.1142 10.7867 91.2849 10.296H92.8529C92.6182 11.1387 92.1489 11.8267 91.4449 12.36C90.7409 12.8827 89.8662 13.144 88.8209 13.144C87.9889 13.144 87.2422 12.9573 86.5809 12.584C85.9302 12.2107 85.4182 11.6827 85.0449 11C84.6715 10.3067 84.4849 9.50667 84.4849 8.6C84.4849 7.69333 84.6662 6.89867 85.0289 6.216C85.3915 5.53333 85.8982 5.01067 86.5489 4.648C87.2102 4.27467 87.9675 4.088 88.8209 4.088C89.6529 4.088 90.3889 4.26933 91.0289 4.632C91.6689 4.99467 92.1595 5.496 92.5009 6.136C92.8529 6.76533 93.0289 7.48 93.0289 8.28ZM91.5249 7.976C91.5249 7.42133 91.4022 6.94667 91.1569 6.552C90.9115 6.14667 90.5755 5.84267 90.1489 5.64C89.7329 5.42667 89.2689 5.32 88.7569 5.32C88.0209 5.32 87.3915 5.55467 86.8689 6.024C86.3569 6.49333 86.0635 7.144 85.9889 7.976H91.5249ZM98.0548 13.144C97.3828 13.144 96.7801 13.032 96.2468 12.808C95.7134 12.5733 95.2921 12.2533 94.9828 11.848C94.6734 11.432 94.5028 10.9573 94.4708 10.424H95.9748C96.0174 10.8613 96.2201 11.2187 96.5828 11.496C96.9561 11.7733 97.4414 11.912 98.0388 11.912C98.5934 11.912 99.0308 11.7893 99.3508 11.544C99.6708 11.2987 99.8308 10.9893 99.8308 10.616C99.8308 10.232 99.6601 9.94933 99.3188 9.768C98.9774 9.576 98.4494 9.38933 97.7348 9.208C97.0841 9.03733 96.5508 8.86667 96.1348 8.696C95.7294 8.51467 95.3774 8.25333 95.0788 7.912C94.7908 7.56 94.6468 7.10133 94.6468 6.536C94.6468 6.088 94.7801 5.67733 95.0468 5.304C95.3134 4.93067 95.6921 4.63733 96.1828 4.424C96.6734 4.2 97.2334 4.088 97.8628 4.088C98.8334 4.088 99.6174 4.33333 100.215 4.824C100.812 5.31467 101.132 5.98667 101.175 6.84H99.7188C99.6868 6.38133 99.5001 6.01333 99.1588 5.736C98.8281 5.45867 98.3801 5.32 97.8148 5.32C97.2921 5.32 96.8761 5.432 96.5668 5.656C96.2574 5.88 96.1028 6.17333 96.1028 6.536C96.1028 6.824 96.1934 7.064 96.3748 7.256C96.5668 7.43733 96.8014 7.58667 97.0788 7.704C97.3668 7.81067 97.7614 7.93333 98.2628 8.072C98.8921 8.24267 99.4041 8.41333 99.7988 8.584C100.193 8.744 100.529 8.98933 100.807 9.32C101.095 9.65067 101.244 10.0827 101.255 10.616C101.255 11.096 101.121 11.528 100.855 11.912C100.588 12.296 100.209 12.6 99.7188 12.824C99.2388 13.0373 98.6841 13.144 98.0548 13.144ZM106.414 13.144C105.742 13.144 105.139 13.032 104.606 12.808C104.073 12.5733 103.651 12.2533 103.342 11.848C103.033 11.432 102.862 10.9573 102.83 10.424H104.334C104.377 10.8613 104.579 11.2187 104.942 11.496C105.315 11.7733 105.801 11.912 106.398 11.912C106.953 11.912 107.39 11.7893 107.71 11.544C108.03 11.2987 108.19 10.9893 108.19 10.616C108.19 10.232 108.019 9.94933 107.678 9.768C107.337 9.576 106.809 9.38933 106.094 9.208C105.443 9.03733 104.91 8.86667 104.494 8.696C104.089 8.51467 103.737 8.25333 103.438 7.912C103.15 7.56 103.006 7.10133 103.006 6.536C103.006 6.088 103.139 5.67733 103.406 5.304C103.673 4.93067 104.051 4.63733 104.542 4.424C105.033 4.2 105.593 4.088 106.222 4.088C107.193 4.088 107.977 4.33333 108.574 4.824C109.171 5.31467 109.491 5.98667 109.534 6.84H108.078C108.046 6.38133 107.859 6.01333 107.518 5.736C107.187 5.45867 106.739 5.32 106.174 5.32C105.651 5.32 105.235 5.432 104.926 5.656C104.617 5.88 104.462 6.17333 104.462 6.536C104.462 6.824 104.553 7.064 104.734 7.256C104.926 7.43733 105.161 7.58667 105.438 7.704C105.726 7.81067 106.121 7.93333 106.622 8.072C107.251 8.24267 107.763 8.41333 108.158 8.584C108.553 8.744 108.889 8.98933 109.166 9.32C109.454 9.65067 109.603 10.0827 109.614 10.616C109.614 11.096 109.481 11.528 109.214 11.912C108.947 12.296 108.569 12.6 108.078 12.824C107.598 13.0373 107.043 13.144 106.414 13.144ZM117.75 6.52V7.752H111.366V6.52H117.75ZM131.026 4.072C131.709 4.072 132.317 4.216 132.85 4.504C133.383 4.78133 133.805 5.20267 134.114 5.768C134.423 6.33333 134.578 7.02133 134.578 7.832V13H133.138V8.04C133.138 7.16533 132.919 6.49867 132.482 6.04C132.055 5.57067 131.474 5.336 130.738 5.336C129.981 5.336 129.378 5.58133 128.93 6.072C128.482 6.552 128.258 7.25067 128.258 8.168V13H126.818V8.04C126.818 7.16533 126.599 6.49867 126.162 6.04C125.735 5.57067 125.154 5.336 124.418 5.336C123.661 5.336 123.058 5.58133 122.61 6.072C122.162 6.552 121.938 7.25067 121.938 8.168V13H120.482V4.232H121.938V5.496C122.226 5.03733 122.61 4.68533 123.09 4.44C123.581 4.19467 124.119 4.072 124.706 4.072C125.442 4.072 126.093 4.23733 126.658 4.568C127.223 4.89867 127.645 5.384 127.922 6.024C128.167 5.40533 128.573 4.92533 129.138 4.584C129.703 4.24267 130.333 4.072 131.026 4.072ZM136.422 8.584C136.422 7.688 136.604 6.904 136.966 6.232C137.329 5.54933 137.825 5.02133 138.454 4.648C139.094 4.27467 139.804 4.088 140.582 4.088C141.35 4.088 142.017 4.25333 142.582 4.584C143.148 4.91467 143.569 5.33067 143.846 5.832V4.232H145.318V13H143.846V11.368C143.558 11.88 143.126 12.3067 142.55 12.648C141.985 12.9787 141.324 13.144 140.566 13.144C139.788 13.144 139.084 12.952 138.454 12.568C137.825 12.184 137.329 11.6453 136.966 10.952C136.604 10.2587 136.422 9.46933 136.422 8.584ZM143.846 8.6C143.846 7.93867 143.713 7.36267 143.446 6.872C143.18 6.38133 142.817 6.008 142.358 5.752C141.91 5.48533 141.414 5.352 140.87 5.352C140.326 5.352 139.83 5.48 139.382 5.736C138.934 5.992 138.577 6.36533 138.31 6.856C138.044 7.34667 137.91 7.92267 137.91 8.584C137.91 9.256 138.044 9.84267 138.31 10.344C138.577 10.8347 138.934 11.2133 139.382 11.48C139.83 11.736 140.326 11.864 140.87 11.864C141.414 11.864 141.91 11.736 142.358 11.48C142.817 11.2133 143.18 10.8347 143.446 10.344C143.713 9.84267 143.846 9.26133 143.846 8.6ZM148.531 2.808C148.254 2.808 148.019 2.712 147.827 2.52C147.635 2.328 147.539 2.09333 147.539 1.816C147.539 1.53867 147.635 1.304 147.827 1.112C148.019 0.919999 148.254 0.823999 148.531 0.823999C148.798 0.823999 149.022 0.919999 149.203 1.112C149.395 1.304 149.491 1.53867 149.491 1.816C149.491 2.09333 149.395 2.328 149.203 2.52C149.022 2.712 148.798 2.808 148.531 2.808ZM149.235 4.232V13H147.779V4.232H149.235ZM155.988 4.072C157.055 4.072 157.919 4.39733 158.58 5.048C159.242 5.688 159.572 6.616 159.572 7.832V13H158.132V8.04C158.132 7.16533 157.914 6.49867 157.476 6.04C157.039 5.57067 156.442 5.336 155.684 5.336C154.916 5.336 154.303 5.576 153.844 6.056C153.396 6.536 153.172 7.23467 153.172 8.152V13H151.716V4.232H153.172V5.48C153.46 5.032 153.85 4.68533 154.34 4.44C154.842 4.19467 155.391 4.072 155.988 4.072ZM168.031 6.52V7.752H161.647V6.52H168.031ZM170.219 8.6C170.219 7.69333 170.401 6.904 170.763 6.232C171.126 5.54933 171.627 5.02133 172.267 4.648C172.918 4.27467 173.659 4.088 174.491 4.088C175.569 4.088 176.454 4.34933 177.147 4.872C177.851 5.39467 178.315 6.12 178.539 7.048H176.971C176.822 6.51467 176.529 6.09333 176.091 5.784C175.665 5.47467 175.131 5.32 174.491 5.32C173.659 5.32 172.987 5.608 172.475 6.184C171.963 6.74933 171.707 7.55467 171.707 8.6C171.707 9.656 171.963 10.472 172.475 11.048C172.987 11.624 173.659 11.912 174.491 11.912C175.131 11.912 175.665 11.7627 176.091 11.464C176.518 11.1653 176.811 10.7387 176.971 10.184H178.539C178.305 11.08 177.835 11.8 177.131 12.344C176.427 12.8773 175.547 13.144 174.491 13.144C173.659 13.144 172.918 12.9573 172.267 12.584C171.627 12.2107 171.126 11.6827 170.763 11C170.401 10.3173 170.219 9.51733 170.219 8.6ZM184.306 13.144C183.485 13.144 182.738 12.9573 182.066 12.584C181.405 12.2107 180.882 11.6827 180.498 11C180.125 10.3067 179.938 9.50667 179.938 8.6C179.938 7.704 180.13 6.91467 180.514 6.232C180.909 5.53867 181.442 5.01067 182.114 4.648C182.786 4.27467 183.538 4.088 184.37 4.088C185.202 4.088 185.954 4.27467 186.626 4.648C187.298 5.01067 187.826 5.53333 188.21 6.216C188.605 6.89867 188.802 7.69333 188.802 8.6C188.802 9.50667 188.599 10.3067 188.194 11C187.799 11.6827 187.261 12.2107 186.578 12.584C185.895 12.9573 185.138 13.144 184.306 13.144ZM184.306 11.864C184.829 11.864 185.319 11.7413 185.778 11.496C186.237 11.2507 186.605 10.8827 186.882 10.392C187.17 9.90133 187.314 9.304 187.314 8.6C187.314 7.896 187.175 7.29867 186.898 6.808C186.621 6.31733 186.258 5.95467 185.81 5.72C185.362 5.47467 184.877 5.352 184.354 5.352C183.821 5.352 183.33 5.47467 182.882 5.72C182.445 5.95467 182.093 6.31733 181.826 6.808C181.559 7.29867 181.426 7.896 181.426 8.6C181.426 9.31467 181.554 9.91733 181.81 10.408C182.077 10.8987 182.429 11.2667 182.866 11.512C183.303 11.7467 183.783 11.864 184.306 11.864ZM192.172 1.16V13H190.716V1.16H192.172ZM198.478 13.144C197.657 13.144 196.91 12.9573 196.238 12.584C195.577 12.2107 195.054 11.6827 194.67 11C194.297 10.3067 194.11 9.50667 194.11 8.6C194.11 7.704 194.302 6.91467 194.686 6.232C195.081 5.53867 195.614 5.01067 196.286 4.648C196.958 4.27467 197.71 4.088 198.542 4.088C199.374 4.088 200.126 4.27467 200.798 4.648C201.47 5.01067 201.998 5.53333 202.382 6.216C202.777 6.89867 202.974 7.69333 202.974 8.6C202.974 9.50667 202.771 10.3067 202.366 11C201.971 11.6827 201.433 12.2107 200.75 12.584C200.067 12.9573 199.31 13.144 198.478 13.144ZM198.478 11.864C199.001 11.864 199.491 11.7413 199.95 11.496C200.409 11.2507 200.777 10.8827 201.054 10.392C201.342 9.90133 201.486 9.304 201.486 8.6C201.486 7.896 201.347 7.29867 201.07 6.808C200.793 6.31733 200.43 5.95467 199.982 5.72C199.534 5.47467 199.049 5.352 198.526 5.352C197.993 5.352 197.502 5.47467 197.054 5.72C196.617 5.95467 196.265 6.31733 195.998 6.808C195.731 7.29867 195.598 7.896 195.598 8.6C195.598 9.31467 195.726 9.91733 195.982 10.408C196.249 10.8987 196.601 11.2667 197.038 11.512C197.475 11.7467 197.955 11.864 198.478 11.864ZM206.344 5.656C206.6 5.15467 206.963 4.76533 207.432 4.488C207.912 4.21067 208.494 4.072 209.176 4.072V5.576H208.792C207.16 5.576 206.344 6.46133 206.344 8.232V13H204.888V4.232H206.344V5.656Z" fill="black"/>
</svg>
