<svg width="175" height="18" viewBox="0 0 175 18" fill="none" xmlns="http://www.w3.org/2000/svg">
<path d="M4.768 13.112C4.032 13.112 3.37067 12.984 2.784 12.728C2.208 12.4613 1.75467 12.0987 1.424 11.64C1.09333 11.1707 0.922667 10.632 0.912 10.024H2.464C2.51733 10.5467 2.73067 10.9893 3.104 11.352C3.488 11.704 4.04267 11.88 4.768 11.88C5.46133 11.88 6.00533 11.7093 6.4 11.368C6.80533 11.016 7.008 10.568 7.008 10.024C7.008 9.59733 6.89067 9.25067 6.656 8.984C6.42133 8.71733 6.128 8.51467 5.776 8.376C5.424 8.23733 4.94933 8.088 4.352 7.928C3.616 7.736 3.024 7.544 2.576 7.352C2.13867 7.16 1.76 6.86133 1.44 6.456C1.13067 6.04 0.976 5.48533 0.976 4.792C0.976 4.184 1.13067 3.64533 1.44 3.176C1.74933 2.70667 2.18133 2.344 2.736 2.088C3.30133 1.832 3.94667 1.704 4.672 1.704C5.71733 1.704 6.57067 1.96533 7.232 2.488C7.904 3.01067 8.28267 3.704 8.368 4.568H6.768C6.71467 4.14133 6.49067 3.768 6.096 3.448C5.70133 3.11733 5.17867 2.952 4.528 2.952C3.92 2.952 3.424 3.112 3.04 3.432C2.656 3.74133 2.464 4.17867 2.464 4.744C2.464 5.14933 2.576 5.48 2.8 5.736C3.03467 5.992 3.31733 6.18933 3.648 6.328C3.98933 6.456 4.464 6.60533 5.072 6.776C5.808 6.97867 6.4 7.18133 6.848 7.384C7.296 7.576 7.68 7.88 8 8.296C8.32 8.70133 8.48 9.256 8.48 9.96C8.48 10.504 8.336 11.016 8.048 11.496C7.76 11.976 7.33333 12.3653 6.768 12.664C6.20267 12.9627 5.536 13.112 4.768 13.112ZM12.3986 5.432V10.6C12.3986 11.0267 12.4893 11.3307 12.6706 11.512C12.852 11.6827 13.1666 11.768 13.6146 11.768H14.6866V13H13.3746C12.564 13 11.956 12.8133 11.5506 12.44C11.1453 12.0667 10.9426 11.4533 10.9426 10.6V5.432H9.80663V4.232H10.9426V2.024H12.3986V4.232H14.6866V5.432H12.3986ZM24.0028 4.232L18.7228 17.128H17.2188L18.9468 12.904L15.4108 4.232H17.0268L19.7788 11.336L22.4988 4.232H24.0028ZM26.9224 1.16V13H25.4664V1.16H26.9224ZM37.4039 8.28C37.4039 8.55733 37.3879 8.85067 37.3559 9.16H30.3479C30.4012 10.024 30.6945 10.7013 31.2279 11.192C31.7719 11.672 32.4279 11.912 33.1959 11.912C33.8252 11.912 34.3479 11.768 34.7639 11.48C35.1905 11.1813 35.4892 10.7867 35.6599 10.296H37.2279C36.9932 11.1387 36.5239 11.8267 35.8199 12.36C35.1159 12.8827 34.2412 13.144 33.1959 13.144C32.3639 13.144 31.6172 12.9573 30.9559 12.584C30.3052 12.2107 29.7932 11.6827 29.4199 11C29.0465 10.3067 28.8599 9.50667 28.8599 8.6C28.8599 7.69333 29.0412 6.89867 29.4039 6.216C29.7665 5.53333 30.2732 5.01067 30.9239 4.648C31.5852 4.27467 32.3425 4.088 33.1959 4.088C34.0279 4.088 34.7639 4.26933 35.4039 4.632C36.0439 4.99467 36.5345 5.496 36.8759 6.136C37.2279 6.76533 37.4039 7.48 37.4039 8.28ZM35.8999 7.976C35.8999 7.42133 35.7772 6.94667 35.5319 6.552C35.2865 6.14667 34.9505 5.84267 34.5239 5.64C34.1079 5.42667 33.6439 5.32 33.1319 5.32C32.3959 5.32 31.7665 5.55467 31.2439 6.024C30.7319 6.49333 30.4385 7.144 30.3639 7.976H35.8999ZM39.7898 13.096C39.5124 13.096 39.2778 13 39.0858 12.808C38.8938 12.616 38.7978 12.3813 38.7978 12.104C38.7978 11.8267 38.8938 11.592 39.0858 11.4C39.2778 11.208 39.5124 11.112 39.7898 11.112C40.0564 11.112 40.2804 11.208 40.4618 11.4C40.6538 11.592 40.7498 11.8267 40.7498 12.104C40.7498 12.3813 40.6538 12.616 40.4618 12.808C40.2804 13 40.0564 13.096 39.7898 13.096ZM39.7898 6.248C39.5124 6.248 39.2778 6.152 39.0858 5.96C38.8938 5.768 38.7978 5.53333 38.7978 5.256C38.7978 4.97867 38.8938 4.744 39.0858 4.552C39.2778 4.36 39.5124 4.264 39.7898 4.264C40.0564 4.264 40.2804 4.36 40.4618 4.552C40.6538 4.744 40.7498 4.97867 40.7498 5.256C40.7498 5.53333 40.6538 5.768 40.4618 5.96C40.2804 6.152 40.0564 6.248 39.7898 6.248ZM47.7496 2.808C47.4723 2.808 47.2376 2.712 47.0456 2.52C46.8536 2.328 46.7576 2.09333 46.7576 1.816C46.7576 1.53867 46.8536 1.304 47.0456 1.112C47.2376 0.919999 47.4723 0.823999 47.7496 0.823999C48.0163 0.823999 48.2403 0.919999 48.4216 1.112C48.6136 1.304 48.7096 1.53867 48.7096 1.816C48.7096 2.09333 48.6136 2.328 48.4216 2.52C48.2403 2.712 48.0163 2.808 47.7496 2.808ZM48.4536 4.232V13H46.9976V4.232H48.4536ZM55.2071 4.072C56.2738 4.072 57.1378 4.39733 57.7991 5.048C58.4605 5.688 58.7911 6.616 58.7911 7.832V13H57.3511V8.04C57.3511 7.16533 57.1325 6.49867 56.6951 6.04C56.2578 5.57067 55.6605 5.336 54.9031 5.336C54.1351 5.336 53.5218 5.576 53.0631 6.056C52.6151 6.536 52.3911 7.23467 52.3911 8.152V13H50.9351V4.232H52.3911V5.48C52.6791 5.032 53.0685 4.68533 53.5591 4.44C54.0605 4.19467 54.6098 4.072 55.2071 4.072ZM64.7375 5.432H62.8975V13H61.4415V5.432H60.3055V4.232H61.4415V3.608C61.4415 2.62667 61.6922 1.912 62.1935 1.464C62.7055 1.00533 63.5215 0.775999 64.6415 0.775999V1.992C64.0015 1.992 63.5482 2.12 63.2815 2.376C63.0255 2.62133 62.8975 3.032 62.8975 3.608V4.232H64.7375V5.432ZM70.2591 13.144C69.4378 13.144 68.6911 12.9573 68.0191 12.584C67.3578 12.2107 66.8351 11.6827 66.4511 11C66.0778 10.3067 65.8911 9.50667 65.8911 8.6C65.8911 7.704 66.0831 6.91467 66.4671 6.232C66.8618 5.53867 67.3951 5.01067 68.0671 4.648C68.7391 4.27467 69.4911 4.088 70.3231 4.088C71.1551 4.088 71.9071 4.27467 72.5791 4.648C73.2511 5.01067 73.7791 5.53333 74.1631 6.216C74.5578 6.89867 74.7551 7.69333 74.7551 8.6C74.7551 9.50667 74.5525 10.3067 74.1471 11C73.7525 11.6827 73.2138 12.2107 72.5311 12.584C71.8485 12.9573 71.0911 13.144 70.2591 13.144ZM70.2591 11.864C70.7818 11.864 71.2725 11.7413 71.7311 11.496C72.1898 11.2507 72.5578 10.8827 72.8351 10.392C73.1231 9.90133 73.2671 9.304 73.2671 8.6C73.2671 7.896 73.1285 7.29867 72.8511 6.808C72.5738 6.31733 72.2111 5.95467 71.7631 5.72C71.3151 5.47467 70.8298 5.352 70.3071 5.352C69.7738 5.352 69.2831 5.47467 68.8351 5.72C68.3978 5.95467 68.0458 6.31733 67.7791 6.808C67.5125 7.29867 67.3791 7.896 67.3791 8.6C67.3791 9.31467 67.5071 9.91733 67.7631 10.408C68.0298 10.8987 68.3818 11.2667 68.8191 11.512C69.2565 11.7467 69.7365 11.864 70.2591 11.864ZM82.7495 6.52V7.752H76.3655V6.52H82.7495ZM96.026 4.072C96.7087 4.072 97.3167 4.216 97.85 4.504C98.3833 4.78133 98.8047 5.20267 99.114 5.768C99.4233 6.33333 99.578 7.02133 99.578 7.832V13H98.138V8.04C98.138 7.16533 97.9193 6.49867 97.482 6.04C97.0553 5.57067 96.474 5.336 95.738 5.336C94.9807 5.336 94.378 5.58133 93.93 6.072C93.482 6.552 93.258 7.25067 93.258 8.168V13H91.818V8.04C91.818 7.16533 91.5993 6.49867 91.162 6.04C90.7353 5.57067 90.154 5.336 89.418 5.336C88.6607 5.336 88.058 5.58133 87.61 6.072C87.162 6.552 86.938 7.25067 86.938 8.168V13H85.482V4.232H86.938V5.496C87.226 5.03733 87.61 4.68533 88.09 4.44C88.5807 4.19467 89.1193 4.072 89.706 4.072C90.442 4.072 91.0927 4.23733 91.658 4.568C92.2233 4.89867 92.6447 5.384 92.922 6.024C93.1673 5.40533 93.5727 4.92533 94.138 4.584C94.7033 4.24267 95.3327 4.072 96.026 4.072ZM101.422 8.584C101.422 7.688 101.604 6.904 101.966 6.232C102.329 5.54933 102.825 5.02133 103.454 4.648C104.094 4.27467 104.804 4.088 105.582 4.088C106.35 4.088 107.017 4.25333 107.582 4.584C108.148 4.91467 108.569 5.33067 108.846 5.832V4.232H110.318V13H108.846V11.368C108.558 11.88 108.126 12.3067 107.55 12.648C106.985 12.9787 106.324 13.144 105.566 13.144C104.788 13.144 104.084 12.952 103.454 12.568C102.825 12.184 102.329 11.6453 101.966 10.952C101.604 10.2587 101.422 9.46933 101.422 8.584ZM108.846 8.6C108.846 7.93867 108.713 7.36267 108.446 6.872C108.18 6.38133 107.817 6.008 107.358 5.752C106.91 5.48533 106.414 5.352 105.87 5.352C105.326 5.352 104.83 5.48 104.382 5.736C103.934 5.992 103.577 6.36533 103.31 6.856C103.044 7.34667 102.91 7.92267 102.91 8.584C102.91 9.256 103.044 9.84267 103.31 10.344C103.577 10.8347 103.934 11.2133 104.382 11.48C104.83 11.736 105.326 11.864 105.87 11.864C106.414 11.864 106.91 11.736 107.358 11.48C107.817 11.2133 108.18 10.8347 108.446 10.344C108.713 9.84267 108.846 9.26133 108.846 8.6ZM113.531 2.808C113.254 2.808 113.019 2.712 112.827 2.52C112.635 2.328 112.539 2.09333 112.539 1.816C112.539 1.53867 112.635 1.304 112.827 1.112C113.019 0.919999 113.254 0.823999 113.531 0.823999C113.798 0.823999 114.022 0.919999 114.203 1.112C114.395 1.304 114.491 1.53867 114.491 1.816C114.491 2.09333 114.395 2.328 114.203 2.52C114.022 2.712 113.798 2.808 113.531 2.808ZM114.235 4.232V13H112.779V4.232H114.235ZM120.988 4.072C122.055 4.072 122.919 4.39733 123.58 5.048C124.242 5.688 124.572 6.616 124.572 7.832V13H123.132V8.04C123.132 7.16533 122.914 6.49867 122.476 6.04C122.039 5.57067 121.442 5.336 120.684 5.336C119.916 5.336 119.303 5.576 118.844 6.056C118.396 6.536 118.172 7.23467 118.172 8.152V13H116.716V4.232H118.172V5.48C118.46 5.032 118.85 4.68533 119.34 4.44C119.842 4.19467 120.391 4.072 120.988 4.072ZM133.031 6.52V7.752H126.647V6.52H133.031ZM135.219 8.6C135.219 7.69333 135.401 6.904 135.763 6.232C136.126 5.54933 136.627 5.02133 137.267 4.648C137.918 4.27467 138.659 4.088 139.491 4.088C140.569 4.088 141.454 4.34933 142.147 4.872C142.851 5.39467 143.315 6.12 143.539 7.048H141.971C141.822 6.51467 141.529 6.09333 141.091 5.784C140.665 5.47467 140.131 5.32 139.491 5.32C138.659 5.32 137.987 5.608 137.475 6.184C136.963 6.74933 136.707 7.55467 136.707 8.6C136.707 9.656 136.963 10.472 137.475 11.048C137.987 11.624 138.659 11.912 139.491 11.912C140.131 11.912 140.665 11.7627 141.091 11.464C141.518 11.1653 141.811 10.7387 141.971 10.184H143.539C143.305 11.08 142.835 11.8 142.131 12.344C141.427 12.8773 140.547 13.144 139.491 13.144C138.659 13.144 137.918 12.9573 137.267 12.584C136.627 12.2107 136.126 11.6827 135.763 11C135.401 10.3173 135.219 9.51733 135.219 8.6ZM149.306 13.144C148.485 13.144 147.738 12.9573 147.066 12.584C146.405 12.2107 145.882 11.6827 145.498 11C145.125 10.3067 144.938 9.50667 144.938 8.6C144.938 7.704 145.13 6.91467 145.514 6.232C145.909 5.53867 146.442 5.01067 147.114 4.648C147.786 4.27467 148.538 4.088 149.37 4.088C150.202 4.088 150.954 4.27467 151.626 4.648C152.298 5.01067 152.826 5.53333 153.21 6.216C153.605 6.89867 153.802 7.69333 153.802 8.6C153.802 9.50667 153.599 10.3067 153.194 11C152.799 11.6827 152.261 12.2107 151.578 12.584C150.895 12.9573 150.138 13.144 149.306 13.144ZM149.306 11.864C149.829 11.864 150.319 11.7413 150.778 11.496C151.237 11.2507 151.605 10.8827 151.882 10.392C152.17 9.90133 152.314 9.304 152.314 8.6C152.314 7.896 152.175 7.29867 151.898 6.808C151.621 6.31733 151.258 5.95467 150.81 5.72C150.362 5.47467 149.877 5.352 149.354 5.352C148.821 5.352 148.33 5.47467 147.882 5.72C147.445 5.95467 147.093 6.31733 146.826 6.808C146.559 7.29867 146.426 7.896 146.426 8.6C146.426 9.31467 146.554 9.91733 146.81 10.408C147.077 10.8987 147.429 11.2667 147.866 11.512C148.303 11.7467 148.783 11.864 149.306 11.864ZM157.172 1.16V13H155.716V1.16H157.172ZM163.478 13.144C162.657 13.144 161.91 12.9573 161.238 12.584C160.577 12.2107 160.054 11.6827 159.67 11C159.297 10.3067 159.11 9.50667 159.11 8.6C159.11 7.704 159.302 6.91467 159.686 6.232C160.081 5.53867 160.614 5.01067 161.286 4.648C161.958 4.27467 162.71 4.088 163.542 4.088C164.374 4.088 165.126 4.27467 165.798 4.648C166.47 5.01067 166.998 5.53333 167.382 6.216C167.777 6.89867 167.974 7.69333 167.974 8.6C167.974 9.50667 167.771 10.3067 167.366 11C166.971 11.6827 166.433 12.2107 165.75 12.584C165.067 12.9573 164.31 13.144 163.478 13.144ZM163.478 11.864C164.001 11.864 164.491 11.7413 164.95 11.496C165.409 11.2507 165.777 10.8827 166.054 10.392C166.342 9.90133 166.486 9.304 166.486 8.6C166.486 7.896 166.347 7.29867 166.07 6.808C165.793 6.31733 165.43 5.95467 164.982 5.72C164.534 5.47467 164.049 5.352 163.526 5.352C162.993 5.352 162.502 5.47467 162.054 5.72C161.617 5.95467 161.265 6.31733 160.998 6.808C160.731 7.29867 160.598 7.896 160.598 8.6C160.598 9.31467 160.726 9.91733 160.982 10.408C161.249 10.8987 161.601 11.2667 162.038 11.512C162.475 11.7467 162.955 11.864 163.478 11.864ZM171.344 5.656C171.6 5.15467 171.963 4.76533 172.432 4.488C172.912 4.21067 173.494 4.072 174.176 4.072V5.576H173.792C172.16 5.576 171.344 6.46133 171.344 8.232V13H169.888V4.232H171.344V5.656Z" fill="black"/>
</svg>
