<svg width="210" height="18" viewBox="0 0 210 18" fill="none" xmlns="http://www.w3.org/2000/svg">
<path d="M4.768 13.112C4.032 13.112 3.37067 12.984 2.784 12.728C2.208 12.4613 1.75467 12.0987 1.424 11.64C1.09333 11.1707 0.922667 10.632 0.912 10.024H2.464C2.51733 10.5467 2.73067 10.9893 3.104 11.352C3.488 11.704 4.04267 11.88 4.768 11.88C5.46133 11.88 6.00533 11.7093 6.4 11.368C6.80533 11.016 7.008 10.568 7.008 10.024C7.008 9.59733 6.89067 9.25067 6.656 8.984C6.42133 8.71733 6.128 8.51467 5.776 8.376C5.424 8.23733 4.94933 8.088 4.352 7.928C3.616 7.736 3.024 7.544 2.576 7.352C2.13867 7.16 1.76 6.86133 1.44 6.456C1.13067 6.04 0.976 5.48533 0.976 4.792C0.976 4.184 1.13067 3.64533 1.44 3.176C1.74933 2.70667 2.18133 2.344 2.736 2.088C3.30133 1.832 3.94667 1.704 4.672 1.704C5.71733 1.704 6.57067 1.96533 7.232 2.488C7.904 3.01067 8.28267 3.704 8.368 4.568H6.768C6.71467 4.14133 6.49067 3.768 6.096 3.448C5.70133 3.11733 5.17867 2.952 4.528 2.952C3.92 2.952 3.424 3.112 3.04 3.432C2.656 3.74133 2.464 4.17867 2.464 4.744C2.464 5.14933 2.576 5.48 2.8 5.736C3.03467 5.992 3.31733 6.18933 3.648 6.328C3.98933 6.456 4.464 6.60533 5.072 6.776C5.808 6.97867 6.4 7.18133 6.848 7.384C7.296 7.576 7.68 7.88 8 8.296C8.32 8.70133 8.48 9.256 8.48 9.96C8.48 10.504 8.336 11.016 8.048 11.496C7.76 11.976 7.33333 12.3653 6.768 12.664C6.20267 12.9627 5.536 13.112 4.768 13.112ZM12.3986 5.432V10.6C12.3986 11.0267 12.4893 11.3307 12.6706 11.512C12.852 11.6827 13.1666 11.768 13.6146 11.768H14.6866V13H13.3746C12.564 13 11.956 12.8133 11.5506 12.44C11.1453 12.0667 10.9426 11.4533 10.9426 10.6V5.432H9.80663V4.232H10.9426V2.024H12.3986V4.232H14.6866V5.432H12.3986ZM24.0028 4.232L18.7228 17.128H17.2188L18.9468 12.904L15.4108 4.232H17.0268L19.7788 11.336L22.4988 4.232H24.0028ZM26.9224 1.16V13H25.4664V1.16H26.9224ZM37.4039 8.28C37.4039 8.55733 37.3879 8.85067 37.3559 9.16H30.3479C30.4012 10.024 30.6945 10.7013 31.2279 11.192C31.7719 11.672 32.4279 11.912 33.1959 11.912C33.8252 11.912 34.3479 11.768 34.7639 11.48C35.1905 11.1813 35.4892 10.7867 35.6599 10.296H37.2279C36.9932 11.1387 36.5239 11.8267 35.8199 12.36C35.1159 12.8827 34.2412 13.144 33.1959 13.144C32.3639 13.144 31.6172 12.9573 30.9559 12.584C30.3052 12.2107 29.7932 11.6827 29.4199 11C29.0465 10.3067 28.8599 9.50667 28.8599 8.6C28.8599 7.69333 29.0412 6.89867 29.4039 6.216C29.7665 5.53333 30.2732 5.01067 30.9239 4.648C31.5852 4.27467 32.3425 4.088 33.1959 4.088C34.0279 4.088 34.7639 4.26933 35.4039 4.632C36.0439 4.99467 36.5345 5.496 36.8759 6.136C37.2279 6.76533 37.4039 7.48 37.4039 8.28ZM35.8999 7.976C35.8999 7.42133 35.7772 6.94667 35.5319 6.552C35.2865 6.14667 34.9505 5.84267 34.5239 5.64C34.1079 5.42667 33.6439 5.32 33.1319 5.32C32.3959 5.32 31.7665 5.55467 31.2439 6.024C30.7319 6.49333 30.4385 7.144 30.3639 7.976H35.8999ZM39.7898 13.096C39.5124 13.096 39.2778 13 39.0858 12.808C38.8938 12.616 38.7978 12.3813 38.7978 12.104C38.7978 11.8267 38.8938 11.592 39.0858 11.4C39.2778 11.208 39.5124 11.112 39.7898 11.112C40.0564 11.112 40.2804 11.208 40.4618 11.4C40.6538 11.592 40.7498 11.8267 40.7498 12.104C40.7498 12.3813 40.6538 12.616 40.4618 12.808C40.2804 13 40.0564 13.096 39.7898 13.096ZM39.7898 6.248C39.5124 6.248 39.2778 6.152 39.0858 5.96C38.8938 5.768 38.7978 5.53333 38.7978 5.256C38.7978 4.97867 38.8938 4.744 39.0858 4.552C39.2778 4.36 39.5124 4.264 39.7898 4.264C40.0564 4.264 40.2804 4.36 40.4618 4.552C40.6538 4.744 40.7498 4.97867 40.7498 5.256C40.7498 5.53333 40.6538 5.768 40.4618 5.96C40.2804 6.152 40.0564 6.248 39.7898 6.248ZM58.6776 4.232L55.9416 13H54.4376L52.3256 6.04L50.2136 13H48.7096L45.9576 4.232H47.4456L49.4616 11.592L51.6376 4.232H53.1256L55.2536 11.608L57.2376 4.232H58.6776ZM59.5786 8.584C59.5786 7.688 59.76 6.904 60.1226 6.232C60.4853 5.54933 60.9813 5.02133 61.6106 4.648C62.2506 4.27467 62.96 4.088 63.7386 4.088C64.5066 4.088 65.1733 4.25333 65.7386 4.584C66.304 4.91467 66.7253 5.33067 67.0026 5.832V4.232H68.4746V13H67.0026V11.368C66.7146 11.88 66.2826 12.3067 65.7066 12.648C65.1413 12.9787 64.48 13.144 63.7226 13.144C62.944 13.144 62.24 12.952 61.6106 12.568C60.9813 12.184 60.4853 11.6453 60.1226 10.952C59.76 10.2587 59.5786 9.46933 59.5786 8.584ZM67.0026 8.6C67.0026 7.93867 66.8693 7.36267 66.6026 6.872C66.336 6.38133 65.9733 6.008 65.5146 5.752C65.0666 5.48533 64.5706 5.352 64.0266 5.352C63.4826 5.352 62.9866 5.48 62.5386 5.736C62.0906 5.992 61.7333 6.36533 61.4666 6.856C61.2 7.34667 61.0666 7.92267 61.0666 8.584C61.0666 9.256 61.2 9.84267 61.4666 10.344C61.7333 10.8347 62.0906 11.2133 62.5386 11.48C62.9866 11.736 63.4826 11.864 64.0266 11.864C64.5706 11.864 65.0666 11.736 65.5146 11.48C65.9733 11.2133 66.336 10.8347 66.6026 10.344C66.8693 9.84267 67.0026 9.26133 67.0026 8.6ZM72.3911 5.656C72.6471 5.15467 73.0098 4.76533 73.4791 4.488C73.9591 4.21067 74.5405 4.072 75.2231 4.072V5.576H74.8391C73.2071 5.576 72.3911 6.46133 72.3911 8.232V13H70.9351V4.232H72.3911V5.656ZM81.1759 4.072C82.2425 4.072 83.1065 4.39733 83.7679 5.048C84.4292 5.688 84.7599 6.616 84.7599 7.832V13H83.3199V8.04C83.3199 7.16533 83.1012 6.49867 82.6639 6.04C82.2265 5.57067 81.6292 5.336 80.8719 5.336C80.1039 5.336 79.4905 5.576 79.0319 6.056C78.5839 6.536 78.3599 7.23467 78.3599 8.152V13H76.9039V4.232H78.3599V5.48C78.6479 5.032 79.0372 4.68533 79.5279 4.44C80.0292 4.19467 80.5785 4.072 81.1759 4.072ZM87.8903 2.808C87.6129 2.808 87.3783 2.712 87.1863 2.52C86.9943 2.328 86.8983 2.09333 86.8983 1.816C86.8983 1.53867 86.9943 1.304 87.1863 1.112C87.3783 0.919999 87.6129 0.823999 87.8903 0.823999C88.1569 0.823999 88.3809 0.919999 88.5623 1.112C88.7543 1.304 88.8503 1.53867 88.8503 1.816C88.8503 2.09333 88.7543 2.328 88.5623 2.52C88.3809 2.712 88.1569 2.808 87.8903 2.808ZM88.5943 4.232V13H87.1383V4.232H88.5943ZM95.3478 4.072C96.4144 4.072 97.2784 4.39733 97.9398 5.048C98.6011 5.688 98.9318 6.616 98.9318 7.832V13H97.4918V8.04C97.4918 7.16533 97.2731 6.49867 96.8358 6.04C96.3984 5.57067 95.8011 5.336 95.0438 5.336C94.2758 5.336 93.6624 5.576 93.2038 6.056C92.7558 6.536 92.5318 7.23467 92.5318 8.152V13H91.0758V4.232H92.5318V5.48C92.8198 5.032 93.2091 4.68533 93.6998 4.44C94.2011 4.19467 94.7504 4.072 95.3478 4.072ZM104.926 4.088C105.683 4.088 106.345 4.25333 106.91 4.584C107.486 4.91467 107.913 5.33067 108.19 5.832V4.232H109.662V13.192C109.662 13.992 109.491 14.7013 109.15 15.32C108.809 15.9493 108.318 16.44 107.678 16.792C107.049 17.144 106.313 17.32 105.47 17.32C104.318 17.32 103.358 17.048 102.59 16.504C101.822 15.96 101.369 15.2187 101.23 14.28H102.67C102.83 14.8133 103.161 15.24 103.662 15.56C104.163 15.8907 104.766 16.056 105.47 16.056C106.27 16.056 106.921 15.8053 107.422 15.304C107.934 14.8027 108.19 14.0987 108.19 13.192V11.352C107.902 11.864 107.475 12.2907 106.91 12.632C106.345 12.9733 105.683 13.144 104.926 13.144C104.147 13.144 103.438 12.952 102.798 12.568C102.169 12.184 101.673 11.6453 101.31 10.952C100.947 10.2587 100.766 9.46933 100.766 8.584C100.766 7.688 100.947 6.904 101.31 6.232C101.673 5.54933 102.169 5.02133 102.798 4.648C103.438 4.27467 104.147 4.088 104.926 4.088ZM108.19 8.6C108.19 7.93867 108.057 7.36267 107.79 6.872C107.523 6.38133 107.161 6.008 106.702 5.752C106.254 5.48533 105.758 5.352 105.214 5.352C104.67 5.352 104.174 5.48 103.726 5.736C103.278 5.992 102.921 6.36533 102.654 6.856C102.387 7.34667 102.254 7.92267 102.254 8.584C102.254 9.256 102.387 9.84267 102.654 10.344C102.921 10.8347 103.278 11.2133 103.726 11.48C104.174 11.736 104.67 11.864 105.214 11.864C105.758 11.864 106.254 11.736 106.702 11.48C107.161 11.2133 107.523 10.8347 107.79 10.344C108.057 9.84267 108.19 9.26133 108.19 8.6ZM118.203 6.52V7.752H111.819V6.52H118.203ZM131.479 4.072C132.162 4.072 132.77 4.216 133.303 4.504C133.836 4.78133 134.258 5.20267 134.567 5.768C134.876 6.33333 135.031 7.02133 135.031 7.832V13H133.591V8.04C133.591 7.16533 133.372 6.49867 132.935 6.04C132.508 5.57067 131.927 5.336 131.191 5.336C130.434 5.336 129.831 5.58133 129.383 6.072C128.935 6.552 128.711 7.25067 128.711 8.168V13H127.271V8.04C127.271 7.16533 127.052 6.49867 126.615 6.04C126.188 5.57067 125.607 5.336 124.871 5.336C124.114 5.336 123.511 5.58133 123.063 6.072C122.615 6.552 122.391 7.25067 122.391 8.168V13H120.935V4.232H122.391V5.496C122.679 5.03733 123.063 4.68533 123.543 4.44C124.034 4.19467 124.572 4.072 125.159 4.072C125.895 4.072 126.546 4.23733 127.111 4.568C127.676 4.89867 128.098 5.384 128.375 6.024C128.62 5.40533 129.026 4.92533 129.591 4.584C130.156 4.24267 130.786 4.072 131.479 4.072ZM136.876 8.584C136.876 7.688 137.057 6.904 137.42 6.232C137.782 5.54933 138.278 5.02133 138.908 4.648C139.548 4.27467 140.257 4.088 141.036 4.088C141.804 4.088 142.47 4.25333 143.036 4.584C143.601 4.91467 144.022 5.33067 144.3 5.832V4.232H145.772V13H144.3V11.368C144.012 11.88 143.58 12.3067 143.004 12.648C142.438 12.9787 141.777 13.144 141.02 13.144C140.241 13.144 139.537 12.952 138.908 12.568C138.278 12.184 137.782 11.6453 137.42 10.952C137.057 10.2587 136.876 9.46933 136.876 8.584ZM144.3 8.6C144.3 7.93867 144.166 7.36267 143.9 6.872C143.633 6.38133 143.27 6.008 142.812 5.752C142.364 5.48533 141.868 5.352 141.324 5.352C140.78 5.352 140.284 5.48 139.836 5.736C139.388 5.992 139.03 6.36533 138.764 6.856C138.497 7.34667 138.364 7.92267 138.364 8.584C138.364 9.256 138.497 9.84267 138.764 10.344C139.03 10.8347 139.388 11.2133 139.836 11.48C140.284 11.736 140.78 11.864 141.324 11.864C141.868 11.864 142.364 11.736 142.812 11.48C143.27 11.2133 143.633 10.8347 143.9 10.344C144.166 9.84267 144.3 9.26133 144.3 8.6ZM148.984 2.808C148.707 2.808 148.472 2.712 148.28 2.52C148.088 2.328 147.992 2.09333 147.992 1.816C147.992 1.53867 148.088 1.304 148.28 1.112C148.472 0.919999 148.707 0.823999 148.984 0.823999C149.251 0.823999 149.475 0.919999 149.656 1.112C149.848 1.304 149.944 1.53867 149.944 1.816C149.944 2.09333 149.848 2.328 149.656 2.52C149.475 2.712 149.251 2.808 148.984 2.808ZM149.688 4.232V13H148.232V4.232H149.688ZM156.442 4.072C157.508 4.072 158.372 4.39733 159.034 5.048C159.695 5.688 160.026 6.616 160.026 7.832V13H158.586V8.04C158.586 7.16533 158.367 6.49867 157.93 6.04C157.492 5.57067 156.895 5.336 156.138 5.336C155.37 5.336 154.756 5.576 154.298 6.056C153.85 6.536 153.626 7.23467 153.626 8.152V13H152.17V4.232H153.626V5.48C153.914 5.032 154.303 4.68533 154.794 4.44C155.295 4.19467 155.844 4.072 156.442 4.072ZM168.484 6.52V7.752H162.1V6.52H168.484ZM170.672 8.6C170.672 7.69333 170.854 6.904 171.216 6.232C171.579 5.54933 172.08 5.02133 172.72 4.648C173.371 4.27467 174.112 4.088 174.944 4.088C176.022 4.088 176.907 4.34933 177.6 4.872C178.304 5.39467 178.768 6.12 178.992 7.048H177.424C177.275 6.51467 176.982 6.09333 176.544 5.784C176.118 5.47467 175.584 5.32 174.944 5.32C174.112 5.32 173.44 5.608 172.928 6.184C172.416 6.74933 172.16 7.55467 172.16 8.6C172.16 9.656 172.416 10.472 172.928 11.048C173.44 11.624 174.112 11.912 174.944 11.912C175.584 11.912 176.118 11.7627 176.544 11.464C176.971 11.1653 177.264 10.7387 177.424 10.184H178.992C178.758 11.08 178.288 11.8 177.584 12.344C176.88 12.8773 176 13.144 174.944 13.144C174.112 13.144 173.371 12.9573 172.72 12.584C172.08 12.2107 171.579 11.6827 171.216 11C170.854 10.3173 170.672 9.51733 170.672 8.6ZM184.759 13.144C183.938 13.144 183.191 12.9573 182.519 12.584C181.858 12.2107 181.335 11.6827 180.951 11C180.578 10.3067 180.391 9.50667 180.391 8.6C180.391 7.704 180.583 6.91467 180.967 6.232C181.362 5.53867 181.895 5.01067 182.567 4.648C183.239 4.27467 183.991 4.088 184.823 4.088C185.655 4.088 186.407 4.27467 187.079 4.648C187.751 5.01067 188.279 5.53333 188.663 6.216C189.058 6.89867 189.255 7.69333 189.255 8.6C189.255 9.50667 189.052 10.3067 188.647 11C188.252 11.6827 187.714 12.2107 187.031 12.584C186.348 12.9573 185.591 13.144 184.759 13.144ZM184.759 11.864C185.282 11.864 185.772 11.7413 186.231 11.496C186.69 11.2507 187.058 10.8827 187.335 10.392C187.623 9.90133 187.767 9.304 187.767 8.6C187.767 7.896 187.628 7.29867 187.351 6.808C187.074 6.31733 186.711 5.95467 186.263 5.72C185.815 5.47467 185.33 5.352 184.807 5.352C184.274 5.352 183.783 5.47467 183.335 5.72C182.898 5.95467 182.546 6.31733 182.279 6.808C182.012 7.29867 181.879 7.896 181.879 8.6C181.879 9.31467 182.007 9.91733 182.263 10.408C182.53 10.8987 182.882 11.2667 183.319 11.512C183.756 11.7467 184.236 11.864 184.759 11.864ZM192.626 1.16V13H191.17V1.16H192.626ZM198.931 13.144C198.11 13.144 197.363 12.9573 196.691 12.584C196.03 12.2107 195.507 11.6827 195.123 11C194.75 10.3067 194.563 9.50667 194.563 8.6C194.563 7.704 194.755 6.91467 195.139 6.232C195.534 5.53867 196.067 5.01067 196.739 4.648C197.411 4.27467 198.163 4.088 198.995 4.088C199.827 4.088 200.579 4.27467 201.251 4.648C201.923 5.01067 202.451 5.53333 202.835 6.216C203.23 6.89867 203.427 7.69333 203.427 8.6C203.427 9.50667 203.224 10.3067 202.819 11C202.424 11.6827 201.886 12.2107 201.203 12.584C200.52 12.9573 199.763 13.144 198.931 13.144ZM198.931 11.864C199.454 11.864 199.944 11.7413 200.403 11.496C200.862 11.2507 201.23 10.8827 201.507 10.392C201.795 9.90133 201.939 9.304 201.939 8.6C201.939 7.896 201.8 7.29867 201.523 6.808C201.246 6.31733 200.883 5.95467 200.435 5.72C199.987 5.47467 199.502 5.352 198.979 5.352C198.446 5.352 197.955 5.47467 197.507 5.72C197.07 5.95467 196.718 6.31733 196.451 6.808C196.184 7.29867 196.051 7.896 196.051 8.6C196.051 9.31467 196.179 9.91733 196.435 10.408C196.702 10.8987 197.054 11.2667 197.491 11.512C197.928 11.7467 198.408 11.864 198.931 11.864ZM206.797 5.656C207.053 5.15467 207.416 4.76533 207.885 4.488C208.365 4.21067 208.947 4.072 209.629 4.072V5.576H209.245C207.613 5.576 206.797 6.46133 206.797 8.232V13H205.341V4.232H206.797V5.656Z" fill="black"/>
</svg>
