<svg width="196" height="18" viewBox="0 0 196 18" fill="none" xmlns="http://www.w3.org/2000/svg">
<path d="M4.768 13.112C4.032 13.112 3.37067 12.984 2.784 12.728C2.208 12.4613 1.75467 12.0987 1.424 11.64C1.09333 11.1707 0.922667 10.632 0.912 10.024H2.464C2.51733 10.5467 2.73067 10.9893 3.104 11.352C3.488 11.704 4.04267 11.88 4.768 11.88C5.46133 11.88 6.00533 11.7093 6.4 11.368C6.80533 11.016 7.008 10.568 7.008 10.024C7.008 9.59733 6.89067 9.25067 6.656 8.984C6.42133 8.71733 6.128 8.51467 5.776 8.376C5.424 8.23733 4.94933 8.088 4.352 7.928C3.616 7.736 3.024 7.544 2.576 7.352C2.13867 7.16 1.76 6.86133 1.44 6.456C1.13067 6.04 0.976 5.48533 0.976 4.792C0.976 4.184 1.13067 3.64533 1.44 3.176C1.74933 2.70667 2.18133 2.344 2.736 2.088C3.30133 1.832 3.94667 1.704 4.672 1.704C5.71733 1.704 6.57067 1.96533 7.232 2.488C7.904 3.01067 8.28267 3.704 8.368 4.568H6.768C6.71467 4.14133 6.49067 3.768 6.096 3.448C5.70133 3.11733 5.17867 2.952 4.528 2.952C3.92 2.952 3.424 3.112 3.04 3.432C2.656 3.74133 2.464 4.17867 2.464 4.744C2.464 5.14933 2.576 5.48 2.8 5.736C3.03467 5.992 3.31733 6.18933 3.648 6.328C3.98933 6.456 4.464 6.60533 5.072 6.776C5.808 6.97867 6.4 7.18133 6.848 7.384C7.296 7.576 7.68 7.88 8 8.296C8.32 8.70133 8.48 9.256 8.48 9.96C8.48 10.504 8.336 11.016 8.048 11.496C7.76 11.976 7.33333 12.3653 6.768 12.664C6.20267 12.9627 5.536 13.112 4.768 13.112ZM12.3986 5.432V10.6C12.3986 11.0267 12.4893 11.3307 12.6706 11.512C12.852 11.6827 13.1666 11.768 13.6146 11.768H14.6866V13H13.3746C12.564 13 11.956 12.8133 11.5506 12.44C11.1453 12.0667 10.9426 11.4533 10.9426 10.6V5.432H9.80663V4.232H10.9426V2.024H12.3986V4.232H14.6866V5.432H12.3986ZM24.0028 4.232L18.7228 17.128H17.2188L18.9468 12.904L15.4108 4.232H17.0268L19.7788 11.336L22.4988 4.232H24.0028ZM26.9224 1.16V13H25.4664V1.16H26.9224ZM37.4039 8.28C37.4039 8.55733 37.3879 8.85067 37.3559 9.16H30.3479C30.4012 10.024 30.6945 10.7013 31.2279 11.192C31.7719 11.672 32.4279 11.912 33.1959 11.912C33.8252 11.912 34.3479 11.768 34.7639 11.48C35.1905 11.1813 35.4892 10.7867 35.6599 10.296H37.2279C36.9932 11.1387 36.5239 11.8267 35.8199 12.36C35.1159 12.8827 34.2412 13.144 33.1959 13.144C32.3639 13.144 31.6172 12.9573 30.9559 12.584C30.3052 12.2107 29.7932 11.6827 29.4199 11C29.0465 10.3067 28.8599 9.50667 28.8599 8.6C28.8599 7.69333 29.0412 6.89867 29.4039 6.216C29.7665 5.53333 30.2732 5.01067 30.9239 4.648C31.5852 4.27467 32.3425 4.088 33.1959 4.088C34.0279 4.088 34.7639 4.26933 35.4039 4.632C36.0439 4.99467 36.5345 5.496 36.8759 6.136C37.2279 6.76533 37.4039 7.48 37.4039 8.28ZM35.8999 7.976C35.8999 7.42133 35.7772 6.94667 35.5319 6.552C35.2865 6.14667 34.9505 5.84267 34.5239 5.64C34.1079 5.42667 33.6439 5.32 33.1319 5.32C32.3959 5.32 31.7665 5.55467 31.2439 6.024C30.7319 6.49333 30.4385 7.144 30.3639 7.976H35.8999ZM39.7898 13.096C39.5124 13.096 39.2778 13 39.0858 12.808C38.8938 12.616 38.7978 12.3813 38.7978 12.104C38.7978 11.8267 38.8938 11.592 39.0858 11.4C39.2778 11.208 39.5124 11.112 39.7898 11.112C40.0564 11.112 40.2804 11.208 40.4618 11.4C40.6538 11.592 40.7498 11.8267 40.7498 12.104C40.7498 12.3813 40.6538 12.616 40.4618 12.808C40.2804 13 40.0564 13.096 39.7898 13.096ZM39.7898 6.248C39.5124 6.248 39.2778 6.152 39.0858 5.96C38.8938 5.768 38.7978 5.53333 38.7978 5.256C38.7978 4.97867 38.8938 4.744 39.0858 4.552C39.2778 4.36 39.5124 4.264 39.7898 4.264C40.0564 4.264 40.2804 4.36 40.4618 4.552C40.6538 4.744 40.7498 4.97867 40.7498 5.256C40.7498 5.53333 40.6538 5.768 40.4618 5.96C40.2804 6.152 40.0564 6.248 39.7898 6.248ZM48.4536 5.848C48.7416 5.34667 49.1683 4.93067 49.7336 4.6C50.3096 4.25867 50.9763 4.088 51.7336 4.088C52.5123 4.088 53.2163 4.27467 53.8456 4.648C54.4856 5.02133 54.987 5.54933 55.3496 6.232C55.7123 6.904 55.8936 7.688 55.8936 8.584C55.8936 9.46933 55.7123 10.2587 55.3496 10.952C54.987 11.6453 54.4856 12.184 53.8456 12.568C53.2163 12.952 52.5123 13.144 51.7336 13.144C50.987 13.144 50.3256 12.9787 49.7496 12.648C49.1843 12.3067 48.7523 11.8853 48.4536 11.384V17.16H46.9976V4.232H48.4536V5.848ZM54.4056 8.584C54.4056 7.92267 54.2723 7.34667 54.0056 6.856C53.739 6.36533 53.3763 5.992 52.9176 5.736C52.4696 5.48 51.9736 5.352 51.4296 5.352C50.8963 5.352 50.4003 5.48533 49.9416 5.752C49.4936 6.008 49.131 6.38667 48.8536 6.888C48.587 7.37867 48.4536 7.94933 48.4536 8.6C48.4536 9.26133 48.587 9.84267 48.8536 10.344C49.131 10.8347 49.4936 11.2133 49.9416 11.48C50.4003 11.736 50.8963 11.864 51.4296 11.864C51.9736 11.864 52.4696 11.736 52.9176 11.48C53.3763 11.2133 53.739 10.8347 54.0056 10.344C54.2723 9.84267 54.4056 9.256 54.4056 8.584ZM59.2661 5.656C59.5221 5.15467 59.8848 4.76533 60.3541 4.488C60.8341 4.21067 61.4155 4.072 62.0981 4.072V5.576H61.7141C60.0821 5.576 59.2661 6.46133 59.2661 8.232V13H57.8101V4.232H59.2661V5.656ZM64.5309 2.808C64.2535 2.808 64.0189 2.712 63.8269 2.52C63.6349 2.328 63.5389 2.09333 63.5389 1.816C63.5389 1.53867 63.6349 1.304 63.8269 1.112C64.0189 0.919999 64.2535 0.823999 64.5309 0.823999C64.7975 0.823999 65.0215 0.919999 65.2029 1.112C65.3949 1.304 65.4909 1.53867 65.4909 1.816C65.4909 2.09333 65.3949 2.328 65.2029 2.52C65.0215 2.712 64.7975 2.808 64.5309 2.808ZM65.2349 4.232V13H63.7789V4.232H65.2349ZM78.2604 4.072C78.943 4.072 79.551 4.216 80.0844 4.504C80.6177 4.78133 81.039 5.20267 81.3484 5.768C81.6577 6.33333 81.8124 7.02133 81.8124 7.832V13H80.3724V8.04C80.3724 7.16533 80.1537 6.49867 79.7164 6.04C79.2897 5.57067 78.7084 5.336 77.9724 5.336C77.215 5.336 76.6124 5.58133 76.1644 6.072C75.7164 6.552 75.4924 7.25067 75.4924 8.168V13H74.0524V8.04C74.0524 7.16533 73.8337 6.49867 73.3964 6.04C72.9697 5.57067 72.3884 5.336 71.6524 5.336C70.895 5.336 70.2924 5.58133 69.8444 6.072C69.3964 6.552 69.1724 7.25067 69.1724 8.168V13H67.7164V4.232H69.1724V5.496C69.4604 5.03733 69.8444 4.68533 70.3244 4.44C70.815 4.19467 71.3537 4.072 71.9404 4.072C72.6764 4.072 73.327 4.23733 73.8924 4.568C74.4577 4.89867 74.879 5.384 75.1564 6.024C75.4017 5.40533 75.807 4.92533 76.3724 4.584C76.9377 4.24267 77.567 4.072 78.2604 4.072ZM83.6568 8.584C83.6568 7.688 83.8381 6.904 84.2008 6.232C84.5634 5.54933 85.0594 5.02133 85.6888 4.648C86.3288 4.27467 87.0381 4.088 87.8168 4.088C88.5848 4.088 89.2514 4.25333 89.8168 4.584C90.3821 4.91467 90.8034 5.33067 91.0808 5.832V4.232H92.5528V13H91.0808V11.368C90.7928 11.88 90.3608 12.3067 89.7848 12.648C89.2194 12.9787 88.5581 13.144 87.8008 13.144C87.0221 13.144 86.3181 12.952 85.6888 12.568C85.0594 12.184 84.5634 11.6453 84.2008 10.952C83.8381 10.2587 83.6568 9.46933 83.6568 8.584ZM91.0808 8.6C91.0808 7.93867 90.9474 7.36267 90.6808 6.872C90.4141 6.38133 90.0514 6.008 89.5928 5.752C89.1448 5.48533 88.6488 5.352 88.1048 5.352C87.5608 5.352 87.0648 5.48 86.6168 5.736C86.1688 5.992 85.8114 6.36533 85.5448 6.856C85.2781 7.34667 85.1448 7.92267 85.1448 8.584C85.1448 9.256 85.2781 9.84267 85.5448 10.344C85.8114 10.8347 86.1688 11.2133 86.6168 11.48C87.0648 11.736 87.5608 11.864 88.1048 11.864C88.6488 11.864 89.1448 11.736 89.5928 11.48C90.0514 11.2133 90.4141 10.8347 90.6808 10.344C90.9474 9.84267 91.0808 9.26133 91.0808 8.6ZM96.4693 5.656C96.7253 5.15467 97.0879 4.76533 97.5573 4.488C98.0373 4.21067 98.6186 4.072 99.3013 4.072V5.576H98.9173C97.2853 5.576 96.4693 6.46133 96.4693 8.232V13H95.0133V4.232H96.4693V5.656ZM108.534 4.232L103.254 17.128H101.75L103.478 12.904L99.942 4.232H101.558L104.31 11.336L107.03 4.232H108.534ZM116.078 6.52V7.752H109.694V6.52H116.078ZM120.586 5.432V10.6C120.586 11.0267 120.677 11.3307 120.858 11.512C121.039 11.6827 121.354 11.768 121.802 11.768H122.874V13H121.562C120.751 13 120.143 12.8133 119.738 12.44C119.333 12.0667 119.13 11.4533 119.13 10.6V5.432H117.994V4.232H119.13V2.024H120.586V4.232H122.874V5.432H120.586ZM132.638 8.28C132.638 8.55733 132.622 8.85067 132.59 9.16H125.582C125.636 10.024 125.929 10.7013 126.462 11.192C127.006 11.672 127.662 11.912 128.43 11.912C129.06 11.912 129.582 11.768 129.998 11.48C130.425 11.1813 130.724 10.7867 130.894 10.296H132.462C132.228 11.1387 131.758 11.8267 131.054 12.36C130.35 12.8827 129.476 13.144 128.43 13.144C127.598 13.144 126.852 12.9573 126.19 12.584C125.54 12.2107 125.028 11.6827 124.654 11C124.281 10.3067 124.094 9.50667 124.094 8.6C124.094 7.69333 124.276 6.89867 124.638 6.216C125.001 5.53333 125.508 5.01067 126.158 4.648C126.82 4.27467 127.577 4.088 128.43 4.088C129.262 4.088 129.998 4.26933 130.638 4.632C131.278 4.99467 131.769 5.496 132.11 6.136C132.462 6.76533 132.638 7.48 132.638 8.28ZM131.134 7.976C131.134 7.42133 131.012 6.94667 130.766 6.552C130.521 6.14667 130.185 5.84267 129.758 5.64C129.342 5.42667 128.878 5.32 128.366 5.32C127.63 5.32 127.001 5.55467 126.478 6.024C125.966 6.49333 125.673 7.144 125.598 7.976H131.134ZM139.136 13L137.056 9.736L135.056 13H133.536L136.368 8.648L133.536 4.232H135.184L137.264 7.48L139.248 4.232H140.768L137.952 8.568L140.784 13H139.136ZM143.992 5.432V10.6C143.992 11.0267 144.083 11.3307 144.264 11.512C144.446 11.6827 144.76 11.768 145.208 11.768H146.28V13H144.968C144.158 13 143.55 12.8133 143.144 12.44C142.739 12.0667 142.536 11.4533 142.536 10.6V5.432H141.4V4.232H142.536V2.024H143.992V4.232H146.28V5.432H143.992ZM154.125 6.52V7.752H147.741V6.52H154.125ZM156.313 8.6C156.313 7.69333 156.494 6.904 156.857 6.232C157.22 5.54933 157.721 5.02133 158.361 4.648C159.012 4.27467 159.753 4.088 160.585 4.088C161.662 4.088 162.548 4.34933 163.241 4.872C163.945 5.39467 164.409 6.12 164.633 7.048H163.065C162.916 6.51467 162.622 6.09333 162.185 5.784C161.758 5.47467 161.225 5.32 160.585 5.32C159.753 5.32 159.081 5.608 158.569 6.184C158.057 6.74933 157.801 7.55467 157.801 8.6C157.801 9.656 158.057 10.472 158.569 11.048C159.081 11.624 159.753 11.912 160.585 11.912C161.225 11.912 161.758 11.7627 162.185 11.464C162.612 11.1653 162.905 10.7387 163.065 10.184H164.633C164.398 11.08 163.929 11.8 163.225 12.344C162.521 12.8773 161.641 13.144 160.585 13.144C159.753 13.144 159.012 12.9573 158.361 12.584C157.721 12.2107 157.22 11.6827 156.857 11C156.494 10.3173 156.313 9.51733 156.313 8.6ZM170.4 13.144C169.578 13.144 168.832 12.9573 168.16 12.584C167.498 12.2107 166.976 11.6827 166.592 11C166.218 10.3067 166.032 9.50667 166.032 8.6C166.032 7.704 166.224 6.91467 166.608 6.232C167.002 5.53867 167.536 5.01067 168.208 4.648C168.88 4.27467 169.632 4.088 170.464 4.088C171.296 4.088 172.048 4.27467 172.72 4.648C173.392 5.01067 173.92 5.53333 174.304 6.216C174.698 6.89867 174.896 7.69333 174.896 8.6C174.896 9.50667 174.693 10.3067 174.288 11C173.893 11.6827 173.354 12.2107 172.672 12.584C171.989 12.9573 171.232 13.144 170.4 13.144ZM170.4 11.864C170.922 11.864 171.413 11.7413 171.872 11.496C172.33 11.2507 172.698 10.8827 172.976 10.392C173.264 9.90133 173.408 9.304 173.408 8.6C173.408 7.896 173.269 7.29867 172.992 6.808C172.714 6.31733 172.352 5.95467 171.904 5.72C171.456 5.47467 170.97 5.352 170.448 5.352C169.914 5.352 169.424 5.47467 168.976 5.72C168.538 5.95467 168.186 6.31733 167.92 6.808C167.653 7.29867 167.52 7.896 167.52 8.6C167.52 9.31467 167.648 9.91733 167.904 10.408C168.17 10.8987 168.522 11.2667 168.96 11.512C169.397 11.7467 169.877 11.864 170.4 11.864ZM178.266 1.16V13H176.81V1.16H178.266ZM184.572 13.144C183.75 13.144 183.004 12.9573 182.332 12.584C181.67 12.2107 181.148 11.6827 180.764 11C180.39 10.3067 180.204 9.50667 180.204 8.6C180.204 7.704 180.396 6.91467 180.78 6.232C181.174 5.53867 181.708 5.01067 182.38 4.648C183.052 4.27467 183.804 4.088 184.636 4.088C185.468 4.088 186.22 4.27467 186.892 4.648C187.564 5.01067 188.092 5.53333 188.476 6.216C188.87 6.89867 189.068 7.69333 189.068 8.6C189.068 9.50667 188.865 10.3067 188.46 11C188.065 11.6827 187.526 12.2107 186.844 12.584C186.161 12.9573 185.404 13.144 184.572 13.144ZM184.572 11.864C185.094 11.864 185.585 11.7413 186.044 11.496C186.502 11.2507 186.87 10.8827 187.148 10.392C187.436 9.90133 187.58 9.304 187.58 8.6C187.58 7.896 187.441 7.29867 187.164 6.808C186.886 6.31733 186.524 5.95467 186.076 5.72C185.628 5.47467 185.142 5.352 184.62 5.352C184.086 5.352 183.596 5.47467 183.148 5.72C182.71 5.95467 182.358 6.31733 182.092 6.808C181.825 7.29867 181.692 7.896 181.692 8.6C181.692 9.31467 181.82 9.91733 182.076 10.408C182.342 10.8987 182.694 11.2667 183.132 11.512C183.569 11.7467 184.049 11.864 184.572 11.864ZM192.438 5.656C192.694 5.15467 193.057 4.76533 193.526 4.488C194.006 4.21067 194.587 4.072 195.27 4.072V5.576H194.886C193.254 5.576 192.438 6.46133 192.438 8.232V13H190.982V4.232H192.438V5.656Z" fill="black"/>
</svg>
