<svg width="158" height="18" viewBox="0 0 158 18" fill="none" xmlns="http://www.w3.org/2000/svg">
<path d="M4.768 13.112C4.032 13.112 3.37067 12.984 2.784 12.728C2.208 12.4613 1.75467 12.0987 1.424 11.64C1.09333 11.1707 0.922667 10.632 0.912 10.024H2.464C2.51733 10.5467 2.73067 10.9893 3.104 11.352C3.488 11.704 4.04267 11.88 4.768 11.88C5.46133 11.88 6.00533 11.7093 6.4 11.368C6.80533 11.016 7.008 10.568 7.008 10.024C7.008 9.59733 6.89067 9.25067 6.656 8.984C6.42133 8.71733 6.128 8.51467 5.776 8.376C5.424 8.23733 4.94933 8.088 4.352 7.928C3.616 7.736 3.024 7.544 2.576 7.352C2.13867 7.16 1.76 6.86133 1.44 6.456C1.13067 6.04 0.976 5.48533 0.976 4.792C0.976 4.184 1.13067 3.64533 1.44 3.176C1.74933 2.70667 2.18133 2.344 2.736 2.088C3.30133 1.832 3.94667 1.704 4.672 1.704C5.71733 1.704 6.57067 1.96533 7.232 2.488C7.904 3.01067 8.28267 3.704 8.368 4.568H6.768C6.71467 4.14133 6.49067 3.768 6.096 3.448C5.70133 3.11733 5.17867 2.952 4.528 2.952C3.92 2.952 3.424 3.112 3.04 3.432C2.656 3.74133 2.464 4.17867 2.464 4.744C2.464 5.14933 2.576 5.48 2.8 5.736C3.03467 5.992 3.31733 6.18933 3.648 6.328C3.98933 6.456 4.464 6.60533 5.072 6.776C5.808 6.97867 6.4 7.18133 6.848 7.384C7.296 7.576 7.68 7.88 8 8.296C8.32 8.70133 8.48 9.256 8.48 9.96C8.48 10.504 8.336 11.016 8.048 11.496C7.76 11.976 7.33333 12.3653 6.768 12.664C6.20267 12.9627 5.536 13.112 4.768 13.112ZM12.3986 5.432V10.6C12.3986 11.0267 12.4893 11.3307 12.6706 11.512C12.852 11.6827 13.1666 11.768 13.6146 11.768H14.6866V13H13.3746C12.564 13 11.956 12.8133 11.5506 12.44C11.1453 12.0667 10.9426 11.4533 10.9426 10.6V5.432H9.80663V4.232H10.9426V2.024H12.3986V4.232H14.6866V5.432H12.3986ZM24.0028 4.232L18.7228 17.128H17.2188L18.9468 12.904L15.4108 4.232H17.0268L19.7788 11.336L22.4988 4.232H24.0028ZM26.9224 1.16V13H25.4664V1.16H26.9224ZM37.4039 8.28C37.4039 8.55733 37.3879 8.85067 37.3559 9.16H30.3479C30.4012 10.024 30.6945 10.7013 31.2279 11.192C31.7719 11.672 32.4279 11.912 33.1959 11.912C33.8252 11.912 34.3479 11.768 34.7639 11.48C35.1905 11.1813 35.4892 10.7867 35.6599 10.296H37.2279C36.9932 11.1387 36.5239 11.8267 35.8199 12.36C35.1159 12.8827 34.2412 13.144 33.1959 13.144C32.3639 13.144 31.6172 12.9573 30.9559 12.584C30.3052 12.2107 29.7932 11.6827 29.4199 11C29.0465 10.3067 28.8599 9.50667 28.8599 8.6C28.8599 7.69333 29.0412 6.89867 29.4039 6.216C29.7665 5.53333 30.2732 5.01067 30.9239 4.648C31.5852 4.27467 32.3425 4.088 33.1959 4.088C34.0279 4.088 34.7639 4.26933 35.4039 4.632C36.0439 4.99467 36.5345 5.496 36.8759 6.136C37.2279 6.76533 37.4039 7.48 37.4039 8.28ZM35.8999 7.976C35.8999 7.42133 35.7772 6.94667 35.5319 6.552C35.2865 6.14667 34.9505 5.84267 34.5239 5.64C34.1079 5.42667 33.6439 5.32 33.1319 5.32C32.3959 5.32 31.7665 5.55467 31.2439 6.024C30.7319 6.49333 30.4385 7.144 30.3639 7.976H35.8999ZM39.7898 13.096C39.5124 13.096 39.2778 13 39.0858 12.808C38.8938 12.616 38.7978 12.3813 38.7978 12.104C38.7978 11.8267 38.8938 11.592 39.0858 11.4C39.2778 11.208 39.5124 11.112 39.7898 11.112C40.0564 11.112 40.2804 11.208 40.4618 11.4C40.6538 11.592 40.7498 11.8267 40.7498 12.104C40.7498 12.3813 40.6538 12.616 40.4618 12.808C40.2804 13 40.0564 13.096 39.7898 13.096ZM39.7898 6.248C39.5124 6.248 39.2778 6.152 39.0858 5.96C38.8938 5.768 38.7978 5.53333 38.7978 5.256C38.7978 4.97867 38.8938 4.744 39.0858 4.552C39.2778 4.36 39.5124 4.264 39.7898 4.264C40.0564 4.264 40.2804 4.36 40.4618 4.552C40.6538 4.744 40.7498 4.97867 40.7498 5.256C40.7498 5.53333 40.6538 5.768 40.4618 5.96C40.2804 6.152 40.0564 6.248 39.7898 6.248ZM48.4536 5.848C48.7416 5.34667 49.1683 4.93067 49.7336 4.6C50.3096 4.25867 50.9763 4.088 51.7336 4.088C52.5123 4.088 53.2163 4.27467 53.8456 4.648C54.4856 5.02133 54.987 5.54933 55.3496 6.232C55.7123 6.904 55.8936 7.688 55.8936 8.584C55.8936 9.46933 55.7123 10.2587 55.3496 10.952C54.987 11.6453 54.4856 12.184 53.8456 12.568C53.2163 12.952 52.5123 13.144 51.7336 13.144C50.987 13.144 50.3256 12.9787 49.7496 12.648C49.1843 12.3067 48.7523 11.8853 48.4536 11.384V17.16H46.9976V4.232H48.4536V5.848ZM54.4056 8.584C54.4056 7.92267 54.2723 7.34667 54.0056 6.856C53.739 6.36533 53.3763 5.992 52.9176 5.736C52.4696 5.48 51.9736 5.352 51.4296 5.352C50.8963 5.352 50.4003 5.48533 49.9416 5.752C49.4936 6.008 49.131 6.38667 48.8536 6.888C48.587 7.37867 48.4536 7.94933 48.4536 8.6C48.4536 9.26133 48.587 9.84267 48.8536 10.344C49.131 10.8347 49.4936 11.2133 49.9416 11.48C50.4003 11.736 50.8963 11.864 51.4296 11.864C51.9736 11.864 52.4696 11.736 52.9176 11.48C53.3763 11.2133 53.739 10.8347 54.0056 10.344C54.2723 9.84267 54.4056 9.256 54.4056 8.584ZM59.2661 5.656C59.5221 5.15467 59.8848 4.76533 60.3541 4.488C60.8341 4.21067 61.4155 4.072 62.0981 4.072V5.576H61.7141C60.0821 5.576 59.2661 6.46133 59.2661 8.232V13H57.8101V4.232H59.2661V5.656ZM64.5309 2.808C64.2535 2.808 64.0189 2.712 63.8269 2.52C63.6349 2.328 63.5389 2.09333 63.5389 1.816C63.5389 1.53867 63.6349 1.304 63.8269 1.112C64.0189 0.919999 64.2535 0.823999 64.5309 0.823999C64.7975 0.823999 65.0215 0.919999 65.2029 1.112C65.3949 1.304 65.4909 1.53867 65.4909 1.816C65.4909 2.09333 65.3949 2.328 65.2029 2.52C65.0215 2.712 64.7975 2.808 64.5309 2.808ZM65.2349 4.232V13H63.7789V4.232H65.2349ZM78.2604 4.072C78.943 4.072 79.551 4.216 80.0844 4.504C80.6177 4.78133 81.039 5.20267 81.3484 5.768C81.6577 6.33333 81.8124 7.02133 81.8124 7.832V13H80.3724V8.04C80.3724 7.16533 80.1537 6.49867 79.7164 6.04C79.2897 5.57067 78.7084 5.336 77.9724 5.336C77.215 5.336 76.6124 5.58133 76.1644 6.072C75.7164 6.552 75.4924 7.25067 75.4924 8.168V13H74.0524V8.04C74.0524 7.16533 73.8337 6.49867 73.3964 6.04C72.9697 5.57067 72.3884 5.336 71.6524 5.336C70.895 5.336 70.2924 5.58133 69.8444 6.072C69.3964 6.552 69.1724 7.25067 69.1724 8.168V13H67.7164V4.232H69.1724V5.496C69.4604 5.03733 69.8444 4.68533 70.3244 4.44C70.815 4.19467 71.3537 4.072 71.9404 4.072C72.6764 4.072 73.327 4.23733 73.8924 4.568C74.4577 4.89867 74.879 5.384 75.1564 6.024C75.4017 5.40533 75.807 4.92533 76.3724 4.584C76.9377 4.24267 77.567 4.072 78.2604 4.072ZM83.6568 8.584C83.6568 7.688 83.8381 6.904 84.2008 6.232C84.5634 5.54933 85.0594 5.02133 85.6888 4.648C86.3288 4.27467 87.0381 4.088 87.8168 4.088C88.5848 4.088 89.2514 4.25333 89.8168 4.584C90.3821 4.91467 90.8034 5.33067 91.0808 5.832V4.232H92.5528V13H91.0808V11.368C90.7928 11.88 90.3608 12.3067 89.7848 12.648C89.2194 12.9787 88.5581 13.144 87.8008 13.144C87.0221 13.144 86.3181 12.952 85.6888 12.568C85.0594 12.184 84.5634 11.6453 84.2008 10.952C83.8381 10.2587 83.6568 9.46933 83.6568 8.584ZM91.0808 8.6C91.0808 7.93867 90.9474 7.36267 90.6808 6.872C90.4141 6.38133 90.0514 6.008 89.5928 5.752C89.1448 5.48533 88.6488 5.352 88.1048 5.352C87.5608 5.352 87.0648 5.48 86.6168 5.736C86.1688 5.992 85.8114 6.36533 85.5448 6.856C85.2781 7.34667 85.1448 7.92267 85.1448 8.584C85.1448 9.256 85.2781 9.84267 85.5448 10.344C85.8114 10.8347 86.1688 11.2133 86.6168 11.48C87.0648 11.736 87.5608 11.864 88.1048 11.864C88.6488 11.864 89.1448 11.736 89.5928 11.48C90.0514 11.2133 90.4141 10.8347 90.6808 10.344C90.9474 9.84267 91.0808 9.26133 91.0808 8.6ZM96.4693 5.656C96.7253 5.15467 97.0879 4.76533 97.5573 4.488C98.0373 4.21067 98.6186 4.072 99.3013 4.072V5.576H98.9173C97.2853 5.576 96.4693 6.46133 96.4693 8.232V13H95.0133V4.232H96.4693V5.656ZM108.534 4.232L103.254 17.128H101.75L103.478 12.904L99.942 4.232H101.558L104.31 11.336L107.03 4.232H108.534ZM116.078 6.52V7.752H109.694V6.52H116.078ZM118.266 8.6C118.266 7.69333 118.447 6.904 118.81 6.232C119.173 5.54933 119.674 5.02133 120.314 4.648C120.965 4.27467 121.706 4.088 122.538 4.088C123.615 4.088 124.501 4.34933 125.194 4.872C125.898 5.39467 126.362 6.12 126.586 7.048H125.018C124.869 6.51467 124.575 6.09333 124.138 5.784C123.711 5.47467 123.178 5.32 122.538 5.32C121.706 5.32 121.034 5.608 120.522 6.184C120.01 6.74933 119.754 7.55467 119.754 8.6C119.754 9.656 120.01 10.472 120.522 11.048C121.034 11.624 121.706 11.912 122.538 11.912C123.178 11.912 123.711 11.7627 124.138 11.464C124.565 11.1653 124.858 10.7387 125.018 10.184H126.586C126.351 11.08 125.882 11.8 125.178 12.344C124.474 12.8773 123.594 13.144 122.538 13.144C121.706 13.144 120.965 12.9573 120.314 12.584C119.674 12.2107 119.173 11.6827 118.81 11C118.447 10.3173 118.266 9.51733 118.266 8.6ZM132.353 13.144C131.532 13.144 130.785 12.9573 130.113 12.584C129.452 12.2107 128.929 11.6827 128.545 11C128.172 10.3067 127.985 9.50667 127.985 8.6C127.985 7.704 128.177 6.91467 128.561 6.232C128.956 5.53867 129.489 5.01067 130.161 4.648C130.833 4.27467 131.585 4.088 132.417 4.088C133.249 4.088 134.001 4.27467 134.673 4.648C135.345 5.01067 135.873 5.53333 136.257 6.216C136.652 6.89867 136.849 7.69333 136.849 8.6C136.849 9.50667 136.646 10.3067 136.241 11C135.846 11.6827 135.308 12.2107 134.625 12.584C133.942 12.9573 133.185 13.144 132.353 13.144ZM132.353 11.864C132.876 11.864 133.366 11.7413 133.825 11.496C134.284 11.2507 134.652 10.8827 134.929 10.392C135.217 9.90133 135.361 9.304 135.361 8.6C135.361 7.896 135.222 7.29867 134.945 6.808C134.668 6.31733 134.305 5.95467 133.857 5.72C133.409 5.47467 132.924 5.352 132.401 5.352C131.868 5.352 131.377 5.47467 130.929 5.72C130.492 5.95467 130.14 6.31733 129.873 6.808C129.606 7.29867 129.473 7.896 129.473 8.6C129.473 9.31467 129.601 9.91733 129.857 10.408C130.124 10.8987 130.476 11.2667 130.913 11.512C131.35 11.7467 131.83 11.864 132.353 11.864ZM140.219 1.16V13H138.763V1.16H140.219ZM146.525 13.144C145.703 13.144 144.957 12.9573 144.285 12.584C143.623 12.2107 143.101 11.6827 142.717 11C142.343 10.3067 142.157 9.50667 142.157 8.6C142.157 7.704 142.349 6.91467 142.733 6.232C143.127 5.53867 143.661 5.01067 144.333 4.648C145.005 4.27467 145.757 4.088 146.589 4.088C147.421 4.088 148.173 4.27467 148.845 4.648C149.517 5.01067 150.045 5.53333 150.429 6.216C150.823 6.89867 151.021 7.69333 151.021 8.6C151.021 9.50667 150.818 10.3067 150.413 11C150.018 11.6827 149.479 12.2107 148.797 12.584C148.114 12.9573 147.357 13.144 146.525 13.144ZM146.525 11.864C147.047 11.864 147.538 11.7413 147.997 11.496C148.455 11.2507 148.823 10.8827 149.101 10.392C149.389 9.90133 149.533 9.304 149.533 8.6C149.533 7.896 149.394 7.29867 149.117 6.808C148.839 6.31733 148.477 5.95467 148.029 5.72C147.581 5.47467 147.095 5.352 146.573 5.352C146.039 5.352 145.549 5.47467 145.101 5.72C144.663 5.95467 144.311 6.31733 144.045 6.808C143.778 7.29867 143.645 7.896 143.645 8.6C143.645 9.31467 143.773 9.91733 144.029 10.408C144.295 10.8987 144.647 11.2667 145.085 11.512C145.522 11.7467 146.002 11.864 146.525 11.864ZM154.391 5.656C154.647 5.15467 155.01 4.76533 155.479 4.488C155.959 4.21067 156.54 4.072 157.223 4.072V5.576H156.839C155.207 5.576 154.391 6.46133 154.391 8.232V13H152.935V4.232H154.391V5.656Z" fill="black"/>
</svg>
