<svg width="164" height="19" viewBox="0 0 164 19" fill="none" xmlns="http://www.w3.org/2000/svg">
<path d="M10.4375 5.13068C10.3466 4.32386 9.97159 3.69886 9.3125 3.25568C8.65341 2.80682 7.82386 2.58239 6.82386 2.58239C6.10795 2.58239 5.48864 2.69602 4.96591 2.92329C4.44318 3.14489 4.03693 3.4517 3.74716 3.84375C3.46307 4.23011 3.32102 4.67045 3.32102 5.16477C3.32102 5.57955 3.41761 5.9375 3.6108 6.23864C3.80966 6.53977 4.06818 6.79261 4.38636 6.99716C4.71023 7.19602 5.05682 7.36364 5.42614 7.5C5.79545 7.63068 6.15057 7.73864 6.49148 7.82386L8.19602 8.26705C8.75284 8.40341 9.32386 8.58807 9.90909 8.82102C10.4943 9.05398 11.0369 9.3608 11.5369 9.74148C12.0369 10.1222 12.4403 10.5938 12.7472 11.1562C13.0597 11.7188 13.2159 12.392 13.2159 13.1761C13.2159 14.1648 12.9602 15.0426 12.4489 15.8097C11.9432 16.5767 11.2074 17.1818 10.2415 17.625C9.28125 18.0682 8.11932 18.2898 6.75568 18.2898C5.44886 18.2898 4.31818 18.0824 3.36364 17.6676C2.40909 17.2528 1.66193 16.6648 1.12216 15.9034C0.582386 15.1364 0.284091 14.2273 0.227273 13.1761H2.86932C2.92045 13.8068 3.125 14.3324 3.48295 14.7528C3.84659 15.1676 4.30966 15.4773 4.87216 15.6818C5.44034 15.8807 6.0625 15.9801 6.73864 15.9801C7.48295 15.9801 8.14489 15.8636 8.72443 15.6307C9.30966 15.392 9.76989 15.0625 10.1051 14.642C10.4403 14.2159 10.608 13.7187 10.608 13.1506C10.608 12.6335 10.4602 12.2102 10.1648 11.8807C9.875 11.5511 9.48011 11.2784 8.98011 11.0625C8.4858 10.8466 7.92614 10.6562 7.30114 10.4915L5.23864 9.92898C3.84091 9.5483 2.73295 8.98864 1.91477 8.25C1.10227 7.51136 0.696023 6.53409 0.696023 5.31818C0.696023 4.3125 0.96875 3.43466 1.5142 2.68466C2.05966 1.93466 2.7983 1.35227 3.73011 0.9375C4.66193 0.517045 5.71307 0.306818 6.88352 0.306818C8.06534 0.306818 9.10795 0.514204 10.0114 0.928977C10.9205 1.34375 11.6364 1.91477 12.1591 2.64204C12.6818 3.36364 12.9545 4.19318 12.9773 5.13068H10.4375ZM24.451 12.571V4.90909H27.0078V18H24.5021V15.733H24.3658C24.0646 16.4318 23.5817 17.0142 22.9169 17.4801C22.2578 17.9403 21.4368 18.1705 20.4538 18.1705C19.6129 18.1705 18.8686 17.9858 18.2209 17.6165C17.5788 17.2415 17.0732 16.6875 16.7038 15.9545C16.3402 15.2216 16.1584 14.3153 16.1584 13.2358V4.90909H18.7067V12.929C18.7067 13.821 18.9538 14.5312 19.4482 15.0597C19.9425 15.5881 20.5845 15.8523 21.3743 15.8523C21.8516 15.8523 22.326 15.733 22.7976 15.4943C23.2749 15.2557 23.6697 14.8949 23.9822 14.4119C24.3004 13.929 24.4567 13.3153 24.451 12.571ZM35.946 18.2642C34.679 18.2642 33.5881 17.9773 32.6733 17.4034C31.7642 16.8239 31.0653 16.0256 30.5767 15.0085C30.0881 13.9915 29.8438 12.8267 29.8438 11.5142C29.8438 10.1847 30.0938 9.01136 30.5938 7.99432C31.0938 6.97159 31.7983 6.1733 32.7074 5.59943C33.6165 5.02557 34.6875 4.73864 35.9205 4.73864C36.9148 4.73864 37.8011 4.9233 38.5795 5.29261C39.358 5.65625 39.9858 6.16761 40.4631 6.8267C40.946 7.4858 41.233 8.25568 41.3239 9.13636H38.8438C38.7074 8.52273 38.3949 7.99432 37.9062 7.55114C37.4233 7.10795 36.7756 6.88636 35.9631 6.88636C35.2528 6.88636 34.6307 7.07386 34.0966 7.44886C33.5682 7.81818 33.1563 8.34659 32.8608 9.03409C32.5653 9.71591 32.4176 10.5227 32.4176 11.4545C32.4176 12.4091 32.5625 13.233 32.8523 13.9261C33.142 14.6193 33.5511 15.1562 34.0795 15.5369C34.6136 15.9176 35.2415 16.108 35.9631 16.108C36.446 16.108 36.8835 16.0199 37.2756 15.8438C37.6733 15.6619 38.0057 15.4034 38.2727 15.0682C38.5455 14.733 38.7358 14.3295 38.8438 13.858H41.3239C41.233 14.7045 40.9574 15.4602 40.4972 16.125C40.0369 16.7898 39.4205 17.3125 38.6477 17.6932C37.8807 18.0739 36.9801 18.2642 35.946 18.2642ZM49.5632 18.2642C48.2962 18.2642 47.2053 17.9773 46.2905 17.4034C45.3814 16.8239 44.6825 16.0256 44.1939 15.0085C43.7053 13.9915 43.4609 12.8267 43.4609 11.5142C43.4609 10.1847 43.7109 9.01136 44.2109 7.99432C44.7109 6.97159 45.4155 6.1733 46.3246 5.59943C47.2337 5.02557 48.3047 4.73864 49.5376 4.73864C50.532 4.73864 51.4183 4.9233 52.1967 5.29261C52.9751 5.65625 53.603 6.16761 54.0803 6.8267C54.5632 7.4858 54.8501 8.25568 54.9411 9.13636H52.4609C52.3246 8.52273 52.0121 7.99432 51.5234 7.55114C51.0405 7.10795 50.3928 6.88636 49.5803 6.88636C48.87 6.88636 48.2479 7.07386 47.7138 7.44886C47.1854 7.81818 46.7734 8.34659 46.478 9.03409C46.1825 9.71591 46.0348 10.5227 46.0348 11.4545C46.0348 12.4091 46.1797 13.233 46.4695 13.9261C46.7592 14.6193 47.1683 15.1562 47.6967 15.5369C48.2308 15.9176 48.8587 16.108 49.5803 16.108C50.0632 16.108 50.5007 16.0199 50.8928 15.8438C51.2905 15.6619 51.6229 15.4034 51.8899 15.0682C52.1626 14.733 52.353 14.3295 52.4609 13.858H54.9411C54.8501 14.7045 54.5746 15.4602 54.1143 16.125C53.6541 16.7898 53.0376 17.3125 52.2649 17.6932C51.4979 18.0739 50.5973 18.2642 49.5632 18.2642ZM63.3082 18.2642C62.0185 18.2642 60.9077 17.9886 59.9759 17.4375C59.0497 16.8807 58.3338 16.0994 57.8281 15.0938C57.3281 14.0824 57.0781 12.8977 57.0781 11.5398C57.0781 10.1989 57.3281 9.01705 57.8281 7.99432C58.3338 6.97159 59.0384 6.1733 59.9418 5.59943C60.8509 5.02557 61.9134 4.73864 63.1293 4.73864C63.8679 4.73864 64.5838 4.8608 65.277 5.10511C65.9702 5.34943 66.5923 5.73295 67.1435 6.25568C67.6946 6.77841 68.1293 7.45739 68.4474 8.29261C68.7656 9.12216 68.9247 10.1307 68.9247 11.3182V12.2216H58.5185V10.3125H66.4276C66.4276 9.64205 66.2912 9.0483 66.0185 8.53125C65.7457 8.00852 65.3622 7.59659 64.8679 7.29545C64.3793 6.99432 63.8054 6.84375 63.1463 6.84375C62.4304 6.84375 61.8054 7.01989 61.2713 7.37216C60.7429 7.71875 60.3338 8.1733 60.044 8.7358C59.7599 9.29261 59.6179 9.89773 59.6179 10.5511V12.0426C59.6179 12.9176 59.7713 13.6619 60.0781 14.2756C60.3906 14.8892 60.8253 15.358 61.3821 15.6818C61.9389 16 62.5895 16.1591 63.3338 16.1591C63.8168 16.1591 64.2571 16.0909 64.6548 15.9545C65.0526 15.8125 65.3963 15.6023 65.6861 15.3239C65.9759 15.0455 66.1974 14.7017 66.3509 14.2926L68.7628 14.7273C68.5696 15.4375 68.223 16.0597 67.723 16.5938C67.2287 17.1222 66.6065 17.5341 65.8565 17.8295C65.1122 18.1193 64.2628 18.2642 63.3082 18.2642ZM81.5618 8.10511L79.2521 8.5142C79.1555 8.21875 79.0021 7.9375 78.7919 7.67045C78.5874 7.40341 78.3089 7.18466 77.9567 7.0142C77.6044 6.84375 77.1641 6.75852 76.6357 6.75852C75.9141 6.75852 75.3118 6.92045 74.8288 7.24432C74.3459 7.5625 74.1044 7.97443 74.1044 8.48011C74.1044 8.91761 74.2663 9.26989 74.5902 9.53693C74.9141 9.80398 75.4368 10.0227 76.1584 10.1932L78.2379 10.6705C79.4425 10.9489 80.3402 11.3778 80.9311 11.9574C81.522 12.5369 81.8175 13.2898 81.8175 14.2159C81.8175 15 81.5902 15.6989 81.1357 16.3125C80.6868 16.9205 80.0589 17.3977 79.2521 17.7443C78.451 18.0909 77.522 18.2642 76.4652 18.2642C74.9993 18.2642 73.8033 17.9517 72.8771 17.3267C71.951 16.696 71.3828 15.8011 71.1726 14.642L73.6357 14.267C73.7891 14.9091 74.1044 15.3949 74.5817 15.7244C75.0589 16.0483 75.6811 16.2102 76.4482 16.2102C77.2834 16.2102 77.951 16.0369 78.451 15.6903C78.951 15.3381 79.201 14.9091 79.201 14.4034C79.201 13.9943 79.0476 13.6506 78.7408 13.3722C78.4396 13.0937 77.9766 12.8835 77.3516 12.7415L75.1357 12.2557C73.9141 11.9773 73.0107 11.5341 72.4254 10.9261C71.8459 10.3182 71.5561 9.5483 71.5561 8.61648C71.5561 7.84375 71.772 7.16761 72.2038 6.58807C72.6357 6.00852 73.2322 5.55682 73.9936 5.23295C74.755 4.90341 75.6271 4.73864 76.6101 4.73864C78.0249 4.73864 79.1385 5.04545 79.951 5.65909C80.7635 6.26705 81.3004 7.08239 81.5618 8.10511ZM94.429 8.10511L92.1193 8.5142C92.0227 8.21875 91.8693 7.9375 91.6591 7.67045C91.4545 7.40341 91.1761 7.18466 90.8239 7.0142C90.4716 6.84375 90.0313 6.75852 89.5028 6.75852C88.7813 6.75852 88.179 6.92045 87.696 7.24432C87.2131 7.5625 86.9716 7.97443 86.9716 8.48011C86.9716 8.91761 87.1335 9.26989 87.4574 9.53693C87.7813 9.80398 88.304 10.0227 89.0256 10.1932L91.1051 10.6705C92.3097 10.9489 93.2074 11.3778 93.7983 11.9574C94.3892 12.5369 94.6847 13.2898 94.6847 14.2159C94.6847 15 94.4574 15.6989 94.0028 16.3125C93.554 16.9205 92.9261 17.3977 92.1193 17.7443C91.3182 18.0909 90.3892 18.2642 89.3324 18.2642C87.8665 18.2642 86.6705 17.9517 85.7443 17.3267C84.8182 16.696 84.25 15.8011 84.0398 14.642L86.5028 14.267C86.6563 14.9091 86.9716 15.3949 87.4489 15.7244C87.9261 16.0483 88.5483 16.2102 89.3153 16.2102C90.1506 16.2102 90.8182 16.0369 91.3182 15.6903C91.8182 15.3381 92.0682 14.9091 92.0682 14.4034C92.0682 13.9943 91.9148 13.6506 91.608 13.3722C91.3068 13.0937 90.8438 12.8835 90.2188 12.7415L88.0028 12.2557C86.7813 11.9773 85.8778 11.5341 85.2926 10.9261C84.7131 10.3182 84.4233 9.5483 84.4233 8.61648C84.4233 7.84375 84.6392 7.16761 85.071 6.58807C85.5028 6.00852 86.0994 5.55682 86.8608 5.23295C87.6222 4.90341 88.4943 4.73864 89.4773 4.73864C90.892 4.73864 92.0057 5.04545 92.8182 5.65909C93.6307 6.26705 94.1676 7.08239 94.429 8.10511ZM118.54 6.22159H115.881C115.778 5.65341 115.588 5.15341 115.31 4.72159C115.031 4.28977 114.69 3.9233 114.287 3.62216C113.884 3.32102 113.432 3.09375 112.932 2.94034C112.438 2.78693 111.912 2.71023 111.355 2.71023C110.349 2.71023 109.449 2.96307 108.653 3.46875C107.864 3.97443 107.239 4.71591 106.778 5.69318C106.324 6.67045 106.097 7.86364 106.097 9.27273C106.097 10.6932 106.324 11.892 106.778 12.8693C107.239 13.8466 107.866 14.5852 108.662 15.0852C109.457 15.5852 110.352 15.8352 111.347 15.8352C111.898 15.8352 112.42 15.7614 112.915 15.6136C113.415 15.4602 113.866 15.2358 114.27 14.9403C114.673 14.6449 115.014 14.2841 115.293 13.858C115.577 13.4261 115.773 12.9318 115.881 12.375L118.54 12.3835C118.398 13.2415 118.122 14.0312 117.713 14.7528C117.31 15.4688 116.79 16.0881 116.153 16.6108C115.523 17.1278 114.801 17.5284 113.989 17.8125C113.176 18.0966 112.29 18.2386 111.33 18.2386C109.818 18.2386 108.472 17.8807 107.29 17.1648C106.108 16.4432 105.176 15.4119 104.494 14.071C103.818 12.7301 103.48 11.1307 103.48 9.27273C103.48 7.40909 103.821 5.80966 104.503 4.47443C105.185 3.13352 106.116 2.10511 107.298 1.3892C108.48 0.667613 109.824 0.306818 111.33 0.306818C112.256 0.306818 113.119 0.440341 113.92 0.707386C114.727 0.96875 115.452 1.35511 116.094 1.86648C116.736 2.37216 117.267 2.99148 117.688 3.72443C118.108 4.4517 118.392 5.28409 118.54 6.22159ZM127.001 18.2642C125.773 18.2642 124.702 17.983 123.788 17.4205C122.873 16.858 122.163 16.071 121.657 15.0597C121.151 14.0483 120.898 12.8665 120.898 11.5142C120.898 10.1562 121.151 8.96875 121.657 7.9517C122.163 6.93466 122.873 6.14489 123.788 5.58239C124.702 5.01989 125.773 4.73864 127.001 4.73864C128.228 4.73864 129.299 5.01989 130.214 5.58239C131.129 6.14489 131.839 6.93466 132.344 7.9517C132.85 8.96875 133.103 10.1562 133.103 11.5142C133.103 12.8665 132.85 14.0483 132.344 15.0597C131.839 16.071 131.129 16.858 130.214 17.4205C129.299 17.983 128.228 18.2642 127.001 18.2642ZM127.009 16.125C127.805 16.125 128.464 15.9148 128.987 15.4943C129.509 15.0739 129.896 14.5142 130.146 13.8153C130.401 13.1165 130.529 12.3466 130.529 11.5057C130.529 10.6705 130.401 9.90341 130.146 9.20455C129.896 8.5 129.509 7.93466 128.987 7.50852C128.464 7.08239 127.805 6.86932 127.009 6.86932C126.208 6.86932 125.543 7.08239 125.015 7.50852C124.492 7.93466 124.103 8.5 123.847 9.20455C123.597 9.90341 123.472 10.6705 123.472 11.5057C123.472 12.3466 123.597 13.1165 123.847 13.8153C124.103 14.5142 124.492 15.0739 125.015 15.4943C125.543 15.9148 126.208 16.125 127.009 16.125ZM138.496 0.545454V18H135.947V0.545454H138.496ZM147.438 18.2642C146.211 18.2642 145.14 17.983 144.225 17.4205C143.31 16.858 142.6 16.071 142.094 15.0597C141.589 14.0483 141.336 12.8665 141.336 11.5142C141.336 10.1562 141.589 8.96875 142.094 7.9517C142.6 6.93466 143.31 6.14489 144.225 5.58239C145.14 5.01989 146.211 4.73864 147.438 4.73864C148.665 4.73864 149.737 5.01989 150.651 5.58239C151.566 6.14489 152.276 6.93466 152.782 7.9517C153.288 8.96875 153.54 10.1562 153.54 11.5142C153.54 12.8665 153.288 14.0483 152.782 15.0597C152.276 16.071 151.566 16.858 150.651 17.4205C149.737 17.983 148.665 18.2642 147.438 18.2642ZM147.447 16.125C148.242 16.125 148.901 15.9148 149.424 15.4943C149.947 15.0739 150.333 14.5142 150.583 13.8153C150.839 13.1165 150.967 12.3466 150.967 11.5057C150.967 10.6705 150.839 9.90341 150.583 9.20455C150.333 8.5 149.947 7.93466 149.424 7.50852C148.901 7.08239 148.242 6.86932 147.447 6.86932C146.646 6.86932 145.981 7.08239 145.452 7.50852C144.93 7.93466 144.54 8.5 144.285 9.20455C144.035 9.90341 143.91 10.6705 143.91 11.5057C143.91 12.3466 144.035 13.1165 144.285 13.8153C144.54 14.5142 144.93 15.0739 145.452 15.4943C145.981 15.9148 146.646 16.125 147.447 16.125ZM156.385 18V4.90909H158.848V6.98864H158.984C159.223 6.28409 159.643 5.73011 160.246 5.3267C160.854 4.91761 161.541 4.71307 162.308 4.71307C162.467 4.71307 162.655 4.71875 162.871 4.73011C163.092 4.74148 163.266 4.75568 163.391 4.77273V7.21023C163.288 7.18182 163.107 7.15057 162.845 7.11648C162.584 7.0767 162.322 7.05682 162.061 7.05682C161.459 7.05682 160.922 7.18466 160.45 7.44034C159.984 7.69034 159.615 8.03977 159.342 8.48864C159.07 8.93182 158.933 9.4375 158.933 10.0057V18H156.385Z" fill="black"/>
</svg>
