<svg width="163" height="25" viewBox="0 0 163 25" fill="none" xmlns="http://www.w3.org/2000/svg">
<path d="M5.33523 19L0.494318 1.54545H3.2642L6.66477 15.0625H6.8267L10.3636 1.54545H13.108L16.6449 15.071H16.8068L20.1989 1.54545H22.9773L18.1278 19H15.4773L11.804 5.92614H11.6676L7.99432 19H5.33523ZM27.6946 19.2898C26.8651 19.2898 26.1151 19.1364 25.4446 18.8295C24.7741 18.517 24.2429 18.0653 23.8509 17.4744C23.4645 16.8835 23.2713 16.1591 23.2713 15.3011C23.2713 14.5625 23.4134 13.9545 23.6974 13.4773C23.9815 13 24.3651 12.6222 24.848 12.3438C25.331 12.0653 25.8707 11.8551 26.4673 11.7131C27.0639 11.571 27.6719 11.4631 28.2912 11.3892C29.0753 11.2983 29.7116 11.2244 30.2003 11.1676C30.6889 11.1051 31.044 11.0057 31.2656 10.8693C31.4872 10.733 31.598 10.5114 31.598 10.2045V10.1449C31.598 9.40057 31.3878 8.82386 30.9673 8.41477C30.5526 8.00568 29.9332 7.80114 29.1094 7.80114C28.2514 7.80114 27.5753 7.99148 27.081 8.37216C26.5923 8.74716 26.2543 9.16477 26.0668 9.625L23.6719 9.07955C23.956 8.28409 24.3707 7.64205 24.9162 7.15341C25.4673 6.65909 26.1009 6.30114 26.8168 6.07954C27.5327 5.85227 28.2855 5.73864 29.0753 5.73864C29.598 5.73864 30.152 5.80114 30.7372 5.92614C31.3281 6.04545 31.8793 6.26705 32.3906 6.59091C32.9077 6.91477 33.331 7.37784 33.6605 7.98011C33.9901 8.5767 34.1548 9.35227 34.1548 10.3068V19H31.6662V17.2102H31.5639C31.3991 17.5398 31.152 17.8636 30.8224 18.1818C30.4929 18.5 30.0696 18.7642 29.5526 18.9744C29.0355 19.1847 28.4162 19.2898 27.6946 19.2898ZM28.2486 17.2443C28.9531 17.2443 29.5554 17.1051 30.0554 16.8267C30.5611 16.5483 30.9446 16.1847 31.206 15.7358C31.473 15.2812 31.6065 14.7955 31.6065 14.2784V12.5909C31.5156 12.6818 31.3395 12.767 31.0781 12.8466C30.8224 12.9205 30.5298 12.9858 30.2003 13.0426C29.8707 13.0937 29.5497 13.142 29.2372 13.1875C28.9247 13.2273 28.6634 13.2614 28.4531 13.2898C27.9588 13.3523 27.5071 13.4574 27.098 13.6051C26.6946 13.7528 26.3707 13.9659 26.1264 14.2443C25.8878 14.517 25.7685 14.8807 25.7685 15.3352C25.7685 15.9659 26.0014 16.4432 26.4673 16.767C26.9332 17.0852 27.527 17.2443 28.2486 17.2443ZM37.549 19V5.90909H40.0121V7.98864H40.1484C40.3871 7.28409 40.8075 6.73011 41.4098 6.3267C42.0178 5.91761 42.7053 5.71307 43.4723 5.71307C43.6314 5.71307 43.8189 5.71875 44.0348 5.73011C44.2564 5.74148 44.4297 5.75568 44.5547 5.77273V8.21023C44.4524 8.18182 44.2706 8.15057 44.0092 8.11648C43.7479 8.0767 43.4865 8.05682 43.2251 8.05682C42.6229 8.05682 42.0859 8.18466 41.6143 8.44034C41.1484 8.69034 40.7791 9.03977 40.5064 9.48864C40.2337 9.93182 40.0973 10.4375 40.0973 11.0057V19H37.549ZM49.3082 11.2273V19H46.7599V5.90909H49.206V8.03977H49.3679C49.669 7.34659 50.1406 6.78977 50.7827 6.36932C51.4304 5.94886 52.2457 5.73864 53.2287 5.73864C54.1207 5.73864 54.902 5.92614 55.5724 6.30114C56.2429 6.67045 56.7628 7.22159 57.1321 7.95455C57.5014 8.6875 57.6861 9.59375 57.6861 10.6733V19H55.1378V10.9801C55.1378 10.0312 54.8906 9.28977 54.3963 8.75568C53.902 8.21591 53.223 7.94602 52.3594 7.94602C51.7685 7.94602 51.2429 8.07386 50.7827 8.32955C50.3281 8.58523 49.9673 8.96023 49.7003 9.45455C49.4389 9.94318 49.3082 10.5341 49.3082 11.2273ZM61.1037 19V5.90909H63.652V19H61.1037ZM62.3906 3.8892C61.9474 3.8892 61.5668 3.74148 61.2486 3.44602C60.9361 3.14489 60.7798 2.78693 60.7798 2.37216C60.7798 1.9517 60.9361 1.59375 61.2486 1.29829C61.5668 0.997159 61.9474 0.846591 62.3906 0.846591C62.8338 0.846591 63.2116 0.997159 63.5241 1.29829C63.8423 1.59375 64.0014 1.9517 64.0014 2.37216C64.0014 2.78693 63.8423 3.14489 63.5241 3.44602C63.2116 3.74148 62.8338 3.8892 62.3906 3.8892ZM69.6286 11.2273V19H67.0803V5.90909H69.5263V8.03977H69.6882C69.9893 7.34659 70.4609 6.78977 71.103 6.36932C71.7507 5.94886 72.5661 5.73864 73.549 5.73864C74.4411 5.73864 75.2223 5.92614 75.8928 6.30114C76.5632 6.67045 77.0831 7.22159 77.4524 7.95455C77.8217 8.6875 78.0064 9.59375 78.0064 10.6733V19H75.4581V10.9801C75.4581 10.0312 75.2109 9.28977 74.7166 8.75568C74.2223 8.21591 73.5433 7.94602 72.6797 7.94602C72.0888 7.94602 71.5632 8.07386 71.103 8.32955C70.6484 8.58523 70.2876 8.96023 70.0206 9.45455C69.7592 9.94318 69.6286 10.5341 69.6286 11.2273ZM86.9126 24.1818C85.8729 24.1818 84.978 24.0455 84.228 23.7727C83.4837 23.5 82.8757 23.1392 82.4041 22.6903C81.9325 22.2415 81.5803 21.75 81.3473 21.2159L83.5376 20.3125C83.6911 20.5625 83.8956 20.8267 84.1513 21.1051C84.4126 21.3892 84.7649 21.6307 85.2081 21.8295C85.657 22.0284 86.2337 22.1278 86.9382 22.1278C87.9041 22.1278 88.7024 21.892 89.3331 21.4205C89.9638 20.9545 90.2791 20.2102 90.2791 19.1875V16.6136H90.1172C89.9638 16.892 89.7422 17.2017 89.4524 17.5426C89.1683 17.8835 88.7763 18.179 88.2763 18.429C87.7763 18.679 87.1257 18.804 86.3246 18.804C85.2905 18.804 84.3587 18.5625 83.5291 18.0795C82.7053 17.5909 82.0518 16.8722 81.5689 15.9233C81.0916 14.9687 80.853 13.7955 80.853 12.4034C80.853 11.0114 81.0888 9.81818 81.5604 8.82386C82.0376 7.82955 82.6911 7.06818 83.5206 6.53977C84.3501 6.00568 85.2905 5.73864 86.3416 5.73864C87.1541 5.73864 87.8104 5.875 88.3104 6.14773C88.8104 6.41477 89.1996 6.72727 89.478 7.08523C89.7621 7.44318 89.9808 7.75852 90.1342 8.03125H90.3217V5.90909H92.8189V19.2898C92.8189 20.4148 92.5575 21.3381 92.0348 22.0597C91.5121 22.7813 90.8047 23.3153 89.9126 23.6619C89.0263 24.0085 88.0263 24.1818 86.9126 24.1818ZM86.8871 16.6903C87.62 16.6903 88.2393 16.5199 88.745 16.179C89.2564 15.8324 89.6428 15.3381 89.9041 14.696C90.1712 14.0483 90.3047 13.2727 90.3047 12.3693C90.3047 11.4886 90.174 10.7131 89.9126 10.0426C89.6513 9.37216 89.2678 8.84943 88.7621 8.47443C88.2564 8.09375 87.6314 7.90341 86.8871 7.90341C86.12 7.90341 85.4808 8.10227 84.9695 8.5C84.4581 8.89205 84.0717 9.42614 83.8104 10.1023C83.5547 10.7784 83.4268 11.5341 83.4268 12.3693C83.4268 13.2273 83.5575 13.9801 83.8189 14.6278C84.0803 15.2756 84.4666 15.7812 84.978 16.1449C85.495 16.5085 86.1314 16.6903 86.8871 16.6903ZM117.29 7.22159H114.631C114.528 6.65341 114.338 6.15341 114.06 5.72159C113.781 5.28977 113.44 4.9233 113.037 4.62216C112.634 4.32102 112.182 4.09375 111.682 3.94034C111.188 3.78693 110.662 3.71023 110.105 3.71023C109.099 3.71023 108.199 3.96307 107.403 4.46875C106.614 4.97443 105.989 5.71591 105.528 6.69318C105.074 7.67045 104.847 8.86364 104.847 10.2727C104.847 11.6932 105.074 12.892 105.528 13.8693C105.989 14.8466 106.616 15.5852 107.412 16.0852C108.207 16.5852 109.102 16.8352 110.097 16.8352C110.648 16.8352 111.17 16.7614 111.665 16.6136C112.165 16.4602 112.616 16.2358 113.02 15.9403C113.423 15.6449 113.764 15.2841 114.043 14.858C114.327 14.4261 114.523 13.9318 114.631 13.375L117.29 13.3835C117.148 14.2415 116.872 15.0312 116.463 15.7528C116.06 16.4688 115.54 17.0881 114.903 17.6108C114.273 18.1278 113.551 18.5284 112.739 18.8125C111.926 19.0966 111.04 19.2386 110.08 19.2386C108.568 19.2386 107.222 18.8807 106.04 18.1648C104.858 17.4432 103.926 16.4119 103.244 15.071C102.568 13.7301 102.23 12.1307 102.23 10.2727C102.23 8.40909 102.571 6.80966 103.253 5.47443C103.935 4.13352 104.866 3.10511 106.048 2.3892C107.23 1.66761 108.574 1.30682 110.08 1.30682C111.006 1.30682 111.869 1.44034 112.67 1.70739C113.477 1.96875 114.202 2.35511 114.844 2.86648C115.486 3.37216 116.017 3.99148 116.438 4.72443C116.858 5.4517 117.142 6.28409 117.29 7.22159ZM125.751 19.2642C124.523 19.2642 123.452 18.983 122.538 18.4205C121.623 17.858 120.913 17.071 120.407 16.0597C119.901 15.0483 119.648 13.8665 119.648 12.5142C119.648 11.1562 119.901 9.96875 120.407 8.9517C120.913 7.93466 121.623 7.14489 122.538 6.58239C123.452 6.01989 124.523 5.73864 125.751 5.73864C126.978 5.73864 128.049 6.01989 128.964 6.58239C129.879 7.14489 130.589 7.93466 131.094 8.9517C131.6 9.96875 131.853 11.1562 131.853 12.5142C131.853 13.8665 131.6 15.0483 131.094 16.0597C130.589 17.071 129.879 17.858 128.964 18.4205C128.049 18.983 126.978 19.2642 125.751 19.2642ZM125.759 17.125C126.555 17.125 127.214 16.9148 127.737 16.4943C128.259 16.0739 128.646 15.5142 128.896 14.8153C129.151 14.1165 129.279 13.3466 129.279 12.5057C129.279 11.6705 129.151 10.9034 128.896 10.2045C128.646 9.5 128.259 8.93466 127.737 8.50852C127.214 8.08239 126.555 7.86932 125.759 7.86932C124.958 7.86932 124.293 8.08239 123.765 8.50852C123.242 8.93466 122.853 9.5 122.597 10.2045C122.347 10.9034 122.222 11.6705 122.222 12.5057C122.222 13.3466 122.347 14.1165 122.597 14.8153C122.853 15.5142 123.242 16.0739 123.765 16.4943C124.293 16.9148 124.958 17.125 125.759 17.125ZM137.246 1.54545V19H134.697V1.54545H137.246ZM146.188 19.2642C144.961 19.2642 143.89 18.983 142.975 18.4205C142.06 17.858 141.35 17.071 140.844 16.0597C140.339 15.0483 140.086 13.8665 140.086 12.5142C140.086 11.1562 140.339 9.96875 140.844 8.9517C141.35 7.93466 142.06 7.14489 142.975 6.58239C143.89 6.01989 144.961 5.73864 146.188 5.73864C147.415 5.73864 148.487 6.01989 149.401 6.58239C150.316 7.14489 151.026 7.93466 151.532 8.9517C152.038 9.96875 152.29 11.1562 152.29 12.5142C152.29 13.8665 152.038 15.0483 151.532 16.0597C151.026 17.071 150.316 17.858 149.401 18.4205C148.487 18.983 147.415 19.2642 146.188 19.2642ZM146.197 17.125C146.992 17.125 147.651 16.9148 148.174 16.4943C148.697 16.0739 149.083 15.5142 149.333 14.8153C149.589 14.1165 149.717 13.3466 149.717 12.5057C149.717 11.6705 149.589 10.9034 149.333 10.2045C149.083 9.5 148.697 8.93466 148.174 8.50852C147.651 8.08239 146.992 7.86932 146.197 7.86932C145.396 7.86932 144.731 8.08239 144.202 8.50852C143.68 8.93466 143.29 9.5 143.035 10.2045C142.785 10.9034 142.66 11.6705 142.66 12.5057C142.66 13.3466 142.785 14.1165 143.035 14.8153C143.29 15.5142 143.68 16.0739 144.202 16.4943C144.731 16.9148 145.396 17.125 146.197 17.125ZM155.135 19V5.90909H157.598V7.98864H157.734C157.973 7.28409 158.393 6.73011 158.996 6.3267C159.604 5.91761 160.291 5.71307 161.058 5.71307C161.217 5.71307 161.405 5.71875 161.621 5.73011C161.842 5.74148 162.016 5.75568 162.141 5.77273V8.21023C162.038 8.18182 161.857 8.15057 161.595 8.11648C161.334 8.0767 161.072 8.05682 160.811 8.05682C160.209 8.05682 159.672 8.18466 159.2 8.44034C158.734 8.69034 158.365 9.03977 158.092 9.48864C157.82 9.93182 157.683 10.4375 157.683 11.0057V19H155.135Z" fill="black"/>
</svg>
