<svg width="498" height="328" viewBox="0 0 498 328" fill="none" xmlns="http://www.w3.org/2000/svg">
<rect width="498" height="328" rx="9" fill="#01042E"/>
<path d="M50.352 145.064V148.326H53.908V149.376H50.352V152.736H54.328V153.786H49.078V144.014H54.328V145.064H50.352ZM65.4817 145.974C66.0791 145.974 66.6111 146.1 67.0777 146.352C67.5444 146.595 67.9131 146.963 68.1837 147.458C68.4544 147.953 68.5897 148.555 68.5897 149.264V153.786H67.3297V149.446C67.3297 148.681 67.1384 148.097 66.7557 147.696C66.3824 147.285 65.8737 147.08 65.2297 147.08C64.5671 147.08 64.0397 147.295 63.6477 147.724C63.2557 148.144 63.0597 148.755 63.0597 149.558V153.786H61.7997V149.446C61.7997 148.681 61.6084 148.097 61.2257 147.696C60.8524 147.285 60.3437 147.08 59.6997 147.08C59.0371 147.08 58.5097 147.295 58.1177 147.724C57.7257 148.144 57.5297 148.755 57.5297 149.558V153.786H56.2557V146.114H57.5297V147.22C57.7817 146.819 58.1177 146.511 58.5377 146.296C58.9671 146.081 59.4384 145.974 59.9517 145.974C60.5957 145.974 61.1651 146.119 61.6597 146.408C62.1544 146.697 62.5231 147.122 62.7657 147.682C62.9804 147.141 63.3351 146.721 63.8297 146.422C64.3244 146.123 64.8751 145.974 65.4817 145.974ZM70.2036 149.922C70.2036 149.138 70.3622 148.452 70.6796 147.864C70.9969 147.267 71.4309 146.805 71.9816 146.478C72.5416 146.151 73.1622 145.988 73.8436 145.988C74.5156 145.988 75.0989 146.133 75.5936 146.422C76.0882 146.711 76.4569 147.075 76.6996 147.514V146.114H77.9876V153.786H76.6996V152.358C76.4476 152.806 76.0696 153.179 75.5656 153.478C75.0709 153.767 74.4922 153.912 73.8296 153.912C73.1482 153.912 72.5322 153.744 71.9816 153.408C71.4309 153.072 70.9969 152.601 70.6796 151.994C70.3622 151.387 70.2036 150.697 70.2036 149.922ZM76.6996 149.936C76.6996 149.357 76.5829 148.853 76.3496 148.424C76.1162 147.995 75.7989 147.668 75.3976 147.444C75.0056 147.211 74.5716 147.094 74.0956 147.094C73.6196 147.094 73.1856 147.206 72.7936 147.43C72.4016 147.654 72.0889 147.981 71.8556 148.41C71.6222 148.839 71.5056 149.343 71.5056 149.922C71.5056 150.51 71.6222 151.023 71.8556 151.462C72.0889 151.891 72.4016 152.223 72.7936 152.456C73.1856 152.68 73.6196 152.792 74.0956 152.792C74.5716 152.792 75.0056 152.68 75.3976 152.456C75.7989 152.223 76.1162 151.891 76.3496 151.462C76.5829 151.023 76.6996 150.515 76.6996 149.936ZM80.7985 144.868C80.5558 144.868 80.3505 144.784 80.1825 144.616C80.0145 144.448 79.9305 144.243 79.9305 144C79.9305 143.757 80.0145 143.552 80.1825 143.384C80.3505 143.216 80.5558 143.132 80.7985 143.132C81.0318 143.132 81.2278 143.216 81.3865 143.384C81.5545 143.552 81.6385 143.757 81.6385 144C81.6385 144.243 81.5545 144.448 81.3865 144.616C81.2278 144.784 81.0318 144.868 80.7985 144.868ZM81.4145 146.114V153.786H80.1405V146.114H81.4145ZM84.8598 143.426V153.786H83.5858V143.426H84.8598Z" fill="white"/>
<rect x="49.5024" y="165.513" width="399.997" height="49.4367" rx="4.5" fill="white" stroke="#1F3241"/>
<path d="M78.9394 187.472V195.144H77.6654V194.01C77.4227 194.402 77.082 194.71 76.6434 194.934C76.214 195.149 75.738 195.256 75.2154 195.256C74.618 195.256 74.0814 195.135 73.6054 194.892C73.1294 194.64 72.7514 194.267 72.4714 193.772C72.2007 193.277 72.0654 192.675 72.0654 191.966V187.472H73.3254V191.798C73.3254 192.554 73.5167 193.137 73.8994 193.548C74.282 193.949 74.8047 194.15 75.4674 194.15C76.1487 194.15 76.6854 193.94 77.0774 193.52C77.4694 193.1 77.6654 192.489 77.6654 191.686V187.472H78.9394ZM83.8065 195.27C83.2185 195.27 82.6911 195.172 82.2245 194.976C81.7578 194.771 81.3891 194.491 81.1185 194.136C80.8478 193.772 80.6985 193.357 80.6705 192.89H81.9865C82.0238 193.273 82.2011 193.585 82.5185 193.828C82.8451 194.071 83.2698 194.192 83.7925 194.192C84.2778 194.192 84.6605 194.085 84.9405 193.87C85.2205 193.655 85.3605 193.385 85.3605 193.058C85.3605 192.722 85.2111 192.475 84.9125 192.316C84.6138 192.148 84.1518 191.985 83.5265 191.826C82.9571 191.677 82.4905 191.527 82.1265 191.378C81.7718 191.219 81.4638 190.991 81.2025 190.692C80.9505 190.384 80.8245 189.983 80.8245 189.488C80.8245 189.096 80.9411 188.737 81.1745 188.41C81.4078 188.083 81.7391 187.827 82.1685 187.64C82.5978 187.444 83.0878 187.346 83.6385 187.346C84.4878 187.346 85.1738 187.561 85.6965 187.99C86.2191 188.419 86.4991 189.007 86.5365 189.754H85.2625C85.2345 189.353 85.0711 189.031 84.7725 188.788C84.4831 188.545 84.0911 188.424 83.5965 188.424C83.1391 188.424 82.7751 188.522 82.5045 188.718C82.2338 188.914 82.0985 189.171 82.0985 189.488C82.0985 189.74 82.1778 189.95 82.3365 190.118C82.5045 190.277 82.7098 190.407 82.9525 190.51C83.2045 190.603 83.5498 190.711 83.9885 190.832C84.5391 190.981 84.9871 191.131 85.3325 191.28C85.6778 191.42 85.9718 191.635 86.2145 191.924C86.4665 192.213 86.5971 192.591 86.6065 193.058C86.6065 193.478 86.4898 193.856 86.2565 194.192C86.0231 194.528 85.6918 194.794 85.2625 194.99C84.8425 195.177 84.3571 195.27 83.8065 195.27ZM95.4049 191.014C95.4049 191.257 95.3909 191.513 95.3629 191.784H89.2309C89.2776 192.54 89.5342 193.133 90.0009 193.562C90.4769 193.982 91.0509 194.192 91.7229 194.192C92.2736 194.192 92.7309 194.066 93.0949 193.814C93.4682 193.553 93.7296 193.207 93.8789 192.778H95.2509C95.0456 193.515 94.6349 194.117 94.0189 194.584C93.4029 195.041 92.6376 195.27 91.7229 195.27C90.9949 195.27 90.3416 195.107 89.7629 194.78C89.1936 194.453 88.7456 193.991 88.4189 193.394C88.0922 192.787 87.9289 192.087 87.9289 191.294C87.9289 190.501 88.0876 189.805 88.4049 189.208C88.7222 188.611 89.1656 188.153 89.7349 187.836C90.3136 187.509 90.9762 187.346 91.7229 187.346C92.4509 187.346 93.0949 187.505 93.6549 187.822C94.2149 188.139 94.6442 188.578 94.9429 189.138C95.2509 189.689 95.4049 190.314 95.4049 191.014ZM94.0889 190.748C94.0889 190.263 93.9816 189.847 93.7669 189.502C93.5522 189.147 93.2582 188.881 92.8849 188.704C92.5209 188.517 92.1149 188.424 91.6669 188.424C91.0229 188.424 90.4722 188.629 90.0149 189.04C89.5669 189.451 89.3102 190.02 89.2449 190.748H94.0889ZM98.3605 188.718C98.5845 188.279 98.9019 187.939 99.3125 187.696C99.7325 187.453 100.241 187.332 100.839 187.332V188.648H100.503C99.0745 188.648 98.3605 189.423 98.3605 190.972V195.144H97.0865V187.472H98.3605V188.718ZM106.047 187.332C106.981 187.332 107.737 187.617 108.315 188.186C108.894 188.746 109.183 189.558 109.183 190.622V195.144H107.923V190.804C107.923 190.039 107.732 189.455 107.349 189.054C106.967 188.643 106.444 188.438 105.781 188.438C105.109 188.438 104.573 188.648 104.171 189.068C103.779 189.488 103.583 190.099 103.583 190.902V195.144H102.309V187.472H103.583V188.564C103.835 188.172 104.176 187.869 104.605 187.654C105.044 187.439 105.525 187.332 106.047 187.332ZM110.788 191.28C110.788 190.496 110.947 189.81 111.264 189.222C111.582 188.625 112.016 188.163 112.566 187.836C113.126 187.509 113.747 187.346 114.428 187.346C115.1 187.346 115.684 187.491 116.178 187.78C116.673 188.069 117.042 188.433 117.284 188.872V187.472H118.572V195.144H117.284V193.716C117.032 194.164 116.654 194.537 116.15 194.836C115.656 195.125 115.077 195.27 114.414 195.27C113.733 195.27 113.117 195.102 112.566 194.766C112.016 194.43 111.582 193.959 111.264 193.352C110.947 192.745 110.788 192.055 110.788 191.28ZM117.284 191.294C117.284 190.715 117.168 190.211 116.934 189.782C116.701 189.353 116.384 189.026 115.982 188.802C115.59 188.569 115.156 188.452 114.68 188.452C114.204 188.452 113.77 188.564 113.378 188.788C112.986 189.012 112.674 189.339 112.44 189.768C112.207 190.197 112.09 190.701 112.09 191.28C112.09 191.868 112.207 192.381 112.44 192.82C112.674 193.249 112.986 193.581 113.378 193.814C113.77 194.038 114.204 194.15 114.68 194.15C115.156 194.15 115.59 194.038 115.982 193.814C116.384 193.581 116.701 193.249 116.934 192.82C117.168 192.381 117.284 191.873 117.284 191.294ZM129.951 187.332C130.549 187.332 131.081 187.458 131.547 187.71C132.014 187.953 132.383 188.321 132.653 188.816C132.924 189.311 133.059 189.913 133.059 190.622V195.144H131.799V190.804C131.799 190.039 131.608 189.455 131.225 189.054C130.852 188.643 130.343 188.438 129.699 188.438C129.037 188.438 128.509 188.653 128.117 189.082C127.725 189.502 127.529 190.113 127.529 190.916V195.144H126.269V190.804C126.269 190.039 126.078 189.455 125.695 189.054C125.322 188.643 124.813 188.438 124.169 188.438C123.507 188.438 122.979 188.653 122.587 189.082C122.195 189.502 121.999 190.113 121.999 190.916V195.144H120.725V187.472H121.999V188.578C122.251 188.177 122.587 187.869 123.007 187.654C123.437 187.439 123.908 187.332 124.421 187.332C125.065 187.332 125.635 187.477 126.129 187.766C126.624 188.055 126.993 188.48 127.235 189.04C127.45 188.499 127.805 188.079 128.299 187.78C128.794 187.481 129.345 187.332 129.951 187.332ZM142.149 191.014C142.149 191.257 142.135 191.513 142.107 191.784H135.975C136.022 192.54 136.278 193.133 136.745 193.562C137.221 193.982 137.795 194.192 138.467 194.192C139.018 194.192 139.475 194.066 139.839 193.814C140.212 193.553 140.474 193.207 140.623 192.778H141.995C141.79 193.515 141.379 194.117 140.763 194.584C140.147 195.041 139.382 195.27 138.467 195.27C137.739 195.27 137.086 195.107 136.507 194.78C135.938 194.453 135.49 193.991 135.163 193.394C134.836 192.787 134.673 192.087 134.673 191.294C134.673 190.501 134.832 189.805 135.149 189.208C135.466 188.611 135.91 188.153 136.479 187.836C137.058 187.509 137.72 187.346 138.467 187.346C139.195 187.346 139.839 187.505 140.399 187.822C140.959 188.139 141.388 188.578 141.687 189.138C141.995 189.689 142.149 190.314 142.149 191.014ZM140.833 190.748C140.833 190.263 140.726 189.847 140.511 189.502C140.296 189.147 140.002 188.881 139.629 188.704C139.265 188.517 138.859 188.424 138.411 188.424C137.767 188.424 137.216 188.629 136.759 189.04C136.311 189.451 136.054 190.02 135.989 190.748H140.833ZM150.831 186.17C151.867 186.17 152.767 186.366 153.533 186.758C154.298 187.15 154.886 187.701 155.297 188.41C155.707 189.11 155.913 189.922 155.913 190.846C155.913 191.583 155.791 192.293 155.549 192.974C155.306 193.646 154.951 194.192 154.485 194.612C154.027 195.032 153.491 195.242 152.875 195.242C152.408 195.242 152.049 195.125 151.797 194.892C151.545 194.659 151.4 194.341 151.363 193.94C151.073 194.341 150.705 194.659 150.257 194.892C149.818 195.125 149.351 195.242 148.857 195.242C148.147 195.242 147.587 195.027 147.177 194.598C146.775 194.159 146.575 193.571 146.575 192.834C146.575 192.134 146.719 191.481 147.009 190.874C147.307 190.267 147.718 189.782 148.241 189.418C148.763 189.045 149.356 188.858 150.019 188.858C150.905 188.858 151.503 189.194 151.811 189.866L151.965 188.998H153.071L152.371 193.044C152.343 193.221 152.329 193.385 152.329 193.534C152.329 194.094 152.576 194.374 153.071 194.374C153.444 194.374 153.766 194.197 154.037 193.842C154.317 193.487 154.527 193.044 154.667 192.512C154.807 191.971 154.877 191.439 154.877 190.916C154.877 189.693 154.508 188.746 153.771 188.074C153.043 187.402 152.011 187.066 150.677 187.066C149.566 187.066 148.563 187.337 147.667 187.878C146.78 188.41 146.085 189.143 145.581 190.076C145.077 191.009 144.825 192.041 144.825 193.17C144.815 194.402 145.184 195.349 145.931 196.012C146.677 196.684 147.713 197.02 149.039 197.02C149.916 197.02 150.691 196.861 151.363 196.544L151.531 197.412C150.7 197.757 149.785 197.93 148.787 197.93C147.788 197.93 146.906 197.739 146.141 197.356C145.385 196.983 144.797 196.441 144.377 195.732C143.966 195.032 143.761 194.215 143.761 193.282C143.761 191.966 144.064 190.767 144.671 189.684C145.277 188.592 146.117 187.733 147.191 187.108C148.273 186.483 149.487 186.17 150.831 186.17ZM149.235 194.248C149.655 194.248 150.042 194.127 150.397 193.884C150.751 193.632 151.031 193.296 151.237 192.876C151.442 192.447 151.545 191.98 151.545 191.476C151.545 190.991 151.409 190.599 151.139 190.3C150.877 189.992 150.504 189.838 150.019 189.838C149.571 189.838 149.174 189.973 148.829 190.244C148.493 190.505 148.231 190.855 148.045 191.294C147.858 191.723 147.765 192.171 147.765 192.638C147.765 193.133 147.891 193.525 148.143 193.814C148.395 194.103 148.759 194.248 149.235 194.248ZM161.172 187.346C161.835 187.346 162.414 187.491 162.908 187.78C163.412 188.069 163.786 188.433 164.028 188.872V187.472H165.316V195.312C165.316 196.012 165.167 196.633 164.868 197.174C164.57 197.725 164.14 198.154 163.58 198.462C163.03 198.77 162.386 198.924 161.648 198.924C160.64 198.924 159.8 198.686 159.128 198.21C158.456 197.734 158.06 197.085 157.938 196.264H159.198C159.338 196.731 159.628 197.104 160.066 197.384C160.505 197.673 161.032 197.818 161.648 197.818C162.348 197.818 162.918 197.599 163.356 197.16C163.804 196.721 164.028 196.105 164.028 195.312V193.702C163.776 194.15 163.403 194.523 162.908 194.822C162.414 195.121 161.835 195.27 161.172 195.27C160.491 195.27 159.87 195.102 159.31 194.766C158.76 194.43 158.326 193.959 158.008 193.352C157.691 192.745 157.532 192.055 157.532 191.28C157.532 190.496 157.691 189.81 158.008 189.222C158.326 188.625 158.76 188.163 159.31 187.836C159.87 187.509 160.491 187.346 161.172 187.346ZM164.028 191.294C164.028 190.715 163.912 190.211 163.678 189.782C163.445 189.353 163.128 189.026 162.726 188.802C162.334 188.569 161.9 188.452 161.424 188.452C160.948 188.452 160.514 188.564 160.122 188.788C159.73 189.012 159.418 189.339 159.184 189.768C158.951 190.197 158.834 190.701 158.834 191.28C158.834 191.868 158.951 192.381 159.184 192.82C159.418 193.249 159.73 193.581 160.122 193.814C160.514 194.038 160.948 194.15 161.424 194.15C161.9 194.15 162.334 194.038 162.726 193.814C163.128 193.581 163.445 193.249 163.678 192.82C163.912 192.381 164.028 191.873 164.028 191.294ZM176.695 187.332C177.293 187.332 177.825 187.458 178.291 187.71C178.758 187.953 179.127 188.321 179.397 188.816C179.668 189.311 179.803 189.913 179.803 190.622V195.144H178.543V190.804C178.543 190.039 178.352 189.455 177.969 189.054C177.596 188.643 177.087 188.438 176.443 188.438C175.781 188.438 175.253 188.653 174.861 189.082C174.469 189.502 174.273 190.113 174.273 190.916V195.144H173.013V190.804C173.013 190.039 172.822 189.455 172.439 189.054C172.066 188.643 171.557 188.438 170.913 188.438C170.251 188.438 169.723 188.653 169.331 189.082C168.939 189.502 168.743 190.113 168.743 190.916V195.144H167.469V187.472H168.743V188.578C168.995 188.177 169.331 187.869 169.751 187.654C170.181 187.439 170.652 187.332 171.165 187.332C171.809 187.332 172.379 187.477 172.873 187.766C173.368 188.055 173.737 188.48 173.979 189.04C174.194 188.499 174.549 188.079 175.043 187.78C175.538 187.481 176.089 187.332 176.695 187.332ZM181.417 191.28C181.417 190.496 181.576 189.81 181.893 189.222C182.211 188.625 182.645 188.163 183.195 187.836C183.755 187.509 184.376 187.346 185.057 187.346C185.729 187.346 186.313 187.491 186.807 187.78C187.302 188.069 187.671 188.433 187.913 188.872V187.472H189.201V195.144H187.913V193.716C187.661 194.164 187.283 194.537 186.779 194.836C186.285 195.125 185.706 195.27 185.043 195.27C184.362 195.27 183.746 195.102 183.195 194.766C182.645 194.43 182.211 193.959 181.893 193.352C181.576 192.745 181.417 192.055 181.417 191.28ZM187.913 191.294C187.913 190.715 187.797 190.211 187.563 189.782C187.33 189.353 187.013 189.026 186.611 188.802C186.219 188.569 185.785 188.452 185.309 188.452C184.833 188.452 184.399 188.564 184.007 188.788C183.615 189.012 183.303 189.339 183.069 189.768C182.836 190.197 182.719 190.701 182.719 191.28C182.719 191.868 182.836 192.381 183.069 192.82C183.303 193.249 183.615 193.581 184.007 193.814C184.399 194.038 184.833 194.15 185.309 194.15C185.785 194.15 186.219 194.038 186.611 193.814C187.013 193.581 187.33 193.249 187.563 192.82C187.797 192.381 187.913 191.873 187.913 191.294ZM192.012 186.226C191.769 186.226 191.564 186.142 191.396 185.974C191.228 185.806 191.144 185.601 191.144 185.358C191.144 185.115 191.228 184.91 191.396 184.742C191.564 184.574 191.769 184.49 192.012 184.49C192.245 184.49 192.441 184.574 192.6 184.742C192.768 184.91 192.852 185.115 192.852 185.358C192.852 185.601 192.768 185.806 192.6 185.974C192.441 186.142 192.245 186.226 192.012 186.226ZM192.628 187.472V195.144H191.354V187.472H192.628ZM196.073 184.784V195.144H194.799V184.784H196.073ZM198.651 195.228C198.408 195.228 198.203 195.144 198.035 194.976C197.867 194.808 197.783 194.603 197.783 194.36C197.783 194.117 197.867 193.912 198.035 193.744C198.203 193.576 198.408 193.492 198.651 193.492C198.884 193.492 199.08 193.576 199.239 193.744C199.407 193.912 199.491 194.117 199.491 194.36C199.491 194.603 199.407 194.808 199.239 194.976C199.08 195.144 198.884 195.228 198.651 195.228ZM200.708 191.294C200.708 190.501 200.867 189.81 201.184 189.222C201.502 188.625 201.94 188.163 202.5 187.836C203.07 187.509 203.718 187.346 204.446 187.346C205.389 187.346 206.164 187.575 206.77 188.032C207.386 188.489 207.792 189.124 207.988 189.936H206.616C206.486 189.469 206.229 189.101 205.846 188.83C205.473 188.559 205.006 188.424 204.446 188.424C203.718 188.424 203.13 188.676 202.682 189.18C202.234 189.675 202.01 190.379 202.01 191.294C202.01 192.218 202.234 192.932 202.682 193.436C203.13 193.94 203.718 194.192 204.446 194.192C205.006 194.192 205.473 194.061 205.846 193.8C206.22 193.539 206.476 193.165 206.616 192.68H207.988C207.783 193.464 207.372 194.094 206.756 194.57C206.14 195.037 205.37 195.27 204.446 195.27C203.718 195.27 203.07 195.107 202.5 194.78C201.94 194.453 201.502 193.991 201.184 193.394C200.867 192.797 200.708 192.097 200.708 191.294ZM213.034 195.27C212.315 195.27 211.662 195.107 211.074 194.78C210.495 194.453 210.038 193.991 209.702 193.394C209.375 192.787 209.212 192.087 209.212 191.294C209.212 190.51 209.38 189.819 209.716 189.222C210.061 188.615 210.528 188.153 211.116 187.836C211.704 187.509 212.362 187.346 213.09 187.346C213.818 187.346 214.476 187.509 215.064 187.836C215.652 188.153 216.114 188.611 216.45 189.208C216.795 189.805 216.968 190.501 216.968 191.294C216.968 192.087 216.791 192.787 216.436 193.394C216.091 193.991 215.619 194.453 215.022 194.78C214.425 195.107 213.762 195.27 213.034 195.27ZM213.034 194.15C213.491 194.15 213.921 194.043 214.322 193.828C214.723 193.613 215.045 193.291 215.288 192.862C215.54 192.433 215.666 191.91 215.666 191.294C215.666 190.678 215.545 190.155 215.302 189.726C215.059 189.297 214.742 188.979 214.35 188.774C213.958 188.559 213.533 188.452 213.076 188.452C212.609 188.452 212.18 188.559 211.788 188.774C211.405 188.979 211.097 189.297 210.864 189.726C210.631 190.155 210.514 190.678 210.514 191.294C210.514 191.919 210.626 192.447 210.85 192.876C211.083 193.305 211.391 193.627 211.774 193.842C212.157 194.047 212.577 194.15 213.034 194.15ZM227.869 187.332C228.467 187.332 228.999 187.458 229.465 187.71C229.932 187.953 230.301 188.321 230.571 188.816C230.842 189.311 230.977 189.913 230.977 190.622V195.144H229.717V190.804C229.717 190.039 229.526 189.455 229.143 189.054C228.77 188.643 228.261 188.438 227.617 188.438C226.955 188.438 226.427 188.653 226.035 189.082C225.643 189.502 225.447 190.113 225.447 190.916V195.144H224.187V190.804C224.187 190.039 223.996 189.455 223.613 189.054C223.24 188.643 222.731 188.438 222.087 188.438C221.425 188.438 220.897 188.653 220.505 189.082C220.113 189.502 219.917 190.113 219.917 190.916V195.144H218.643V187.472H219.917V188.578C220.169 188.177 220.505 187.869 220.925 187.654C221.355 187.439 221.826 187.332 222.339 187.332C222.983 187.332 223.553 187.477 224.047 187.766C224.542 188.055 224.911 188.48 225.153 189.04C225.368 188.499 225.723 188.079 226.217 187.78C226.712 187.481 227.263 187.332 227.869 187.332Z" fill="#6D6E70"/>
<path d="M52.032 59.048V64.64H58.128V66.44H52.032V72.2H58.848V74H49.848V57.248H58.848V59.048H52.032ZM68.5607 60.608C70.1607 60.608 71.4567 61.096 72.4487 62.072C73.4407 63.032 73.9367 64.424 73.9367 66.248V74H71.7767V66.56C71.7767 65.248 71.4487 64.248 70.7927 63.56C70.1367 62.856 69.2407 62.504 68.1047 62.504C66.9527 62.504 66.0327 62.864 65.3447 63.584C64.6727 64.304 64.3367 65.352 64.3367 66.728V74H62.1527V60.848H64.3367V62.72C64.7687 62.048 65.3527 61.528 66.0887 61.16C66.8407 60.792 67.6647 60.608 68.5607 60.608ZM80.1683 62.648V70.4C80.1683 71.04 80.3043 71.496 80.5763 71.768C80.8483 72.024 81.3203 72.152 81.9922 72.152H83.6003V74H81.6323C80.4163 74 79.5043 73.72 78.8963 73.16C78.2883 72.6 77.9843 71.68 77.9843 70.4V62.648H76.2803V60.848H77.9843V57.536H80.1683V60.848H83.6003V62.648H80.1683ZM98.2464 66.92C98.2464 67.336 98.2224 67.776 98.1744 68.24H87.6624C87.7424 69.536 88.1824 70.552 88.9824 71.288C89.7984 72.008 90.7824 72.368 91.9344 72.368C92.8784 72.368 93.6624 72.152 94.2864 71.72C94.9264 71.272 95.3744 70.68 95.6304 69.944H97.9824C97.6304 71.208 96.9264 72.24 95.8704 73.04C94.8144 73.824 93.5024 74.216 91.9344 74.216C90.6864 74.216 89.5664 73.936 88.5744 73.376C87.5984 72.816 86.8304 72.024 86.2704 71C85.7104 69.96 85.4304 68.76 85.4304 67.4C85.4304 66.04 85.7024 64.848 86.2464 63.824C86.7904 62.8 87.5504 62.016 88.5264 61.472C89.5184 60.912 90.6544 60.632 91.9344 60.632C93.1824 60.632 94.2864 60.904 95.2464 61.448C96.2064 61.992 96.9424 62.744 97.4544 63.704C97.9824 64.648 98.2464 65.72 98.2464 66.92ZM95.9904 66.464C95.9904 65.632 95.8064 64.92 95.4384 64.328C95.0704 63.72 94.5664 63.264 93.9264 62.96C93.3024 62.64 92.6064 62.48 91.8384 62.48C90.7344 62.48 89.7904 62.832 89.0064 63.536C88.2384 64.24 87.7984 65.216 87.6864 66.464H95.9904ZM103.313 62.984C103.697 62.232 104.241 61.648 104.945 61.232C105.665 60.816 106.537 60.608 107.561 60.608V62.864H106.985C104.537 62.864 103.313 64.192 103.313 66.848V74H101.129V60.848H103.313V62.984ZM115.665 65.624C115.665 63.992 116.033 62.528 116.769 61.232C117.505 59.92 118.505 58.896 119.769 58.16C121.049 57.424 122.465 57.056 124.017 57.056C125.841 57.056 127.433 57.496 128.793 58.376C130.153 59.256 131.145 60.504 131.769 62.12H129.153C128.689 61.112 128.017 60.336 127.137 59.792C126.273 59.248 125.233 58.976 124.017 58.976C122.849 58.976 121.801 59.248 120.873 59.792C119.945 60.336 119.217 61.112 118.689 62.12C118.161 63.112 117.897 64.28 117.897 65.624C117.897 66.952 118.161 68.12 118.689 69.128C119.217 70.12 119.945 70.888 120.873 71.432C121.801 71.976 122.849 72.248 124.017 72.248C125.233 72.248 126.273 71.984 127.137 71.456C128.017 70.912 128.689 70.136 129.153 69.128H131.769C131.145 70.728 130.153 71.968 128.793 72.848C127.433 73.712 125.841 74.144 124.017 74.144C122.465 74.144 121.049 73.784 119.769 73.064C118.505 72.328 117.505 71.312 116.769 70.016C116.033 68.72 115.665 67.256 115.665 65.624ZM140.756 74.216C139.524 74.216 138.404 73.936 137.396 73.376C136.404 72.816 135.62 72.024 135.044 71C134.484 69.96 134.204 68.76 134.204 67.4C134.204 66.056 134.492 64.872 135.068 63.848C135.66 62.808 136.46 62.016 137.468 61.472C138.476 60.912 139.604 60.632 140.852 60.632C142.1 60.632 143.228 60.912 144.236 61.472C145.244 62.016 146.036 62.8 146.612 63.824C147.204 64.848 147.5 66.04 147.5 67.4C147.5 68.76 147.196 69.96 146.588 71C145.996 72.024 145.188 72.816 144.164 73.376C143.14 73.936 142.004 74.216 140.756 74.216ZM140.756 72.296C141.54 72.296 142.276 72.112 142.964 71.744C143.652 71.376 144.204 70.824 144.62 70.088C145.052 69.352 145.268 68.456 145.268 67.4C145.268 66.344 145.06 65.448 144.644 64.712C144.228 63.976 143.684 63.432 143.012 63.08C142.34 62.712 141.612 62.528 140.828 62.528C140.028 62.528 139.292 62.712 138.62 63.08C137.964 63.432 137.436 63.976 137.036 64.712C136.636 65.448 136.436 66.344 136.436 67.4C136.436 68.472 136.628 69.376 137.012 70.112C137.412 70.848 137.94 71.4 138.596 71.768C139.252 72.12 139.972 72.296 140.756 72.296ZM149.555 67.376C149.555 66.032 149.827 64.856 150.371 63.848C150.915 62.824 151.659 62.032 152.603 61.472C153.563 60.912 154.635 60.632 155.819 60.632C156.843 60.632 157.795 60.872 158.675 61.352C159.555 61.816 160.227 62.432 160.691 63.2V56.24H162.899V74H160.691V71.528C160.259 72.312 159.619 72.96 158.771 73.472C157.923 73.968 156.931 74.216 155.795 74.216C154.627 74.216 153.563 73.928 152.603 73.352C151.659 72.776 150.915 71.968 150.371 70.928C149.827 69.888 149.555 68.704 149.555 67.376ZM160.691 67.4C160.691 66.408 160.491 65.544 160.091 64.808C159.691 64.072 159.147 63.512 158.459 63.128C157.787 62.728 157.043 62.528 156.227 62.528C155.411 62.528 154.667 62.72 153.995 63.104C153.323 63.488 152.787 64.048 152.387 64.784C151.987 65.52 151.787 66.384 151.787 67.376C151.787 68.384 151.987 69.264 152.387 70.016C152.787 70.752 153.323 71.32 153.995 71.72C154.667 72.104 155.411 72.296 156.227 72.296C157.043 72.296 157.787 72.104 158.459 71.72C159.147 71.32 159.691 70.752 160.091 70.016C160.491 69.264 160.691 68.392 160.691 67.4ZM178.59 66.92C178.59 67.336 178.566 67.776 178.518 68.24H168.006C168.086 69.536 168.526 70.552 169.326 71.288C170.142 72.008 171.126 72.368 172.278 72.368C173.222 72.368 174.006 72.152 174.63 71.72C175.27 71.272 175.718 70.68 175.974 69.944H178.326C177.974 71.208 177.27 72.24 176.214 73.04C175.158 73.824 173.846 74.216 172.278 74.216C171.03 74.216 169.91 73.936 168.918 73.376C167.942 72.816 167.174 72.024 166.614 71C166.054 69.96 165.774 68.76 165.774 67.4C165.774 66.04 166.046 64.848 166.59 63.824C167.134 62.8 167.894 62.016 168.87 61.472C169.862 60.912 170.998 60.632 172.278 60.632C173.526 60.632 174.63 60.904 175.59 61.448C176.55 61.992 177.286 62.744 177.798 63.704C178.326 64.648 178.59 65.72 178.59 66.92ZM176.334 66.464C176.334 65.632 176.15 64.92 175.782 64.328C175.414 63.72 174.91 63.264 174.27 62.96C173.646 62.64 172.95 62.48 172.182 62.48C171.078 62.48 170.134 62.832 169.35 63.536C168.582 64.24 168.142 65.216 168.03 66.464H176.334Z" fill="white"/>
<path d="M50.1 90.5437V94.1977H53.81V95.0097H50.1V98.7197H54.23V99.5317H49.12V89.7317H54.23V90.5437H50.1ZM59.745 91.7477C60.6597 91.7477 61.4063 92.0323 61.985 92.6017C62.5637 93.1617 62.853 93.9783 62.853 95.0517V99.5317H61.887V95.1637C61.887 94.333 61.677 93.6983 61.257 93.2597C60.8463 92.821 60.2817 92.6017 59.563 92.6017C58.8257 92.6017 58.2377 92.835 57.799 93.3017C57.3603 93.7683 57.141 94.4543 57.141 95.3597V99.5317H56.161V91.8877H57.141V93.1897C57.3837 92.723 57.7337 92.3683 58.191 92.1257C58.6483 91.8737 59.1663 91.7477 59.745 91.7477ZM66.2944 92.7137V97.4597C66.2944 97.9263 66.3831 98.2483 66.5604 98.4257C66.7377 98.603 67.0504 98.6917 67.4984 98.6917H68.3944V99.5317H67.3444C66.6537 99.5317 66.1404 99.373 65.8044 99.0557C65.4684 98.729 65.3004 98.197 65.3004 97.4597V92.7137H64.2364V91.8877H65.3004V89.9697H66.2944V91.8877H68.3944V92.7137H66.2944ZM76.9266 95.3177C76.9266 95.6537 76.9173 95.9103 76.8986 96.0877H70.5566C70.5846 96.6663 70.7246 97.161 70.9766 97.5717C71.2286 97.9823 71.56 98.295 71.9706 98.5097C72.3813 98.715 72.8293 98.8177 73.3146 98.8177C73.9493 98.8177 74.4813 98.6637 74.9106 98.3557C75.3493 98.0477 75.6386 97.6323 75.7786 97.1097H76.8146C76.628 97.8563 76.2266 98.4677 75.6106 98.9437C75.004 99.4103 74.2386 99.6437 73.3146 99.6437C72.596 99.6437 71.952 99.485 71.3826 99.1677C70.8133 98.841 70.3653 98.3837 70.0386 97.7957C69.7213 97.1983 69.5626 96.503 69.5626 95.7097C69.5626 94.9163 69.7213 94.221 70.0386 93.6237C70.356 93.0263 70.7993 92.569 71.3686 92.2517C71.938 91.9343 72.5866 91.7757 73.3146 91.7757C74.0426 91.7757 74.6773 91.9343 75.2186 92.2517C75.7693 92.569 76.1893 92.9983 76.4786 93.5397C76.7773 94.0717 76.9266 94.6643 76.9266 95.3177ZM75.9326 95.2897C75.942 94.7203 75.8253 94.235 75.5826 93.8337C75.3493 93.4323 75.0273 93.129 74.6166 92.9237C74.206 92.7183 73.758 92.6157 73.2726 92.6157C72.5446 92.6157 71.924 92.849 71.4106 93.3157C70.8973 93.7823 70.6126 94.4403 70.5566 95.2897H75.9326ZM79.6996 93.2457C79.9143 92.7697 80.2409 92.401 80.6796 92.1397C81.1276 91.8783 81.6736 91.7477 82.3176 91.7477V92.7697H82.0516C81.3423 92.7697 80.7729 92.961 80.3436 93.3437C79.9143 93.7263 79.6996 94.3657 79.6996 95.2617V99.5317H78.7196V91.8877H79.6996V93.2457ZM88.9077 92.7137V97.4597C88.9077 97.9263 88.9963 98.2483 89.1737 98.4257C89.351 98.603 89.6637 98.6917 90.1117 98.6917H91.0077V99.5317H89.9577C89.267 99.5317 88.7537 99.373 88.4177 99.0557C88.0817 98.729 87.9137 98.197 87.9137 97.4597V92.7137H86.8497V91.8877H87.9137V89.9697H88.9077V91.8877H91.0077V92.7137H88.9077ZM96.2639 91.7477C96.8426 91.7477 97.3606 91.869 97.8179 92.1117C98.2846 92.3543 98.6486 92.7277 98.9099 93.2317C99.1806 93.7263 99.3159 94.333 99.3159 95.0517V99.5317H98.3499V95.1637C98.3499 94.333 98.1399 93.6983 97.7199 93.2597C97.3092 92.821 96.7446 92.6017 96.0259 92.6017C95.2886 92.6017 94.7006 92.835 94.2619 93.3017C93.8232 93.7683 93.6039 94.4543 93.6039 95.3597V99.5317H92.6239V89.1717H93.6039V93.1897C93.8466 92.7323 94.2012 92.3777 94.6679 92.1257C95.1439 91.8737 95.6759 91.7477 96.2639 91.7477ZM108.399 95.3177C108.399 95.6537 108.39 95.9103 108.371 96.0877H102.029C102.057 96.6663 102.197 97.161 102.449 97.5717C102.701 97.9823 103.033 98.295 103.443 98.5097C103.854 98.715 104.302 98.8177 104.787 98.8177C105.422 98.8177 105.954 98.6637 106.383 98.3557C106.822 98.0477 107.111 97.6323 107.251 97.1097H108.287C108.101 97.8563 107.699 98.4677 107.083 98.9437C106.477 99.4103 105.711 99.6437 104.787 99.6437C104.069 99.6437 103.425 99.485 102.855 99.1677C102.286 98.841 101.838 98.3837 101.511 97.7957C101.194 97.1983 101.035 96.503 101.035 95.7097C101.035 94.9163 101.194 94.221 101.511 93.6237C101.829 93.0263 102.272 92.569 102.841 92.2517C103.411 91.9343 104.059 91.7757 104.787 91.7757C105.515 91.7757 106.15 91.9343 106.691 92.2517C107.242 92.569 107.662 92.9983 107.951 93.5397C108.25 94.0717 108.399 94.6643 108.399 95.3177ZM107.405 95.2897C107.415 94.7203 107.298 94.235 107.055 93.8337C106.822 93.4323 106.5 93.129 106.089 92.9237C105.679 92.7183 105.231 92.6157 104.745 92.6157C104.017 92.6157 103.397 92.849 102.883 93.3157C102.37 93.7823 102.085 94.4403 102.029 95.2897H107.405ZM113.586 95.7097C113.586 94.9163 113.745 94.2257 114.062 93.6377C114.379 93.0403 114.818 92.583 115.378 92.2657C115.938 91.939 116.577 91.7757 117.296 91.7757C118.239 91.7757 119.013 92.009 119.62 92.4757C120.236 92.9423 120.633 93.577 120.81 94.3797H119.76C119.629 93.829 119.345 93.3997 118.906 93.0917C118.477 92.7743 117.94 92.6157 117.296 92.6157C116.783 92.6157 116.321 92.7323 115.91 92.9657C115.499 93.199 115.173 93.549 114.93 94.0157C114.697 94.473 114.58 95.0377 114.58 95.7097C114.58 96.3817 114.697 96.951 114.93 97.4177C115.173 97.8843 115.499 98.2343 115.91 98.4677C116.321 98.701 116.783 98.8177 117.296 98.8177C117.94 98.8177 118.477 98.6637 118.906 98.3557C119.345 98.0383 119.629 97.5997 119.76 97.0397H120.81C120.633 97.8237 120.236 98.4537 119.62 98.9297C119.004 99.4057 118.229 99.6437 117.296 99.6437C116.577 99.6437 115.938 99.485 115.378 99.1677C114.818 98.841 114.379 98.3837 114.062 97.7957C113.745 97.1983 113.586 96.503 113.586 95.7097ZM125.966 99.6437C125.247 99.6437 124.599 99.485 124.02 99.1677C123.451 98.841 122.998 98.3837 122.662 97.7957C122.335 97.1983 122.172 96.503 122.172 95.7097C122.172 94.9163 122.34 94.2257 122.676 93.6377C123.012 93.0403 123.469 92.583 124.048 92.2657C124.627 91.939 125.275 91.7757 125.994 91.7757C126.713 91.7757 127.361 91.939 127.94 92.2657C128.528 92.583 128.985 93.0403 129.312 93.6377C129.648 94.2257 129.816 94.9163 129.816 95.7097C129.816 96.4937 129.648 97.1843 129.312 97.7817C128.976 98.379 128.514 98.841 127.926 99.1677C127.338 99.485 126.685 99.6437 125.966 99.6437ZM125.966 98.7897C126.47 98.7897 126.937 98.6777 127.366 98.4537C127.795 98.2203 128.141 97.875 128.402 97.4177C128.673 96.951 128.808 96.3817 128.808 95.7097C128.808 95.0377 128.677 94.473 128.416 94.0157C128.155 93.549 127.809 93.2037 127.38 92.9797C126.951 92.7463 126.484 92.6297 125.98 92.6297C125.476 92.6297 125.009 92.7463 124.58 92.9797C124.151 93.2037 123.805 93.549 123.544 94.0157C123.292 94.473 123.166 95.0377 123.166 95.7097C123.166 96.3817 123.292 96.951 123.544 97.4177C123.805 97.875 124.146 98.2203 124.566 98.4537C124.995 98.6777 125.462 98.7897 125.966 98.7897ZM131.154 95.6957C131.154 94.9117 131.313 94.2257 131.63 93.6377C131.948 93.0403 132.382 92.583 132.932 92.2657C133.492 91.939 134.122 91.7757 134.822 91.7757C135.494 91.7757 136.101 91.939 136.642 92.2657C137.184 92.5923 137.58 93.017 137.832 93.5397V89.1717H138.812V99.5317H137.832V97.8237C137.599 98.3557 137.216 98.7943 136.684 99.1397C136.152 99.4757 135.527 99.6437 134.808 99.6437C134.108 99.6437 133.478 99.4803 132.918 99.1537C132.368 98.827 131.934 98.365 131.616 97.7677C131.308 97.1703 131.154 96.4797 131.154 95.6957ZM137.832 95.7097C137.832 95.0937 137.706 94.5523 137.454 94.0857C137.202 93.619 136.857 93.2597 136.418 93.0077C135.989 92.7557 135.513 92.6297 134.99 92.6297C134.449 92.6297 133.964 92.751 133.534 92.9937C133.105 93.2363 132.764 93.591 132.512 94.0577C132.27 94.515 132.148 95.061 132.148 95.6957C132.148 96.321 132.27 96.8717 132.512 97.3477C132.764 97.8143 133.105 98.1737 133.534 98.4257C133.964 98.6683 134.449 98.7897 134.99 98.7897C135.513 98.7897 135.989 98.6637 136.418 98.4117C136.857 98.1597 137.202 97.8003 137.454 97.3337C137.706 96.867 137.832 96.3257 137.832 95.7097ZM147.966 95.3177C147.966 95.6537 147.956 95.9103 147.938 96.0877H141.596C141.624 96.6663 141.764 97.161 142.016 97.5717C142.268 97.9823 142.599 98.295 143.01 98.5097C143.42 98.715 143.868 98.8177 144.354 98.8177C144.988 98.8177 145.52 98.6637 145.95 98.3557C146.388 98.0477 146.678 97.6323 146.818 97.1097H147.854C147.667 97.8563 147.266 98.4677 146.65 98.9437C146.043 99.4103 145.278 99.6437 144.354 99.6437C143.635 99.6437 142.991 99.485 142.422 99.1677C141.852 98.841 141.404 98.3837 141.078 97.7957C140.76 97.1983 140.602 96.503 140.602 95.7097C140.602 94.9163 140.76 94.221 141.078 93.6237C141.395 93.0263 141.838 92.569 142.408 92.2517C142.977 91.9343 143.626 91.7757 144.354 91.7757C145.082 91.7757 145.716 91.9343 146.258 92.2517C146.808 92.569 147.228 92.9983 147.518 93.5397C147.816 94.0717 147.966 94.6643 147.966 95.3177ZM146.972 95.2897C146.981 94.7203 146.864 94.235 146.622 93.8337C146.388 93.4323 146.066 93.129 145.656 92.9237C145.245 92.7183 144.797 92.6157 144.312 92.6157C143.584 92.6157 142.963 92.849 142.45 93.3157C141.936 93.7823 141.652 94.4403 141.596 95.2897H146.972ZM163.68 91.8877L161.286 99.5317H160.306L158.192 93.1197L156.078 99.5317H155.084L152.69 91.8877H153.684L155.588 98.5377L157.73 91.8877H158.71L160.824 98.5517L162.714 91.8877H163.68ZM171.932 95.3177C171.932 95.6537 171.923 95.9103 171.904 96.0877H165.562C165.59 96.6663 165.73 97.161 165.982 97.5717C166.234 97.9823 166.566 98.295 166.976 98.5097C167.387 98.715 167.835 98.8177 168.32 98.8177C168.955 98.8177 169.487 98.6637 169.916 98.3557C170.355 98.0477 170.644 97.6323 170.784 97.1097H171.82C171.634 97.8563 171.232 98.4677 170.616 98.9437C170.01 99.4103 169.244 99.6437 168.32 99.6437C167.602 99.6437 166.958 99.485 166.388 99.1677C165.819 98.841 165.371 98.3837 165.044 97.7957C164.727 97.1983 164.568 96.503 164.568 95.7097C164.568 94.9163 164.727 94.221 165.044 93.6237C165.362 93.0263 165.805 92.569 166.374 92.2517C166.944 91.9343 167.592 91.7757 168.32 91.7757C169.048 91.7757 169.683 91.9343 170.224 92.2517C170.775 92.569 171.195 92.9983 171.484 93.5397C171.783 94.0717 171.932 94.6643 171.932 95.3177ZM170.938 95.2897C170.948 94.7203 170.831 94.235 170.588 93.8337C170.355 93.4323 170.033 93.129 169.622 92.9237C169.212 92.7183 168.764 92.6157 168.278 92.6157C167.55 92.6157 166.93 92.849 166.416 93.3157C165.903 93.7823 165.618 94.4403 165.562 95.2897H170.938ZM180.199 99.6437C179.322 99.6437 178.603 99.443 178.043 99.0417C177.493 98.631 177.185 98.0757 177.119 97.3757H178.127C178.174 97.805 178.375 98.155 178.729 98.4257C179.093 98.687 179.579 98.8177 180.185 98.8177C180.717 98.8177 181.133 98.6917 181.431 98.4397C181.739 98.1877 181.893 97.875 181.893 97.5017C181.893 97.2403 181.809 97.0257 181.641 96.8577C181.473 96.6897 181.259 96.559 180.997 96.4657C180.745 96.363 180.4 96.2557 179.961 96.1437C179.392 95.9943 178.93 95.845 178.575 95.6957C178.221 95.5463 177.917 95.327 177.665 95.0377C177.423 94.739 177.301 94.3423 177.301 93.8477C177.301 93.4743 177.413 93.129 177.637 92.8117C177.861 92.4943 178.179 92.2423 178.589 92.0557C179 91.869 179.467 91.7757 179.989 91.7757C180.811 91.7757 181.473 91.9857 181.977 92.4057C182.481 92.8163 182.752 93.3857 182.789 94.1137H181.809C181.781 93.6657 181.604 93.3063 181.277 93.0357C180.96 92.7557 180.521 92.6157 179.961 92.6157C179.467 92.6157 179.065 92.7323 178.757 92.9657C178.449 93.199 178.295 93.4883 178.295 93.8337C178.295 94.1323 178.384 94.3797 178.561 94.5757C178.748 94.7623 178.977 94.9117 179.247 95.0237C179.518 95.1263 179.882 95.243 180.339 95.3737C180.89 95.523 181.329 95.6677 181.655 95.8077C181.982 95.9477 182.262 96.153 182.495 96.4237C182.729 96.6943 182.85 97.0537 182.859 97.5017C182.859 97.9123 182.747 98.281 182.523 98.6077C182.299 98.925 181.987 99.177 181.585 99.3637C181.184 99.5503 180.722 99.6437 180.199 99.6437ZM191.62 95.3177C191.62 95.6537 191.611 95.9103 191.592 96.0877H185.25C185.278 96.6663 185.418 97.161 185.67 97.5717C185.922 97.9823 186.253 98.295 186.664 98.5097C187.075 98.715 187.523 98.8177 188.008 98.8177C188.643 98.8177 189.175 98.6637 189.604 98.3557C190.043 98.0477 190.332 97.6323 190.472 97.1097H191.508C191.321 97.8563 190.92 98.4677 190.304 98.9437C189.697 99.4103 188.932 99.6437 188.008 99.6437C187.289 99.6437 186.645 99.485 186.076 99.1677C185.507 98.841 185.059 98.3837 184.732 97.7957C184.415 97.1983 184.256 96.503 184.256 95.7097C184.256 94.9163 184.415 94.221 184.732 93.6237C185.049 93.0263 185.493 92.569 186.062 92.2517C186.631 91.9343 187.28 91.7757 188.008 91.7757C188.736 91.7757 189.371 91.9343 189.912 92.2517C190.463 92.569 190.883 92.9983 191.172 93.5397C191.471 94.0717 191.62 94.6643 191.62 95.3177ZM190.626 95.2897C190.635 94.7203 190.519 94.235 190.276 93.8337C190.043 93.4323 189.721 93.129 189.31 92.9237C188.899 92.7183 188.451 92.6157 187.966 92.6157C187.238 92.6157 186.617 92.849 186.104 93.3157C185.591 93.7823 185.306 94.4403 185.25 95.2897H190.626ZM196.997 91.7477C197.912 91.7477 198.658 92.0323 199.237 92.6017C199.816 93.1617 200.105 93.9783 200.105 95.0517V99.5317H199.139V95.1637C199.139 94.333 198.929 93.6983 198.509 93.2597C198.098 92.821 197.534 92.6017 196.815 92.6017C196.078 92.6017 195.49 92.835 195.051 93.3017C194.612 93.7683 194.393 94.4543 194.393 95.3597V99.5317H193.413V91.8877H194.393V93.1897C194.636 92.723 194.986 92.3683 195.443 92.1257C195.9 91.8737 196.418 91.7477 196.997 91.7477ZM203.546 92.7137V97.4597C203.546 97.9263 203.635 98.2483 203.812 98.4257C203.99 98.603 204.302 98.6917 204.75 98.6917H205.646V99.5317H204.596C203.906 99.5317 203.392 99.373 203.056 99.0557C202.72 98.729 202.552 98.197 202.552 97.4597V92.7137H201.488V91.8877H202.552V89.9697H203.546V91.8877H205.646V92.7137H203.546ZM212.378 92.7137V97.4597C212.378 97.9263 212.467 98.2483 212.644 98.4257C212.822 98.603 213.134 98.6917 213.582 98.6917H214.478V99.5317H213.428C212.738 99.5317 212.224 99.373 211.888 99.0557C211.552 98.729 211.384 98.197 211.384 97.4597V92.7137H210.32V91.8877H211.384V89.9697H212.378V91.8877H214.478V92.7137H212.378ZM219.441 99.6437C218.722 99.6437 218.073 99.485 217.495 99.1677C216.925 98.841 216.473 98.3837 216.137 97.7957C215.81 97.1983 215.647 96.503 215.647 95.7097C215.647 94.9163 215.815 94.2257 216.151 93.6377C216.487 93.0403 216.944 92.583 217.523 92.2657C218.101 91.939 218.75 91.7757 219.469 91.7757C220.187 91.7757 220.836 91.939 221.415 92.2657C222.003 92.583 222.46 93.0403 222.787 93.6377C223.123 94.2257 223.291 94.9163 223.291 95.7097C223.291 96.4937 223.123 97.1843 222.787 97.7817C222.451 98.379 221.989 98.841 221.401 99.1677C220.813 99.485 220.159 99.6437 219.441 99.6437ZM219.441 98.7897C219.945 98.7897 220.411 98.6777 220.841 98.4537C221.27 98.2203 221.615 97.875 221.877 97.4177C222.147 96.951 222.283 96.3817 222.283 95.7097C222.283 95.0377 222.152 94.473 221.891 94.0157C221.629 93.549 221.284 93.2037 220.855 92.9797C220.425 92.7463 219.959 92.6297 219.455 92.6297C218.951 92.6297 218.484 92.7463 218.055 92.9797C217.625 93.2037 217.28 93.549 217.019 94.0157C216.767 94.473 216.641 95.0377 216.641 95.7097C216.641 96.3817 216.767 96.951 217.019 97.4177C217.28 97.875 217.621 98.2203 218.041 98.4537C218.47 98.6777 218.937 98.7897 219.441 98.7897ZM235.541 91.8877V99.5317H234.561V98.1877C234.337 98.6637 233.991 99.0277 233.525 99.2797C233.058 99.5317 232.535 99.6577 231.957 99.6577C231.042 99.6577 230.295 99.3777 229.717 98.8177C229.138 98.2483 228.849 97.427 228.849 96.3537V91.8877H229.815V96.2417C229.815 97.0723 230.02 97.707 230.431 98.1457C230.851 98.5843 231.42 98.8037 232.139 98.8037C232.876 98.8037 233.464 98.5703 233.903 98.1037C234.341 97.637 234.561 96.951 234.561 96.0457V91.8877H235.541ZM240.41 99.6437C239.533 99.6437 238.814 99.443 238.254 99.0417C237.704 98.631 237.396 98.0757 237.33 97.3757H238.338C238.385 97.805 238.586 98.155 238.94 98.4257C239.304 98.687 239.79 98.8177 240.396 98.8177C240.928 98.8177 241.344 98.6917 241.642 98.4397C241.95 98.1877 242.104 97.875 242.104 97.5017C242.104 97.2403 242.02 97.0257 241.852 96.8577C241.684 96.6897 241.47 96.559 241.208 96.4657C240.956 96.363 240.611 96.2557 240.172 96.1437C239.603 95.9943 239.141 95.845 238.786 95.6957C238.432 95.5463 238.128 95.327 237.876 95.0377C237.634 94.739 237.512 94.3423 237.512 93.8477C237.512 93.4743 237.624 93.129 237.848 92.8117C238.072 92.4943 238.39 92.2423 238.8 92.0557C239.211 91.869 239.678 91.7757 240.2 91.7757C241.022 91.7757 241.684 91.9857 242.188 92.4057C242.692 92.8163 242.963 93.3857 243 94.1137H242.02C241.992 93.6657 241.815 93.3063 241.488 93.0357C241.171 92.7557 240.732 92.6157 240.172 92.6157C239.678 92.6157 239.276 92.7323 238.968 92.9657C238.66 93.199 238.506 93.4883 238.506 93.8337C238.506 94.1323 238.595 94.3797 238.772 94.5757C238.959 94.7623 239.188 94.9117 239.458 95.0237C239.729 95.1263 240.093 95.243 240.55 95.3737C241.101 95.523 241.54 95.6677 241.866 95.8077C242.193 95.9477 242.473 96.153 242.706 96.4237C242.94 96.6943 243.061 97.0537 243.07 97.5017C243.07 97.9123 242.958 98.281 242.734 98.6077C242.51 98.925 242.198 99.177 241.796 99.3637C241.395 99.5503 240.933 99.6437 240.41 99.6437ZM251.831 95.3177C251.831 95.6537 251.822 95.9103 251.803 96.0877H245.461C245.489 96.6663 245.629 97.161 245.881 97.5717C246.133 97.9823 246.464 98.295 246.875 98.5097C247.286 98.715 247.734 98.8177 248.219 98.8177C248.854 98.8177 249.386 98.6637 249.815 98.3557C250.254 98.0477 250.543 97.6323 250.683 97.1097H251.719C251.532 97.8563 251.131 98.4677 250.515 98.9437C249.908 99.4103 249.143 99.6437 248.219 99.6437C247.5 99.6437 246.856 99.485 246.287 99.1677C245.718 98.841 245.27 98.3837 244.943 97.7957C244.626 97.1983 244.467 96.503 244.467 95.7097C244.467 94.9163 244.626 94.221 244.943 93.6237C245.26 93.0263 245.704 92.569 246.273 92.2517C246.842 91.9343 247.491 91.7757 248.219 91.7757C248.947 91.7757 249.582 91.9343 250.123 92.2517C250.674 92.569 251.094 92.9983 251.383 93.5397C251.682 94.0717 251.831 94.6643 251.831 95.3177ZM250.837 95.2897C250.846 94.7203 250.73 94.235 250.487 93.8337C250.254 93.4323 249.932 93.129 249.521 92.9237C249.11 92.7183 248.662 92.6157 248.177 92.6157C247.449 92.6157 246.828 92.849 246.315 93.3157C245.802 93.7823 245.517 94.4403 245.461 95.2897H250.837ZM254.604 93.2457C254.819 92.7697 255.145 92.401 255.584 92.1397C256.032 91.8783 256.578 91.7477 257.222 91.7477V92.7697H256.956C256.247 92.7697 255.677 92.961 255.248 93.3437C254.819 93.7263 254.604 94.3657 254.604 95.2617V99.5317H253.624V91.8877H254.604V93.2457ZM262.28 91.7477C263.195 91.7477 263.942 92.0323 264.52 92.6017C265.099 93.1617 265.388 93.9783 265.388 95.0517V99.5317H264.422V95.1637C264.422 94.333 264.212 93.6983 263.792 93.2597C263.382 92.821 262.817 92.6017 262.098 92.6017C261.361 92.6017 260.773 92.835 260.334 93.3017C259.896 93.7683 259.676 94.4543 259.676 95.3597V99.5317H258.696V91.8877H259.676V93.1897C259.919 92.723 260.269 92.3683 260.726 92.1257C261.184 91.8737 261.702 91.7477 262.28 91.7477ZM267.108 95.6957C267.108 94.9117 267.262 94.2257 267.57 93.6377C267.887 93.0403 268.321 92.583 268.872 92.2657C269.432 91.939 270.062 91.7757 270.762 91.7757C271.49 91.7757 272.115 91.9437 272.638 92.2797C273.17 92.6157 273.552 93.045 273.786 93.5677V91.8877H274.766V99.5317H273.786V97.8377C273.543 98.3603 273.156 98.7943 272.624 99.1397C272.101 99.4757 271.476 99.6437 270.748 99.6437C270.057 99.6437 269.432 99.4803 268.872 99.1537C268.321 98.827 267.887 98.365 267.57 97.7677C267.262 97.1703 267.108 96.4797 267.108 95.6957ZM273.786 95.7097C273.786 95.0937 273.66 94.5523 273.408 94.0857C273.156 93.619 272.81 93.2597 272.372 93.0077C271.942 92.7557 271.466 92.6297 270.944 92.6297C270.402 92.6297 269.917 92.751 269.488 92.9937C269.058 93.2363 268.718 93.591 268.466 94.0577C268.223 94.515 268.102 95.061 268.102 95.6957C268.102 96.321 268.223 96.8717 268.466 97.3477C268.718 97.8143 269.058 98.1737 269.488 98.4257C269.917 98.6683 270.402 98.7897 270.944 98.7897C271.466 98.7897 271.942 98.6637 272.372 98.4117C272.81 98.1597 273.156 97.8003 273.408 97.3337C273.66 96.867 273.786 96.3257 273.786 95.7097ZM286.103 91.7477C286.999 91.7477 287.727 92.0323 288.287 92.6017C288.856 93.1617 289.141 93.9783 289.141 95.0517V99.5317H288.175V95.1637C288.175 94.333 287.974 93.6983 287.573 93.2597C287.171 92.821 286.625 92.6017 285.935 92.6017C285.216 92.6017 284.642 92.8397 284.213 93.3157C283.783 93.7917 283.569 94.4823 283.569 95.3877V99.5317H282.603V95.1637C282.603 94.333 282.402 93.6983 282.001 93.2597C281.599 92.821 281.049 92.6017 280.349 92.6017C279.63 92.6017 279.056 92.8397 278.627 93.3157C278.197 93.7917 277.983 94.4823 277.983 95.3877V99.5317H277.003V91.8877H277.983V93.2037C278.225 92.7277 278.571 92.3683 279.019 92.1257C279.467 91.8737 279.966 91.7477 280.517 91.7477C281.179 91.7477 281.758 91.9063 282.253 92.2237C282.757 92.541 283.121 93.0077 283.345 93.6237C283.55 93.017 283.9 92.555 284.395 92.2377C284.899 91.911 285.468 91.7477 286.103 91.7477ZM298.233 95.3177C298.233 95.6537 298.224 95.9103 298.205 96.0877H291.863C291.891 96.6663 292.031 97.161 292.283 97.5717C292.535 97.9823 292.867 98.295 293.277 98.5097C293.688 98.715 294.136 98.8177 294.621 98.8177C295.256 98.8177 295.788 98.6637 296.217 98.3557C296.656 98.0477 296.945 97.6323 297.085 97.1097H298.121C297.935 97.8563 297.533 98.4677 296.917 98.9437C296.311 99.4103 295.545 99.6437 294.621 99.6437C293.903 99.6437 293.259 99.485 292.689 99.1677C292.12 98.841 291.672 98.3837 291.345 97.7957C291.028 97.1983 290.869 96.503 290.869 95.7097C290.869 94.9163 291.028 94.221 291.345 93.6237C291.663 93.0263 292.106 92.569 292.675 92.2517C293.245 91.9343 293.893 91.7757 294.621 91.7757C295.349 91.7757 295.984 91.9343 296.525 92.2517C297.076 92.569 297.496 92.9983 297.785 93.5397C298.084 94.0717 298.233 94.6643 298.233 95.3177ZM297.239 95.2897C297.249 94.7203 297.132 94.235 296.889 93.8337C296.656 93.4323 296.334 93.129 295.923 92.9237C295.513 92.7183 295.065 92.6157 294.579 92.6157C293.851 92.6157 293.231 92.849 292.717 93.3157C292.204 93.7823 291.919 94.4403 291.863 95.2897H297.239ZM306.844 90.6277C307.852 90.6277 308.739 90.8237 309.504 91.2157C310.27 91.6077 310.858 92.1583 311.268 92.8677C311.679 93.5677 311.884 94.375 311.884 95.2897C311.884 96.0177 311.768 96.713 311.534 97.3757C311.301 98.0383 310.965 98.5797 310.526 98.9997C310.088 99.4103 309.574 99.6157 308.986 99.6157C308.529 99.6157 308.179 99.4943 307.936 99.2517C307.703 98.9997 307.577 98.659 307.558 98.2297C307.269 98.659 306.9 98.9997 306.452 99.2517C306.004 99.4943 305.528 99.6157 305.024 99.6157C304.315 99.6157 303.76 99.401 303.358 98.9717C302.966 98.5423 302.77 97.959 302.77 97.2217C302.77 96.531 302.915 95.887 303.204 95.2897C303.494 94.683 303.895 94.1977 304.408 93.8337C304.922 93.4697 305.505 93.2877 306.158 93.2877C306.625 93.2877 307.017 93.3903 307.334 93.5957C307.661 93.801 307.894 94.0997 308.034 94.4917L308.216 93.4557H309.07L308.356 97.5297C308.328 97.6977 308.314 97.8517 308.314 97.9917C308.314 98.617 308.585 98.9297 309.126 98.9297C309.528 98.9297 309.873 98.7477 310.162 98.3837C310.461 98.0197 310.685 97.5623 310.834 97.0117C310.993 96.4517 311.072 95.8963 311.072 95.3457C311.072 94.5243 310.895 93.815 310.54 93.2177C310.195 92.611 309.696 92.149 309.042 91.8317C308.389 91.505 307.614 91.3417 306.718 91.3417C305.598 91.3417 304.586 91.617 303.68 92.1677C302.775 92.7183 302.066 93.465 301.552 94.4077C301.039 95.3503 300.782 96.391 300.782 97.5297C300.773 98.799 301.156 99.7837 301.93 100.484C302.705 101.193 303.764 101.548 305.108 101.548C305.958 101.548 306.728 101.389 307.418 101.072L307.572 101.758C306.751 102.094 305.86 102.262 304.898 102.262C303.918 102.262 303.055 102.07 302.308 101.688C301.562 101.314 300.983 100.778 300.572 100.078C300.162 99.3777 299.956 98.561 299.956 97.6277C299.956 96.3303 300.25 95.1497 300.838 94.0857C301.436 93.0123 302.257 92.1677 303.302 91.5517C304.357 90.9357 305.538 90.6277 306.844 90.6277ZM305.304 98.8457C305.724 98.8457 306.112 98.7337 306.466 98.5097C306.821 98.2857 307.11 97.973 307.334 97.5717C307.568 97.1703 307.712 96.713 307.768 96.1997C307.787 96.0317 307.796 95.9103 307.796 95.8357C307.796 95.313 307.652 94.8883 307.362 94.5617C307.082 94.2257 306.681 94.0577 306.158 94.0577C305.664 94.0577 305.23 94.2023 304.856 94.4917C304.483 94.781 304.194 95.159 303.988 95.6257C303.783 96.083 303.68 96.5683 303.68 97.0817C303.68 97.623 303.82 98.0523 304.1 98.3697C304.38 98.687 304.782 98.8457 305.304 98.8457ZM317.26 91.7757C317.978 91.7757 318.604 91.9437 319.136 92.2797C319.668 92.6157 320.05 93.0403 320.284 93.5537V91.8877H321.264V99.7277C321.264 100.428 321.11 101.048 320.802 101.59C320.503 102.131 320.083 102.546 319.542 102.836C319 103.134 318.384 103.284 317.694 103.284C316.714 103.284 315.897 103.05 315.244 102.584C314.6 102.117 314.198 101.482 314.04 100.68H315.006C315.174 101.212 315.491 101.636 315.958 101.954C316.434 102.271 317.012 102.43 317.694 102.43C318.188 102.43 318.632 102.322 319.024 102.108C319.416 101.902 319.724 101.594 319.948 101.184C320.172 100.773 320.284 100.288 320.284 99.7277V97.8377C320.041 98.3603 319.654 98.7943 319.122 99.1397C318.599 99.4757 317.978 99.6437 317.26 99.6437C316.56 99.6437 315.93 99.4803 315.37 99.1537C314.819 98.827 314.385 98.365 314.068 97.7677C313.76 97.1703 313.606 96.4797 313.606 95.6957C313.606 94.9117 313.76 94.2257 314.068 93.6377C314.385 93.0403 314.819 92.583 315.37 92.2657C315.93 91.939 316.56 91.7757 317.26 91.7757ZM320.284 95.7097C320.284 95.0937 320.158 94.5523 319.906 94.0857C319.654 93.619 319.308 93.2597 318.87 93.0077C318.44 92.7557 317.964 92.6297 317.442 92.6297C316.9 92.6297 316.415 92.751 315.986 92.9937C315.556 93.2363 315.216 93.591 314.964 94.0577C314.721 94.515 314.6 95.061 314.6 95.6957C314.6 96.321 314.721 96.8717 314.964 97.3477C315.216 97.8143 315.556 98.1737 315.986 98.4257C316.415 98.6683 316.9 98.7897 317.442 98.7897C317.964 98.7897 318.44 98.6637 318.87 98.4117C319.308 98.1597 319.654 97.8003 319.906 97.3337C320.158 96.867 320.284 96.3257 320.284 95.7097ZM332.601 91.7477C333.497 91.7477 334.225 92.0323 334.785 92.6017C335.354 93.1617 335.639 93.9783 335.639 95.0517V99.5317H334.673V95.1637C334.673 94.333 334.472 93.6983 334.071 93.2597C333.67 92.821 333.124 92.6017 332.433 92.6017C331.714 92.6017 331.14 92.8397 330.711 93.3157C330.282 93.7917 330.067 94.4823 330.067 95.3877V99.5317H329.101V95.1637C329.101 94.333 328.9 93.6983 328.499 93.2597C328.098 92.821 327.547 92.6017 326.847 92.6017C326.128 92.6017 325.554 92.8397 325.125 93.3157C324.696 93.7917 324.481 94.4823 324.481 95.3877V99.5317H323.501V91.8877H324.481V93.2037C324.724 92.7277 325.069 92.3683 325.517 92.1257C325.965 91.8737 326.464 91.7477 327.015 91.7477C327.678 91.7477 328.256 91.9063 328.751 92.2237C329.255 92.541 329.619 93.0077 329.843 93.6237C330.048 93.017 330.398 92.555 330.893 92.2377C331.397 91.911 331.966 91.7477 332.601 91.7477ZM337.367 95.6957C337.367 94.9117 337.521 94.2257 337.829 93.6377C338.147 93.0403 338.581 92.583 339.131 92.2657C339.691 91.939 340.321 91.7757 341.021 91.7757C341.749 91.7757 342.375 91.9437 342.897 92.2797C343.429 92.6157 343.812 93.045 344.045 93.5677V91.8877H345.025V99.5317H344.045V97.8377C343.803 98.3603 343.415 98.7943 342.883 99.1397C342.361 99.4757 341.735 99.6437 341.007 99.6437C340.317 99.6437 339.691 99.4803 339.131 99.1537C338.581 98.827 338.147 98.365 337.829 97.7677C337.521 97.1703 337.367 96.4797 337.367 95.6957ZM344.045 95.7097C344.045 95.0937 343.919 94.5523 343.667 94.0857C343.415 93.619 343.07 93.2597 342.631 93.0077C342.202 92.7557 341.726 92.6297 341.203 92.6297C340.662 92.6297 340.177 92.751 339.747 92.9937C339.318 93.2363 338.977 93.591 338.725 94.0577C338.483 94.515 338.361 95.061 338.361 95.6957C338.361 96.321 338.483 96.8717 338.725 97.3477C338.977 97.8143 339.318 98.1737 339.747 98.4257C340.177 98.6683 340.662 98.7897 341.203 98.7897C341.726 98.7897 342.202 98.6637 342.631 98.4117C343.07 98.1597 343.415 97.8003 343.667 97.3337C343.919 96.867 344.045 96.3257 344.045 95.7097ZM347.753 90.4457C347.557 90.4457 347.389 90.3757 347.249 90.2357C347.109 90.0957 347.039 89.923 347.039 89.7177C347.039 89.5123 347.109 89.3443 347.249 89.2137C347.389 89.0737 347.557 89.0037 347.753 89.0037C347.949 89.0037 348.117 89.0737 348.257 89.2137C348.397 89.3443 348.467 89.5123 348.467 89.7177C348.467 89.923 348.397 90.0957 348.257 90.2357C348.117 90.3757 347.949 90.4457 347.753 90.4457ZM348.243 91.8877V99.5317H347.263V91.8877H348.243ZM351.442 89.1717V99.5317H350.462V89.1717H351.442ZM353.829 99.6017C353.624 99.6017 353.451 99.5317 353.311 99.3917C353.18 99.2517 353.115 99.079 353.115 98.8737C353.115 98.6683 353.18 98.5003 353.311 98.3697C353.451 98.2297 353.624 98.1597 353.829 98.1597C354.025 98.1597 354.188 98.2297 354.319 98.3697C354.459 98.5003 354.529 98.6683 354.529 98.8737C354.529 99.079 354.459 99.2517 354.319 99.3917C354.188 99.5317 354.025 99.6017 353.829 99.6017ZM355.756 95.7097C355.756 94.9163 355.915 94.2257 356.232 93.6377C356.549 93.0403 356.988 92.583 357.548 92.2657C358.108 91.939 358.747 91.7757 359.466 91.7757C360.409 91.7757 361.183 92.009 361.79 92.4757C362.406 92.9423 362.803 93.577 362.98 94.3797H361.93C361.799 93.829 361.515 93.3997 361.076 93.0917C360.647 92.7743 360.11 92.6157 359.466 92.6157C358.953 92.6157 358.491 92.7323 358.08 92.9657C357.669 93.199 357.343 93.549 357.1 94.0157C356.867 94.473 356.75 95.0377 356.75 95.7097C356.75 96.3817 356.867 96.951 357.1 97.4177C357.343 97.8843 357.669 98.2343 358.08 98.4677C358.491 98.701 358.953 98.8177 359.466 98.8177C360.11 98.8177 360.647 98.6637 361.076 98.3557C361.515 98.0383 361.799 97.5997 361.93 97.0397H362.98C362.803 97.8237 362.406 98.4537 361.79 98.9297C361.174 99.4057 360.399 99.6437 359.466 99.6437C358.747 99.6437 358.108 99.485 357.548 99.1677C356.988 98.841 356.549 98.3837 356.232 97.7957C355.915 97.1983 355.756 96.503 355.756 95.7097ZM368.136 99.6437C367.417 99.6437 366.769 99.485 366.19 99.1677C365.621 98.841 365.168 98.3837 364.832 97.7957C364.505 97.1983 364.342 96.503 364.342 95.7097C364.342 94.9163 364.51 94.2257 364.846 93.6377C365.182 93.0403 365.639 92.583 366.218 92.2657C366.797 91.939 367.445 91.7757 368.164 91.7757C368.883 91.7757 369.531 91.939 370.11 92.2657C370.698 92.583 371.155 93.0403 371.482 93.6377C371.818 94.2257 371.986 94.9163 371.986 95.7097C371.986 96.4937 371.818 97.1843 371.482 97.7817C371.146 98.379 370.684 98.841 370.096 99.1677C369.508 99.485 368.855 99.6437 368.136 99.6437ZM368.136 98.7897C368.64 98.7897 369.107 98.6777 369.536 98.4537C369.965 98.2203 370.311 97.875 370.572 97.4177C370.843 96.951 370.978 96.3817 370.978 95.7097C370.978 95.0377 370.847 94.473 370.586 94.0157C370.325 93.549 369.979 93.2037 369.55 92.9797C369.121 92.7463 368.654 92.6297 368.15 92.6297C367.646 92.6297 367.179 92.7463 366.75 92.9797C366.321 93.2037 365.975 93.549 365.714 94.0157C365.462 94.473 365.336 95.0377 365.336 95.7097C365.336 96.3817 365.462 96.951 365.714 97.4177C365.975 97.875 366.316 98.2203 366.736 98.4537C367.165 98.6777 367.632 98.7897 368.136 98.7897ZM382.872 91.7477C383.768 91.7477 384.496 92.0323 385.056 92.6017C385.626 93.1617 385.91 93.9783 385.91 95.0517V99.5317H384.944V95.1637C384.944 94.333 384.744 93.6983 384.342 93.2597C383.941 92.821 383.395 92.6017 382.704 92.6017C381.986 92.6017 381.412 92.8397 380.982 93.3157C380.553 93.7917 380.338 94.4823 380.338 95.3877V99.5317H379.372V95.1637C379.372 94.333 379.172 93.6983 378.77 93.2597C378.369 92.821 377.818 92.6017 377.118 92.6017C376.4 92.6017 375.826 92.8397 375.396 93.3157C374.967 93.7917 374.752 94.4823 374.752 95.3877V99.5317H373.772V91.8877H374.752V93.2037C374.995 92.7277 375.34 92.3683 375.788 92.1257C376.236 91.8737 376.736 91.7477 377.286 91.7477C377.949 91.7477 378.528 91.9063 379.022 92.2237C379.526 92.541 379.89 93.0077 380.114 93.6237C380.32 93.017 380.67 92.555 381.164 92.2377C381.668 91.911 382.238 91.7477 382.872 91.7477ZM388.255 99.6017C388.049 99.6017 387.877 99.5317 387.737 99.3917C387.606 99.2517 387.541 99.079 387.541 98.8737C387.541 98.6683 387.606 98.5003 387.737 98.3697C387.877 98.2297 388.049 98.1597 388.255 98.1597C388.451 98.1597 388.614 98.2297 388.745 98.3697C388.885 98.5003 388.955 98.6683 388.955 98.8737C388.955 99.079 388.885 99.2517 388.745 99.3917C388.614 99.5317 388.451 99.6017 388.255 99.6017Z" fill="white"/>
<path d="M54.328 120.532L51.906 116.444H50.1V120.532H49.12V110.746H52.06C53.152 110.746 53.978 111.007 54.538 111.53C55.1073 112.052 55.392 112.738 55.392 113.588C55.392 114.297 55.1867 114.904 54.776 115.408C54.3747 115.902 53.7773 116.224 52.984 116.374L55.504 120.532H54.328ZM50.1 115.646H52.074C52.8393 115.646 53.4133 115.459 53.796 115.086C54.188 114.712 54.384 114.213 54.384 113.588C54.384 112.944 54.1973 112.449 53.824 112.104C53.4507 111.749 52.8627 111.572 52.06 111.572H50.1V115.646ZM64.2528 116.318C64.2528 116.654 64.2435 116.91 64.2248 117.088H57.8828C57.9108 117.666 58.0508 118.161 58.3028 118.572C58.5548 118.982 58.8861 119.295 59.2968 119.51C59.7075 119.715 60.1555 119.818 60.6408 119.818C61.2755 119.818 61.8075 119.664 62.2368 119.356C62.6755 119.048 62.9648 118.632 63.1048 118.11H64.1408C63.9541 118.856 63.5528 119.468 62.9368 119.944C62.3301 120.41 61.5648 120.644 60.6408 120.644C59.9221 120.644 59.2781 120.485 58.7088 120.168C58.1395 119.841 57.6915 119.384 57.3648 118.796C57.0475 118.198 56.8888 117.503 56.8888 116.71C56.8888 115.916 57.0475 115.221 57.3648 114.624C57.6821 114.026 58.1255 113.569 58.6948 113.252C59.2641 112.934 59.9128 112.776 60.6408 112.776C61.3688 112.776 62.0035 112.934 62.5448 113.252C63.0955 113.569 63.5155 113.998 63.8048 114.54C64.1035 115.072 64.2528 115.664 64.2528 116.318ZM63.2588 116.29C63.2681 115.72 63.1515 115.235 62.9088 114.834C62.6755 114.432 62.3535 114.129 61.9428 113.924C61.5321 113.718 61.0841 113.616 60.5988 113.616C59.8708 113.616 59.2501 113.849 58.7368 114.316C58.2235 114.782 57.9388 115.44 57.8828 116.29H63.2588ZM68.6778 120.644C67.8004 120.644 67.0818 120.443 66.5218 120.042C65.9711 119.631 65.6631 119.076 65.5978 118.376H66.6058C66.6524 118.805 66.8531 119.155 67.2078 119.426C67.5718 119.687 68.0571 119.818 68.6638 119.818C69.1958 119.818 69.6111 119.692 69.9098 119.44C70.2178 119.188 70.3718 118.875 70.3718 118.502C70.3718 118.24 70.2878 118.026 70.1198 117.858C69.9518 117.69 69.7371 117.559 69.4758 117.466C69.2238 117.363 68.8784 117.256 68.4398 117.144C67.8704 116.994 67.4084 116.845 67.0538 116.696C66.6991 116.546 66.3958 116.327 66.1438 116.038C65.9011 115.739 65.7798 115.342 65.7798 114.848C65.7798 114.474 65.8918 114.129 66.1158 113.812C66.3398 113.494 66.6571 113.242 67.0678 113.056C67.4784 112.869 67.9451 112.776 68.4678 112.776C69.2891 112.776 69.9518 112.986 70.4558 113.406C70.9598 113.816 71.2304 114.386 71.2678 115.114H70.2878C70.2598 114.666 70.0824 114.306 69.7558 114.036C69.4384 113.756 68.9998 113.616 68.4398 113.616C67.9451 113.616 67.5438 113.732 67.2358 113.966C66.9278 114.199 66.7738 114.488 66.7738 114.834C66.7738 115.132 66.8624 115.38 67.0398 115.576C67.2264 115.762 67.4551 115.912 67.7258 116.024C67.9964 116.126 68.3604 116.243 68.8178 116.374C69.3684 116.523 69.8071 116.668 70.1338 116.808C70.4604 116.948 70.7404 117.153 70.9738 117.424C71.2071 117.694 71.3284 118.054 71.3378 118.502C71.3378 118.912 71.2258 119.281 71.0018 119.608C70.7778 119.925 70.4651 120.177 70.0638 120.364C69.6624 120.55 69.2004 120.644 68.6778 120.644ZM80.0985 116.318C80.0985 116.654 80.0892 116.91 80.0705 117.088H73.7285C73.7565 117.666 73.8965 118.161 74.1485 118.572C74.4005 118.982 74.7318 119.295 75.1425 119.51C75.5532 119.715 76.0012 119.818 76.4865 119.818C77.1212 119.818 77.6532 119.664 78.0825 119.356C78.5212 119.048 78.8105 118.632 78.9505 118.11H79.9865C79.7998 118.856 79.3985 119.468 78.7825 119.944C78.1758 120.41 77.4105 120.644 76.4865 120.644C75.7678 120.644 75.1238 120.485 74.5545 120.168C73.9852 119.841 73.5372 119.384 73.2105 118.796C72.8932 118.198 72.7345 117.503 72.7345 116.71C72.7345 115.916 72.8932 115.221 73.2105 114.624C73.5278 114.026 73.9712 113.569 74.5405 113.252C75.1098 112.934 75.7585 112.776 76.4865 112.776C77.2145 112.776 77.8492 112.934 78.3905 113.252C78.9412 113.569 79.3612 113.998 79.6505 114.54C79.9492 115.072 80.0985 115.664 80.0985 116.318ZM79.1045 116.29C79.1138 115.72 78.9972 115.235 78.7545 114.834C78.5212 114.432 78.1992 114.129 77.7885 113.924C77.3778 113.718 76.9298 113.616 76.4445 113.616C75.7165 113.616 75.0958 113.849 74.5825 114.316C74.0692 114.782 73.7845 115.44 73.7285 116.29H79.1045ZM85.4755 112.748C86.3902 112.748 87.1368 113.032 87.7155 113.602C88.2942 114.162 88.5835 114.978 88.5835 116.052V120.532H87.6175V116.164C87.6175 115.333 87.4075 114.698 86.9875 114.26C86.5768 113.821 86.0122 113.602 85.2935 113.602C84.5562 113.602 83.9682 113.835 83.5295 114.302C83.0908 114.768 82.8715 115.454 82.8715 116.36V120.532H81.8915V112.888H82.8715V114.19C83.1142 113.723 83.4642 113.368 83.9215 113.126C84.3788 112.874 84.8968 112.748 85.4755 112.748ZM90.3029 116.696C90.3029 115.912 90.4615 115.226 90.7789 114.638C91.0962 114.04 91.5302 113.583 92.0809 113.266C92.6409 112.939 93.2709 112.776 93.9709 112.776C94.6429 112.776 95.2495 112.939 95.7909 113.266C96.3322 113.592 96.7289 114.017 96.9809 114.54V110.172H97.9609V120.532H96.9809V118.824C96.7475 119.356 96.3649 119.794 95.8329 120.14C95.3009 120.476 94.6755 120.644 93.9569 120.644C93.2569 120.644 92.6269 120.48 92.0669 120.154C91.5162 119.827 91.0822 119.365 90.7649 118.768C90.4569 118.17 90.3029 117.48 90.3029 116.696ZM96.9809 116.71C96.9809 116.094 96.8549 115.552 96.6029 115.086C96.3509 114.619 96.0055 114.26 95.5669 114.008C95.1375 113.756 94.6615 113.63 94.1389 113.63C93.5975 113.63 93.1122 113.751 92.6829 113.994C92.2535 114.236 91.9129 114.591 91.6609 115.058C91.4182 115.515 91.2969 116.061 91.2969 116.696C91.2969 117.321 91.4182 117.872 91.6609 118.348C91.9129 118.814 92.2535 119.174 92.6829 119.426C93.1122 119.668 93.5975 119.79 94.1389 119.79C94.6615 119.79 95.1375 119.664 95.5669 119.412C96.0055 119.16 96.3509 118.8 96.6029 118.334C96.8549 117.867 96.9809 117.326 96.9809 116.71ZM103.592 116.71C103.592 115.916 103.751 115.226 104.068 114.638C104.385 114.04 104.824 113.583 105.384 113.266C105.944 112.939 106.583 112.776 107.302 112.776C108.245 112.776 109.019 113.009 109.626 113.476C110.242 113.942 110.639 114.577 110.816 115.38H109.766C109.635 114.829 109.351 114.4 108.912 114.092C108.483 113.774 107.946 113.616 107.302 113.616C106.789 113.616 106.327 113.732 105.916 113.966C105.505 114.199 105.179 114.549 104.936 115.016C104.703 115.473 104.586 116.038 104.586 116.71C104.586 117.382 104.703 117.951 104.936 118.418C105.179 118.884 105.505 119.234 105.916 119.468C106.327 119.701 106.789 119.818 107.302 119.818C107.946 119.818 108.483 119.664 108.912 119.356C109.351 119.038 109.635 118.6 109.766 118.04H110.816C110.639 118.824 110.242 119.454 109.626 119.93C109.01 120.406 108.235 120.644 107.302 120.644C106.583 120.644 105.944 120.485 105.384 120.168C104.824 119.841 104.385 119.384 104.068 118.796C103.751 118.198 103.592 117.503 103.592 116.71ZM115.972 120.644C115.253 120.644 114.605 120.485 114.026 120.168C113.457 119.841 113.004 119.384 112.668 118.796C112.341 118.198 112.178 117.503 112.178 116.71C112.178 115.916 112.346 115.226 112.682 114.638C113.018 114.04 113.475 113.583 114.054 113.266C114.633 112.939 115.281 112.776 116 112.776C116.719 112.776 117.367 112.939 117.946 113.266C118.534 113.583 118.991 114.04 119.318 114.638C119.654 115.226 119.822 115.916 119.822 116.71C119.822 117.494 119.654 118.184 119.318 118.782C118.982 119.379 118.52 119.841 117.932 120.168C117.344 120.485 116.691 120.644 115.972 120.644ZM115.972 119.79C116.476 119.79 116.943 119.678 117.372 119.454C117.801 119.22 118.147 118.875 118.408 118.418C118.679 117.951 118.814 117.382 118.814 116.71C118.814 116.038 118.683 115.473 118.422 115.016C118.161 114.549 117.815 114.204 117.386 113.98C116.957 113.746 116.49 113.63 115.986 113.63C115.482 113.63 115.015 113.746 114.586 113.98C114.157 114.204 113.811 114.549 113.55 115.016C113.298 115.473 113.172 116.038 113.172 116.71C113.172 117.382 113.298 117.951 113.55 118.418C113.811 118.875 114.152 119.22 114.572 119.454C115.001 119.678 115.468 119.79 115.972 119.79ZM121.16 116.696C121.16 115.912 121.319 115.226 121.636 114.638C121.954 114.04 122.388 113.583 122.938 113.266C123.498 112.939 124.128 112.776 124.828 112.776C125.5 112.776 126.107 112.939 126.648 113.266C127.19 113.592 127.586 114.017 127.838 114.54V110.172H128.818V120.532H127.838V118.824C127.605 119.356 127.222 119.794 126.69 120.14C126.158 120.476 125.533 120.644 124.814 120.644C124.114 120.644 123.484 120.48 122.924 120.154C122.374 119.827 121.94 119.365 121.622 118.768C121.314 118.17 121.16 117.48 121.16 116.696ZM127.838 116.71C127.838 116.094 127.712 115.552 127.46 115.086C127.208 114.619 126.863 114.26 126.424 114.008C125.995 113.756 125.519 113.63 124.996 113.63C124.455 113.63 123.97 113.751 123.54 113.994C123.111 114.236 122.77 114.591 122.518 115.058C122.276 115.515 122.154 116.061 122.154 116.696C122.154 117.321 122.276 117.872 122.518 118.348C122.77 118.814 123.111 119.174 123.54 119.426C123.97 119.668 124.455 119.79 124.996 119.79C125.519 119.79 125.995 119.664 126.424 119.412C126.863 119.16 127.208 118.8 127.46 118.334C127.712 117.867 127.838 117.326 127.838 116.71ZM137.972 116.318C137.972 116.654 137.962 116.91 137.944 117.088H131.602C131.63 117.666 131.77 118.161 132.022 118.572C132.274 118.982 132.605 119.295 133.016 119.51C133.426 119.715 133.874 119.818 134.36 119.818C134.994 119.818 135.526 119.664 135.956 119.356C136.394 119.048 136.684 118.632 136.824 118.11H137.86C137.673 118.856 137.272 119.468 136.656 119.944C136.049 120.41 135.284 120.644 134.36 120.644C133.641 120.644 132.997 120.485 132.428 120.168C131.858 119.841 131.41 119.384 131.084 118.796C130.766 118.198 130.608 117.503 130.608 116.71C130.608 115.916 130.766 115.221 131.084 114.624C131.401 114.026 131.844 113.569 132.414 113.252C132.983 112.934 133.632 112.776 134.36 112.776C135.088 112.776 135.722 112.934 136.264 113.252C136.814 113.569 137.234 113.998 137.524 114.54C137.822 115.072 137.972 115.664 137.972 116.318ZM136.978 116.29C136.987 115.72 136.87 115.235 136.628 114.834C136.394 114.432 136.072 114.129 135.662 113.924C135.251 113.718 134.803 113.616 134.318 113.616C133.59 113.616 132.969 113.849 132.456 114.316C131.942 114.782 131.658 115.44 131.602 116.29H136.978Z" fill="#3D8BFD"/>
<path d="M48 121.932H138.644V122.632H48V121.932Z" fill="#3D8BFD"/>
<rect x="149.5" y="236.124" width="199" height="42.3755" rx="4.5" fill="white" stroke="white"/>
<path d="M240.747 263.712H238.695L232.521 254.37V263.712H230.469V251.184H232.521L238.695 260.508V251.184H240.747V263.712ZM252.532 258.51C252.532 258.882 252.508 259.218 252.46 259.518H244.882C244.942 260.31 245.236 260.946 245.764 261.426C246.292 261.906 246.94 262.146 247.708 262.146C248.812 262.146 249.592 261.684 250.048 260.76H252.262C251.962 261.672 251.416 262.422 250.624 263.01C249.844 263.586 248.872 263.874 247.708 263.874C246.76 263.874 245.908 263.664 245.152 263.244C244.408 262.812 243.82 262.212 243.388 261.444C242.968 260.664 242.758 259.764 242.758 258.744C242.758 257.724 242.962 256.83 243.37 256.062C243.79 255.282 244.372 254.682 245.116 254.262C245.872 253.842 246.736 253.632 247.708 253.632C248.644 253.632 249.478 253.836 250.21 254.244C250.942 254.652 251.512 255.228 251.92 255.972C252.328 256.704 252.532 257.55 252.532 258.51ZM250.39 257.862C250.378 257.106 250.108 256.5 249.58 256.044C249.052 255.588 248.398 255.36 247.618 255.36C246.91 255.36 246.304 255.588 245.8 256.044C245.296 256.488 244.996 257.094 244.9 257.862H250.39ZM258.799 258.69L262.003 263.712H259.681L257.539 260.346L255.523 263.712H253.381L256.585 258.834L253.381 253.794H255.703L257.845 257.16L259.861 253.794H262.003L258.799 258.69ZM265.928 255.468V260.958C265.928 261.33 266.012 261.6 266.18 261.768C266.36 261.924 266.66 262.002 267.08 262.002H268.34V263.712H266.72C265.796 263.712 265.088 263.496 264.596 263.064C264.104 262.632 263.858 261.93 263.858 260.958V255.468H262.688V253.794H263.858V251.328H265.928V253.794H268.34V255.468H265.928Z" fill="#01042E"/>
</svg>
