<svg width="311" height="40" viewBox="0 0 311 40" fill="none" xmlns="http://www.w3.org/2000/svg">
<mask id="path-1-inside-1_476_1089" fill="white">
<path d="M0 0H310.445V39.108H0V0Z"/>
</mask>
<path d="M0 0H310.445V39.108H0V0Z" fill="white"/>
<path d="M0 1H310.445V-1H0V1Z" fill="#E6E6EA" mask="url(#path-1-inside-1_476_1089)"/>
<path d="M16 20.656C16 19.84 16.188 19.108 16.564 18.46C16.948 17.812 17.464 17.308 18.112 16.948C18.768 16.58 19.484 16.396 20.26 16.396C21.148 16.396 21.936 16.616 22.624 17.056C23.32 17.488 23.824 18.104 24.136 18.904H22.492C22.276 18.464 21.976 18.136 21.592 17.92C21.208 17.704 20.764 17.596 20.26 17.596C19.708 17.596 19.216 17.72 18.784 17.968C18.352 18.216 18.012 18.572 17.764 19.036C17.524 19.5 17.404 20.04 17.404 20.656C17.404 21.272 17.524 21.812 17.764 22.276C18.012 22.74 18.352 23.1 18.784 23.356C19.216 23.604 19.708 23.728 20.26 23.728C20.764 23.728 21.208 23.62 21.592 23.404C21.976 23.188 22.276 22.86 22.492 22.42H24.136C23.824 23.22 23.32 23.836 22.624 24.268C21.936 24.7 21.148 24.916 20.26 24.916C19.476 24.916 18.76 24.736 18.112 24.376C17.464 24.008 16.948 23.5 16.564 22.852C16.188 22.204 16 21.472 16 20.656Z" fill="black"/>
<path d="M28.6053 24.952C27.9813 24.952 27.4172 24.812 26.9132 24.532C26.4093 24.244 26.0133 23.844 25.7253 23.332C25.4373 22.812 25.2933 22.212 25.2933 21.532C25.2933 20.86 25.4412 20.264 25.7373 19.744C26.0333 19.224 26.4373 18.824 26.9493 18.544C27.4613 18.264 28.0332 18.124 28.6652 18.124C29.2972 18.124 29.8693 18.264 30.3813 18.544C30.8933 18.824 31.2973 19.224 31.5933 19.744C31.8892 20.264 32.0373 20.86 32.0373 21.532C32.0373 22.204 31.8853 22.8 31.5813 23.32C31.2773 23.84 30.8612 24.244 30.3333 24.532C29.8132 24.812 29.2373 24.952 28.6053 24.952ZM28.6053 23.764C28.9573 23.764 29.2853 23.68 29.5893 23.512C29.9013 23.344 30.1532 23.092 30.3453 22.756C30.5373 22.42 30.6333 22.012 30.6333 21.532C30.6333 21.052 30.5413 20.648 30.3573 20.32C30.1733 19.984 29.9292 19.732 29.6252 19.564C29.3212 19.396 28.9932 19.312 28.6412 19.312C28.2892 19.312 27.9613 19.396 27.6573 19.564C27.3612 19.732 27.1252 19.984 26.9493 20.32C26.7733 20.648 26.6853 21.052 26.6853 21.532C26.6853 22.244 26.8653 22.796 27.2253 23.188C27.5933 23.572 28.0533 23.764 28.6053 23.764Z" fill="black"/>
<path d="M34.7576 19.204C34.9896 18.9 35.3056 18.644 35.7056 18.436C36.1056 18.228 36.5576 18.124 37.0616 18.124C37.6376 18.124 38.1616 18.268 38.6336 18.556C39.1136 18.836 39.4896 19.232 39.7616 19.744C40.0336 20.256 40.1696 20.844 40.1696 21.508C40.1696 22.172 40.0336 22.768 39.7616 23.296C39.4896 23.816 39.1136 24.224 38.6336 24.52C38.1616 24.808 37.6376 24.952 37.0616 24.952C36.5576 24.952 36.1096 24.852 35.7176 24.652C35.3256 24.444 35.0056 24.188 34.7576 23.884V27.988H33.3896V18.232H34.7576V19.204ZM38.7776 21.508C38.7776 21.052 38.6816 20.66 38.4896 20.332C38.3056 19.996 38.0576 19.744 37.7456 19.576C37.4416 19.4 37.1136 19.312 36.7616 19.312C36.4176 19.312 36.0896 19.4 35.7776 19.576C35.4736 19.752 35.2256 20.008 35.0336 20.344C34.8496 20.68 34.7576 21.076 34.7576 21.532C34.7576 21.988 34.8496 22.388 35.0336 22.732C35.2256 23.068 35.4736 23.324 35.7776 23.5C36.0896 23.676 36.4176 23.764 36.7616 23.764C37.1136 23.764 37.4416 23.676 37.7456 23.5C38.0576 23.316 38.3056 23.052 38.4896 22.708C38.6816 22.364 38.7776 21.964 38.7776 21.508Z" fill="black"/>
<path d="M47.4744 18.232L43.4184 27.952H42.0024L43.3464 24.736L40.7424 18.232H42.2664L44.1264 23.272L46.0584 18.232H47.4744Z" fill="black"/>
<path d="M49.8748 19.192C50.0748 18.856 50.3388 18.596 50.6668 18.412C51.0028 18.22 51.3988 18.124 51.8548 18.124V19.54H51.5068C50.9708 19.54 50.5628 19.676 50.2828 19.948C50.0108 20.22 49.8748 20.692 49.8748 21.364V24.844H48.5068V18.232H49.8748V19.192Z" fill="black"/>
<path d="M53.8083 17.356C53.5602 17.356 53.3522 17.272 53.1842 17.104C53.0163 16.936 52.9323 16.728 52.9323 16.48C52.9323 16.232 53.0163 16.024 53.1842 15.856C53.3522 15.688 53.5602 15.604 53.8083 15.604C54.0483 15.604 54.2523 15.688 54.4202 15.856C54.5882 16.024 54.6722 16.232 54.6722 16.48C54.6722 16.728 54.5882 16.936 54.4202 17.104C54.2523 17.272 54.0483 17.356 53.8083 17.356ZM54.4803 18.232V24.844H53.1123V18.232H54.4803Z" fill="black"/>
<path d="M58.9403 18.124C59.4523 18.124 59.9043 18.228 60.2963 18.436C60.6963 18.636 61.0083 18.888 61.2323 19.192V18.232H62.6123V24.952C62.6123 25.56 62.4843 26.1 62.2283 26.572C61.9723 27.052 61.6003 27.428 61.1123 27.7C60.6323 27.972 60.0563 28.108 59.3843 28.108C58.4883 28.108 57.7443 27.896 57.1523 27.472C56.5603 27.056 56.2243 26.488 56.1443 25.768H57.5003C57.6043 26.112 57.8243 26.388 58.1603 26.596C58.5043 26.812 58.9123 26.92 59.3843 26.92C59.9363 26.92 60.3803 26.752 60.7163 26.416C61.0603 26.08 61.2323 25.592 61.2323 24.952V23.848C61.0003 24.16 60.6843 24.424 60.2843 24.64C59.8923 24.848 59.4443 24.952 58.9403 24.952C58.3643 24.952 57.8363 24.808 57.3563 24.52C56.8843 24.224 56.5083 23.816 56.2283 23.296C55.9563 22.768 55.8203 22.172 55.8203 21.508C55.8203 20.844 55.9563 20.256 56.2283 19.744C56.5083 19.232 56.8843 18.836 57.3563 18.556C57.8363 18.268 58.3643 18.124 58.9403 18.124ZM61.2323 21.532C61.2323 21.076 61.1363 20.68 60.9443 20.344C60.7603 20.008 60.5163 19.752 60.2123 19.576C59.9083 19.4 59.5803 19.312 59.2283 19.312C58.8763 19.312 58.5483 19.4 58.2443 19.576C57.9403 19.744 57.6923 19.996 57.5003 20.332C57.3163 20.66 57.2243 21.052 57.2243 21.508C57.2243 21.964 57.3163 22.364 57.5003 22.708C57.6923 23.052 57.9403 23.316 58.2443 23.5C58.5563 23.676 58.8843 23.764 59.2283 23.764C59.5803 23.764 59.9083 23.676 60.2123 23.5C60.5163 23.324 60.7603 23.068 60.9443 22.732C61.1363 22.388 61.2323 21.988 61.2323 21.532Z" fill="black"/>
<path d="M67.8291 18.124C68.3331 18.124 68.7811 18.232 69.1731 18.448C69.5731 18.664 69.8851 18.984 70.1091 19.408C70.3411 19.832 70.4571 20.344 70.4571 20.944V24.844H69.1011V21.148C69.1011 20.556 68.9531 20.104 68.6571 19.792C68.3611 19.472 67.9571 19.312 67.4451 19.312C66.9331 19.312 66.5251 19.472 66.2211 19.792C65.9251 20.104 65.7771 20.556 65.7771 21.148V24.844H64.4091V15.964H65.7771V19C66.0091 18.72 66.3011 18.504 66.6531 18.352C67.0131 18.2 67.4051 18.124 67.8291 18.124Z" fill="black"/>
<path d="M73.7981 19.348V23.008C73.7981 23.256 73.8541 23.436 73.9661 23.548C74.0861 23.652 74.2861 23.704 74.5661 23.704H75.4061V24.844H74.3261C73.7101 24.844 73.2381 24.7 72.9101 24.412C72.5821 24.124 72.4181 23.656 72.4181 23.008V19.348H71.6381V18.232H72.4181V16.588H73.7981V18.232H75.4061V19.348H73.7981Z" fill="black"/>
<path d="M84.1561 15.608C81.5341 15.608 79.4061 17.736 79.4061 20.358C79.4061 22.98 81.5341 25.108 84.1561 25.108C86.7781 25.108 88.9061 22.98 88.9061 20.358C88.9061 17.736 86.7781 15.608 84.1561 15.608ZM84.1561 24.158C82.0661 24.158 80.3561 22.448 80.3561 20.358C80.3561 18.268 82.0661 16.558 84.1561 16.558C86.2461 16.558 87.9561 18.268 87.9561 20.358C87.9561 22.448 86.2461 24.158 84.1561 24.158Z" fill="#4D5357"/>
<path d="M82.9021 18.895C83.0731 18.705 83.2821 18.553 83.5291 18.458C83.7761 18.344 84.0231 18.287 84.2891 18.287C84.6121 18.287 84.9351 18.363 85.2011 18.534C85.4671 18.686 85.7141 18.914 85.8851 19.161L86.5691 18.648C86.3031 18.306 85.9801 18.002 85.6001 17.812C85.2011 17.603 84.7831 17.508 84.3081 17.508C83.9281 17.508 83.5481 17.584 83.2061 17.736C82.8641 17.888 82.5601 18.097 82.3131 18.344C82.0661 18.61 81.8571 18.895 81.7051 19.256C81.5531 19.598 81.4771 19.978 81.4771 20.358C81.4771 20.757 81.5531 21.118 81.7051 21.46C81.8571 21.802 82.0471 22.106 82.3131 22.372C82.5601 22.638 82.8641 22.828 83.2061 22.98C83.5481 23.132 83.9091 23.208 84.3081 23.208C84.7831 23.208 85.2201 23.113 85.6001 22.904C85.9801 22.695 86.3221 22.41 86.5691 22.068L85.8851 21.555C85.7141 21.821 85.4861 22.03 85.2011 22.182C84.9161 22.334 84.6121 22.41 84.2891 22.41C84.0231 22.41 83.7761 22.353 83.5291 22.239C83.3011 22.125 83.0921 21.973 82.9021 21.802C82.7311 21.612 82.5791 21.403 82.4841 21.156C82.3891 20.909 82.3321 20.643 82.3321 20.358C82.3321 20.073 82.3891 19.807 82.4841 19.56C82.5791 19.313 82.7311 19.085 82.9021 18.895Z" fill="#4D5357"/>
<path d="M93.7821 23.14C94.5501 22.476 95.1541 21.932 95.5941 21.508C96.0421 21.076 96.4141 20.628 96.7101 20.164C97.0061 19.7 97.1541 19.236 97.1541 18.772C97.1541 18.292 97.0381 17.916 96.8061 17.644C96.5821 17.372 96.2261 17.236 95.7381 17.236C95.2661 17.236 94.8981 17.388 94.6341 17.692C94.3781 17.988 94.2421 18.388 94.2261 18.892H92.9061C92.9301 17.98 93.2021 17.284 93.7221 16.804C94.2501 16.316 94.9181 16.072 95.7261 16.072C96.5981 16.072 97.2781 16.312 97.7661 16.792C98.2621 17.272 98.5101 17.912 98.5101 18.712C98.5101 19.288 98.3621 19.844 98.0661 20.38C97.7781 20.908 97.4301 21.384 97.0221 21.808C96.6221 22.224 96.1101 22.708 95.4861 23.26L94.9461 23.74H98.7501V24.88H92.9181V23.884L93.7821 23.14Z" fill="black"/>
<path d="M99.9519 20.512C99.9519 19.128 100.184 18.048 100.648 17.272C101.12 16.488 101.928 16.096 103.072 16.096C104.216 16.096 105.02 16.488 105.484 17.272C105.956 18.048 106.192 19.128 106.192 20.512C106.192 21.912 105.956 23.008 105.484 23.8C105.02 24.584 104.216 24.976 103.072 24.976C101.928 24.976 101.12 24.584 100.648 23.8C100.184 23.008 99.9519 21.912 99.9519 20.512ZM104.848 20.512C104.848 19.864 104.804 19.316 104.716 18.868C104.636 18.42 104.468 18.056 104.212 17.776C103.956 17.488 103.576 17.344 103.072 17.344C102.568 17.344 102.188 17.488 101.932 17.776C101.676 18.056 101.504 18.42 101.416 18.868C101.336 19.316 101.296 19.864 101.296 20.512C101.296 21.184 101.336 21.748 101.416 22.204C101.496 22.66 101.664 23.028 101.92 23.308C102.184 23.588 102.568 23.728 103.072 23.728C103.576 23.728 103.956 23.588 104.212 23.308C104.476 23.028 104.648 22.66 104.728 22.204C104.808 21.748 104.848 21.184 104.848 20.512Z" fill="black"/>
<path d="M108.395 23.14C109.163 22.476 109.767 21.932 110.207 21.508C110.655 21.076 111.027 20.628 111.323 20.164C111.619 19.7 111.767 19.236 111.767 18.772C111.767 18.292 111.651 17.916 111.419 17.644C111.195 17.372 110.839 17.236 110.351 17.236C109.879 17.236 109.511 17.388 109.247 17.692C108.991 17.988 108.855 18.388 108.839 18.892H107.519C107.543 17.98 107.815 17.284 108.335 16.804C108.863 16.316 109.531 16.072 110.339 16.072C111.211 16.072 111.891 16.312 112.379 16.792C112.875 17.272 113.123 17.912 113.123 18.712C113.123 19.288 112.975 19.844 112.679 20.38C112.391 20.908 112.043 21.384 111.635 21.808C111.235 22.224 110.723 22.708 110.099 23.26L109.559 23.74H113.363V24.88H107.531V23.884L108.395 23.14Z" fill="black"/>
<path d="M120.205 17.428H116.185V19.816C116.353 19.592 116.601 19.404 116.929 19.252C117.265 19.1 117.621 19.024 117.997 19.024C118.669 19.024 119.213 19.168 119.629 19.456C120.053 19.744 120.353 20.108 120.529 20.548C120.713 20.988 120.805 21.452 120.805 21.94C120.805 22.532 120.689 23.06 120.457 23.524C120.233 23.98 119.893 24.34 119.437 24.604C118.989 24.868 118.437 25 117.781 25C116.909 25 116.209 24.784 115.681 24.352C115.153 23.92 114.837 23.348 114.733 22.636H116.065C116.153 23.012 116.349 23.312 116.653 23.536C116.957 23.752 117.337 23.86 117.793 23.86C118.361 23.86 118.785 23.688 119.065 23.344C119.353 23 119.497 22.544 119.497 21.976C119.497 21.4 119.353 20.96 119.065 20.656C118.777 20.344 118.353 20.188 117.793 20.188C117.401 20.188 117.069 20.288 116.797 20.488C116.533 20.68 116.341 20.944 116.221 21.28H114.925V16.228H120.205V17.428Z" fill="black"/>
<path d="M131.358 19.144C131.358 19.568 131.258 19.968 131.058 20.344C130.858 20.72 130.538 21.028 130.098 21.268C129.658 21.5 129.094 21.616 128.406 21.616H126.894V25H125.526V16.66H128.406C129.046 16.66 129.586 16.772 130.026 16.996C130.474 17.212 130.806 17.508 131.022 17.884C131.246 18.26 131.358 18.68 131.358 19.144ZM128.406 20.5C128.926 20.5 129.314 20.384 129.57 20.152C129.826 19.912 129.954 19.576 129.954 19.144C129.954 18.232 129.438 17.776 128.406 17.776H126.894V20.5H128.406Z" fill="black"/>
<path d="M138.615 18.388L134.559 28.108H133.143L134.487 24.892L131.883 18.388H133.407L135.267 23.428L137.199 18.388H138.615Z" fill="black"/>
<path d="M139.192 21.688C139.192 21.008 139.328 20.412 139.6 19.9C139.88 19.38 140.264 18.98 140.752 18.7C141.24 18.42 141.8 18.28 142.432 18.28C143.232 18.28 143.892 18.472 144.412 18.856C144.94 19.232 145.296 19.772 145.48 20.476H144.004C143.884 20.148 143.692 19.892 143.428 19.708C143.164 19.524 142.832 19.432 142.432 19.432C141.872 19.432 141.424 19.632 141.088 20.032C140.76 20.424 140.596 20.976 140.596 21.688C140.596 22.4 140.76 22.956 141.088 23.356C141.424 23.756 141.872 23.956 142.432 23.956C143.224 23.956 143.748 23.608 144.004 22.912H145.48C145.288 23.584 144.928 24.12 144.4 24.52C143.872 24.912 143.216 25.108 142.432 25.108C141.8 25.108 141.24 24.968 140.752 24.688C140.264 24.4 139.88 24 139.6 23.488C139.328 22.968 139.192 22.368 139.192 21.688Z" fill="black"/>
<path d="M152.831 18.388V25H151.463V24.22C151.247 24.492 150.963 24.708 150.611 24.868C150.267 25.02 149.899 25.096 149.507 25.096C148.987 25.096 148.519 24.988 148.103 24.772C147.695 24.556 147.371 24.236 147.131 23.812C146.899 23.388 146.783 22.876 146.783 22.276V18.388H148.139V22.072C148.139 22.664 148.287 23.12 148.583 23.44C148.879 23.752 149.283 23.908 149.795 23.908C150.307 23.908 150.711 23.752 151.007 23.44C151.311 23.12 151.463 22.664 151.463 22.072V18.388H152.831Z" fill="black"/>
<path d="M156.004 19.372C156.236 19.052 156.552 18.792 156.952 18.592C157.36 18.384 157.812 18.28 158.308 18.28C158.892 18.28 159.42 18.42 159.892 18.7C160.364 18.98 160.736 19.38 161.008 19.9C161.28 20.412 161.416 21 161.416 21.664C161.416 22.328 161.28 22.924 161.008 23.452C160.736 23.972 160.36 24.38 159.88 24.676C159.408 24.964 158.884 25.108 158.308 25.108C157.796 25.108 157.34 25.008 156.94 24.808C156.548 24.608 156.236 24.352 156.004 24.04V25H154.636V16.12H156.004V19.372ZM160.024 21.664C160.024 21.208 159.928 20.816 159.736 20.488C159.552 20.152 159.304 19.9 158.992 19.732C158.688 19.556 158.36 19.468 158.008 19.468C157.664 19.468 157.336 19.556 157.024 19.732C156.72 19.908 156.472 20.164 156.28 20.5C156.096 20.836 156.004 21.232 156.004 21.688C156.004 22.144 156.096 22.544 156.28 22.888C156.472 23.224 156.72 23.48 157.024 23.656C157.336 23.832 157.664 23.92 158.008 23.92C158.36 23.92 158.688 23.832 158.992 23.656C159.304 23.472 159.552 23.208 159.736 22.864C159.928 22.52 160.024 22.12 160.024 21.664Z" fill="black"/>
<path d="M168.829 21.532C168.829 21.78 168.813 22.004 168.781 22.204H163.729C163.769 22.732 163.965 23.156 164.317 23.476C164.669 23.796 165.101 23.956 165.613 23.956C166.349 23.956 166.869 23.648 167.173 23.032H168.649C168.449 23.64 168.085 24.14 167.557 24.532C167.037 24.916 166.389 25.108 165.613 25.108C164.981 25.108 164.413 24.968 163.909 24.688C163.413 24.4 163.021 24 162.733 23.488C162.453 22.968 162.313 22.368 162.313 21.688C162.313 21.008 162.449 20.412 162.721 19.9C163.001 19.38 163.389 18.98 163.885 18.7C164.389 18.42 164.965 18.28 165.613 18.28C166.237 18.28 166.793 18.416 167.281 18.688C167.769 18.96 168.149 19.344 168.421 19.84C168.693 20.328 168.829 20.892 168.829 21.532ZM167.401 21.1C167.393 20.596 167.213 20.192 166.861 19.888C166.509 19.584 166.073 19.432 165.553 19.432C165.081 19.432 164.677 19.584 164.341 19.888C164.005 20.184 163.805 20.588 163.741 21.1H167.401Z" fill="black"/>
<path d="M171.708 16.788V17.61H170.592V21H169.566V17.61H168.45V16.788H171.708ZM176.993 16.788V21H175.967V18.474L175.025 21H174.197L173.249 18.468V21H172.223V16.788H173.435L174.617 19.704L175.787 16.788H176.993Z" fill="black"/>
<path d="M179.182 24.928C178.934 24.928 178.726 24.844 178.558 24.676C178.39 24.508 178.306 24.3 178.306 24.052C178.306 23.804 178.39 23.596 178.558 23.428C178.726 23.26 178.934 23.176 179.182 23.176C179.422 23.176 179.626 23.26 179.794 23.428C179.962 23.596 180.046 23.804 180.046 24.052C180.046 24.3 179.962 24.508 179.794 24.676C179.626 24.844 179.422 24.928 179.182 24.928Z" fill="black"/>
<path d="M189.67 23.14H186.178L185.578 24.844H184.15L187.138 16.492H188.722L191.71 24.844H190.27L189.67 23.14ZM189.286 22.024L187.93 18.148L186.562 22.024H189.286Z" fill="black"/>
<path d="M194.377 15.964V24.844H193.009V15.964H194.377Z" fill="black"/>
<path d="M197.541 15.964V24.844H196.173V15.964H197.541Z" fill="black"/>
<path d="M203.822 19.192C204.022 18.856 204.286 18.596 204.614 18.412C204.95 18.22 205.346 18.124 205.802 18.124V19.54H205.454C204.918 19.54 204.51 19.676 204.23 19.948C203.958 20.22 203.822 20.692 203.822 21.364V24.844H202.454V18.232H203.822V19.192Z" fill="black"/>
<path d="M207.756 17.356C207.508 17.356 207.3 17.272 207.132 17.104C206.964 16.936 206.88 16.728 206.88 16.48C206.88 16.232 206.964 16.024 207.132 15.856C207.3 15.688 207.508 15.604 207.756 15.604C207.996 15.604 208.2 15.688 208.368 15.856C208.536 16.024 208.62 16.232 208.62 16.48C208.62 16.728 208.536 16.936 208.368 17.104C208.2 17.272 207.996 17.356 207.756 17.356ZM208.428 18.232V24.844H207.06V18.232H208.428Z" fill="black"/>
<path d="M212.888 18.124C213.4 18.124 213.852 18.228 214.244 18.436C214.644 18.636 214.956 18.888 215.18 19.192V18.232H216.56V24.952C216.56 25.56 216.432 26.1 216.176 26.572C215.92 27.052 215.548 27.428 215.06 27.7C214.58 27.972 214.004 28.108 213.332 28.108C212.436 28.108 211.692 27.896 211.1 27.472C210.508 27.056 210.172 26.488 210.092 25.768H211.448C211.552 26.112 211.772 26.388 212.108 26.596C212.452 26.812 212.86 26.92 213.332 26.92C213.884 26.92 214.328 26.752 214.664 26.416C215.008 26.08 215.18 25.592 215.18 24.952V23.848C214.948 24.16 214.632 24.424 214.232 24.64C213.84 24.848 213.392 24.952 212.888 24.952C212.312 24.952 211.784 24.808 211.304 24.52C210.832 24.224 210.456 23.816 210.176 23.296C209.904 22.768 209.768 22.172 209.768 21.508C209.768 20.844 209.904 20.256 210.176 19.744C210.456 19.232 210.832 18.836 211.304 18.556C211.784 18.268 212.312 18.124 212.888 18.124ZM215.18 21.532C215.18 21.076 215.084 20.68 214.892 20.344C214.708 20.008 214.464 19.752 214.16 19.576C213.856 19.4 213.528 19.312 213.176 19.312C212.824 19.312 212.496 19.4 212.192 19.576C211.888 19.744 211.64 19.996 211.448 20.332C211.264 20.66 211.172 21.052 211.172 21.508C211.172 21.964 211.264 22.364 211.448 22.708C211.64 23.052 211.888 23.316 212.192 23.5C212.504 23.676 212.832 23.764 213.176 23.764C213.528 23.764 213.856 23.676 214.16 23.5C214.464 23.324 214.708 23.068 214.892 22.732C215.084 22.388 215.18 21.988 215.18 21.532Z" fill="black"/>
<path d="M221.777 18.124C222.281 18.124 222.729 18.232 223.121 18.448C223.521 18.664 223.833 18.984 224.057 19.408C224.289 19.832 224.405 20.344 224.405 20.944V24.844H223.049V21.148C223.049 20.556 222.901 20.104 222.605 19.792C222.309 19.472 221.905 19.312 221.393 19.312C220.881 19.312 220.473 19.472 220.169 19.792C219.873 20.104 219.725 20.556 219.725 21.148V24.844H218.357V15.964H219.725V19C219.957 18.72 220.249 18.504 220.601 18.352C220.961 18.2 221.353 18.124 221.777 18.124Z" fill="black"/>
<path d="M227.746 19.348V23.008C227.746 23.256 227.802 23.436 227.914 23.548C228.034 23.652 228.234 23.704 228.514 23.704H229.354V24.844H228.274C227.658 24.844 227.186 24.7 226.858 24.412C226.53 24.124 226.366 23.656 226.366 23.008V19.348H225.586V18.232H226.366V16.588H227.746V18.232H229.354V19.348H227.746Z" fill="black"/>
<path d="M233.014 24.952C232.494 24.952 232.026 24.86 231.61 24.676C231.202 24.484 230.878 24.228 230.638 23.908C230.398 23.58 230.27 23.216 230.254 22.816H231.67C231.694 23.096 231.826 23.332 232.066 23.524C232.314 23.708 232.622 23.8 232.99 23.8C233.374 23.8 233.67 23.728 233.878 23.584C234.094 23.432 234.202 23.24 234.202 23.008C234.202 22.76 234.082 22.576 233.842 22.456C233.61 22.336 233.238 22.204 232.726 22.06C232.23 21.924 231.826 21.792 231.514 21.664C231.202 21.536 230.93 21.34 230.698 21.076C230.474 20.812 230.362 20.464 230.362 20.032C230.362 19.68 230.466 19.36 230.674 19.072C230.882 18.776 231.178 18.544 231.562 18.376C231.954 18.208 232.402 18.124 232.906 18.124C233.658 18.124 234.262 18.316 234.718 18.7C235.182 19.076 235.43 19.592 235.462 20.248H234.094C234.07 19.952 233.95 19.716 233.734 19.54C233.518 19.364 233.226 19.276 232.858 19.276C232.498 19.276 232.222 19.344 232.03 19.48C231.838 19.616 231.742 19.796 231.742 20.02C231.742 20.196 231.806 20.344 231.934 20.464C232.062 20.584 232.218 20.68 232.402 20.752C232.586 20.816 232.858 20.9 233.218 21.004C233.698 21.132 234.09 21.264 234.394 21.4C234.706 21.528 234.974 21.72 235.198 21.976C235.422 22.232 235.538 22.572 235.546 22.996C235.546 23.372 235.442 23.708 235.234 24.004C235.026 24.3 234.73 24.532 234.346 24.7C233.97 24.868 233.526 24.952 233.014 24.952Z" fill="black"/>
<path d="M241.51 19.192C241.71 18.856 241.974 18.596 242.302 18.412C242.638 18.22 243.034 18.124 243.49 18.124V19.54H243.142C242.606 19.54 242.198 19.676 241.918 19.948C241.646 20.22 241.51 20.692 241.51 21.364V24.844H240.142V18.232H241.51V19.192Z" fill="black"/>
<path d="M250.807 21.376C250.807 21.624 250.791 21.848 250.759 22.048H245.707C245.747 22.576 245.943 23 246.295 23.32C246.647 23.64 247.079 23.8 247.591 23.8C248.327 23.8 248.847 23.492 249.151 22.876H250.627C250.427 23.484 250.063 23.984 249.535 24.376C249.015 24.76 248.367 24.952 247.591 24.952C246.959 24.952 246.391 24.812 245.887 24.532C245.391 24.244 244.999 23.844 244.711 23.332C244.431 22.812 244.291 22.212 244.291 21.532C244.291 20.852 244.427 20.256 244.699 19.744C244.979 19.224 245.367 18.824 245.863 18.544C246.367 18.264 246.943 18.124 247.591 18.124C248.215 18.124 248.771 18.26 249.259 18.532C249.747 18.804 250.127 19.188 250.399 19.684C250.671 20.172 250.807 20.736 250.807 21.376ZM249.379 20.944C249.371 20.44 249.191 20.036 248.839 19.732C248.487 19.428 248.051 19.276 247.531 19.276C247.059 19.276 246.655 19.428 246.319 19.732C245.983 20.028 245.783 20.432 245.719 20.944H249.379Z" fill="black"/>
<path d="M254.554 24.952C254.034 24.952 253.566 24.86 253.15 24.676C252.742 24.484 252.418 24.228 252.178 23.908C251.938 23.58 251.81 23.216 251.794 22.816H253.21C253.234 23.096 253.366 23.332 253.606 23.524C253.854 23.708 254.162 23.8 254.53 23.8C254.914 23.8 255.21 23.728 255.418 23.584C255.634 23.432 255.742 23.24 255.742 23.008C255.742 22.76 255.622 22.576 255.382 22.456C255.15 22.336 254.778 22.204 254.266 22.06C253.77 21.924 253.366 21.792 253.054 21.664C252.742 21.536 252.47 21.34 252.238 21.076C252.014 20.812 251.902 20.464 251.902 20.032C251.902 19.68 252.006 19.36 252.214 19.072C252.422 18.776 252.718 18.544 253.102 18.376C253.494 18.208 253.942 18.124 254.446 18.124C255.198 18.124 255.802 18.316 256.258 18.7C256.722 19.076 256.97 19.592 257.002 20.248H255.634C255.61 19.952 255.49 19.716 255.274 19.54C255.058 19.364 254.766 19.276 254.398 19.276C254.038 19.276 253.762 19.344 253.57 19.48C253.378 19.616 253.282 19.796 253.282 20.02C253.282 20.196 253.346 20.344 253.474 20.464C253.602 20.584 253.758 20.68 253.942 20.752C254.126 20.816 254.398 20.9 254.758 21.004C255.238 21.132 255.63 21.264 255.934 21.4C256.246 21.528 256.514 21.72 256.738 21.976C256.962 22.232 257.078 22.572 257.086 22.996C257.086 23.372 256.982 23.708 256.774 24.004C256.566 24.3 256.27 24.532 255.886 24.7C255.51 24.868 255.066 24.952 254.554 24.952Z" fill="black"/>
<path d="M264.624 21.376C264.624 21.624 264.608 21.848 264.576 22.048H259.524C259.564 22.576 259.76 23 260.112 23.32C260.464 23.64 260.896 23.8 261.408 23.8C262.144 23.8 262.664 23.492 262.968 22.876H264.444C264.244 23.484 263.88 23.984 263.352 24.376C262.832 24.76 262.184 24.952 261.408 24.952C260.776 24.952 260.208 24.812 259.704 24.532C259.208 24.244 258.816 23.844 258.528 23.332C258.248 22.812 258.108 22.212 258.108 21.532C258.108 20.852 258.244 20.256 258.516 19.744C258.796 19.224 259.184 18.824 259.68 18.544C260.184 18.264 260.76 18.124 261.408 18.124C262.032 18.124 262.588 18.26 263.076 18.532C263.564 18.804 263.944 19.188 264.216 19.684C264.488 20.172 264.624 20.736 264.624 21.376ZM263.196 20.944C263.188 20.44 263.008 20.036 262.656 19.732C262.304 19.428 261.868 19.276 261.348 19.276C260.876 19.276 260.472 19.428 260.136 19.732C259.8 20.028 259.6 20.432 259.536 20.944H263.196Z" fill="black"/>
<path d="M267.338 19.192C267.538 18.856 267.802 18.596 268.13 18.412C268.466 18.22 268.862 18.124 269.318 18.124V19.54H268.97C268.434 19.54 268.026 19.676 267.746 19.948C267.474 20.22 267.338 20.692 267.338 21.364V24.844H265.97V18.232H267.338V19.192Z" fill="black"/>
<path d="M273.131 23.62L275.003 18.232H276.455L273.935 24.844H272.303L269.795 18.232H271.259L273.131 23.62Z" fill="black"/>
<path d="M283.549 21.376C283.549 21.624 283.533 21.848 283.501 22.048H278.449C278.489 22.576 278.685 23 279.037 23.32C279.389 23.64 279.821 23.8 280.333 23.8C281.069 23.8 281.589 23.492 281.893 22.876H283.369C283.169 23.484 282.805 23.984 282.277 24.376C281.757 24.76 281.109 24.952 280.333 24.952C279.701 24.952 279.133 24.812 278.629 24.532C278.133 24.244 277.741 23.844 277.453 23.332C277.173 22.812 277.033 22.212 277.033 21.532C277.033 20.852 277.169 20.256 277.441 19.744C277.721 19.224 278.109 18.824 278.605 18.544C279.109 18.264 279.685 18.124 280.333 18.124C280.957 18.124 281.513 18.26 282.001 18.532C282.489 18.804 282.869 19.188 283.141 19.684C283.413 20.172 283.549 20.736 283.549 21.376ZM282.121 20.944C282.113 20.44 281.933 20.036 281.581 19.732C281.229 19.428 280.793 19.276 280.273 19.276C279.801 19.276 279.397 19.428 279.061 19.732C278.725 20.028 278.525 20.432 278.461 20.944H282.121Z" fill="black"/>
<path d="M284.44 21.508C284.44 20.844 284.576 20.256 284.848 19.744C285.128 19.232 285.504 18.836 285.976 18.556C286.456 18.268 286.988 18.124 287.572 18.124C288.004 18.124 288.428 18.22 288.844 18.412C289.268 18.596 289.604 18.844 289.852 19.156V15.964H291.232V24.844H289.852V23.848C289.628 24.168 289.316 24.432 288.916 24.64C288.524 24.848 288.072 24.952 287.56 24.952C286.984 24.952 286.456 24.808 285.976 24.52C285.504 24.224 285.128 23.816 284.848 23.296C284.576 22.768 284.44 22.172 284.44 21.508ZM289.852 21.532C289.852 21.076 289.756 20.68 289.564 20.344C289.38 20.008 289.136 19.752 288.832 19.576C288.528 19.4 288.2 19.312 287.848 19.312C287.496 19.312 287.168 19.4 286.864 19.576C286.56 19.744 286.312 19.996 286.12 20.332C285.936 20.66 285.844 21.052 285.844 21.508C285.844 21.964 285.936 22.364 286.12 22.708C286.312 23.052 286.56 23.316 286.864 23.5C287.176 23.676 287.504 23.764 287.848 23.764C288.2 23.764 288.528 23.676 288.832 23.5C289.136 23.324 289.38 23.068 289.564 22.732C289.756 22.388 289.852 21.988 289.852 21.532Z" fill="black"/>
<path d="M293.581 24.928C293.333 24.928 293.125 24.844 292.957 24.676C292.789 24.508 292.705 24.3 292.705 24.052C292.705 23.804 292.789 23.596 292.957 23.428C293.125 23.26 293.333 23.176 293.581 23.176C293.821 23.176 294.025 23.26 294.193 23.428C294.361 23.596 294.445 23.804 294.445 24.052C294.445 24.3 294.361 24.508 294.193 24.676C294.025 24.844 293.821 24.928 293.581 24.928Z" fill="black"/>
</svg>
