<svg width="371" height="277" viewBox="0 0 371 277" fill="none" xmlns="http://www.w3.org/2000/svg">
<path d="M40 42C40 40.8954 40.8954 40 42 40H329C330.105 40 331 40.8954 331 42V235C331 236.105 330.105 237 329 237H42C40.8954 237 40 236.105 40 235V42Z" fill="#01042E"/>
<path d="M42 41H329V39H42V41ZM330 42V235H332V42H330ZM329 236H42V238H329V236ZM41 235V42H39V235H41ZM42 236C41.4477 236 41 235.552 41 235H39C39 236.657 40.3431 238 42 238V236ZM330 235C330 235.552 329.552 236 329 236V238C330.657 238 332 236.657 332 235H330ZM329 41C329.552 41 330 41.4477 330 42H332C332 40.3431 330.657 39 329 39V41ZM42 39C40.3431 39 39 40.3431 39 42H41C41 41.4477 41.4477 41 42 41V39Z" fill="black" fill-opacity="0.1"/>
<rect x="40" y="4" width="101.016" height="30" rx="3" fill="#01042E"/>
<rect x="40.5" y="4.5" width="100.016" height="29" rx="2.5" stroke="black" stroke-opacity="0.2"/>
<path d="M49.4375 22H46.9688V14H49.5469C50.3229 14 50.987 14.1602 51.5391 14.4805C52.0911 14.7982 52.5143 15.2552 52.8086 15.8516C53.1029 16.4453 53.25 17.1562 53.25 17.9844C53.25 18.8177 53.1016 19.5352 52.8047 20.1367C52.5078 20.7357 52.0755 21.1966 51.5078 21.5195C50.9401 21.8398 50.25 22 49.4375 22ZM47.9375 21.1406H49.375C50.0365 21.1406 50.5846 21.013 51.0195 20.7578C51.4544 20.5026 51.7786 20.1393 51.9922 19.668C52.2057 19.1966 52.3125 18.6354 52.3125 17.9844C52.3125 17.3385 52.207 16.7826 51.9961 16.3164C51.7852 15.8477 51.4701 15.4883 51.0508 15.2383C50.6315 14.9857 50.1094 14.8594 49.4844 14.8594H47.9375V21.1406ZM56.5156 22.1406C56.1354 22.1406 55.7904 22.069 55.4805 21.9258C55.1706 21.7799 54.9245 21.5703 54.7422 21.2969C54.5599 21.0208 54.4688 20.6875 54.4688 20.2969C54.4688 19.9531 54.5365 19.6745 54.6719 19.4609C54.8073 19.2448 54.9883 19.0755 55.2148 18.9531C55.4414 18.8307 55.6914 18.7396 55.9648 18.6797C56.2409 18.6172 56.5182 18.5677 56.7969 18.5313C57.1615 18.4844 57.457 18.4492 57.6836 18.4258C57.9128 18.3997 58.0794 18.3568 58.1836 18.2969C58.2904 18.237 58.3438 18.1328 58.3438 17.9844V17.9531C58.3438 17.5677 58.2383 17.2682 58.0273 17.0547C57.819 16.8411 57.5026 16.7344 57.0781 16.7344C56.638 16.7344 56.293 16.8307 56.043 17.0234C55.793 17.2161 55.6172 17.4219 55.5156 17.6406L54.6406 17.3281C54.7969 16.9635 55.0052 16.6797 55.2656 16.4766C55.5286 16.2708 55.8151 16.1276 56.125 16.0469C56.4375 15.9635 56.7448 15.9219 57.0469 15.9219C57.2396 15.9219 57.4609 15.9453 57.7109 15.9922C57.9635 16.0365 58.207 16.1289 58.4414 16.2695C58.6784 16.4102 58.875 16.6224 59.0313 16.9062C59.1875 17.1901 59.2656 17.5703 59.2656 18.0469V22H58.3438V21.1875H58.2969C58.2344 21.3177 58.1302 21.457 57.9844 21.6055C57.8385 21.7539 57.6445 21.8802 57.4023 21.9844C57.1602 22.0885 56.8646 22.1406 56.5156 22.1406ZM56.6562 21.3125C57.0208 21.3125 57.3281 21.2409 57.5781 21.0977C57.8307 20.9544 58.0208 20.7695 58.1484 20.543C58.2786 20.3164 58.3438 20.0781 58.3438 19.8281V18.9844C58.3047 19.0312 58.2188 19.0742 58.0859 19.1133C57.9557 19.1497 57.8047 19.1823 57.6328 19.2109C57.4635 19.237 57.2982 19.2604 57.1367 19.2812C56.9779 19.2995 56.849 19.3151 56.75 19.3281C56.5104 19.3594 56.2865 19.4102 56.0781 19.4805C55.8724 19.5482 55.7057 19.651 55.5781 19.7891C55.4531 19.9245 55.3906 20.1094 55.3906 20.3437C55.3906 20.6641 55.5091 20.9062 55.7461 21.0703C55.9857 21.2318 56.2891 21.3125 56.6562 21.3125ZM60.9482 22V16H61.8389V16.9062H61.9014C62.0107 16.6094 62.2087 16.3685 62.4951 16.1836C62.7816 15.9987 63.1045 15.9062 63.4639 15.9062C63.5316 15.9062 63.6162 15.9076 63.7178 15.9102C63.8193 15.9128 63.8962 15.9167 63.9482 15.9219V16.8594C63.917 16.8516 63.8454 16.8398 63.7334 16.8242C63.624 16.806 63.5081 16.7969 63.3857 16.7969C63.0941 16.7969 62.8337 16.8581 62.6045 16.9805C62.3779 17.1003 62.1982 17.2669 62.0654 17.4805C61.9352 17.6914 61.8701 17.9323 61.8701 18.2031V22H60.9482ZM65.9004 19.8125L65.8848 18.6719H66.0723L68.6973 16H69.8379L67.041 18.8281H66.9629L65.9004 19.8125ZM65.041 22V14H65.9629V22H65.041ZM68.8535 22L66.5098 19.0312L67.166 18.3906L70.0254 22H68.8535ZM74.2432 22V14H75.165V16.9531H75.2432C75.3109 16.849 75.4046 16.7161 75.5244 16.5547C75.6468 16.3906 75.8213 16.2448 76.0479 16.1172C76.277 15.987 76.5869 15.9219 76.9775 15.9219C77.4827 15.9219 77.9281 16.0482 78.3135 16.3008C78.6989 16.5534 78.9997 16.9115 79.2158 17.375C79.432 17.8385 79.54 18.3854 79.54 19.0156C79.54 19.651 79.432 20.2018 79.2158 20.668C78.9997 21.1315 78.7002 21.4909 78.3174 21.7461C77.9346 21.9987 77.4932 22.125 76.9932 22.125C76.6077 22.125 76.2992 22.0612 76.0674 21.9336C75.8356 21.8034 75.6572 21.6562 75.5322 21.4922C75.4072 21.3255 75.3109 21.1875 75.2432 21.0781H75.1338V22H74.2432ZM75.1494 19C75.1494 19.4531 75.2158 19.8529 75.3486 20.1992C75.4814 20.543 75.6755 20.8125 75.9307 21.0078C76.1859 21.2005 76.4984 21.2969 76.8682 21.2969C77.2536 21.2969 77.5752 21.1953 77.833 20.9922C78.0934 20.7865 78.2887 20.5104 78.4189 20.1641C78.5518 19.8151 78.6182 19.4271 78.6182 19C78.6182 18.5781 78.5531 18.1979 78.4229 17.8594C78.2952 17.5182 78.1012 17.2487 77.8408 17.0508C77.583 16.8503 77.2588 16.75 76.8682 16.75C76.4932 16.75 76.1781 16.8451 75.9229 17.0352C75.6676 17.2227 75.4749 17.4857 75.3447 17.8242C75.2145 18.1602 75.1494 18.5521 75.1494 19ZM82.7158 22.1406C82.3356 22.1406 81.9906 22.069 81.6807 21.9258C81.3708 21.7799 81.1247 21.5703 80.9424 21.2969C80.7601 21.0208 80.6689 20.6875 80.6689 20.2969C80.6689 19.9531 80.7367 19.6745 80.8721 19.4609C81.0075 19.2448 81.1885 19.0755 81.415 18.9531C81.6416 18.8307 81.8916 18.7396 82.165 18.6797C82.4411 18.6172 82.7184 18.5677 82.9971 18.5313C83.3617 18.4844 83.6572 18.4492 83.8838 18.4258C84.113 18.3997 84.2796 18.3568 84.3838 18.2969C84.4906 18.237 84.5439 18.1328 84.5439 17.9844V17.9531C84.5439 17.5677 84.4385 17.2682 84.2275 17.0547C84.0192 16.8411 83.7028 16.7344 83.2783 16.7344C82.8382 16.7344 82.4932 16.8307 82.2432 17.0234C81.9932 17.2161 81.8174 17.4219 81.7158 17.6406L80.8408 17.3281C80.9971 16.9635 81.2054 16.6797 81.4658 16.4766C81.7288 16.2708 82.0153 16.1276 82.3252 16.0469C82.6377 15.9635 82.945 15.9219 83.2471 15.9219C83.4398 15.9219 83.6611 15.9453 83.9111 15.9922C84.1637 16.0365 84.4072 16.1289 84.6416 16.2695C84.8786 16.4102 85.0752 16.6224 85.2314 16.9062C85.3877 17.1901 85.4658 17.5703 85.4658 18.0469V22H84.5439V21.1875H84.4971C84.4346 21.3177 84.3304 21.457 84.1846 21.6055C84.0387 21.7539 83.8447 21.8802 83.6025 21.9844C83.3604 22.0885 83.0648 22.1406 82.7158 22.1406ZM82.8564 21.3125C83.221 21.3125 83.5283 21.2409 83.7783 21.0977C84.0309 20.9544 84.221 20.7695 84.3486 20.543C84.4788 20.3164 84.5439 20.0781 84.5439 19.8281V18.9844C84.5049 19.0312 84.4189 19.0742 84.2861 19.1133C84.1559 19.1497 84.0049 19.1823 83.833 19.2109C83.6637 19.237 83.4984 19.2604 83.3369 19.2812C83.1781 19.2995 83.0492 19.3151 82.9502 19.3281C82.7106 19.3594 82.4867 19.4102 82.2783 19.4805C82.0726 19.5482 81.9059 19.651 81.7783 19.7891C81.6533 19.9245 81.5908 20.1094 81.5908 20.3437C81.5908 20.6641 81.7093 20.9062 81.9463 21.0703C82.1859 21.2318 82.4893 21.3125 82.8564 21.3125ZM89.5859 22.125C89.0234 22.125 88.5391 21.9922 88.1328 21.7266C87.7266 21.4609 87.4141 21.0951 87.1953 20.6289C86.9766 20.1628 86.8672 19.6302 86.8672 19.0312C86.8672 18.4219 86.9792 17.8841 87.2031 17.418C87.4297 16.9492 87.7448 16.5833 88.1484 16.3203C88.5547 16.0547 89.0286 15.9219 89.5703 15.9219C89.9922 15.9219 90.3724 16 90.7109 16.1562C91.0495 16.3125 91.3268 16.5312 91.543 16.8125C91.7591 17.0937 91.8932 17.4219 91.9453 17.7969H91.0234C90.9531 17.5234 90.7969 17.2812 90.5547 17.0703C90.3151 16.8568 89.9922 16.75 89.5859 16.75C89.2266 16.75 88.9115 16.8437 88.6406 17.0312C88.3724 17.2161 88.1628 17.4779 88.0117 17.8164C87.8633 18.1523 87.7891 18.5469 87.7891 19C87.7891 19.4635 87.862 19.8672 88.0078 20.2109C88.1563 20.5547 88.3646 20.8216 88.6328 21.0117C88.9036 21.2018 89.2214 21.2969 89.5859 21.2969C89.8255 21.2969 90.043 21.2552 90.2383 21.1719C90.4336 21.0885 90.599 20.9688 90.7344 20.8125C90.8698 20.6562 90.9661 20.4687 91.0234 20.25H91.9453C91.8932 20.6042 91.7643 20.9232 91.5586 21.207C91.3555 21.4883 91.0859 21.7122 90.75 21.8789C90.4167 22.043 90.0286 22.125 89.5859 22.125ZM94.1523 19.8125L94.1367 18.6719H94.3242L96.9492 16H98.0898L95.293 18.8281H95.2148L94.1523 19.8125ZM93.293 22V14H94.2148V22H93.293ZM97.1055 22L94.7617 19.0312L95.418 18.3906L98.2773 22H97.1055ZM101.451 24.375C101.006 24.375 100.623 24.3177 100.303 24.2031C99.9824 24.0911 99.7155 23.9427 99.502 23.7578C99.291 23.5755 99.123 23.3802 98.998 23.1719L99.7324 22.6563C99.8158 22.7656 99.9212 22.8906 100.049 23.0312C100.176 23.1745 100.351 23.2982 100.572 23.4023C100.796 23.5091 101.089 23.5625 101.451 23.5625C101.936 23.5625 102.335 23.4453 102.65 23.2109C102.965 22.9766 103.123 22.6094 103.123 22.1094V20.8906H103.045C102.977 21 102.881 21.1354 102.756 21.2969C102.633 21.4557 102.456 21.5977 102.225 21.7227C101.995 21.8451 101.686 21.9062 101.295 21.9062C100.811 21.9062 100.376 21.7917 99.9902 21.5625C99.6074 21.3333 99.304 21 99.0801 20.5625C98.8587 20.125 98.748 19.5937 98.748 18.9687C98.748 18.3542 98.8561 17.819 99.0723 17.3633C99.2884 16.9049 99.5892 16.5508 99.9746 16.3008C100.36 16.0482 100.805 15.9219 101.311 15.9219C101.701 15.9219 102.011 15.987 102.24 16.1172C102.472 16.2448 102.649 16.3906 102.771 16.5547C102.896 16.7161 102.993 16.849 103.061 16.9531H103.154V16H104.045V22.1719C104.045 22.6875 103.928 23.1068 103.693 23.4297C103.462 23.7552 103.149 23.9935 102.756 24.1445C102.365 24.2982 101.93 24.375 101.451 24.375ZM101.42 21.0781C101.79 21.0781 102.102 20.9935 102.357 20.8242C102.613 20.6549 102.807 20.4115 102.939 20.0938C103.072 19.776 103.139 19.3958 103.139 18.9531C103.139 18.5208 103.074 18.1393 102.943 17.8086C102.813 17.4779 102.62 17.2187 102.365 17.0312C102.11 16.8437 101.795 16.75 101.42 16.75C101.029 16.75 100.704 16.849 100.443 17.0469C100.186 17.2448 99.9915 17.5104 99.8613 17.8438C99.7337 18.1771 99.6699 18.5469 99.6699 18.9531C99.6699 19.3698 99.735 19.7383 99.8652 20.0586C99.998 20.3763 100.193 20.6263 100.451 20.8086C100.712 20.9883 101.035 21.0781 101.42 21.0781ZM105.732 22V16H106.623V16.9062H106.686C106.795 16.6094 106.993 16.3685 107.279 16.1836C107.566 15.9987 107.889 15.9062 108.248 15.9062C108.316 15.9062 108.4 15.9076 108.502 15.9102C108.604 15.9128 108.68 15.9167 108.732 15.9219V16.8594C108.701 16.8516 108.63 16.8398 108.518 16.8242C108.408 16.806 108.292 16.7969 108.17 16.7969C107.878 16.7969 107.618 16.8581 107.389 16.9805C107.162 17.1003 106.982 17.2669 106.85 17.4805C106.719 17.6914 106.654 17.9323 106.654 18.2031V22H105.732ZM112.08 22.125C111.538 22.125 111.063 21.9961 110.654 21.7383C110.248 21.4805 109.93 21.1198 109.701 20.6562C109.475 20.1927 109.361 19.651 109.361 19.0312C109.361 18.4062 109.475 17.8607 109.701 17.3945C109.93 16.9284 110.248 16.5664 110.654 16.3086C111.063 16.0508 111.538 15.9219 112.08 15.9219C112.622 15.9219 113.096 16.0508 113.502 16.3086C113.911 16.5664 114.229 16.9284 114.455 17.3945C114.684 17.8607 114.799 18.4062 114.799 19.0312C114.799 19.651 114.684 20.1927 114.455 20.6562C114.229 21.1198 113.911 21.4805 113.502 21.7383C113.096 21.9961 112.622 22.125 112.08 22.125ZM112.08 21.2969C112.492 21.2969 112.83 21.1914 113.096 20.9805C113.361 20.7695 113.558 20.4922 113.686 20.1484C113.813 19.8047 113.877 19.4323 113.877 19.0312C113.877 18.6302 113.813 18.2565 113.686 17.9102C113.558 17.5638 113.361 17.2839 113.096 17.0703C112.83 16.8568 112.492 16.75 112.08 16.75C111.669 16.75 111.33 16.8568 111.064 17.0703C110.799 17.2839 110.602 17.5638 110.475 17.9102C110.347 18.2565 110.283 18.6302 110.283 19.0312C110.283 19.4323 110.347 19.8047 110.475 20.1484C110.602 20.4922 110.799 20.7695 111.064 20.9805C111.33 21.1914 111.669 21.2969 112.08 21.2969ZM119.987 19.5469V16H120.909V22H119.987V20.9844H119.925C119.784 21.2891 119.565 21.5482 119.269 21.7617C118.972 21.9727 118.597 22.0781 118.144 22.0781C117.769 22.0781 117.435 21.9961 117.144 21.832C116.852 21.6654 116.623 21.4154 116.456 21.082C116.289 20.7461 116.206 20.3229 116.206 19.8125V16H117.128V19.75C117.128 20.1875 117.25 20.5365 117.495 20.7969C117.743 21.0573 118.058 21.1875 118.44 21.1875C118.67 21.1875 118.903 21.1289 119.14 21.0117C119.379 20.8945 119.58 20.7148 119.741 20.4727C119.905 20.2305 119.987 19.9219 119.987 19.5469ZM123.52 18.3906V22H122.598V16H123.488V16.9375H123.566C123.707 16.6328 123.921 16.388 124.207 16.2031C124.493 16.0156 124.863 15.9219 125.316 15.9219C125.723 15.9219 126.078 16.0052 126.383 16.1719C126.688 16.3359 126.924 16.5859 127.094 16.9219C127.263 17.2552 127.348 17.6771 127.348 18.1875V22H126.426V18.25C126.426 17.7786 126.303 17.4115 126.059 17.1484C125.814 16.8828 125.478 16.75 125.051 16.75C124.757 16.75 124.493 16.8138 124.262 16.9414C124.033 17.069 123.852 17.2552 123.719 17.5C123.586 17.7448 123.52 18.0417 123.52 18.3906ZM131.298 22.125C130.798 22.125 130.356 21.9987 129.974 21.7461C129.591 21.4909 129.291 21.1315 129.075 20.668C128.859 20.2018 128.751 19.651 128.751 19.0156C128.751 18.3854 128.859 17.8385 129.075 17.375C129.291 16.9115 129.592 16.5534 129.978 16.3008C130.363 16.0482 130.808 15.9219 131.313 15.9219C131.704 15.9219 132.013 15.987 132.239 16.1172C132.468 16.2448 132.643 16.3906 132.763 16.5547C132.885 16.7161 132.98 16.849 133.048 16.9531H133.126V14H134.048V22H133.157V21.0781H133.048C132.98 21.1875 132.884 21.3255 132.759 21.4922C132.634 21.6562 132.455 21.8034 132.224 21.9336C131.992 22.0612 131.683 22.125 131.298 22.125ZM131.423 21.2969C131.793 21.2969 132.105 21.2005 132.36 21.0078C132.616 20.8125 132.81 20.543 132.942 20.1992C133.075 19.8529 133.142 19.4531 133.142 19C133.142 18.5521 133.076 18.1602 132.946 17.8242C132.816 17.4857 132.623 17.2227 132.368 17.0352C132.113 16.8451 131.798 16.75 131.423 16.75C131.032 16.75 130.707 16.8503 130.446 17.0508C130.188 17.2487 129.994 17.5182 129.864 17.8594C129.737 18.1979 129.673 18.5781 129.673 19C129.673 19.4271 129.738 19.8151 129.868 20.1641C130.001 20.5104 130.196 20.7865 130.454 20.9922C130.715 21.1953 131.037 21.2969 131.423 21.2969Z" fill="white"/>
</svg>
