<svg width="254" height="52" viewBox="0 0 254 52" fill="none" xmlns="http://www.w3.org/2000/svg">
<path d="M52.59 19.2997V20.4097H49.74V29.7547H48.375V20.4097H45.51V19.2997H52.59ZM61.7702 25.3297C61.7702 25.5897 61.7552 25.8647 61.7252 26.1547H55.1552C55.2052 26.9647 55.4802 27.5997 55.9802 28.0597C56.4902 28.5097 57.1052 28.7347 57.8252 28.7347C58.4152 28.7347 58.9052 28.5997 59.2952 28.3297C59.6952 28.0497 59.9752 27.6797 60.1352 27.2197H61.6052C61.3852 28.0097 60.9452 28.6547 60.2852 29.1547C59.6252 29.6447 58.8052 29.8897 57.8252 29.8897C57.0452 29.8897 56.3452 29.7147 55.7252 29.3647C55.1152 29.0147 54.6352 28.5197 54.2852 27.8797C53.9352 27.2297 53.7602 26.4797 53.7602 25.6297C53.7602 24.7797 53.9302 24.0347 54.2702 23.3947C54.6102 22.7547 55.0852 22.2647 55.6952 21.9247C56.3152 21.5747 57.0252 21.3997 57.8252 21.3997C58.6052 21.3997 59.2952 21.5697 59.8952 21.9097C60.4952 22.2497 60.9552 22.7197 61.2752 23.3197C61.6052 23.9097 61.7702 24.5797 61.7702 25.3297ZM60.3602 25.0447C60.3602 24.5247 60.2452 24.0797 60.0152 23.7097C59.7852 23.3297 59.4702 23.0447 59.0702 22.8547C58.6802 22.6547 58.2452 22.5547 57.7652 22.5547C57.0752 22.5547 56.4852 22.7747 55.9952 23.2147C55.5152 23.6547 55.2402 24.2647 55.1702 25.0447H60.3602ZM73.457 21.3847C74.097 21.3847 74.667 21.5197 75.167 21.7897C75.667 22.0497 76.062 22.4447 76.352 22.9747C76.642 23.5047 76.787 24.1497 76.787 24.9097V29.7547H75.437V25.1047C75.437 24.2847 75.232 23.6597 74.822 23.2297C74.422 22.7897 73.877 22.5697 73.187 22.5697C72.477 22.5697 71.912 22.7997 71.492 23.2597C71.072 23.7097 70.862 24.3647 70.862 25.2247V29.7547H69.512V25.1047C69.512 24.2847 69.307 23.6597 68.897 23.2297C68.497 22.7897 67.952 22.5697 67.262 22.5697C66.552 22.5697 65.987 22.7997 65.567 23.2597C65.147 23.7097 64.937 24.3647 64.937 25.2247V29.7547H63.572V21.5347H64.937V22.7197C65.207 22.2897 65.567 21.9597 66.017 21.7297C66.477 21.4997 66.982 21.3847 67.532 21.3847C68.222 21.3847 68.832 21.5397 69.362 21.8497C69.892 22.1597 70.287 22.6147 70.547 23.2147C70.777 22.6347 71.157 22.1847 71.687 21.8647C72.217 21.5447 72.807 21.3847 73.457 21.3847ZM80.3911 23.0497C80.6611 22.5797 81.0611 22.1897 81.5911 21.8797C82.1311 21.5597 82.7561 21.3997 83.4661 21.3997C84.1961 21.3997 84.8561 21.5747 85.4461 21.9247C86.0461 22.2747 86.5161 22.7697 86.8561 23.4097C87.1961 24.0397 87.3661 24.7747 87.3661 25.6147C87.3661 26.4447 87.1961 27.1847 86.8561 27.8347C86.5161 28.4847 86.0461 28.9897 85.4461 29.3497C84.8561 29.7097 84.1961 29.8897 83.4661 29.8897C82.7661 29.8897 82.1461 29.7347 81.6061 29.4247C81.0761 29.1047 80.6711 28.7097 80.3911 28.2397V33.6547H79.0261V21.5347H80.3911V23.0497ZM85.9711 25.6147C85.9711 24.9947 85.8461 24.4547 85.5961 23.9947C85.3461 23.5347 85.0061 23.1847 84.5761 22.9447C84.1561 22.7047 83.6911 22.5847 83.1811 22.5847C82.6811 22.5847 82.2161 22.7097 81.7861 22.9597C81.3661 23.1997 81.0261 23.5547 80.7661 24.0247C80.5161 24.4847 80.3911 25.0197 80.3911 25.6297C80.3911 26.2497 80.5161 26.7947 80.7661 27.2647C81.0261 27.7247 81.3661 28.0797 81.7861 28.3297C82.2161 28.5697 82.6811 28.6897 83.1811 28.6897C83.6911 28.6897 84.1561 28.5697 84.5761 28.3297C85.0061 28.0797 85.3461 27.7247 85.5961 27.2647C85.8461 26.7947 85.9711 26.2447 85.9711 25.6147ZM90.5278 18.6547V29.7547H89.1628V18.6547H90.5278ZM92.3442 25.6147C92.3442 24.7747 92.5142 24.0397 92.8542 23.4097C93.1942 22.7697 93.6592 22.2747 94.2492 21.9247C94.8492 21.5747 95.5142 21.3997 96.2442 21.3997C96.9642 21.3997 97.5892 21.5547 98.1192 21.8647C98.6492 22.1747 99.0442 22.5647 99.3042 23.0347V21.5347H100.684V29.7547H99.3042V28.2247C99.0342 28.7047 98.6292 29.1047 98.0892 29.4247C97.5592 29.7347 96.9392 29.8897 96.2292 29.8897C95.4992 29.8897 94.8392 29.7097 94.2492 29.3497C93.6592 28.9897 93.1942 28.4847 92.8542 27.8347C92.5142 27.1847 92.3442 26.4447 92.3442 25.6147ZM99.3042 25.6297C99.3042 25.0097 99.1792 24.4697 98.9292 24.0097C98.6792 23.5497 98.3392 23.1997 97.9092 22.9597C97.4892 22.7097 97.0242 22.5847 96.5142 22.5847C96.0042 22.5847 95.5392 22.7047 95.1192 22.9447C94.6992 23.1847 94.3642 23.5347 94.1142 23.9947C93.8642 24.4547 93.7392 24.9947 93.7392 25.6147C93.7392 26.2447 93.8642 26.7947 94.1142 27.2647C94.3642 27.7247 94.6992 28.0797 95.1192 28.3297C95.5392 28.5697 96.0042 28.6897 96.5142 28.6897C97.0242 28.6897 97.4892 28.5697 97.9092 28.3297C98.3392 28.0797 98.6792 27.7247 98.9292 27.2647C99.1792 26.7947 99.3042 26.2497 99.3042 25.6297ZM104.656 22.6597V27.5047C104.656 27.9047 104.741 28.1897 104.911 28.3597C105.081 28.5197 105.376 28.5997 105.796 28.5997H106.801V29.7547H105.571C104.811 29.7547 104.241 29.5797 103.861 29.2297C103.481 28.8797 103.291 28.3047 103.291 27.5047V22.6597H102.226V21.5347H103.291V19.4647H104.656V21.5347H106.801V22.6597H104.656ZM115.955 25.3297C115.955 25.5897 115.94 25.8647 115.91 26.1547H109.34C109.39 26.9647 109.665 27.5997 110.165 28.0597C110.675 28.5097 111.29 28.7347 112.01 28.7347C112.6 28.7347 113.09 28.5997 113.48 28.3297C113.88 28.0497 114.16 27.6797 114.32 27.2197H115.79C115.57 28.0097 115.13 28.6547 114.47 29.1547C113.81 29.6447 112.99 29.8897 112.01 29.8897C111.23 29.8897 110.53 29.7147 109.91 29.3647C109.3 29.0147 108.82 28.5197 108.47 27.8797C108.12 27.2297 107.945 26.4797 107.945 25.6297C107.945 24.7797 108.115 24.0347 108.455 23.3947C108.795 22.7547 109.27 22.2647 109.88 21.9247C110.5 21.5747 111.21 21.3997 112.01 21.3997C112.79 21.3997 113.48 21.5697 114.08 21.9097C114.68 22.2497 115.14 22.7197 115.46 23.3197C115.79 23.9097 115.955 24.5797 115.955 25.3297ZM114.545 25.0447C114.545 24.5247 114.43 24.0797 114.2 23.7097C113.97 23.3297 113.655 23.0447 113.255 22.8547C112.865 22.6547 112.43 22.5547 111.95 22.5547C111.26 22.5547 110.67 22.7747 110.18 23.2147C109.7 23.6547 109.425 24.2647 109.355 25.0447H114.545ZM125.011 19.2997C126.151 19.2997 127.136 19.5147 127.966 19.9447C128.806 20.3647 129.446 20.9697 129.886 21.7597C130.336 22.5497 130.561 23.4797 130.561 24.5497C130.561 25.6197 130.336 26.5497 129.886 27.3397C129.446 28.1197 128.806 28.7197 127.966 29.1397C127.136 29.5497 126.151 29.7547 125.011 29.7547H121.756V19.2997H125.011ZM125.011 28.6297C126.361 28.6297 127.391 28.2747 128.101 27.5647C128.811 26.8447 129.166 25.8397 129.166 24.5497C129.166 23.2497 128.806 22.2347 128.086 21.5047C127.376 20.7747 126.351 20.4097 125.011 20.4097H123.121V28.6297H125.011ZM135.946 29.8897C135.176 29.8897 134.476 29.7147 133.846 29.3647C133.226 29.0147 132.736 28.5197 132.376 27.8797C132.026 27.2297 131.851 26.4797 131.851 25.6297C131.851 24.7897 132.031 24.0497 132.391 23.4097C132.761 22.7597 133.261 22.2647 133.891 21.9247C134.521 21.5747 135.226 21.3997 136.006 21.3997C136.786 21.3997 137.491 21.5747 138.121 21.9247C138.751 22.2647 139.246 22.7547 139.606 23.3947C139.976 24.0347 140.161 24.7797 140.161 25.6297C140.161 26.4797 139.971 27.2297 139.591 27.8797C139.221 28.5197 138.716 29.0147 138.076 29.3647C137.436 29.7147 136.726 29.8897 135.946 29.8897ZM135.946 28.6897C136.436 28.6897 136.896 28.5747 137.326 28.3447C137.756 28.1147 138.101 27.7697 138.361 27.3097C138.631 26.8497 138.766 26.2897 138.766 25.6297C138.766 24.9697 138.636 24.4097 138.376 23.9497C138.116 23.4897 137.776 23.1497 137.356 22.9297C136.936 22.6997 136.481 22.5847 135.991 22.5847C135.491 22.5847 135.031 22.6997 134.611 22.9297C134.201 23.1497 133.871 23.4897 133.621 23.9497C133.371 24.4097 133.246 24.9697 133.246 25.6297C133.246 26.2997 133.366 26.8647 133.606 27.3247C133.856 27.7847 134.186 28.1297 134.596 28.3597C135.006 28.5797 135.456 28.6897 135.946 28.6897ZM152.906 21.5347L150.341 29.7547H148.931L146.951 23.2297L144.971 29.7547H143.561L140.981 21.5347H142.376L144.266 28.4347L146.306 21.5347H147.701L149.696 28.4497L151.556 21.5347H152.906ZM158.265 21.3847C159.265 21.3847 160.075 21.6897 160.695 22.2997C161.315 22.8997 161.625 23.7697 161.625 24.9097V29.7547H160.275V25.1047C160.275 24.2847 160.07 23.6597 159.66 23.2297C159.25 22.7897 158.69 22.5697 157.98 22.5697C157.26 22.5697 156.685 22.7947 156.255 23.2447C155.835 23.6947 155.625 24.3497 155.625 25.2097V29.7547H154.26V21.5347H155.625V22.7047C155.895 22.2847 156.26 21.9597 156.72 21.7297C157.19 21.4997 157.705 21.3847 158.265 21.3847ZM165.22 18.6547V29.7547H163.855V18.6547H165.22ZM171.132 29.8897C170.362 29.8897 169.662 29.7147 169.032 29.3647C168.412 29.0147 167.922 28.5197 167.562 27.8797C167.212 27.2297 167.037 26.4797 167.037 25.6297C167.037 24.7897 167.217 24.0497 167.577 23.4097C167.947 22.7597 168.447 22.2647 169.077 21.9247C169.707 21.5747 170.412 21.3997 171.192 21.3997C171.972 21.3997 172.677 21.5747 173.307 21.9247C173.937 22.2647 174.432 22.7547 174.792 23.3947C175.162 24.0347 175.347 24.7797 175.347 25.6297C175.347 26.4797 175.157 27.2297 174.777 27.8797C174.407 28.5197 173.902 29.0147 173.262 29.3647C172.622 29.7147 171.912 29.8897 171.132 29.8897ZM171.132 28.6897C171.622 28.6897 172.082 28.5747 172.512 28.3447C172.942 28.1147 173.287 27.7697 173.547 27.3097C173.817 26.8497 173.952 26.2897 173.952 25.6297C173.952 24.9697 173.822 24.4097 173.562 23.9497C173.302 23.4897 172.962 23.1497 172.542 22.9297C172.122 22.6997 171.667 22.5847 171.177 22.5847C170.677 22.5847 170.217 22.6997 169.797 22.9297C169.387 23.1497 169.057 23.4897 168.807 23.9497C168.557 24.4097 168.432 24.9697 168.432 25.6297C168.432 26.2997 168.552 26.8647 168.792 27.3247C169.042 27.7847 169.372 28.1297 169.782 28.3597C170.192 28.5797 170.642 28.6897 171.132 28.6897ZM176.631 25.6147C176.631 24.7747 176.801 24.0397 177.141 23.4097C177.481 22.7697 177.946 22.2747 178.536 21.9247C179.136 21.5747 179.801 21.3997 180.531 21.3997C181.251 21.3997 181.876 21.5547 182.406 21.8647C182.936 22.1747 183.331 22.5647 183.591 23.0347V21.5347H184.971V29.7547H183.591V28.2247C183.321 28.7047 182.916 29.1047 182.376 29.4247C181.846 29.7347 181.226 29.8897 180.516 29.8897C179.786 29.8897 179.126 29.7097 178.536 29.3497C177.946 28.9897 177.481 28.4847 177.141 27.8347C176.801 27.1847 176.631 26.4447 176.631 25.6147ZM183.591 25.6297C183.591 25.0097 183.466 24.4697 183.216 24.0097C182.966 23.5497 182.626 23.1997 182.196 22.9597C181.776 22.7097 181.311 22.5847 180.801 22.5847C180.291 22.5847 179.826 22.7047 179.406 22.9447C178.986 23.1847 178.651 23.5347 178.401 23.9947C178.151 24.4547 178.026 24.9947 178.026 25.6147C178.026 26.2447 178.151 26.7947 178.401 27.2647C178.651 27.7247 178.986 28.0797 179.406 28.3297C179.826 28.5697 180.291 28.6897 180.801 28.6897C181.311 28.6897 181.776 28.5697 182.196 28.3297C182.626 28.0797 182.966 27.7247 183.216 27.2647C183.466 26.7947 183.591 26.2497 183.591 25.6297ZM186.768 25.6147C186.768 24.7747 186.938 24.0397 187.278 23.4097C187.618 22.7697 188.083 22.2747 188.673 21.9247C189.273 21.5747 189.943 21.3997 190.683 21.3997C191.323 21.3997 191.918 21.5497 192.468 21.8497C193.018 22.1397 193.438 22.5247 193.728 23.0047V18.6547H195.108V29.7547H193.728V28.2097C193.458 28.6997 193.058 29.1047 192.528 29.4247C191.998 29.7347 191.378 29.8897 190.668 29.8897C189.938 29.8897 189.273 29.7097 188.673 29.3497C188.083 28.9897 187.618 28.4847 187.278 27.8347C186.938 27.1847 186.768 26.4447 186.768 25.6147ZM193.728 25.6297C193.728 25.0097 193.603 24.4697 193.353 24.0097C193.103 23.5497 192.763 23.1997 192.333 22.9597C191.913 22.7097 191.448 22.5847 190.938 22.5847C190.428 22.5847 189.963 22.7047 189.543 22.9447C189.123 23.1847 188.788 23.5347 188.538 23.9947C188.288 24.4547 188.163 24.9947 188.163 25.6147C188.163 26.2447 188.288 26.7947 188.538 27.2647C188.788 27.7247 189.123 28.0797 189.543 28.3297C189.963 28.5697 190.428 28.6897 190.938 28.6897C191.448 28.6897 191.913 28.5697 192.333 28.3297C192.763 28.0797 193.103 27.7247 193.353 27.2647C193.603 26.7947 193.728 26.2497 193.728 25.6297ZM198.12 20.1997C197.86 20.1997 197.64 20.1097 197.46 19.9297C197.28 19.7497 197.19 19.5297 197.19 19.2697C197.19 19.0097 197.28 18.7897 197.46 18.6097C197.64 18.4297 197.86 18.3397 198.12 18.3397C198.37 18.3397 198.58 18.4297 198.75 18.6097C198.93 18.7897 199.02 19.0097 199.02 19.2697C199.02 19.5297 198.93 19.7497 198.75 19.9297C198.58 20.1097 198.37 20.1997 198.12 20.1997ZM198.78 21.5347V29.7547H197.415V21.5347H198.78ZM205.111 21.3847C206.111 21.3847 206.921 21.6897 207.541 22.2997C208.161 22.8997 208.471 23.7697 208.471 24.9097V29.7547H207.121V25.1047C207.121 24.2847 206.916 23.6597 206.506 23.2297C206.096 22.7897 205.536 22.5697 204.826 22.5697C204.106 22.5697 203.531 22.7947 203.101 23.2447C202.681 23.6947 202.471 24.3497 202.471 25.2097V29.7547H201.106V21.5347H202.471V22.7047C202.741 22.2847 203.106 21.9597 203.566 21.7297C204.036 21.4997 204.551 21.3847 205.111 21.3847ZM214.091 21.3997C214.801 21.3997 215.421 21.5547 215.951 21.8647C216.491 22.1747 216.891 22.5647 217.151 23.0347V21.5347H218.531V29.9347C218.531 30.6847 218.371 31.3497 218.051 31.9297C217.731 32.5197 217.271 32.9797 216.671 33.3097C216.081 33.6397 215.391 33.8047 214.601 33.8047C213.521 33.8047 212.621 33.5497 211.901 33.0397C211.181 32.5297 210.756 31.8347 210.626 30.9547H211.976C212.126 31.4547 212.436 31.8547 212.906 32.1547C213.376 32.4647 213.941 32.6197 214.601 32.6197C215.351 32.6197 215.961 32.3847 216.431 31.9147C216.911 31.4447 217.151 30.7847 217.151 29.9347V28.2097C216.881 28.6897 216.481 29.0897 215.951 29.4097C215.421 29.7297 214.801 29.8897 214.091 29.8897C213.361 29.8897 212.696 29.7097 212.096 29.3497C211.506 28.9897 211.041 28.4847 210.701 27.8347C210.361 27.1847 210.191 26.4447 210.191 25.6147C210.191 24.7747 210.361 24.0397 210.701 23.4097C211.041 22.7697 211.506 22.2747 212.096 21.9247C212.696 21.5747 213.361 21.3997 214.091 21.3997ZM217.151 25.6297C217.151 25.0097 217.026 24.4697 216.776 24.0097C216.526 23.5497 216.186 23.1997 215.756 22.9597C215.336 22.7097 214.871 22.5847 214.361 22.5847C213.851 22.5847 213.386 22.7047 212.966 22.9447C212.546 23.1847 212.211 23.5347 211.961 23.9947C211.711 24.4547 211.586 24.9947 211.586 25.6147C211.586 26.2447 211.711 26.7947 211.961 27.2647C212.211 27.7247 212.546 28.0797 212.966 28.3297C213.386 28.5697 213.851 28.6897 214.361 28.6897C214.871 28.6897 215.336 28.5697 215.756 28.3297C216.186 28.0797 216.526 27.7247 216.776 27.2647C217.026 26.7947 217.151 26.2497 217.151 25.6297Z" fill="#01042E"/>
<path d="M30 34.3396H12C11.7348 34.3396 11.4804 34.2363 11.2929 34.0523C11.1054 33.8683 11 33.6187 11 33.3585V11.7736C11 11.5134 11.1054 11.2638 11.2929 11.0798C11.4804 10.8958 11.7348 10.7924 12 10.7924H24L31 17.6604V33.3585C31 33.6187 30.8946 33.8683 30.7071 34.0523C30.5196 34.2363 30.2652 34.3396 30 34.3396Z" stroke="#01042E" stroke-width="2" stroke-linecap="round" stroke-linejoin="round"/>
<path d="M24 10.7924V17.6604H31" stroke="#01042E" stroke-width="2" stroke-linecap="round" stroke-linejoin="round"/>
<path d="M17 23.5472H25" stroke="#01042E" stroke-width="2" stroke-linecap="round" stroke-linejoin="round"/>
<path d="M17 27.4717H25" stroke="#01042E" stroke-width="2" stroke-linecap="round" stroke-linejoin="round"/>
<rect x="11" y="50" width="243" height="2" rx="1" fill="#C5D4DD"/>
<rect x="11" y="50.0377" width="67" height="1.96226" rx="0.981132" fill="#01042E"/>
<path fill-rule="evenodd" clip-rule="evenodd" d="M241.736 17.919C242.088 18.2638 242.088 18.8229 241.736 19.1678L231.536 29.1753C231.185 29.5202 230.615 29.5202 230.264 29.1753C229.912 28.8305 229.912 28.2714 230.264 27.9265L240.464 17.919C240.815 17.5742 241.385 17.5742 241.736 17.919Z" fill="#01042E"/>
<path fill-rule="evenodd" clip-rule="evenodd" d="M230.264 17.919C230.615 17.5742 231.185 17.5742 231.536 17.919L241.736 27.9265C242.088 28.2714 242.088 28.8305 241.736 29.1753C241.385 29.5202 240.815 29.5202 240.464 29.1753L230.264 19.1678C229.912 18.8229 229.912 18.2638 230.264 17.919Z" fill="#01042E"/>
<rect x="0.5" y="0.5" width="253" height="43.1509" rx="6.5" stroke="#43788B" stroke-dasharray="2 2"/>
</svg>
