<svg width="352" height="207" viewBox="0 0 352 207" fill="none" xmlns="http://www.w3.org/2000/svg">
<g filter="url(#filter0_d_90_627)">
<rect x="12" y="6" width="328" height="183" rx="9" fill="white" shape-rendering="crispEdges"/>
</g>
<path d="M106.832 120.676C108.016 120.676 109.051 120.905 109.936 121.364C110.832 121.812 111.52 122.463 112 123.316C112.491 124.159 112.736 125.145 112.736 126.276C112.736 127.407 112.491 128.388 112 129.22C111.52 130.052 110.832 130.692 109.936 131.14C109.051 131.577 108.016 131.796 106.832 131.796H103.2V120.676H106.832ZM106.832 130.308C108.133 130.308 109.131 129.956 109.824 129.252C110.517 128.548 110.864 127.556 110.864 126.276C110.864 124.985 110.517 123.977 109.824 123.252C109.131 122.527 108.133 122.164 106.832 122.164H105.024V130.308H106.832ZM118.368 131.94C117.536 131.94 116.784 131.753 116.112 131.38C115.44 130.996 114.912 130.463 114.528 129.78C114.144 129.087 113.952 128.287 113.952 127.38C113.952 126.484 114.149 125.689 114.544 124.996C114.938 124.303 115.477 123.769 116.16 123.396C116.842 123.023 117.605 122.836 118.448 122.836C119.29 122.836 120.053 123.023 120.736 123.396C121.418 123.769 121.957 124.303 122.352 124.996C122.746 125.689 122.944 126.484 122.944 127.38C122.944 128.276 122.741 129.071 122.336 129.764C121.93 130.457 121.376 130.996 120.672 131.38C119.978 131.753 119.21 131.94 118.368 131.94ZM118.368 130.356C118.837 130.356 119.274 130.244 119.68 130.02C120.096 129.796 120.432 129.46 120.688 129.012C120.944 128.564 121.072 128.02 121.072 127.38C121.072 126.74 120.949 126.201 120.704 125.764C120.458 125.316 120.133 124.98 119.728 124.756C119.322 124.532 118.885 124.42 118.416 124.42C117.946 124.42 117.509 124.532 117.104 124.756C116.709 124.98 116.394 125.316 116.16 125.764C115.925 126.201 115.808 126.74 115.808 127.38C115.808 128.329 116.048 129.065 116.528 129.588C117.018 130.1 117.632 130.356 118.368 130.356ZM136.587 122.98L133.851 131.796H131.931L130.155 125.284L128.379 131.796H126.459L123.707 122.98H125.563L127.403 130.068L129.275 122.98H131.179L132.971 130.036L134.795 122.98H136.587ZM142.398 122.836C143.091 122.836 143.71 122.98 144.254 123.268C144.809 123.556 145.241 123.983 145.55 124.548C145.859 125.113 146.014 125.796 146.014 126.596V131.796H144.206V126.868C144.206 126.079 144.009 125.476 143.614 125.06C143.219 124.633 142.681 124.42 141.998 124.42C141.315 124.42 140.771 124.633 140.366 125.06C139.971 125.476 139.774 126.079 139.774 126.868V131.796H137.95V122.98H139.774V123.988C140.073 123.625 140.451 123.343 140.91 123.14C141.379 122.937 141.875 122.836 142.398 122.836ZM150.165 119.956V131.796H148.341V119.956H150.165ZM156.383 131.94C155.551 131.94 154.799 131.753 154.127 131.38C153.455 130.996 152.927 130.463 152.543 129.78C152.159 129.087 151.967 128.287 151.967 127.38C151.967 126.484 152.165 125.689 152.559 124.996C152.954 124.303 153.493 123.769 154.175 123.396C154.858 123.023 155.621 122.836 156.463 122.836C157.306 122.836 158.069 123.023 158.751 123.396C159.434 123.769 159.973 124.303 160.367 124.996C160.762 125.689 160.959 126.484 160.959 127.38C160.959 128.276 160.757 129.071 160.351 129.764C159.946 130.457 159.391 130.996 158.687 131.38C157.994 131.753 157.226 131.94 156.383 131.94ZM156.383 130.356C156.853 130.356 157.29 130.244 157.695 130.02C158.111 129.796 158.447 129.46 158.703 129.012C158.959 128.564 159.087 128.02 159.087 127.38C159.087 126.74 158.965 126.201 158.719 125.764C158.474 125.316 158.149 124.98 157.743 124.756C157.338 124.532 156.901 124.42 156.431 124.42C155.962 124.42 155.525 124.532 155.119 124.756C154.725 124.98 154.41 125.316 154.175 125.764C153.941 126.201 153.823 126.74 153.823 127.38C153.823 128.329 154.063 129.065 154.543 129.588C155.034 130.1 155.647 130.356 156.383 130.356ZM162.155 127.348C162.155 126.463 162.336 125.679 162.699 124.996C163.072 124.313 163.573 123.785 164.203 123.412C164.843 123.028 165.547 122.836 166.315 122.836C167.008 122.836 167.611 122.975 168.123 123.252C168.645 123.519 169.061 123.855 169.371 124.26V122.98H171.211V131.796H169.371V130.484C169.061 130.9 168.64 131.247 168.107 131.524C167.573 131.801 166.965 131.94 166.283 131.94C165.525 131.94 164.832 131.748 164.203 131.364C163.573 130.969 163.072 130.425 162.699 129.732C162.336 129.028 162.155 128.233 162.155 127.348ZM169.371 127.38C169.371 126.772 169.243 126.244 168.987 125.796C168.741 125.348 168.416 125.007 168.011 124.772C167.605 124.537 167.168 124.42 166.699 124.42C166.229 124.42 165.792 124.537 165.387 124.772C164.981 124.996 164.651 125.332 164.395 125.78C164.149 126.217 164.027 126.74 164.027 127.348C164.027 127.956 164.149 128.489 164.395 128.948C164.651 129.407 164.981 129.759 165.387 130.004C165.803 130.239 166.24 130.356 166.699 130.356C167.168 130.356 167.605 130.239 168.011 130.004C168.416 129.769 168.741 129.428 168.987 128.98C169.243 128.521 169.371 127.988 169.371 127.38ZM172.998 127.348C172.998 126.463 173.18 125.679 173.542 124.996C173.916 124.313 174.417 123.785 175.046 123.412C175.686 123.028 176.396 122.836 177.174 122.836C177.75 122.836 178.316 122.964 178.87 123.22C179.436 123.465 179.884 123.796 180.214 124.212V119.956H182.054V131.796H180.214V130.468C179.916 130.895 179.5 131.247 178.966 131.524C178.444 131.801 177.841 131.94 177.158 131.94C176.39 131.94 175.686 131.748 175.046 131.364C174.417 130.969 173.916 130.425 173.542 129.732C173.18 129.028 172.998 128.233 172.998 127.348ZM180.214 127.38C180.214 126.772 180.086 126.244 179.83 125.796C179.585 125.348 179.26 125.007 178.854 124.772C178.449 124.537 178.012 124.42 177.542 124.42C177.073 124.42 176.636 124.537 176.23 124.772C175.825 124.996 175.494 125.332 175.238 125.78C174.993 126.217 174.87 126.74 174.87 127.348C174.87 127.956 174.993 128.489 175.238 128.948C175.494 129.407 175.825 129.759 176.23 130.004C176.646 130.239 177.084 130.356 177.542 130.356C178.012 130.356 178.449 130.239 178.854 130.004C179.26 129.769 179.585 129.428 179.83 128.98C180.086 128.521 180.214 127.988 180.214 127.38ZM185.378 121.812C185.047 121.812 184.77 121.7 184.546 121.476C184.322 121.252 184.21 120.975 184.21 120.644C184.21 120.313 184.322 120.036 184.546 119.812C184.77 119.588 185.047 119.476 185.378 119.476C185.698 119.476 185.97 119.588 186.194 119.812C186.418 120.036 186.53 120.313 186.53 120.644C186.53 120.975 186.418 121.252 186.194 121.476C185.97 121.7 185.698 121.812 185.378 121.812ZM186.274 122.98V131.796H184.45V122.98H186.274ZM193.117 122.836C193.81 122.836 194.429 122.98 194.973 123.268C195.527 123.556 195.959 123.983 196.269 124.548C196.578 125.113 196.733 125.796 196.733 126.596V131.796H194.925V126.868C194.925 126.079 194.727 125.476 194.333 125.06C193.938 124.633 193.399 124.42 192.717 124.42C192.034 124.42 191.49 124.633 191.085 125.06C190.69 125.476 190.493 126.079 190.493 126.868V131.796H188.669V122.98H190.493V123.988C190.791 123.625 191.17 123.343 191.629 123.14C192.098 122.937 192.594 122.836 193.117 122.836ZM202.611 122.836C203.294 122.836 203.897 122.975 204.419 123.252C204.953 123.519 205.369 123.855 205.667 124.26V122.98H207.507V131.94C207.507 132.751 207.337 133.471 206.995 134.1C206.654 134.74 206.158 135.241 205.507 135.604C204.867 135.967 204.099 136.148 203.203 136.148C202.009 136.148 201.017 135.865 200.227 135.3C199.438 134.745 198.99 133.988 198.883 133.028H200.691C200.83 133.487 201.123 133.855 201.571 134.132C202.03 134.42 202.574 134.564 203.203 134.564C203.939 134.564 204.531 134.34 204.979 133.892C205.438 133.444 205.667 132.793 205.667 131.94V130.468C205.358 130.884 204.937 131.236 204.403 131.524C203.881 131.801 203.283 131.94 202.611 131.94C201.843 131.94 201.139 131.748 200.499 131.364C199.87 130.969 199.369 130.425 198.995 129.732C198.633 129.028 198.451 128.233 198.451 127.348C198.451 126.463 198.633 125.679 198.995 124.996C199.369 124.313 199.87 123.785 200.499 123.412C201.139 123.028 201.843 122.836 202.611 122.836ZM205.667 127.38C205.667 126.772 205.539 126.244 205.283 125.796C205.038 125.348 204.713 125.007 204.307 124.772C203.902 124.537 203.465 124.42 202.995 124.42C202.526 124.42 202.089 124.537 201.683 124.772C201.278 124.996 200.947 125.332 200.691 125.78C200.446 126.217 200.323 126.74 200.323 127.348C200.323 127.956 200.446 128.489 200.691 128.948C200.947 129.407 201.278 129.759 201.683 130.004C202.099 130.239 202.537 130.356 202.995 130.356C203.465 130.356 203.902 130.239 204.307 130.004C204.713 129.769 205.038 129.428 205.283 128.98C205.539 128.521 205.667 127.988 205.667 127.38ZM213.451 126.212C213.451 125.124 213.702 124.148 214.203 123.284C214.715 122.42 215.403 121.748 216.267 121.268C217.142 120.777 218.097 120.532 219.131 120.532C220.315 120.532 221.366 120.825 222.283 121.412C223.211 121.988 223.883 122.809 224.299 123.876H222.107C221.819 123.289 221.419 122.852 220.907 122.564C220.395 122.276 219.803 122.132 219.131 122.132C218.395 122.132 217.739 122.297 217.163 122.628C216.587 122.959 216.134 123.433 215.803 124.052C215.483 124.671 215.323 125.391 215.323 126.212C215.323 127.033 215.483 127.753 215.803 128.372C216.134 128.991 216.587 129.471 217.163 129.812C217.739 130.143 218.395 130.308 219.131 130.308C219.803 130.308 220.395 130.164 220.907 129.876C221.419 129.588 221.819 129.151 222.107 128.564H224.299C223.883 129.631 223.211 130.452 222.283 131.028C221.366 131.604 220.315 131.892 219.131 131.892C218.086 131.892 217.131 131.652 216.267 131.172C215.403 130.681 214.715 130.004 214.203 129.14C213.702 128.276 213.451 127.3 213.451 126.212ZM230.098 131.908C229.352 131.908 228.68 131.78 228.082 131.524C227.485 131.257 227.016 130.884 226.674 130.404C226.333 129.924 226.162 129.364 226.162 128.724H228.114C228.157 129.204 228.344 129.599 228.674 129.908C229.016 130.217 229.49 130.372 230.098 130.372C230.728 130.372 231.218 130.223 231.57 129.924C231.922 129.615 232.098 129.22 232.098 128.74C232.098 128.367 231.986 128.063 231.762 127.828C231.549 127.593 231.277 127.412 230.946 127.284C230.626 127.156 230.178 127.017 229.602 126.868C228.877 126.676 228.285 126.484 227.826 126.292C227.378 126.089 226.994 125.78 226.674 125.364C226.354 124.948 226.194 124.393 226.194 123.7C226.194 123.06 226.354 122.5 226.674 122.02C226.994 121.54 227.442 121.172 228.018 120.916C228.594 120.66 229.261 120.532 230.018 120.532C231.096 120.532 231.976 120.804 232.658 121.348C233.352 121.881 233.736 122.617 233.81 123.556H231.794C231.762 123.151 231.57 122.804 231.218 122.516C230.866 122.228 230.402 122.084 229.826 122.084C229.304 122.084 228.877 122.217 228.546 122.484C228.216 122.751 228.05 123.135 228.05 123.636C228.05 123.977 228.152 124.26 228.354 124.484C228.568 124.697 228.834 124.868 229.154 124.996C229.474 125.124 229.912 125.263 230.466 125.412C231.202 125.615 231.8 125.817 232.258 126.02C232.728 126.223 233.122 126.537 233.442 126.964C233.773 127.38 233.938 127.94 233.938 128.644C233.938 129.209 233.784 129.743 233.474 130.244C233.176 130.745 232.733 131.151 232.146 131.46C231.57 131.759 230.888 131.908 230.098 131.908ZM245.675 120.676L241.499 131.796H239.387L235.195 120.676H237.147L240.443 129.924L243.755 120.676H245.675Z" fill="#01042E"/>
<path d="M314.36 32.4405L320.2 26.5015C320.3 26.3998 320.3 26.237 320.2 26.1354C320.1 26.0337 319.94 26.0337 319.84 26.1354L314 32.0743L308.16 26.1354C308.06 26.0337 307.9 26.0337 307.8 26.1354C307.7 26.237 307.7 26.3998 307.8 26.5015L313.64 32.4405L307.8 38.3795C307.7 38.4812 307.7 38.6439 307.8 38.7456C307.9 38.8473 308.06 38.8473 308.16 38.7456L314 32.8066L319.84 38.7456C319.94 38.8473 320.1 38.8473 320.2 38.7456C320.3 38.6439 320.3 38.4812 320.2 38.3795L314.36 32.4405Z" fill="black"/>
<defs>
<filter id="filter0_d_90_627" x="0" y="0" width="352" height="207" filterUnits="userSpaceOnUse" color-interpolation-filters="sRGB">
<feFlood flood-opacity="0" result="BackgroundImageFix"/>
<feColorMatrix in="SourceAlpha" type="matrix" values="0 0 0 0 0 0 0 0 0 0 0 0 0 0 0 0 0 0 127 0" result="hardAlpha"/>
<feOffset dy="6"/>
<feGaussianBlur stdDeviation="6"/>
<feComposite in2="hardAlpha" operator="out"/>
<feColorMatrix type="matrix" values="0 0 0 0 0 0 0 0 0 0 0 0 0 0 0 0 0 0 0.1 0"/>
<feBlend mode="normal" in2="BackgroundImageFix" result="effect1_dropShadow_90_627"/>
<feBlend mode="normal" in="SourceGraphic" in2="effect1_dropShadow_90_627" result="shape"/>
</filter>
</defs>
</svg>
