<svg width="371" height="277" viewBox="0 0 371 277" fill="none" xmlns="http://www.w3.org/2000/svg">
<path d="M40 42C40 40.8954 40.8954 40 42 40H329C330.105 40 331 40.8954 331 42V235C331 236.105 330.105 237 329 237H42C40.8954 237 40 236.105 40 235V42Z" fill="#F7F8FF"/>
<path d="M42 41H329V39H42V41ZM330 42V235H332V42H330ZM329 236H42V238H329V236ZM41 235V42H39V235H41ZM42 236C41.4477 236 41 235.552 41 235H39C39 236.657 40.3431 238 42 238V236ZM330 235C330 235.552 329.552 236 329 236V238C330.657 238 332 236.657 332 235H330ZM329 41C329.552 41 330 41.4477 330 42H332C332 40.3431 330.657 39 329 39V41ZM42 39C40.3431 39 39 40.3431 39 42H41C41 41.4477 41.4477 41 42 41V39Z" fill="black" fill-opacity="0.1"/>
<rect x="40" y="4" width="102.828" height="30" rx="3" fill="#F7F8FF"/>
<rect x="40.5" y="4.5" width="101.828" height="29" rx="2.5" stroke="black" stroke-opacity="0.2"/>
<path d="M46.9688 22V14H47.9375V21.1406H51.6563V22H46.9688ZM53.0313 22V16H53.9531V22H53.0313ZM53.5 15C53.3203 15 53.1654 14.9388 53.0352 14.8164C52.9076 14.694 52.8438 14.5469 52.8438 14.375C52.8438 14.2031 52.9076 14.056 53.0352 13.9336C53.1654 13.8112 53.3203 13.75 53.5 13.75C53.6797 13.75 53.8333 13.8112 53.9609 13.9336C54.0911 14.056 54.1563 14.2031 54.1563 14.375C54.1563 14.5469 54.0911 14.694 53.9609 14.8164C53.8333 14.9388 53.6797 15 53.5 15ZM58.0635 24.375C57.6182 24.375 57.2354 24.3177 56.915 24.2031C56.5947 24.0911 56.3278 23.9427 56.1143 23.7578C55.9033 23.5755 55.7354 23.3802 55.6104 23.1719L56.3447 22.6563C56.4281 22.7656 56.5335 22.8906 56.6611 23.0312C56.7887 23.1745 56.9632 23.2982 57.1846 23.4023C57.4085 23.5091 57.7015 23.5625 58.0635 23.5625C58.5479 23.5625 58.9476 23.4453 59.2627 23.2109C59.5778 22.9766 59.7354 22.6094 59.7354 22.1094V20.8906H59.6572C59.5895 21 59.4932 21.1354 59.3682 21.2969C59.2458 21.4557 59.0687 21.5977 58.8369 21.7227C58.6077 21.8451 58.2979 21.9062 57.9072 21.9062C57.4229 21.9062 56.988 21.7917 56.6025 21.5625C56.2197 21.3333 55.9163 21 55.6924 20.5625C55.471 20.125 55.3604 19.5937 55.3604 18.9687C55.3604 18.3542 55.4684 17.819 55.6846 17.3633C55.9007 16.9049 56.2015 16.5508 56.5869 16.3008C56.9723 16.0482 57.4176 15.9219 57.9229 15.9219C58.3135 15.9219 58.6234 15.987 58.8525 16.1172C59.0843 16.2448 59.2614 16.3906 59.3838 16.5547C59.5088 16.7161 59.6051 16.849 59.6729 16.9531H59.7666V16H60.6572V22.1719C60.6572 22.6875 60.54 23.1068 60.3057 23.4297C60.0739 23.7552 59.7614 23.9935 59.3682 24.1445C58.9775 24.2982 58.5426 24.375 58.0635 24.375ZM58.0322 21.0781C58.402 21.0781 58.7145 20.9935 58.9697 20.8242C59.2249 20.6549 59.4189 20.4115 59.5518 20.0938C59.6846 19.776 59.751 19.3958 59.751 18.9531C59.751 18.5208 59.6859 18.1393 59.5557 17.8086C59.4255 17.4779 59.2327 17.2187 58.9775 17.0312C58.7223 16.8437 58.4072 16.75 58.0322 16.75C57.6416 16.75 57.3161 16.849 57.0557 17.0469C56.7979 17.2448 56.6038 17.5104 56.4736 17.8438C56.346 18.1771 56.2822 18.5469 56.2822 18.9531C56.2822 19.3698 56.3473 19.7383 56.4775 20.0586C56.6104 20.3763 56.8057 20.6263 57.0635 20.8086C57.3239 20.9883 57.6468 21.0781 58.0322 21.0781ZM63.2666 18.3906V22H62.3447V14H63.2666V16.9375H63.3447C63.4854 16.6276 63.6963 16.3815 63.9775 16.1992C64.2614 16.0143 64.639 15.9219 65.1104 15.9219C65.5192 15.9219 65.8773 16.0039 66.1846 16.168C66.4919 16.3294 66.7301 16.5781 66.8994 16.9141C67.0713 17.2474 67.1572 17.6719 67.1572 18.1875V22H66.2354V18.25C66.2354 17.7734 66.1117 17.4049 65.8643 17.1445C65.6195 16.8815 65.2796 16.75 64.8447 16.75C64.5426 16.75 64.2718 16.8138 64.0322 16.9414C63.7952 17.069 63.6077 17.2552 63.4697 17.5C63.3343 17.7448 63.2666 18.0417 63.2666 18.3906ZM71.4531 16V16.7812H68.3438V16H71.4531ZM69.25 14.5625H70.1719V20.2812C70.1719 20.5417 70.2096 20.737 70.2852 20.8672C70.3633 20.9948 70.4622 21.0807 70.582 21.125C70.7044 21.1667 70.8333 21.1875 70.9688 21.1875C71.0703 21.1875 71.1536 21.1823 71.2188 21.1719C71.2839 21.1589 71.3359 21.1484 71.375 21.1406L71.5625 21.9687C71.5 21.9922 71.4128 22.0156 71.3008 22.0391C71.1888 22.0651 71.0469 22.0781 70.875 22.0781C70.6146 22.0781 70.3594 22.0221 70.1094 21.9102C69.862 21.7982 69.6563 21.6276 69.4922 21.3984C69.3307 21.1693 69.25 20.8802 69.25 20.5312V14.5625ZM76.0586 22V14H76.9805V16.9531H77.0586C77.1263 16.849 77.2201 16.7161 77.3398 16.5547C77.4622 16.3906 77.6367 16.2448 77.8633 16.1172C78.0924 15.987 78.4023 15.9219 78.793 15.9219C79.2982 15.9219 79.7435 16.0482 80.1289 16.3008C80.5143 16.5534 80.8151 16.9115 81.0313 17.375C81.2474 17.8385 81.3555 18.3854 81.3555 19.0156C81.3555 19.651 81.2474 20.2018 81.0313 20.668C80.8151 21.1315 80.5156 21.4909 80.1328 21.7461C79.75 21.9987 79.3086 22.125 78.8086 22.125C78.4232 22.125 78.1146 22.0612 77.8828 21.9336C77.651 21.8034 77.4727 21.6562 77.3477 21.4922C77.2227 21.3255 77.1263 21.1875 77.0586 21.0781H76.9492V22H76.0586ZM76.9648 19C76.9648 19.4531 77.0313 19.8529 77.1641 20.1992C77.2969 20.543 77.4909 20.8125 77.7461 21.0078C78.0013 21.2005 78.3138 21.2969 78.6836 21.2969C79.069 21.2969 79.3906 21.1953 79.6484 20.9922C79.9089 20.7865 80.1042 20.5104 80.2344 20.1641C80.3672 19.8151 80.4336 19.4271 80.4336 19C80.4336 18.5781 80.3685 18.1979 80.2383 17.8594C80.1107 17.5182 79.9167 17.2487 79.6563 17.0508C79.3984 16.8503 79.0742 16.75 78.6836 16.75C78.3086 16.75 77.9935 16.8451 77.7383 17.0352C77.4831 17.2227 77.2904 17.4857 77.1602 17.8242C77.0299 18.1602 76.9648 18.5521 76.9648 19ZM84.5313 22.1406C84.151 22.1406 83.806 22.069 83.4961 21.9258C83.1862 21.7799 82.9401 21.5703 82.7578 21.2969C82.5755 21.0208 82.4844 20.6875 82.4844 20.2969C82.4844 19.9531 82.5521 19.6745 82.6875 19.4609C82.8229 19.2448 83.0039 19.0755 83.2305 18.9531C83.457 18.8307 83.707 18.7396 83.9805 18.6797C84.2565 18.6172 84.5339 18.5677 84.8125 18.5313C85.1771 18.4844 85.4727 18.4492 85.6992 18.4258C85.9284 18.3997 86.0951 18.3568 86.1992 18.2969C86.306 18.237 86.3594 18.1328 86.3594 17.9844V17.9531C86.3594 17.5677 86.2539 17.2682 86.043 17.0547C85.8346 16.8411 85.5182 16.7344 85.0938 16.7344C84.6536 16.7344 84.3086 16.8307 84.0586 17.0234C83.8086 17.2161 83.6328 17.4219 83.5313 17.6406L82.6563 17.3281C82.8125 16.9635 83.0208 16.6797 83.2813 16.4766C83.5443 16.2708 83.8307 16.1276 84.1406 16.0469C84.4531 15.9635 84.7604 15.9219 85.0625 15.9219C85.2552 15.9219 85.4766 15.9453 85.7266 15.9922C85.9792 16.0365 86.2227 16.1289 86.457 16.2695C86.694 16.4102 86.8906 16.6224 87.0469 16.9062C87.2031 17.1901 87.2813 17.5703 87.2813 18.0469V22H86.3594V21.1875H86.3125C86.25 21.3177 86.1458 21.457 86 21.6055C85.8542 21.7539 85.6602 21.8802 85.418 21.9844C85.1758 22.0885 84.8802 22.1406 84.5313 22.1406ZM84.6719 21.3125C85.0365 21.3125 85.3438 21.2409 85.5938 21.0977C85.8464 20.9544 86.0365 20.7695 86.1641 20.543C86.2943 20.3164 86.3594 20.0781 86.3594 19.8281V18.9844C86.3203 19.0312 86.2344 19.0742 86.1016 19.1133C85.9714 19.1497 85.8203 19.1823 85.6484 19.2109C85.4792 19.237 85.3138 19.2604 85.1523 19.2812C84.9935 19.2995 84.8646 19.3151 84.7656 19.3281C84.526 19.3594 84.3021 19.4102 84.0938 19.4805C83.888 19.5482 83.7214 19.651 83.5938 19.7891C83.4688 19.9245 83.4063 20.1094 83.4063 20.3437C83.4063 20.6641 83.5247 20.9062 83.7617 21.0703C84.0013 21.2318 84.3047 21.3125 84.6719 21.3125ZM91.4014 22.125C90.8389 22.125 90.3545 21.9922 89.9482 21.7266C89.542 21.4609 89.2295 21.0951 89.0107 20.6289C88.792 20.1628 88.6826 19.6302 88.6826 19.0312C88.6826 18.4219 88.7946 17.8841 89.0186 17.418C89.2451 16.9492 89.5602 16.5833 89.9639 16.3203C90.3701 16.0547 90.8441 15.9219 91.3857 15.9219C91.8076 15.9219 92.1878 16 92.5264 16.1562C92.8649 16.3125 93.1423 16.5312 93.3584 16.8125C93.5745 17.0937 93.7087 17.4219 93.7607 17.7969H92.8389C92.7686 17.5234 92.6123 17.2812 92.3701 17.0703C92.1305 16.8568 91.8076 16.75 91.4014 16.75C91.042 16.75 90.7269 16.8437 90.4561 17.0312C90.1878 17.2161 89.9782 17.4779 89.8271 17.8164C89.6787 18.1523 89.6045 18.5469 89.6045 19C89.6045 19.4635 89.6774 19.8672 89.8232 20.2109C89.9717 20.5547 90.18 20.8216 90.4482 21.0117C90.7191 21.2018 91.0368 21.2969 91.4014 21.2969C91.641 21.2969 91.8584 21.2552 92.0537 21.1719C92.249 21.0885 92.4144 20.9688 92.5498 20.8125C92.6852 20.6562 92.7816 20.4687 92.8389 20.25H93.7607C93.7087 20.6042 93.5798 20.9232 93.374 21.207C93.1709 21.4883 92.9014 21.7122 92.5654 21.8789C92.2321 22.043 91.8441 22.125 91.4014 22.125ZM95.9678 19.8125L95.9521 18.6719H96.1396L98.7646 16H99.9053L97.1084 18.8281H97.0303L95.9678 19.8125ZM95.1084 22V14H96.0303V22H95.1084ZM98.9209 22L96.5771 19.0312L97.2334 18.3906L100.093 22H98.9209ZM103.267 24.375C102.821 24.375 102.438 24.3177 102.118 24.2031C101.798 24.0911 101.531 23.9427 101.317 23.7578C101.106 23.5755 100.938 23.3802 100.813 23.1719L101.548 22.6563C101.631 22.7656 101.737 22.8906 101.864 23.0312C101.992 23.1745 102.166 23.2982 102.388 23.4023C102.612 23.5091 102.905 23.5625 103.267 23.5625C103.751 23.5625 104.151 23.4453 104.466 23.2109C104.781 22.9766 104.938 22.6094 104.938 22.1094V20.8906H104.86C104.793 21 104.696 21.1354 104.571 21.2969C104.449 21.4557 104.272 21.5977 104.04 21.7227C103.811 21.8451 103.501 21.9062 103.11 21.9062C102.626 21.9062 102.191 21.7917 101.806 21.5625C101.423 21.3333 101.119 21 100.896 20.5625C100.674 20.125 100.563 19.5937 100.563 18.9687C100.563 18.3542 100.672 17.819 100.888 17.3633C101.104 16.9049 101.405 16.5508 101.79 16.3008C102.175 16.0482 102.621 15.9219 103.126 15.9219C103.517 15.9219 103.826 15.987 104.056 16.1172C104.287 16.2448 104.465 16.3906 104.587 16.5547C104.712 16.7161 104.808 16.849 104.876 16.9531H104.97V16H105.86V22.1719C105.86 22.6875 105.743 23.1068 105.509 23.4297C105.277 23.7552 104.965 23.9935 104.571 24.1445C104.181 24.2982 103.746 24.375 103.267 24.375ZM103.235 21.0781C103.605 21.0781 103.918 20.9935 104.173 20.8242C104.428 20.6549 104.622 20.4115 104.755 20.0938C104.888 19.776 104.954 19.3958 104.954 18.9531C104.954 18.5208 104.889 18.1393 104.759 17.8086C104.629 17.4779 104.436 17.2187 104.181 17.0312C103.925 16.8437 103.61 16.75 103.235 16.75C102.845 16.75 102.519 16.849 102.259 17.0469C102.001 17.2448 101.807 17.5104 101.677 17.8438C101.549 18.1771 101.485 18.5469 101.485 18.9531C101.485 19.3698 101.55 19.7383 101.681 20.0586C101.813 20.3763 102.009 20.6263 102.267 20.8086C102.527 20.9883 102.85 21.0781 103.235 21.0781ZM107.548 22V16H108.438V16.9062H108.501C108.61 16.6094 108.808 16.3685 109.095 16.1836C109.381 15.9987 109.704 15.9062 110.063 15.9062C110.131 15.9062 110.216 15.9076 110.317 15.9102C110.419 15.9128 110.496 15.9167 110.548 15.9219V16.8594C110.517 16.8516 110.445 16.8398 110.333 16.8242C110.224 16.806 110.108 16.7969 109.985 16.7969C109.694 16.7969 109.433 16.8581 109.204 16.9805C108.978 17.1003 108.798 17.2669 108.665 17.4805C108.535 17.6914 108.47 17.9323 108.47 18.2031V22H107.548ZM113.896 22.125C113.354 22.125 112.879 21.9961 112.47 21.7383C112.063 21.4805 111.746 21.1198 111.517 20.6562C111.29 20.1927 111.177 19.651 111.177 19.0312C111.177 18.4062 111.29 17.8607 111.517 17.3945C111.746 16.9284 112.063 16.5664 112.47 16.3086C112.879 16.0508 113.354 15.9219 113.896 15.9219C114.437 15.9219 114.911 16.0508 115.317 16.3086C115.726 16.5664 116.044 16.9284 116.271 17.3945C116.5 17.8607 116.614 18.4062 116.614 19.0312C116.614 19.651 116.5 20.1927 116.271 20.6562C116.044 21.1198 115.726 21.4805 115.317 21.7383C114.911 21.9961 114.437 22.125 113.896 22.125ZM113.896 21.2969C114.307 21.2969 114.646 21.1914 114.911 20.9805C115.177 20.7695 115.373 20.4922 115.501 20.1484C115.629 19.8047 115.692 19.4323 115.692 19.0312C115.692 18.6302 115.629 18.2565 115.501 17.9102C115.373 17.5638 115.177 17.2839 114.911 17.0703C114.646 16.8568 114.307 16.75 113.896 16.75C113.484 16.75 113.146 16.8568 112.88 17.0703C112.614 17.2839 112.418 17.5638 112.29 17.9102C112.162 18.2565 112.099 18.6302 112.099 19.0312C112.099 19.4323 112.162 19.8047 112.29 20.1484C112.418 20.4922 112.614 20.7695 112.88 20.9805C113.146 21.1914 113.484 21.2969 113.896 21.2969ZM121.803 19.5469V16H122.725V22H121.803V20.9844H121.74C121.6 21.2891 121.381 21.5482 121.084 21.7617C120.787 21.9727 120.412 22.0781 119.959 22.0781C119.584 22.0781 119.251 21.9961 118.959 21.832C118.667 21.6654 118.438 21.4154 118.271 21.082C118.105 20.7461 118.021 20.3229 118.021 19.8125V16H118.943V19.75C118.943 20.1875 119.066 20.5365 119.311 20.7969C119.558 21.0573 119.873 21.1875 120.256 21.1875C120.485 21.1875 120.718 21.1289 120.955 21.0117C121.195 20.8945 121.395 20.7148 121.557 20.4727C121.721 20.2305 121.803 19.9219 121.803 19.5469ZM125.335 18.3906V22H124.413V16H125.304V16.9375H125.382C125.522 16.6328 125.736 16.388 126.022 16.2031C126.309 16.0156 126.679 15.9219 127.132 15.9219C127.538 15.9219 127.894 16.0052 128.198 16.1719C128.503 16.3359 128.74 16.5859 128.909 16.9219C129.078 17.2552 129.163 17.6771 129.163 18.1875V22H128.241V18.25C128.241 17.7786 128.119 17.4115 127.874 17.1484C127.629 16.8828 127.293 16.75 126.866 16.75C126.572 16.75 126.309 16.8138 126.077 16.9414C125.848 17.069 125.667 17.2552 125.534 17.5C125.401 17.7448 125.335 18.0417 125.335 18.3906ZM133.113 22.125C132.613 22.125 132.172 21.9987 131.789 21.7461C131.406 21.4909 131.107 21.1315 130.891 20.668C130.674 20.2018 130.566 19.651 130.566 19.0156C130.566 18.3854 130.674 17.8385 130.891 17.375C131.107 16.9115 131.408 16.5534 131.793 16.3008C132.178 16.0482 132.624 15.9219 133.129 15.9219C133.52 15.9219 133.828 15.987 134.055 16.1172C134.284 16.2448 134.458 16.3906 134.578 16.5547C134.701 16.7161 134.796 16.849 134.863 16.9531H134.941V14H135.863V22H134.973V21.0781H134.863C134.796 21.1875 134.699 21.3255 134.574 21.4922C134.449 21.6562 134.271 21.8034 134.039 21.9336C133.807 22.0612 133.499 22.125 133.113 22.125ZM133.238 21.2969C133.608 21.2969 133.921 21.2005 134.176 21.0078C134.431 20.8125 134.625 20.543 134.758 20.1992C134.891 19.8529 134.957 19.4531 134.957 19C134.957 18.5521 134.892 18.1602 134.762 17.8242C134.632 17.4857 134.439 17.2227 134.184 17.0352C133.928 16.8451 133.613 16.75 133.238 16.75C132.848 16.75 132.522 16.8503 132.262 17.0508C132.004 17.2487 131.81 17.5182 131.68 17.8594C131.552 18.1979 131.488 18.5781 131.488 19C131.488 19.4271 131.553 19.8151 131.684 20.1641C131.816 20.5104 132.012 20.7865 132.27 20.9922C132.53 21.1953 132.853 21.2969 133.238 21.2969Z" fill="black"/>
</svg>
