<svg width="352" height="614" viewBox="0 0 352 614" fill="none" xmlns="http://www.w3.org/2000/svg">
<rect width="352" height="614" rx="12" fill="white"/>
<path fill-rule="evenodd" clip-rule="evenodd" d="M319.649 28.3515C320.117 28.8201 320.117 29.5799 319.649 30.0485L306.049 43.6485C305.58 44.1172 304.82 44.1172 304.351 43.6485C303.883 43.1799 303.883 42.4201 304.351 41.9515L317.951 28.3515C318.42 27.8828 319.18 27.8828 319.649 28.3515Z" fill="#7B7B7B"/>
<path fill-rule="evenodd" clip-rule="evenodd" d="M304.351 28.3515C304.82 27.8828 305.58 27.8828 306.049 28.3515L319.649 41.9515C320.117 42.4201 320.117 43.1799 319.649 43.6485C319.18 44.1172 318.42 44.1172 317.951 43.6485L304.351 30.0485C303.883 29.5799 303.883 28.8201 304.351 28.3515Z" fill="#7B7B7B"/>
<path d="M36.892 64.444H31.654L30.754 67H28.612L33.094 54.472H35.47L39.952 67H37.792L36.892 64.444ZM36.316 62.77L34.282 56.956L32.23 62.77H36.316ZM41.2168 61.996C41.2168 61 41.4208 60.118 41.8288 59.35C42.2488 58.582 42.8128 57.988 43.5208 57.568C44.2408 57.136 45.0388 56.92 45.9148 56.92C46.5628 56.92 47.1988 57.064 47.8228 57.352C48.4588 57.628 48.9628 58 49.3348 58.468V53.68H51.4048V67H49.3348V65.506C48.9988 65.986 48.5308 66.382 47.9308 66.694C47.3428 67.006 46.6648 67.162 45.8968 67.162C45.0328 67.162 44.2408 66.946 43.5208 66.514C42.8128 66.07 42.2488 65.458 41.8288 64.678C41.4208 63.886 41.2168 62.992 41.2168 61.996ZM49.3348 62.032C49.3348 61.348 49.1908 60.754 48.9028 60.25C48.6268 59.746 48.2608 59.362 47.8048 59.098C47.3488 58.834 46.8568 58.702 46.3288 58.702C45.8008 58.702 45.3088 58.834 44.8528 59.098C44.3968 59.35 44.0248 59.728 43.7368 60.232C43.4608 60.724 43.3228 61.312 43.3228 61.996C43.3228 62.68 43.4608 63.28 43.7368 63.796C44.0248 64.312 44.3968 64.708 44.8528 64.984C45.3208 65.248 45.8128 65.38 46.3288 65.38C46.8568 65.38 47.3488 65.248 47.8048 64.984C48.2608 64.72 48.6268 64.336 48.9028 63.832C49.1908 63.316 49.3348 62.716 49.3348 62.032ZM53.416 61.996C53.416 61 53.62 60.118 54.028 59.35C54.448 58.582 55.012 57.988 55.72 57.568C56.44 57.136 57.238 56.92 58.114 56.92C58.762 56.92 59.398 57.064 60.022 57.352C60.658 57.628 61.162 58 61.534 58.468V53.68H63.604V67H61.534V65.506C61.198 65.986 60.73 66.382 60.13 66.694C59.542 67.006 58.864 67.162 58.096 67.162C57.232 67.162 56.44 66.946 55.72 66.514C55.012 66.07 54.448 65.458 54.028 64.678C53.62 63.886 53.416 62.992 53.416 61.996ZM61.534 62.032C61.534 61.348 61.39 60.754 61.102 60.25C60.826 59.746 60.46 59.362 60.004 59.098C59.548 58.834 59.056 58.702 58.528 58.702C58 58.702 57.508 58.834 57.052 59.098C56.596 59.35 56.224 59.728 55.936 60.232C55.66 60.724 55.522 61.312 55.522 61.996C55.522 62.68 55.66 63.28 55.936 63.796C56.224 64.312 56.596 64.708 57.052 64.984C57.52 65.248 58.012 65.38 58.528 65.38C59.056 65.38 59.548 65.248 60.004 64.984C60.46 64.72 60.826 64.336 61.102 63.832C61.39 63.316 61.534 62.716 61.534 62.032ZM81.253 67H79.201L73.027 57.658V67H70.975V54.472H73.027L79.201 63.796V54.472H81.253V67ZM93.0377 61.798C93.0377 62.17 93.0137 62.506 92.9657 62.806H85.3877C85.4477 63.598 85.7417 64.234 86.2697 64.714C86.7977 65.194 87.4457 65.434 88.2137 65.434C89.3177 65.434 90.0977 64.972 90.5537 64.048H92.7677C92.4677 64.96 91.9217 65.71 91.1297 66.298C90.3497 66.874 89.3777 67.162 88.2137 67.162C87.2657 67.162 86.4137 66.952 85.6577 66.532C84.9137 66.1 84.3257 65.5 83.8937 64.732C83.4737 63.952 83.2637 63.052 83.2637 62.032C83.2637 61.012 83.4677 60.118 83.8757 59.35C84.2957 58.57 84.8777 57.97 85.6217 57.55C86.3777 57.13 87.2417 56.92 88.2137 56.92C89.1497 56.92 89.9837 57.124 90.7157 57.532C91.4477 57.94 92.0177 58.516 92.4257 59.26C92.8337 59.992 93.0377 60.838 93.0377 61.798ZM90.8957 61.15C90.8837 60.394 90.6137 59.788 90.0857 59.332C89.5577 58.876 88.9037 58.648 88.1237 58.648C87.4157 58.648 86.8097 58.876 86.3057 59.332C85.8017 59.776 85.5017 60.382 85.4057 61.15H90.8957ZM108.377 57.082L105.299 67H103.139L101.141 59.674L99.143 67H96.983L93.887 57.082H95.975L98.045 65.056L100.151 57.082H102.293L104.309 65.02L106.361 57.082H108.377ZM113.902 60.718C113.902 59.494 114.184 58.396 114.748 57.424C115.324 56.452 116.098 55.696 117.07 55.156C118.054 54.604 119.128 54.328 120.292 54.328C121.624 54.328 122.806 54.658 123.838 55.318C124.882 55.966 125.638 56.89 126.106 58.09H123.64C123.316 57.43 122.866 56.938 122.29 56.614C121.714 56.29 121.048 56.128 120.292 56.128C119.464 56.128 118.726 56.314 118.078 56.686C117.43 57.058 116.92 57.592 116.548 58.288C116.188 58.984 116.008 59.794 116.008 60.718C116.008 61.642 116.188 62.452 116.548 63.148C116.92 63.844 117.43 64.384 118.078 64.768C118.726 65.14 119.464 65.326 120.292 65.326C121.048 65.326 121.714 65.164 122.29 64.84C122.866 64.516 123.316 64.024 123.64 63.364H126.106C125.638 64.564 124.882 65.488 123.838 66.136C122.806 66.784 121.624 67.108 120.292 67.108C119.116 67.108 118.042 66.838 117.07 66.298C116.098 65.746 115.324 64.984 114.748 64.012C114.184 63.04 113.902 61.942 113.902 60.718ZM127.824 61.996C127.824 61 128.028 60.118 128.436 59.35C128.856 58.582 129.42 57.988 130.128 57.568C130.848 57.136 131.64 56.92 132.504 56.92C133.284 56.92 133.962 57.076 134.538 57.388C135.126 57.688 135.594 58.066 135.942 58.522V57.082H138.012V67H135.942V65.524C135.594 65.992 135.12 66.382 134.52 66.694C133.92 67.006 133.236 67.162 132.468 67.162C131.616 67.162 130.836 66.946 130.128 66.514C129.42 66.07 128.856 65.458 128.436 64.678C128.028 63.886 127.824 62.992 127.824 61.996ZM135.942 62.032C135.942 61.348 135.798 60.754 135.51 60.25C135.234 59.746 134.868 59.362 134.412 59.098C133.956 58.834 133.464 58.702 132.936 58.702C132.408 58.702 131.916 58.834 131.46 59.098C131.004 59.35 130.632 59.728 130.344 60.232C130.068 60.724 129.93 61.312 129.93 61.996C129.93 62.68 130.068 63.28 130.344 63.796C130.632 64.312 131.004 64.708 131.46 64.984C131.928 65.248 132.42 65.38 132.936 65.38C133.464 65.38 133.956 65.248 134.412 64.984C134.868 64.72 135.234 64.336 135.51 63.832C135.798 63.316 135.942 62.716 135.942 62.032ZM143.101 58.756V64.246C143.101 64.618 143.185 64.888 143.353 65.056C143.533 65.212 143.833 65.29 144.253 65.29H145.513V67H143.893C142.969 67 142.261 66.784 141.769 66.352C141.277 65.92 141.031 65.218 141.031 64.246V58.756H139.861V57.082H141.031V54.616H143.101V57.082H145.513V58.756H143.101ZM156.495 61.798C156.495 62.17 156.471 62.506 156.423 62.806H148.845C148.905 63.598 149.199 64.234 149.727 64.714C150.255 65.194 150.903 65.434 151.671 65.434C152.775 65.434 153.555 64.972 154.011 64.048H156.225C155.925 64.96 155.379 65.71 154.587 66.298C153.807 66.874 152.835 67.162 151.671 67.162C150.723 67.162 149.871 66.952 149.115 66.532C148.371 66.1 147.783 65.5 147.351 64.732C146.931 63.952 146.721 63.052 146.721 62.032C146.721 61.012 146.925 60.118 147.333 59.35C147.753 58.57 148.335 57.97 149.079 57.55C149.835 57.13 150.699 56.92 151.671 56.92C152.607 56.92 153.441 57.124 154.173 57.532C154.905 57.94 155.475 58.516 155.883 59.26C156.291 59.992 156.495 60.838 156.495 61.798ZM154.353 61.15C154.341 60.394 154.071 59.788 153.543 59.332C153.015 58.876 152.361 58.648 151.581 58.648C150.873 58.648 150.267 58.876 149.763 59.332C149.259 59.776 148.959 60.382 148.863 61.15H154.353ZM162.51 56.92C163.278 56.92 163.956 57.076 164.544 57.388C165.144 57.688 165.612 58.066 165.948 58.522V57.082H168.018V67.162C168.018 68.074 167.826 68.884 167.442 69.592C167.058 70.312 166.5 70.876 165.768 71.284C165.048 71.692 164.184 71.896 163.176 71.896C161.832 71.896 160.716 71.578 159.828 70.942C158.94 70.318 158.436 69.466 158.316 68.386H160.35C160.506 68.902 160.836 69.316 161.34 69.628C161.856 69.952 162.468 70.114 163.176 70.114C164.004 70.114 164.67 69.862 165.174 69.358C165.69 68.854 165.948 68.122 165.948 67.162V65.506C165.6 65.974 165.126 66.37 164.526 66.694C163.938 67.006 163.266 67.162 162.51 67.162C161.646 67.162 160.854 66.946 160.134 66.514C159.426 66.07 158.862 65.458 158.442 64.678C158.034 63.886 157.83 62.992 157.83 61.996C157.83 61 158.034 60.118 158.442 59.35C158.862 58.582 159.426 57.988 160.134 57.568C160.854 57.136 161.646 56.92 162.51 56.92ZM165.948 62.032C165.948 61.348 165.804 60.754 165.516 60.25C165.24 59.746 164.874 59.362 164.418 59.098C163.962 58.834 163.47 58.702 162.942 58.702C162.414 58.702 161.922 58.834 161.466 59.098C161.01 59.35 160.638 59.728 160.35 60.232C160.074 60.724 159.936 61.312 159.936 61.996C159.936 62.68 160.074 63.28 160.35 63.796C160.638 64.312 161.01 64.708 161.466 64.984C161.934 65.248 162.426 65.38 162.942 65.38C163.47 65.38 163.962 65.248 164.418 64.984C164.874 64.72 165.24 64.336 165.516 63.832C165.804 63.316 165.948 62.716 165.948 62.032ZM175.015 67.162C174.079 67.162 173.233 66.952 172.477 66.532C171.721 66.1 171.127 65.5 170.695 64.732C170.263 63.952 170.047 63.052 170.047 62.032C170.047 61.024 170.269 60.13 170.713 59.35C171.157 58.57 171.763 57.97 172.531 57.55C173.299 57.13 174.157 56.92 175.105 56.92C176.053 56.92 176.911 57.13 177.679 57.55C178.447 57.97 179.053 58.57 179.497 59.35C179.941 60.13 180.163 61.024 180.163 62.032C180.163 63.04 179.935 63.934 179.479 64.714C179.023 65.494 178.399 66.1 177.607 66.532C176.827 66.952 175.963 67.162 175.015 67.162ZM175.015 65.38C175.543 65.38 176.035 65.254 176.491 65.002C176.959 64.75 177.337 64.372 177.625 63.868C177.913 63.364 178.057 62.752 178.057 62.032C178.057 61.312 177.919 60.706 177.643 60.214C177.367 59.71 177.001 59.332 176.545 59.08C176.089 58.828 175.597 58.702 175.069 58.702C174.541 58.702 174.049 58.828 173.593 59.08C173.149 59.332 172.795 59.71 172.531 60.214C172.267 60.706 172.135 61.312 172.135 62.032C172.135 63.1 172.405 63.928 172.945 64.516C173.497 65.092 174.187 65.38 175.015 65.38ZM184.244 58.522C184.544 58.018 184.94 57.628 185.432 57.352C185.936 57.064 186.53 56.92 187.214 56.92V59.044H186.692C185.888 59.044 185.276 59.248 184.856 59.656C184.448 60.064 184.244 60.772 184.244 61.78V67H182.192V57.082H184.244V58.522ZM198.028 57.082L191.944 71.662H189.82L191.836 66.838L187.93 57.082H190.216L193.006 64.642L195.904 57.082H198.028Z" fill="black"/>
<path d="M36.384 116.88V118.368H33.424V128H31.6V118.368H28.624V116.88H36.384ZM46.3113 123.376C46.3113 123.707 46.2899 124.005 46.2473 124.272H39.5113C39.5646 124.976 39.8259 125.541 40.2953 125.968C40.7646 126.395 41.3406 126.608 42.0233 126.608C43.0046 126.608 43.6979 126.197 44.1033 125.376H46.0712C45.8046 126.187 45.3193 126.853 44.6153 127.376C43.9219 127.888 43.0579 128.144 42.0233 128.144C41.1806 128.144 40.4233 127.957 39.7513 127.584C39.0899 127.2 38.5673 126.667 38.1833 125.984C37.8099 125.291 37.6233 124.491 37.6233 123.584C37.6233 122.677 37.8046 121.883 38.1673 121.2C38.5406 120.507 39.0579 119.973 39.7193 119.6C40.3913 119.227 41.1593 119.04 42.0233 119.04C42.8553 119.04 43.5966 119.221 44.2473 119.584C44.8979 119.947 45.4046 120.459 45.7673 121.12C46.1299 121.771 46.3113 122.523 46.3113 123.376ZM44.4073 122.8C44.3966 122.128 44.1566 121.589 43.6873 121.184C43.2179 120.779 42.6366 120.576 41.9433 120.576C41.3139 120.576 40.7753 120.779 40.3273 121.184C39.8793 121.579 39.6126 122.117 39.5273 122.8H44.4073ZM51.8823 123.536L54.7303 128H52.6663L50.7623 125.008L48.9703 128H47.0663L49.9143 123.664L47.0663 119.184H49.1303L51.0343 122.176L52.8263 119.184H54.7303L51.8823 123.536ZM58.2186 120.672V125.552C58.2186 125.883 58.2933 126.123 58.4426 126.272C58.6026 126.411 58.8693 126.48 59.2426 126.48H60.3626V128H58.9226C58.1013 128 57.472 127.808 57.0346 127.424C56.5973 127.04 56.3786 126.416 56.3786 125.552V120.672H55.3386V119.184H56.3786V116.992H58.2186V119.184H60.3626V120.672H58.2186ZM67.1158 117.136L67.8358 118.416L65.6438 119.232L67.8358 120.048L67.0998 121.36L65.2758 119.92L65.6118 122.24H64.1398L64.4438 119.92L62.6198 121.392L61.8518 120.032L64.0278 119.216L61.8518 118.432L62.5878 117.12L64.4598 118.56L64.1398 116.224H65.6278L65.2758 118.56L67.1158 117.136Z" fill="#3A3A3A"/>
<path d="M75.272 117.136L75.992 118.416L73.8 119.232L75.992 120.048L75.256 121.36L73.432 119.92L73.768 122.24H72.296L72.6 119.92L70.776 121.392L70.008 120.032L72.184 119.216L70.008 118.432L70.744 117.12L72.616 118.56L72.296 116.224H73.784L73.432 118.56L75.272 117.136Z" fill="#DC3545"/>
<g filter="url(#filter0_d_499_5525)">
<rect x="28" y="142" width="296" height="48" rx="8" fill="white" shape-rendering="crispEdges"/>
<rect x="28.5" y="142.5" width="295" height="47" rx="7.5" stroke="#7B7B7B" shape-rendering="crispEdges"/>
<path d="M48.688 164.112C48.688 165.04 48.368 165.813 47.728 166.432C47.0987 167.04 46.1333 167.344 44.832 167.344H42.688V172H41.232V160.848H44.832C46.0907 160.848 47.0453 161.152 47.696 161.76C48.3573 162.368 48.688 163.152 48.688 164.112ZM44.832 166.144C45.6427 166.144 46.24 165.968 46.624 165.616C47.008 165.264 47.2 164.763 47.2 164.112C47.2 162.736 46.4107 162.048 44.832 162.048H42.688V166.144H44.832ZM51.9536 160.16V172H50.4976V160.16H51.9536ZM53.8911 167.584C53.8911 166.688 54.0725 165.904 54.4351 165.232C54.7978 164.549 55.2938 164.021 55.9231 163.648C56.5631 163.275 57.2725 163.088 58.0511 163.088C58.8191 163.088 59.4858 163.253 60.0511 163.584C60.6165 163.915 61.0378 164.331 61.3151 164.832V163.232H62.7871V172H61.3151V170.368C61.0271 170.88 60.5951 171.307 60.0191 171.648C59.4538 171.979 58.7925 172.144 58.0351 172.144C57.2565 172.144 56.5525 171.952 55.9231 171.568C55.2938 171.184 54.7978 170.645 54.4351 169.952C54.0725 169.259 53.8911 168.469 53.8911 167.584ZM61.3151 167.6C61.3151 166.939 61.1818 166.363 60.9151 165.872C60.6485 165.381 60.2858 165.008 59.8271 164.752C59.3791 164.485 58.8831 164.352 58.3391 164.352C57.7951 164.352 57.2991 164.48 56.8511 164.736C56.4031 164.992 56.0458 165.365 55.7791 165.856C55.5125 166.347 55.3791 166.923 55.3791 167.584C55.3791 168.256 55.5125 168.843 55.7791 169.344C56.0458 169.835 56.4031 170.213 56.8511 170.48C57.2991 170.736 57.7951 170.864 58.3391 170.864C58.8831 170.864 59.3791 170.736 59.8271 170.48C60.2858 170.213 60.6485 169.835 60.9151 169.344C61.1818 168.843 61.3151 168.261 61.3151 167.6ZM64.7036 167.6C64.7036 166.693 64.885 165.904 65.2476 165.232C65.6103 164.549 66.1116 164.021 66.7516 163.648C67.4023 163.275 68.1436 163.088 68.9756 163.088C70.053 163.088 70.9383 163.349 71.6316 163.872C72.3356 164.395 72.7996 165.12 73.0236 166.048H71.4556C71.3063 165.515 71.013 165.093 70.5756 164.784C70.149 164.475 69.6156 164.32 68.9756 164.32C68.1436 164.32 67.4716 164.608 66.9596 165.184C66.4476 165.749 66.1916 166.555 66.1916 167.6C66.1916 168.656 66.4476 169.472 66.9596 170.048C67.4716 170.624 68.1436 170.912 68.9756 170.912C69.6156 170.912 70.149 170.763 70.5756 170.464C71.0023 170.165 71.2956 169.739 71.4556 169.184H73.0236C72.789 170.08 72.3196 170.8 71.6156 171.344C70.9116 171.877 70.0316 172.144 68.9756 172.144C68.1436 172.144 67.4023 171.957 66.7516 171.584C66.1116 171.211 65.6103 170.683 65.2476 170C64.885 169.317 64.7036 168.517 64.7036 167.6ZM82.9664 167.28C82.9664 167.557 82.9504 167.851 82.9184 168.16H75.9104C75.9637 169.024 76.257 169.701 76.7904 170.192C77.3344 170.672 77.9904 170.912 78.7584 170.912C79.3877 170.912 79.9104 170.768 80.3264 170.48C80.753 170.181 81.0517 169.787 81.2224 169.296H82.7904C82.5557 170.139 82.0864 170.827 81.3824 171.36C80.6784 171.883 79.8037 172.144 78.7584 172.144C77.9264 172.144 77.1797 171.957 76.5184 171.584C75.8677 171.211 75.3557 170.683 74.9824 170C74.609 169.307 74.4224 168.507 74.4224 167.6C74.4224 166.693 74.6037 165.899 74.9664 165.216C75.329 164.533 75.8357 164.011 76.4864 163.648C77.1477 163.275 77.905 163.088 78.7584 163.088C79.5904 163.088 80.3264 163.269 80.9664 163.632C81.6064 163.995 82.097 164.496 82.4384 165.136C82.7904 165.765 82.9664 166.48 82.9664 167.28ZM81.4624 166.976C81.4624 166.421 81.3397 165.947 81.0944 165.552C80.849 165.147 80.513 164.843 80.0864 164.64C79.6704 164.427 79.2064 164.32 78.6944 164.32C77.9584 164.32 77.329 164.555 76.8064 165.024C76.2944 165.493 76.001 166.144 75.9264 166.976H81.4624ZM89.2403 163.072C89.9016 163.072 90.4989 163.216 91.0323 163.504C91.5656 163.781 91.9816 164.203 92.2803 164.768C92.5896 165.333 92.7443 166.021 92.7443 166.832V172H91.3043V167.04C91.3043 166.165 91.0856 165.499 90.6483 165.04C90.2109 164.571 89.6136 164.336 88.8563 164.336C88.0883 164.336 87.4749 164.576 87.0163 165.056C86.5683 165.536 86.3443 166.235 86.3443 167.152V172H84.8883V160.16H86.3443V164.48C86.6323 164.032 87.0269 163.685 87.5283 163.44C88.0403 163.195 88.6109 163.072 89.2403 163.072ZM98.9466 172.144C98.1253 172.144 97.3786 171.957 96.7066 171.584C96.0453 171.211 95.5226 170.683 95.1386 170C94.7653 169.307 94.5786 168.507 94.5786 167.6C94.5786 166.704 94.7706 165.915 95.1546 165.232C95.5493 164.539 96.0826 164.011 96.7546 163.648C97.4266 163.275 98.1786 163.088 99.0106 163.088C99.8426 163.088 100.595 163.275 101.267 163.648C101.939 164.011 102.467 164.533 102.851 165.216C103.245 165.899 103.443 166.693 103.443 167.6C103.443 168.507 103.24 169.307 102.835 170C102.44 170.683 101.901 171.211 101.219 171.584C100.536 171.957 99.7786 172.144 98.9466 172.144ZM98.9466 170.864C99.4693 170.864 99.96 170.741 100.419 170.496C100.877 170.251 101.245 169.883 101.523 169.392C101.811 168.901 101.955 168.304 101.955 167.6C101.955 166.896 101.816 166.299 101.539 165.808C101.261 165.317 100.899 164.955 100.451 164.72C100.003 164.475 99.5173 164.352 98.9946 164.352C98.4613 164.352 97.9706 164.475 97.5226 164.72C97.0853 164.955 96.7333 165.317 96.4666 165.808C96.2 166.299 96.0666 166.896 96.0666 167.6C96.0666 168.315 96.1946 168.917 96.4506 169.408C96.7173 169.899 97.0693 170.267 97.5066 170.512C97.944 170.747 98.424 170.864 98.9466 170.864ZM106.813 160.16V172H105.357V160.16H106.813ZM108.751 167.584C108.751 166.688 108.932 165.904 109.295 165.232C109.657 164.549 110.153 164.021 110.783 163.648C111.423 163.275 112.137 163.088 112.927 163.088C113.609 163.088 114.244 163.248 114.831 163.568C115.417 163.877 115.865 164.288 116.175 164.8V160.16H117.647V172H116.175V170.352C115.887 170.875 115.46 171.307 114.895 171.648C114.329 171.979 113.668 172.144 112.911 172.144C112.132 172.144 111.423 171.952 110.783 171.568C110.153 171.184 109.657 170.645 109.295 169.952C108.932 169.259 108.751 168.469 108.751 167.584ZM116.175 167.6C116.175 166.939 116.041 166.363 115.775 165.872C115.508 165.381 115.145 165.008 114.687 164.752C114.239 164.485 113.743 164.352 113.199 164.352C112.655 164.352 112.159 164.48 111.711 164.736C111.263 164.992 110.905 165.365 110.639 165.856C110.372 166.347 110.239 166.923 110.239 167.584C110.239 168.256 110.372 168.843 110.639 169.344C110.905 169.835 111.263 170.213 111.711 170.48C112.159 170.736 112.655 170.864 113.199 170.864C113.743 170.864 114.239 170.736 114.687 170.48C115.145 170.213 115.508 169.835 115.775 169.344C116.041 168.843 116.175 168.261 116.175 167.6ZM128.107 167.28C128.107 167.557 128.091 167.851 128.059 168.16H121.051C121.104 169.024 121.398 169.701 121.931 170.192C122.475 170.672 123.131 170.912 123.899 170.912C124.528 170.912 125.051 170.768 125.467 170.48C125.894 170.181 126.192 169.787 126.363 169.296H127.931C127.696 170.139 127.227 170.827 126.523 171.36C125.819 171.883 124.944 172.144 123.899 172.144C123.067 172.144 122.32 171.957 121.659 171.584C121.008 171.211 120.496 170.683 120.123 170C119.75 169.307 119.563 168.507 119.563 167.6C119.563 166.693 119.744 165.899 120.107 165.216C120.47 164.533 120.976 164.011 121.627 163.648C122.288 163.275 123.046 163.088 123.899 163.088C124.731 163.088 125.467 163.269 126.107 163.632C126.747 163.995 127.238 164.496 127.579 165.136C127.931 165.765 128.107 166.48 128.107 167.28ZM126.603 166.976C126.603 166.421 126.48 165.947 126.235 165.552C125.99 165.147 125.654 164.843 125.227 164.64C124.811 164.427 124.347 164.32 123.835 164.32C123.099 164.32 122.47 164.555 121.947 165.024C121.435 165.493 121.142 166.144 121.067 166.976H126.603ZM131.485 164.656C131.741 164.155 132.104 163.765 132.573 163.488C133.053 163.211 133.634 163.072 134.317 163.072V164.576H133.933C132.301 164.576 131.485 165.461 131.485 167.232V172H130.029V163.232H131.485V164.656ZM147.127 160.848V162.032H144.087V172H142.631V162.032H139.575V160.848H147.127ZM156.92 167.28C156.92 167.557 156.904 167.851 156.872 168.16H149.864C149.917 169.024 150.21 169.701 150.744 170.192C151.288 170.672 151.944 170.912 152.712 170.912C153.341 170.912 153.864 170.768 154.28 170.48C154.706 170.181 155.005 169.787 155.176 169.296H156.744C156.509 170.139 156.04 170.827 155.336 171.36C154.632 171.883 153.757 172.144 152.712 172.144C151.88 172.144 151.133 171.957 150.472 171.584C149.821 171.211 149.309 170.683 148.936 170C148.562 169.307 148.376 168.507 148.376 167.6C148.376 166.693 148.557 165.899 148.92 165.216C149.282 164.533 149.789 164.011 150.44 163.648C151.101 163.275 151.858 163.088 152.712 163.088C153.544 163.088 154.28 163.269 154.92 163.632C155.56 163.995 156.05 164.496 156.392 165.136C156.744 165.765 156.92 166.48 156.92 167.28ZM155.416 166.976C155.416 166.421 155.293 165.947 155.048 165.552C154.802 165.147 154.466 164.843 154.04 164.64C153.624 164.427 153.16 164.32 152.648 164.32C151.912 164.32 151.282 164.555 150.76 165.024C150.248 165.493 149.954 166.144 149.88 166.976H155.416ZM163.417 172L161.337 168.736L159.337 172H157.817L160.649 167.648L157.817 163.232H159.465L161.545 166.48L163.529 163.232H165.049L162.233 167.568L165.065 172H163.417ZM168.274 164.432V169.6C168.274 170.027 168.364 170.331 168.546 170.512C168.727 170.683 169.042 170.768 169.49 170.768H170.562V172H169.25C168.439 172 167.831 171.813 167.426 171.44C167.02 171.067 166.818 170.453 166.818 169.6V164.432H165.682V163.232H166.818V161.024H168.274V163.232H170.562V164.432H168.274Z" fill="#A4A4A4"/>
</g>
<path d="M36.384 220.88V222.368H33.424V232H31.6V222.368H28.624V220.88H36.384ZM46.3113 227.376C46.3113 227.707 46.2899 228.005 46.2473 228.272H39.5113C39.5646 228.976 39.8259 229.541 40.2953 229.968C40.7646 230.395 41.3406 230.608 42.0233 230.608C43.0046 230.608 43.6979 230.197 44.1033 229.376H46.0712C45.8046 230.187 45.3193 230.853 44.6153 231.376C43.9219 231.888 43.0579 232.144 42.0233 232.144C41.1806 232.144 40.4233 231.957 39.7513 231.584C39.0899 231.2 38.5673 230.667 38.1833 229.984C37.8099 229.291 37.6233 228.491 37.6233 227.584C37.6233 226.677 37.8046 225.883 38.1673 225.2C38.5406 224.507 39.0579 223.973 39.7193 223.6C40.3913 223.227 41.1593 223.04 42.0233 223.04C42.8553 223.04 43.5966 223.221 44.2473 223.584C44.8979 223.947 45.4046 224.459 45.7673 225.12C46.1299 225.771 46.3113 226.523 46.3113 227.376ZM44.4073 226.8C44.3966 226.128 44.1566 225.589 43.6873 225.184C43.2179 224.779 42.6366 224.576 41.9433 224.576C41.3139 224.576 40.7753 224.779 40.3273 225.184C39.8793 225.579 39.6126 226.117 39.5273 226.8H44.4073ZM51.8823 227.536L54.7303 232H52.6663L50.7623 229.008L48.9703 232H47.0663L49.9143 227.664L47.0663 223.184H49.1303L51.0343 226.176L52.8263 223.184H54.7303L51.8823 227.536ZM58.2186 224.672V229.552C58.2186 229.883 58.2933 230.123 58.4426 230.272C58.6026 230.411 58.8693 230.48 59.2426 230.48H60.3626V232H58.9226C58.1013 232 57.472 231.808 57.0346 231.424C56.5973 231.04 56.3786 230.416 56.3786 229.552V224.672H55.3386V223.184H56.3786V220.992H58.2186V223.184H60.3626V224.672H58.2186Z" fill="#3A3A3A"/>
<path d="M67.272 221.136L67.992 222.416L65.8 223.232L67.992 224.048L67.256 225.36L65.432 223.92L65.768 226.24H64.296L64.6 223.92L62.776 225.392L62.008 224.032L64.184 223.216L62.008 222.432L62.744 221.12L64.616 222.56L64.296 220.224H65.784L65.432 222.56L67.272 221.136Z" fill="#DC3545"/>
<g filter="url(#filter1_d_499_5525)">
<rect x="28" y="246" width="296" height="48" rx="8" fill="white" shape-rendering="crispEdges"/>
<rect x="28.5" y="246.5" width="295" height="47" rx="7.5" stroke="#7B7B7B" shape-rendering="crispEdges"/>
<path d="M48.688 268.112C48.688 269.04 48.368 269.813 47.728 270.432C47.0987 271.04 46.1333 271.344 44.832 271.344H42.688V276H41.232V264.848H44.832C46.0907 264.848 47.0453 265.152 47.696 265.76C48.3573 266.368 48.688 267.152 48.688 268.112ZM44.832 270.144C45.6427 270.144 46.24 269.968 46.624 269.616C47.008 269.264 47.2 268.763 47.2 268.112C47.2 266.736 46.4107 266.048 44.832 266.048H42.688V270.144H44.832ZM51.9536 264.16V276H50.4976V264.16H51.9536ZM53.8911 271.584C53.8911 270.688 54.0725 269.904 54.4351 269.232C54.7978 268.549 55.2938 268.021 55.9231 267.648C56.5631 267.275 57.2725 267.088 58.0511 267.088C58.8191 267.088 59.4858 267.253 60.0511 267.584C60.6165 267.915 61.0378 268.331 61.3151 268.832V267.232H62.7871V276H61.3151V274.368C61.0271 274.88 60.5951 275.307 60.0191 275.648C59.4538 275.979 58.7925 276.144 58.0351 276.144C57.2565 276.144 56.5525 275.952 55.9231 275.568C55.2938 275.184 54.7978 274.645 54.4351 273.952C54.0725 273.259 53.8911 272.469 53.8911 271.584ZM61.3151 271.6C61.3151 270.939 61.1818 270.363 60.9151 269.872C60.6485 269.381 60.2858 269.008 59.8271 268.752C59.3791 268.485 58.8831 268.352 58.3391 268.352C57.7951 268.352 57.2991 268.48 56.8511 268.736C56.4031 268.992 56.0458 269.365 55.7791 269.856C55.5125 270.347 55.3791 270.923 55.3791 271.584C55.3791 272.256 55.5125 272.843 55.7791 273.344C56.0458 273.835 56.4031 274.213 56.8511 274.48C57.2991 274.736 57.7951 274.864 58.3391 274.864C58.8831 274.864 59.3791 274.736 59.8271 274.48C60.2858 274.213 60.6485 273.835 60.9151 273.344C61.1818 272.843 61.3151 272.261 61.3151 271.6ZM64.7036 271.6C64.7036 270.693 64.885 269.904 65.2476 269.232C65.6103 268.549 66.1116 268.021 66.7516 267.648C67.4023 267.275 68.1436 267.088 68.9756 267.088C70.053 267.088 70.9383 267.349 71.6316 267.872C72.3356 268.395 72.7996 269.12 73.0236 270.048H71.4556C71.3063 269.515 71.013 269.093 70.5756 268.784C70.149 268.475 69.6156 268.32 68.9756 268.32C68.1436 268.32 67.4716 268.608 66.9596 269.184C66.4476 269.749 66.1916 270.555 66.1916 271.6C66.1916 272.656 66.4476 273.472 66.9596 274.048C67.4716 274.624 68.1436 274.912 68.9756 274.912C69.6156 274.912 70.149 274.763 70.5756 274.464C71.0023 274.165 71.2956 273.739 71.4556 273.184H73.0236C72.789 274.08 72.3196 274.8 71.6156 275.344C70.9116 275.877 70.0316 276.144 68.9756 276.144C68.1436 276.144 67.4023 275.957 66.7516 275.584C66.1116 275.211 65.6103 274.683 65.2476 274C64.885 273.317 64.7036 272.517 64.7036 271.6ZM82.9664 271.28C82.9664 271.557 82.9504 271.851 82.9184 272.16H75.9104C75.9637 273.024 76.257 273.701 76.7904 274.192C77.3344 274.672 77.9904 274.912 78.7584 274.912C79.3877 274.912 79.9104 274.768 80.3264 274.48C80.753 274.181 81.0517 273.787 81.2224 273.296H82.7904C82.5557 274.139 82.0864 274.827 81.3824 275.36C80.6784 275.883 79.8037 276.144 78.7584 276.144C77.9264 276.144 77.1797 275.957 76.5184 275.584C75.8677 275.211 75.3557 274.683 74.9824 274C74.609 273.307 74.4224 272.507 74.4224 271.6C74.4224 270.693 74.6037 269.899 74.9664 269.216C75.329 268.533 75.8357 268.011 76.4864 267.648C77.1477 267.275 77.905 267.088 78.7584 267.088C79.5904 267.088 80.3264 267.269 80.9664 267.632C81.6064 267.995 82.097 268.496 82.4384 269.136C82.7904 269.765 82.9664 270.48 82.9664 271.28ZM81.4624 270.976C81.4624 270.421 81.3397 269.947 81.0944 269.552C80.849 269.147 80.513 268.843 80.0864 268.64C79.6704 268.427 79.2064 268.32 78.6944 268.32C77.9584 268.32 77.329 268.555 76.8064 269.024C76.2944 269.493 76.001 270.144 75.9264 270.976H81.4624ZM89.2403 267.072C89.9016 267.072 90.4989 267.216 91.0323 267.504C91.5656 267.781 91.9816 268.203 92.2803 268.768C92.5896 269.333 92.7443 270.021 92.7443 270.832V276H91.3043V271.04C91.3043 270.165 91.0856 269.499 90.6483 269.04C90.2109 268.571 89.6136 268.336 88.8563 268.336C88.0883 268.336 87.4749 268.576 87.0163 269.056C86.5683 269.536 86.3443 270.235 86.3443 271.152V276H84.8883V264.16H86.3443V268.48C86.6323 268.032 87.0269 267.685 87.5283 267.44C88.0403 267.195 88.6109 267.072 89.2403 267.072ZM98.9466 276.144C98.1253 276.144 97.3786 275.957 96.7066 275.584C96.0453 275.211 95.5226 274.683 95.1386 274C94.7653 273.307 94.5786 272.507 94.5786 271.6C94.5786 270.704 94.7706 269.915 95.1546 269.232C95.5493 268.539 96.0826 268.011 96.7546 267.648C97.4266 267.275 98.1786 267.088 99.0106 267.088C99.8426 267.088 100.595 267.275 101.267 267.648C101.939 268.011 102.467 268.533 102.851 269.216C103.245 269.899 103.443 270.693 103.443 271.6C103.443 272.507 103.24 273.307 102.835 274C102.44 274.683 101.901 275.211 101.219 275.584C100.536 275.957 99.7786 276.144 98.9466 276.144ZM98.9466 274.864C99.4693 274.864 99.96 274.741 100.419 274.496C100.877 274.251 101.245 273.883 101.523 273.392C101.811 272.901 101.955 272.304 101.955 271.6C101.955 270.896 101.816 270.299 101.539 269.808C101.261 269.317 100.899 268.955 100.451 268.72C100.003 268.475 99.5173 268.352 98.9946 268.352C98.4613 268.352 97.9706 268.475 97.5226 268.72C97.0853 268.955 96.7333 269.317 96.4666 269.808C96.2 270.299 96.0666 270.896 96.0666 271.6C96.0666 272.315 96.1946 272.917 96.4506 273.408C96.7173 273.899 97.0693 274.267 97.5066 274.512C97.944 274.747 98.424 274.864 98.9466 274.864ZM106.813 264.16V276H105.357V264.16H106.813ZM108.751 271.584C108.751 270.688 108.932 269.904 109.295 269.232C109.657 268.549 110.153 268.021 110.783 267.648C111.423 267.275 112.137 267.088 112.927 267.088C113.609 267.088 114.244 267.248 114.831 267.568C115.417 267.877 115.865 268.288 116.175 268.8V264.16H117.647V276H116.175V274.352C115.887 274.875 115.46 275.307 114.895 275.648C114.329 275.979 113.668 276.144 112.911 276.144C112.132 276.144 111.423 275.952 110.783 275.568C110.153 275.184 109.657 274.645 109.295 273.952C108.932 273.259 108.751 272.469 108.751 271.584ZM116.175 271.6C116.175 270.939 116.041 270.363 115.775 269.872C115.508 269.381 115.145 269.008 114.687 268.752C114.239 268.485 113.743 268.352 113.199 268.352C112.655 268.352 112.159 268.48 111.711 268.736C111.263 268.992 110.905 269.365 110.639 269.856C110.372 270.347 110.239 270.923 110.239 271.584C110.239 272.256 110.372 272.843 110.639 273.344C110.905 273.835 111.263 274.213 111.711 274.48C112.159 274.736 112.655 274.864 113.199 274.864C113.743 274.864 114.239 274.736 114.687 274.48C115.145 274.213 115.508 273.835 115.775 273.344C116.041 272.843 116.175 272.261 116.175 271.6ZM128.107 271.28C128.107 271.557 128.091 271.851 128.059 272.16H121.051C121.104 273.024 121.398 273.701 121.931 274.192C122.475 274.672 123.131 274.912 123.899 274.912C124.528 274.912 125.051 274.768 125.467 274.48C125.894 274.181 126.192 273.787 126.363 273.296H127.931C127.696 274.139 127.227 274.827 126.523 275.36C125.819 275.883 124.944 276.144 123.899 276.144C123.067 276.144 122.32 275.957 121.659 275.584C121.008 275.211 120.496 274.683 120.123 274C119.75 273.307 119.563 272.507 119.563 271.6C119.563 270.693 119.744 269.899 120.107 269.216C120.47 268.533 120.976 268.011 121.627 267.648C122.288 267.275 123.046 267.088 123.899 267.088C124.731 267.088 125.467 267.269 126.107 267.632C126.747 267.995 127.238 268.496 127.579 269.136C127.931 269.765 128.107 270.48 128.107 271.28ZM126.603 270.976C126.603 270.421 126.48 269.947 126.235 269.552C125.99 269.147 125.654 268.843 125.227 268.64C124.811 268.427 124.347 268.32 123.835 268.32C123.099 268.32 122.47 268.555 121.947 269.024C121.435 269.493 121.142 270.144 121.067 270.976H126.603ZM131.485 268.656C131.741 268.155 132.104 267.765 132.573 267.488C133.053 267.211 133.634 267.072 134.317 267.072V268.576H133.933C132.301 268.576 131.485 269.461 131.485 271.232V276H130.029V267.232H131.485V268.656ZM147.127 264.848V266.032H144.087V276H142.631V266.032H139.575V264.848H147.127ZM156.92 271.28C156.92 271.557 156.904 271.851 156.872 272.16H149.864C149.917 273.024 150.21 273.701 150.744 274.192C151.288 274.672 151.944 274.912 152.712 274.912C153.341 274.912 153.864 274.768 154.28 274.48C154.706 274.181 155.005 273.787 155.176 273.296H156.744C156.509 274.139 156.04 274.827 155.336 275.36C154.632 275.883 153.757 276.144 152.712 276.144C151.88 276.144 151.133 275.957 150.472 275.584C149.821 275.211 149.309 274.683 148.936 274C148.562 273.307 148.376 272.507 148.376 271.6C148.376 270.693 148.557 269.899 148.92 269.216C149.282 268.533 149.789 268.011 150.44 267.648C151.101 267.275 151.858 267.088 152.712 267.088C153.544 267.088 154.28 267.269 154.92 267.632C155.56 267.995 156.05 268.496 156.392 269.136C156.744 269.765 156.92 270.48 156.92 271.28ZM155.416 270.976C155.416 270.421 155.293 269.947 155.048 269.552C154.802 269.147 154.466 268.843 154.04 268.64C153.624 268.427 153.16 268.32 152.648 268.32C151.912 268.32 151.282 268.555 150.76 269.024C150.248 269.493 149.954 270.144 149.88 270.976H155.416ZM163.417 276L161.337 272.736L159.337 276H157.817L160.649 271.648L157.817 267.232H159.465L161.545 270.48L163.529 267.232H165.049L162.233 271.568L165.065 276H163.417ZM168.274 268.432V273.6C168.274 274.027 168.364 274.331 168.546 274.512C168.727 274.683 169.042 274.768 169.49 274.768H170.562V276H169.25C168.439 276 167.831 275.813 167.426 275.44C167.02 275.067 166.818 274.453 166.818 273.6V268.432H165.682V267.232H166.818V265.024H168.274V267.232H170.562V268.432H168.274Z" fill="#A4A4A4"/>
</g>
<path d="M36.384 324.88V326.368H33.424V336H31.6V326.368H28.624V324.88H36.384ZM46.3113 331.376C46.3113 331.707 46.2899 332.005 46.2473 332.272H39.5113C39.5646 332.976 39.8259 333.541 40.2953 333.968C40.7646 334.395 41.3406 334.608 42.0233 334.608C43.0046 334.608 43.6979 334.197 44.1033 333.376H46.0712C45.8046 334.187 45.3193 334.853 44.6153 335.376C43.9219 335.888 43.0579 336.144 42.0233 336.144C41.1806 336.144 40.4233 335.957 39.7513 335.584C39.0899 335.2 38.5673 334.667 38.1833 333.984C37.8099 333.291 37.6233 332.491 37.6233 331.584C37.6233 330.677 37.8046 329.883 38.1673 329.2C38.5406 328.507 39.0579 327.973 39.7193 327.6C40.3913 327.227 41.1593 327.04 42.0233 327.04C42.8553 327.04 43.5966 327.221 44.2473 327.584C44.8979 327.947 45.4046 328.459 45.7673 329.12C46.1299 329.771 46.3113 330.523 46.3113 331.376ZM44.4073 330.8C44.3966 330.128 44.1566 329.589 43.6873 329.184C43.2179 328.779 42.6366 328.576 41.9433 328.576C41.3139 328.576 40.7753 328.779 40.3273 329.184C39.8793 329.579 39.6126 330.117 39.5273 330.8H44.4073ZM51.8823 331.536L54.7303 336H52.6663L50.7623 333.008L48.9703 336H47.0663L49.9143 331.664L47.0663 327.184H49.1303L51.0343 330.176L52.8263 327.184H54.7303L51.8823 331.536ZM58.2186 328.672V333.552C58.2186 333.883 58.2933 334.123 58.4426 334.272C58.6026 334.411 58.8693 334.48 59.2426 334.48H60.3626V336H58.9226C58.1013 336 57.472 335.808 57.0346 335.424C56.5973 335.04 56.3786 334.416 56.3786 333.552V328.672H55.3386V327.184H56.3786V324.992H58.2186V327.184H60.3626V328.672H58.2186Z" fill="#3A3A3A"/>
<path d="M67.272 325.136L67.992 326.416L65.8 327.232L67.992 328.048L67.256 329.36L65.432 327.92L65.768 330.24H64.296L64.6 327.92L62.776 329.392L62.008 328.032L64.184 327.216L62.008 326.432L62.744 325.12L64.616 326.56L64.296 324.224H65.784L65.432 326.56L67.272 325.136Z" fill="#DC3545"/>
<g filter="url(#filter2_d_499_5525)">
<rect x="28" y="350" width="296" height="48" rx="8" fill="white" shape-rendering="crispEdges"/>
<rect x="28.5" y="350.5" width="295" height="47" rx="7.5" stroke="#7B7B7B" shape-rendering="crispEdges"/>
<path d="M48.688 372.112C48.688 373.04 48.368 373.813 47.728 374.432C47.0987 375.04 46.1333 375.344 44.832 375.344H42.688V380H41.232V368.848H44.832C46.0907 368.848 47.0453 369.152 47.696 369.76C48.3573 370.368 48.688 371.152 48.688 372.112ZM44.832 374.144C45.6427 374.144 46.24 373.968 46.624 373.616C47.008 373.264 47.2 372.763 47.2 372.112C47.2 370.736 46.4107 370.048 44.832 370.048H42.688V374.144H44.832ZM51.9536 368.16V380H50.4976V368.16H51.9536ZM53.8911 375.584C53.8911 374.688 54.0725 373.904 54.4351 373.232C54.7978 372.549 55.2938 372.021 55.9231 371.648C56.5631 371.275 57.2725 371.088 58.0511 371.088C58.8191 371.088 59.4858 371.253 60.0511 371.584C60.6165 371.915 61.0378 372.331 61.3151 372.832V371.232H62.7871V380H61.3151V378.368C61.0271 378.88 60.5951 379.307 60.0191 379.648C59.4538 379.979 58.7925 380.144 58.0351 380.144C57.2565 380.144 56.5525 379.952 55.9231 379.568C55.2938 379.184 54.7978 378.645 54.4351 377.952C54.0725 377.259 53.8911 376.469 53.8911 375.584ZM61.3151 375.6C61.3151 374.939 61.1818 374.363 60.9151 373.872C60.6485 373.381 60.2858 373.008 59.8271 372.752C59.3791 372.485 58.8831 372.352 58.3391 372.352C57.7951 372.352 57.2991 372.48 56.8511 372.736C56.4031 372.992 56.0458 373.365 55.7791 373.856C55.5125 374.347 55.3791 374.923 55.3791 375.584C55.3791 376.256 55.5125 376.843 55.7791 377.344C56.0458 377.835 56.4031 378.213 56.8511 378.48C57.2991 378.736 57.7951 378.864 58.3391 378.864C58.8831 378.864 59.3791 378.736 59.8271 378.48C60.2858 378.213 60.6485 377.835 60.9151 377.344C61.1818 376.843 61.3151 376.261 61.3151 375.6ZM64.7036 375.6C64.7036 374.693 64.885 373.904 65.2476 373.232C65.6103 372.549 66.1116 372.021 66.7516 371.648C67.4023 371.275 68.1436 371.088 68.9756 371.088C70.053 371.088 70.9383 371.349 71.6316 371.872C72.3356 372.395 72.7996 373.12 73.0236 374.048H71.4556C71.3063 373.515 71.013 373.093 70.5756 372.784C70.149 372.475 69.6156 372.32 68.9756 372.32C68.1436 372.32 67.4716 372.608 66.9596 373.184C66.4476 373.749 66.1916 374.555 66.1916 375.6C66.1916 376.656 66.4476 377.472 66.9596 378.048C67.4716 378.624 68.1436 378.912 68.9756 378.912C69.6156 378.912 70.149 378.763 70.5756 378.464C71.0023 378.165 71.2956 377.739 71.4556 377.184H73.0236C72.789 378.08 72.3196 378.8 71.6156 379.344C70.9116 379.877 70.0316 380.144 68.9756 380.144C68.1436 380.144 67.4023 379.957 66.7516 379.584C66.1116 379.211 65.6103 378.683 65.2476 378C64.885 377.317 64.7036 376.517 64.7036 375.6ZM82.9664 375.28C82.9664 375.557 82.9504 375.851 82.9184 376.16H75.9104C75.9637 377.024 76.257 377.701 76.7904 378.192C77.3344 378.672 77.9904 378.912 78.7584 378.912C79.3877 378.912 79.9104 378.768 80.3264 378.48C80.753 378.181 81.0517 377.787 81.2224 377.296H82.7904C82.5557 378.139 82.0864 378.827 81.3824 379.36C80.6784 379.883 79.8037 380.144 78.7584 380.144C77.9264 380.144 77.1797 379.957 76.5184 379.584C75.8677 379.211 75.3557 378.683 74.9824 378C74.609 377.307 74.4224 376.507 74.4224 375.6C74.4224 374.693 74.6037 373.899 74.9664 373.216C75.329 372.533 75.8357 372.011 76.4864 371.648C77.1477 371.275 77.905 371.088 78.7584 371.088C79.5904 371.088 80.3264 371.269 80.9664 371.632C81.6064 371.995 82.097 372.496 82.4384 373.136C82.7904 373.765 82.9664 374.48 82.9664 375.28ZM81.4624 374.976C81.4624 374.421 81.3397 373.947 81.0944 373.552C80.849 373.147 80.513 372.843 80.0864 372.64C79.6704 372.427 79.2064 372.32 78.6944 372.32C77.9584 372.32 77.329 372.555 76.8064 373.024C76.2944 373.493 76.001 374.144 75.9264 374.976H81.4624ZM89.2403 371.072C89.9016 371.072 90.4989 371.216 91.0323 371.504C91.5656 371.781 91.9816 372.203 92.2803 372.768C92.5896 373.333 92.7443 374.021 92.7443 374.832V380H91.3043V375.04C91.3043 374.165 91.0856 373.499 90.6483 373.04C90.2109 372.571 89.6136 372.336 88.8563 372.336C88.0883 372.336 87.4749 372.576 87.0163 373.056C86.5683 373.536 86.3443 374.235 86.3443 375.152V380H84.8883V368.16H86.3443V372.48C86.6323 372.032 87.0269 371.685 87.5283 371.44C88.0403 371.195 88.6109 371.072 89.2403 371.072ZM98.9466 380.144C98.1253 380.144 97.3786 379.957 96.7066 379.584C96.0453 379.211 95.5226 378.683 95.1386 378C94.7653 377.307 94.5786 376.507 94.5786 375.6C94.5786 374.704 94.7706 373.915 95.1546 373.232C95.5493 372.539 96.0826 372.011 96.7546 371.648C97.4266 371.275 98.1786 371.088 99.0106 371.088C99.8426 371.088 100.595 371.275 101.267 371.648C101.939 372.011 102.467 372.533 102.851 373.216C103.245 373.899 103.443 374.693 103.443 375.6C103.443 376.507 103.24 377.307 102.835 378C102.44 378.683 101.901 379.211 101.219 379.584C100.536 379.957 99.7786 380.144 98.9466 380.144ZM98.9466 378.864C99.4693 378.864 99.96 378.741 100.419 378.496C100.877 378.251 101.245 377.883 101.523 377.392C101.811 376.901 101.955 376.304 101.955 375.6C101.955 374.896 101.816 374.299 101.539 373.808C101.261 373.317 100.899 372.955 100.451 372.72C100.003 372.475 99.5173 372.352 98.9946 372.352C98.4613 372.352 97.9706 372.475 97.5226 372.72C97.0853 372.955 96.7333 373.317 96.4666 373.808C96.2 374.299 96.0666 374.896 96.0666 375.6C96.0666 376.315 96.1946 376.917 96.4506 377.408C96.7173 377.899 97.0693 378.267 97.5066 378.512C97.944 378.747 98.424 378.864 98.9466 378.864ZM106.813 368.16V380H105.357V368.16H106.813ZM108.751 375.584C108.751 374.688 108.932 373.904 109.295 373.232C109.657 372.549 110.153 372.021 110.783 371.648C111.423 371.275 112.137 371.088 112.927 371.088C113.609 371.088 114.244 371.248 114.831 371.568C115.417 371.877 115.865 372.288 116.175 372.8V368.16H117.647V380H116.175V378.352C115.887 378.875 115.46 379.307 114.895 379.648C114.329 379.979 113.668 380.144 112.911 380.144C112.132 380.144 111.423 379.952 110.783 379.568C110.153 379.184 109.657 378.645 109.295 377.952C108.932 377.259 108.751 376.469 108.751 375.584ZM116.175 375.6C116.175 374.939 116.041 374.363 115.775 373.872C115.508 373.381 115.145 373.008 114.687 372.752C114.239 372.485 113.743 372.352 113.199 372.352C112.655 372.352 112.159 372.48 111.711 372.736C111.263 372.992 110.905 373.365 110.639 373.856C110.372 374.347 110.239 374.923 110.239 375.584C110.239 376.256 110.372 376.843 110.639 377.344C110.905 377.835 111.263 378.213 111.711 378.48C112.159 378.736 112.655 378.864 113.199 378.864C113.743 378.864 114.239 378.736 114.687 378.48C115.145 378.213 115.508 377.835 115.775 377.344C116.041 376.843 116.175 376.261 116.175 375.6ZM128.107 375.28C128.107 375.557 128.091 375.851 128.059 376.16H121.051C121.104 377.024 121.398 377.701 121.931 378.192C122.475 378.672 123.131 378.912 123.899 378.912C124.528 378.912 125.051 378.768 125.467 378.48C125.894 378.181 126.192 377.787 126.363 377.296H127.931C127.696 378.139 127.227 378.827 126.523 379.36C125.819 379.883 124.944 380.144 123.899 380.144C123.067 380.144 122.32 379.957 121.659 379.584C121.008 379.211 120.496 378.683 120.123 378C119.75 377.307 119.563 376.507 119.563 375.6C119.563 374.693 119.744 373.899 120.107 373.216C120.47 372.533 120.976 372.011 121.627 371.648C122.288 371.275 123.046 371.088 123.899 371.088C124.731 371.088 125.467 371.269 126.107 371.632C126.747 371.995 127.238 372.496 127.579 373.136C127.931 373.765 128.107 374.48 128.107 375.28ZM126.603 374.976C126.603 374.421 126.48 373.947 126.235 373.552C125.99 373.147 125.654 372.843 125.227 372.64C124.811 372.427 124.347 372.32 123.835 372.32C123.099 372.32 122.47 372.555 121.947 373.024C121.435 373.493 121.142 374.144 121.067 374.976H126.603ZM131.485 372.656C131.741 372.155 132.104 371.765 132.573 371.488C133.053 371.211 133.634 371.072 134.317 371.072V372.576H133.933C132.301 372.576 131.485 373.461 131.485 375.232V380H130.029V371.232H131.485V372.656ZM147.127 368.848V370.032H144.087V380H142.631V370.032H139.575V368.848H147.127ZM156.92 375.28C156.92 375.557 156.904 375.851 156.872 376.16H149.864C149.917 377.024 150.21 377.701 150.744 378.192C151.288 378.672 151.944 378.912 152.712 378.912C153.341 378.912 153.864 378.768 154.28 378.48C154.706 378.181 155.005 377.787 155.176 377.296H156.744C156.509 378.139 156.04 378.827 155.336 379.36C154.632 379.883 153.757 380.144 152.712 380.144C151.88 380.144 151.133 379.957 150.472 379.584C149.821 379.211 149.309 378.683 148.936 378C148.562 377.307 148.376 376.507 148.376 375.6C148.376 374.693 148.557 373.899 148.92 373.216C149.282 372.533 149.789 372.011 150.44 371.648C151.101 371.275 151.858 371.088 152.712 371.088C153.544 371.088 154.28 371.269 154.92 371.632C155.56 371.995 156.05 372.496 156.392 373.136C156.744 373.765 156.92 374.48 156.92 375.28ZM155.416 374.976C155.416 374.421 155.293 373.947 155.048 373.552C154.802 373.147 154.466 372.843 154.04 372.64C153.624 372.427 153.16 372.32 152.648 372.32C151.912 372.32 151.282 372.555 150.76 373.024C150.248 373.493 149.954 374.144 149.88 374.976H155.416ZM163.417 380L161.337 376.736L159.337 380H157.817L160.649 375.648L157.817 371.232H159.465L161.545 374.48L163.529 371.232H165.049L162.233 375.568L165.065 380H163.417ZM168.274 372.432V377.6C168.274 378.027 168.364 378.331 168.546 378.512C168.727 378.683 169.042 378.768 169.49 378.768H170.562V380H169.25C168.439 380 167.831 379.813 167.426 379.44C167.02 379.067 166.818 378.453 166.818 377.6V372.432H165.682V371.232H166.818V369.024H168.274V371.232H170.562V372.432H168.274Z" fill="#A4A4A4"/>
</g>
<path d="M36.384 428.88V430.368H33.424V440H31.6V430.368H28.624V428.88H36.384ZM46.3113 435.376C46.3113 435.707 46.2899 436.005 46.2473 436.272H39.5113C39.5646 436.976 39.8259 437.541 40.2953 437.968C40.7646 438.395 41.3406 438.608 42.0233 438.608C43.0046 438.608 43.6979 438.197 44.1033 437.376H46.0712C45.8046 438.187 45.3193 438.853 44.6153 439.376C43.9219 439.888 43.0579 440.144 42.0233 440.144C41.1806 440.144 40.4233 439.957 39.7513 439.584C39.0899 439.2 38.5673 438.667 38.1833 437.984C37.8099 437.291 37.6233 436.491 37.6233 435.584C37.6233 434.677 37.8046 433.883 38.1673 433.2C38.5406 432.507 39.0579 431.973 39.7193 431.6C40.3913 431.227 41.1593 431.04 42.0233 431.04C42.8553 431.04 43.5966 431.221 44.2473 431.584C44.8979 431.947 45.4046 432.459 45.7673 433.12C46.1299 433.771 46.3113 434.523 46.3113 435.376ZM44.4073 434.8C44.3966 434.128 44.1566 433.589 43.6873 433.184C43.2179 432.779 42.6366 432.576 41.9433 432.576C41.3139 432.576 40.7753 432.779 40.3273 433.184C39.8793 433.579 39.6126 434.117 39.5273 434.8H44.4073ZM51.8823 435.536L54.7303 440H52.6663L50.7623 437.008L48.9703 440H47.0663L49.9143 435.664L47.0663 431.184H49.1303L51.0343 434.176L52.8263 431.184H54.7303L51.8823 435.536ZM58.2186 432.672V437.552C58.2186 437.883 58.2933 438.123 58.4426 438.272C58.6026 438.411 58.8693 438.48 59.2426 438.48H60.3626V440H58.9226C58.1013 440 57.472 439.808 57.0346 439.424C56.5973 439.04 56.3786 438.416 56.3786 437.552V432.672H55.3386V431.184H56.3786V428.992H58.2186V431.184H60.3626V432.672H58.2186Z" fill="#3A3A3A"/>
<path d="M67.272 429.136L67.992 430.416L65.8 431.232L67.992 432.048L67.256 433.36L65.432 431.92L65.768 434.24H64.296L64.6 431.92L62.776 433.392L62.008 432.032L64.184 431.216L62.008 430.432L62.744 429.12L64.616 430.56L64.296 428.224H65.784L65.432 430.56L67.272 429.136Z" fill="#DC3545"/>
<g filter="url(#filter3_d_499_5525)">
<rect x="28" y="454" width="296" height="48" rx="8" fill="white" shape-rendering="crispEdges"/>
<rect x="28.5" y="454.5" width="295" height="47" rx="7.5" stroke="#7B7B7B" shape-rendering="crispEdges"/>
<path d="M48.688 476.112C48.688 477.04 48.368 477.813 47.728 478.432C47.0987 479.04 46.1333 479.344 44.832 479.344H42.688V484H41.232V472.848H44.832C46.0907 472.848 47.0453 473.152 47.696 473.76C48.3573 474.368 48.688 475.152 48.688 476.112ZM44.832 478.144C45.6427 478.144 46.24 477.968 46.624 477.616C47.008 477.264 47.2 476.763 47.2 476.112C47.2 474.736 46.4107 474.048 44.832 474.048H42.688V478.144H44.832ZM51.9536 472.16V484H50.4976V472.16H51.9536ZM53.8911 479.584C53.8911 478.688 54.0725 477.904 54.4351 477.232C54.7978 476.549 55.2938 476.021 55.9231 475.648C56.5631 475.275 57.2725 475.088 58.0511 475.088C58.8191 475.088 59.4858 475.253 60.0511 475.584C60.6165 475.915 61.0378 476.331 61.3151 476.832V475.232H62.7871V484H61.3151V482.368C61.0271 482.88 60.5951 483.307 60.0191 483.648C59.4538 483.979 58.7925 484.144 58.0351 484.144C57.2565 484.144 56.5525 483.952 55.9231 483.568C55.2938 483.184 54.7978 482.645 54.4351 481.952C54.0725 481.259 53.8911 480.469 53.8911 479.584ZM61.3151 479.6C61.3151 478.939 61.1818 478.363 60.9151 477.872C60.6485 477.381 60.2858 477.008 59.8271 476.752C59.3791 476.485 58.8831 476.352 58.3391 476.352C57.7951 476.352 57.2991 476.48 56.8511 476.736C56.4031 476.992 56.0458 477.365 55.7791 477.856C55.5125 478.347 55.3791 478.923 55.3791 479.584C55.3791 480.256 55.5125 480.843 55.7791 481.344C56.0458 481.835 56.4031 482.213 56.8511 482.48C57.2991 482.736 57.7951 482.864 58.3391 482.864C58.8831 482.864 59.3791 482.736 59.8271 482.48C60.2858 482.213 60.6485 481.835 60.9151 481.344C61.1818 480.843 61.3151 480.261 61.3151 479.6ZM64.7036 479.6C64.7036 478.693 64.885 477.904 65.2476 477.232C65.6103 476.549 66.1116 476.021 66.7516 475.648C67.4023 475.275 68.1436 475.088 68.9756 475.088C70.053 475.088 70.9383 475.349 71.6316 475.872C72.3356 476.395 72.7996 477.12 73.0236 478.048H71.4556C71.3063 477.515 71.013 477.093 70.5756 476.784C70.149 476.475 69.6156 476.32 68.9756 476.32C68.1436 476.32 67.4716 476.608 66.9596 477.184C66.4476 477.749 66.1916 478.555 66.1916 479.6C66.1916 480.656 66.4476 481.472 66.9596 482.048C67.4716 482.624 68.1436 482.912 68.9756 482.912C69.6156 482.912 70.149 482.763 70.5756 482.464C71.0023 482.165 71.2956 481.739 71.4556 481.184H73.0236C72.789 482.08 72.3196 482.8 71.6156 483.344C70.9116 483.877 70.0316 484.144 68.9756 484.144C68.1436 484.144 67.4023 483.957 66.7516 483.584C66.1116 483.211 65.6103 482.683 65.2476 482C64.885 481.317 64.7036 480.517 64.7036 479.6ZM82.9664 479.28C82.9664 479.557 82.9504 479.851 82.9184 480.16H75.9104C75.9637 481.024 76.257 481.701 76.7904 482.192C77.3344 482.672 77.9904 482.912 78.7584 482.912C79.3877 482.912 79.9104 482.768 80.3264 482.48C80.753 482.181 81.0517 481.787 81.2224 481.296H82.7904C82.5557 482.139 82.0864 482.827 81.3824 483.36C80.6784 483.883 79.8037 484.144 78.7584 484.144C77.9264 484.144 77.1797 483.957 76.5184 483.584C75.8677 483.211 75.3557 482.683 74.9824 482C74.609 481.307 74.4224 480.507 74.4224 479.6C74.4224 478.693 74.6037 477.899 74.9664 477.216C75.329 476.533 75.8357 476.011 76.4864 475.648C77.1477 475.275 77.905 475.088 78.7584 475.088C79.5904 475.088 80.3264 475.269 80.9664 475.632C81.6064 475.995 82.097 476.496 82.4384 477.136C82.7904 477.765 82.9664 478.48 82.9664 479.28ZM81.4624 478.976C81.4624 478.421 81.3397 477.947 81.0944 477.552C80.849 477.147 80.513 476.843 80.0864 476.64C79.6704 476.427 79.2064 476.32 78.6944 476.32C77.9584 476.32 77.329 476.555 76.8064 477.024C76.2944 477.493 76.001 478.144 75.9264 478.976H81.4624ZM89.2403 475.072C89.9016 475.072 90.4989 475.216 91.0323 475.504C91.5656 475.781 91.9816 476.203 92.2803 476.768C92.5896 477.333 92.7443 478.021 92.7443 478.832V484H91.3043V479.04C91.3043 478.165 91.0856 477.499 90.6483 477.04C90.2109 476.571 89.6136 476.336 88.8563 476.336C88.0883 476.336 87.4749 476.576 87.0163 477.056C86.5683 477.536 86.3443 478.235 86.3443 479.152V484H84.8883V472.16H86.3443V476.48C86.6323 476.032 87.0269 475.685 87.5283 475.44C88.0403 475.195 88.6109 475.072 89.2403 475.072ZM98.9466 484.144C98.1253 484.144 97.3786 483.957 96.7066 483.584C96.0453 483.211 95.5226 482.683 95.1386 482C94.7653 481.307 94.5786 480.507 94.5786 479.6C94.5786 478.704 94.7706 477.915 95.1546 477.232C95.5493 476.539 96.0826 476.011 96.7546 475.648C97.4266 475.275 98.1786 475.088 99.0106 475.088C99.8426 475.088 100.595 475.275 101.267 475.648C101.939 476.011 102.467 476.533 102.851 477.216C103.245 477.899 103.443 478.693 103.443 479.6C103.443 480.507 103.24 481.307 102.835 482C102.44 482.683 101.901 483.211 101.219 483.584C100.536 483.957 99.7786 484.144 98.9466 484.144ZM98.9466 482.864C99.4693 482.864 99.96 482.741 100.419 482.496C100.877 482.251 101.245 481.883 101.523 481.392C101.811 480.901 101.955 480.304 101.955 479.6C101.955 478.896 101.816 478.299 101.539 477.808C101.261 477.317 100.899 476.955 100.451 476.72C100.003 476.475 99.5173 476.352 98.9946 476.352C98.4613 476.352 97.9706 476.475 97.5226 476.72C97.0853 476.955 96.7333 477.317 96.4666 477.808C96.2 478.299 96.0666 478.896 96.0666 479.6C96.0666 480.315 96.1946 480.917 96.4506 481.408C96.7173 481.899 97.0693 482.267 97.5066 482.512C97.944 482.747 98.424 482.864 98.9466 482.864ZM106.813 472.16V484H105.357V472.16H106.813ZM108.751 479.584C108.751 478.688 108.932 477.904 109.295 477.232C109.657 476.549 110.153 476.021 110.783 475.648C111.423 475.275 112.137 475.088 112.927 475.088C113.609 475.088 114.244 475.248 114.831 475.568C115.417 475.877 115.865 476.288 116.175 476.8V472.16H117.647V484H116.175V482.352C115.887 482.875 115.46 483.307 114.895 483.648C114.329 483.979 113.668 484.144 112.911 484.144C112.132 484.144 111.423 483.952 110.783 483.568C110.153 483.184 109.657 482.645 109.295 481.952C108.932 481.259 108.751 480.469 108.751 479.584ZM116.175 479.6C116.175 478.939 116.041 478.363 115.775 477.872C115.508 477.381 115.145 477.008 114.687 476.752C114.239 476.485 113.743 476.352 113.199 476.352C112.655 476.352 112.159 476.48 111.711 476.736C111.263 476.992 110.905 477.365 110.639 477.856C110.372 478.347 110.239 478.923 110.239 479.584C110.239 480.256 110.372 480.843 110.639 481.344C110.905 481.835 111.263 482.213 111.711 482.48C112.159 482.736 112.655 482.864 113.199 482.864C113.743 482.864 114.239 482.736 114.687 482.48C115.145 482.213 115.508 481.835 115.775 481.344C116.041 480.843 116.175 480.261 116.175 479.6ZM128.107 479.28C128.107 479.557 128.091 479.851 128.059 480.16H121.051C121.104 481.024 121.398 481.701 121.931 482.192C122.475 482.672 123.131 482.912 123.899 482.912C124.528 482.912 125.051 482.768 125.467 482.48C125.894 482.181 126.192 481.787 126.363 481.296H127.931C127.696 482.139 127.227 482.827 126.523 483.36C125.819 483.883 124.944 484.144 123.899 484.144C123.067 484.144 122.32 483.957 121.659 483.584C121.008 483.211 120.496 482.683 120.123 482C119.75 481.307 119.563 480.507 119.563 479.6C119.563 478.693 119.744 477.899 120.107 477.216C120.47 476.533 120.976 476.011 121.627 475.648C122.288 475.275 123.046 475.088 123.899 475.088C124.731 475.088 125.467 475.269 126.107 475.632C126.747 475.995 127.238 476.496 127.579 477.136C127.931 477.765 128.107 478.48 128.107 479.28ZM126.603 478.976C126.603 478.421 126.48 477.947 126.235 477.552C125.99 477.147 125.654 476.843 125.227 476.64C124.811 476.427 124.347 476.32 123.835 476.32C123.099 476.32 122.47 476.555 121.947 477.024C121.435 477.493 121.142 478.144 121.067 478.976H126.603ZM131.485 476.656C131.741 476.155 132.104 475.765 132.573 475.488C133.053 475.211 133.634 475.072 134.317 475.072V476.576H133.933C132.301 476.576 131.485 477.461 131.485 479.232V484H130.029V475.232H131.485V476.656ZM147.127 472.848V474.032H144.087V484H142.631V474.032H139.575V472.848H147.127ZM156.92 479.28C156.92 479.557 156.904 479.851 156.872 480.16H149.864C149.917 481.024 150.21 481.701 150.744 482.192C151.288 482.672 151.944 482.912 152.712 482.912C153.341 482.912 153.864 482.768 154.28 482.48C154.706 482.181 155.005 481.787 155.176 481.296H156.744C156.509 482.139 156.04 482.827 155.336 483.36C154.632 483.883 153.757 484.144 152.712 484.144C151.88 484.144 151.133 483.957 150.472 483.584C149.821 483.211 149.309 482.683 148.936 482C148.562 481.307 148.376 480.507 148.376 479.6C148.376 478.693 148.557 477.899 148.92 477.216C149.282 476.533 149.789 476.011 150.44 475.648C151.101 475.275 151.858 475.088 152.712 475.088C153.544 475.088 154.28 475.269 154.92 475.632C155.56 475.995 156.05 476.496 156.392 477.136C156.744 477.765 156.92 478.48 156.92 479.28ZM155.416 478.976C155.416 478.421 155.293 477.947 155.048 477.552C154.802 477.147 154.466 476.843 154.04 476.64C153.624 476.427 153.16 476.32 152.648 476.32C151.912 476.32 151.282 476.555 150.76 477.024C150.248 477.493 149.954 478.144 149.88 478.976H155.416ZM163.417 484L161.337 480.736L159.337 484H157.817L160.649 479.648L157.817 475.232H159.465L161.545 478.48L163.529 475.232H165.049L162.233 479.568L165.065 484H163.417ZM168.274 476.432V481.6C168.274 482.027 168.364 482.331 168.546 482.512C168.727 482.683 169.042 482.768 169.49 482.768H170.562V484H169.25C168.439 484 167.831 483.813 167.426 483.44C167.02 483.067 166.818 482.453 166.818 481.6V476.432H165.682V475.232H166.818V473.024H168.274V475.232H170.562V476.432H168.274Z" fill="#A4A4A4"/>
</g>
<mask id="path-25-inside-1_499_5525" fill="white">
<path d="M37 546C37 541.582 40.5817 538 45 538H136C140.418 538 144 541.582 144 546V574C144 578.418 140.418 582 136 582H45C40.5817 582 37 578.418 37 574V546Z"/>
</mask>
<path d="M45 539H136V537H45V539ZM143 546V574H145V546H143ZM136 581H45V583H136V581ZM38 574V546H36V574H38ZM45 581C41.134 581 38 577.866 38 574H36C36 578.971 40.0294 583 45 583V581ZM143 574C143 577.866 139.866 581 136 581V583C140.971 583 145 578.971 145 574H143ZM136 539C139.866 539 143 542.134 143 546H145C145 541.029 140.971 537 136 537V539ZM45 537C40.0294 537 36 541.029 36 546H38C38 542.134 41.134 539 45 539V537Z" fill="#01042E" mask="url(#path-25-inside-1_499_5525)"/>
<path d="M65.9506 560.114C65.9506 559.162 66.17 558.308 66.6086 557.552C67.0566 556.796 67.6586 556.208 68.4146 555.788C69.18 555.359 70.0153 555.144 70.9206 555.144C71.9566 555.144 72.876 555.401 73.6786 555.914C74.4906 556.418 75.0786 557.137 75.4426 558.07H73.5246C73.2726 557.557 72.9226 557.174 72.4746 556.922C72.0266 556.67 71.5086 556.544 70.9206 556.544C70.2766 556.544 69.7026 556.689 69.1986 556.978C68.6946 557.267 68.298 557.683 68.0086 558.224C67.7286 558.765 67.5886 559.395 67.5886 560.114C67.5886 560.833 67.7286 561.463 68.0086 562.004C68.298 562.545 68.6946 562.965 69.1986 563.264C69.7026 563.553 70.2766 563.698 70.9206 563.698C71.5086 563.698 72.0266 563.572 72.4746 563.32C72.9226 563.068 73.2726 562.685 73.5246 562.172H75.4426C75.0786 563.105 74.4906 563.824 73.6786 564.328C72.876 564.832 71.9566 565.084 70.9206 565.084C70.006 565.084 69.1706 564.874 68.4146 564.454C67.6586 564.025 67.0566 563.432 66.6086 562.676C66.17 561.92 65.9506 561.066 65.9506 560.114ZM76.7787 561.108C76.7787 560.333 76.9374 559.647 77.2547 559.05C77.5814 558.453 78.0201 557.991 78.5707 557.664C79.1307 557.328 79.7467 557.16 80.4187 557.16C81.0254 557.16 81.5527 557.281 82.0007 557.524C82.4581 557.757 82.8221 558.051 83.0927 558.406V557.286H84.7027V565H83.0927V563.852C82.8221 564.216 82.4534 564.519 81.9867 564.762C81.5201 565.005 80.9881 565.126 80.3907 565.126C79.7281 565.126 79.1214 564.958 78.5707 564.622C78.0201 564.277 77.5814 563.801 77.2547 563.194C76.9374 562.578 76.7787 561.883 76.7787 561.108ZM83.0927 561.136C83.0927 560.604 82.9807 560.142 82.7567 559.75C82.5421 559.358 82.2574 559.059 81.9027 558.854C81.5481 558.649 81.1654 558.546 80.7547 558.546C80.3441 558.546 79.9614 558.649 79.6067 558.854C79.2521 559.05 78.9627 559.344 78.7387 559.736C78.5241 560.119 78.4167 560.576 78.4167 561.108C78.4167 561.64 78.5241 562.107 78.7387 562.508C78.9627 562.909 79.2521 563.217 79.6067 563.432C79.9707 563.637 80.3534 563.74 80.7547 563.74C81.1654 563.74 81.5481 563.637 81.9027 563.432C82.2574 563.227 82.5421 562.928 82.7567 562.536C82.9807 562.135 83.0927 561.668 83.0927 561.136ZM90.691 557.16C91.2977 557.16 91.839 557.286 92.315 557.538C92.8004 557.79 93.1784 558.163 93.449 558.658C93.7197 559.153 93.855 559.75 93.855 560.45V565H92.273V560.688C92.273 559.997 92.1004 559.47 91.755 559.106C91.4097 558.733 90.9384 558.546 90.341 558.546C89.7437 558.546 89.2677 558.733 88.913 559.106C88.5677 559.47 88.395 559.997 88.395 560.688V565H86.799V557.286H88.395V558.168C88.6564 557.851 88.9877 557.603 89.389 557.426C89.7997 557.249 90.2337 557.16 90.691 557.16ZM95.3588 561.136C95.3588 560.343 95.5175 559.647 95.8348 559.05C96.1615 558.443 96.6095 557.977 97.1788 557.65C97.7482 557.323 98.4015 557.16 99.1388 557.16C100.072 557.16 100.842 557.384 101.449 557.832C102.065 558.271 102.48 558.901 102.695 559.722H100.973C100.833 559.339 100.609 559.041 100.301 558.826C99.9928 558.611 99.6055 558.504 99.1388 558.504C98.4855 558.504 97.9628 558.737 97.5708 559.204C97.1882 559.661 96.9968 560.305 96.9968 561.136C96.9968 561.967 97.1882 562.615 97.5708 563.082C97.9628 563.549 98.4855 563.782 99.1388 563.782C100.063 563.782 100.674 563.376 100.973 562.564H102.695C102.471 563.348 102.051 563.973 101.435 564.44C100.819 564.897 100.053 565.126 99.1388 565.126C98.4015 565.126 97.7482 564.963 97.1788 564.636C96.6095 564.3 96.1615 563.833 95.8348 563.236C95.5175 562.629 95.3588 561.929 95.3588 561.136ZM111.355 560.954C111.355 561.243 111.337 561.505 111.299 561.738H105.405C105.452 562.354 105.681 562.849 106.091 563.222C106.502 563.595 107.006 563.782 107.603 563.782C108.462 563.782 109.069 563.423 109.423 562.704H111.145C110.912 563.413 110.487 563.997 109.871 564.454C109.265 564.902 108.509 565.126 107.603 565.126C106.866 565.126 106.203 564.963 105.615 564.636C105.037 564.3 104.579 563.833 104.243 563.236C103.917 562.629 103.753 561.929 103.753 561.136C103.753 560.343 103.912 559.647 104.229 559.05C104.556 558.443 105.009 557.977 105.587 557.65C106.175 557.323 106.847 557.16 107.603 557.16C108.331 557.16 108.98 557.319 109.549 557.636C110.119 557.953 110.562 558.401 110.879 558.98C111.197 559.549 111.355 560.207 111.355 560.954ZM109.689 560.45C109.68 559.862 109.47 559.391 109.059 559.036C108.649 558.681 108.14 558.504 107.533 558.504C106.983 558.504 106.511 558.681 106.119 559.036C105.727 559.381 105.494 559.853 105.419 560.45H109.689ZM114.522 554.64V565H112.926V554.64H114.522Z" fill="#01042E"/>
<path d="M160 546C160 541.582 163.582 538 168 538H307C311.418 538 315 541.582 315 546V574C315 578.418 311.418 582 307 582H168C163.582 582 160 578.418 160 574V546Z" fill="#01042E"/>
<path d="M195.177 563.012H191.103L190.403 565H188.737L192.223 555.256H194.071L197.557 565H195.877L195.177 563.012ZM194.729 561.71L193.147 557.188L191.551 561.71H194.729ZM198.54 561.108C198.54 560.333 198.699 559.647 199.016 559.05C199.343 558.453 199.782 557.991 200.332 557.664C200.892 557.328 201.513 557.16 202.194 557.16C202.698 557.16 203.193 557.272 203.678 557.496C204.173 557.711 204.565 558 204.854 558.364V554.64H206.464V565H204.854V563.838C204.593 564.211 204.229 564.519 203.762 564.762C203.305 565.005 202.778 565.126 202.18 565.126C201.508 565.126 200.892 564.958 200.332 564.622C199.782 564.277 199.343 563.801 199.016 563.194C198.699 562.578 198.54 561.883 198.54 561.108ZM204.854 561.136C204.854 560.604 204.742 560.142 204.518 559.75C204.304 559.358 204.019 559.059 203.664 558.854C203.31 558.649 202.927 558.546 202.516 558.546C202.106 558.546 201.723 558.649 201.368 558.854C201.014 559.05 200.724 559.344 200.5 559.736C200.286 560.119 200.178 560.576 200.178 561.108C200.178 561.64 200.286 562.107 200.5 562.508C200.724 562.909 201.014 563.217 201.368 563.432C201.732 563.637 202.115 563.74 202.516 563.74C202.927 563.74 203.31 563.637 203.664 563.432C204.019 563.227 204.304 562.928 204.518 562.536C204.742 562.135 204.854 561.668 204.854 561.136ZM208.029 561.108C208.029 560.333 208.187 559.647 208.505 559.05C208.831 558.453 209.27 557.991 209.821 557.664C210.381 557.328 211.001 557.16 211.683 557.16C212.187 557.16 212.681 557.272 213.167 557.496C213.661 557.711 214.053 558 214.343 558.364V554.64H215.953V565H214.343V563.838C214.081 564.211 213.717 564.519 213.251 564.762C212.793 565.005 212.266 565.126 211.669 565.126C210.997 565.126 210.381 564.958 209.821 564.622C209.27 564.277 208.831 563.801 208.505 563.194C208.187 562.578 208.029 561.883 208.029 561.108ZM214.343 561.136C214.343 560.604 214.231 560.142 214.007 559.75C213.792 559.358 213.507 559.059 213.153 558.854C212.798 558.649 212.415 558.546 212.005 558.546C211.594 558.546 211.211 558.649 210.857 558.854C210.502 559.05 210.213 559.344 209.989 559.736C209.774 560.119 209.667 560.576 209.667 561.108C209.667 561.64 209.774 562.107 209.989 562.508C210.213 562.909 210.502 563.217 210.857 563.432C211.221 563.637 211.603 563.74 212.005 563.74C212.415 563.74 212.798 563.637 213.153 563.432C213.507 563.227 213.792 562.928 214.007 562.536C214.231 562.135 214.343 561.668 214.343 561.136ZM221.154 560.114C221.154 559.162 221.373 558.308 221.812 557.552C222.26 556.796 222.862 556.208 223.618 555.788C224.383 555.359 225.218 555.144 226.124 555.144C227.16 555.144 228.079 555.401 228.882 555.914C229.694 556.418 230.282 557.137 230.646 558.07H228.728C228.476 557.557 228.126 557.174 227.678 556.922C227.23 556.67 226.712 556.544 226.124 556.544C225.48 556.544 224.906 556.689 224.402 556.978C223.898 557.267 223.501 557.683 223.212 558.224C222.932 558.765 222.792 559.395 222.792 560.114C222.792 560.833 222.932 561.463 223.212 562.004C223.501 562.545 223.898 562.965 224.402 563.264C224.906 563.553 225.48 563.698 226.124 563.698C226.712 563.698 227.23 563.572 227.678 563.32C228.126 563.068 228.476 562.685 228.728 562.172H230.646C230.282 563.105 229.694 563.824 228.882 564.328C228.079 564.832 227.16 565.084 226.124 565.084C225.209 565.084 224.374 564.874 223.618 564.454C222.862 564.025 222.26 563.432 221.812 562.676C221.373 561.92 221.154 561.066 221.154 560.114ZM231.982 561.108C231.982 560.333 232.141 559.647 232.458 559.05C232.785 558.453 233.223 557.991 233.774 557.664C234.334 557.328 234.95 557.16 235.622 557.16C236.229 557.16 236.756 557.281 237.204 557.524C237.661 557.757 238.025 558.051 238.296 558.406V557.286H239.906V565H238.296V563.852C238.025 564.216 237.657 564.519 237.19 564.762C236.723 565.005 236.191 565.126 235.594 565.126C234.931 565.126 234.325 564.958 233.774 564.622C233.223 564.277 232.785 563.801 232.458 563.194C232.141 562.578 231.982 561.883 231.982 561.108ZM238.296 561.136C238.296 560.604 238.184 560.142 237.96 559.75C237.745 559.358 237.461 559.059 237.106 558.854C236.751 558.649 236.369 558.546 235.958 558.546C235.547 558.546 235.165 558.649 234.81 558.854C234.455 559.05 234.166 559.344 233.942 559.736C233.727 560.119 233.62 560.576 233.62 561.108C233.62 561.64 233.727 562.107 233.942 562.508C234.166 562.909 234.455 563.217 234.81 563.432C235.174 563.637 235.557 563.74 235.958 563.74C236.369 563.74 236.751 563.637 237.106 563.432C237.461 563.227 237.745 562.928 237.96 562.536C238.184 562.135 238.296 561.668 238.296 561.136ZM243.864 558.588V562.858C243.864 563.147 243.929 563.357 244.06 563.488C244.2 563.609 244.433 563.67 244.76 563.67H245.74V565H244.48C243.761 565 243.211 564.832 242.828 564.496C242.445 564.16 242.254 563.614 242.254 562.858V558.588H241.344V557.286H242.254V555.368H243.864V557.286H245.74V558.588H243.864ZM254.281 560.954C254.281 561.243 254.262 561.505 254.225 561.738H248.331C248.378 562.354 248.606 562.849 249.017 563.222C249.428 563.595 249.932 563.782 250.529 563.782C251.388 563.782 251.994 563.423 252.349 562.704H254.071C253.838 563.413 253.413 563.997 252.797 564.454C252.19 564.902 251.434 565.126 250.529 565.126C249.792 565.126 249.129 564.963 248.541 564.636C247.962 564.3 247.505 563.833 247.169 563.236C246.842 562.629 246.679 561.929 246.679 561.136C246.679 560.343 246.838 559.647 247.155 559.05C247.482 558.443 247.934 557.977 248.513 557.65C249.101 557.323 249.773 557.16 250.529 557.16C251.257 557.16 251.906 557.319 252.475 557.636C253.044 557.953 253.488 558.401 253.805 558.98C254.122 559.549 254.281 560.207 254.281 560.954ZM252.615 560.45C252.606 559.862 252.396 559.391 251.985 559.036C251.574 558.681 251.066 558.504 250.459 558.504C249.908 558.504 249.437 558.681 249.045 559.036C248.653 559.381 248.42 559.853 248.345 560.45H252.615ZM258.96 557.16C259.557 557.16 260.084 557.281 260.542 557.524C261.008 557.757 261.372 558.051 261.634 558.406V557.286H263.244V565.126C263.244 565.835 263.094 566.465 262.796 567.016C262.497 567.576 262.063 568.015 261.494 568.332C260.934 568.649 260.262 568.808 259.478 568.808C258.432 568.808 257.564 568.561 256.874 568.066C256.183 567.581 255.791 566.918 255.698 566.078H257.28C257.401 566.479 257.658 566.801 258.05 567.044C258.451 567.296 258.927 567.422 259.478 567.422C260.122 567.422 260.64 567.226 261.032 566.834C261.433 566.442 261.634 565.873 261.634 565.126V563.838C261.363 564.202 260.994 564.51 260.528 564.762C260.07 565.005 259.548 565.126 258.96 565.126C258.288 565.126 257.672 564.958 257.112 564.622C256.561 564.277 256.122 563.801 255.796 563.194C255.478 562.578 255.32 561.883 255.32 561.108C255.32 560.333 255.478 559.647 255.796 559.05C256.122 558.453 256.561 557.991 257.112 557.664C257.672 557.328 258.288 557.16 258.96 557.16ZM261.634 561.136C261.634 560.604 261.522 560.142 261.298 559.75C261.083 559.358 260.798 559.059 260.444 558.854C260.089 558.649 259.706 558.546 259.296 558.546C258.885 558.546 258.502 558.649 258.148 558.854C257.793 559.05 257.504 559.344 257.28 559.736C257.065 560.119 256.958 560.576 256.958 561.108C256.958 561.64 257.065 562.107 257.28 562.508C257.504 562.909 257.793 563.217 258.148 563.432C258.512 563.637 258.894 563.74 259.296 563.74C259.706 563.74 260.089 563.637 260.444 563.432C260.798 563.227 261.083 562.928 261.298 562.536C261.522 562.135 261.634 561.668 261.634 561.136ZM268.686 565.126C267.958 565.126 267.3 564.963 266.712 564.636C266.124 564.3 265.662 563.833 265.326 563.236C264.99 562.629 264.822 561.929 264.822 561.136C264.822 560.352 264.995 559.657 265.34 559.05C265.685 558.443 266.157 557.977 266.754 557.65C267.351 557.323 268.019 557.16 268.756 557.16C269.493 557.16 270.161 557.323 270.758 557.65C271.355 557.977 271.827 558.443 272.172 559.05C272.517 559.657 272.69 560.352 272.69 561.136C272.69 561.92 272.513 562.615 272.158 563.222C271.803 563.829 271.318 564.3 270.702 564.636C270.095 564.963 269.423 565.126 268.686 565.126ZM268.686 563.74C269.097 563.74 269.479 563.642 269.834 563.446C270.198 563.25 270.492 562.956 270.716 562.564C270.94 562.172 271.052 561.696 271.052 561.136C271.052 560.576 270.945 560.105 270.73 559.722C270.515 559.33 270.231 559.036 269.876 558.84C269.521 558.644 269.139 558.546 268.728 558.546C268.317 558.546 267.935 558.644 267.58 558.84C267.235 559.036 266.959 559.33 266.754 559.722C266.549 560.105 266.446 560.576 266.446 561.136C266.446 561.967 266.656 562.611 267.076 563.068C267.505 563.516 268.042 563.74 268.686 563.74ZM275.864 558.406C276.097 558.014 276.405 557.711 276.788 557.496C277.18 557.272 277.642 557.16 278.174 557.16V558.812H277.768C277.142 558.812 276.666 558.971 276.34 559.288C276.022 559.605 275.864 560.156 275.864 560.94V565H274.268V557.286H275.864V558.406ZM286.585 557.286L281.853 568.626H280.201L281.769 564.874L278.731 557.286H280.509L282.679 563.166L284.933 557.286H286.585Z" fill="white"/>
<defs>
<filter id="filter0_d_499_5525" x="24" y="139" width="304" height="56" filterUnits="userSpaceOnUse" color-interpolation-filters="sRGB">
<feFlood flood-opacity="0" result="BackgroundImageFix"/>
<feColorMatrix in="SourceAlpha" type="matrix" values="0 0 0 0 0 0 0 0 0 0 0 0 0 0 0 0 0 0 127 0" result="hardAlpha"/>
<feOffset dy="1"/>
<feGaussianBlur stdDeviation="2"/>
<feComposite in2="hardAlpha" operator="out"/>
<feColorMatrix type="matrix" values="0 0 0 0 0 0 0 0 0 0 0 0 0 0 0 0 0 0 0.15 0"/>
<feBlend mode="normal" in2="BackgroundImageFix" result="effect1_dropShadow_499_5525"/>
<feBlend mode="normal" in="SourceGraphic" in2="effect1_dropShadow_499_5525" result="shape"/>
</filter>
<filter id="filter1_d_499_5525" x="24" y="243" width="304" height="56" filterUnits="userSpaceOnUse" color-interpolation-filters="sRGB">
<feFlood flood-opacity="0" result="BackgroundImageFix"/>
<feColorMatrix in="SourceAlpha" type="matrix" values="0 0 0 0 0 0 0 0 0 0 0 0 0 0 0 0 0 0 127 0" result="hardAlpha"/>
<feOffset dy="1"/>
<feGaussianBlur stdDeviation="2"/>
<feComposite in2="hardAlpha" operator="out"/>
<feColorMatrix type="matrix" values="0 0 0 0 0 0 0 0 0 0 0 0 0 0 0 0 0 0 0.15 0"/>
<feBlend mode="normal" in2="BackgroundImageFix" result="effect1_dropShadow_499_5525"/>
<feBlend mode="normal" in="SourceGraphic" in2="effect1_dropShadow_499_5525" result="shape"/>
</filter>
<filter id="filter2_d_499_5525" x="24" y="347" width="304" height="56" filterUnits="userSpaceOnUse" color-interpolation-filters="sRGB">
<feFlood flood-opacity="0" result="BackgroundImageFix"/>
<feColorMatrix in="SourceAlpha" type="matrix" values="0 0 0 0 0 0 0 0 0 0 0 0 0 0 0 0 0 0 127 0" result="hardAlpha"/>
<feOffset dy="1"/>
<feGaussianBlur stdDeviation="2"/>
<feComposite in2="hardAlpha" operator="out"/>
<feColorMatrix type="matrix" values="0 0 0 0 0 0 0 0 0 0 0 0 0 0 0 0 0 0 0.15 0"/>
<feBlend mode="normal" in2="BackgroundImageFix" result="effect1_dropShadow_499_5525"/>
<feBlend mode="normal" in="SourceGraphic" in2="effect1_dropShadow_499_5525" result="shape"/>
</filter>
<filter id="filter3_d_499_5525" x="24" y="451" width="304" height="56" filterUnits="userSpaceOnUse" color-interpolation-filters="sRGB">
<feFlood flood-opacity="0" result="BackgroundImageFix"/>
<feColorMatrix in="SourceAlpha" type="matrix" values="0 0 0 0 0 0 0 0 0 0 0 0 0 0 0 0 0 0 127 0" result="hardAlpha"/>
<feOffset dy="1"/>
<feGaussianBlur stdDeviation="2"/>
<feComposite in2="hardAlpha" operator="out"/>
<feColorMatrix type="matrix" values="0 0 0 0 0 0 0 0 0 0 0 0 0 0 0 0 0 0 0.15 0"/>
<feBlend mode="normal" in2="BackgroundImageFix" result="effect1_dropShadow_499_5525"/>
<feBlend mode="normal" in="SourceGraphic" in2="effect1_dropShadow_499_5525" result="shape"/>
</filter>
</defs>
</svg>
