<svg width="558" height="87" viewBox="0 0 558 87" fill="none" xmlns="http://www.w3.org/2000/svg">
<rect x="0.5" y="0.5" width="556.826" height="86" rx="4.5" stroke="#9747FF" stroke-dasharray="10 5"/>
<g clip-path="url(#clip0_649_13)">
<path d="M36.5286 31.5604H35.6426V37.7777H36.5286V31.5604Z" fill="white"/>
<path d="M20.7141 59.2727L20.274 58.497L25.5931 55.3883L26.0361 56.164L20.7141 59.2727Z" fill="white"/>
<path d="M51.4514 59.2727L46.1323 56.164L46.5724 55.3883L51.8944 58.497L51.4514 59.2727Z" fill="white"/>
<path d="M36.0857 59.2402L27.986 54.5065V45.0479L36.0857 40.3141L44.1824 45.0479V54.5035L36.0857 59.2373V59.2402ZM28.872 53.9874L36.0857 58.205L43.2963 53.9874V45.564L36.0857 41.3464L28.872 45.564V53.9874Z" fill="white"/>
<path d="M36.0857 62.343L25.3338 56.0549V43.4994L36.0857 37.2114L46.8376 43.4994V56.0549L36.0857 62.343ZM26.2198 55.5388L36.0857 61.3077L45.9516 55.5388V44.0156L36.0857 38.2466L26.2198 44.0156V55.5388Z" fill="white"/>
<path d="M36.0858 65.4457L25.7739 59.4142L23.4656 60.765L23.0226 59.9893L25.7739 58.379L36.0858 64.4105L46.3801 58.379L49.146 59.9893L48.706 60.765L46.383 59.4142L36.0858 65.4457Z" fill="white"/>
<path d="M51.3582 56.1139L48.6038 54.5065V42.4671L38.295 36.4386V33.2209H39.181V35.9225L49.4899 41.951V53.9874L51.7983 55.3382L51.3582 56.1139Z" fill="white"/>
<path d="M20.8102 56.1139L20.3672 55.3382L22.6785 53.9874V41.951L32.9874 35.9225V33.2209H33.8734V36.4386L23.5645 42.4671V54.5065L20.8102 56.1139Z" fill="white"/>
<path d="M48.6096 42.2047L48.6067 39.3615L36.0856 32.0323L23.5616 39.3349V42.2047H22.6785V38.8188L36.0856 31L49.4899 38.8424L49.4957 42.2047H48.6096Z" fill="white"/>
<path d="M33.4159 66.9882L20.0262 59.1547L20 43.5024L22.9 41.8094L23.3401 42.5851L20.886 44.0185L20.9094 58.6385L33.4188 65.953L35.8671 64.5343L36.3071 65.313L33.4159 66.9882Z" fill="white"/>
<path d="M38.7379 67L35.8583 65.3159L36.3013 64.5402L38.7379 65.9648L51.2707 58.6385V44.0126L48.8254 42.5881L49.2684 41.8124L52.1567 43.4935V59.1547L38.7379 67Z" fill="white"/>
<path d="M72.0516 47.6197C72.0516 50.2181 69.9621 52.3328 67.4524 52.3328H64.8555V57.2376C64.8555 57.4617 64.6837 57.6446 64.4621 57.6446H62.5559C62.3343 57.6446 62.1713 57.4617 62.1713 57.2376V50.1325C62.1713 49.9379 62.3255 49.7727 62.5268 49.7727H67.2599C68.4201 49.7727 69.3877 48.8319 69.3877 47.5902C69.3877 46.4459 68.4201 45.564 67.2599 45.564H62.5268C62.3255 45.564 62.1713 45.4077 62.1713 45.216V43.3933C62.1713 43.1898 62.3343 42.9951 62.5559 42.9951H67.4233C69.9621 42.9951 72.0516 45.0891 72.0516 47.6197Z" fill="white"/>
<path d="M90.871 42.998H88.7435C88.5686 42.998 88.4693 43.0983 88.4083 43.1868L85.0972 47.9972L81.7865 43.1868C81.7251 43.0983 81.6231 42.998 81.4629 42.998H79.347C79.0234 42.998 78.8484 43.3254 79.0234 43.6027L83.739 50.5927V57.2435C83.739 57.4588 83.9024 57.6476 84.124 57.6476H86.027C86.2251 57.6476 86.4264 57.4588 86.4264 57.2435V50.5691L91.1918 43.6056C91.3667 43.3284 91.1918 43.001 90.8682 43.001L90.871 42.998Z" fill="white"/>
<path d="M110.236 55.2527L108.953 53.9166C108.828 53.7898 108.603 53.7662 108.432 53.9166C107.572 54.6333 106.514 55.1141 105.269 55.1141C102.62 55.1141 100.641 52.8961 100.641 50.2771C100.641 47.6581 102.608 45.4047 105.246 45.4047C106.403 45.4047 107.575 45.8589 108.432 46.6376C108.607 46.7998 108.805 46.7998 108.953 46.6376L110.21 45.3162C110.385 45.1511 110.385 44.9004 110.198 44.7382C108.79 43.4522 107.275 42.7857 105.182 42.7857C101.049 42.7857 97.7263 46.1598 97.7263 50.342C97.7263 54.5242 101.049 57.8481 105.182 57.8481C107.024 57.8481 108.805 57.2051 110.21 55.8219C110.358 55.6833 110.396 55.406 110.233 55.2556L110.236 55.2527Z" fill="#2E8BCB"/>
<path d="M130.16 42.998H128.192C127.968 42.998 127.808 43.1868 127.808 43.3874V51.9759C127.808 53.7249 126.589 55.1229 124.782 55.1229C122.975 55.1229 121.783 53.7249 121.783 51.9494V43.3844C121.783 43.1839 121.623 42.9951 121.384 42.9951H119.431C119.218 42.9951 119.032 43.1839 119.032 43.3844V52.088C119.032 55.2733 121.533 57.8422 124.782 57.8422C128.032 57.8422 130.556 55.2733 130.556 52.088V43.3844C130.556 43.1839 130.37 42.9951 130.157 42.9951L130.16 42.998Z" fill="#2E8BCB"/>
<path d="M150.574 53.604C150.574 55.9487 148.58 57.6476 146.05 57.6476H141.049C140.827 57.6476 140.667 57.4647 140.667 57.2405V55.5329C140.667 55.3382 140.821 55.173 141.011 55.173H145.829C146.863 55.173 147.697 54.359 147.697 53.2618C147.697 52.1647 146.663 51.448 145.581 51.448H141.011C140.819 51.448 140.667 51.2828 140.667 51.0882V49.4985C140.667 49.3038 140.821 49.1386 141.011 49.1386H145.543C146.598 49.1386 147.324 48.3039 147.324 47.2687C147.324 46.2335 146.596 45.4755 145.543 45.4755H141.011C140.819 45.4755 140.667 45.3192 140.667 45.1275V43.3933C140.667 43.1898 140.83 42.9951 141.049 42.9951H145.791C148.254 42.9951 150.16 44.6733 150.16 46.8647C150.16 48.475 148.849 49.7344 147.881 50.1886C148.974 50.5366 150.574 51.6721 150.574 53.601V53.604Z" fill="#2E8BCB"/>
<path d="M168.851 45.505C169.076 45.505 169.236 45.3162 169.236 45.1009V43.3874C169.236 43.1868 169.073 42.998 168.851 42.998H160.425C160.201 42.998 160.04 43.1868 160.04 43.3874V57.2405C160.04 57.4558 160.203 57.6446 160.425 57.6446H168.851C169.076 57.6446 169.236 57.4558 169.236 57.2405V55.527C169.236 55.3117 169.073 55.1229 168.851 55.1229H162.727V51.4716H167.831C168.044 51.4716 168.23 51.2946 168.23 51.0675V49.3303C168.23 49.115 168.044 48.941 167.831 48.941H162.727V45.5021H168.851V45.505Z" fill="#2E8BCB"/>
</g>
<g clip-path="url(#clip1_649_13)">
<path d="M435.948 38.3187C435.948 40.9171 433.822 43.0318 431.269 43.0318H428.627V47.9366C428.627 48.1607 428.452 48.3436 428.227 48.3436H426.287C426.062 48.3436 425.896 48.1607 425.896 47.9366V40.8316C425.896 40.6369 426.053 40.4717 426.258 40.4717H431.073C432.254 40.4717 433.238 39.5309 433.238 38.2892C433.238 37.1448 432.254 36.263 431.073 36.263H426.258C426.053 36.263 425.896 36.1067 425.896 35.915V34.0922C425.896 33.8887 426.062 33.6941 426.287 33.6941H431.239C433.822 33.6941 435.948 35.7881 435.948 38.3187Z" fill="#034961"/>
<path d="M399.816 21.5604H398.915V27.7776H399.816V21.5604Z" fill="#034961"/>
<path d="M383.727 49.2727L383.279 48.497L388.69 45.3883L389.141 46.164L383.727 49.2727Z" fill="#034961"/>
<path d="M414.999 49.2727L409.587 46.164L410.035 45.3883L415.449 48.497L414.999 49.2727Z" fill="#034961"/>
<path d="M399.365 49.2402L391.125 44.5065V35.0478L399.365 30.3141L407.603 35.0478V44.5035L399.365 49.2373V49.2402ZM392.026 43.9874L399.365 48.205L406.702 43.9874V35.564L399.365 31.3464L392.026 35.564V43.9874Z" fill="#034961"/>
<path d="M399.365 52.3429L388.426 46.0549V33.4994L399.365 27.2114L410.304 33.4994V46.0549L399.365 52.3429ZM389.328 45.5388L399.365 51.3077L409.403 45.5388V34.0156L399.365 28.2466L389.328 34.0156V45.5388Z" fill="#034961"/>
<path d="M399.365 55.4457L388.874 49.4142L386.526 50.765L386.075 49.9894L388.874 48.379L399.365 54.4105L409.839 48.379L412.653 49.9894L412.205 50.765L409.842 49.4142L399.365 55.4457Z" fill="#034961"/>
<path d="M414.904 46.1139L412.101 44.5065V32.4671L401.613 26.4386V23.2209H402.515V25.9225L413.003 31.951V43.9874L415.351 45.3382L414.904 46.1139Z" fill="#034961"/>
<path d="M383.824 46.1139L383.374 45.3382L385.725 43.9874V31.951L396.213 25.9225V23.2209H397.115V26.4386L386.627 32.4671V44.5065L383.824 46.1139Z" fill="#034961"/>
<path d="M412.107 32.2047L412.104 29.3615L399.365 22.0323L386.624 29.3349V32.2047H385.725V28.8188L399.365 21L413.003 28.8424L413.009 32.2047H412.107Z" fill="#034961"/>
<path d="M396.649 56.9882L383.027 49.1547L383 33.5024L385.95 31.8094L386.398 32.5851L383.901 34.0185L383.925 48.6385L396.652 55.953L399.143 54.5343L399.591 55.313L396.649 56.9882Z" fill="#034961"/>
<path d="M402.064 57L399.134 55.3159L399.585 54.5402L402.064 55.9648L414.815 48.6385V34.0126L412.327 32.5881L412.777 31.8124L415.716 33.4935V49.1547L402.064 57Z" fill="#034961"/>
<path d="M455.098 33.697H452.934C452.756 33.697 452.655 33.7973 452.593 33.8858L449.224 38.6962L445.855 33.8858C445.793 33.7973 445.689 33.697 445.526 33.697H443.373C443.044 33.697 442.866 34.0244 443.044 34.3017L447.842 41.2917V47.9425C447.842 48.1578 448.008 48.3466 448.234 48.3466H450.17C450.372 48.3466 450.576 48.1578 450.576 47.9425V41.2681L455.424 34.3046C455.602 34.0274 455.424 33.7 455.095 33.7L455.098 33.697Z" fill="#034961"/>
<path d="M474.8 45.9487L473.495 44.6126C473.367 44.4858 473.139 44.4622 472.964 44.6126C472.089 45.3293 471.013 45.8101 469.747 45.8101C467.051 45.8101 465.038 43.5922 465.038 40.9731C465.038 38.3541 467.039 36.1008 469.723 36.1008C470.9 36.1008 472.092 36.555 472.964 37.3336C473.142 37.4958 473.344 37.4958 473.495 37.3336L474.773 36.0123C474.951 35.8471 474.951 35.5964 474.761 35.4342C473.329 34.1483 471.787 33.4817 469.658 33.4817C465.453 33.4817 462.073 36.8558 462.073 41.038C462.073 45.2202 465.453 48.5442 469.658 48.5442C471.532 48.5442 473.344 47.9012 474.773 46.5179C474.924 46.3793 474.963 46.1021 474.797 45.9517L474.8 45.9487Z" fill="#2E8BCB"/>
<path d="M495.07 33.697H493.069C492.84 33.697 492.677 33.8858 492.677 34.0863V42.6749C492.677 44.4239 491.438 45.8219 489.599 45.8219C487.761 45.8219 486.548 44.4239 486.548 42.6484V34.0834C486.548 33.8828 486.385 33.6941 486.142 33.6941H484.155C483.939 33.6941 483.749 33.8828 483.749 34.0834V42.787C483.749 45.9723 486.293 48.5412 489.599 48.5412C492.906 48.5412 495.474 45.9723 495.474 42.787V34.0834C495.474 33.8828 495.284 33.6941 495.067 33.6941L495.07 33.697Z" fill="#2E8BCB"/>
<path d="M515.839 44.3C515.839 46.6448 513.811 48.3436 511.237 48.3436H506.149C505.923 48.3436 505.76 48.1607 505.76 47.9366V46.2289C505.76 46.0342 505.917 45.8691 506.11 45.8691H511.012C512.064 45.8691 512.913 45.0551 512.913 43.9579C512.913 42.8607 511.86 42.144 510.76 42.144H506.11C505.914 42.144 505.76 41.9789 505.76 41.7842V40.1945C505.76 39.9998 505.917 39.8347 506.11 39.8347H510.721C511.795 39.8347 512.533 39 512.533 37.9648C512.533 36.9295 511.792 36.1716 510.721 36.1716H506.11C505.914 36.1716 505.76 36.0152 505.76 35.8235V34.0893C505.76 33.8858 505.926 33.6911 506.149 33.6911H510.973C513.479 33.6911 515.418 35.3693 515.418 37.5607C515.418 39.1711 514.084 40.4304 513.099 40.8846C514.211 41.2327 515.839 42.3682 515.839 44.2971V44.3Z" fill="#2E8BCB"/>
<path d="M534.435 36.204C534.663 36.204 534.826 36.0152 534.826 35.7999V34.0863C534.826 33.8858 534.66 33.697 534.435 33.697H525.862C525.634 33.697 525.471 33.8858 525.471 34.0863V47.9395C525.471 48.1548 525.637 48.3436 525.862 48.3436H534.435C534.663 48.3436 534.826 48.1548 534.826 47.9395V46.226C534.826 46.0106 534.66 45.8219 534.435 45.8219H528.205V42.1706H533.397C533.613 42.1706 533.803 41.9936 533.803 41.7665V40.0293C533.803 39.814 533.613 39.64 533.397 39.64H528.205V36.201H534.435V36.204Z" fill="#2E8BCB"/>
</g>
<defs>
<clipPath id="clip0_649_13">
<rect width="149.455" height="36" fill="white" transform="translate(20 31)"/>
</clipPath>
<clipPath id="clip1_649_13">
<rect width="151.826" height="36" fill="white" transform="translate(383 21)"/>
</clipPath>
</defs>
</svg>
