<svg width="352" height="199" viewBox="0 0 352 199" fill="none" xmlns="http://www.w3.org/2000/svg">
<g filter="url(#filter0_d_90_518)">
<rect x="12" y="6" width="328" height="175" rx="9" fill="white" shape-rendering="crispEdges"/>
</g>
<path d="M314.842 31.5L320.39 25.952C320.485 25.857 320.485 25.705 320.39 25.61C320.295 25.515 320.143 25.515 320.048 25.61L314.5 31.158L308.952 25.61C308.857 25.515 308.705 25.515 308.61 25.61C308.515 25.705 308.515 25.857 308.61 25.952L314.158 31.5L308.61 37.048C308.515 37.143 308.515 37.295 308.61 37.39C308.705 37.485 308.857 37.485 308.952 37.39L314.5 31.842L320.048 37.39C320.143 37.485 320.295 37.485 320.39 37.39C320.485 37.295 320.485 37.143 320.39 37.048L314.842 31.5Z" fill="black"/>
<path d="M74.864 132.112C74.1173 132.112 73.4453 131.984 72.848 131.728C72.2507 131.461 71.7813 131.088 71.44 130.608C71.0987 130.128 70.928 129.568 70.928 128.928H72.88C72.9227 129.408 73.1093 129.803 73.44 130.112C73.7813 130.421 74.256 130.576 74.864 130.576C75.4933 130.576 75.984 130.427 76.336 130.128C76.688 129.819 76.864 129.424 76.864 128.944C76.864 128.571 76.752 128.267 76.528 128.032C76.3147 127.797 76.0427 127.616 75.712 127.488C75.392 127.36 74.944 127.221 74.368 127.072C73.6427 126.88 73.0507 126.688 72.592 126.496C72.144 126.293 71.76 125.984 71.44 125.568C71.12 125.152 70.96 124.597 70.96 123.904C70.96 123.264 71.12 122.704 71.44 122.224C71.76 121.744 72.208 121.376 72.784 121.12C73.36 120.864 74.0267 120.736 74.784 120.736C75.8613 120.736 76.7413 121.008 77.424 121.552C78.1173 122.085 78.5013 122.821 78.576 123.76H76.56C76.528 123.355 76.336 123.008 75.984 122.72C75.632 122.432 75.168 122.288 74.592 122.288C74.0693 122.288 73.6427 122.421 73.312 122.688C72.9813 122.955 72.816 123.339 72.816 123.84C72.816 124.181 72.9173 124.464 73.12 124.688C73.3333 124.901 73.6 125.072 73.92 125.2C74.24 125.328 74.6773 125.467 75.232 125.616C75.968 125.819 76.5653 126.021 77.024 126.224C77.4933 126.427 77.888 126.741 78.208 127.168C78.5387 127.584 78.704 128.144 78.704 128.848C78.704 129.413 78.5493 129.947 78.24 130.448C77.9413 130.949 77.4987 131.355 76.912 131.664C76.336 131.963 75.6533 132.112 74.864 132.112ZM80.2483 127.584C80.2483 126.677 80.4296 125.883 80.7923 125.2C81.1656 124.507 81.6776 123.973 82.3283 123.6C82.9789 123.227 83.7256 123.04 84.5683 123.04C85.6349 123.04 86.5149 123.296 87.2083 123.808C87.9123 124.309 88.3869 125.029 88.6323 125.968H86.6643C86.5043 125.531 86.2483 125.189 85.8963 124.944C85.5443 124.699 85.1016 124.576 84.5683 124.576C83.8216 124.576 83.2243 124.843 82.7763 125.376C82.3389 125.899 82.1203 126.635 82.1203 127.584C82.1203 128.533 82.3389 129.275 82.7763 129.808C83.2243 130.341 83.8216 130.608 84.5683 130.608C85.6243 130.608 86.3229 130.144 86.6643 129.216H88.6323C88.3763 130.112 87.8963 130.827 87.1923 131.36C86.4883 131.883 85.6136 132.144 84.5683 132.144C83.7256 132.144 82.9789 131.957 82.3283 131.584C81.6776 131.2 81.1656 130.667 80.7923 129.984C80.4296 129.291 80.2483 128.491 80.2483 127.584ZM89.842 127.552C89.842 126.667 90.0233 125.883 90.386 125.2C90.7593 124.517 91.2607 123.989 91.89 123.616C92.53 123.232 93.234 123.04 94.002 123.04C94.6953 123.04 95.298 123.179 95.81 123.456C96.3327 123.723 96.7487 124.059 97.058 124.464V123.184H98.898V132H97.058V130.688C96.7487 131.104 96.3273 131.451 95.794 131.728C95.2607 132.005 94.6527 132.144 93.97 132.144C93.2127 132.144 92.5193 131.952 91.89 131.568C91.2607 131.173 90.7593 130.629 90.386 129.936C90.0233 129.232 89.842 128.437 89.842 127.552ZM97.058 127.584C97.058 126.976 96.93 126.448 96.674 126C96.4287 125.552 96.1033 125.211 95.698 124.976C95.2927 124.741 94.8553 124.624 94.386 124.624C93.9167 124.624 93.4793 124.741 93.074 124.976C92.6687 125.2 92.338 125.536 92.082 125.984C91.8367 126.421 91.714 126.944 91.714 127.552C91.714 128.16 91.8367 128.693 92.082 129.152C92.338 129.611 92.6687 129.963 93.074 130.208C93.49 130.443 93.9273 130.56 94.386 130.56C94.8553 130.56 95.2927 130.443 95.698 130.208C96.1033 129.973 96.4287 129.632 96.674 129.184C96.93 128.725 97.058 128.192 97.058 127.584ZM105.742 123.04C106.435 123.04 107.054 123.184 107.598 123.472C108.152 123.76 108.584 124.187 108.894 124.752C109.203 125.317 109.358 126 109.358 126.8V132H107.55V127.072C107.55 126.283 107.352 125.68 106.958 125.264C106.563 124.837 106.024 124.624 105.342 124.624C104.659 124.624 104.115 124.837 103.71 125.264C103.315 125.68 103.118 126.283 103.118 127.072V132H101.294V123.184H103.118V124.192C103.416 123.829 103.795 123.547 104.254 123.344C104.723 123.141 105.219 123.04 105.742 123.04ZM116.132 123.04C116.826 123.04 117.444 123.184 117.988 123.472C118.543 123.76 118.975 124.187 119.284 124.752C119.594 125.317 119.748 126 119.748 126.8V132H117.94V127.072C117.94 126.283 117.743 125.68 117.348 125.264C116.954 124.837 116.415 124.624 115.732 124.624C115.05 124.624 114.506 124.837 114.1 125.264C113.706 125.68 113.508 126.283 113.508 127.072V132H111.684V123.184H113.508V124.192C113.807 123.829 114.186 123.547 114.644 123.344C115.114 123.141 115.61 123.04 116.132 123.04ZM123.003 122.016C122.672 122.016 122.395 121.904 122.171 121.68C121.947 121.456 121.835 121.179 121.835 120.848C121.835 120.517 121.947 120.24 122.171 120.016C122.395 119.792 122.672 119.68 123.003 119.68C123.323 119.68 123.595 119.792 123.819 120.016C124.043 120.24 124.155 120.517 124.155 120.848C124.155 121.179 124.043 121.456 123.819 121.68C123.595 121.904 123.323 122.016 123.003 122.016ZM123.899 123.184V132H122.075V123.184H123.899ZM130.742 123.04C131.435 123.04 132.054 123.184 132.598 123.472C133.152 123.76 133.584 124.187 133.894 124.752C134.203 125.317 134.358 126 134.358 126.8V132H132.55V127.072C132.55 126.283 132.352 125.68 131.958 125.264C131.563 124.837 131.024 124.624 130.342 124.624C129.659 124.624 129.115 124.837 128.71 125.264C128.315 125.68 128.118 126.283 128.118 127.072V132H126.294V123.184H128.118V124.192C128.416 123.829 128.795 123.547 129.254 123.344C129.723 123.141 130.219 123.04 130.742 123.04ZM140.236 123.04C140.919 123.04 141.522 123.179 142.044 123.456C142.578 123.723 142.994 124.059 143.292 124.464V123.184H145.132V132.144C145.132 132.955 144.962 133.675 144.62 134.304C144.279 134.944 143.783 135.445 143.132 135.808C142.492 136.171 141.724 136.352 140.828 136.352C139.634 136.352 138.642 136.069 137.852 135.504C137.063 134.949 136.615 134.192 136.508 133.232H138.316C138.455 133.691 138.748 134.059 139.196 134.336C139.655 134.624 140.199 134.768 140.828 134.768C141.564 134.768 142.156 134.544 142.604 134.096C143.063 133.648 143.292 132.997 143.292 132.144V130.672C142.983 131.088 142.562 131.44 142.028 131.728C141.506 132.005 140.908 132.144 140.236 132.144C139.468 132.144 138.764 131.952 138.124 131.568C137.495 131.173 136.994 130.629 136.62 129.936C136.258 129.232 136.076 128.437 136.076 127.552C136.076 126.667 136.258 125.883 136.62 125.2C136.994 124.517 137.495 123.989 138.124 123.616C138.764 123.232 139.468 123.04 140.236 123.04ZM143.292 127.584C143.292 126.976 143.164 126.448 142.908 126C142.663 125.552 142.338 125.211 141.932 124.976C141.527 124.741 141.09 124.624 140.62 124.624C140.151 124.624 139.714 124.741 139.308 124.976C138.903 125.2 138.572 125.536 138.316 125.984C138.071 126.421 137.948 126.944 137.948 127.552C137.948 128.16 138.071 128.693 138.316 129.152C138.572 129.611 138.903 129.963 139.308 130.208C139.724 130.443 140.162 130.56 140.62 130.56C141.09 130.56 141.527 130.443 141.932 130.208C142.338 129.973 142.663 129.632 142.908 129.184C143.164 128.725 143.292 128.192 143.292 127.584ZM159.62 123.184L154.212 136.144H152.324L154.116 131.856L150.644 123.184H152.676L155.156 129.904L157.732 123.184H159.62ZM164.821 132.144C163.989 132.144 163.237 131.957 162.565 131.584C161.893 131.2 161.365 130.667 160.981 129.984C160.597 129.291 160.405 128.491 160.405 127.584C160.405 126.688 160.602 125.893 160.997 125.2C161.392 124.507 161.93 123.973 162.613 123.6C163.296 123.227 164.058 123.04 164.901 123.04C165.744 123.04 166.506 123.227 167.189 123.6C167.872 123.973 168.41 124.507 168.805 125.2C169.2 125.893 169.397 126.688 169.397 127.584C169.397 128.48 169.194 129.275 168.789 129.968C168.384 130.661 167.829 131.2 167.125 131.584C166.432 131.957 165.664 132.144 164.821 132.144ZM164.821 130.56C165.29 130.56 165.728 130.448 166.133 130.224C166.549 130 166.885 129.664 167.141 129.216C167.397 128.768 167.525 128.224 167.525 127.584C167.525 126.944 167.402 126.405 167.157 125.968C166.912 125.52 166.586 125.184 166.181 124.96C165.776 124.736 165.338 124.624 164.869 124.624C164.4 124.624 163.962 124.736 163.557 124.96C163.162 125.184 162.848 125.52 162.613 125.968C162.378 126.405 162.261 126.944 162.261 127.584C162.261 128.533 162.501 129.269 162.981 129.792C163.472 130.304 164.085 130.56 164.821 130.56ZM179.184 123.184V132H177.36V130.96C177.072 131.323 176.693 131.611 176.224 131.824C175.765 132.027 175.275 132.128 174.752 132.128C174.059 132.128 173.435 131.984 172.88 131.696C172.336 131.408 171.904 130.981 171.584 130.416C171.275 129.851 171.12 129.168 171.12 128.368V123.184H172.928V128.096C172.928 128.885 173.125 129.493 173.52 129.92C173.915 130.336 174.453 130.544 175.136 130.544C175.819 130.544 176.357 130.336 176.752 129.92C177.157 129.493 177.36 128.885 177.36 128.096V123.184H179.184ZM183.415 124.464C183.681 124.016 184.033 123.669 184.471 123.424C184.919 123.168 185.447 123.04 186.055 123.04V124.928H185.591C184.876 124.928 184.332 125.109 183.959 125.472C183.596 125.835 183.415 126.464 183.415 127.36V132H181.591V123.184H183.415V124.464ZM191.28 127.552C191.28 126.667 191.461 125.883 191.824 125.2C192.197 124.517 192.698 123.989 193.328 123.616C193.968 123.232 194.677 123.04 195.456 123.04C196.032 123.04 196.597 123.168 197.152 123.424C197.717 123.669 198.165 124 198.496 124.416V120.16H200.336V132H198.496V130.672C198.197 131.099 197.781 131.451 197.248 131.728C196.725 132.005 196.122 132.144 195.44 132.144C194.672 132.144 193.968 131.952 193.328 131.568C192.698 131.173 192.197 130.629 191.824 129.936C191.461 129.232 191.28 128.437 191.28 127.552ZM198.496 127.584C198.496 126.976 198.368 126.448 198.112 126C197.866 125.552 197.541 125.211 197.136 124.976C196.73 124.741 196.293 124.624 195.824 124.624C195.354 124.624 194.917 124.741 194.512 124.976C194.106 125.2 193.776 125.536 193.52 125.984C193.274 126.421 193.152 126.944 193.152 127.552C193.152 128.16 193.274 128.693 193.52 129.152C193.776 129.611 194.106 129.963 194.512 130.208C194.928 130.443 195.365 130.56 195.824 130.56C196.293 130.56 196.73 130.443 197.136 130.208C197.541 129.973 197.866 129.632 198.112 129.184C198.368 128.725 198.496 128.192 198.496 127.584ZM206.555 132.144C205.723 132.144 204.971 131.957 204.299 131.584C203.627 131.2 203.099 130.667 202.715 129.984C202.331 129.291 202.139 128.491 202.139 127.584C202.139 126.688 202.337 125.893 202.731 125.2C203.126 124.507 203.665 123.973 204.347 123.6C205.03 123.227 205.793 123.04 206.635 123.04C207.478 123.04 208.241 123.227 208.923 123.6C209.606 123.973 210.145 124.507 210.539 125.2C210.934 125.893 211.131 126.688 211.131 127.584C211.131 128.48 210.929 129.275 210.523 129.968C210.118 130.661 209.563 131.2 208.859 131.584C208.166 131.957 207.398 132.144 206.555 132.144ZM206.555 130.56C207.025 130.56 207.462 130.448 207.867 130.224C208.283 130 208.619 129.664 208.875 129.216C209.131 128.768 209.259 128.224 209.259 127.584C209.259 126.944 209.137 126.405 208.891 125.968C208.646 125.52 208.321 125.184 207.915 124.96C207.51 124.736 207.073 124.624 206.603 124.624C206.134 124.624 205.697 124.736 205.291 124.96C204.897 125.184 204.582 125.52 204.347 125.968C204.113 126.405 203.995 126.944 203.995 127.584C203.995 128.533 204.235 129.269 204.715 129.792C205.206 130.304 205.819 130.56 206.555 130.56ZM212.326 127.584C212.326 126.677 212.508 125.883 212.87 125.2C213.244 124.507 213.756 123.973 214.406 123.6C215.057 123.227 215.804 123.04 216.646 123.04C217.713 123.04 218.593 123.296 219.286 123.808C219.99 124.309 220.465 125.029 220.71 125.968H218.742C218.582 125.531 218.326 125.189 217.974 124.944C217.622 124.699 217.18 124.576 216.646 124.576C215.9 124.576 215.302 124.843 214.854 125.376C214.417 125.899 214.198 126.635 214.198 127.584C214.198 128.533 214.417 129.275 214.854 129.808C215.302 130.341 215.9 130.608 216.646 130.608C217.702 130.608 218.401 130.144 218.742 129.216H220.71C220.454 130.112 219.974 130.827 219.27 131.36C218.566 131.883 217.692 132.144 216.646 132.144C215.804 132.144 215.057 131.957 214.406 131.584C213.756 131.2 213.244 130.667 212.87 129.984C212.508 129.291 212.326 128.491 212.326 127.584ZM230.512 123.184V132H228.688V130.96C228.4 131.323 228.021 131.611 227.552 131.824C227.093 132.027 226.603 132.128 226.08 132.128C225.387 132.128 224.763 131.984 224.208 131.696C223.664 131.408 223.232 130.981 222.912 130.416C222.603 129.851 222.448 129.168 222.448 128.368V123.184H224.256V128.096C224.256 128.885 224.453 129.493 224.848 129.92C225.243 130.336 225.781 130.544 226.464 130.544C227.147 130.544 227.685 130.336 228.08 129.92C228.485 129.493 228.688 128.885 228.688 128.096V123.184H230.512ZM243.591 123.04C244.284 123.04 244.903 123.184 245.447 123.472C246.001 123.76 246.433 124.187 246.743 124.752C247.063 125.317 247.223 126 247.223 126.8V132H245.415V127.072C245.415 126.283 245.217 125.68 244.823 125.264C244.428 124.837 243.889 124.624 243.207 124.624C242.524 124.624 241.98 124.837 241.575 125.264C241.18 125.68 240.983 126.283 240.983 127.072V132H239.175V127.072C239.175 126.283 238.977 125.68 238.583 125.264C238.188 124.837 237.649 124.624 236.967 124.624C236.284 124.624 235.74 124.837 235.335 125.264C234.94 125.68 234.743 126.283 234.743 127.072V132H232.919V123.184H234.743V124.192C235.041 123.829 235.42 123.547 235.879 123.344C236.337 123.141 236.828 123.04 237.351 123.04C238.055 123.04 238.684 123.189 239.239 123.488C239.793 123.787 240.22 124.219 240.519 124.784C240.785 124.251 241.201 123.829 241.767 123.52C242.332 123.2 242.94 123.04 243.591 123.04ZM257.624 127.376C257.624 127.707 257.602 128.005 257.56 128.272H250.824C250.877 128.976 251.138 129.541 251.608 129.968C252.077 130.395 252.653 130.608 253.336 130.608C254.317 130.608 255.01 130.197 255.416 129.376H257.384C257.117 130.187 256.632 130.853 255.928 131.376C255.234 131.888 254.37 132.144 253.336 132.144C252.493 132.144 251.736 131.957 251.064 131.584C250.402 131.2 249.88 130.667 249.496 129.984C249.122 129.291 248.936 128.491 248.936 127.584C248.936 126.677 249.117 125.883 249.48 125.2C249.853 124.507 250.37 123.973 251.032 123.6C251.704 123.227 252.472 123.04 253.336 123.04C254.168 123.04 254.909 123.221 255.56 123.584C256.21 123.947 256.717 124.459 257.08 125.12C257.442 125.771 257.624 126.523 257.624 127.376ZM255.72 126.8C255.709 126.128 255.469 125.589 255 125.184C254.53 124.779 253.949 124.576 253.256 124.576C252.626 124.576 252.088 124.779 251.64 125.184C251.192 125.579 250.925 126.117 250.84 126.8H255.72ZM263.867 123.04C264.56 123.04 265.179 123.184 265.723 123.472C266.277 123.76 266.709 124.187 267.019 124.752C267.328 125.317 267.483 126 267.483 126.8V132H265.675V127.072C265.675 126.283 265.477 125.68 265.083 125.264C264.688 124.837 264.149 124.624 263.467 124.624C262.784 124.624 262.24 124.837 261.835 125.264C261.44 125.68 261.243 126.283 261.243 127.072V132H259.419V123.184H261.243V124.192C261.541 123.829 261.92 123.547 262.379 123.344C262.848 123.141 263.344 123.04 263.867 123.04ZM271.937 124.672V129.552C271.937 129.883 272.012 130.123 272.161 130.272C272.321 130.411 272.588 130.48 272.961 130.48H274.081V132H272.641C271.82 132 271.191 131.808 270.753 131.424C270.316 131.04 270.097 130.416 270.097 129.552V124.672H269.057V123.184H270.097V120.992H271.937V123.184H274.081V124.672H271.937Z" fill="#3A3A3A"/>
<path fill-rule="evenodd" clip-rule="evenodd" d="M180 50C180 52.2091 178.209 54 176 54C173.791 54 172 52.2091 172 50C172 47.7909 173.791 46 176 46C178.209 46 180 47.7909 180 50ZM180 86C180 88.2091 178.209 90 176 90C173.791 90 172 88.2091 172 86C172 83.7909 173.791 82 176 82C178.209 82 180 83.7909 180 86ZM192 82C194.209 82 196 80.2091 196 78C196 75.7909 194.209 74 192 74C189.791 74 188 75.7909 188 78C188 80.2091 189.791 82 192 82ZM164 78C164 80.2091 162.209 82 160 82C157.791 82 156 80.2091 156 78C156 75.7909 157.791 74 160 74C162.209 74 164 75.7909 164 78ZM192 62C194.209 62 196 60.2091 196 58C196 55.7909 194.209 54 192 54C189.791 54 188 55.7909 188 58C188 60.2091 189.791 62 192 62ZM164 58C164 60.2091 162.209 62 160 62C157.791 62 156 60.2091 156 58C156 55.7909 157.791 54 160 54C162.209 54 164 55.7909 164 58Z" fill="#0176D3"/>
<defs>
<filter id="filter0_d_90_518" x="0" y="0" width="352" height="199" filterUnits="userSpaceOnUse" color-interpolation-filters="sRGB">
<feFlood flood-opacity="0" result="BackgroundImageFix"/>
<feColorMatrix in="SourceAlpha" type="matrix" values="0 0 0 0 0 0 0 0 0 0 0 0 0 0 0 0 0 0 127 0" result="hardAlpha"/>
<feOffset dy="6"/>
<feGaussianBlur stdDeviation="6"/>
<feComposite in2="hardAlpha" operator="out"/>
<feColorMatrix type="matrix" values="0 0 0 0 0 0 0 0 0 0 0 0 0 0 0 0 0 0 0.1 0"/>
<feBlend mode="normal" in2="BackgroundImageFix" result="effect1_dropShadow_90_518"/>
<feBlend mode="normal" in="SourceGraphic" in2="effect1_dropShadow_90_518" result="shape"/>
</filter>
</defs>
</svg>
