<svg width="141" height="48" viewBox="0 0 141 48" fill="none" xmlns="http://www.w3.org/2000/svg">
<path d="M0 8C0 3.58172 3.58172 0 8 0H133C137.418 0 141 3.58172 141 8V40C141 44.4183 137.418 48 133 48H8C3.58172 48 0 44.4183 0 40V8Z" fill="#343658"/>
<path d="M39.4284 16.0054C39.2529 16.0262 39.0916 16.1075 38.9758 16.2336C38.8599 16.3597 38.7976 16.5217 38.8008 16.6884V23.329H31.7555V23.3291C31.7307 23.3278 31.7057 23.3278 31.6808 23.3291C31.4906 23.3384 31.3122 23.4185 31.1846 23.5519C31.0571 23.6853 30.9911 23.8609 31.001 24.0403C31.0109 24.2196 31.0959 24.3877 31.2374 24.508C31.379 24.6282 31.5653 24.6905 31.7555 24.681H38.8008V31.3144C38.7981 31.4953 38.8725 31.6698 39.0073 31.7986C39.142 31.9276 39.326 32 39.5181 32C39.7101 32 39.894 31.9276 40.0288 31.7986C40.1636 31.6698 40.238 31.4953 40.2353 31.3144V24.681H47.273L47.2729 24.6809C47.4648 24.6835 47.6498 24.6134 47.7865 24.4863C47.9231 24.3592 48 24.1859 48 24.0049C48 23.824 47.9231 23.6507 47.7865 23.5236C47.6498 23.3965 47.4648 23.3264 47.2729 23.329H40.2352V16.6884L40.2353 16.6883C40.239 16.4922 40.1523 16.3042 39.9974 16.1731C39.8426 16.042 39.635 15.9808 39.4284 16.0053L39.4284 16.0054Z" fill="white"/>
<path d="M67.1676 24.288C67.765 24.3947 68.2716 24.7093 68.6876 25.232C69.1036 25.7547 69.3116 26.3467 69.3116 27.008C69.3116 27.5733 69.1623 28.0853 68.8636 28.544C68.5756 28.992 68.1543 29.3493 67.5996 29.616C67.045 29.872 66.3996 30 65.6636 30H61.2156V18.88H65.4556C66.213 18.88 66.8636 19.008 67.4076 19.264C67.9516 19.52 68.3623 19.8667 68.6396 20.304C68.917 20.7307 69.0556 21.2107 69.0556 21.744C69.0556 22.384 68.885 22.9173 68.5436 23.344C68.2023 23.7707 67.7436 24.0853 67.1676 24.288ZM63.0396 23.552H65.2956C65.893 23.552 66.357 23.4187 66.6876 23.152C67.029 22.8747 67.1996 22.48 67.1996 21.968C67.1996 21.4667 67.029 21.0773 66.6876 20.8C66.357 20.512 65.893 20.368 65.2956 20.368H63.0396V23.552ZM65.5036 28.512C66.1223 28.512 66.6076 28.3627 66.9596 28.064C67.3116 27.7653 67.4876 27.3493 67.4876 26.816C67.4876 26.272 67.301 25.84 66.9276 25.52C66.5543 25.2 66.0583 25.04 65.4396 25.04H63.0396V28.512H65.5036ZM79.2778 21.184V30H77.4538V28.96C77.1658 29.3227 76.7871 29.6107 76.3178 29.824C75.8591 30.0267 75.3684 30.128 74.8458 30.128C74.1524 30.128 73.5284 29.984 72.9738 29.696C72.4298 29.408 71.9978 28.9813 71.6778 28.416C71.3684 27.8507 71.2138 27.168 71.2138 26.368V21.184H73.0218V26.096C73.0218 26.8853 73.2191 27.4933 73.6138 27.92C74.0084 28.336 74.5471 28.544 75.2298 28.544C75.9124 28.544 76.4511 28.336 76.8458 27.92C77.2511 27.4933 77.4538 26.8853 77.4538 26.096V21.184H79.2778ZM83.8124 22.672V27.552C83.8124 27.8827 83.887 28.1227 84.0364 28.272C84.1964 28.4107 84.463 28.48 84.8364 28.48H85.9564V30H84.5164C83.695 30 83.0657 29.808 82.6284 29.424C82.191 29.04 81.9724 28.416 81.9724 27.552V22.672H80.9324V21.184H81.9724V18.992H83.8124V21.184H85.9564V22.672H83.8124ZM89.7655 22.672V27.552C89.7655 27.8827 89.8402 28.1227 89.9895 28.272C90.1495 28.4107 90.4162 28.48 90.7895 28.48H91.9095V30H90.4695C89.6482 30 89.0188 29.808 88.5815 29.424C88.1442 29.04 87.9255 28.416 87.9255 27.552V22.672H86.8855V21.184H87.9255V18.992H89.7655V21.184H91.9095V22.672H89.7655ZM97.4146 30.144C96.5826 30.144 95.8306 29.9573 95.1586 29.584C94.4866 29.2 93.9586 28.6667 93.5746 27.984C93.1906 27.2907 92.9986 26.4907 92.9986 25.584C92.9986 24.688 93.196 23.8933 93.5906 23.2C93.9853 22.5067 94.524 21.9733 95.2066 21.6C95.8893 21.2267 96.652 21.04 97.4946 21.04C98.3373 21.04 99.1 21.2267 99.7826 21.6C100.465 21.9733 101.004 22.5067 101.399 23.2C101.793 23.8933 101.991 24.688 101.991 25.584C101.991 26.48 101.788 27.2747 101.383 27.968C100.977 28.6613 100.423 29.2 99.7186 29.584C99.0253 29.9573 98.2573 30.144 97.4146 30.144ZM97.4146 28.56C97.884 28.56 98.3213 28.448 98.7266 28.224C99.1426 28 99.4786 27.664 99.7346 27.216C99.9906 26.768 100.119 26.224 100.119 25.584C100.119 24.944 99.996 24.4053 99.7506 23.968C99.5053 23.52 99.18 23.184 98.7746 22.96C98.3693 22.736 97.932 22.624 97.4626 22.624C96.9933 22.624 96.556 22.736 96.1506 22.96C95.756 23.184 95.4413 23.52 95.2066 23.968C94.972 24.4053 94.8546 24.944 94.8546 25.584C94.8546 26.5333 95.0946 27.2693 95.5746 27.792C96.0653 28.304 96.6786 28.56 97.4146 28.56ZM108.242 21.04C108.935 21.04 109.554 21.184 110.098 21.472C110.652 21.76 111.084 22.1867 111.394 22.752C111.703 23.3173 111.858 24 111.858 24.8V30H110.05V25.072C110.05 24.2827 109.852 23.68 109.458 23.264C109.063 22.8373 108.524 22.624 107.842 22.624C107.159 22.624 106.615 22.8373 106.21 23.264C105.815 23.68 105.618 24.2827 105.618 25.072V30H103.794V21.184H105.618V22.192C105.916 21.8293 106.295 21.5467 106.754 21.344C107.223 21.1413 107.719 21.04 108.242 21.04Z" fill="white"/>
</svg>
