<svg width="386" height="72" viewBox="0 0 386 72" fill="none" xmlns="http://www.w3.org/2000/svg">
<g filter="url(#filter0_d_557_3776)">
<rect x="7.25" y="6.25" width="368.5" height="55.5" rx="7.75" stroke="#5D9EFE" stroke-width="0.5" shape-rendering="crispEdges"/>
<path d="M7 14C7 9.58172 10.5817 6 15 6H63V62H15C10.5817 62 7 58.4183 7 54V14Z" fill="#0D6EFD"/>
<path fill-rule="evenodd" clip-rule="evenodd" d="M35 46C41.6274 46 47 40.6274 47 34C47 27.3726 41.6274 22 35 22C28.3726 22 23 27.3726 23 34C23 40.6274 28.3726 46 35 46ZM35.6468 35.4274L35.921 28.8583H33.3839L33.6582 35.4274H35.6468ZM33.6719 38.5817C33.937 38.8194 34.2753 38.9383 34.6868 38.9383C35.089 38.9383 35.4182 38.8194 35.6742 38.5817C35.9393 38.3348 36.0719 38.0331 36.0719 37.6765C36.0719 37.3108 35.9393 37.0045 35.6742 36.7577C35.4182 36.5108 35.089 36.3874 34.6868 36.3874C34.2753 36.3874 33.937 36.5108 33.6719 36.7577C33.4159 37.0045 33.2879 37.3108 33.2879 37.6765C33.2879 38.0331 33.4159 38.3348 33.6719 38.5817Z" fill="white"/>
<path d="M76.992 19.242V26.452C76.992 27.2547 76.7447 27.8987 76.25 28.384C75.7553 28.86 75.102 29.098 74.29 29.098C73.4687 29.098 72.8107 28.8553 72.316 28.37C71.8213 27.8753 71.574 27.2033 71.574 26.354H72.848C72.8573 26.83 72.9787 27.2173 73.212 27.516C73.4547 27.8147 73.814 27.964 74.29 27.964C74.766 27.964 75.1207 27.824 75.354 27.544C75.5873 27.2547 75.704 26.8907 75.704 26.452V19.242H76.992ZM86.3058 21.328V29H85.0318V27.866C84.7892 28.258 84.4485 28.566 84.0098 28.79C83.5805 29.0047 83.1045 29.112 82.5818 29.112C81.9845 29.112 81.4478 28.9907 80.9718 28.748C80.4958 28.496 80.1178 28.1227 79.8378 27.628C79.5672 27.1333 79.4318 26.5313 79.4318 25.822V21.328H80.6918V25.654C80.6918 26.41 80.8832 26.9933 81.2658 27.404C81.6485 27.8053 82.1712 28.006 82.8338 28.006C83.5152 28.006 84.0518 27.796 84.4438 27.376C84.8358 26.956 85.0318 26.3447 85.0318 25.542V21.328H86.3058ZM91.1729 29.126C90.5849 29.126 90.0576 29.028 89.5909 28.832C89.1242 28.6267 88.7556 28.3467 88.4849 27.992C88.2142 27.628 88.0649 27.2127 88.0369 26.746H89.3529C89.3902 27.1287 89.5676 27.4413 89.8849 27.684C90.2116 27.9267 90.6362 28.048 91.1589 28.048C91.6442 28.048 92.0269 27.9407 92.3069 27.726C92.5869 27.5113 92.7269 27.2407 92.7269 26.914C92.7269 26.578 92.5776 26.3307 92.2789 26.172C91.9802 26.004 91.5182 25.8407 90.8929 25.682C90.3236 25.5327 89.8569 25.3833 89.4929 25.234C89.1382 25.0753 88.8302 24.8467 88.5689 24.548C88.3169 24.24 88.1909 23.8387 88.1909 23.344C88.1909 22.952 88.3076 22.5927 88.5409 22.266C88.7742 21.9393 89.1056 21.6827 89.5349 21.496C89.9642 21.3 90.4542 21.202 91.0049 21.202C91.8542 21.202 92.5402 21.4167 93.0629 21.846C93.5856 22.2753 93.8656 22.8633 93.9029 23.61H92.6289C92.6009 23.2087 92.4376 22.8867 92.1389 22.644C91.8496 22.4013 91.4576 22.28 90.9629 22.28C90.5056 22.28 90.1416 22.378 89.8709 22.574C89.6002 22.77 89.4649 23.0267 89.4649 23.344C89.4649 23.596 89.5442 23.806 89.7029 23.974C89.8709 24.1327 90.0762 24.2633 90.3189 24.366C90.5709 24.4593 90.9162 24.5667 91.3549 24.688C91.9056 24.8373 92.3536 24.9867 92.6989 25.136C93.0442 25.276 93.3382 25.4907 93.5809 25.78C93.8329 26.0693 93.9636 26.4473 93.9729 26.914C93.9729 27.334 93.8562 27.712 93.6229 28.048C93.3896 28.384 93.0582 28.65 92.6289 28.846C92.2089 29.0327 91.7236 29.126 91.1729 29.126ZM97.3254 22.378V26.9C97.3254 27.2733 97.4047 27.5393 97.5634 27.698C97.722 27.8473 97.9974 27.922 98.3894 27.922H99.3274V29H98.1794C97.47 29 96.938 28.8367 96.5834 28.51C96.2287 28.1833 96.0514 27.6467 96.0514 26.9V22.378H95.0574V21.328H96.0514V19.396H97.3254V21.328H99.3274V22.378H97.3254ZM107.319 29.126C106.731 29.126 106.204 29.028 105.737 28.832C105.271 28.6267 104.902 28.3467 104.631 27.992C104.361 27.628 104.211 27.2127 104.183 26.746H105.499C105.537 27.1287 105.714 27.4413 106.031 27.684C106.358 27.9267 106.783 28.048 107.305 28.048C107.791 28.048 108.173 27.9407 108.453 27.726C108.733 27.5113 108.873 27.2407 108.873 26.914C108.873 26.578 108.724 26.3307 108.425 26.172C108.127 26.004 107.665 25.8407 107.039 25.682C106.47 25.5327 106.003 25.3833 105.639 25.234C105.285 25.0753 104.977 24.8467 104.715 24.548C104.463 24.24 104.337 23.8387 104.337 23.344C104.337 22.952 104.454 22.5927 104.687 22.266C104.921 21.9393 105.252 21.6827 105.681 21.496C106.111 21.3 106.601 21.202 107.151 21.202C108.001 21.202 108.687 21.4167 109.209 21.846C109.732 22.2753 110.012 22.8633 110.049 23.61H108.775C108.747 23.2087 108.584 22.8867 108.285 22.644C107.996 22.4013 107.604 22.28 107.109 22.28C106.652 22.28 106.288 22.378 106.017 22.574C105.747 22.77 105.611 23.0267 105.611 23.344C105.611 23.596 105.691 23.806 105.849 23.974C106.017 24.1327 106.223 24.2633 106.465 24.366C106.717 24.4593 107.063 24.5667 107.501 24.688C108.052 24.8373 108.5 24.9867 108.845 25.136C109.191 25.276 109.485 25.4907 109.727 25.78C109.979 26.0693 110.11 26.4473 110.119 26.914C110.119 27.334 110.003 27.712 109.769 28.048C109.536 28.384 109.205 28.65 108.775 28.846C108.355 29.0327 107.87 29.126 107.319 29.126ZM115.264 29.126C114.545 29.126 113.892 28.9627 113.304 28.636C112.725 28.3093 112.268 27.8473 111.932 27.25C111.605 26.6433 111.442 25.9433 111.442 25.15C111.442 24.366 111.61 23.6753 111.946 23.078C112.291 22.4713 112.758 22.0093 113.346 21.692C113.934 21.3653 114.592 21.202 115.32 21.202C116.048 21.202 116.706 21.3653 117.294 21.692C117.882 22.0093 118.344 22.4667 118.68 23.064C119.025 23.6613 119.198 24.3567 119.198 25.15C119.198 25.9433 119.021 26.6433 118.666 27.25C118.321 27.8473 117.849 28.3093 117.252 28.636C116.655 28.9627 115.992 29.126 115.264 29.126ZM115.264 28.006C115.721 28.006 116.151 27.8987 116.552 27.684C116.953 27.4693 117.275 27.1473 117.518 26.718C117.77 26.2887 117.896 25.766 117.896 25.15C117.896 24.534 117.775 24.0113 117.532 23.582C117.289 23.1527 116.972 22.8353 116.58 22.63C116.188 22.4153 115.763 22.308 115.306 22.308C114.839 22.308 114.41 22.4153 114.018 22.63C113.635 22.8353 113.327 23.1527 113.094 23.582C112.861 24.0113 112.744 24.534 112.744 25.15C112.744 25.7753 112.856 26.3027 113.08 26.732C113.313 27.1613 113.621 27.4833 114.004 27.698C114.387 27.9033 114.807 28.006 115.264 28.006ZM130.099 21.188C130.696 21.188 131.228 21.314 131.695 21.566C132.162 21.8087 132.53 22.1773 132.801 22.672C133.072 23.1667 133.207 23.7687 133.207 24.478V29H131.947V24.66C131.947 23.8947 131.756 23.3113 131.373 22.91C131 22.4993 130.491 22.294 129.847 22.294C129.184 22.294 128.657 22.5087 128.265 22.938C127.873 23.358 127.677 23.9693 127.677 24.772V29H126.417V24.66C126.417 23.8947 126.226 23.3113 125.843 22.91C125.47 22.4993 124.961 22.294 124.317 22.294C123.654 22.294 123.127 22.5087 122.735 22.938C122.343 23.358 122.147 23.9693 122.147 24.772V29H120.873V21.328H122.147V22.434C122.399 22.0327 122.735 21.7247 123.155 21.51C123.584 21.2953 124.056 21.188 124.569 21.188C125.213 21.188 125.782 21.3327 126.277 21.622C126.772 21.9113 127.14 22.336 127.383 22.896C127.598 22.3547 127.952 21.9347 128.447 21.636C128.942 21.3373 129.492 21.188 130.099 21.188ZM142.297 24.87C142.297 25.1127 142.283 25.3693 142.255 25.64H136.123C136.169 26.396 136.426 26.9887 136.893 27.418C137.369 27.838 137.943 28.048 138.615 28.048C139.165 28.048 139.623 27.922 139.987 27.67C140.36 27.4087 140.621 27.0633 140.771 26.634H142.143C141.937 27.3713 141.527 27.9733 140.911 28.44C140.295 28.8973 139.529 29.126 138.615 29.126C137.887 29.126 137.233 28.9627 136.655 28.636C136.085 28.3093 135.637 27.8473 135.311 27.25C134.984 26.6433 134.821 25.9433 134.821 25.15C134.821 24.3567 134.979 23.6613 135.297 23.064C135.614 22.4667 136.057 22.0093 136.627 21.692C137.205 21.3653 137.868 21.202 138.615 21.202C139.343 21.202 139.987 21.3607 140.547 21.678C141.107 21.9953 141.536 22.434 141.835 22.994C142.143 23.5447 142.297 24.17 142.297 24.87ZM140.981 24.604C140.981 24.1187 140.873 23.7033 140.659 23.358C140.444 23.0033 140.15 22.7373 139.777 22.56C139.413 22.3733 139.007 22.28 138.559 22.28C137.915 22.28 137.364 22.4853 136.907 22.896C136.459 23.3067 136.202 23.876 136.137 24.604H140.981ZM148.369 20.082C148.126 20.082 147.921 19.998 147.753 19.83C147.585 19.662 147.501 19.4567 147.501 19.214C147.501 18.9713 147.585 18.766 147.753 18.598C147.921 18.43 148.126 18.346 148.369 18.346C148.602 18.346 148.798 18.43 148.957 18.598C149.125 18.766 149.209 18.9713 149.209 19.214C149.209 19.4567 149.125 19.662 148.957 19.83C148.798 19.998 148.602 20.082 148.369 20.082ZM148.985 21.328V29H147.711V21.328H148.985ZM154.894 21.188C155.827 21.188 156.583 21.4727 157.162 22.042C157.741 22.602 158.03 23.414 158.03 24.478V29H156.77V24.66C156.77 23.8947 156.579 23.3113 156.196 22.91C155.813 22.4993 155.291 22.294 154.628 22.294C153.956 22.294 153.419 22.504 153.018 22.924C152.626 23.344 152.43 23.9553 152.43 24.758V29H151.156V21.328H152.43V22.42C152.682 22.028 153.023 21.7247 153.452 21.51C153.891 21.2953 154.371 21.188 154.894 21.188ZM163.233 22.378H161.623V29H160.349V22.378H159.355V21.328H160.349V20.782C160.349 19.9233 160.569 19.298 161.007 18.906C161.455 18.5047 162.169 18.304 163.149 18.304V19.368C162.589 19.368 162.193 19.48 161.959 19.704C161.735 19.9187 161.623 20.278 161.623 20.782V21.328H163.233V22.378ZM168.065 29.126C167.346 29.126 166.693 28.9627 166.105 28.636C165.526 28.3093 165.069 27.8473 164.733 27.25C164.406 26.6433 164.243 25.9433 164.243 25.15C164.243 24.366 164.411 23.6753 164.747 23.078C165.092 22.4713 165.559 22.0093 166.147 21.692C166.735 21.3653 167.393 21.202 168.121 21.202C168.849 21.202 169.507 21.3653 170.095 21.692C170.683 22.0093 171.145 22.4667 171.481 23.064C171.826 23.6613 171.999 24.3567 171.999 25.15C171.999 25.9433 171.821 26.6433 171.467 27.25C171.121 27.8473 170.65 28.3093 170.053 28.636C169.455 28.9627 168.793 29.126 168.065 29.126ZM168.065 28.006C168.522 28.006 168.951 27.8987 169.353 27.684C169.754 27.4693 170.076 27.1473 170.319 26.718C170.571 26.2887 170.697 25.766 170.697 25.15C170.697 24.534 170.575 24.0113 170.333 23.582C170.09 23.1527 169.773 22.8353 169.381 22.63C168.989 22.4153 168.564 22.308 168.107 22.308C167.64 22.308 167.211 22.4153 166.819 22.63C166.436 22.8353 166.128 23.1527 165.895 23.582C165.661 24.0113 165.545 24.534 165.545 25.15C165.545 25.7753 165.657 26.3027 165.881 26.732C166.114 27.1613 166.422 27.4833 166.805 27.698C167.187 27.9033 167.607 28.006 168.065 28.006ZM174.948 22.574C175.172 22.1353 175.489 21.7947 175.9 21.552C176.32 21.3093 176.828 21.188 177.426 21.188V22.504H177.09C175.662 22.504 174.948 23.2787 174.948 24.828V29H173.674V21.328H174.948V22.574ZM188.122 21.188C188.72 21.188 189.252 21.314 189.718 21.566C190.185 21.8087 190.554 22.1773 190.824 22.672C191.095 23.1667 191.23 23.7687 191.23 24.478V29H189.97V24.66C189.97 23.8947 189.779 23.3113 189.396 22.91C189.023 22.4993 188.514 22.294 187.87 22.294C187.208 22.294 186.68 22.5087 186.288 22.938C185.896 23.358 185.7 23.9693 185.7 24.772V29H184.44V24.66C184.44 23.8947 184.249 23.3113 183.866 22.91C183.493 22.4993 182.984 22.294 182.34 22.294C181.678 22.294 181.15 22.5087 180.758 22.938C180.366 23.358 180.17 23.9693 180.17 24.772V29H178.896V21.328H180.17V22.434C180.422 22.0327 180.758 21.7247 181.178 21.51C181.608 21.2953 182.079 21.188 182.592 21.188C183.236 21.188 183.806 21.3327 184.3 21.622C184.795 21.9113 185.164 22.336 185.406 22.896C185.621 22.3547 185.976 21.9347 186.47 21.636C186.965 21.3373 187.516 21.188 188.122 21.188ZM192.844 25.136C192.844 24.352 193.003 23.666 193.32 23.078C193.638 22.4807 194.072 22.0187 194.622 21.692C195.182 21.3653 195.803 21.202 196.484 21.202C197.156 21.202 197.74 21.3467 198.234 21.636C198.729 21.9253 199.098 22.2893 199.34 22.728V21.328H200.628V29H199.34V27.572C199.088 28.02 198.71 28.3933 198.206 28.692C197.712 28.9813 197.133 29.126 196.47 29.126C195.789 29.126 195.173 28.958 194.622 28.622C194.072 28.286 193.638 27.8147 193.32 27.208C193.003 26.6013 192.844 25.9107 192.844 25.136ZM199.34 25.15C199.34 24.5713 199.224 24.0673 198.99 23.638C198.757 23.2087 198.44 22.882 198.038 22.658C197.646 22.4247 197.212 22.308 196.736 22.308C196.26 22.308 195.826 22.42 195.434 22.644C195.042 22.868 194.73 23.1947 194.496 23.624C194.263 24.0533 194.146 24.5573 194.146 25.136C194.146 25.724 194.263 26.2373 194.496 26.676C194.73 27.1053 195.042 27.4367 195.434 27.67C195.826 27.894 196.26 28.006 196.736 28.006C197.212 28.006 197.646 27.894 198.038 27.67C198.44 27.4367 198.757 27.1053 198.99 26.676C199.224 26.2373 199.34 25.7287 199.34 25.15ZM204.335 22.378V26.9C204.335 27.2733 204.414 27.5393 204.573 27.698C204.732 27.8473 205.007 27.922 205.399 27.922H206.337V29H205.189C204.48 29 203.948 28.8367 203.593 28.51C203.238 28.1833 203.061 27.6467 203.061 26.9V22.378H202.067V21.328H203.061V19.396H204.335V21.328H206.337V22.378H204.335ZM208.539 20.082C208.296 20.082 208.091 19.998 207.923 19.83C207.755 19.662 207.671 19.4567 207.671 19.214C207.671 18.9713 207.755 18.766 207.923 18.598C208.091 18.43 208.296 18.346 208.539 18.346C208.772 18.346 208.968 18.43 209.127 18.598C209.295 18.766 209.379 18.9713 209.379 19.214C209.379 19.4567 209.295 19.662 209.127 19.83C208.968 19.998 208.772 20.082 208.539 20.082ZM209.155 21.328V29H207.881V21.328H209.155ZM214.672 29.126C213.953 29.126 213.3 28.9627 212.712 28.636C212.133 28.3093 211.676 27.8473 211.34 27.25C211.013 26.6433 210.85 25.9433 210.85 25.15C210.85 24.366 211.018 23.6753 211.354 23.078C211.699 22.4713 212.166 22.0093 212.754 21.692C213.342 21.3653 214 21.202 214.728 21.202C215.456 21.202 216.114 21.3653 216.702 21.692C217.29 22.0093 217.752 22.4667 218.088 23.064C218.433 23.6613 218.606 24.3567 218.606 25.15C218.606 25.9433 218.429 26.6433 218.074 27.25C217.729 27.8473 217.257 28.3093 216.66 28.636C216.063 28.9627 215.4 29.126 214.672 29.126ZM214.672 28.006C215.129 28.006 215.559 27.8987 215.96 27.684C216.361 27.4693 216.683 27.1473 216.926 26.718C217.178 26.2887 217.304 25.766 217.304 25.15C217.304 24.534 217.183 24.0113 216.94 23.582C216.697 23.1527 216.38 22.8353 215.988 22.63C215.596 22.4153 215.171 22.308 214.714 22.308C214.247 22.308 213.818 22.4153 213.426 22.63C213.043 22.8353 212.735 23.1527 212.502 23.582C212.269 24.0113 212.152 24.534 212.152 25.15C212.152 25.7753 212.264 26.3027 212.488 26.732C212.721 27.1613 213.029 27.4833 213.412 27.698C213.795 27.9033 214.215 28.006 214.672 28.006ZM224.019 21.188C224.952 21.188 225.708 21.4727 226.287 22.042C226.866 22.602 227.155 23.414 227.155 24.478V29H225.895V24.66C225.895 23.8947 225.704 23.3113 225.321 22.91C224.938 22.4993 224.416 22.294 223.753 22.294C223.081 22.294 222.544 22.504 222.143 22.924C221.751 23.344 221.555 23.9553 221.555 24.758V29H220.281V21.328H221.555V22.42C221.807 22.028 222.148 21.7247 222.577 21.51C223.016 21.2953 223.496 21.188 224.019 21.188ZM239.969 24.87C239.969 25.1127 239.955 25.3693 239.927 25.64H233.795C233.841 26.396 234.098 26.9887 234.565 27.418C235.041 27.838 235.615 28.048 236.287 28.048C236.837 28.048 237.295 27.922 237.659 27.67C238.032 27.4087 238.293 27.0633 238.443 26.634H239.815C239.609 27.3713 239.199 27.9733 238.583 28.44C237.967 28.8973 237.201 29.126 236.287 29.126C235.559 29.126 234.905 28.9627 234.327 28.636C233.757 28.3093 233.309 27.8473 232.983 27.25C232.656 26.6433 232.493 25.9433 232.493 25.15C232.493 24.3567 232.651 23.6613 232.969 23.064C233.286 22.4667 233.729 22.0093 234.299 21.692C234.877 21.3653 235.54 21.202 236.287 21.202C237.015 21.202 237.659 21.3607 238.219 21.678C238.779 21.9953 239.208 22.434 239.507 22.994C239.815 23.5447 239.969 24.17 239.969 24.87ZM238.653 24.604C238.653 24.1187 238.545 23.7033 238.331 23.358C238.116 23.0033 237.822 22.7373 237.449 22.56C237.085 22.3733 236.679 22.28 236.231 22.28C235.587 22.28 235.036 22.4853 234.579 22.896C234.131 23.3067 233.874 23.876 233.809 24.604H238.653ZM245.654 29L243.834 26.144L242.084 29H240.754L243.232 25.192L240.754 21.328H242.196L244.016 24.17L245.752 21.328H247.082L244.618 25.122L247.096 29H245.654ZM247.873 25.136C247.873 24.352 248.032 23.666 248.349 23.078C248.667 22.4807 249.101 22.0187 249.651 21.692C250.211 21.3653 250.832 21.202 251.513 21.202C252.185 21.202 252.769 21.3467 253.263 21.636C253.758 21.9253 254.127 22.2893 254.369 22.728V21.328H255.657V29H254.369V27.572C254.117 28.02 253.739 28.3933 253.235 28.692C252.741 28.9813 252.162 29.126 251.499 29.126C250.818 29.126 250.202 28.958 249.651 28.622C249.101 28.286 248.667 27.8147 248.349 27.208C248.032 26.6013 247.873 25.9107 247.873 25.136ZM254.369 25.15C254.369 24.5713 254.253 24.0673 254.019 23.638C253.786 23.2087 253.469 22.882 253.067 22.658C252.675 22.4247 252.241 22.308 251.765 22.308C251.289 22.308 250.855 22.42 250.463 22.644C250.071 22.868 249.759 23.1947 249.525 23.624C249.292 24.0533 249.175 24.5573 249.175 25.136C249.175 25.724 249.292 26.2373 249.525 26.676C249.759 27.1053 250.071 27.4367 250.463 27.67C250.855 27.894 251.289 28.006 251.765 28.006C252.241 28.006 252.675 27.894 253.067 27.67C253.469 27.4367 253.786 27.1053 254.019 26.676C254.253 26.2373 254.369 25.7287 254.369 25.15ZM267.036 21.188C267.634 21.188 268.166 21.314 268.632 21.566C269.099 21.8087 269.468 22.1773 269.738 22.672C270.009 23.1667 270.144 23.7687 270.144 24.478V29H268.884V24.66C268.884 23.8947 268.693 23.3113 268.31 22.91C267.937 22.4993 267.428 22.294 266.784 22.294C266.122 22.294 265.594 22.5087 265.202 22.938C264.81 23.358 264.614 23.9693 264.614 24.772V29H263.354V24.66C263.354 23.8947 263.163 23.3113 262.78 22.91C262.407 22.4993 261.898 22.294 261.254 22.294C260.592 22.294 260.064 22.5087 259.672 22.938C259.28 23.358 259.084 23.9693 259.084 24.772V29H257.81V21.328H259.084V22.434C259.336 22.0327 259.672 21.7247 260.092 21.51C260.522 21.2953 260.993 21.188 261.506 21.188C262.15 21.188 262.72 21.3327 263.214 21.622C263.709 21.9113 264.078 22.336 264.32 22.896C264.535 22.3547 264.89 21.9347 265.384 21.636C265.879 21.3373 266.43 21.188 267.036 21.188ZM273.508 22.742C273.76 22.3033 274.134 21.9393 274.628 21.65C275.132 21.3513 275.716 21.202 276.378 21.202C277.06 21.202 277.676 21.3653 278.226 21.692C278.786 22.0187 279.225 22.4807 279.542 23.078C279.86 23.666 280.018 24.352 280.018 25.136C280.018 25.9107 279.86 26.6013 279.542 27.208C279.225 27.8147 278.786 28.286 278.226 28.622C277.676 28.958 277.06 29.126 276.378 29.126C275.725 29.126 275.146 28.9813 274.642 28.692C274.148 28.3933 273.77 28.0247 273.508 27.586V32.64H272.234V21.328H273.508V22.742ZM278.716 25.136C278.716 24.5573 278.6 24.0533 278.366 23.624C278.133 23.1947 277.816 22.868 277.414 22.644C277.022 22.42 276.588 22.308 276.112 22.308C275.646 22.308 275.212 22.4247 274.81 22.658C274.418 22.882 274.101 23.2133 273.858 23.652C273.625 24.0813 273.508 24.5807 273.508 25.15C273.508 25.7287 273.625 26.2373 273.858 26.676C274.101 27.1053 274.418 27.4367 274.81 27.67C275.212 27.894 275.646 28.006 276.112 28.006C276.588 28.006 277.022 27.894 277.414 27.67C277.816 27.4367 278.133 27.1053 278.366 26.676C278.6 26.2373 278.716 25.724 278.716 25.136ZM282.969 18.64V29H281.695V18.64H282.969ZM292.141 24.87C292.141 25.1127 292.127 25.3693 292.099 25.64H285.967C286.013 26.396 286.27 26.9887 286.737 27.418C287.213 27.838 287.787 28.048 288.459 28.048C289.009 28.048 289.467 27.922 289.831 27.67C290.204 27.4087 290.465 27.0633 290.615 26.634H291.987C291.781 27.3713 291.371 27.9733 290.755 28.44C290.139 28.8973 289.373 29.126 288.459 29.126C287.731 29.126 287.077 28.9627 286.499 28.636C285.929 28.3093 285.481 27.8473 285.155 27.25C284.828 26.6433 284.665 25.9433 284.665 25.15C284.665 24.3567 284.823 23.6613 285.141 23.064C285.458 22.4667 285.901 22.0093 286.471 21.692C287.049 21.3653 287.712 21.202 288.459 21.202C289.187 21.202 289.831 21.3607 290.391 21.678C290.951 21.9953 291.38 22.434 291.679 22.994C291.987 23.5447 292.141 24.17 292.141 24.87ZM290.825 24.604C290.825 24.1187 290.717 23.7033 290.503 23.358C290.288 23.0033 289.994 22.7373 289.621 22.56C289.257 22.3733 288.851 22.28 288.403 22.28C287.759 22.28 287.208 22.4853 286.751 22.896C286.303 23.3067 286.046 23.876 285.981 24.604H290.825ZM298.829 18.64V29H297.555V18.64H298.829ZM304.346 29.126C303.627 29.126 302.974 28.9627 302.386 28.636C301.807 28.3093 301.35 27.8473 301.014 27.25C300.687 26.6433 300.524 25.9433 300.524 25.15C300.524 24.366 300.692 23.6753 301.028 23.078C301.373 22.4713 301.84 22.0093 302.428 21.692C303.016 21.3653 303.674 21.202 304.402 21.202C305.13 21.202 305.788 21.3653 306.376 21.692C306.964 22.0093 307.426 22.4667 307.762 23.064C308.107 23.6613 308.28 24.3567 308.28 25.15C308.28 25.9433 308.103 26.6433 307.748 27.25C307.403 27.8473 306.931 28.3093 306.334 28.636C305.737 28.9627 305.074 29.126 304.346 29.126ZM304.346 28.006C304.803 28.006 305.233 27.8987 305.634 27.684C306.035 27.4693 306.357 27.1473 306.6 26.718C306.852 26.2887 306.978 25.766 306.978 25.15C306.978 24.534 306.857 24.0113 306.614 23.582C306.371 23.1527 306.054 22.8353 305.662 22.63C305.27 22.4153 304.845 22.308 304.388 22.308C303.921 22.308 303.492 22.4153 303.1 22.63C302.717 22.8353 302.409 23.1527 302.176 23.582C301.943 24.0113 301.826 24.534 301.826 25.15C301.826 25.7753 301.938 26.3027 302.162 26.732C302.395 27.1613 302.703 27.4833 303.086 27.698C303.469 27.9033 303.889 28.006 304.346 28.006ZM313.119 21.202C313.782 21.202 314.36 21.3467 314.855 21.636C315.359 21.9253 315.732 22.2893 315.975 22.728V21.328H317.263V29.168C317.263 29.868 317.114 30.4887 316.815 31.03C316.516 31.5807 316.087 32.01 315.527 32.318C314.976 32.626 314.332 32.78 313.595 32.78C312.587 32.78 311.747 32.542 311.075 32.066C310.403 31.59 310.006 30.9413 309.885 30.12H311.145C311.285 30.5867 311.574 30.96 312.013 31.24C312.452 31.5293 312.979 31.674 313.595 31.674C314.295 31.674 314.864 31.4547 315.303 31.016C315.751 30.5773 315.975 29.9613 315.975 29.168V27.558C315.723 28.006 315.35 28.3793 314.855 28.678C314.36 28.9767 313.782 29.126 313.119 29.126C312.438 29.126 311.817 28.958 311.257 28.622C310.706 28.286 310.272 27.8147 309.955 27.208C309.638 26.6013 309.479 25.9107 309.479 25.136C309.479 24.352 309.638 23.666 309.955 23.078C310.272 22.4807 310.706 22.0187 311.257 21.692C311.817 21.3653 312.438 21.202 313.119 21.202ZM315.975 25.15C315.975 24.5713 315.858 24.0673 315.625 23.638C315.392 23.2087 315.074 22.882 314.673 22.658C314.281 22.4247 313.847 22.308 313.371 22.308C312.895 22.308 312.461 22.42 312.069 22.644C311.677 22.868 311.364 23.1947 311.131 23.624C310.898 24.0533 310.781 24.5573 310.781 25.136C310.781 25.724 310.898 26.2373 311.131 26.676C311.364 27.1053 311.677 27.4367 312.069 27.67C312.461 27.894 312.895 28.006 313.371 28.006C313.847 28.006 314.281 27.894 314.673 27.67C315.074 27.4367 315.392 27.1053 315.625 26.676C315.858 26.2373 315.975 25.7287 315.975 25.15ZM320.074 20.082C319.831 20.082 319.626 19.998 319.458 19.83C319.29 19.662 319.206 19.4567 319.206 19.214C319.206 18.9713 319.29 18.766 319.458 18.598C319.626 18.43 319.831 18.346 320.074 18.346C320.307 18.346 320.503 18.43 320.662 18.598C320.83 18.766 320.914 18.9713 320.914 19.214C320.914 19.4567 320.83 19.662 320.662 19.83C320.503 19.998 320.307 20.082 320.074 20.082ZM320.69 21.328V29H319.416V21.328H320.69ZM326.599 21.188C327.533 21.188 328.289 21.4727 328.867 22.042C329.446 22.602 329.735 23.414 329.735 24.478V29H328.475V24.66C328.475 23.8947 328.284 23.3113 327.901 22.91C327.519 22.4993 326.996 22.294 326.333 22.294C325.661 22.294 325.125 22.504 324.723 22.924C324.331 23.344 324.135 23.9553 324.135 24.758V29H322.861V21.328H324.135V22.42C324.387 22.028 324.728 21.7247 325.157 21.51C325.596 21.2953 326.077 21.188 326.599 21.188ZM338.895 29.126C338.176 29.126 337.523 28.9627 336.935 28.636C336.356 28.3093 335.899 27.8473 335.563 27.25C335.236 26.6433 335.073 25.9433 335.073 25.15C335.073 24.366 335.241 23.6753 335.577 23.078C335.922 22.4713 336.389 22.0093 336.977 21.692C337.565 21.3653 338.223 21.202 338.951 21.202C339.679 21.202 340.337 21.3653 340.925 21.692C341.513 22.0093 341.975 22.4667 342.311 23.064C342.656 23.6613 342.829 24.3567 342.829 25.15C342.829 25.9433 342.651 26.6433 342.297 27.25C341.951 27.8473 341.48 28.3093 340.883 28.636C340.285 28.9627 339.623 29.126 338.895 29.126ZM338.895 28.006C339.352 28.006 339.781 27.8987 340.183 27.684C340.584 27.4693 340.906 27.1473 341.149 26.718C341.401 26.2887 341.527 25.766 341.527 25.15C341.527 24.534 341.405 24.0113 341.163 23.582C340.92 23.1527 340.603 22.8353 340.211 22.63C339.819 22.4153 339.394 22.308 338.937 22.308C338.47 22.308 338.041 22.4153 337.649 22.63C337.266 22.8353 336.958 23.1527 336.725 23.582C336.491 24.0113 336.375 24.534 336.375 25.15C336.375 25.7753 336.487 26.3027 336.711 26.732C336.944 27.1613 337.252 27.4833 337.635 27.698C338.017 27.9033 338.437 28.006 338.895 28.006ZM345.778 22.574C346.002 22.1353 346.319 21.7947 346.73 21.552C347.15 21.3093 347.658 21.188 348.256 21.188V22.504H347.92C346.492 22.504 345.778 23.2787 345.778 24.828V29H344.504V21.328H345.778V22.574ZM74.934 47.824L77.314 41.328H78.672L75.662 49H74.178L71.168 41.328H72.54L74.934 47.824ZM86.9257 44.87C86.9257 45.1127 86.9117 45.3693 86.8837 45.64H80.7517C80.7983 46.396 81.055 46.9887 81.5217 47.418C81.9977 47.838 82.5717 48.048 83.2437 48.048C83.7943 48.048 84.2517 47.922 84.6157 47.67C84.989 47.4087 85.2503 47.0633 85.3997 46.634H86.7717C86.5663 47.3713 86.1557 47.9733 85.5397 48.44C84.9237 48.8973 84.1583 49.126 83.2437 49.126C82.5157 49.126 81.8623 48.9627 81.2837 48.636C80.7143 48.3093 80.2663 47.8473 79.9397 47.25C79.613 46.6433 79.4497 45.9433 79.4497 45.15C79.4497 44.3567 79.6083 43.6613 79.9257 43.064C80.243 42.4667 80.6863 42.0093 81.2557 41.692C81.8343 41.3653 82.497 41.202 83.2437 41.202C83.9717 41.202 84.6157 41.3607 85.1757 41.678C85.7357 41.9953 86.165 42.434 86.4637 42.994C86.7717 43.5447 86.9257 44.17 86.9257 44.87ZM85.6097 44.604C85.6097 44.1187 85.5023 43.7033 85.2877 43.358C85.073 43.0033 84.779 42.7373 84.4057 42.56C84.0417 42.3733 83.6357 42.28 83.1877 42.28C82.5437 42.28 81.993 42.4853 81.5357 42.896C81.0877 43.3067 80.831 43.876 80.7657 44.604H85.6097ZM89.8813 42.574C90.1053 42.1353 90.4226 41.7947 90.8333 41.552C91.2533 41.3093 91.762 41.188 92.3593 41.188V42.504H92.0233C90.5953 42.504 89.8813 43.2787 89.8813 44.828V49H88.6073V41.328H89.8813V42.574ZM94.488 40.082C94.2453 40.082 94.04 39.998 93.872 39.83C93.704 39.662 93.62 39.4567 93.62 39.214C93.62 38.9713 93.704 38.766 93.872 38.598C94.04 38.43 94.2453 38.346 94.488 38.346C94.7213 38.346 94.9173 38.43 95.076 38.598C95.244 38.766 95.328 38.9713 95.328 39.214C95.328 39.4567 95.244 39.662 95.076 39.83C94.9173 39.998 94.7213 40.082 94.488 40.082ZM95.104 41.328V49H93.83V41.328H95.104ZM100.397 42.378H98.7873V49H97.5133V42.378H96.5193V41.328H97.5133V40.782C97.5133 39.9233 97.7326 39.298 98.1713 38.906C98.6193 38.5047 99.3333 38.304 100.313 38.304V39.368C99.7533 39.368 99.3566 39.48 99.1233 39.704C98.8993 39.9187 98.7873 40.278 98.7873 40.782V41.328H100.397V42.378ZM102.541 40.082C102.298 40.082 102.093 39.998 101.925 39.83C101.757 39.662 101.673 39.4567 101.673 39.214C101.673 38.9713 101.757 38.766 101.925 38.598C102.093 38.43 102.298 38.346 102.541 38.346C102.774 38.346 102.97 38.43 103.129 38.598C103.297 38.766 103.381 38.9713 103.381 39.214C103.381 39.4567 103.297 39.662 103.129 39.83C102.97 39.998 102.774 40.082 102.541 40.082ZM103.157 41.328V49H101.883V41.328H103.157ZM104.852 45.15C104.852 44.3567 105.011 43.666 105.328 43.078C105.645 42.4807 106.084 42.0187 106.644 41.692C107.213 41.3653 107.862 41.202 108.59 41.202C109.533 41.202 110.307 41.4307 110.914 41.888C111.53 42.3453 111.936 42.98 112.132 43.792H110.76C110.629 43.3253 110.373 42.9567 109.99 42.686C109.617 42.4153 109.15 42.28 108.59 42.28C107.862 42.28 107.274 42.532 106.826 43.036C106.378 43.5307 106.154 44.2353 106.154 45.15C106.154 46.074 106.378 46.788 106.826 47.292C107.274 47.796 107.862 48.048 108.59 48.048C109.15 48.048 109.617 47.9173 109.99 47.656C110.363 47.3947 110.62 47.0213 110.76 46.536H112.132C111.927 47.32 111.516 47.95 110.9 48.426C110.284 48.8927 109.514 49.126 108.59 49.126C107.862 49.126 107.213 48.9627 106.644 48.636C106.084 48.3093 105.645 47.8473 105.328 47.25C105.011 46.6527 104.852 45.9527 104.852 45.15ZM113.356 45.136C113.356 44.352 113.515 43.666 113.832 43.078C114.149 42.4807 114.583 42.0187 115.134 41.692C115.694 41.3653 116.315 41.202 116.996 41.202C117.668 41.202 118.251 41.3467 118.746 41.636C119.241 41.9253 119.609 42.2893 119.852 42.728V41.328H121.14V49H119.852V47.572C119.6 48.02 119.222 48.3933 118.718 48.692C118.223 48.9813 117.645 49.126 116.982 49.126C116.301 49.126 115.685 48.958 115.134 48.622C114.583 48.286 114.149 47.8147 113.832 47.208C113.515 46.6013 113.356 45.9107 113.356 45.136ZM119.852 45.15C119.852 44.5713 119.735 44.0673 119.502 43.638C119.269 43.2087 118.951 42.882 118.55 42.658C118.158 42.4247 117.724 42.308 117.248 42.308C116.772 42.308 116.338 42.42 115.946 42.644C115.554 42.868 115.241 43.1947 115.008 43.624C114.775 44.0533 114.658 44.5573 114.658 45.136C114.658 45.724 114.775 46.2373 115.008 46.676C115.241 47.1053 115.554 47.4367 115.946 47.67C116.338 47.894 116.772 48.006 117.248 48.006C117.724 48.006 118.158 47.894 118.55 47.67C118.951 47.4367 119.269 47.1053 119.502 46.676C119.735 46.2373 119.852 45.7287 119.852 45.15ZM124.847 42.378V46.9C124.847 47.2733 124.926 47.5393 125.085 47.698C125.244 47.8473 125.519 47.922 125.911 47.922H126.849V49H125.701C124.992 49 124.46 48.8367 124.105 48.51C123.75 48.1833 123.573 47.6467 123.573 46.9V42.378H122.579V41.328H123.573V39.396H124.847V41.328H126.849V42.378H124.847ZM129.05 40.082C128.808 40.082 128.602 39.998 128.434 39.83C128.266 39.662 128.182 39.4567 128.182 39.214C128.182 38.9713 128.266 38.766 128.434 38.598C128.602 38.43 128.808 38.346 129.05 38.346C129.284 38.346 129.48 38.43 129.638 38.598C129.806 38.766 129.89 38.9713 129.89 39.214C129.89 39.4567 129.806 39.662 129.638 39.83C129.48 39.998 129.284 40.082 129.05 40.082ZM129.666 41.328V49H128.392V41.328H129.666ZM135.184 49.126C134.465 49.126 133.812 48.9627 133.224 48.636C132.645 48.3093 132.188 47.8473 131.852 47.25C131.525 46.6433 131.362 45.9433 131.362 45.15C131.362 44.366 131.53 43.6753 131.866 43.078C132.211 42.4713 132.678 42.0093 133.266 41.692C133.854 41.3653 134.512 41.202 135.24 41.202C135.968 41.202 136.626 41.3653 137.214 41.692C137.802 42.0093 138.264 42.4667 138.6 43.064C138.945 43.6613 139.118 44.3567 139.118 45.15C139.118 45.9433 138.94 46.6433 138.586 47.25C138.24 47.8473 137.769 48.3093 137.172 48.636C136.574 48.9627 135.912 49.126 135.184 49.126ZM135.184 48.006C135.641 48.006 136.07 47.8987 136.472 47.684C136.873 47.4693 137.195 47.1473 137.438 46.718C137.69 46.2887 137.816 45.766 137.816 45.15C137.816 44.534 137.694 44.0113 137.452 43.582C137.209 43.1527 136.892 42.8353 136.5 42.63C136.108 42.4153 135.683 42.308 135.226 42.308C134.759 42.308 134.33 42.4153 133.938 42.63C133.555 42.8353 133.247 43.1527 133.014 43.582C132.78 44.0113 132.664 44.534 132.664 45.15C132.664 45.7753 132.776 46.3027 133 46.732C133.233 47.1613 133.541 47.4833 133.924 47.698C134.306 47.9033 134.726 48.006 135.184 48.006ZM144.531 41.188C145.464 41.188 146.22 41.4727 146.799 42.042C147.378 42.602 147.667 43.414 147.667 44.478V49H146.407V44.66C146.407 43.8947 146.216 43.3113 145.833 42.91C145.45 42.4993 144.928 42.294 144.265 42.294C143.593 42.294 143.056 42.504 142.655 42.924C142.263 43.344 142.067 43.9553 142.067 44.758V49H140.793V41.328H142.067V42.42C142.319 42.028 142.66 41.7247 143.089 41.51C143.528 41.2953 144.008 41.188 144.531 41.188ZM160.48 44.87C160.48 45.1127 160.466 45.3693 160.438 45.64H154.306C154.353 46.396 154.61 46.9887 155.076 47.418C155.552 47.838 156.126 48.048 156.798 48.048C157.349 48.048 157.806 47.922 158.17 47.67C158.544 47.4087 158.805 47.0633 158.954 46.634H160.326C160.121 47.3713 159.71 47.9733 159.094 48.44C158.478 48.8973 157.713 49.126 156.798 49.126C156.07 49.126 155.417 48.9627 154.838 48.636C154.269 48.3093 153.821 47.8473 153.494 47.25C153.168 46.6433 153.004 45.9433 153.004 45.15C153.004 44.3567 153.163 43.6613 153.48 43.064C153.798 42.4667 154.241 42.0093 154.81 41.692C155.389 41.3653 156.052 41.202 156.798 41.202C157.526 41.202 158.17 41.3607 158.73 41.678C159.29 41.9953 159.72 42.434 160.018 42.994C160.326 43.5447 160.48 44.17 160.48 44.87ZM159.164 44.604C159.164 44.1187 159.057 43.7033 158.842 43.358C158.628 43.0033 158.334 42.7373 157.96 42.56C157.596 42.3733 157.19 42.28 156.742 42.28C156.098 42.28 155.548 42.4853 155.09 42.896C154.642 43.3067 154.386 43.876 154.32 44.604H159.164ZM163.716 42.378V46.9C163.716 47.2733 163.795 47.5393 163.954 47.698C164.113 47.8473 164.388 47.922 164.78 47.922H165.718V49H164.57C163.861 49 163.329 48.8367 162.974 48.51C162.619 48.1833 162.442 47.6467 162.442 46.9V42.378H161.448V41.328H162.442V39.396H163.716V41.328H165.718V42.378H163.716ZM166.786 45.15C166.786 44.3567 166.944 43.666 167.262 43.078C167.579 42.4807 168.018 42.0187 168.578 41.692C169.147 41.3653 169.796 41.202 170.524 41.202C171.466 41.202 172.241 41.4307 172.848 41.888C173.464 42.3453 173.87 42.98 174.066 43.792H172.694C172.563 43.3253 172.306 42.9567 171.924 42.686C171.55 42.4153 171.084 42.28 170.524 42.28C169.796 42.28 169.208 42.532 168.76 43.036C168.312 43.5307 168.088 44.2353 168.088 45.15C168.088 46.074 168.312 46.788 168.76 47.292C169.208 47.796 169.796 48.048 170.524 48.048C171.084 48.048 171.55 47.9173 171.924 47.656C172.297 47.3947 172.554 47.0213 172.694 46.536H174.066C173.86 47.32 173.45 47.95 172.834 48.426C172.218 48.8927 171.448 49.126 170.524 49.126C169.796 49.126 169.147 48.9627 168.578 48.636C168.018 48.3093 167.579 47.8473 167.262 47.25C166.944 46.6527 166.786 45.9527 166.786 45.15Z" fill="#3A3A3A"/>
</g>
<defs>
<filter id="filter0_d_557_3776" x="0.5" y="0" width="385" height="72" filterUnits="userSpaceOnUse" color-interpolation-filters="sRGB">
<feFlood flood-opacity="0" result="BackgroundImageFix"/>
<feColorMatrix in="SourceAlpha" type="matrix" values="0 0 0 0 0 0 0 0 0 0 0 0 0 0 0 0 0 0 127 0" result="hardAlpha"/>
<feOffset dx="1.5" dy="2"/>
<feGaussianBlur stdDeviation="4"/>
<feComposite in2="hardAlpha" operator="out"/>
<feColorMatrix type="matrix" values="0 0 0 0 0 0 0 0 0 0 0 0 0 0 0 0 0 0 0.25 0"/>
<feBlend mode="normal" in2="BackgroundImageFix" result="effect1_dropShadow_557_3776"/>
<feBlend mode="normal" in="SourceGraphic" in2="effect1_dropShadow_557_3776" result="shape"/>
</filter>
</defs>
</svg>
