<svg width="386" height="78" viewBox="0 0 386 78" fill="none" xmlns="http://www.w3.org/2000/svg">
<g filter="url(#filter0_d_557_3773)">
<rect x="7.25" y="6.25" width="368.5" height="61.5" rx="7.75" stroke="#65AF8C" stroke-width="0.5" shape-rendering="crispEdges"/>
<path d="M7 14C7 9.58172 10.5817 6 15 6H63V68H15C10.5817 68 7 64.4183 7 60V14Z" fill="#198754"/>
<path fill-rule="evenodd" clip-rule="evenodd" d="M35 25C28.35 25 23 30.35 23 37C23 43.65 28.35 49 35 49C41.65 49 47 43.65 47 37C47 30.35 41.65 25 35 25ZM41.7003 34.0005L34.0503 41.7505C33.7503 42.0505 33.2503 42.0505 32.9503 41.7505L28.7503 37.5005C28.4503 37.2005 28.4503 36.7005 28.7503 36.4005L29.8503 35.3005C30.1503 35.0005 30.6503 35.0005 30.9503 35.3005L33.1503 37.5505C33.3503 37.7505 33.7003 37.7505 33.9003 37.5505L39.5003 31.7505C39.8003 31.4505 40.3003 31.4505 40.6003 31.7505L41.7003 32.8505C42.0503 33.1505 42.0503 33.6505 41.7003 34.0005Z" fill="white"/>
<path d="M76.472 33.126C75.632 33.126 74.876 32.982 74.204 32.694C73.532 32.394 73.004 31.974 72.62 31.434C72.236 30.894 72.044 30.264 72.044 29.544H74.24C74.288 30.084 74.498 30.528 74.87 30.876C75.254 31.224 75.788 31.398 76.472 31.398C77.18 31.398 77.732 31.23 78.128 30.894C78.524 30.546 78.722 30.102 78.722 29.562C78.722 29.142 78.596 28.8 78.344 28.536C78.104 28.272 77.798 28.068 77.426 27.924C77.066 27.78 76.562 27.624 75.914 27.456C75.098 27.24 74.432 27.024 73.916 26.808C73.412 26.58 72.98 26.232 72.62 25.764C72.26 25.296 72.08 24.672 72.08 23.892C72.08 23.172 72.26 22.542 72.62 22.002C72.98 21.462 73.484 21.048 74.132 20.76C74.78 20.472 75.53 20.328 76.382 20.328C77.594 20.328 78.584 20.634 79.352 21.246C80.132 21.846 80.564 22.674 80.648 23.73H78.38C78.344 23.274 78.128 22.884 77.732 22.56C77.336 22.236 76.814 22.074 76.166 22.074C75.578 22.074 75.098 22.224 74.726 22.524C74.354 22.824 74.168 23.256 74.168 23.82C74.168 24.204 74.282 24.522 74.51 24.774C74.75 25.014 75.05 25.206 75.41 25.35C75.77 25.494 76.262 25.65 76.886 25.818C77.714 26.046 78.386 26.274 78.902 26.502C79.43 26.73 79.874 27.084 80.234 27.564C80.606 28.032 80.792 28.662 80.792 29.454C80.792 30.09 80.618 30.69 80.27 31.254C79.934 31.818 79.436 32.274 78.776 32.622C78.128 32.958 77.36 33.126 76.472 33.126ZM92.1953 23.082V33H90.1433V31.83C89.8193 32.238 89.3933 32.562 88.8653 32.802C88.3493 33.03 87.7973 33.144 87.2093 33.144C86.4293 33.144 85.7273 32.982 85.1033 32.658C84.4913 32.334 84.0053 31.854 83.6453 31.218C83.2973 30.582 83.1233 29.814 83.1233 28.914V23.082H85.1573V28.608C85.1573 29.496 85.3793 30.18 85.8233 30.66C86.2673 31.128 86.8733 31.362 87.6413 31.362C88.4093 31.362 89.0153 31.128 89.4593 30.66C89.9153 30.18 90.1433 29.496 90.1433 28.608V23.082H92.1953ZM94.2187 28.032C94.2187 27.012 94.4227 26.118 94.8307 25.35C95.2507 24.57 95.8267 23.97 96.5587 23.55C97.2907 23.13 98.1307 22.92 99.0787 22.92C100.279 22.92 101.269 23.208 102.049 23.784C102.841 24.348 103.375 25.158 103.651 26.214H101.437C101.257 25.722 100.969 25.338 100.573 25.062C100.177 24.786 99.6787 24.648 99.0787 24.648C98.2387 24.648 97.5667 24.948 97.0627 25.548C96.5707 26.136 96.3247 26.964 96.3247 28.032C96.3247 29.1 96.5707 29.934 97.0627 30.534C97.5667 31.134 98.2387 31.434 99.0787 31.434C100.267 31.434 101.053 30.912 101.437 29.868H103.651C103.363 30.876 102.823 31.68 102.031 32.28C101.239 32.868 100.255 33.162 99.0787 33.162C98.1307 33.162 97.2907 32.952 96.5587 32.532C95.8267 32.1 95.2507 31.5 94.8307 30.732C94.4227 29.952 94.2187 29.052 94.2187 28.032ZM105.012 28.032C105.012 27.012 105.216 26.118 105.624 25.35C106.044 24.57 106.62 23.97 107.352 23.55C108.084 23.13 108.924 22.92 109.872 22.92C111.072 22.92 112.062 23.208 112.842 23.784C113.634 24.348 114.168 25.158 114.444 26.214H112.23C112.05 25.722 111.762 25.338 111.366 25.062C110.97 24.786 110.472 24.648 109.872 24.648C109.032 24.648 108.36 24.948 107.856 25.548C107.364 26.136 107.118 26.964 107.118 28.032C107.118 29.1 107.364 29.934 107.856 30.534C108.36 31.134 109.032 31.434 109.872 31.434C111.06 31.434 111.846 30.912 112.23 29.868H114.444C114.156 30.876 113.616 31.68 112.824 32.28C112.032 32.868 111.048 33.162 109.872 33.162C108.924 33.162 108.084 32.952 107.352 32.532C106.62 32.1 106.044 31.5 105.624 30.732C105.216 29.952 105.012 29.052 105.012 28.032ZM125.579 27.798C125.579 28.17 125.555 28.506 125.507 28.806H117.929C117.989 29.598 118.283 30.234 118.811 30.714C119.339 31.194 119.987 31.434 120.755 31.434C121.859 31.434 122.639 30.972 123.095 30.048H125.309C125.009 30.96 124.463 31.71 123.671 32.298C122.891 32.874 121.919 33.162 120.755 33.162C119.807 33.162 118.955 32.952 118.199 32.532C117.455 32.1 116.867 31.5 116.435 30.732C116.015 29.952 115.805 29.052 115.805 28.032C115.805 27.012 116.009 26.118 116.417 25.35C116.837 24.57 117.419 23.97 118.163 23.55C118.919 23.13 119.783 22.92 120.755 22.92C121.691 22.92 122.525 23.124 123.257 23.532C123.989 23.94 124.559 24.516 124.967 25.26C125.375 25.992 125.579 26.838 125.579 27.798ZM123.437 27.15C123.425 26.394 123.155 25.788 122.627 25.332C122.099 24.876 121.445 24.648 120.665 24.648C119.957 24.648 119.351 24.876 118.847 25.332C118.343 25.776 118.043 26.382 117.947 27.15H123.437ZM131.198 33.162C130.418 33.162 129.716 33.024 129.092 32.748C128.48 32.46 127.994 32.076 127.634 31.596C127.274 31.104 127.082 30.558 127.058 29.958H129.182C129.218 30.378 129.416 30.732 129.776 31.02C130.148 31.296 130.61 31.434 131.162 31.434C131.738 31.434 132.182 31.326 132.494 31.11C132.818 30.882 132.98 30.594 132.98 30.246C132.98 29.874 132.8 29.598 132.44 29.418C132.092 29.238 131.534 29.04 130.766 28.824C130.022 28.62 129.416 28.422 128.948 28.23C128.48 28.038 128.072 27.744 127.724 27.348C127.388 26.952 127.22 26.43 127.22 25.782C127.22 25.254 127.376 24.774 127.688 24.342C128 23.898 128.444 23.55 129.02 23.298C129.608 23.046 130.28 22.92 131.036 22.92C132.164 22.92 133.07 23.208 133.754 23.784C134.45 24.348 134.822 25.122 134.87 26.106H132.818C132.782 25.662 132.602 25.308 132.278 25.044C131.954 24.78 131.516 24.648 130.964 24.648C130.424 24.648 130.01 24.75 129.722 24.954C129.434 25.158 129.29 25.428 129.29 25.764C129.29 26.028 129.386 26.25 129.578 26.43C129.77 26.61 130.004 26.754 130.28 26.862C130.556 26.958 130.964 27.084 131.504 27.24C132.224 27.432 132.812 27.63 133.268 27.834C133.736 28.026 134.138 28.314 134.474 28.698C134.81 29.082 134.984 29.592 134.996 30.228C134.996 30.792 134.84 31.296 134.528 31.74C134.216 32.184 133.772 32.532 133.196 32.784C132.632 33.036 131.966 33.162 131.198 33.162ZM140.813 33.162C140.033 33.162 139.331 33.024 138.707 32.748C138.095 32.46 137.609 32.076 137.249 31.596C136.889 31.104 136.697 30.558 136.673 29.958H138.797C138.833 30.378 139.031 30.732 139.391 31.02C139.763 31.296 140.225 31.434 140.777 31.434C141.353 31.434 141.797 31.326 142.109 31.11C142.433 30.882 142.595 30.594 142.595 30.246C142.595 29.874 142.415 29.598 142.055 29.418C141.707 29.238 141.149 29.04 140.381 28.824C139.637 28.62 139.031 28.422 138.563 28.23C138.095 28.038 137.687 27.744 137.339 27.348C137.003 26.952 136.835 26.43 136.835 25.782C136.835 25.254 136.991 24.774 137.303 24.342C137.615 23.898 138.059 23.55 138.635 23.298C139.223 23.046 139.895 22.92 140.651 22.92C141.779 22.92 142.685 23.208 143.369 23.784C144.065 24.348 144.437 25.122 144.485 26.106H142.433C142.397 25.662 142.217 25.308 141.893 25.044C141.569 24.78 141.131 24.648 140.579 24.648C140.039 24.648 139.625 24.75 139.337 24.954C139.049 25.158 138.905 25.428 138.905 25.764C138.905 26.028 139.001 26.25 139.193 26.43C139.385 26.61 139.619 26.754 139.895 26.862C140.171 26.958 140.579 27.084 141.119 27.24C141.839 27.432 142.427 27.63 142.883 27.834C143.351 28.026 143.753 28.314 144.089 28.698C144.425 29.082 144.599 29.592 144.611 30.228C144.611 30.792 144.455 31.296 144.143 31.74C143.831 32.184 143.387 32.532 142.811 32.784C142.247 33.036 141.581 33.162 140.813 33.162ZM149.403 20.49L149.169 29.22H147.459L147.225 20.49H149.403ZM148.377 33.126C148.005 33.126 147.693 33 147.441 32.748C147.189 32.496 147.063 32.184 147.063 31.812C147.063 31.44 147.189 31.128 147.441 30.876C147.693 30.624 148.005 30.498 148.377 30.498C148.737 30.498 149.043 30.624 149.295 30.876C149.547 31.128 149.673 31.44 149.673 31.812C149.673 32.184 149.547 32.496 149.295 32.748C149.043 33 148.737 33.126 148.377 33.126Z" fill="#3A3A3A"/>
<path d="M71.602 50.114C71.602 49.162 71.8167 48.308 72.246 47.552C72.6753 46.7867 73.2587 46.1893 73.996 45.76C74.7427 45.3307 75.5687 45.116 76.474 45.116C77.538 45.116 78.4667 45.3727 79.26 45.886C80.0533 46.3993 80.632 47.1273 80.996 48.07H79.47C79.1993 47.482 78.8073 47.0293 78.294 46.712C77.79 46.3947 77.1833 46.236 76.474 46.236C75.7927 46.236 75.1813 46.3947 74.64 46.712C74.0987 47.0293 73.674 47.482 73.366 48.07C73.058 48.6487 72.904 49.33 72.904 50.114C72.904 50.8887 73.058 51.57 73.366 52.158C73.674 52.7367 74.0987 53.1847 74.64 53.502C75.1813 53.8193 75.7927 53.978 76.474 53.978C77.1833 53.978 77.79 53.824 78.294 53.516C78.8073 53.1987 79.1993 52.746 79.47 52.158H80.996C80.632 53.0913 80.0533 53.8147 79.26 54.328C78.4667 54.832 77.538 55.084 76.474 55.084C75.5687 55.084 74.7427 54.874 73.996 54.454C73.2587 54.0247 72.6753 53.432 72.246 52.676C71.8167 51.92 71.602 51.066 71.602 50.114ZM84.1665 44.64V55H82.8925V44.64H84.1665ZM86.9958 46.082C86.7531 46.082 86.5478 45.998 86.3798 45.83C86.2118 45.662 86.1278 45.4567 86.1278 45.214C86.1278 44.9713 86.2118 44.766 86.3798 44.598C86.5478 44.43 86.7531 44.346 86.9958 44.346C87.2291 44.346 87.4251 44.43 87.5838 44.598C87.7518 44.766 87.8358 44.9713 87.8358 45.214C87.8358 45.4567 87.7518 45.662 87.5838 45.83C87.4251 45.998 87.2291 46.082 86.9958 46.082ZM87.6118 47.328V55H86.3378V47.328H87.6118ZM93.5211 47.188C94.4544 47.188 95.2104 47.4727 95.7891 48.042C96.3677 48.602 96.6571 49.414 96.6571 50.478V55H95.3971V50.66C95.3971 49.8947 95.2057 49.3113 94.8231 48.91C94.4404 48.4993 93.9177 48.294 93.2551 48.294C92.5831 48.294 92.0464 48.504 91.6451 48.924C91.2531 49.344 91.0571 49.9553 91.0571 50.758V55H89.7831V47.328H91.0571V48.42C91.3091 48.028 91.6497 47.7247 92.0791 47.51C92.5177 47.2953 92.9984 47.188 93.5211 47.188ZM99.3962 46.082C99.1535 46.082 98.9482 45.998 98.7802 45.83C98.6122 45.662 98.5282 45.4567 98.5282 45.214C98.5282 44.9713 98.6122 44.766 98.7802 44.598C98.9482 44.43 99.1535 44.346 99.3962 44.346C99.6295 44.346 99.8255 44.43 99.9842 44.598C100.152 44.766 100.236 44.9713 100.236 45.214C100.236 45.4567 100.152 45.662 99.9842 45.83C99.8255 45.998 99.6295 46.082 99.3962 46.082ZM100.012 47.328V55H98.7382V47.328H100.012ZM101.707 51.15C101.707 50.3567 101.866 49.666 102.183 49.078C102.501 48.4807 102.939 48.0187 103.499 47.692C104.069 47.3653 104.717 47.202 105.445 47.202C106.388 47.202 107.163 47.4307 107.769 47.888C108.385 48.3453 108.791 48.98 108.987 49.792H107.615C107.485 49.3253 107.228 48.9567 106.845 48.686C106.472 48.4153 106.005 48.28 105.445 48.28C104.717 48.28 104.129 48.532 103.681 49.036C103.233 49.5307 103.009 50.2353 103.009 51.15C103.009 52.074 103.233 52.788 103.681 53.292C104.129 53.796 104.717 54.048 105.445 54.048C106.005 54.048 106.472 53.9173 106.845 53.656C107.219 53.3947 107.475 53.0213 107.615 52.536H108.987C108.782 53.32 108.371 53.95 107.755 54.426C107.139 54.8927 106.369 55.126 105.445 55.126C104.717 55.126 104.069 54.9627 103.499 54.636C102.939 54.3093 102.501 53.8473 102.183 53.25C101.866 52.6527 101.707 51.9527 101.707 51.15ZM120.188 52.83H115.932L115.148 55H113.804L117.332 45.298H118.802L122.316 55H120.972L120.188 52.83ZM119.824 51.794L118.06 46.866L116.296 51.794H119.824ZM123.377 51.136C123.377 50.352 123.536 49.666 123.853 49.078C124.171 48.4807 124.605 48.0187 125.155 47.692C125.715 47.3653 126.341 47.202 127.031 47.202C127.629 47.202 128.184 47.342 128.697 47.622C129.211 47.8927 129.603 48.252 129.873 48.7V44.64H131.161V55H129.873V53.558C129.621 54.0153 129.248 54.3933 128.753 54.692C128.259 54.9813 127.68 55.126 127.017 55.126C126.336 55.126 125.715 54.958 125.155 54.622C124.605 54.286 124.171 53.8147 123.853 53.208C123.536 52.6013 123.377 51.9107 123.377 51.136ZM129.873 51.15C129.873 50.5713 129.757 50.0673 129.523 49.638C129.29 49.2087 128.973 48.882 128.571 48.658C128.179 48.4247 127.745 48.308 127.269 48.308C126.793 48.308 126.359 48.42 125.967 48.644C125.575 48.868 125.263 49.1947 125.029 49.624C124.796 50.0533 124.679 50.5573 124.679 51.136C124.679 51.724 124.796 52.2373 125.029 52.676C125.263 53.1053 125.575 53.4367 125.967 53.67C126.359 53.894 126.793 54.006 127.269 54.006C127.745 54.006 128.179 53.894 128.571 53.67C128.973 53.4367 129.29 53.1053 129.523 52.676C129.757 52.2373 129.873 51.7287 129.873 51.15ZM132.838 51.136C132.838 50.352 132.997 49.666 133.314 49.078C133.632 48.4807 134.066 48.0187 134.616 47.692C135.176 47.3653 135.802 47.202 136.492 47.202C137.09 47.202 137.645 47.342 138.158 47.622C138.672 47.8927 139.064 48.252 139.334 48.7V44.64H140.622V55H139.334V53.558C139.082 54.0153 138.709 54.3933 138.214 54.692C137.72 54.9813 137.141 55.126 136.478 55.126C135.797 55.126 135.176 54.958 134.616 54.622C134.066 54.286 133.632 53.8147 133.314 53.208C132.997 52.6013 132.838 51.9107 132.838 51.136ZM139.334 51.15C139.334 50.5713 139.218 50.0673 138.984 49.638C138.751 49.2087 138.434 48.882 138.032 48.658C137.64 48.4247 137.206 48.308 136.73 48.308C136.254 48.308 135.82 48.42 135.428 48.644C135.036 48.868 134.724 49.1947 134.49 49.624C134.257 50.0533 134.14 50.5573 134.14 51.136C134.14 51.724 134.257 52.2373 134.49 52.676C134.724 53.1053 135.036 53.4367 135.428 53.67C135.82 53.894 136.254 54.006 136.73 54.006C137.206 54.006 137.64 53.894 138.032 53.67C138.434 53.4367 138.751 53.1053 138.984 52.676C139.218 52.2373 139.334 51.7287 139.334 51.15ZM149.775 50.87C149.775 51.1127 149.761 51.3693 149.733 51.64H143.601C143.648 52.396 143.905 52.9887 144.371 53.418C144.847 53.838 145.421 54.048 146.093 54.048C146.644 54.048 147.101 53.922 147.465 53.67C147.839 53.4087 148.1 53.0633 148.249 52.634H149.621C149.416 53.3713 149.005 53.9733 148.389 54.44C147.773 54.8973 147.008 55.126 146.093 55.126C145.365 55.126 144.712 54.9627 144.133 54.636C143.564 54.3093 143.116 53.8473 142.789 53.25C142.463 52.6433 142.299 51.9433 142.299 51.15C142.299 50.3567 142.458 49.6613 142.775 49.064C143.093 48.4667 143.536 48.0093 144.105 47.692C144.684 47.3653 145.347 47.202 146.093 47.202C146.821 47.202 147.465 47.3607 148.025 47.678C148.585 47.9953 149.015 48.434 149.313 48.994C149.621 49.5447 149.775 50.17 149.775 50.87ZM148.459 50.604C148.459 50.1187 148.352 49.7033 148.137 49.358C147.923 49.0033 147.629 48.7373 147.255 48.56C146.891 48.3733 146.485 48.28 146.037 48.28C145.393 48.28 144.843 48.4853 144.385 48.896C143.937 49.3067 143.681 49.876 143.615 50.604H148.459ZM150.981 51.136C150.981 50.352 151.14 49.666 151.457 49.078C151.774 48.4807 152.208 48.0187 152.759 47.692C153.319 47.3653 153.944 47.202 154.635 47.202C155.232 47.202 155.788 47.342 156.301 47.622C156.814 47.8927 157.206 48.252 157.477 48.7V44.64H158.765V55H157.477V53.558C157.225 54.0153 156.852 54.3933 156.357 54.692C155.862 54.9813 155.284 55.126 154.621 55.126C153.94 55.126 153.319 54.958 152.759 54.622C152.208 54.286 151.774 53.8147 151.457 53.208C151.14 52.6013 150.981 51.9107 150.981 51.136ZM157.477 51.15C157.477 50.5713 157.36 50.0673 157.127 49.638C156.894 49.2087 156.576 48.882 156.175 48.658C155.783 48.4247 155.349 48.308 154.873 48.308C154.397 48.308 153.963 48.42 153.571 48.644C153.179 48.868 152.866 49.1947 152.633 49.624C152.4 50.0533 152.283 50.5573 152.283 51.136C152.283 51.724 152.4 52.2373 152.633 52.676C152.866 53.1053 153.179 53.4367 153.571 53.67C153.963 53.894 154.397 54.006 154.873 54.006C155.349 54.006 155.783 53.894 156.175 53.67C156.576 53.4367 156.894 53.1053 157.127 52.676C157.36 52.2373 157.477 51.7287 157.477 51.15ZM167.744 55.098C167.1 55.098 166.522 54.986 166.008 54.762C165.504 54.5287 165.108 54.2113 164.818 53.81C164.529 53.3993 164.38 52.928 164.37 52.396H165.728C165.775 52.8533 165.962 53.2407 166.288 53.558C166.624 53.866 167.11 54.02 167.744 54.02C168.351 54.02 168.827 53.8707 169.172 53.572C169.527 53.264 169.704 52.872 169.704 52.396C169.704 52.0227 169.602 51.7193 169.396 51.486C169.191 51.2527 168.934 51.0753 168.626 50.954C168.318 50.8327 167.903 50.702 167.38 50.562C166.736 50.394 166.218 50.226 165.826 50.058C165.444 49.89 165.112 49.6287 164.832 49.274C164.562 48.91 164.426 48.4247 164.426 47.818C164.426 47.286 164.562 46.8147 164.832 46.404C165.103 45.9933 165.481 45.676 165.966 45.452C166.461 45.228 167.026 45.116 167.66 45.116C168.575 45.116 169.322 45.3447 169.9 45.802C170.488 46.2593 170.82 46.866 170.894 47.622H169.494C169.448 47.2487 169.252 46.922 168.906 46.642C168.561 46.3527 168.104 46.208 167.534 46.208C167.002 46.208 166.568 46.348 166.232 46.628C165.896 46.8987 165.728 47.2813 165.728 47.776C165.728 48.1307 165.826 48.42 166.022 48.644C166.228 48.868 166.475 49.0407 166.764 49.162C167.063 49.274 167.478 49.4047 168.01 49.554C168.654 49.7313 169.172 49.9087 169.564 50.086C169.956 50.254 170.292 50.52 170.572 50.884C170.852 51.2387 170.992 51.724 170.992 52.34C170.992 52.816 170.866 53.264 170.614 53.684C170.362 54.104 169.989 54.4447 169.494 54.706C169 54.9673 168.416 55.098 167.744 55.098ZM179.671 47.328V55H178.397V53.866C178.154 54.258 177.814 54.566 177.375 54.79C176.946 55.0047 176.47 55.112 175.947 55.112C175.35 55.112 174.813 54.9907 174.337 54.748C173.861 54.496 173.483 54.1227 173.203 53.628C172.932 53.1333 172.797 52.5313 172.797 51.822V47.328H174.057V51.654C174.057 52.41 174.248 52.9933 174.631 53.404C175.014 53.8053 175.536 54.006 176.199 54.006C176.88 54.006 177.417 53.796 177.809 53.376C178.201 52.956 178.397 52.3447 178.397 51.542V47.328H179.671ZM181.346 51.15C181.346 50.3567 181.505 49.666 181.822 49.078C182.139 48.4807 182.578 48.0187 183.138 47.692C183.707 47.3653 184.356 47.202 185.084 47.202C186.027 47.202 186.801 47.4307 187.408 47.888C188.024 48.3453 188.43 48.98 188.626 49.792H187.254C187.123 49.3253 186.867 48.9567 186.484 48.686C186.111 48.4153 185.644 48.28 185.084 48.28C184.356 48.28 183.768 48.532 183.32 49.036C182.872 49.5307 182.648 50.2353 182.648 51.15C182.648 52.074 182.872 52.788 183.32 53.292C183.768 53.796 184.356 54.048 185.084 54.048C185.644 54.048 186.111 53.9173 186.484 53.656C186.857 53.3947 187.114 53.0213 187.254 52.536H188.626C188.421 53.32 188.01 53.95 187.394 54.426C186.778 54.8927 186.008 55.126 185.084 55.126C184.356 55.126 183.707 54.9627 183.138 54.636C182.578 54.3093 182.139 53.8473 181.822 53.25C181.505 52.6527 181.346 51.9527 181.346 51.15ZM189.85 51.15C189.85 50.3567 190.009 49.666 190.326 49.078C190.643 48.4807 191.082 48.0187 191.642 47.692C192.211 47.3653 192.86 47.202 193.588 47.202C194.531 47.202 195.305 47.4307 195.912 47.888C196.528 48.3453 196.934 48.98 197.13 49.792H195.758C195.627 49.3253 195.371 48.9567 194.988 48.686C194.615 48.4153 194.148 48.28 193.588 48.28C192.86 48.28 192.272 48.532 191.824 49.036C191.376 49.5307 191.152 50.2353 191.152 51.15C191.152 52.074 191.376 52.788 191.824 53.292C192.272 53.796 192.86 54.048 193.588 54.048C194.148 54.048 194.615 53.9173 194.988 53.656C195.361 53.3947 195.618 53.0213 195.758 52.536H197.13C196.925 53.32 196.514 53.95 195.898 54.426C195.282 54.8927 194.512 55.126 193.588 55.126C192.86 55.126 192.211 54.9627 191.642 54.636C191.082 54.3093 190.643 53.8473 190.326 53.25C190.009 52.6527 189.85 51.9527 189.85 51.15ZM205.83 50.87C205.83 51.1127 205.816 51.3693 205.788 51.64H199.656C199.703 52.396 199.959 52.9887 200.426 53.418C200.902 53.838 201.476 54.048 202.148 54.048C202.699 54.048 203.156 53.922 203.52 53.67C203.893 53.4087 204.155 53.0633 204.304 52.634H205.676C205.471 53.3713 205.06 53.9733 204.444 54.44C203.828 54.8973 203.063 55.126 202.148 55.126C201.42 55.126 200.767 54.9627 200.188 54.636C199.619 54.3093 199.171 53.8473 198.844 53.25C198.517 52.6433 198.354 51.9433 198.354 51.15C198.354 50.3567 198.513 49.6613 198.83 49.064C199.147 48.4667 199.591 48.0093 200.16 47.692C200.739 47.3653 201.401 47.202 202.148 47.202C202.876 47.202 203.52 47.3607 204.08 47.678C204.64 47.9953 205.069 48.434 205.368 48.994C205.676 49.5447 205.83 50.17 205.83 50.87ZM204.514 50.604C204.514 50.1187 204.407 49.7033 204.192 49.358C203.977 49.0033 203.683 48.7373 203.31 48.56C202.946 48.3733 202.54 48.28 202.092 48.28C201.448 48.28 200.897 48.4853 200.44 48.896C199.992 49.3067 199.735 49.876 199.67 50.604H204.514ZM210.228 55.126C209.64 55.126 209.112 55.028 208.646 54.832C208.179 54.6267 207.81 54.3467 207.54 53.992C207.269 53.628 207.12 53.2127 207.092 52.746H208.408C208.445 53.1287 208.622 53.4413 208.94 53.684C209.266 53.9267 209.691 54.048 210.214 54.048C210.699 54.048 211.082 53.9407 211.362 53.726C211.642 53.5113 211.782 53.2407 211.782 52.914C211.782 52.578 211.632 52.3307 211.334 52.172C211.035 52.004 210.573 51.8407 209.948 51.682C209.378 51.5327 208.912 51.3833 208.548 51.234C208.193 51.0753 207.885 50.8467 207.624 50.548C207.372 50.24 207.246 49.8387 207.246 49.344C207.246 48.952 207.362 48.5927 207.596 48.266C207.829 47.9393 208.16 47.6827 208.59 47.496C209.019 47.3 209.509 47.202 210.06 47.202C210.909 47.202 211.595 47.4167 212.118 47.846C212.64 48.2753 212.92 48.8633 212.958 49.61H211.684C211.656 49.2087 211.492 48.8867 211.194 48.644C210.904 48.4013 210.512 48.28 210.018 48.28C209.56 48.28 209.196 48.378 208.926 48.574C208.655 48.77 208.52 49.0267 208.52 49.344C208.52 49.596 208.599 49.806 208.758 49.974C208.926 50.1327 209.131 50.2633 209.374 50.366C209.626 50.4593 209.971 50.5667 210.41 50.688C210.96 50.8373 211.408 50.9867 211.754 51.136C212.099 51.276 212.393 51.4907 212.636 51.78C212.888 52.0693 213.018 52.4473 213.028 52.914C213.028 53.334 212.911 53.712 212.678 54.048C212.444 54.384 212.113 54.65 211.684 54.846C211.264 55.0327 210.778 55.126 210.228 55.126ZM217.542 55.126C216.954 55.126 216.427 55.028 215.96 54.832C215.493 54.6267 215.125 54.3467 214.854 53.992C214.583 53.628 214.434 53.2127 214.406 52.746H215.722C215.759 53.1287 215.937 53.4413 216.254 53.684C216.581 53.9267 217.005 54.048 217.528 54.048C218.013 54.048 218.396 53.9407 218.676 53.726C218.956 53.5113 219.096 53.2407 219.096 52.914C219.096 52.578 218.947 52.3307 218.648 52.172C218.349 52.004 217.887 51.8407 217.262 51.682C216.693 51.5327 216.226 51.3833 215.862 51.234C215.507 51.0753 215.199 50.8467 214.938 50.548C214.686 50.24 214.56 49.8387 214.56 49.344C214.56 48.952 214.677 48.5927 214.91 48.266C215.143 47.9393 215.475 47.6827 215.904 47.496C216.333 47.3 216.823 47.202 217.374 47.202C218.223 47.202 218.909 47.4167 219.432 47.846C219.955 48.2753 220.235 48.8633 220.272 49.61H218.998C218.97 49.2087 218.807 48.8867 218.508 48.644C218.219 48.4013 217.827 48.28 217.332 48.28C216.875 48.28 216.511 48.378 216.24 48.574C215.969 48.77 215.834 49.0267 215.834 49.344C215.834 49.596 215.913 49.806 216.072 49.974C216.24 50.1327 216.445 50.2633 216.688 50.366C216.94 50.4593 217.285 50.5667 217.724 50.688C218.275 50.8373 218.723 50.9867 219.068 51.136C219.413 51.276 219.707 51.4907 219.95 51.78C220.202 52.0693 220.333 52.4473 220.342 52.914C220.342 53.334 220.225 53.712 219.992 54.048C219.759 54.384 219.427 54.65 218.998 54.846C218.578 55.0327 218.093 55.126 217.542 55.126ZM225.263 48.378H223.653V55H222.379V48.378H221.385V47.328H222.379V46.782C222.379 45.9233 222.598 45.298 223.037 44.906C223.485 44.5047 224.199 44.304 225.178 44.304V45.368C224.619 45.368 224.222 45.48 223.989 45.704C223.765 45.9187 223.653 46.278 223.653 46.782V47.328H225.263V48.378ZM233.552 47.328V55H232.278V53.866C232.035 54.258 231.695 54.566 231.256 54.79C230.827 55.0047 230.351 55.112 229.828 55.112C229.231 55.112 228.694 54.9907 228.218 54.748C227.742 54.496 227.364 54.1227 227.084 53.628C226.813 53.1333 226.678 52.5313 226.678 51.822V47.328H227.938V51.654C227.938 52.41 228.129 52.9933 228.512 53.404C228.895 53.8053 229.417 54.006 230.08 54.006C230.761 54.006 231.298 53.796 231.69 53.376C232.082 52.956 232.278 52.3447 232.278 51.542V47.328H233.552ZM236.977 44.64V55H235.703V44.64H236.977ZM240.422 44.64V55H239.148V44.64H240.422ZM249.202 47.328L244.582 58.612H243.266L244.778 54.916L241.684 47.328H243.098L245.506 53.544L247.886 47.328H249.202Z" fill="#3A3A3A"/>
</g>
<defs>
<filter id="filter0_d_557_3773" x="0.5" y="0" width="385" height="78" filterUnits="userSpaceOnUse" color-interpolation-filters="sRGB">
<feFlood flood-opacity="0" result="BackgroundImageFix"/>
<feColorMatrix in="SourceAlpha" type="matrix" values="0 0 0 0 0 0 0 0 0 0 0 0 0 0 0 0 0 0 127 0" result="hardAlpha"/>
<feOffset dx="1.5" dy="2"/>
<feGaussianBlur stdDeviation="4"/>
<feComposite in2="hardAlpha" operator="out"/>
<feColorMatrix type="matrix" values="0 0 0 0 0 0 0 0 0 0 0 0 0 0 0 0 0 0 0.25 0"/>
<feBlend mode="normal" in2="BackgroundImageFix" result="effect1_dropShadow_557_3773"/>
<feBlend mode="normal" in="SourceGraphic" in2="effect1_dropShadow_557_3773" result="shape"/>
</filter>
</defs>
</svg>
