<svg width="386" height="78" viewBox="0 0 386 78" fill="none" xmlns="http://www.w3.org/2000/svg">
<g filter="url(#filter0_d_557_3774)">
<rect x="7.25" y="6.25" width="368.5" height="61.5" rx="7.75" stroke="#E87882" stroke-width="0.5" shape-rendering="crispEdges"/>
<path d="M7 14C7 9.58172 10.5817 6 15 6H63V68H15C10.5817 68 7 64.4183 7 60V14Z" fill="#DC3545"/>
<path fill-rule="evenodd" clip-rule="evenodd" d="M35 49C41.6274 49 47 43.6274 47 37C47 30.3726 41.6274 25 35 25C28.3726 25 23 30.3726 23 37C23 43.6274 28.3726 49 35 49ZM35.6468 38.4274L35.921 31.8583H33.3839L33.6582 38.4274H35.6468ZM33.6719 41.5817C33.937 41.8194 34.2753 41.9383 34.6868 41.9383C35.089 41.9383 35.4182 41.8194 35.6742 41.5817C35.9393 41.3348 36.0719 41.0331 36.0719 40.6765C36.0719 40.3108 35.9393 40.0045 35.6742 39.7577C35.4182 39.5108 35.089 39.3874 34.6868 39.3874C34.2753 39.3874 33.937 39.5108 33.6719 39.7577C33.4159 40.0045 33.2879 40.3108 33.2879 40.6765C33.2879 41.0331 33.4159 41.3348 33.6719 41.5817Z" fill="white"/>
<path d="M74.402 22.146V25.818H78.722V27.492H74.402V31.326H79.262V33H72.35V20.472H79.262V22.146H74.402ZM83.8415 24.522C84.1415 24.018 84.5375 23.628 85.0295 23.352C85.5335 23.064 86.1275 22.92 86.8115 22.92V25.044H86.2895C85.4855 25.044 84.8735 25.248 84.4535 25.656C84.0455 26.064 83.8415 26.772 83.8415 27.78V33H81.7895V23.082H83.8415V24.522ZM90.7497 24.522C91.0497 24.018 91.4457 23.628 91.9377 23.352C92.4417 23.064 93.0357 22.92 93.7197 22.92V25.044H93.1977C92.3937 25.044 91.7817 25.248 91.3617 25.656C90.9537 26.064 90.7497 26.772 90.7497 27.78V33H88.6977V23.082H90.7497V24.522ZM99.9079 33.162C98.9719 33.162 98.1259 32.952 97.3699 32.532C96.6139 32.1 96.0199 31.5 95.5879 30.732C95.1559 29.952 94.9399 29.052 94.9399 28.032C94.9399 27.024 95.1619 26.13 95.6059 25.35C96.0499 24.57 96.6559 23.97 97.4239 23.55C98.1919 23.13 99.0499 22.92 99.9979 22.92C100.946 22.92 101.804 23.13 102.572 23.55C103.34 23.97 103.946 24.57 104.39 25.35C104.834 26.13 105.056 27.024 105.056 28.032C105.056 29.04 104.828 29.934 104.372 30.714C103.916 31.494 103.292 32.1 102.5 32.532C101.72 32.952 100.856 33.162 99.9079 33.162ZM99.9079 31.38C100.436 31.38 100.928 31.254 101.384 31.002C101.852 30.75 102.23 30.372 102.518 29.868C102.806 29.364 102.95 28.752 102.95 28.032C102.95 27.312 102.812 26.706 102.536 26.214C102.26 25.71 101.894 25.332 101.438 25.08C100.982 24.828 100.49 24.702 99.9619 24.702C99.4339 24.702 98.9419 24.828 98.4859 25.08C98.0419 25.332 97.6879 25.71 97.4239 26.214C97.1599 26.706 97.0279 27.312 97.0279 28.032C97.0279 29.1 97.2979 29.928 97.8379 30.516C98.3899 31.092 99.0799 31.38 99.9079 31.38ZM109.136 24.522C109.436 24.018 109.832 23.628 110.324 23.352C110.828 23.064 111.422 22.92 112.106 22.92V25.044H111.584C110.78 25.044 110.168 25.248 109.748 25.656C109.34 26.064 109.136 26.772 109.136 27.78V33H107.084V23.082H109.136V24.522ZM116.567 20.49L116.333 29.22H114.623L114.389 20.49H116.567ZM115.541 33.126C115.169 33.126 114.857 33 114.605 32.748C114.353 32.496 114.227 32.184 114.227 31.812C114.227 31.44 114.353 31.128 114.605 30.876C114.857 30.624 115.169 30.498 115.541 30.498C115.901 30.498 116.207 30.624 116.459 30.876C116.711 31.128 116.837 31.44 116.837 31.812C116.837 32.184 116.711 32.496 116.459 32.748C116.207 33 115.901 33.126 115.541 33.126Z" fill="#3A3A3A"/>
<path d="M77.51 47.286C77.3047 46.25 76.6653 45.732 75.592 45.732C74.7613 45.732 74.1407 46.054 73.73 46.698C73.3193 47.3327 73.1187 48.3827 73.128 49.848C73.3427 49.3627 73.6973 48.9847 74.192 48.714C74.696 48.434 75.256 48.294 75.872 48.294C76.8333 48.294 77.5987 48.5927 78.168 49.19C78.7467 49.7873 79.036 50.6133 79.036 51.668C79.036 52.3027 78.91 52.872 78.658 53.376C78.4153 53.88 78.042 54.2813 77.538 54.58C77.0433 54.8787 76.4413 55.028 75.732 55.028C74.7707 55.028 74.0193 54.8133 73.478 54.384C72.9367 53.9547 72.5587 53.362 72.344 52.606C72.1293 51.85 72.022 50.9167 72.022 49.806C72.022 46.3807 73.2167 44.668 75.606 44.668C76.5207 44.668 77.2393 44.9153 77.762 45.41C78.2847 45.9047 78.5927 46.53 78.686 47.286H77.51ZM75.606 49.372C75.2047 49.372 74.8267 49.456 74.472 49.624C74.1173 49.7827 73.828 50.03 73.604 50.366C73.3893 50.6927 73.282 51.094 73.282 51.57C73.282 52.2793 73.4873 52.858 73.898 53.306C74.3087 53.7447 74.8967 53.964 75.662 53.964C76.3153 53.964 76.8333 53.7633 77.216 53.362C77.608 52.9513 77.804 52.4007 77.804 51.71C77.804 50.982 77.6173 50.4127 77.244 50.002C76.8707 49.582 76.3247 49.372 75.606 49.372ZM85.9711 46.278V49.54H89.5271V50.59H85.9711V53.95H89.9471V55H84.6971V45.228H89.9471V46.278H85.9711ZM93.1489 48.574C93.3729 48.1353 93.6902 47.7947 94.1009 47.552C94.5209 47.3093 95.0295 47.188 95.6269 47.188V48.504H95.2909C93.8629 48.504 93.1489 49.2787 93.1489 50.828V55H91.8749V47.328H93.1489V48.574ZM98.3715 48.574C98.5955 48.1353 98.9129 47.7947 99.3235 47.552C99.7435 47.3093 100.252 47.188 100.85 47.188V48.504H100.514C99.0855 48.504 98.3715 49.2787 98.3715 50.828V55H97.0975V47.328H98.3715V48.574ZM105.666 55.126C104.948 55.126 104.294 54.9627 103.706 54.636C103.128 54.3093 102.67 53.8473 102.334 53.25C102.008 52.6433 101.844 51.9433 101.844 51.15C101.844 50.366 102.012 49.6753 102.348 49.078C102.694 48.4713 103.16 48.0093 103.748 47.692C104.336 47.3653 104.994 47.202 105.722 47.202C106.45 47.202 107.108 47.3653 107.696 47.692C108.284 48.0093 108.746 48.4667 109.082 49.064C109.428 49.6613 109.6 50.3567 109.6 51.15C109.6 51.9433 109.423 52.6433 109.068 53.25C108.723 53.8473 108.252 54.3093 107.654 54.636C107.057 54.9627 106.394 55.126 105.666 55.126ZM105.666 54.006C106.124 54.006 106.553 53.8987 106.954 53.684C107.356 53.4693 107.678 53.1473 107.92 52.718C108.172 52.2887 108.298 51.766 108.298 51.15C108.298 50.534 108.177 50.0113 107.934 49.582C107.692 49.1527 107.374 48.8353 106.982 48.63C106.59 48.4153 106.166 48.308 105.708 48.308C105.242 48.308 104.812 48.4153 104.42 48.63C104.038 48.8353 103.73 49.1527 103.496 49.582C103.263 50.0113 103.146 50.534 103.146 51.15C103.146 51.7753 103.258 52.3027 103.482 52.732C103.716 53.1613 104.024 53.4833 104.406 53.698C104.789 53.9033 105.209 54.006 105.666 54.006ZM112.549 48.574C112.773 48.1353 113.091 47.7947 113.501 47.552C113.921 47.3093 114.43 47.188 115.027 47.188V48.504H114.691C113.263 48.504 112.549 49.2787 112.549 50.828V55H111.275V47.328H112.549V48.574ZM119.214 55.126C118.626 55.126 118.099 55.028 117.632 54.832C117.165 54.6267 116.797 54.3467 116.526 53.992C116.255 53.628 116.106 53.2127 116.078 52.746H117.394C117.431 53.1287 117.609 53.4413 117.926 53.684C118.253 53.9267 118.677 54.048 119.2 54.048C119.685 54.048 120.068 53.9407 120.348 53.726C120.628 53.5113 120.768 53.2407 120.768 52.914C120.768 52.578 120.619 52.3307 120.32 52.172C120.021 52.004 119.559 51.8407 118.934 51.682C118.365 51.5327 117.898 51.3833 117.534 51.234C117.179 51.0753 116.871 50.8467 116.61 50.548C116.358 50.24 116.232 49.8387 116.232 49.344C116.232 48.952 116.349 48.5927 116.582 48.266C116.815 47.9393 117.147 47.6827 117.576 47.496C118.005 47.3 118.495 47.202 119.046 47.202C119.895 47.202 120.581 47.4167 121.104 47.846C121.627 48.2753 121.907 48.8633 121.944 49.61H120.67C120.642 49.2087 120.479 48.8867 120.18 48.644C119.891 48.4013 119.499 48.28 119.004 48.28C118.547 48.28 118.183 48.378 117.912 48.574C117.641 48.77 117.506 49.0267 117.506 49.344C117.506 49.596 117.585 49.806 117.744 49.974C117.912 50.1327 118.117 50.2633 118.36 50.366C118.612 50.4593 118.957 50.5667 119.396 50.688C119.947 50.8373 120.395 50.9867 120.74 51.136C121.085 51.276 121.379 51.4907 121.622 51.78C121.874 52.0693 122.005 52.4473 122.014 52.914C122.014 53.334 121.897 53.712 121.664 54.048C121.431 54.384 121.099 54.65 120.67 54.846C120.25 55.0327 119.765 55.126 119.214 55.126ZM133.061 45.242V46.278H128.819V49.568H132.263V50.604H128.819V55H127.545V45.242H133.061ZM137.945 55.126C137.227 55.126 136.573 54.9627 135.985 54.636C135.407 54.3093 134.949 53.8473 134.613 53.25C134.287 52.6433 134.123 51.9433 134.123 51.15C134.123 50.366 134.291 49.6753 134.627 49.078C134.973 48.4713 135.439 48.0093 136.027 47.692C136.615 47.3653 137.273 47.202 138.001 47.202C138.729 47.202 139.387 47.3653 139.975 47.692C140.563 48.0093 141.025 48.4667 141.361 49.064C141.707 49.6613 141.879 50.3567 141.879 51.15C141.879 51.9433 141.702 52.6433 141.347 53.25C141.002 53.8473 140.531 54.3093 139.933 54.636C139.336 54.9627 138.673 55.126 137.945 55.126ZM137.945 54.006C138.403 54.006 138.832 53.8987 139.233 53.684C139.635 53.4693 139.957 53.1473 140.199 52.718C140.451 52.2887 140.577 51.766 140.577 51.15C140.577 50.534 140.456 50.0113 140.213 49.582C139.971 49.1527 139.653 48.8353 139.261 48.63C138.869 48.4153 138.445 48.308 137.987 48.308C137.521 48.308 137.091 48.4153 136.699 48.63C136.317 48.8353 136.009 49.1527 135.775 49.582C135.542 50.0113 135.425 50.534 135.425 51.15C135.425 51.7753 135.537 52.3027 135.761 52.732C135.995 53.1613 136.303 53.4833 136.685 53.698C137.068 53.9033 137.488 54.006 137.945 54.006ZM150.359 47.328V55H149.085V53.866C148.842 54.258 148.501 54.566 148.063 54.79C147.633 55.0047 147.157 55.112 146.635 55.112C146.037 55.112 145.501 54.9907 145.025 54.748C144.549 54.496 144.171 54.1227 143.891 53.628C143.62 53.1333 143.485 52.5313 143.485 51.822V47.328H144.745V51.654C144.745 52.41 144.936 52.9933 145.319 53.404C145.701 53.8053 146.224 54.006 146.887 54.006C147.568 54.006 148.105 53.796 148.497 53.376C148.889 52.956 149.085 52.3447 149.085 51.542V47.328H150.359ZM156.248 47.188C157.181 47.188 157.937 47.4727 158.516 48.042C159.094 48.602 159.384 49.414 159.384 50.478V55H158.124V50.66C158.124 49.8947 157.932 49.3113 157.55 48.91C157.167 48.4993 156.644 48.294 155.982 48.294C155.31 48.294 154.773 48.504 154.372 48.924C153.98 49.344 153.784 49.9553 153.784 50.758V55H152.51V47.328H153.784V48.42C154.036 48.028 154.376 47.7247 154.806 47.51C155.244 47.2953 155.725 47.188 156.248 47.188ZM160.989 51.136C160.989 50.352 161.147 49.666 161.465 49.078C161.782 48.4807 162.216 48.0187 162.767 47.692C163.327 47.3653 163.952 47.202 164.643 47.202C165.24 47.202 165.795 47.342 166.309 47.622C166.822 47.8927 167.214 48.252 167.485 48.7V44.64H168.773V55H167.485V53.558C167.233 54.0153 166.859 54.3933 166.365 54.692C165.87 54.9813 165.291 55.126 164.629 55.126C163.947 55.126 163.327 54.958 162.767 54.622C162.216 54.286 161.782 53.8147 161.465 53.208C161.147 52.6013 160.989 51.9107 160.989 51.136ZM167.485 51.15C167.485 50.5713 167.368 50.0673 167.135 49.638C166.901 49.2087 166.584 48.882 166.183 48.658C165.791 48.4247 165.357 48.308 164.881 48.308C164.405 48.308 163.971 48.42 163.579 48.644C163.187 48.868 162.874 49.1947 162.641 49.624C162.407 50.0533 162.291 50.5573 162.291 51.136C162.291 51.724 162.407 52.2373 162.641 52.676C162.874 53.1053 163.187 53.4367 163.579 53.67C163.971 53.894 164.405 54.006 164.881 54.006C165.357 54.006 165.791 53.894 166.183 53.67C166.584 53.4367 166.901 53.1053 167.135 52.676C167.368 52.2373 167.485 51.7287 167.485 51.15ZM172.578 45.242L172.424 52.242H171.36L171.206 45.242H172.578ZM171.948 55.084C171.705 55.084 171.5 55 171.332 54.832C171.164 54.664 171.08 54.4587 171.08 54.216C171.08 53.9733 171.164 53.768 171.332 53.6C171.5 53.432 171.705 53.348 171.948 53.348C172.181 53.348 172.377 53.432 172.536 53.6C172.704 53.768 172.788 53.9733 172.788 54.216C172.788 54.4587 172.704 54.664 172.536 54.832C172.377 55 172.181 55.084 171.948 55.084ZM185.352 48.098C185.352 48.91 185.072 49.5867 184.512 50.128C183.961 50.66 183.117 50.926 181.978 50.926H180.102V55H178.828V45.242H181.978C183.079 45.242 183.915 45.508 184.484 46.04C185.063 46.572 185.352 47.258 185.352 48.098ZM181.978 49.876C182.687 49.876 183.21 49.722 183.546 49.414C183.882 49.106 184.05 48.6673 184.05 48.098C184.05 46.894 183.359 46.292 181.978 46.292H180.102V49.876H181.978ZM188.209 44.64V55H186.935V44.64H188.209ZM197.381 50.87C197.381 51.1127 197.367 51.3693 197.339 51.64H191.207C191.253 52.396 191.51 52.9887 191.977 53.418C192.453 53.838 193.027 54.048 193.699 54.048C194.249 54.048 194.707 53.922 195.071 53.67C195.444 53.4087 195.705 53.0633 195.855 52.634H197.227C197.021 53.3713 196.611 53.9733 195.995 54.44C195.379 54.8973 194.613 55.126 193.699 55.126C192.971 55.126 192.317 54.9627 191.739 54.636C191.169 54.3093 190.721 53.8473 190.395 53.25C190.068 52.6433 189.905 51.9433 189.905 51.15C189.905 50.3567 190.063 49.6613 190.381 49.064C190.698 48.4667 191.141 48.0093 191.711 47.692C192.289 47.3653 192.952 47.202 193.699 47.202C194.427 47.202 195.071 47.3607 195.631 47.678C196.191 47.9953 196.62 48.434 196.919 48.994C197.227 49.5447 197.381 50.17 197.381 50.87ZM196.065 50.604C196.065 50.1187 195.957 49.7033 195.743 49.358C195.528 49.0033 195.234 48.7373 194.861 48.56C194.497 48.3733 194.091 48.28 193.643 48.28C192.999 48.28 192.448 48.4853 191.991 48.896C191.543 49.3067 191.286 49.876 191.221 50.604H196.065ZM198.586 51.136C198.586 50.352 198.745 49.666 199.062 49.078C199.38 48.4807 199.814 48.0187 200.364 47.692C200.924 47.3653 201.545 47.202 202.226 47.202C202.898 47.202 203.482 47.3467 203.976 47.636C204.471 47.9253 204.84 48.2893 205.082 48.728V47.328H206.37V55H205.082V53.572C204.83 54.02 204.452 54.3933 203.948 54.692C203.454 54.9813 202.875 55.126 202.212 55.126C201.531 55.126 200.915 54.958 200.364 54.622C199.814 54.286 199.38 53.8147 199.062 53.208C198.745 52.6013 198.586 51.9107 198.586 51.136ZM205.082 51.15C205.082 50.5713 204.966 50.0673 204.732 49.638C204.499 49.2087 204.182 48.882 203.78 48.658C203.388 48.4247 202.954 48.308 202.478 48.308C202.002 48.308 201.568 48.42 201.176 48.644C200.784 48.868 200.472 49.1947 200.238 49.624C200.005 50.0533 199.888 50.5573 199.888 51.136C199.888 51.724 200.005 52.2373 200.238 52.676C200.472 53.1053 200.784 53.4367 201.176 53.67C201.568 53.894 202.002 54.006 202.478 54.006C202.954 54.006 203.388 53.894 203.78 53.67C204.182 53.4367 204.499 53.1053 204.732 52.676C204.966 52.2373 205.082 51.7287 205.082 51.15ZM211.239 55.126C210.651 55.126 210.124 55.028 209.657 54.832C209.191 54.6267 208.822 54.3467 208.551 53.992C208.281 53.628 208.131 53.2127 208.103 52.746H209.419C209.457 53.1287 209.634 53.4413 209.951 53.684C210.278 53.9267 210.703 54.048 211.225 54.048C211.711 54.048 212.093 53.9407 212.373 53.726C212.653 53.5113 212.793 53.2407 212.793 52.914C212.793 52.578 212.644 52.3307 212.345 52.172C212.047 52.004 211.585 51.8407 210.959 51.682C210.39 51.5327 209.923 51.3833 209.559 51.234C209.205 51.0753 208.897 50.8467 208.635 50.548C208.383 50.24 208.257 49.8387 208.257 49.344C208.257 48.952 208.374 48.5927 208.607 48.266C208.841 47.9393 209.172 47.6827 209.601 47.496C210.031 47.3 210.521 47.202 211.071 47.202C211.921 47.202 212.607 47.4167 213.129 47.846C213.652 48.2753 213.932 48.8633 213.969 49.61H212.695C212.667 49.2087 212.504 48.8867 212.205 48.644C211.916 48.4013 211.524 48.28 211.029 48.28C210.572 48.28 210.208 48.378 209.937 48.574C209.667 48.77 209.531 49.0267 209.531 49.344C209.531 49.596 209.611 49.806 209.769 49.974C209.937 50.1327 210.143 50.2633 210.385 50.366C210.637 50.4593 210.983 50.5667 211.421 50.688C211.972 50.8373 212.42 50.9867 212.765 51.136C213.111 51.276 213.405 51.4907 213.647 51.78C213.899 52.0693 214.03 52.4473 214.039 52.914C214.039 53.334 213.923 53.712 213.689 54.048C213.456 54.384 213.125 54.65 212.695 54.846C212.275 55.0327 211.79 55.126 211.239 55.126ZM222.838 50.87C222.838 51.1127 222.824 51.3693 222.796 51.64H216.664C216.71 52.396 216.967 52.9887 217.434 53.418C217.91 53.838 218.484 54.048 219.156 54.048C219.706 54.048 220.164 53.922 220.528 53.67C220.901 53.4087 221.162 53.0633 221.312 52.634H222.684C222.478 53.3713 222.068 53.9733 221.452 54.44C220.836 54.8973 220.07 55.126 219.156 55.126C218.428 55.126 217.774 54.9627 217.196 54.636C216.626 54.3093 216.178 53.8473 215.852 53.25C215.525 52.6433 215.362 51.9433 215.362 51.15C215.362 50.3567 215.52 49.6613 215.838 49.064C216.155 48.4667 216.598 48.0093 217.168 47.692C217.746 47.3653 218.409 47.202 219.156 47.202C219.884 47.202 220.528 47.3607 221.088 47.678C221.648 47.9953 222.077 48.434 222.376 48.994C222.684 49.5447 222.838 50.17 222.838 50.87ZM221.522 50.604C221.522 50.1187 221.414 49.7033 221.2 49.358C220.985 49.0033 220.691 48.7373 220.318 48.56C219.954 48.3733 219.548 48.28 219.1 48.28C218.456 48.28 217.905 48.4853 217.448 48.896C217 49.3067 216.743 49.876 216.678 50.604H221.522ZM231.374 48.378H229.764V55H228.49V48.378H227.496V47.328H228.49V46.782C228.49 45.9233 228.709 45.298 229.148 44.906C229.596 44.5047 230.31 44.304 231.29 44.304V45.368C230.73 45.368 230.333 45.48 230.1 45.704C229.876 45.9187 229.764 46.278 229.764 46.782V47.328H231.374V48.378ZM233.517 46.082C233.275 46.082 233.069 45.998 232.901 45.83C232.733 45.662 232.649 45.4567 232.649 45.214C232.649 44.9713 232.733 44.766 232.901 44.598C233.069 44.43 233.275 44.346 233.517 44.346C233.751 44.346 233.947 44.43 234.105 44.598C234.273 44.766 234.357 44.9713 234.357 45.214C234.357 45.4567 234.273 45.662 234.105 45.83C233.947 45.998 233.751 46.082 233.517 46.082ZM234.133 47.328V55H232.859V47.328H234.133ZM240.309 55L238.489 52.144L236.739 55H235.409L237.887 51.192L235.409 47.328H236.851L238.671 50.17L240.407 47.328H241.737L239.273 51.122L241.751 55H240.309ZM246.26 51.15C246.26 50.3567 246.419 49.666 246.736 49.078C247.054 48.4807 247.492 48.0187 248.052 47.692C248.622 47.3653 249.27 47.202 249.998 47.202C250.941 47.202 251.716 47.4307 252.322 47.888C252.938 48.3453 253.344 48.98 253.54 49.792H252.168C252.038 49.3253 251.781 48.9567 251.398 48.686C251.025 48.4153 250.558 48.28 249.998 48.28C249.27 48.28 248.682 48.532 248.234 49.036C247.786 49.5307 247.562 50.2353 247.562 51.15C247.562 52.074 247.786 52.788 248.234 53.292C248.682 53.796 249.27 54.048 249.998 54.048C250.558 54.048 251.025 53.9173 251.398 53.656C251.772 53.3947 252.028 53.0213 252.168 52.536H253.54C253.335 53.32 252.924 53.95 252.308 54.426C251.692 54.8927 250.922 55.126 249.998 55.126C249.27 55.126 248.622 54.9627 248.052 54.636C247.492 54.3093 247.054 53.8473 246.736 53.25C246.419 52.6527 246.26 51.9527 246.26 51.15ZM262.044 47.328V55H260.77V53.866C260.527 54.258 260.187 54.566 259.748 54.79C259.319 55.0047 258.843 55.112 258.32 55.112C257.723 55.112 257.186 54.9907 256.71 54.748C256.234 54.496 255.856 54.1227 255.576 53.628C255.305 53.1333 255.17 52.5313 255.17 51.822V47.328H256.43V51.654C256.43 52.41 256.621 52.9933 257.004 53.404C257.387 53.8053 257.909 54.006 258.572 54.006C259.253 54.006 259.79 53.796 260.182 53.376C260.574 52.956 260.77 52.3447 260.77 51.542V47.328H262.044ZM265.469 48.574C265.693 48.1353 266.011 47.7947 266.421 47.552C266.841 47.3093 267.35 47.188 267.947 47.188V48.504H267.611C266.183 48.504 265.469 49.2787 265.469 50.828V55H264.195V47.328H265.469V48.574ZM270.692 48.574C270.916 48.1353 271.233 47.7947 271.644 47.552C272.064 47.3093 272.573 47.188 273.17 47.188V48.504H272.834C271.406 48.504 270.692 49.2787 270.692 50.828V55H269.418V47.328H270.692V48.574ZM281.641 50.87C281.641 51.1127 281.627 51.3693 281.599 51.64H275.467C275.513 52.396 275.77 52.9887 276.237 53.418C276.713 53.838 277.287 54.048 277.959 54.048C278.509 54.048 278.967 53.922 279.331 53.67C279.704 53.4087 279.965 53.0633 280.115 52.634H281.487C281.281 53.3713 280.871 53.9733 280.255 54.44C279.639 54.8973 278.873 55.126 277.959 55.126C277.231 55.126 276.577 54.9627 275.999 54.636C275.429 54.3093 274.981 53.8473 274.655 53.25C274.328 52.6433 274.165 51.9433 274.165 51.15C274.165 50.3567 274.323 49.6613 274.641 49.064C274.958 48.4667 275.401 48.0093 275.971 47.692C276.549 47.3653 277.212 47.202 277.959 47.202C278.687 47.202 279.331 47.3607 279.891 47.678C280.451 47.9953 280.88 48.434 281.179 48.994C281.487 49.5447 281.641 50.17 281.641 50.87ZM280.325 50.604C280.325 50.1187 280.217 49.7033 280.003 49.358C279.788 49.0033 279.494 48.7373 279.121 48.56C278.757 48.3733 278.351 48.28 277.903 48.28C277.259 48.28 276.708 48.4853 276.251 48.896C275.803 49.3067 275.546 49.876 275.481 50.604H280.325ZM287.06 47.188C287.993 47.188 288.749 47.4727 289.328 48.042C289.907 48.602 290.196 49.414 290.196 50.478V55H288.936V50.66C288.936 49.8947 288.745 49.3113 288.362 48.91C287.979 48.4993 287.457 48.294 286.794 48.294C286.122 48.294 285.585 48.504 285.184 48.924C284.792 49.344 284.596 49.9553 284.596 50.758V55H283.322V47.328H284.596V48.42C284.848 48.028 285.189 47.7247 285.618 47.51C286.057 47.2953 286.537 47.188 287.06 47.188ZM293.831 48.378V52.9C293.831 53.2733 293.911 53.5393 294.069 53.698C294.228 53.8473 294.503 53.922 294.895 53.922H295.833V55H294.685C293.976 55 293.444 54.8367 293.089 54.51C292.735 54.1833 292.557 53.6467 292.557 52.9V48.378H291.563V47.328H292.557V45.396H293.831V47.328H295.833V48.378H293.831ZM308.109 50.87C308.109 51.1127 308.095 51.3693 308.067 51.64H301.935C301.982 52.396 302.239 52.9887 302.705 53.418C303.181 53.838 303.755 54.048 304.427 54.048C304.978 54.048 305.435 53.922 305.799 53.67C306.173 53.4087 306.434 53.0633 306.583 52.634H307.955C307.75 53.3713 307.339 53.9733 306.723 54.44C306.107 54.8973 305.342 55.126 304.427 55.126C303.699 55.126 303.046 54.9627 302.467 54.636C301.898 54.3093 301.45 53.8473 301.123 53.25C300.797 52.6433 300.633 51.9433 300.633 51.15C300.633 50.3567 300.792 49.6613 301.109 49.064C301.427 48.4667 301.87 48.0093 302.439 47.692C303.018 47.3653 303.681 47.202 304.427 47.202C305.155 47.202 305.799 47.3607 306.359 47.678C306.919 47.9953 307.349 48.434 307.647 48.994C307.955 49.5447 308.109 50.17 308.109 50.87ZM306.793 50.604C306.793 50.1187 306.686 49.7033 306.471 49.358C306.257 49.0033 305.963 48.7373 305.589 48.56C305.225 48.3733 304.819 48.28 304.371 48.28C303.727 48.28 303.177 48.4853 302.719 48.896C302.271 49.3067 302.015 49.876 301.949 50.604H306.793ZM311.065 48.574C311.289 48.1353 311.606 47.7947 312.017 47.552C312.437 47.3093 312.946 47.188 313.543 47.188V48.504H313.207C311.779 48.504 311.065 49.2787 311.065 50.828V55H309.791V47.328H311.065V48.574ZM316.288 48.574C316.512 48.1353 316.829 47.7947 317.24 47.552C317.66 47.3093 318.168 47.188 318.766 47.188V48.504H318.43C317.002 48.504 316.288 49.2787 316.288 50.828V55H315.014V47.328H316.288V48.574ZM323.582 55.126C322.864 55.126 322.21 54.9627 321.622 54.636C321.044 54.3093 320.586 53.8473 320.25 53.25C319.924 52.6433 319.76 51.9433 319.76 51.15C319.76 50.366 319.928 49.6753 320.264 49.078C320.61 48.4713 321.076 48.0093 321.664 47.692C322.252 47.3653 322.91 47.202 323.638 47.202C324.366 47.202 325.024 47.3653 325.612 47.692C326.2 48.0093 326.662 48.4667 326.998 49.064C327.344 49.6613 327.516 50.3567 327.516 51.15C327.516 51.9433 327.339 52.6433 326.984 53.25C326.639 53.8473 326.168 54.3093 325.57 54.636C324.973 54.9627 324.31 55.126 323.582 55.126ZM323.582 54.006C324.04 54.006 324.469 53.8987 324.87 53.684C325.272 53.4693 325.594 53.1473 325.836 52.718C326.088 52.2887 326.214 51.766 326.214 51.15C326.214 50.534 326.093 50.0113 325.85 49.582C325.608 49.1527 325.29 48.8353 324.898 48.63C324.506 48.4153 324.082 48.308 323.624 48.308C323.158 48.308 322.728 48.4153 322.336 48.63C321.954 48.8353 321.646 49.1527 321.412 49.582C321.179 50.0113 321.062 50.534 321.062 51.15C321.062 51.7753 321.174 52.3027 321.398 52.732C321.632 53.1613 321.94 53.4833 322.322 53.698C322.705 53.9033 323.125 54.006 323.582 54.006ZM330.465 48.574C330.689 48.1353 331.007 47.7947 331.417 47.552C331.837 47.3093 332.346 47.188 332.943 47.188V48.504H332.607C331.179 48.504 330.465 49.2787 330.465 50.828V55H329.191V47.328H330.465V48.574ZM337.13 55.126C336.542 55.126 336.015 55.028 335.548 54.832C335.081 54.6267 334.713 54.3467 334.442 53.992C334.171 53.628 334.022 53.2127 333.994 52.746H335.31C335.347 53.1287 335.525 53.4413 335.842 53.684C336.169 53.9267 336.593 54.048 337.116 54.048C337.601 54.048 337.984 53.9407 338.264 53.726C338.544 53.5113 338.684 53.2407 338.684 52.914C338.684 52.578 338.535 52.3307 338.236 52.172C337.937 52.004 337.475 51.8407 336.85 51.682C336.281 51.5327 335.814 51.3833 335.45 51.234C335.095 51.0753 334.787 50.8467 334.526 50.548C334.274 50.24 334.148 49.8387 334.148 49.344C334.148 48.952 334.265 48.5927 334.498 48.266C334.731 47.9393 335.063 47.6827 335.492 47.496C335.921 47.3 336.411 47.202 336.962 47.202C337.811 47.202 338.497 47.4167 339.02 47.846C339.543 48.2753 339.823 48.8633 339.86 49.61H338.586C338.558 49.2087 338.395 48.8867 338.096 48.644C337.807 48.4013 337.415 48.28 336.92 48.28C336.463 48.28 336.099 48.378 335.828 48.574C335.557 48.77 335.422 49.0267 335.422 49.344C335.422 49.596 335.501 49.806 335.66 49.974C335.828 50.1327 336.033 50.2633 336.276 50.366C336.528 50.4593 336.873 50.5667 337.312 50.688C337.863 50.8373 338.311 50.9867 338.656 51.136C339.001 51.276 339.295 51.4907 339.538 51.78C339.79 52.0693 339.921 52.4473 339.93 52.914C339.93 53.334 339.813 53.712 339.58 54.048C339.347 54.384 339.015 54.65 338.586 54.846C338.166 55.0327 337.681 55.126 337.13 55.126Z" fill="#3A3A3A"/>
</g>
<defs>
<filter id="filter0_d_557_3774" x="0.5" y="0" width="385" height="78" filterUnits="userSpaceOnUse" color-interpolation-filters="sRGB">
<feFlood flood-opacity="0" result="BackgroundImageFix"/>
<feColorMatrix in="SourceAlpha" type="matrix" values="0 0 0 0 0 0 0 0 0 0 0 0 0 0 0 0 0 0 127 0" result="hardAlpha"/>
<feOffset dx="1.5" dy="2"/>
<feGaussianBlur stdDeviation="4"/>
<feComposite in2="hardAlpha" operator="out"/>
<feColorMatrix type="matrix" values="0 0 0 0 0 0 0 0 0 0 0 0 0 0 0 0 0 0 0.25 0"/>
<feBlend mode="normal" in2="BackgroundImageFix" result="effect1_dropShadow_557_3774"/>
<feBlend mode="normal" in="SourceGraphic" in2="effect1_dropShadow_557_3774" result="shape"/>
</filter>
</defs>
</svg>
