<svg width="386" height="78" viewBox="0 0 386 78" fill="none" xmlns="http://www.w3.org/2000/svg">
<g filter="url(#filter0_d_557_3775)">
<rect x="7.25" y="6.25" width="368.5" height="61.5" rx="7.75" stroke="#FFD559" stroke-width="0.5" shape-rendering="crispEdges"/>
<path d="M7 14C7 9.58172 10.5817 6 15 6H63V68H15C10.5817 68 7 64.4183 7 60V14Z" fill="#FFC107"/>
<path fill-rule="evenodd" clip-rule="evenodd" d="M35 49C41.6274 49 47 43.6274 47 37C47 30.3726 41.6274 25 35 25C28.3726 25 23 30.3726 23 37C23 43.6274 28.3726 49 35 49ZM35.6468 38.4274L35.921 31.8583H33.3839L33.6582 38.4274H35.6468ZM33.6719 41.5817C33.937 41.8194 34.2753 41.9383 34.6868 41.9383C35.089 41.9383 35.4182 41.8194 35.6742 41.5817C35.9393 41.3348 36.0719 41.0331 36.0719 40.6765C36.0719 40.3108 35.9393 40.0045 35.6742 39.7577C35.4182 39.5108 35.089 39.3874 34.6868 39.3874C34.2753 39.3874 33.937 39.5108 33.6719 39.7577C33.4159 40.0045 33.2879 40.3108 33.2879 40.6765C33.2879 41.0331 33.4159 41.3348 33.6719 41.5817Z" fill="white"/>
<path d="M88.64 20.49L84.932 33H82.61L79.982 23.532L77.192 33L74.888 33.018L71.342 20.49H73.52L76.112 30.678L78.92 20.49H81.224L83.834 30.624L86.444 20.49H88.64ZM89.6484 27.996C89.6484 27 89.8524 26.118 90.2604 25.35C90.6804 24.582 91.2444 23.988 91.9524 23.568C92.6724 23.136 93.4644 22.92 94.3284 22.92C95.1084 22.92 95.7864 23.076 96.3624 23.388C96.9504 23.688 97.4184 24.066 97.7664 24.522V23.082H99.8364V33H97.7664V31.524C97.4184 31.992 96.9444 32.382 96.3444 32.694C95.7444 33.006 95.0604 33.162 94.2924 33.162C93.4404 33.162 92.6604 32.946 91.9524 32.514C91.2444 32.07 90.6804 31.458 90.2604 30.678C89.8524 29.886 89.6484 28.992 89.6484 27.996ZM97.7664 28.032C97.7664 27.348 97.6224 26.754 97.3344 26.25C97.0584 25.746 96.6924 25.362 96.2364 25.098C95.7804 24.834 95.2884 24.702 94.7604 24.702C94.2324 24.702 93.7404 24.834 93.2844 25.098C92.8284 25.35 92.4564 25.728 92.1684 26.232C91.8924 26.724 91.7544 27.312 91.7544 27.996C91.7544 28.68 91.8924 29.28 92.1684 29.796C92.4564 30.312 92.8284 30.708 93.2844 30.984C93.7524 31.248 94.2444 31.38 94.7604 31.38C95.2884 31.38 95.7804 31.248 96.2364 30.984C96.6924 30.72 97.0584 30.336 97.3344 29.832C97.6224 29.316 97.7664 28.716 97.7664 28.032ZM104.584 24.522C104.884 24.018 105.28 23.628 105.772 23.352C106.276 23.064 106.87 22.92 107.554 22.92V25.044H107.032C106.228 25.044 105.616 25.248 105.196 25.656C104.788 26.064 104.584 26.772 104.584 27.78V33H102.532V23.082H104.584V24.522ZM114.444 22.92C115.224 22.92 115.92 23.082 116.532 23.406C117.156 23.73 117.642 24.21 117.99 24.846C118.338 25.482 118.512 26.25 118.512 27.15V33H116.478V27.456C116.478 26.568 116.256 25.89 115.812 25.422C115.368 24.942 114.762 24.702 113.994 24.702C113.226 24.702 112.614 24.942 112.158 25.422C111.714 25.89 111.492 26.568 111.492 27.456V33H109.44V23.082H111.492V24.216C111.828 23.808 112.254 23.49 112.77 23.262C113.298 23.034 113.856 22.92 114.444 22.92ZM122.173 21.768C121.801 21.768 121.489 21.642 121.237 21.39C120.985 21.138 120.859 20.826 120.859 20.454C120.859 20.082 120.985 19.77 121.237 19.518C121.489 19.266 121.801 19.14 122.173 19.14C122.533 19.14 122.839 19.266 123.091 19.518C123.343 19.77 123.469 20.082 123.469 20.454C123.469 20.826 123.343 21.138 123.091 21.39C122.839 21.642 122.533 21.768 122.173 21.768ZM123.181 23.082V33H121.129V23.082H123.181ZM130.879 22.92C131.659 22.92 132.355 23.082 132.967 23.406C133.591 23.73 134.077 24.21 134.425 24.846C134.773 25.482 134.947 26.25 134.947 27.15V33H132.913V27.456C132.913 26.568 132.691 25.89 132.247 25.422C131.803 24.942 131.197 24.702 130.429 24.702C129.661 24.702 129.049 24.942 128.593 25.422C128.149 25.89 127.927 26.568 127.927 27.456V33H125.875V23.082H127.927V24.216C128.263 23.808 128.689 23.49 129.205 23.262C129.733 23.034 130.291 22.92 130.879 22.92ZM141.561 22.92C142.329 22.92 143.007 23.076 143.595 23.388C144.195 23.688 144.663 24.066 144.999 24.522V23.082H147.069V33.162C147.069 34.074 146.877 34.884 146.493 35.592C146.109 36.312 145.551 36.876 144.819 37.284C144.099 37.692 143.235 37.896 142.227 37.896C140.883 37.896 139.767 37.578 138.879 36.942C137.991 36.318 137.487 35.466 137.367 34.386H139.401C139.557 34.902 139.887 35.316 140.391 35.628C140.907 35.952 141.519 36.114 142.227 36.114C143.055 36.114 143.721 35.862 144.225 35.358C144.741 34.854 144.999 34.122 144.999 33.162V31.506C144.651 31.974 144.177 32.37 143.577 32.694C142.989 33.006 142.317 33.162 141.561 33.162C140.697 33.162 139.905 32.946 139.185 32.514C138.477 32.07 137.913 31.458 137.493 30.678C137.085 29.886 136.881 28.992 136.881 27.996C136.881 27 137.085 26.118 137.493 25.35C137.913 24.582 138.477 23.988 139.185 23.568C139.905 23.136 140.697 22.92 141.561 22.92ZM144.999 28.032C144.999 27.348 144.855 26.754 144.567 26.25C144.291 25.746 143.925 25.362 143.469 25.098C143.013 24.834 142.521 24.702 141.993 24.702C141.465 24.702 140.973 24.834 140.517 25.098C140.061 25.35 139.689 25.728 139.401 26.232C139.125 26.724 138.987 27.312 138.987 27.996C138.987 28.68 139.125 29.28 139.401 29.796C139.689 30.312 140.061 30.708 140.517 30.984C140.985 31.248 141.477 31.38 141.993 31.38C142.521 31.38 143.013 31.248 143.469 30.984C143.925 30.72 144.291 30.336 144.567 29.832C144.855 29.316 144.999 28.716 144.999 28.032ZM152.338 20.49L152.104 29.22H150.394L150.16 20.49H152.338ZM151.312 33.126C150.94 33.126 150.628 33 150.376 32.748C150.124 32.496 149.998 32.184 149.998 31.812C149.998 31.44 150.124 31.128 150.376 30.876C150.628 30.624 150.94 30.498 151.312 30.498C151.672 30.498 151.978 30.624 152.23 30.876C152.482 31.128 152.608 31.44 152.608 31.812C152.608 32.184 152.482 32.496 152.23 32.748C151.978 33 151.672 33.126 151.312 33.126Z" fill="#3A3A3A"/>
<path d="M78.084 45.242V46.278H75.424V55H74.15V46.278H71.476V45.242H78.084ZM86.2602 47.328L81.6402 58.612H80.3242L81.8362 54.916L78.7422 47.328H80.1562L82.5642 53.544L84.9442 47.328H86.2602ZM88.8149 48.742C89.0669 48.3033 89.4402 47.9393 89.9349 47.65C90.4389 47.3513 91.0222 47.202 91.6849 47.202C92.3662 47.202 92.9822 47.3653 93.5329 47.692C94.0929 48.0187 94.5316 48.4807 94.8489 49.078C95.1662 49.666 95.3249 50.352 95.3249 51.136C95.3249 51.9107 95.1662 52.6013 94.8489 53.208C94.5316 53.8147 94.0929 54.286 93.5329 54.622C92.9822 54.958 92.3662 55.126 91.6849 55.126C91.0316 55.126 90.4529 54.9813 89.9489 54.692C89.4542 54.3933 89.0762 54.0247 88.8149 53.586V58.64H87.5409V47.328H88.8149V48.742ZM94.0229 51.136C94.0229 50.5573 93.9062 50.0533 93.6729 49.624C93.4396 49.1947 93.1222 48.868 92.7209 48.644C92.3289 48.42 91.8949 48.308 91.4189 48.308C90.9522 48.308 90.5182 48.4247 90.1169 48.658C89.7249 48.882 89.4076 49.2133 89.1649 49.652C88.9316 50.0813 88.8149 50.5807 88.8149 51.15C88.8149 51.7287 88.9316 52.2373 89.1649 52.676C89.4076 53.1053 89.7249 53.4367 90.1169 53.67C90.5182 53.894 90.9522 54.006 91.4189 54.006C91.8949 54.006 92.3289 53.894 92.7209 53.67C93.1222 53.4367 93.4396 53.1053 93.6729 52.676C93.9062 52.2373 94.0229 51.724 94.0229 51.136ZM104.002 50.87C104.002 51.1127 103.988 51.3693 103.96 51.64H97.8278C97.8745 52.396 98.1312 52.9887 98.5978 53.418C99.0738 53.838 99.6478 54.048 100.32 54.048C100.87 54.048 101.328 53.922 101.692 53.67C102.065 53.4087 102.326 53.0633 102.476 52.634H103.848C103.642 53.3713 103.232 53.9733 102.616 54.44C102 54.8973 101.234 55.126 100.32 55.126C99.5918 55.126 98.9385 54.9627 98.3598 54.636C97.7905 54.3093 97.3425 53.8473 97.0158 53.25C96.6892 52.6433 96.5258 51.9433 96.5258 51.15C96.5258 50.3567 96.6845 49.6613 97.0018 49.064C97.3192 48.4667 97.7625 48.0093 98.3318 47.692C98.9105 47.3653 99.5732 47.202 100.32 47.202C101.048 47.202 101.692 47.3607 102.252 47.678C102.812 47.9953 103.241 48.434 103.54 48.994C103.848 49.5447 104.002 50.17 104.002 50.87ZM102.686 50.604C102.686 50.1187 102.578 49.7033 102.364 49.358C102.149 49.0033 101.855 48.7373 101.482 48.56C101.118 48.3733 100.712 48.28 100.264 48.28C99.6198 48.28 99.0692 48.4853 98.6118 48.896C98.1638 49.3067 97.9072 49.876 97.8418 50.604H102.686ZM119.636 47.328L117.242 55H115.926L114.078 48.91L112.23 55H110.914L108.506 47.328H109.808L111.572 53.768L113.476 47.328H114.778L116.64 53.782L118.376 47.328H119.636ZM120.424 51.136C120.424 50.352 120.583 49.666 120.9 49.078C121.218 48.4807 121.652 48.0187 122.202 47.692C122.762 47.3653 123.383 47.202 124.064 47.202C124.736 47.202 125.32 47.3467 125.814 47.636C126.309 47.9253 126.678 48.2893 126.92 48.728V47.328H128.208V55H126.92V53.572C126.668 54.02 126.29 54.3933 125.786 54.692C125.292 54.9813 124.713 55.126 124.05 55.126C123.369 55.126 122.753 54.958 122.202 54.622C121.652 54.286 121.218 53.8147 120.9 53.208C120.583 52.6013 120.424 51.9107 120.424 51.136ZM126.92 51.15C126.92 50.5713 126.804 50.0673 126.57 49.638C126.337 49.2087 126.02 48.882 125.618 48.658C125.226 48.4247 124.792 48.308 124.316 48.308C123.84 48.308 123.406 48.42 123.014 48.644C122.622 48.868 122.31 49.1947 122.076 49.624C121.843 50.0533 121.726 50.5573 121.726 51.136C121.726 51.724 121.843 52.2373 122.076 52.676C122.31 53.1053 122.622 53.4367 123.014 53.67C123.406 53.894 123.84 54.006 124.316 54.006C124.792 54.006 125.226 53.894 125.618 53.67C126.02 53.4367 126.337 53.1053 126.57 52.676C126.804 52.2373 126.92 51.7287 126.92 51.15ZM131.635 48.574C131.859 48.1353 132.177 47.7947 132.587 47.552C133.007 47.3093 133.516 47.188 134.113 47.188V48.504H133.777C132.349 48.504 131.635 49.2787 131.635 50.828V55H130.361V47.328H131.635V48.574ZM139.322 47.188C140.255 47.188 141.011 47.4727 141.59 48.042C142.169 48.602 142.458 49.414 142.458 50.478V55H141.198V50.66C141.198 49.8947 141.007 49.3113 140.624 48.91C140.241 48.4993 139.719 48.294 139.056 48.294C138.384 48.294 137.847 48.504 137.446 48.924C137.054 49.344 136.858 49.9553 136.858 50.758V55H135.584V47.328H136.858V48.42C137.11 48.028 137.451 47.7247 137.88 47.51C138.319 47.2953 138.799 47.188 139.322 47.188ZM145.197 46.082C144.954 46.082 144.749 45.998 144.581 45.83C144.413 45.662 144.329 45.4567 144.329 45.214C144.329 44.9713 144.413 44.766 144.581 44.598C144.749 44.43 144.954 44.346 145.197 44.346C145.43 44.346 145.626 44.43 145.785 44.598C145.953 44.766 146.037 44.9713 146.037 45.214C146.037 45.4567 145.953 45.662 145.785 45.83C145.626 45.998 145.43 46.082 145.197 46.082ZM145.813 47.328V55H144.539V47.328H145.813ZM151.722 47.188C152.656 47.188 153.412 47.4727 153.99 48.042C154.569 48.602 154.858 49.414 154.858 50.478V55H153.598V50.66C153.598 49.8947 153.407 49.3113 153.024 48.91C152.642 48.4993 152.119 48.294 151.456 48.294C150.784 48.294 150.248 48.504 149.846 48.924C149.454 49.344 149.258 49.9553 149.258 50.758V55H147.984V47.328H149.258V48.42C149.51 48.028 149.851 47.7247 150.28 47.51C150.719 47.2953 151.2 47.188 151.722 47.188ZM160.103 47.202C160.766 47.202 161.345 47.3467 161.839 47.636C162.343 47.9253 162.717 48.2893 162.959 48.728V47.328H164.247V55.168C164.247 55.868 164.098 56.4887 163.799 57.03C163.501 57.5807 163.071 58.01 162.511 58.318C161.961 58.626 161.317 58.78 160.579 58.78C159.571 58.78 158.731 58.542 158.059 58.066C157.387 57.59 156.991 56.9413 156.869 56.12H158.129C158.269 56.5867 158.559 56.96 158.997 57.24C159.436 57.5293 159.963 57.674 160.579 57.674C161.279 57.674 161.849 57.4547 162.287 57.016C162.735 56.5773 162.959 55.9613 162.959 55.168V53.558C162.707 54.006 162.334 54.3793 161.839 54.678C161.345 54.9767 160.766 55.126 160.103 55.126C159.422 55.126 158.801 54.958 158.241 54.622C157.691 54.286 157.257 53.8147 156.939 53.208C156.622 52.6013 156.463 51.9107 156.463 51.136C156.463 50.352 156.622 49.666 156.939 49.078C157.257 48.4807 157.691 48.0187 158.241 47.692C158.801 47.3653 159.422 47.202 160.103 47.202ZM162.959 51.15C162.959 50.5713 162.843 50.0673 162.609 49.638C162.376 49.2087 162.059 48.882 161.657 48.658C161.265 48.4247 160.831 48.308 160.355 48.308C159.879 48.308 159.445 48.42 159.053 48.644C158.661 48.868 158.349 49.1947 158.115 49.624C157.882 50.0533 157.765 50.5573 157.765 51.136C157.765 51.724 157.882 52.2373 158.115 52.676C158.349 53.1053 158.661 53.4367 159.053 53.67C159.445 53.894 159.879 54.006 160.355 54.006C160.831 54.006 161.265 53.894 161.657 53.67C162.059 53.4367 162.376 53.1053 162.609 52.676C162.843 52.2373 162.959 51.7287 162.959 51.15ZM173.941 47.188C174.519 47.188 175.042 47.314 175.509 47.566C175.975 47.8087 176.339 48.1773 176.601 48.672C176.871 49.1667 177.007 49.7687 177.007 50.478V55H175.747V50.66C175.747 49.8947 175.555 49.3113 175.173 48.91C174.79 48.4993 174.267 48.294 173.605 48.294C172.933 48.294 172.396 48.504 171.995 48.924C171.603 49.344 171.407 49.9553 171.407 50.758V55H170.133V44.64H171.407V48.42C171.659 48.028 172.004 47.7247 172.443 47.51C172.891 47.2953 173.39 47.188 173.941 47.188ZM186.088 50.87C186.088 51.1127 186.074 51.3693 186.046 51.64H179.914C179.96 52.396 180.217 52.9887 180.684 53.418C181.16 53.838 181.734 54.048 182.406 54.048C182.956 54.048 183.414 53.922 183.778 53.67C184.151 53.4087 184.412 53.0633 184.562 52.634H185.934C185.728 53.3713 185.318 53.9733 184.702 54.44C184.086 54.8973 183.32 55.126 182.406 55.126C181.678 55.126 181.024 54.9627 180.446 54.636C179.876 54.3093 179.428 53.8473 179.102 53.25C178.775 52.6433 178.612 51.9433 178.612 51.15C178.612 50.3567 178.77 49.6613 179.088 49.064C179.405 48.4667 179.848 48.0093 180.418 47.692C180.996 47.3653 181.659 47.202 182.406 47.202C183.134 47.202 183.778 47.3607 184.338 47.678C184.898 47.9953 185.327 48.434 185.626 48.994C185.934 49.5447 186.088 50.17 186.088 50.87ZM184.772 50.604C184.772 50.1187 184.664 49.7033 184.45 49.358C184.235 49.0033 183.941 48.7373 183.568 48.56C183.204 48.3733 182.798 48.28 182.35 48.28C181.706 48.28 181.155 48.4853 180.698 48.896C180.25 49.3067 179.993 49.876 179.928 50.604H184.772ZM189.043 48.574C189.267 48.1353 189.585 47.7947 189.995 47.552C190.415 47.3093 190.924 47.188 191.521 47.188V48.504H191.185C189.757 48.504 189.043 49.2787 189.043 50.828V55H187.769V47.328H189.043V48.574ZM199.992 50.87C199.992 51.1127 199.978 51.3693 199.95 51.64H193.818C193.865 52.396 194.121 52.9887 194.588 53.418C195.064 53.838 195.638 54.048 196.31 54.048C196.861 54.048 197.318 53.922 197.682 53.67C198.055 53.4087 198.317 53.0633 198.466 52.634H199.838C199.633 53.3713 199.222 53.9733 198.606 54.44C197.99 54.8973 197.225 55.126 196.31 55.126C195.582 55.126 194.929 54.9627 194.35 54.636C193.781 54.3093 193.333 53.8473 193.006 53.25C192.679 52.6433 192.516 51.9433 192.516 51.15C192.516 50.3567 192.675 49.6613 192.992 49.064C193.309 48.4667 193.753 48.0093 194.322 47.692C194.901 47.3653 195.563 47.202 196.31 47.202C197.038 47.202 197.682 47.3607 198.242 47.678C198.802 47.9953 199.231 48.434 199.53 48.994C199.838 49.5447 199.992 50.17 199.992 50.87ZM198.676 50.604C198.676 50.1187 198.569 49.7033 198.354 49.358C198.139 49.0033 197.845 48.7373 197.472 48.56C197.108 48.3733 196.702 48.28 196.254 48.28C195.61 48.28 195.059 48.4853 194.602 48.896C194.154 49.3067 193.897 49.876 193.832 50.604H198.676Z" fill="#3A3A3A"/>
</g>
<defs>
<filter id="filter0_d_557_3775" x="0.5" y="0" width="385" height="78" filterUnits="userSpaceOnUse" color-interpolation-filters="sRGB">
<feFlood flood-opacity="0" result="BackgroundImageFix"/>
<feColorMatrix in="SourceAlpha" type="matrix" values="0 0 0 0 0 0 0 0 0 0 0 0 0 0 0 0 0 0 127 0" result="hardAlpha"/>
<feOffset dx="1.5" dy="2"/>
<feGaussianBlur stdDeviation="4"/>
<feComposite in2="hardAlpha" operator="out"/>
<feColorMatrix type="matrix" values="0 0 0 0 0 0 0 0 0 0 0 0 0 0 0 0 0 0 0.25 0"/>
<feBlend mode="normal" in2="BackgroundImageFix" result="effect1_dropShadow_557_3775"/>
<feBlend mode="normal" in="SourceGraphic" in2="effect1_dropShadow_557_3775" result="shape"/>
</filter>
</defs>
</svg>
