<svg width="272" height="15" viewBox="0 0 272 15" fill="none" xmlns="http://www.w3.org/2000/svg">
<path d="M6.818 5.96C7.38733 6.08133 7.84467 6.366 8.19 6.814C8.53533 7.25267 8.708 7.75667 8.708 8.326C8.708 9.14733 8.41867 9.80067 7.84 10.286C7.27067 10.762 6.47267 11 5.446 11H0.868V1.172H5.292C6.29067 1.172 7.07 1.40067 7.63 1.858C8.19933 2.31533 8.484 2.936 8.484 3.72C8.484 4.29867 8.33 4.77933 8.022 5.162C7.72333 5.54467 7.322 5.81067 6.818 5.96ZM3.262 5.148H4.83C5.222 5.148 5.52067 5.064 5.726 4.896C5.94067 4.71867 6.048 4.462 6.048 4.126C6.048 3.79 5.94067 3.53333 5.726 3.356C5.52067 3.17867 5.222 3.09 4.83 3.09H3.262V5.148ZM5.026 9.068C5.42733 9.068 5.73533 8.97933 5.95 8.802C6.174 8.61533 6.286 8.34933 6.286 8.004C6.286 7.65867 6.16933 7.388 5.936 7.192C5.712 6.996 5.39933 6.898 4.998 6.898H3.262V9.068H5.026ZM13.6525 11.112C12.8872 11.112 12.1965 10.9487 11.5805 10.622C10.9738 10.2953 10.4932 9.82867 10.1385 9.222C9.79318 8.61533 9.62052 7.906 9.62052 7.094C9.62052 6.29133 9.79785 5.58667 10.1525 4.98C10.5072 4.364 10.9925 3.89267 11.6085 3.566C12.2245 3.23933 12.9152 3.076 13.6805 3.076C14.4458 3.076 15.1365 3.23933 15.7525 3.566C16.3685 3.89267 16.8538 4.364 17.2085 4.98C17.5632 5.58667 17.7405 6.29133 17.7405 7.094C17.7405 7.89667 17.5585 8.606 17.1945 9.222C16.8398 9.82867 16.3498 10.2953 15.7245 10.622C15.1085 10.9487 14.4178 11.112 13.6525 11.112ZM13.6525 9.04C14.1098 9.04 14.4972 8.872 14.8145 8.536C15.1412 8.2 15.3045 7.71933 15.3045 7.094C15.3045 6.46867 15.1458 5.988 14.8285 5.652C14.5205 5.316 14.1378 5.148 13.6805 5.148C13.2138 5.148 12.8265 5.316 12.5185 5.652C12.2105 5.97867 12.0565 6.45933 12.0565 7.094C12.0565 7.71933 12.2058 8.2 12.5045 8.536C12.8125 8.872 13.1952 9.04 13.6525 9.04ZM18.5346 7.08C18.5346 6.27733 18.6839 5.57267 18.9826 4.966C19.2906 4.35933 19.7059 3.89267 20.2286 3.566C20.7512 3.23933 21.3346 3.076 21.9786 3.076C22.4919 3.076 22.9586 3.18333 23.3786 3.398C23.8079 3.61267 24.1439 3.902 24.3866 4.266V0.64H26.7806V11H24.3866V9.88C24.1626 10.2533 23.8406 10.552 23.4206 10.776C23.0099 11 22.5292 11.112 21.9786 11.112C21.3346 11.112 20.7512 10.9487 20.2286 10.622C19.7059 10.286 19.2906 9.81467 18.9826 9.208C18.6839 8.592 18.5346 7.88267 18.5346 7.08ZM24.3866 7.094C24.3866 6.49667 24.2186 6.02533 23.8826 5.68C23.5559 5.33467 23.1546 5.162 22.6786 5.162C22.2026 5.162 21.7966 5.33467 21.4606 5.68C21.1339 6.016 20.9706 6.48267 20.9706 7.08C20.9706 7.67733 21.1339 8.15333 21.4606 8.508C21.7966 8.85333 22.2026 9.026 22.6786 9.026C23.1546 9.026 23.5559 8.85333 23.8826 8.508C24.2186 8.16267 24.3866 7.69133 24.3866 7.094ZM36.4925 3.188L31.5925 14.71H29.0165L30.8085 10.734L27.6305 3.188H30.3045L32.1105 8.074L33.9025 3.188H36.4925ZM43.881 11.098C43.1624 11.098 42.5184 10.9813 41.949 10.748C41.3797 10.5147 40.9224 10.1693 40.577 9.712C40.241 9.25467 40.0637 8.704 40.045 8.06H42.593C42.6304 8.424 42.7564 8.704 42.971 8.9C43.1857 9.08667 43.4657 9.18 43.811 9.18C44.1657 9.18 44.4457 9.10067 44.651 8.942C44.8564 8.774 44.959 8.54533 44.959 8.256C44.959 8.01333 44.875 7.81267 44.707 7.654C44.5484 7.49533 44.3477 7.36467 44.105 7.262C43.8717 7.15933 43.5357 7.04267 43.097 6.912C42.4624 6.716 41.9444 6.52 41.543 6.324C41.1417 6.128 40.7964 5.83867 40.507 5.456C40.2177 5.07333 40.073 4.574 40.073 3.958C40.073 3.04333 40.4044 2.32933 41.067 1.816C41.7297 1.29333 42.593 1.032 43.657 1.032C44.7397 1.032 45.6124 1.29333 46.275 1.816C46.9377 2.32933 47.2924 3.048 47.339 3.972H44.749C44.7304 3.65467 44.6137 3.40733 44.399 3.23C44.1844 3.04333 43.909 2.95 43.573 2.95C43.2837 2.95 43.0504 3.02933 42.873 3.188C42.6957 3.33733 42.607 3.55667 42.607 3.846C42.607 4.16333 42.7564 4.41067 43.055 4.588C43.3537 4.76533 43.8204 4.95667 44.455 5.162C45.0897 5.37667 45.603 5.582 45.995 5.778C46.3964 5.974 46.7417 6.25867 47.031 6.632C47.3204 7.00533 47.465 7.486 47.465 8.074C47.465 8.634 47.3204 9.14267 47.031 9.6C46.751 10.0573 46.3404 10.4213 45.799 10.692C45.2577 10.9627 44.6184 11.098 43.881 11.098ZM58.9063 3.104C59.877 3.104 60.647 3.398 61.2163 3.986C61.795 4.574 62.0843 5.39067 62.0843 6.436V11H59.7043V6.758C59.7043 6.254 59.569 5.86667 59.2983 5.596C59.037 5.316 58.673 5.176 58.2063 5.176C57.7396 5.176 57.371 5.316 57.1003 5.596C56.839 5.86667 56.7083 6.254 56.7083 6.758V11H54.3283V6.758C54.3283 6.254 54.193 5.86667 53.9223 5.596C53.661 5.316 53.297 5.176 52.8303 5.176C52.3636 5.176 51.995 5.316 51.7243 5.596C51.463 5.86667 51.3323 6.254 51.3323 6.758V11H48.9383V3.188H51.3323V4.168C51.575 3.84133 51.8923 3.58467 52.2843 3.398C52.6763 3.202 53.1196 3.104 53.6143 3.104C54.2023 3.104 54.725 3.23 55.1823 3.482C55.649 3.734 56.013 4.09333 56.2743 4.56C56.545 4.13067 56.9136 3.78067 57.3803 3.51C57.847 3.23933 58.3556 3.104 58.9063 3.104ZM63.2826 7.08C63.2826 6.27733 63.432 5.57267 63.7306 4.966C64.0386 4.35933 64.454 3.89267 64.9766 3.566C65.4993 3.23933 66.0826 3.076 66.7266 3.076C67.2773 3.076 67.758 3.188 68.1686 3.412C68.5886 3.636 68.9106 3.93 69.1346 4.294V3.188H71.5286V11H69.1346V9.894C68.9013 10.258 68.5746 10.552 68.1546 10.776C67.744 11 67.2633 11.112 66.7126 11.112C66.078 11.112 65.4993 10.9487 64.9766 10.622C64.454 10.286 64.0386 9.81467 63.7306 9.208C63.432 8.592 63.2826 7.88267 63.2826 7.08ZM69.1346 7.094C69.1346 6.49667 68.9666 6.02533 68.6306 5.68C68.304 5.33467 67.9026 5.162 67.4266 5.162C66.9506 5.162 66.5446 5.33467 66.2086 5.68C65.882 6.016 65.7186 6.48267 65.7186 7.08C65.7186 7.67733 65.882 8.15333 66.2086 8.508C66.5446 8.85333 66.9506 9.026 67.4266 9.026C67.9026 9.026 68.304 8.85333 68.6306 8.508C68.9666 8.16267 69.1346 7.69133 69.1346 7.094ZM75.6546 0.64V11H73.2606V0.64H75.6546ZM79.7835 0.64V11H77.3895V0.64H79.7835ZM84.0944 8.788L82.5404 12.806H81.0144L81.8264 8.788H84.0944ZM94.4547 5.96C95.0241 6.08133 95.4814 6.366 95.8267 6.814C96.1721 7.25267 96.3447 7.75667 96.3447 8.326C96.3447 9.14733 96.0554 9.80067 95.4767 10.286C94.9074 10.762 94.1094 11 93.0827 11H88.5047V1.172H92.9287C93.9274 1.172 94.7067 1.40067 95.2667 1.858C95.8361 2.31533 96.1207 2.936 96.1207 3.72C96.1207 4.29867 95.9667 4.77933 95.6587 5.162C95.3601 5.54467 94.9587 5.81067 94.4547 5.96ZM90.8987 5.148H92.4667C92.8587 5.148 93.1574 5.064 93.3627 4.896C93.5774 4.71867 93.6847 4.462 93.6847 4.126C93.6847 3.79 93.5774 3.53333 93.3627 3.356C93.1574 3.17867 92.8587 3.09 92.4667 3.09H90.8987V5.148ZM92.6627 9.068C93.0641 9.068 93.3721 8.97933 93.5867 8.802C93.8107 8.61533 93.9227 8.34933 93.9227 8.004C93.9227 7.65867 93.8061 7.388 93.5727 7.192C93.3487 6.996 93.0361 6.898 92.6347 6.898H90.8987V9.068H92.6627ZM101.289 11.112C100.524 11.112 99.8332 10.9487 99.2172 10.622C98.6106 10.2953 98.1299 9.82867 97.7752 9.222C97.4299 8.61533 97.2572 7.906 97.2572 7.094C97.2572 6.29133 97.4346 5.58667 97.7892 4.98C98.1439 4.364 98.6292 3.89267 99.2452 3.566C99.8612 3.23933 100.552 3.076 101.317 3.076C102.083 3.076 102.773 3.23933 103.389 3.566C104.005 3.89267 104.491 4.364 104.845 4.98C105.2 5.58667 105.377 6.29133 105.377 7.094C105.377 7.89667 105.195 8.606 104.831 9.222C104.477 9.82867 103.987 10.2953 103.361 10.622C102.745 10.9487 102.055 11.112 101.289 11.112ZM101.289 9.04C101.747 9.04 102.134 8.872 102.451 8.536C102.778 8.2 102.941 7.71933 102.941 7.094C102.941 6.46867 102.783 5.988 102.465 5.652C102.157 5.316 101.775 5.148 101.317 5.148C100.851 5.148 100.463 5.316 100.155 5.652C99.8472 5.97867 99.6932 6.45933 99.6932 7.094C99.6932 7.71933 99.8426 8.2 100.141 8.536C100.449 8.872 100.832 9.04 101.289 9.04ZM109.041 0.64V11H106.647V0.64H109.041ZM110.3 7.08C110.3 6.27733 110.45 5.57267 110.748 4.966C111.056 4.35933 111.472 3.89267 111.994 3.566C112.517 3.23933 113.1 3.076 113.744 3.076C114.258 3.076 114.724 3.18333 115.144 3.398C115.574 3.61267 115.91 3.902 116.152 4.266V0.64H118.546V11H116.152V9.88C115.928 10.2533 115.606 10.552 115.186 10.776C114.776 11 114.295 11.112 113.744 11.112C113.1 11.112 112.517 10.9487 111.994 10.622C111.472 10.286 111.056 9.81467 110.748 9.208C110.45 8.592 110.3 7.88267 110.3 7.08ZM116.152 7.094C116.152 6.49667 115.984 6.02533 115.648 5.68C115.322 5.33467 114.92 5.162 114.444 5.162C113.968 5.162 113.562 5.33467 113.226 5.68C112.9 6.016 112.736 6.48267 112.736 7.08C112.736 7.67733 112.9 8.15333 113.226 8.508C113.562 8.85333 113.968 9.026 114.444 9.026C114.92 9.026 115.322 8.85333 115.648 8.508C115.984 8.16267 116.152 7.69133 116.152 7.094ZM129.265 5.092V7.08H123.105V5.092H129.265ZM140.031 11L136.727 6.66V11H134.333V1.172H136.727V5.484L140.003 1.172H142.817L139.009 5.988L142.957 11H140.031ZM151.459 6.968C151.459 7.192 151.445 7.42533 151.417 7.668H145.999C146.036 8.15333 146.19 8.52667 146.461 8.788C146.741 9.04 147.081 9.166 147.483 9.166C148.08 9.166 148.495 8.914 148.729 8.41H151.277C151.146 8.92333 150.908 9.38533 150.563 9.796C150.227 10.2067 149.802 10.5287 149.289 10.762C148.775 10.9953 148.201 11.112 147.567 11.112C146.801 11.112 146.12 10.9487 145.523 10.622C144.925 10.2953 144.459 9.82867 144.123 9.222C143.787 8.61533 143.619 7.906 143.619 7.094C143.619 6.282 143.782 5.57267 144.109 4.966C144.445 4.35933 144.911 3.89267 145.509 3.566C146.106 3.23933 146.792 3.076 147.567 3.076C148.323 3.076 148.995 3.23467 149.583 3.552C150.171 3.86933 150.628 4.322 150.955 4.91C151.291 5.498 151.459 6.184 151.459 6.968ZM149.009 6.338C149.009 5.92733 148.869 5.60067 148.589 5.358C148.309 5.11533 147.959 4.994 147.539 4.994C147.137 4.994 146.797 5.11067 146.517 5.344C146.246 5.57733 146.078 5.90867 146.013 6.338H149.009ZM160.702 3.188L155.802 14.71H153.226L155.018 10.734L151.84 3.188H154.514L156.32 8.074L158.112 3.188H160.702ZM168.09 11.098C167.371 11.098 166.727 10.9813 166.158 10.748C165.589 10.5147 165.131 10.1693 164.786 9.712C164.45 9.25467 164.273 8.704 164.254 8.06H166.802C166.839 8.424 166.965 8.704 167.18 8.9C167.395 9.08667 167.675 9.18 168.02 9.18C168.375 9.18 168.655 9.10067 168.86 8.942C169.065 8.774 169.168 8.54533 169.168 8.256C169.168 8.01333 169.084 7.81267 168.916 7.654C168.757 7.49533 168.557 7.36467 168.314 7.262C168.081 7.15933 167.745 7.04267 167.306 6.912C166.671 6.716 166.153 6.52 165.752 6.324C165.351 6.128 165.005 5.83867 164.716 5.456C164.427 5.07333 164.282 4.574 164.282 3.958C164.282 3.04333 164.613 2.32933 165.276 1.816C165.939 1.29333 166.802 1.032 167.866 1.032C168.949 1.032 169.821 1.29333 170.484 1.816C171.147 2.32933 171.501 3.048 171.548 3.972H168.958C168.939 3.65467 168.823 3.40733 168.608 3.23C168.393 3.04333 168.118 2.95 167.782 2.95C167.493 2.95 167.259 3.02933 167.082 3.188C166.905 3.33733 166.816 3.55667 166.816 3.846C166.816 4.16333 166.965 4.41067 167.264 4.588C167.563 4.76533 168.029 4.95667 168.664 5.162C169.299 5.37667 169.812 5.582 170.204 5.778C170.605 5.974 170.951 6.25867 171.24 6.632C171.529 7.00533 171.674 7.486 171.674 8.074C171.674 8.634 171.529 9.14267 171.24 9.6C170.96 10.0573 170.549 10.4213 170.008 10.692C169.467 10.9627 168.827 11.098 168.09 11.098ZM180.511 6.968C180.511 7.192 180.497 7.42533 180.469 7.668H175.051C175.089 8.15333 175.243 8.52667 175.513 8.788C175.793 9.04 176.134 9.166 176.535 9.166C177.133 9.166 177.548 8.914 177.781 8.41H180.329C180.199 8.92333 179.961 9.38533 179.615 9.796C179.279 10.2067 178.855 10.5287 178.341 10.762C177.828 10.9953 177.254 11.112 176.619 11.112C175.854 11.112 175.173 10.9487 174.575 10.622C173.978 10.2953 173.511 9.82867 173.175 9.222C172.839 8.61533 172.671 7.906 172.671 7.094C172.671 6.282 172.835 5.57267 173.161 4.966C173.497 4.35933 173.964 3.89267 174.561 3.566C175.159 3.23933 175.845 3.076 176.619 3.076C177.375 3.076 178.047 3.23467 178.635 3.552C179.223 3.86933 179.681 4.322 180.007 4.91C180.343 5.498 180.511 6.184 180.511 6.968ZM178.061 6.338C178.061 5.92733 177.921 5.60067 177.641 5.358C177.361 5.11533 177.011 4.994 176.591 4.994C176.19 4.994 175.849 5.11067 175.569 5.344C175.299 5.57733 175.131 5.90867 175.065 6.338H178.061ZM181.298 7.094C181.298 6.282 181.462 5.57267 181.788 4.966C182.124 4.35933 182.586 3.89267 183.174 3.566C183.772 3.23933 184.453 3.076 185.218 3.076C186.198 3.076 187.015 3.33267 187.668 3.846C188.331 4.35933 188.765 5.08267 188.97 6.016H186.422C186.208 5.41867 185.792 5.12 185.176 5.12C184.738 5.12 184.388 5.29267 184.126 5.638C183.865 5.974 183.734 6.45933 183.734 7.094C183.734 7.72867 183.865 8.21867 184.126 8.564C184.388 8.9 184.738 9.068 185.176 9.068C185.792 9.068 186.208 8.76933 186.422 8.172H188.97C188.765 9.08667 188.331 9.80533 187.668 10.328C187.006 10.8507 186.189 11.112 185.218 11.112C184.453 11.112 183.772 10.9487 183.174 10.622C182.586 10.2953 182.124 9.82867 181.788 9.222C181.462 8.61533 181.298 7.906 181.298 7.094ZM193.807 11.112C193.041 11.112 192.351 10.9487 191.735 10.622C191.128 10.2953 190.647 9.82867 190.293 9.222C189.947 8.61533 189.775 7.906 189.775 7.094C189.775 6.29133 189.952 5.58667 190.307 4.98C190.661 4.364 191.147 3.89267 191.763 3.566C192.379 3.23933 193.069 3.076 193.835 3.076C194.6 3.076 195.291 3.23933 195.907 3.566C196.523 3.89267 197.008 4.364 197.363 4.98C197.717 5.58667 197.895 6.29133 197.895 7.094C197.895 7.89667 197.713 8.606 197.349 9.222C196.994 9.82867 196.504 10.2953 195.879 10.622C195.263 10.9487 194.572 11.112 193.807 11.112ZM193.807 9.04C194.264 9.04 194.651 8.872 194.969 8.536C195.295 8.2 195.459 7.71933 195.459 7.094C195.459 6.46867 195.3 5.988 194.983 5.652C194.675 5.316 194.292 5.148 193.835 5.148C193.368 5.148 192.981 5.316 192.673 5.652C192.365 5.97867 192.211 6.45933 192.211 7.094C192.211 7.71933 192.36 8.2 192.659 8.536C192.967 8.872 193.349 9.04 193.807 9.04ZM203.925 3.104C204.84 3.104 205.568 3.40267 206.109 4C206.66 4.588 206.935 5.4 206.935 6.436V11H204.555V6.758C204.555 6.23533 204.42 5.82933 204.149 5.54C203.878 5.25067 203.514 5.106 203.057 5.106C202.6 5.106 202.236 5.25067 201.965 5.54C201.694 5.82933 201.559 6.23533 201.559 6.758V11H199.165V3.188H201.559V4.224C201.802 3.87867 202.128 3.608 202.539 3.412C202.95 3.20667 203.412 3.104 203.925 3.104ZM208.122 7.08C208.122 6.27733 208.272 5.57267 208.57 4.966C208.878 4.35933 209.294 3.89267 209.816 3.566C210.339 3.23933 210.922 3.076 211.566 3.076C212.08 3.076 212.546 3.18333 212.966 3.398C213.396 3.61267 213.732 3.902 213.974 4.266V0.64H216.368V11H213.974V9.88C213.75 10.2533 213.428 10.552 213.008 10.776C212.598 11 212.117 11.112 211.566 11.112C210.922 11.112 210.339 10.9487 209.816 10.622C209.294 10.286 208.878 9.81467 208.57 9.208C208.272 8.592 208.122 7.88267 208.122 7.08ZM213.974 7.094C213.974 6.49667 213.806 6.02533 213.47 5.68C213.144 5.33467 212.742 5.162 212.266 5.162C211.79 5.162 211.384 5.33467 211.048 5.68C210.722 6.016 210.558 6.48267 210.558 7.08C210.558 7.67733 210.722 8.15333 211.048 8.508C211.384 8.85333 211.79 9.026 212.266 9.026C212.742 9.026 213.144 8.85333 213.47 8.508C213.806 8.16267 213.974 7.69133 213.974 7.094ZM217.624 7.08C217.624 6.27733 217.774 5.57267 218.072 4.966C218.38 4.35933 218.796 3.89267 219.318 3.566C219.841 3.23933 220.424 3.076 221.068 3.076C221.619 3.076 222.1 3.188 222.51 3.412C222.93 3.636 223.252 3.93 223.476 4.294V3.188H225.87V11H223.476V9.894C223.243 10.258 222.916 10.552 222.496 10.776C222.086 11 221.605 11.112 221.054 11.112C220.42 11.112 219.841 10.9487 219.318 10.622C218.796 10.286 218.38 9.81467 218.072 9.208C217.774 8.592 217.624 7.88267 217.624 7.08ZM223.476 7.094C223.476 6.49667 223.308 6.02533 222.972 5.68C222.646 5.33467 222.244 5.162 221.768 5.162C221.292 5.162 220.886 5.33467 220.55 5.68C220.224 6.016 220.06 6.48267 220.06 7.08C220.06 7.67733 220.224 8.15333 220.55 8.508C220.886 8.85333 221.292 9.026 221.768 9.026C222.244 9.026 222.646 8.85333 222.972 8.508C223.308 8.16267 223.476 7.69133 223.476 7.094ZM229.996 4.49C230.276 4.06067 230.626 3.72467 231.046 3.482C231.466 3.23 231.933 3.104 232.446 3.104V5.638H231.788C231.191 5.638 230.743 5.76867 230.444 6.03C230.146 6.282 229.996 6.73 229.996 7.374V11H227.602V3.188H229.996V4.49ZM241.571 3.188L236.671 14.71H234.095L235.887 10.734L232.709 3.188H235.383L237.189 8.074L238.981 3.188H241.571ZM247.797 1.172V11H245.403V1.172H247.797ZM254.292 3.104C255.207 3.104 255.935 3.40267 256.476 4C257.027 4.588 257.302 5.4 257.302 6.436V11H254.922V6.758C254.922 6.23533 254.787 5.82933 254.516 5.54C254.245 5.25067 253.881 5.106 253.424 5.106C252.967 5.106 252.603 5.25067 252.332 5.54C252.061 5.82933 251.926 6.23533 251.926 6.758V11H249.532V3.188H251.926V4.224C252.169 3.87867 252.495 3.608 252.906 3.412C253.317 3.20667 253.779 3.104 254.292 3.104ZM262.886 5.176H261.598V11H259.204V5.176H258.336V3.188H259.204V2.964C259.204 2.00267 259.479 1.27467 260.03 0.78C260.58 0.276 261.388 0.0239995 262.452 0.0239995C262.629 0.0239995 262.76 0.0286661 262.844 0.0379993V2.068C262.386 2.04 262.064 2.10533 261.878 2.264C261.691 2.42267 261.598 2.70733 261.598 3.118V3.188H262.886V5.176ZM267.567 11.112C266.801 11.112 266.111 10.9487 265.495 10.622C264.888 10.2953 264.407 9.82867 264.053 9.222C263.707 8.61533 263.535 7.906 263.535 7.094C263.535 6.29133 263.712 5.58667 264.067 4.98C264.421 4.364 264.907 3.89267 265.523 3.566C266.139 3.23933 266.829 3.076 267.595 3.076C268.36 3.076 269.051 3.23933 269.667 3.566C270.283 3.89267 270.768 4.364 271.123 4.98C271.477 5.58667 271.655 6.29133 271.655 7.094C271.655 7.89667 271.473 8.606 271.109 9.222C270.754 9.82867 270.264 10.2953 269.639 10.622C269.023 10.9487 268.332 11.112 267.567 11.112ZM267.567 9.04C268.024 9.04 268.411 8.872 268.729 8.536C269.055 8.2 269.219 7.71933 269.219 7.094C269.219 6.46867 269.06 5.988 268.743 5.652C268.435 5.316 268.052 5.148 267.595 5.148C267.128 5.148 266.741 5.316 266.433 5.652C266.125 5.97867 265.971 6.45933 265.971 7.094C265.971 7.71933 266.12 8.2 266.419 8.536C266.727 8.872 267.109 9.04 267.567 9.04Z" fill="#3A3A3A"/>
</svg>
