<svg width="293" height="15" viewBox="0 0 293 15" fill="none" xmlns="http://www.w3.org/2000/svg">
<path d="M5.258 6.002C5.78067 6.09533 6.224 6.37067 6.588 6.828C6.952 7.28533 7.134 7.80333 7.134 8.382C7.134 8.87667 7.00333 9.32467 6.742 9.726C6.49 10.118 6.12133 10.4307 5.636 10.664C5.15067 10.888 4.586 11 3.942 11H0.05V1.27H3.76C4.42267 1.27 4.992 1.382 5.468 1.606C5.944 1.83 6.30333 2.13333 6.546 2.516C6.78867 2.88933 6.91 3.30933 6.91 3.776C6.91 4.336 6.76067 4.80267 6.462 5.176C6.16333 5.54933 5.762 5.82467 5.258 6.002ZM1.646 5.358H3.62C4.14267 5.358 4.54867 5.24133 4.838 5.008C5.13667 4.76533 5.286 4.42 5.286 3.972C5.286 3.53333 5.13667 3.19267 4.838 2.95C4.54867 2.698 4.14267 2.572 3.62 2.572H1.646V5.358ZM3.802 9.698C4.34333 9.698 4.768 9.56733 5.076 9.306C5.384 9.04467 5.538 8.68067 5.538 8.214C5.538 7.738 5.37467 7.36 5.048 7.08C4.72133 6.8 4.28733 6.66 3.746 6.66H1.646V9.698H3.802ZM12.2144 11.126C11.4864 11.126 10.8284 10.9627 10.2404 10.636C9.65236 10.3 9.19036 9.83333 8.85436 9.236C8.51836 8.62933 8.35036 7.92933 8.35036 7.136C8.35036 6.352 8.52303 5.65667 8.86836 5.05C9.21369 4.44333 9.68503 3.97667 10.2824 3.65C10.8797 3.32333 11.547 3.16 12.2844 3.16C13.0217 3.16 13.689 3.32333 14.2864 3.65C14.8837 3.97667 15.355 4.44333 15.7004 5.05C16.0457 5.65667 16.2184 6.352 16.2184 7.136C16.2184 7.92 16.041 8.61533 15.6864 9.222C15.3317 9.82867 14.8464 10.3 14.2304 10.636C13.6237 10.9627 12.9517 11.126 12.2144 11.126ZM12.2144 9.74C12.625 9.74 13.0077 9.642 13.3624 9.446C13.7264 9.25 14.0204 8.956 14.2444 8.564C14.4684 8.172 14.5804 7.696 14.5804 7.136C14.5804 6.576 14.473 6.10467 14.2584 5.722C14.0437 5.33 13.759 5.036 13.4044 4.84C13.0497 4.644 12.667 4.546 12.2564 4.546C11.8457 4.546 11.463 4.644 11.1084 4.84C10.763 5.036 10.4877 5.33 10.2824 5.722C10.077 6.10467 9.97436 6.576 9.97436 7.136C9.97436 7.96667 10.1844 8.61067 10.6044 9.068C11.0337 9.516 11.5704 9.74 12.2144 9.74ZM17.2641 7.108C17.2641 6.33333 17.4228 5.64733 17.7401 5.05C18.0668 4.45267 18.5054 3.99067 19.0561 3.664C19.6161 3.328 20.2368 3.16 20.9181 3.16C21.4221 3.16 21.9168 3.272 22.4021 3.496C22.8968 3.71067 23.2888 4 23.5781 4.364V0.64H25.1881V11H23.5781V9.838C23.3168 10.2113 22.9528 10.5193 22.4861 10.762C22.0288 11.0047 21.5014 11.126 20.9041 11.126C20.2321 11.126 19.6161 10.958 19.0561 10.622C18.5054 10.2767 18.0668 9.80067 17.7401 9.194C17.4228 8.578 17.2641 7.88267 17.2641 7.108ZM23.5781 7.136C23.5781 6.604 23.4661 6.142 23.2421 5.75C23.0274 5.358 22.7428 5.05933 22.3881 4.854C22.0334 4.64867 21.6508 4.546 21.2401 4.546C20.8294 4.546 20.4468 4.64867 20.0921 4.854C19.7374 5.05 19.4481 5.344 19.2241 5.736C19.0094 6.11867 18.9021 6.576 18.9021 7.108C18.9021 7.64 19.0094 8.10667 19.2241 8.508C19.4481 8.90933 19.7374 9.21733 20.0921 9.432C20.4561 9.63733 20.8388 9.74 21.2401 9.74C21.6508 9.74 22.0334 9.63733 22.3881 9.432C22.7428 9.22667 23.0274 8.928 23.2421 8.536C23.4661 8.13467 23.5781 7.668 23.5781 7.136ZM34.2284 3.286L29.4964 14.626H27.8444L29.4124 10.874L26.3744 3.286H28.1524L30.3224 9.166L32.5764 3.286H34.2284ZM42.2755 11.098C41.6222 11.098 41.0342 10.986 40.5115 10.762C39.9889 10.5287 39.5782 10.202 39.2795 9.782C38.9809 9.362 38.8315 8.872 38.8315 8.312H40.5395C40.5769 8.732 40.7402 9.07733 41.0295 9.348C41.3282 9.61867 41.7435 9.754 42.2755 9.754C42.8262 9.754 43.2555 9.62333 43.5635 9.362C43.8715 9.09133 44.0255 8.746 44.0255 8.326C44.0255 7.99933 43.9275 7.73333 43.7315 7.528C43.5449 7.32267 43.3069 7.164 43.0175 7.052C42.7375 6.94 42.3455 6.81867 41.8415 6.688C41.2069 6.52 40.6889 6.352 40.2875 6.184C39.8955 6.00667 39.5595 5.736 39.2795 5.372C38.9995 5.008 38.8595 4.52267 38.8595 3.916C38.8595 3.356 38.9995 2.866 39.2795 2.446C39.5595 2.026 39.9515 1.704 40.4555 1.48C40.9595 1.256 41.5429 1.144 42.2055 1.144C43.1482 1.144 43.9182 1.382 44.5155 1.858C45.1222 2.32467 45.4582 2.96867 45.5235 3.79H43.7595C43.7315 3.43533 43.5635 3.132 43.2555 2.88C42.9475 2.628 42.5415 2.502 42.0375 2.502C41.5802 2.502 41.2069 2.61867 40.9175 2.852C40.6282 3.08533 40.4835 3.42133 40.4835 3.86C40.4835 4.15867 40.5722 4.406 40.7495 4.602C40.9362 4.78867 41.1695 4.938 41.4495 5.05C41.7295 5.162 42.1122 5.28333 42.5975 5.414C43.2415 5.59133 43.7642 5.76867 44.1655 5.946C44.5762 6.12333 44.9215 6.39867 45.2015 6.772C45.4909 7.136 45.6355 7.626 45.6355 8.242C45.6355 8.73667 45.5002 9.20333 45.2295 9.642C44.9682 10.0807 44.5809 10.4353 44.0675 10.706C43.5635 10.9673 42.9662 11.098 42.2755 11.098ZM56.8568 3.16C57.4634 3.16 58.0048 3.286 58.4808 3.538C58.9661 3.79 59.3441 4.16333 59.6148 4.658C59.8948 5.15267 60.0348 5.75 60.0348 6.45V11H58.4528V6.688C58.4528 5.99733 58.2801 5.47 57.9348 5.106C57.5894 4.73267 57.1181 4.546 56.5208 4.546C55.9234 4.546 55.4474 4.73267 55.0928 5.106C54.7474 5.47 54.5748 5.99733 54.5748 6.688V11H52.9928V6.688C52.9928 5.99733 52.8201 5.47 52.4748 5.106C52.1294 4.73267 51.6581 4.546 51.0608 4.546C50.4634 4.546 49.9874 4.73267 49.6328 5.106C49.2874 5.47 49.1148 5.99733 49.1148 6.688V11H47.5188V3.286H49.1148V4.168C49.3761 3.85067 49.7074 3.60333 50.1088 3.426C50.5101 3.24867 50.9394 3.16 51.3968 3.16C52.0128 3.16 52.5634 3.29067 53.0488 3.552C53.5341 3.81333 53.9074 4.19133 54.1688 4.686C54.4021 4.21933 54.7661 3.85067 55.2608 3.58C55.7554 3.3 56.2874 3.16 56.8568 3.16ZM61.5336 7.108C61.5336 6.33333 61.6923 5.64733 62.0096 5.05C62.3363 4.45267 62.775 3.99067 63.3256 3.664C63.8856 3.328 64.5016 3.16 65.1736 3.16C65.7803 3.16 66.3076 3.28133 66.7556 3.524C67.213 3.75733 67.577 4.05133 67.8476 4.406V3.286H69.4576V11H67.8476V9.852C67.577 10.216 67.2083 10.5193 66.7416 10.762C66.275 11.0047 65.743 11.126 65.1456 11.126C64.483 11.126 63.8763 10.958 63.3256 10.622C62.775 10.2767 62.3363 9.80067 62.0096 9.194C61.6923 8.578 61.5336 7.88267 61.5336 7.108ZM67.8476 7.136C67.8476 6.604 67.7356 6.142 67.5116 5.75C67.297 5.358 67.0123 5.05933 66.6576 4.854C66.303 4.64867 65.9203 4.546 65.5096 4.546C65.099 4.546 64.7163 4.64867 64.3616 4.854C64.007 5.05 63.7176 5.344 63.4936 5.736C63.279 6.11867 63.1716 6.576 63.1716 7.108C63.1716 7.64 63.279 8.10667 63.4936 8.508C63.7176 8.90933 64.007 9.21733 64.3616 9.432C64.7256 9.63733 65.1083 9.74 65.5096 9.74C65.9203 9.74 66.303 9.63733 66.6576 9.432C67.0123 9.22667 67.297 8.928 67.5116 8.536C67.7356 8.13467 67.8476 7.668 67.8476 7.136ZM73.1499 0.64V11H71.5539V0.64H73.1499ZM76.8413 0.64V11H75.2453V0.64H76.8413ZM80.6867 9.082L78.9927 12.946H77.9567L78.9507 9.082H80.6867ZM95.966 1.27V11H94.37V4.336L91.402 11H90.296L87.314 4.336V11H85.718V1.27H87.44L90.856 8.9L94.258 1.27H95.966ZM105.134 6.954C105.134 7.24333 105.115 7.50467 105.078 7.738H99.1837C99.2303 8.354 99.459 8.84867 99.8697 9.222C100.28 9.59533 100.784 9.782 101.382 9.782C102.24 9.782 102.847 9.42267 103.202 8.704H104.924C104.69 9.41333 104.266 9.99667 103.65 10.454C103.043 10.902 102.287 11.126 101.382 11.126C100.644 11.126 99.9817 10.9627 99.3937 10.636C98.815 10.3 98.3577 9.83333 98.0217 9.236C97.695 8.62933 97.5317 7.92933 97.5317 7.136C97.5317 6.34267 97.6903 5.64733 98.0077 5.05C98.3343 4.44333 98.787 3.97667 99.3657 3.65C99.9537 3.32333 100.626 3.16 101.382 3.16C102.11 3.16 102.758 3.31867 103.328 3.636C103.897 3.95333 104.34 4.40133 104.658 4.98C104.975 5.54933 105.134 6.20733 105.134 6.954ZM103.468 6.45C103.458 5.862 103.248 5.39067 102.838 5.036C102.427 4.68133 101.918 4.504 101.312 4.504C100.761 4.504 100.29 4.68133 99.8977 5.036C99.5057 5.38133 99.2723 5.85267 99.1977 6.45H103.468ZM106.172 7.108C106.172 6.33333 106.331 5.64733 106.648 5.05C106.975 4.45267 107.414 3.99067 107.964 3.664C108.524 3.328 109.145 3.16 109.826 3.16C110.33 3.16 110.825 3.272 111.31 3.496C111.805 3.71067 112.197 4 112.486 4.364V0.64H114.096V11H112.486V9.838C112.225 10.2113 111.861 10.5193 111.394 10.762C110.937 11.0047 110.41 11.126 109.812 11.126C109.14 11.126 108.524 10.958 107.964 10.622C107.414 10.2767 106.975 9.80067 106.648 9.194C106.331 8.578 106.172 7.88267 106.172 7.108ZM112.486 7.136C112.486 6.604 112.374 6.142 112.15 5.75C111.936 5.358 111.651 5.05933 111.296 4.854C110.942 4.64867 110.559 4.546 110.148 4.546C109.738 4.546 109.355 4.64867 109 4.854C108.646 5.05 108.356 5.344 108.132 5.736C107.918 6.11867 107.81 6.576 107.81 7.108C107.81 7.64 107.918 8.10667 108.132 8.508C108.356 8.90933 108.646 9.21733 109 9.432C109.364 9.63733 109.747 9.74 110.148 9.74C110.559 9.74 110.942 9.63733 111.296 9.432C111.651 9.22667 111.936 8.928 112.15 8.536C112.374 8.13467 112.486 7.668 112.486 7.136ZM117.005 2.264C116.715 2.264 116.473 2.166 116.277 1.97C116.081 1.774 115.983 1.53133 115.983 1.242C115.983 0.952666 116.081 0.71 116.277 0.514C116.473 0.318 116.715 0.219999 117.005 0.219999C117.285 0.219999 117.523 0.318 117.719 0.514C117.915 0.71 118.013 0.952666 118.013 1.242C118.013 1.53133 117.915 1.774 117.719 1.97C117.523 2.166 117.285 2.264 117.005 2.264ZM117.789 3.286V11H116.193V3.286H117.789ZM126.87 3.286V11H125.274V10.09C125.022 10.4073 124.691 10.6593 124.28 10.846C123.879 11.0233 123.449 11.112 122.992 11.112C122.385 11.112 121.839 10.986 121.354 10.734C120.878 10.482 120.5 10.1087 120.22 9.614C119.949 9.11933 119.814 8.522 119.814 7.822V3.286H121.396V7.584C121.396 8.27467 121.569 8.80667 121.914 9.18C122.259 9.544 122.731 9.726 123.328 9.726C123.925 9.726 124.397 9.544 124.742 9.18C125.097 8.80667 125.274 8.27467 125.274 7.584V3.286H126.87ZM138.314 3.16C138.92 3.16 139.462 3.286 139.938 3.538C140.423 3.79 140.801 4.16333 141.072 4.658C141.352 5.15267 141.492 5.75 141.492 6.45V11H139.91V6.688C139.91 5.99733 139.737 5.47 139.392 5.106C139.046 4.73267 138.575 4.546 137.978 4.546C137.38 4.546 136.904 4.73267 136.55 5.106C136.204 5.47 136.032 5.99733 136.032 6.688V11H134.45V6.688C134.45 5.99733 134.277 5.47 133.932 5.106C133.586 4.73267 133.115 4.546 132.518 4.546C131.92 4.546 131.444 4.73267 131.09 5.106C130.744 5.47 130.572 5.99733 130.572 6.688V11H128.976V3.286H130.572V4.168C130.833 3.85067 131.164 3.60333 131.566 3.426C131.967 3.24867 132.396 3.16 132.854 3.16C133.47 3.16 134.02 3.29067 134.506 3.552C134.991 3.81333 135.364 4.19133 135.626 4.686C135.859 4.21933 136.223 3.85067 136.718 3.58C137.212 3.3 137.744 3.16 138.314 3.16ZM153.081 5.26V6.604H147.327V5.26H153.081ZM164.348 11L160.582 6.646V11H158.986V1.27H160.582V5.708L164.362 1.27H166.364L162.136 6.142L166.434 11H164.348ZM174.915 6.954C174.915 7.24333 174.896 7.50467 174.859 7.738H168.965C169.012 8.354 169.24 8.84867 169.651 9.222C170.062 9.59533 170.566 9.782 171.163 9.782C172.022 9.782 172.628 9.42267 172.983 8.704H174.705C174.472 9.41333 174.047 9.99667 173.431 10.454C172.824 10.902 172.068 11.126 171.163 11.126C170.426 11.126 169.763 10.9627 169.175 10.636C168.596 10.3 168.139 9.83333 167.803 9.236C167.476 8.62933 167.313 7.92933 167.313 7.136C167.313 6.34267 167.472 5.64733 167.789 5.05C168.116 4.44333 168.568 3.97667 169.147 3.65C169.735 3.32333 170.407 3.16 171.163 3.16C171.891 3.16 172.54 3.31867 173.109 3.636C173.678 3.95333 174.122 4.40133 174.439 4.98C174.756 5.54933 174.915 6.20733 174.915 6.954ZM173.249 6.45C173.24 5.862 173.03 5.39067 172.619 5.036C172.208 4.68133 171.7 4.504 171.093 4.504C170.542 4.504 170.071 4.68133 169.679 5.036C169.287 5.38133 169.054 5.85267 168.979 6.45H173.249ZM183.43 3.286L178.698 14.626H177.046L178.614 10.874L175.576 3.286H177.354L179.524 9.166L181.778 3.286H183.43ZM191.477 11.098C190.823 11.098 190.235 10.986 189.713 10.762C189.19 10.5287 188.779 10.202 188.481 9.782C188.182 9.362 188.033 8.872 188.033 8.312H189.741C189.778 8.732 189.941 9.07733 190.231 9.348C190.529 9.61867 190.945 9.754 191.477 9.754C192.027 9.754 192.457 9.62333 192.765 9.362C193.073 9.09133 193.227 8.746 193.227 8.326C193.227 7.99933 193.129 7.73333 192.933 7.528C192.746 7.32267 192.508 7.164 192.219 7.052C191.939 6.94 191.547 6.81867 191.043 6.688C190.408 6.52 189.89 6.352 189.489 6.184C189.097 6.00667 188.761 5.736 188.481 5.372C188.201 5.008 188.061 4.52267 188.061 3.916C188.061 3.356 188.201 2.866 188.481 2.446C188.761 2.026 189.153 1.704 189.657 1.48C190.161 1.256 190.744 1.144 191.407 1.144C192.349 1.144 193.119 1.382 193.717 1.858C194.323 2.32467 194.659 2.96867 194.725 3.79H192.961C192.933 3.43533 192.765 3.132 192.457 2.88C192.149 2.628 191.743 2.502 191.239 2.502C190.781 2.502 190.408 2.61867 190.119 2.852C189.829 3.08533 189.685 3.42133 189.685 3.86C189.685 4.15867 189.773 4.406 189.951 4.602C190.137 4.78867 190.371 4.938 190.651 5.05C190.931 5.162 191.313 5.28333 191.799 5.414C192.443 5.59133 192.965 5.76867 193.367 5.946C193.777 6.12333 194.123 6.39867 194.403 6.772C194.692 7.136 194.837 7.626 194.837 8.242C194.837 8.73667 194.701 9.20333 194.431 9.642C194.169 10.0807 193.782 10.4353 193.269 10.706C192.765 10.9673 192.167 11.098 191.477 11.098ZM203.79 6.954C203.79 7.24333 203.771 7.50467 203.734 7.738H197.84C197.887 8.354 198.115 8.84867 198.526 9.222C198.937 9.59533 199.441 9.782 200.038 9.782C200.897 9.782 201.503 9.42267 201.858 8.704H203.58C203.347 9.41333 202.922 9.99667 202.306 10.454C201.699 10.902 200.943 11.126 200.038 11.126C199.301 11.126 198.638 10.9627 198.05 10.636C197.471 10.3 197.014 9.83333 196.678 9.236C196.351 8.62933 196.188 7.92933 196.188 7.136C196.188 6.34267 196.347 5.64733 196.664 5.05C196.991 4.44333 197.443 3.97667 198.022 3.65C198.61 3.32333 199.282 3.16 200.038 3.16C200.766 3.16 201.415 3.31867 201.984 3.636C202.553 3.95333 202.997 4.40133 203.314 4.98C203.631 5.54933 203.79 6.20733 203.79 6.954ZM202.124 6.45C202.115 5.862 201.905 5.39067 201.494 5.036C201.083 4.68133 200.575 4.504 199.968 4.504C199.417 4.504 198.946 4.68133 198.554 5.036C198.162 5.38133 197.929 5.85267 197.854 6.45H202.124ZM204.829 7.136C204.829 6.34267 204.987 5.64733 205.305 5.05C205.631 4.44333 206.079 3.97667 206.649 3.65C207.218 3.32333 207.871 3.16 208.609 3.16C209.542 3.16 210.312 3.384 210.919 3.832C211.535 4.27067 211.95 4.90067 212.165 5.722H210.443C210.303 5.33933 210.079 5.04067 209.771 4.826C209.463 4.61133 209.075 4.504 208.609 4.504C207.955 4.504 207.433 4.73733 207.041 5.204C206.658 5.66133 206.467 6.30533 206.467 7.136C206.467 7.96667 206.658 8.61533 207.041 9.082C207.433 9.54867 207.955 9.782 208.609 9.782C209.533 9.782 210.144 9.376 210.443 8.564H212.165C211.941 9.348 211.521 9.97333 210.905 10.44C210.289 10.8973 209.523 11.126 208.609 11.126C207.871 11.126 207.218 10.9627 206.649 10.636C206.079 10.3 205.631 9.83333 205.305 9.236C204.987 8.62933 204.829 7.92933 204.829 7.136ZM217.101 11.126C216.373 11.126 215.715 10.9627 215.127 10.636C214.539 10.3 214.077 9.83333 213.741 9.236C213.405 8.62933 213.237 7.92933 213.237 7.136C213.237 6.352 213.41 5.65667 213.755 5.05C214.1 4.44333 214.572 3.97667 215.169 3.65C215.766 3.32333 216.434 3.16 217.171 3.16C217.908 3.16 218.576 3.32333 219.173 3.65C219.77 3.97667 220.242 4.44333 220.587 5.05C220.932 5.65667 221.105 6.352 221.105 7.136C221.105 7.92 220.928 8.61533 220.573 9.222C220.218 9.82867 219.733 10.3 219.117 10.636C218.51 10.9627 217.838 11.126 217.101 11.126ZM217.101 9.74C217.512 9.74 217.894 9.642 218.249 9.446C218.613 9.25 218.907 8.956 219.131 8.564C219.355 8.172 219.467 7.696 219.467 7.136C219.467 6.576 219.36 6.10467 219.145 5.722C218.93 5.33 218.646 5.036 218.291 4.84C217.936 4.644 217.554 4.546 217.143 4.546C216.732 4.546 216.35 4.644 215.995 4.84C215.65 5.036 215.374 5.33 215.169 5.722C214.964 6.10467 214.861 6.576 214.861 7.136C214.861 7.96667 215.071 8.61067 215.491 9.068C215.92 9.516 216.457 9.74 217.101 9.74ZM226.575 3.16C227.181 3.16 227.723 3.286 228.199 3.538C228.684 3.79 229.062 4.16333 229.333 4.658C229.603 5.15267 229.739 5.75 229.739 6.45V11H228.157V6.688C228.157 5.99733 227.984 5.47 227.639 5.106C227.293 4.73267 226.822 4.546 226.225 4.546C225.627 4.546 225.151 4.73267 224.797 5.106C224.451 5.47 224.279 5.99733 224.279 6.688V11H222.683V3.286H224.279V4.168C224.54 3.85067 224.871 3.60333 225.273 3.426C225.683 3.24867 226.117 3.16 226.575 3.16ZM231.243 7.108C231.243 6.33333 231.401 5.64733 231.719 5.05C232.045 4.45267 232.484 3.99067 233.035 3.664C233.595 3.328 234.215 3.16 234.897 3.16C235.401 3.16 235.895 3.272 236.381 3.496C236.875 3.71067 237.267 4 237.557 4.364V0.64H239.167V11H237.557V9.838C237.295 10.2113 236.931 10.5193 236.465 10.762C236.007 11.0047 235.48 11.126 234.883 11.126C234.211 11.126 233.595 10.958 233.035 10.622C232.484 10.2767 232.045 9.80067 231.719 9.194C231.401 8.578 231.243 7.88267 231.243 7.108ZM237.557 7.136C237.557 6.604 237.445 6.142 237.221 5.75C237.006 5.358 236.721 5.05933 236.367 4.854C236.012 4.64867 235.629 4.546 235.219 4.546C234.808 4.546 234.425 4.64867 234.071 4.854C233.716 5.05 233.427 5.344 233.203 5.736C232.988 6.11867 232.881 6.576 232.881 7.108C232.881 7.64 232.988 8.10667 233.203 8.508C233.427 8.90933 233.716 9.21733 234.071 9.432C234.435 9.63733 234.817 9.74 235.219 9.74C235.629 9.74 236.012 9.63733 236.367 9.432C236.721 9.22667 237.006 8.928 237.221 8.536C237.445 8.13467 237.557 7.668 237.557 7.136ZM240.731 7.108C240.731 6.33333 240.89 5.64733 241.207 5.05C241.534 4.45267 241.972 3.99067 242.523 3.664C243.083 3.328 243.699 3.16 244.371 3.16C244.978 3.16 245.505 3.28133 245.953 3.524C246.41 3.75733 246.774 4.05133 247.045 4.406V3.286H248.655V11H247.045V9.852C246.774 10.216 246.406 10.5193 245.939 10.762C245.472 11.0047 244.94 11.126 244.343 11.126C243.68 11.126 243.074 10.958 242.523 10.622C241.972 10.2767 241.534 9.80067 241.207 9.194C240.89 8.578 240.731 7.88267 240.731 7.108ZM247.045 7.136C247.045 6.604 246.933 6.142 246.709 5.75C246.494 5.358 246.21 5.05933 245.855 4.854C245.5 4.64867 245.118 4.546 244.707 4.546C244.296 4.546 243.914 4.64867 243.559 4.854C243.204 5.05 242.915 5.344 242.691 5.736C242.476 6.11867 242.369 6.576 242.369 7.108C242.369 7.64 242.476 8.10667 242.691 8.508C242.915 8.90933 243.204 9.21733 243.559 9.432C243.923 9.63733 244.306 9.74 244.707 9.74C245.118 9.74 245.5 9.63733 245.855 9.432C246.21 9.22667 246.494 8.928 246.709 8.536C246.933 8.13467 247.045 7.668 247.045 7.136ZM252.347 4.406C252.581 4.014 252.889 3.71067 253.271 3.496C253.663 3.272 254.125 3.16 254.657 3.16V4.812H254.251C253.626 4.812 253.15 4.97067 252.823 5.288C252.506 5.60533 252.347 6.156 252.347 6.94V11H250.751V3.286H252.347V4.406ZM263.068 3.286L258.336 14.626H256.684L258.252 10.874L255.214 3.286H256.992L259.162 9.166L261.416 3.286H263.068ZM269.505 1.27V11H267.909V1.27H269.505ZM275.493 3.16C276.099 3.16 276.641 3.286 277.117 3.538C277.602 3.79 277.98 4.16333 278.251 4.658C278.521 5.15267 278.657 5.75 278.657 6.45V11H277.075V6.688C277.075 5.99733 276.902 5.47 276.557 5.106C276.211 4.73267 275.74 4.546 275.143 4.546C274.545 4.546 274.069 4.73267 273.715 5.106C273.369 5.47 273.197 5.99733 273.197 6.688V11H271.601V3.286H273.197V4.168C273.458 3.85067 273.789 3.60333 274.191 3.426C274.601 3.24867 275.035 3.16 275.493 3.16ZM283.927 4.588H282.499V11H280.889V4.588H279.979V3.286H280.889V2.74C280.889 1.85333 281.122 1.20933 281.589 0.807999C282.065 0.397333 282.807 0.192 283.815 0.192V1.522C283.329 1.522 282.989 1.61533 282.793 1.802C282.597 1.97933 282.499 2.292 282.499 2.74V3.286H283.927V4.588ZM288.687 11.126C287.959 11.126 287.301 10.9627 286.713 10.636C286.125 10.3 285.663 9.83333 285.327 9.236C284.991 8.62933 284.823 7.92933 284.823 7.136C284.823 6.352 284.996 5.65667 285.341 5.05C285.686 4.44333 286.158 3.97667 286.755 3.65C287.352 3.32333 288.02 3.16 288.757 3.16C289.494 3.16 290.162 3.32333 290.759 3.65C291.356 3.97667 291.828 4.44333 292.173 5.05C292.518 5.65667 292.691 6.352 292.691 7.136C292.691 7.92 292.514 8.61533 292.159 9.222C291.804 9.82867 291.319 10.3 290.703 10.636C290.096 10.9627 289.424 11.126 288.687 11.126ZM288.687 9.74C289.098 9.74 289.48 9.642 289.835 9.446C290.199 9.25 290.493 8.956 290.717 8.564C290.941 8.172 291.053 7.696 291.053 7.136C291.053 6.576 290.946 6.10467 290.731 5.722C290.516 5.33 290.232 5.036 289.877 4.84C289.522 4.644 289.14 4.546 288.729 4.546C288.318 4.546 287.936 4.644 287.581 4.84C287.236 5.036 286.96 5.33 286.755 5.722C286.55 6.10467 286.447 6.576 286.447 7.136C286.447 7.96667 286.657 8.61067 287.077 9.068C287.506 9.516 288.043 9.74 288.687 9.74Z" fill="#3A3A3A"/>
</svg>
