<svg width="295" height="29" viewBox="0 0 295 29" fill="none" xmlns="http://www.w3.org/2000/svg">
<path d="M5.652 15.636V16.524H2.016V19.344H4.968V20.232H2.016V24H0.924V15.636H5.652ZM9.83888 24.108C9.22288 24.108 8.66288 23.968 8.15888 23.688C7.66288 23.408 7.27088 23.012 6.98288 22.5C6.70288 21.98 6.56288 21.38 6.56288 20.7C6.56288 20.028 6.70688 19.436 6.99488 18.924C7.29088 18.404 7.69088 18.008 8.19488 17.736C8.69888 17.456 9.26288 17.316 9.88688 17.316C10.5109 17.316 11.0749 17.456 11.5789 17.736C12.0829 18.008 12.4789 18.4 12.7669 18.912C13.0629 19.424 13.2109 20.02 13.2109 20.7C13.2109 21.38 13.0589 21.98 12.7549 22.5C12.4589 23.012 12.0549 23.408 11.5429 23.688C11.0309 23.968 10.4629 24.108 9.83888 24.108ZM9.83888 23.148C10.2309 23.148 10.5989 23.056 10.9429 22.872C11.2869 22.688 11.5629 22.412 11.7709 22.044C11.9869 21.676 12.0949 21.228 12.0949 20.7C12.0949 20.172 11.9909 19.724 11.7829 19.356C11.5749 18.988 11.3029 18.716 10.9669 18.54C10.6309 18.356 10.2669 18.264 9.87488 18.264C9.47488 18.264 9.10688 18.356 8.77088 18.54C8.44288 18.716 8.17888 18.988 7.97888 19.356C7.77888 19.724 7.67888 20.172 7.67888 20.7C7.67888 21.236 7.77488 21.688 7.96688 22.056C8.16688 22.424 8.43088 22.7 8.75888 22.884C9.08688 23.06 9.44688 23.148 9.83888 23.148ZM17.8507 17.304C18.6507 17.304 19.2987 17.548 19.7947 18.036C20.2907 18.516 20.5387 19.212 20.5387 20.124V24H19.4587V20.28C19.4587 19.624 19.2947 19.124 18.9667 18.78C18.6387 18.428 18.1907 18.252 17.6227 18.252C17.0467 18.252 16.5867 18.432 16.2427 18.792C15.9067 19.152 15.7387 19.676 15.7387 20.364V24H14.6467V17.424H15.7387V18.36C15.9547 18.024 16.2467 17.764 16.6147 17.58C16.9907 17.396 17.4027 17.304 17.8507 17.304ZM23.6544 18.324V22.2C23.6544 22.52 23.7224 22.748 23.8584 22.884C23.9944 23.012 24.2304 23.076 24.5664 23.076H25.3704V24H24.3864C23.7784 24 23.3224 23.86 23.0184 23.58C22.7144 23.3 22.5624 22.84 22.5624 22.2V18.324H21.7104V17.424H22.5624V15.768H23.6544V17.424H25.3704V18.324H23.6544ZM32.2208 24.108C31.7168 24.108 31.2648 24.024 30.8648 23.856C30.4648 23.68 30.1488 23.44 29.9168 23.136C29.6848 22.824 29.5568 22.468 29.5328 22.068H30.6608C30.6928 22.396 30.8448 22.664 31.1168 22.872C31.3968 23.08 31.7608 23.184 32.2088 23.184C32.6248 23.184 32.9528 23.092 33.1928 22.908C33.4328 22.724 33.5528 22.492 33.5528 22.212C33.5528 21.924 33.4248 21.712 33.1688 21.576C32.9128 21.432 32.5168 21.292 31.9808 21.156C31.4928 21.028 31.0928 20.9 30.7808 20.772C30.4768 20.636 30.2128 20.44 29.9888 20.184C29.7728 19.92 29.6648 19.576 29.6648 19.152C29.6648 18.816 29.7648 18.508 29.9648 18.228C30.1648 17.948 30.4488 17.728 30.8168 17.568C31.1848 17.4 31.6048 17.316 32.0768 17.316C32.8048 17.316 33.3928 17.5 33.8408 17.868C34.2888 18.236 34.5288 18.74 34.5608 19.38H33.4688C33.4448 19.036 33.3048 18.76 33.0488 18.552C32.8008 18.344 32.4648 18.24 32.0408 18.24C31.6488 18.24 31.3368 18.324 31.1048 18.492C30.8728 18.66 30.7568 18.88 30.7568 19.152C30.7568 19.368 30.8248 19.548 30.9608 19.692C31.1048 19.828 31.2808 19.94 31.4888 20.028C31.7048 20.108 32.0008 20.2 32.3768 20.304C32.8488 20.432 33.2328 20.56 33.5288 20.688C33.8248 20.808 34.0768 20.992 34.2848 21.24C34.5008 21.488 34.6128 21.812 34.6208 22.212C34.6208 22.572 34.5208 22.896 34.3208 23.184C34.1208 23.472 33.8368 23.7 33.4688 23.868C33.1088 24.028 32.6928 24.108 32.2208 24.108ZM36.7263 16.356C36.5183 16.356 36.3423 16.284 36.1983 16.14C36.0543 15.996 35.9823 15.82 35.9823 15.612C35.9823 15.404 36.0543 15.228 36.1983 15.084C36.3423 14.94 36.5183 14.868 36.7263 14.868C36.9263 14.868 37.0943 14.94 37.2303 15.084C37.3743 15.228 37.4463 15.404 37.4463 15.612C37.4463 15.82 37.3743 15.996 37.2303 16.14C37.0943 16.284 36.9263 16.356 36.7263 16.356ZM37.2543 17.424V24H36.1623V17.424H37.2543ZM39.9314 23.1H43.1594V24H38.6834V23.1L41.8754 18.312H38.7074V17.424H43.1354V18.312L39.9314 23.1ZM50.5763 20.46C50.5763 20.668 50.5643 20.888 50.5403 21.12H45.2843C45.3243 21.768 45.5443 22.276 45.9443 22.644C46.3523 23.004 46.8443 23.184 47.4203 23.184C47.8923 23.184 48.2843 23.076 48.5963 22.86C48.9163 22.636 49.1403 22.34 49.2683 21.972H50.4443C50.2683 22.604 49.9163 23.12 49.3883 23.52C48.8603 23.912 48.2043 24.108 47.4203 24.108C46.7963 24.108 46.2363 23.968 45.7403 23.688C45.2523 23.408 44.8683 23.012 44.5883 22.5C44.3083 21.98 44.1683 21.38 44.1683 20.7C44.1683 20.02 44.3043 19.424 44.5763 18.912C44.8483 18.4 45.2283 18.008 45.7163 17.736C46.2123 17.456 46.7803 17.316 47.4203 17.316C48.0443 17.316 48.5963 17.452 49.0763 17.724C49.5563 17.996 49.9243 18.372 50.1803 18.852C50.4443 19.324 50.5763 19.86 50.5763 20.46ZM49.4483 20.232C49.4483 19.816 49.3563 19.46 49.1723 19.164C48.9883 18.86 48.7363 18.632 48.4163 18.48C48.1043 18.32 47.7563 18.24 47.3723 18.24C46.8203 18.24 46.3483 18.416 45.9563 18.768C45.5723 19.12 45.3523 19.608 45.2963 20.232H49.4483ZM55.565 24.072C55.357 24.072 55.181 24 55.037 23.856C54.893 23.712 54.821 23.536 54.821 23.328C54.821 23.12 54.893 22.944 55.037 22.8C55.181 22.656 55.357 22.584 55.565 22.584C55.765 22.584 55.933 22.656 56.069 22.8C56.213 22.944 56.285 23.12 56.285 23.328C56.285 23.536 56.213 23.712 56.069 23.856C55.933 24 55.765 24.072 55.565 24.072ZM55.565 18.936C55.357 18.936 55.181 18.864 55.037 18.72C54.893 18.576 54.821 18.4 54.821 18.192C54.821 17.984 54.893 17.808 55.037 17.664C55.181 17.52 55.357 17.448 55.565 17.448C55.765 17.448 55.933 17.52 56.069 17.664C56.213 17.808 56.285 17.984 56.285 18.192C56.285 18.4 56.213 18.576 56.069 18.72C55.933 18.864 55.765 18.936 55.565 18.936ZM60.5029 16.32V15.324H62.7589V24H61.6549V16.32H60.5029ZM64.3706 22.068V21.24L68.5826 15.408H69.8906V21.12H71.0906V22.068H69.8906V24H68.8106V22.068H64.3706ZM68.8586 16.548L65.6306 21.12H68.8586V16.548ZM73.4535 18.636C73.6695 18.26 73.9895 17.948 74.4135 17.7C74.8455 17.444 75.3455 17.316 75.9135 17.316C76.4975 17.316 77.0255 17.456 77.4975 17.736C77.9775 18.016 78.3535 18.412 78.6255 18.924C78.8975 19.428 79.0335 20.016 79.0335 20.688C79.0335 21.352 78.8975 21.944 78.6255 22.464C78.3535 22.984 77.9775 23.388 77.4975 23.676C77.0255 23.964 76.4975 24.108 75.9135 24.108C75.3535 24.108 74.8575 23.984 74.4255 23.736C74.0015 23.48 73.6775 23.164 73.4535 22.788V27.12H72.3615V17.424H73.4535V18.636ZM77.9175 20.688C77.9175 20.192 77.8175 19.76 77.6175 19.392C77.4175 19.024 77.1455 18.744 76.8015 18.552C76.4655 18.36 76.0935 18.264 75.6855 18.264C75.2855 18.264 74.9135 18.364 74.5695 18.564C74.2335 18.756 73.9615 19.04 73.7535 19.416C73.5535 19.784 73.4535 20.212 73.4535 20.7C73.4535 21.196 73.5535 21.632 73.7535 22.008C73.9615 22.376 74.2335 22.66 74.5695 22.86C74.9135 23.052 75.2855 23.148 75.6855 23.148C76.0935 23.148 76.4655 23.052 76.8015 22.86C77.1455 22.66 77.4175 22.376 77.6175 22.008C77.8175 21.632 77.9175 21.192 77.9175 20.688ZM83.9029 24L82.3429 21.552L80.8429 24H79.7029L81.8269 20.736L79.7029 17.424H80.9389L82.4989 19.86L83.9869 17.424H85.1269L83.0149 20.676L85.1389 24H83.9029ZM100.215 24L98.2227 20.58H96.9027V24H95.8107V15.636H98.5107C99.1427 15.636 99.6747 15.744 100.107 15.96C100.547 16.176 100.875 16.468 101.091 16.836C101.307 17.204 101.415 17.624 101.415 18.096C101.415 18.672 101.247 19.18 100.911 19.62C100.583 20.06 100.087 20.352 99.4227 20.496L101.523 24H100.215ZM96.9027 19.704H98.5107C99.1027 19.704 99.5467 19.56 99.8427 19.272C100.139 18.976 100.287 18.584 100.287 18.096C100.287 17.6 100.139 17.216 99.8427 16.944C99.5547 16.672 99.1107 16.536 98.5107 16.536H96.9027V19.704ZM104.204 16.524V19.32H107.252V20.22H104.204V23.1H107.612V24H103.112V15.624H107.612V16.524H104.204ZM117.748 15.696V24H116.656V17.808L113.896 24H113.128L110.356 17.796V24H109.264V15.696H110.44L113.512 22.56L116.584 15.696H117.748ZM123.147 24.072C122.939 24.072 122.763 24 122.619 23.856C122.475 23.712 122.403 23.536 122.403 23.328C122.403 23.12 122.475 22.944 122.619 22.8C122.763 22.656 122.939 22.584 123.147 22.584C123.347 22.584 123.515 22.656 123.651 22.8C123.795 22.944 123.867 23.12 123.867 23.328C123.867 23.536 123.795 23.712 123.651 23.856C123.515 24 123.347 24.072 123.147 24.072ZM123.147 18.936C122.939 18.936 122.763 18.864 122.619 18.72C122.475 18.576 122.403 18.4 122.403 18.192C122.403 17.984 122.475 17.808 122.619 17.664C122.763 17.52 122.939 17.448 123.147 17.448C123.347 17.448 123.515 17.52 123.651 17.664C123.795 17.808 123.867 17.984 123.867 18.192C123.867 18.4 123.795 18.576 123.651 18.72C123.515 18.864 123.347 18.936 123.147 18.936ZM128.373 19.572C128.373 18.196 128.597 17.124 129.045 16.356C129.493 15.58 130.277 15.192 131.397 15.192C132.509 15.192 133.289 15.58 133.737 16.356C134.185 17.124 134.409 18.196 134.409 19.572C134.409 20.972 134.185 22.06 133.737 22.836C133.289 23.612 132.509 24 131.397 24C130.277 24 129.493 23.612 129.045 22.836C128.597 22.06 128.373 20.972 128.373 19.572ZM133.329 19.572C133.329 18.876 133.281 18.288 133.185 17.808C133.097 17.32 132.909 16.928 132.621 16.632C132.341 16.336 131.933 16.188 131.397 16.188C130.853 16.188 130.437 16.336 130.149 16.632C129.869 16.928 129.681 17.32 129.585 17.808C129.497 18.288 129.453 18.876 129.453 19.572C129.453 20.292 129.497 20.896 129.585 21.384C129.681 21.872 129.869 22.264 130.149 22.56C130.437 22.856 130.853 23.004 131.397 23.004C131.933 23.004 132.341 22.856 132.621 22.56C132.909 22.264 133.097 21.872 133.185 21.384C133.281 20.896 133.329 20.292 133.329 19.572ZM136.436 24.072C136.228 24.072 136.052 24 135.908 23.856C135.764 23.712 135.692 23.536 135.692 23.328C135.692 23.12 135.764 22.944 135.908 22.8C136.052 22.656 136.228 22.584 136.436 22.584C136.636 22.584 136.804 22.656 136.94 22.8C137.084 22.944 137.156 23.12 137.156 23.328C137.156 23.536 137.084 23.712 136.94 23.856C136.804 24 136.636 24.072 136.436 24.072ZM140.012 19.488C139.564 19.312 139.22 19.056 138.98 18.72C138.74 18.384 138.62 17.976 138.62 17.496C138.62 17.064 138.728 16.676 138.944 16.332C139.16 15.98 139.48 15.704 139.904 15.504C140.336 15.296 140.856 15.192 141.464 15.192C142.072 15.192 142.588 15.296 143.012 15.504C143.444 15.704 143.768 15.98 143.984 16.332C144.208 16.676 144.32 17.064 144.32 17.496C144.32 17.96 144.196 18.368 143.948 18.72C143.7 19.064 143.36 19.32 142.928 19.488C143.424 19.64 143.816 19.908 144.104 20.292C144.4 20.668 144.548 21.124 144.548 21.66C144.548 22.18 144.42 22.636 144.164 23.028C143.908 23.412 143.544 23.712 143.072 23.928C142.608 24.136 142.072 24.24 141.464 24.24C140.856 24.24 140.32 24.136 139.856 23.928C139.4 23.712 139.044 23.412 138.788 23.028C138.532 22.636 138.404 22.18 138.404 21.66C138.404 21.124 138.548 20.664 138.836 20.28C139.124 19.896 139.516 19.632 140.012 19.488ZM143.264 17.628C143.264 17.14 143.104 16.764 142.784 16.5C142.464 16.236 142.024 16.104 141.464 16.104C140.912 16.104 140.476 16.236 140.156 16.5C139.836 16.764 139.676 17.144 139.676 17.64C139.676 18.088 139.84 18.448 140.168 18.72C140.504 18.992 140.936 19.128 141.464 19.128C142 19.128 142.432 18.992 142.76 18.72C143.096 18.44 143.264 18.076 143.264 17.628ZM141.464 19.968C140.872 19.968 140.388 20.108 140.012 20.388C139.636 20.66 139.448 21.072 139.448 21.624C139.448 22.136 139.628 22.548 139.988 22.86C140.356 23.172 140.848 23.328 141.464 23.328C142.08 23.328 142.568 23.172 142.928 22.86C143.288 22.548 143.468 22.136 143.468 21.624C143.468 21.088 143.284 20.68 142.916 20.4C142.548 20.112 142.064 19.968 141.464 19.968ZM151.338 16.176L148.002 24H146.898L150.282 16.284H145.65V15.348H151.338V16.176ZM158.081 16.272H153.869V19.008C154.053 18.752 154.325 18.544 154.685 18.384C155.045 18.216 155.433 18.132 155.849 18.132C156.513 18.132 157.053 18.272 157.469 18.552C157.885 18.824 158.181 19.18 158.357 19.62C158.541 20.052 158.633 20.512 158.633 21C158.633 21.576 158.525 22.092 158.309 22.548C158.093 23.004 157.761 23.364 157.313 23.628C156.873 23.892 156.325 24.024 155.669 24.024C154.829 24.024 154.149 23.808 153.629 23.376C153.109 22.944 152.793 22.368 152.681 21.648H153.749C153.853 22.104 154.073 22.46 154.409 22.716C154.745 22.972 155.169 23.1 155.681 23.1C156.313 23.1 156.789 22.912 157.109 22.536C157.429 22.152 157.589 21.648 157.589 21.024C157.589 20.4 157.429 19.92 157.109 19.584C156.789 19.24 156.317 19.068 155.693 19.068C155.269 19.068 154.897 19.172 154.577 19.38C154.265 19.58 154.037 19.856 153.893 20.208H152.861V15.312H158.081V16.272ZM170.954 23.112H173.882V24H169.862V15.636H170.954V23.112ZM175.605 16.356C175.397 16.356 175.221 16.284 175.077 16.14C174.933 15.996 174.861 15.82 174.861 15.612C174.861 15.404 174.933 15.228 175.077 15.084C175.221 14.94 175.397 14.868 175.605 14.868C175.805 14.868 175.973 14.94 176.109 15.084C176.253 15.228 176.325 15.404 176.325 15.612C176.325 15.82 176.253 15.996 176.109 16.14C175.973 16.284 175.805 16.356 175.605 16.356ZM176.133 17.424V24H175.041V17.424H176.133ZM181.198 17.304C181.998 17.304 182.646 17.548 183.142 18.036C183.638 18.516 183.886 19.212 183.886 20.124V24H182.806V20.28C182.806 19.624 182.642 19.124 182.314 18.78C181.986 18.428 181.538 18.252 180.97 18.252C180.394 18.252 179.934 18.432 179.59 18.792C179.254 19.152 179.086 19.676 179.086 20.364V24H177.994V17.424H179.086V18.36C179.302 18.024 179.594 17.764 179.962 17.58C180.338 17.396 180.75 17.304 181.198 17.304ZM191.67 20.46C191.67 20.668 191.658 20.888 191.634 21.12H186.378C186.418 21.768 186.638 22.276 187.038 22.644C187.446 23.004 187.938 23.184 188.514 23.184C188.986 23.184 189.378 23.076 189.69 22.86C190.01 22.636 190.234 22.34 190.362 21.972H191.538C191.362 22.604 191.01 23.12 190.482 23.52C189.954 23.912 189.298 24.108 188.514 24.108C187.89 24.108 187.33 23.968 186.834 23.688C186.346 23.408 185.962 23.012 185.682 22.5C185.402 21.98 185.262 21.38 185.262 20.7C185.262 20.02 185.398 19.424 185.67 18.912C185.942 18.4 186.322 18.008 186.81 17.736C187.306 17.456 187.874 17.316 188.514 17.316C189.138 17.316 189.69 17.452 190.17 17.724C190.65 17.996 191.018 18.372 191.274 18.852C191.538 19.324 191.67 19.86 191.67 20.46ZM190.542 20.232C190.542 19.816 190.45 19.46 190.266 19.164C190.082 18.86 189.83 18.632 189.51 18.48C189.198 18.32 188.85 18.24 188.466 18.24C187.914 18.24 187.442 18.416 187.05 18.768C186.666 19.12 186.446 19.608 186.39 20.232H190.542ZM198.963 24.084C198.411 24.084 197.915 23.988 197.475 23.796C197.043 23.596 196.703 23.324 196.455 22.98C196.207 22.628 196.079 22.224 196.071 21.768H197.235C197.275 22.16 197.435 22.492 197.715 22.764C198.003 23.028 198.419 23.16 198.963 23.16C199.483 23.16 199.891 23.032 200.187 22.776C200.491 22.512 200.643 22.176 200.643 21.768C200.643 21.448 200.555 21.188 200.379 20.988C200.203 20.788 199.983 20.636 199.719 20.532C199.455 20.428 199.099 20.316 198.651 20.196C198.099 20.052 197.655 19.908 197.319 19.764C196.991 19.62 196.707 19.396 196.467 19.092C196.235 18.78 196.119 18.364 196.119 17.844C196.119 17.388 196.235 16.984 196.467 16.632C196.699 16.28 197.023 16.008 197.439 15.816C197.863 15.624 198.347 15.528 198.891 15.528C199.675 15.528 200.315 15.724 200.811 16.116C201.315 16.508 201.599 17.028 201.663 17.676H200.463C200.423 17.356 200.255 17.076 199.959 16.836C199.663 16.588 199.271 16.464 198.783 16.464C198.327 16.464 197.955 16.584 197.667 16.824C197.379 17.056 197.235 17.384 197.235 17.808C197.235 18.112 197.319 18.36 197.487 18.552C197.663 18.744 197.875 18.892 198.123 18.996C198.379 19.092 198.735 19.204 199.191 19.332C199.743 19.484 200.187 19.636 200.523 19.788C200.859 19.932 201.147 20.16 201.387 20.472C201.627 20.776 201.747 21.192 201.747 21.72C201.747 22.128 201.639 22.512 201.423 22.872C201.207 23.232 200.887 23.524 200.463 23.748C200.039 23.972 199.539 24.084 198.963 24.084ZM204.446 18.636C204.662 18.26 204.982 17.948 205.406 17.7C205.838 17.444 206.338 17.316 206.906 17.316C207.49 17.316 208.018 17.456 208.49 17.736C208.97 18.016 209.346 18.412 209.618 18.924C209.89 19.428 210.026 20.016 210.026 20.688C210.026 21.352 209.89 21.944 209.618 22.464C209.346 22.984 208.97 23.388 208.49 23.676C208.018 23.964 207.49 24.108 206.906 24.108C206.346 24.108 205.85 23.984 205.418 23.736C204.994 23.48 204.67 23.164 204.446 22.788V27.12H203.354V17.424H204.446V18.636ZM208.91 20.688C208.91 20.192 208.81 19.76 208.61 19.392C208.41 19.024 208.138 18.744 207.794 18.552C207.458 18.36 207.086 18.264 206.678 18.264C206.278 18.264 205.906 18.364 205.562 18.564C205.226 18.756 204.954 19.04 204.746 19.416C204.546 19.784 204.446 20.212 204.446 20.7C204.446 21.196 204.546 21.632 204.746 22.008C204.954 22.376 205.226 22.66 205.562 22.86C205.906 23.052 206.278 23.148 206.678 23.148C207.086 23.148 207.458 23.052 207.794 22.86C208.138 22.66 208.41 22.376 208.61 22.008C208.81 21.632 208.91 21.192 208.91 20.688ZM211.055 20.688C211.055 20.016 211.191 19.428 211.463 18.924C211.735 18.412 212.107 18.016 212.579 17.736C213.059 17.456 213.591 17.316 214.175 17.316C214.751 17.316 215.251 17.44 215.675 17.688C216.099 17.936 216.415 18.248 216.623 18.624V17.424H217.727V24H216.623V22.776C216.407 23.16 216.083 23.48 215.651 23.736C215.227 23.984 214.731 24.108 214.163 24.108C213.579 24.108 213.051 23.964 212.579 23.676C212.107 23.388 211.735 22.984 211.463 22.464C211.191 21.944 211.055 21.352 211.055 20.688ZM216.623 20.7C216.623 20.204 216.523 19.772 216.323 19.404C216.123 19.036 215.851 18.756 215.507 18.564C215.171 18.364 214.799 18.264 214.391 18.264C213.983 18.264 213.611 18.36 213.275 18.552C212.939 18.744 212.671 19.024 212.471 19.392C212.271 19.76 212.171 20.192 212.171 20.688C212.171 21.192 212.271 21.632 212.471 22.008C212.671 22.376 212.939 22.66 213.275 22.86C213.611 23.052 213.983 23.148 214.391 23.148C214.799 23.148 215.171 23.052 215.507 22.86C215.851 22.66 216.123 22.376 216.323 22.008C216.523 21.632 216.623 21.196 216.623 20.7ZM219.164 20.7C219.164 20.02 219.3 19.428 219.572 18.924C219.844 18.412 220.22 18.016 220.7 17.736C221.188 17.456 221.744 17.316 222.368 17.316C223.176 17.316 223.84 17.512 224.36 17.904C224.888 18.296 225.236 18.84 225.404 19.536H224.228C224.116 19.136 223.896 18.82 223.568 18.588C223.248 18.356 222.848 18.24 222.368 18.24C221.744 18.24 221.24 18.456 220.856 18.888C220.472 19.312 220.28 19.916 220.28 20.7C220.28 21.492 220.472 22.104 220.856 22.536C221.24 22.968 221.744 23.184 222.368 23.184C222.848 23.184 223.248 23.072 223.568 22.848C223.888 22.624 224.108 22.304 224.228 21.888H225.404C225.228 22.56 224.876 23.1 224.348 23.508C223.82 23.908 223.16 24.108 222.368 24.108C221.744 24.108 221.188 23.968 220.7 23.688C220.22 23.408 219.844 23.012 219.572 22.5C219.3 21.988 219.164 21.388 219.164 20.7ZM227.426 16.356C227.218 16.356 227.042 16.284 226.898 16.14C226.754 15.996 226.682 15.82 226.682 15.612C226.682 15.404 226.754 15.228 226.898 15.084C227.042 14.94 227.218 14.868 227.426 14.868C227.626 14.868 227.794 14.94 227.93 15.084C228.074 15.228 228.146 15.404 228.146 15.612C228.146 15.82 228.074 15.996 227.93 16.14C227.794 16.284 227.626 16.356 227.426 16.356ZM227.954 17.424V24H226.862V17.424H227.954ZM233.019 17.304C233.819 17.304 234.467 17.548 234.963 18.036C235.459 18.516 235.707 19.212 235.707 20.124V24H234.627V20.28C234.627 19.624 234.463 19.124 234.135 18.78C233.807 18.428 233.359 18.252 232.791 18.252C232.215 18.252 231.755 18.432 231.411 18.792C231.075 19.152 230.907 19.676 230.907 20.364V24H229.815V17.424H230.907V18.36C231.123 18.024 231.415 17.764 231.783 17.58C232.159 17.396 232.571 17.304 233.019 17.304ZM240.202 17.316C240.77 17.316 241.266 17.44 241.69 17.688C242.122 17.936 242.442 18.248 242.65 18.624V17.424H243.754V24.144C243.754 24.744 243.626 25.276 243.37 25.74C243.114 26.212 242.746 26.58 242.266 26.844C241.794 27.108 241.242 27.24 240.61 27.24C239.746 27.24 239.026 27.036 238.45 26.628C237.874 26.22 237.534 25.664 237.43 24.96H238.51C238.63 25.36 238.878 25.68 239.254 25.92C239.63 26.168 240.082 26.292 240.61 26.292C241.21 26.292 241.698 26.104 242.074 25.728C242.458 25.352 242.65 24.824 242.65 24.144V22.764C242.434 23.148 242.114 23.468 241.69 23.724C241.266 23.98 240.77 24.108 240.202 24.108C239.618 24.108 239.086 23.964 238.606 23.676C238.134 23.388 237.762 22.984 237.49 22.464C237.218 21.944 237.082 21.352 237.082 20.688C237.082 20.016 237.218 19.428 237.49 18.924C237.762 18.412 238.134 18.016 238.606 17.736C239.086 17.456 239.618 17.316 240.202 17.316ZM242.65 20.7C242.65 20.204 242.55 19.772 242.35 19.404C242.15 19.036 241.878 18.756 241.534 18.564C241.198 18.364 240.826 18.264 240.418 18.264C240.01 18.264 239.638 18.36 239.302 18.552C238.966 18.744 238.698 19.024 238.498 19.392C238.298 19.76 238.198 20.192 238.198 20.688C238.198 21.192 238.298 21.632 238.498 22.008C238.698 22.376 238.966 22.66 239.302 22.86C239.638 23.052 240.01 23.148 240.418 23.148C240.826 23.148 241.198 23.052 241.534 22.86C241.878 22.66 242.15 22.376 242.35 22.008C242.55 21.632 242.65 21.196 242.65 20.7ZM245.948 24.072C245.74 24.072 245.564 24 245.42 23.856C245.276 23.712 245.204 23.536 245.204 23.328C245.204 23.12 245.276 22.944 245.42 22.8C245.564 22.656 245.74 22.584 245.948 22.584C246.148 22.584 246.316 22.656 246.452 22.8C246.596 22.944 246.668 23.12 246.668 23.328C246.668 23.536 246.596 23.712 246.452 23.856C246.316 24 246.148 24.072 245.948 24.072ZM245.948 18.936C245.74 18.936 245.564 18.864 245.42 18.72C245.276 18.576 245.204 18.4 245.204 18.192C245.204 17.984 245.276 17.808 245.42 17.664C245.564 17.52 245.74 17.448 245.948 17.448C246.148 17.448 246.316 17.52 246.452 17.664C246.596 17.808 246.668 17.984 246.668 18.192C246.668 18.4 246.596 18.576 246.452 18.72C246.316 18.864 246.148 18.936 245.948 18.936ZM251.042 23.124C252.058 22.308 252.854 21.64 253.43 21.12C254.006 20.592 254.49 20.044 254.882 19.476C255.282 18.9 255.482 18.336 255.482 17.784C255.482 17.264 255.354 16.856 255.098 16.56C254.85 16.256 254.446 16.104 253.886 16.104C253.342 16.104 252.918 16.276 252.614 16.62C252.318 16.956 252.158 17.408 252.134 17.976H251.078C251.11 17.08 251.382 16.388 251.894 15.9C252.406 15.412 253.066 15.168 253.874 15.168C254.698 15.168 255.35 15.396 255.83 15.852C256.318 16.308 256.562 16.936 256.562 17.736C256.562 18.4 256.362 19.048 255.962 19.68C255.57 20.304 255.122 20.856 254.618 21.336C254.114 21.808 253.47 22.36 252.686 22.992H256.814V23.904H251.042V23.124ZM258.076 19.572C258.076 18.196 258.3 17.124 258.748 16.356C259.196 15.58 259.98 15.192 261.1 15.192C262.212 15.192 262.992 15.58 263.44 16.356C263.888 17.124 264.112 18.196 264.112 19.572C264.112 20.972 263.888 22.06 263.44 22.836C262.992 23.612 262.212 24 261.1 24C259.98 24 259.196 23.612 258.748 22.836C258.3 22.06 258.076 20.972 258.076 19.572ZM263.032 19.572C263.032 18.876 262.984 18.288 262.888 17.808C262.8 17.32 262.612 16.928 262.324 16.632C262.044 16.336 261.636 16.188 261.1 16.188C260.556 16.188 260.14 16.336 259.852 16.632C259.572 16.928 259.384 17.32 259.288 17.808C259.2 18.288 259.156 18.876 259.156 19.572C259.156 20.292 259.2 20.896 259.288 21.384C259.384 21.872 259.572 22.264 259.852 22.56C260.14 22.856 260.556 23.004 261.1 23.004C261.636 23.004 262.044 22.856 262.324 22.56C262.612 22.264 262.8 21.872 262.888 21.384C262.984 20.896 263.032 20.292 263.032 19.572Z" fill="#616161"/>
</svg>
