<svg width="427" height="46" viewBox="0 0 427 46" fill="none" xmlns="http://www.w3.org/2000/svg">
<path d="M11.34 6.49V19H9.288V13.528H3.402V19H1.35V6.49H3.402V11.854H9.288V6.49H11.34ZM23.1314 13.798C23.1314 14.17 23.1074 14.506 23.0594 14.806H15.4814C15.5414 15.598 15.8354 16.234 16.3634 16.714C16.8914 17.194 17.5394 17.434 18.3074 17.434C19.4114 17.434 20.1914 16.972 20.6474 16.048H22.8614C22.5614 16.96 22.0154 17.71 21.2234 18.298C20.4434 18.874 19.4714 19.162 18.3074 19.162C17.3594 19.162 16.5074 18.952 15.7514 18.532C15.0074 18.1 14.4194 17.5 13.9874 16.732C13.5674 15.952 13.3574 15.052 13.3574 14.032C13.3574 13.012 13.5614 12.118 13.9694 11.35C14.3894 10.57 14.9714 9.97 15.7154 9.55C16.4714 9.13 17.3354 8.92 18.3074 8.92C19.2434 8.92 20.0774 9.124 20.8094 9.532C21.5414 9.94 22.1114 10.516 22.5194 11.26C22.9274 11.992 23.1314 12.838 23.1314 13.798ZM20.9894 13.15C20.9774 12.394 20.7074 11.788 20.1794 11.332C19.6514 10.876 18.9974 10.648 18.2174 10.648C17.5094 10.648 16.9034 10.876 16.3994 11.332C15.8954 11.776 15.5954 12.382 15.4994 13.15H20.9894ZM24.4668 13.996C24.4668 13 24.6708 12.118 25.0788 11.35C25.4988 10.582 26.0628 9.988 26.7708 9.568C27.4908 9.136 28.2828 8.92 29.1468 8.92C29.9268 8.92 30.6048 9.076 31.1808 9.388C31.7688 9.688 32.2368 10.066 32.5848 10.522V9.082H34.6548V19H32.5848V17.524C32.2368 17.992 31.7628 18.382 31.1628 18.694C30.5628 19.006 29.8788 19.162 29.1108 19.162C28.2588 19.162 27.4788 18.946 26.7708 18.514C26.0628 18.07 25.4988 17.458 25.0788 16.678C24.6708 15.886 24.4668 14.992 24.4668 13.996ZM32.5848 14.032C32.5848 13.348 32.4408 12.754 32.1528 12.25C31.8768 11.746 31.5108 11.362 31.0548 11.098C30.5988 10.834 30.1068 10.702 29.5788 10.702C29.0508 10.702 28.5588 10.834 28.1028 11.098C27.6468 11.35 27.2748 11.728 26.9868 12.232C26.7108 12.724 26.5728 13.312 26.5728 13.996C26.5728 14.68 26.7108 15.28 26.9868 15.796C27.2748 16.312 27.6468 16.708 28.1028 16.984C28.5708 17.248 29.0628 17.38 29.5788 17.38C30.1068 17.38 30.5988 17.248 31.0548 16.984C31.5108 16.72 31.8768 16.336 32.1528 15.832C32.4408 15.316 32.5848 14.716 32.5848 14.032ZM36.666 13.996C36.666 13 36.87 12.118 37.278 11.35C37.698 10.582 38.262 9.988 38.97 9.568C39.69 9.136 40.488 8.92 41.364 8.92C42.012 8.92 42.648 9.064 43.272 9.352C43.908 9.628 44.412 10 44.784 10.468V5.68H46.854V19H44.784V17.506C44.448 17.986 43.98 18.382 43.38 18.694C42.792 19.006 42.114 19.162 41.346 19.162C40.482 19.162 39.69 18.946 38.97 18.514C38.262 18.07 37.698 17.458 37.278 16.678C36.87 15.886 36.666 14.992 36.666 13.996ZM44.784 14.032C44.784 13.348 44.64 12.754 44.352 12.25C44.076 11.746 43.71 11.362 43.254 11.098C42.798 10.834 42.306 10.702 41.778 10.702C41.25 10.702 40.758 10.834 40.302 11.098C39.846 11.35 39.474 11.728 39.186 12.232C38.91 12.724 38.772 13.312 38.772 13.996C38.772 14.68 38.91 15.28 39.186 15.796C39.474 16.312 39.846 16.708 40.302 16.984C40.77 17.248 41.262 17.38 41.778 17.38C42.306 17.38 42.798 17.248 43.254 16.984C43.71 16.72 44.076 16.336 44.352 15.832C44.64 15.316 44.784 14.716 44.784 14.032ZM50.5932 7.768C50.2212 7.768 49.9092 7.642 49.6572 7.39C49.4052 7.138 49.2792 6.826 49.2792 6.454C49.2792 6.082 49.4052 5.77 49.6572 5.518C49.9092 5.266 50.2212 5.14 50.5932 5.14C50.9532 5.14 51.2592 5.266 51.5112 5.518C51.7632 5.77 51.8892 6.082 51.8892 6.454C51.8892 6.826 51.7632 7.138 51.5112 7.39C51.2592 7.642 50.9532 7.768 50.5932 7.768ZM51.6012 9.082V19H49.5492V9.082H51.6012ZM59.2993 8.92C60.0793 8.92 60.7753 9.082 61.3873 9.406C62.0113 9.73 62.4973 10.21 62.8453 10.846C63.1933 11.482 63.3673 12.25 63.3673 13.15V19H61.3333V13.456C61.3333 12.568 61.1113 11.89 60.6673 11.422C60.2233 10.942 59.6173 10.702 58.8493 10.702C58.0813 10.702 57.4693 10.942 57.0133 11.422C56.5693 11.89 56.3473 12.568 56.3473 13.456V19H54.2953V9.082H56.3473V10.216C56.6833 9.808 57.1093 9.49 57.6253 9.262C58.1533 9.034 58.7113 8.92 59.2993 8.92ZM69.9808 8.92C70.7488 8.92 71.4268 9.076 72.0148 9.388C72.6148 9.688 73.0828 10.066 73.4188 10.522V9.082H75.4888V19.162C75.4888 20.074 75.2968 20.884 74.9128 21.592C74.5288 22.312 73.9708 22.876 73.2388 23.284C72.5188 23.692 71.6548 23.896 70.6468 23.896C69.3028 23.896 68.1868 23.578 67.2988 22.942C66.4108 22.318 65.9068 21.466 65.7868 20.386H67.8208C67.9768 20.902 68.3068 21.316 68.8108 21.628C69.3268 21.952 69.9388 22.114 70.6468 22.114C71.4748 22.114 72.1408 21.862 72.6448 21.358C73.1608 20.854 73.4188 20.122 73.4188 19.162V17.506C73.0708 17.974 72.5968 18.37 71.9968 18.694C71.4088 19.006 70.7368 19.162 69.9808 19.162C69.1168 19.162 68.3248 18.946 67.6048 18.514C66.8968 18.07 66.3328 17.458 65.9128 16.678C65.5048 15.886 65.3008 14.992 65.3008 13.996C65.3008 13 65.5048 12.118 65.9128 11.35C66.3328 10.582 66.8968 9.988 67.6048 9.568C68.3248 9.136 69.1168 8.92 69.9808 8.92ZM73.4188 14.032C73.4188 13.348 73.2748 12.754 72.9868 12.25C72.7108 11.746 72.3448 11.362 71.8888 11.098C71.4328 10.834 70.9408 10.702 70.4128 10.702C69.8848 10.702 69.3928 10.834 68.9368 11.098C68.4808 11.35 68.1088 11.728 67.8208 12.232C67.5448 12.724 67.4068 13.312 67.4068 13.996C67.4068 14.68 67.5448 15.28 67.8208 15.796C68.1088 16.312 68.4808 16.708 68.9368 16.984C69.4048 17.248 69.8968 17.38 70.4128 17.38C70.9408 17.38 71.4328 17.248 71.8888 16.984C72.3448 16.72 72.7108 16.336 72.9868 15.832C73.2748 15.316 73.4188 14.716 73.4188 14.032ZM82.3378 16.264V14.716L88.3858 6.04H90.8698V14.482H92.5438V16.264H90.8698V19H88.8538V16.264H82.3378ZM88.9438 8.128L84.6958 14.482H88.9438V8.128ZM106.804 11.62V13.348H99.4058V11.62H106.804ZM121.757 6.49V8.164H116.447V11.854H120.587V13.528H116.447V19H114.395V6.49H121.757ZM127.961 19.162C127.025 19.162 126.179 18.952 125.423 18.532C124.667 18.1 124.073 17.5 123.641 16.732C123.209 15.952 122.993 15.052 122.993 14.032C122.993 13.024 123.215 12.13 123.659 11.35C124.103 10.57 124.709 9.97 125.477 9.55C126.245 9.13 127.103 8.92 128.051 8.92C128.999 8.92 129.857 9.13 130.625 9.55C131.393 9.97 131.999 10.57 132.443 11.35C132.887 12.13 133.109 13.024 133.109 14.032C133.109 15.04 132.881 15.934 132.425 16.714C131.969 17.494 131.345 18.1 130.553 18.532C129.773 18.952 128.909 19.162 127.961 19.162ZM127.961 17.38C128.489 17.38 128.981 17.254 129.437 17.002C129.905 16.75 130.283 16.372 130.571 15.868C130.859 15.364 131.003 14.752 131.003 14.032C131.003 13.312 130.865 12.706 130.589 12.214C130.313 11.71 129.947 11.332 129.491 11.08C129.035 10.828 128.543 10.702 128.015 10.702C127.487 10.702 126.995 10.828 126.539 11.08C126.095 11.332 125.741 11.71 125.477 12.214C125.213 12.706 125.081 13.312 125.081 14.032C125.081 15.1 125.351 15.928 125.891 16.516C126.443 17.092 127.133 17.38 127.961 17.38ZM137.189 10.522C137.489 10.018 137.885 9.628 138.377 9.352C138.881 9.064 139.475 8.92 140.159 8.92V11.044H139.637C138.833 11.044 138.221 11.248 137.801 11.656C137.393 12.064 137.189 12.772 137.189 13.78V19H135.137V9.082H137.189V10.522ZM150.843 19.126C150.003 19.126 149.247 18.982 148.575 18.694C147.903 18.394 147.375 17.974 146.991 17.434C146.607 16.894 146.415 16.264 146.415 15.544H148.611C148.659 16.084 148.869 16.528 149.241 16.876C149.625 17.224 150.159 17.398 150.843 17.398C151.551 17.398 152.103 17.23 152.499 16.894C152.895 16.546 153.093 16.102 153.093 15.562C153.093 15.142 152.967 14.8 152.715 14.536C152.475 14.272 152.169 14.068 151.797 13.924C151.437 13.78 150.933 13.624 150.285 13.456C149.469 13.24 148.803 13.024 148.287 12.808C147.783 12.58 147.351 12.232 146.991 11.764C146.631 11.296 146.451 10.672 146.451 9.892C146.451 9.172 146.631 8.542 146.991 8.002C147.351 7.462 147.855 7.048 148.503 6.76C149.151 6.472 149.901 6.328 150.753 6.328C151.965 6.328 152.955 6.634 153.723 7.246C154.503 7.846 154.935 8.674 155.019 9.73H152.751C152.715 9.274 152.499 8.884 152.103 8.56C151.707 8.236 151.185 8.074 150.537 8.074C149.949 8.074 149.469 8.224 149.097 8.524C148.725 8.824 148.539 9.256 148.539 9.82C148.539 10.204 148.653 10.522 148.881 10.774C149.121 11.014 149.421 11.206 149.781 11.35C150.141 11.494 150.633 11.65 151.257 11.818C152.085 12.046 152.757 12.274 153.273 12.502C153.801 12.73 154.245 13.084 154.605 13.564C154.977 14.032 155.163 14.662 155.163 15.454C155.163 16.09 154.989 16.69 154.641 17.254C154.305 17.818 153.807 18.274 153.147 18.622C152.499 18.958 151.731 19.126 150.843 19.126ZM169.59 8.92C170.37 8.92 171.066 9.082 171.678 9.406C172.302 9.73 172.788 10.21 173.136 10.846C173.496 11.482 173.676 12.25 173.676 13.15V19H171.642V13.456C171.642 12.568 171.42 11.89 170.976 11.422C170.532 10.942 169.926 10.702 169.158 10.702C168.39 10.702 167.778 10.942 167.322 11.422C166.878 11.89 166.656 12.568 166.656 13.456V19H164.622V13.456C164.622 12.568 164.4 11.89 163.956 11.422C163.512 10.942 162.906 10.702 162.138 10.702C161.37 10.702 160.758 10.942 160.302 11.422C159.858 11.89 159.636 12.568 159.636 13.456V19H157.584V9.082H159.636V10.216C159.972 9.808 160.398 9.49 160.914 9.262C161.43 9.034 161.982 8.92 162.57 8.92C163.362 8.92 164.07 9.088 164.694 9.424C165.318 9.76 165.798 10.246 166.134 10.882C166.434 10.282 166.902 9.808 167.538 9.46C168.174 9.1 168.858 8.92 169.59 8.92ZM175.604 13.996C175.604 13 175.808 12.118 176.216 11.35C176.636 10.582 177.2 9.988 177.908 9.568C178.628 9.136 179.42 8.92 180.284 8.92C181.064 8.92 181.742 9.076 182.318 9.388C182.906 9.688 183.374 10.066 183.722 10.522V9.082H185.792V19H183.722V17.524C183.374 17.992 182.9 18.382 182.3 18.694C181.7 19.006 181.016 19.162 180.248 19.162C179.396 19.162 178.616 18.946 177.908 18.514C177.2 18.07 176.636 17.458 176.216 16.678C175.808 15.886 175.604 14.992 175.604 13.996ZM183.722 14.032C183.722 13.348 183.578 12.754 183.29 12.25C183.014 11.746 182.648 11.362 182.192 11.098C181.736 10.834 181.244 10.702 180.716 10.702C180.188 10.702 179.696 10.834 179.24 11.098C178.784 11.35 178.412 11.728 178.124 12.232C177.848 12.724 177.71 13.312 177.71 13.996C177.71 14.68 177.848 15.28 178.124 15.796C178.412 16.312 178.784 16.708 179.24 16.984C179.708 17.248 180.2 17.38 180.716 17.38C181.244 17.38 181.736 17.248 182.192 16.984C182.648 16.72 183.014 16.336 183.29 15.832C183.578 15.316 183.722 14.716 183.722 14.032ZM190.539 5.68V19H188.487V5.68H190.539ZM195.285 5.68V19H193.233V5.68H195.285ZM207.069 13.798C207.069 14.17 207.045 14.506 206.997 14.806H199.419C199.479 15.598 199.773 16.234 200.301 16.714C200.829 17.194 201.477 17.434 202.245 17.434C203.349 17.434 204.129 16.972 204.585 16.048H206.799C206.499 16.96 205.953 17.71 205.161 18.298C204.381 18.874 203.409 19.162 202.245 19.162C201.297 19.162 200.445 18.952 199.689 18.532C198.945 18.1 198.357 17.5 197.925 16.732C197.505 15.952 197.295 15.052 197.295 14.032C197.295 13.012 197.499 12.118 197.907 11.35C198.327 10.57 198.909 9.97 199.653 9.55C200.409 9.13 201.273 8.92 202.245 8.92C203.181 8.92 204.015 9.124 204.747 9.532C205.479 9.94 206.049 10.516 206.457 11.26C206.865 11.992 207.069 12.838 207.069 13.798ZM204.927 13.15C204.915 12.394 204.645 11.788 204.117 11.332C203.589 10.876 202.935 10.648 202.155 10.648C201.447 10.648 200.841 10.876 200.337 11.332C199.833 11.776 199.533 12.382 199.437 13.15H204.927ZM211.14 10.522C211.44 10.018 211.836 9.628 212.328 9.352C212.832 9.064 213.426 8.92 214.11 8.92V11.044H213.588C212.784 11.044 212.172 11.248 211.752 11.656C211.344 12.064 211.14 12.772 211.14 13.78V19H209.088V9.082H211.14V10.522ZM228.754 6.49V8.164H225.424V19H223.372V8.164H220.024V6.49H228.754ZM231.876 7.768C231.504 7.768 231.192 7.642 230.94 7.39C230.688 7.138 230.562 6.826 230.562 6.454C230.562 6.082 230.688 5.77 230.94 5.518C231.192 5.266 231.504 5.14 231.876 5.14C232.236 5.14 232.542 5.266 232.794 5.518C233.046 5.77 233.172 6.082 233.172 6.454C233.172 6.826 233.046 7.138 232.794 7.39C232.542 7.642 232.236 7.768 231.876 7.768ZM232.884 9.082V19H230.832V9.082H232.884ZM237.973 10.756V16.246C237.973 16.618 238.057 16.888 238.225 17.056C238.405 17.212 238.705 17.29 239.125 17.29H240.385V19H238.765C237.841 19 237.133 18.784 236.641 18.352C236.149 17.92 235.903 17.218 235.903 16.246V10.756H234.733V9.082H235.903V6.616H237.973V9.082H240.385V10.756H237.973ZM244.328 5.68V19H242.276V5.68H244.328ZM256.112 13.798C256.112 14.17 256.088 14.506 256.04 14.806H248.462C248.522 15.598 248.816 16.234 249.344 16.714C249.872 17.194 250.52 17.434 251.288 17.434C252.392 17.434 253.172 16.972 253.628 16.048H255.842C255.542 16.96 254.996 17.71 254.204 18.298C253.424 18.874 252.452 19.162 251.288 19.162C250.34 19.162 249.488 18.952 248.732 18.532C247.988 18.1 247.4 17.5 246.968 16.732C246.548 15.952 246.338 15.052 246.338 14.032C246.338 13.012 246.542 12.118 246.95 11.35C247.37 10.57 247.952 9.97 248.696 9.55C249.452 9.13 250.316 8.92 251.288 8.92C252.224 8.92 253.058 9.124 253.79 9.532C254.522 9.94 255.092 10.516 255.5 11.26C255.908 11.992 256.112 12.838 256.112 13.798ZM253.97 13.15C253.958 12.394 253.688 11.788 253.16 11.332C252.632 10.876 251.978 10.648 251.198 10.648C250.49 10.648 249.884 10.876 249.38 11.332C248.876 11.776 248.576 12.382 248.48 13.15H253.97ZM261.731 19.162C260.951 19.162 260.249 19.024 259.625 18.748C259.013 18.46 258.527 18.076 258.167 17.596C257.807 17.104 257.615 16.558 257.591 15.958H259.715C259.751 16.378 259.949 16.732 260.309 17.02C260.681 17.296 261.143 17.434 261.695 17.434C262.271 17.434 262.715 17.326 263.027 17.11C263.351 16.882 263.513 16.594 263.513 16.246C263.513 15.874 263.333 15.598 262.973 15.418C262.625 15.238 262.067 15.04 261.299 14.824C260.555 14.62 259.949 14.422 259.481 14.23C259.013 14.038 258.605 13.744 258.257 13.348C257.921 12.952 257.753 12.43 257.753 11.782C257.753 11.254 257.909 10.774 258.221 10.342C258.533 9.898 258.977 9.55 259.553 9.298C260.141 9.046 260.813 8.92 261.569 8.92C262.697 8.92 263.603 9.208 264.287 9.784C264.983 10.348 265.355 11.122 265.403 12.106H263.351C263.315 11.662 263.135 11.308 262.811 11.044C262.487 10.78 262.049 10.648 261.497 10.648C260.957 10.648 260.543 10.75 260.255 10.954C259.967 11.158 259.823 11.428 259.823 11.764C259.823 12.028 259.919 12.25 260.111 12.43C260.303 12.61 260.537 12.754 260.813 12.862C261.089 12.958 261.497 13.084 262.037 13.24C262.757 13.432 263.345 13.63 263.801 13.834C264.269 14.026 264.671 14.314 265.007 14.698C265.343 15.082 265.517 15.592 265.529 16.228C265.529 16.792 265.373 17.296 265.061 17.74C264.749 18.184 264.305 18.532 263.729 18.784C263.165 19.036 262.499 19.162 261.731 19.162Z" fill="#3A3A3A"/>
<path d="M5.652 32.636V33.524H2.016V36.344H4.968V37.232H2.016V41H0.924V32.636H5.652ZM9.83888 41.108C9.22288 41.108 8.66288 40.968 8.15888 40.688C7.66288 40.408 7.27088 40.012 6.98288 39.5C6.70288 38.98 6.56288 38.38 6.56288 37.7C6.56288 37.028 6.70688 36.436 6.99488 35.924C7.29088 35.404 7.69088 35.008 8.19488 34.736C8.69888 34.456 9.26288 34.316 9.88688 34.316C10.5109 34.316 11.0749 34.456 11.5789 34.736C12.0829 35.008 12.4789 35.4 12.7669 35.912C13.0629 36.424 13.2109 37.02 13.2109 37.7C13.2109 38.38 13.0589 38.98 12.7549 39.5C12.4589 40.012 12.0549 40.408 11.5429 40.688C11.0309 40.968 10.4629 41.108 9.83888 41.108ZM9.83888 40.148C10.2309 40.148 10.5989 40.056 10.9429 39.872C11.2869 39.688 11.5629 39.412 11.7709 39.044C11.9869 38.676 12.0949 38.228 12.0949 37.7C12.0949 37.172 11.9909 36.724 11.7829 36.356C11.5749 35.988 11.3029 35.716 10.9669 35.54C10.6309 35.356 10.2669 35.264 9.87488 35.264C9.47488 35.264 9.10688 35.356 8.77088 35.54C8.44288 35.716 8.17888 35.988 7.97888 36.356C7.77888 36.724 7.67888 37.172 7.67888 37.7C7.67888 38.236 7.77488 38.688 7.96688 39.056C8.16688 39.424 8.43088 39.7 8.75888 39.884C9.08688 40.06 9.44688 40.148 9.83888 40.148ZM17.8507 34.304C18.6507 34.304 19.2987 34.548 19.7947 35.036C20.2907 35.516 20.5387 36.212 20.5387 37.124V41H19.4587V37.28C19.4587 36.624 19.2947 36.124 18.9667 35.78C18.6387 35.428 18.1907 35.252 17.6227 35.252C17.0467 35.252 16.5867 35.432 16.2427 35.792C15.9067 36.152 15.7387 36.676 15.7387 37.364V41H14.6467V34.424H15.7387V35.36C15.9547 35.024 16.2467 34.764 16.6147 34.58C16.9907 34.396 17.4027 34.304 17.8507 34.304ZM23.6544 35.324V39.2C23.6544 39.52 23.7224 39.748 23.8584 39.884C23.9944 40.012 24.2304 40.076 24.5664 40.076H25.3704V41H24.3864C23.7784 41 23.3224 40.86 23.0184 40.58C22.7144 40.3 22.5624 39.84 22.5624 39.2V35.324H21.7104V34.424H22.5624V32.768H23.6544V34.424H25.3704V35.324H23.6544ZM32.2208 41.108C31.7168 41.108 31.2648 41.024 30.8648 40.856C30.4648 40.68 30.1488 40.44 29.9168 40.136C29.6848 39.824 29.5568 39.468 29.5328 39.068H30.6608C30.6928 39.396 30.8448 39.664 31.1168 39.872C31.3968 40.08 31.7608 40.184 32.2088 40.184C32.6248 40.184 32.9528 40.092 33.1928 39.908C33.4328 39.724 33.5528 39.492 33.5528 39.212C33.5528 38.924 33.4248 38.712 33.1688 38.576C32.9128 38.432 32.5168 38.292 31.9808 38.156C31.4928 38.028 31.0928 37.9 30.7808 37.772C30.4768 37.636 30.2128 37.44 29.9888 37.184C29.7728 36.92 29.6648 36.576 29.6648 36.152C29.6648 35.816 29.7648 35.508 29.9648 35.228C30.1648 34.948 30.4488 34.728 30.8168 34.568C31.1848 34.4 31.6048 34.316 32.0768 34.316C32.8048 34.316 33.3928 34.5 33.8408 34.868C34.2888 35.236 34.5288 35.74 34.5608 36.38H33.4688C33.4448 36.036 33.3048 35.76 33.0488 35.552C32.8008 35.344 32.4648 35.24 32.0408 35.24C31.6488 35.24 31.3368 35.324 31.1048 35.492C30.8728 35.66 30.7568 35.88 30.7568 36.152C30.7568 36.368 30.8248 36.548 30.9608 36.692C31.1048 36.828 31.2808 36.94 31.4888 37.028C31.7048 37.108 32.0008 37.2 32.3768 37.304C32.8488 37.432 33.2328 37.56 33.5288 37.688C33.8248 37.808 34.0768 37.992 34.2848 38.24C34.5008 38.488 34.6128 38.812 34.6208 39.212C34.6208 39.572 34.5208 39.896 34.3208 40.184C34.1208 40.472 33.8368 40.7 33.4688 40.868C33.1088 41.028 32.6928 41.108 32.2208 41.108ZM36.7263 33.356C36.5183 33.356 36.3423 33.284 36.1983 33.14C36.0543 32.996 35.9823 32.82 35.9823 32.612C35.9823 32.404 36.0543 32.228 36.1983 32.084C36.3423 31.94 36.5183 31.868 36.7263 31.868C36.9263 31.868 37.0943 31.94 37.2303 32.084C37.3743 32.228 37.4463 32.404 37.4463 32.612C37.4463 32.82 37.3743 32.996 37.2303 33.14C37.0943 33.284 36.9263 33.356 36.7263 33.356ZM37.2543 34.424V41H36.1623V34.424H37.2543ZM39.9314 40.1H43.1594V41H38.6834V40.1L41.8754 35.312H38.7074V34.424H43.1354V35.312L39.9314 40.1ZM50.5763 37.46C50.5763 37.668 50.5643 37.888 50.5403 38.12H45.2843C45.3243 38.768 45.5443 39.276 45.9443 39.644C46.3523 40.004 46.8443 40.184 47.4203 40.184C47.8923 40.184 48.2843 40.076 48.5963 39.86C48.9163 39.636 49.1403 39.34 49.2683 38.972H50.4443C50.2683 39.604 49.9163 40.12 49.3883 40.52C48.8603 40.912 48.2043 41.108 47.4203 41.108C46.7963 41.108 46.2363 40.968 45.7403 40.688C45.2523 40.408 44.8683 40.012 44.5883 39.5C44.3083 38.98 44.1683 38.38 44.1683 37.7C44.1683 37.02 44.3043 36.424 44.5763 35.912C44.8483 35.4 45.2283 35.008 45.7163 34.736C46.2123 34.456 46.7803 34.316 47.4203 34.316C48.0443 34.316 48.5963 34.452 49.0763 34.724C49.5563 34.996 49.9243 35.372 50.1803 35.852C50.4443 36.324 50.5763 36.86 50.5763 37.46ZM49.4483 37.232C49.4483 36.816 49.3563 36.46 49.1723 36.164C48.9883 35.86 48.7363 35.632 48.4163 35.48C48.1043 35.32 47.7563 35.24 47.3723 35.24C46.8203 35.24 46.3483 35.416 45.9563 35.768C45.5723 36.12 45.3523 36.608 45.2963 37.232H49.4483ZM55.565 41.072C55.357 41.072 55.181 41 55.037 40.856C54.893 40.712 54.821 40.536 54.821 40.328C54.821 40.12 54.893 39.944 55.037 39.8C55.181 39.656 55.357 39.584 55.565 39.584C55.765 39.584 55.933 39.656 56.069 39.8C56.213 39.944 56.285 40.12 56.285 40.328C56.285 40.536 56.213 40.712 56.069 40.856C55.933 41 55.765 41.072 55.565 41.072ZM55.565 35.936C55.357 35.936 55.181 35.864 55.037 35.72C54.893 35.576 54.821 35.4 54.821 35.192C54.821 34.984 54.893 34.808 55.037 34.664C55.181 34.52 55.357 34.448 55.565 34.448C55.765 34.448 55.933 34.52 56.069 34.664C56.213 34.808 56.285 34.984 56.285 35.192C56.285 35.4 56.213 35.576 56.069 35.72C55.933 35.864 55.765 35.936 55.565 35.936ZM60.5029 33.32V32.324H62.7589V41H61.6549V33.32H60.5029ZM66.2186 36.488C65.7706 36.312 65.4266 36.056 65.1866 35.72C64.9466 35.384 64.8266 34.976 64.8266 34.496C64.8266 34.064 64.9346 33.676 65.1506 33.332C65.3666 32.98 65.6866 32.704 66.1106 32.504C66.5426 32.296 67.0626 32.192 67.6706 32.192C68.2786 32.192 68.7946 32.296 69.2186 32.504C69.6506 32.704 69.9746 32.98 70.1906 33.332C70.4146 33.676 70.5266 34.064 70.5266 34.496C70.5266 34.96 70.4026 35.368 70.1546 35.72C69.9066 36.064 69.5666 36.32 69.1346 36.488C69.6306 36.64 70.0226 36.908 70.3106 37.292C70.6066 37.668 70.7546 38.124 70.7546 38.66C70.7546 39.18 70.6266 39.636 70.3706 40.028C70.1146 40.412 69.7506 40.712 69.2786 40.928C68.8146 41.136 68.2786 41.24 67.6706 41.24C67.0626 41.24 66.5266 41.136 66.0626 40.928C65.6066 40.712 65.2506 40.412 64.9946 40.028C64.7386 39.636 64.6106 39.18 64.6106 38.66C64.6106 38.124 64.7546 37.664 65.0426 37.28C65.3306 36.896 65.7226 36.632 66.2186 36.488ZM69.4706 34.628C69.4706 34.14 69.3106 33.764 68.9906 33.5C68.6706 33.236 68.2306 33.104 67.6706 33.104C67.1186 33.104 66.6826 33.236 66.3626 33.5C66.0426 33.764 65.8826 34.144 65.8826 34.64C65.8826 35.088 66.0466 35.448 66.3746 35.72C66.7106 35.992 67.1426 36.128 67.6706 36.128C68.2066 36.128 68.6386 35.992 68.9666 35.72C69.3026 35.44 69.4706 35.076 69.4706 34.628ZM67.6706 36.968C67.0786 36.968 66.5946 37.108 66.2186 37.388C65.8426 37.66 65.6546 38.072 65.6546 38.624C65.6546 39.136 65.8346 39.548 66.1946 39.86C66.5626 40.172 67.0546 40.328 67.6706 40.328C68.2866 40.328 68.7746 40.172 69.1346 39.86C69.4946 39.548 69.6746 39.136 69.6746 38.624C69.6746 38.088 69.4906 37.68 69.1226 37.4C68.7546 37.112 68.2706 36.968 67.6706 36.968ZM73.4769 35.636C73.6929 35.26 74.0129 34.948 74.4369 34.7C74.8689 34.444 75.3689 34.316 75.9369 34.316C76.5209 34.316 77.0489 34.456 77.5209 34.736C78.0009 35.016 78.3769 35.412 78.6489 35.924C78.9209 36.428 79.0569 37.016 79.0569 37.688C79.0569 38.352 78.9209 38.944 78.6489 39.464C78.3769 39.984 78.0009 40.388 77.5209 40.676C77.0489 40.964 76.5209 41.108 75.9369 41.108C75.3769 41.108 74.8809 40.984 74.4489 40.736C74.0249 40.48 73.7009 40.164 73.4769 39.788V44.12H72.3849V34.424H73.4769V35.636ZM77.9409 37.688C77.9409 37.192 77.8409 36.76 77.6409 36.392C77.4409 36.024 77.1689 35.744 76.8249 35.552C76.4889 35.36 76.1169 35.264 75.7089 35.264C75.3089 35.264 74.9369 35.364 74.5929 35.564C74.2569 35.756 73.9849 36.04 73.7769 36.416C73.5769 36.784 73.4769 37.212 73.4769 37.7C73.4769 38.196 73.5769 38.632 73.7769 39.008C73.9849 39.376 74.2569 39.66 74.5929 39.86C74.9369 40.052 75.3089 40.148 75.7089 40.148C76.1169 40.148 76.4889 40.052 76.8249 39.86C77.1689 39.66 77.4409 39.376 77.6409 39.008C77.8409 38.632 77.9409 38.192 77.9409 37.688ZM83.9263 41L82.3663 38.552L80.8663 41H79.7263L81.8503 37.736L79.7263 34.424H80.9623L82.5223 36.86L84.0103 34.424H85.1503L83.0383 37.676L85.1623 41H83.9263ZM100.238 41L98.2462 37.58H96.9262V41H95.8342V32.636H98.5342C99.1662 32.636 99.6982 32.744 100.13 32.96C100.57 33.176 100.898 33.468 101.114 33.836C101.33 34.204 101.438 34.624 101.438 35.096C101.438 35.672 101.27 36.18 100.934 36.62C100.606 37.06 100.11 37.352 99.4462 37.496L101.546 41H100.238ZM96.9262 36.704H98.5342C99.1262 36.704 99.5702 36.56 99.8662 36.272C100.162 35.976 100.31 35.584 100.31 35.096C100.31 34.6 100.162 34.216 99.8662 33.944C99.5782 33.672 99.1342 33.536 98.5342 33.536H96.9262V36.704ZM104.227 33.524V36.32H107.275V37.22H104.227V40.1H107.635V41H103.135V32.624H107.635V33.524H104.227ZM117.771 32.696V41H116.679V34.808L113.919 41H113.151L110.379 34.796V41H109.287V32.696H110.463L113.535 39.56L116.607 32.696H117.771ZM123.17 41.072C122.962 41.072 122.786 41 122.642 40.856C122.498 40.712 122.426 40.536 122.426 40.328C122.426 40.12 122.498 39.944 122.642 39.8C122.786 39.656 122.962 39.584 123.17 39.584C123.37 39.584 123.538 39.656 123.674 39.8C123.818 39.944 123.89 40.12 123.89 40.328C123.89 40.536 123.818 40.712 123.674 40.856C123.538 41 123.37 41.072 123.17 41.072ZM123.17 35.936C122.962 35.936 122.786 35.864 122.642 35.72C122.498 35.576 122.426 35.4 122.426 35.192C122.426 34.984 122.498 34.808 122.642 34.664C122.786 34.52 122.962 34.448 123.17 34.448C123.37 34.448 123.538 34.52 123.674 34.664C123.818 34.808 123.89 34.984 123.89 35.192C123.89 35.4 123.818 35.576 123.674 35.72C123.538 35.864 123.37 35.936 123.17 35.936ZM128.108 33.32V32.324H130.364V41H129.26V33.32H128.108ZM132.768 41.072C132.56 41.072 132.384 41 132.24 40.856C132.096 40.712 132.024 40.536 132.024 40.328C132.024 40.12 132.096 39.944 132.24 39.8C132.384 39.656 132.56 39.584 132.768 39.584C132.968 39.584 133.136 39.656 133.272 39.8C133.416 39.944 133.488 40.12 133.488 40.328C133.488 40.536 133.416 40.712 133.272 40.856C133.136 41 132.968 41.072 132.768 41.072ZM134.472 33.32V32.324H136.728V41H135.624V33.32H134.472ZM138.471 40.124C139.487 39.308 140.283 38.64 140.859 38.12C141.435 37.592 141.919 37.044 142.311 36.476C142.711 35.9 142.911 35.336 142.911 34.784C142.911 34.264 142.783 33.856 142.527 33.56C142.279 33.256 141.875 33.104 141.315 33.104C140.771 33.104 140.347 33.276 140.043 33.62C139.747 33.956 139.587 34.408 139.563 34.976H138.507C138.539 34.08 138.811 33.388 139.323 32.9C139.835 32.412 140.495 32.168 141.303 32.168C142.127 32.168 142.779 32.396 143.259 32.852C143.747 33.308 143.991 33.936 143.991 34.736C143.991 35.4 143.791 36.048 143.391 36.68C142.999 37.304 142.551 37.856 142.047 38.336C141.543 38.808 140.899 39.36 140.115 39.992H144.243V40.904H138.471V40.124ZM151.038 33.272H146.826V36.008C147.01 35.752 147.282 35.544 147.642 35.384C148.002 35.216 148.39 35.132 148.806 35.132C149.47 35.132 150.01 35.272 150.426 35.552C150.842 35.824 151.138 36.18 151.314 36.62C151.498 37.052 151.59 37.512 151.59 38C151.59 38.576 151.482 39.092 151.266 39.548C151.05 40.004 150.718 40.364 150.27 40.628C149.83 40.892 149.282 41.024 148.626 41.024C147.786 41.024 147.106 40.808 146.586 40.376C146.066 39.944 145.75 39.368 145.638 38.648H146.706C146.81 39.104 147.03 39.46 147.366 39.716C147.702 39.972 148.126 40.1 148.638 40.1C149.27 40.1 149.746 39.912 150.066 39.536C150.386 39.152 150.546 38.648 150.546 38.024C150.546 37.4 150.386 36.92 150.066 36.584C149.746 36.24 149.274 36.068 148.65 36.068C148.226 36.068 147.854 36.172 147.534 36.38C147.222 36.58 146.994 36.856 146.85 37.208H145.818V32.312H151.038V33.272ZM163.911 40.112H166.839V41H162.819V32.636H163.911V40.112ZM168.562 33.356C168.354 33.356 168.178 33.284 168.034 33.14C167.89 32.996 167.818 32.82 167.818 32.612C167.818 32.404 167.89 32.228 168.034 32.084C168.178 31.94 168.354 31.868 168.562 31.868C168.762 31.868 168.93 31.94 169.066 32.084C169.21 32.228 169.282 32.404 169.282 32.612C169.282 32.82 169.21 32.996 169.066 33.14C168.93 33.284 168.762 33.356 168.562 33.356ZM169.09 34.424V41H167.998V34.424H169.09ZM174.155 34.304C174.955 34.304 175.603 34.548 176.099 35.036C176.595 35.516 176.843 36.212 176.843 37.124V41H175.763V37.28C175.763 36.624 175.599 36.124 175.271 35.78C174.943 35.428 174.495 35.252 173.927 35.252C173.351 35.252 172.891 35.432 172.547 35.792C172.211 36.152 172.043 36.676 172.043 37.364V41H170.951V34.424H172.043V35.36C172.259 35.024 172.551 34.764 172.919 34.58C173.295 34.396 173.707 34.304 174.155 34.304ZM184.627 37.46C184.627 37.668 184.615 37.888 184.591 38.12H179.335C179.375 38.768 179.595 39.276 179.995 39.644C180.403 40.004 180.895 40.184 181.471 40.184C181.943 40.184 182.335 40.076 182.647 39.86C182.967 39.636 183.191 39.34 183.319 38.972H184.495C184.319 39.604 183.967 40.12 183.439 40.52C182.911 40.912 182.255 41.108 181.471 41.108C180.847 41.108 180.287 40.968 179.791 40.688C179.303 40.408 178.919 40.012 178.639 39.5C178.359 38.98 178.219 38.38 178.219 37.7C178.219 37.02 178.355 36.424 178.627 35.912C178.899 35.4 179.279 35.008 179.767 34.736C180.263 34.456 180.831 34.316 181.471 34.316C182.095 34.316 182.647 34.452 183.127 34.724C183.607 34.996 183.975 35.372 184.231 35.852C184.495 36.324 184.627 36.86 184.627 37.46ZM183.499 37.232C183.499 36.816 183.407 36.46 183.223 36.164C183.039 35.86 182.787 35.632 182.467 35.48C182.155 35.32 181.807 35.24 181.423 35.24C180.871 35.24 180.399 35.416 180.007 35.768C179.623 36.12 179.403 36.608 179.347 37.232H183.499ZM191.92 41.084C191.368 41.084 190.872 40.988 190.432 40.796C190 40.596 189.66 40.324 189.412 39.98C189.164 39.628 189.036 39.224 189.028 38.768H190.192C190.232 39.16 190.392 39.492 190.672 39.764C190.96 40.028 191.376 40.16 191.92 40.16C192.44 40.16 192.848 40.032 193.144 39.776C193.448 39.512 193.6 39.176 193.6 38.768C193.6 38.448 193.512 38.188 193.336 37.988C193.16 37.788 192.94 37.636 192.676 37.532C192.412 37.428 192.056 37.316 191.608 37.196C191.056 37.052 190.612 36.908 190.276 36.764C189.948 36.62 189.664 36.396 189.424 36.092C189.192 35.78 189.076 35.364 189.076 34.844C189.076 34.388 189.192 33.984 189.424 33.632C189.656 33.28 189.98 33.008 190.396 32.816C190.82 32.624 191.304 32.528 191.848 32.528C192.632 32.528 193.272 32.724 193.768 33.116C194.272 33.508 194.556 34.028 194.62 34.676H193.42C193.38 34.356 193.212 34.076 192.916 33.836C192.62 33.588 192.228 33.464 191.74 33.464C191.284 33.464 190.912 33.584 190.624 33.824C190.336 34.056 190.192 34.384 190.192 34.808C190.192 35.112 190.276 35.36 190.444 35.552C190.62 35.744 190.832 35.892 191.08 35.996C191.336 36.092 191.692 36.204 192.148 36.332C192.7 36.484 193.144 36.636 193.48 36.788C193.816 36.932 194.104 37.16 194.344 37.472C194.584 37.776 194.704 38.192 194.704 38.72C194.704 39.128 194.596 39.512 194.38 39.872C194.164 40.232 193.844 40.524 193.42 40.748C192.996 40.972 192.496 41.084 191.92 41.084ZM197.403 35.636C197.619 35.26 197.939 34.948 198.363 34.7C198.795 34.444 199.295 34.316 199.863 34.316C200.447 34.316 200.975 34.456 201.447 34.736C201.927 35.016 202.303 35.412 202.575 35.924C202.847 36.428 202.983 37.016 202.983 37.688C202.983 38.352 202.847 38.944 202.575 39.464C202.303 39.984 201.927 40.388 201.447 40.676C200.975 40.964 200.447 41.108 199.863 41.108C199.303 41.108 198.807 40.984 198.375 40.736C197.951 40.48 197.627 40.164 197.403 39.788V44.12H196.311V34.424H197.403V35.636ZM201.867 37.688C201.867 37.192 201.767 36.76 201.567 36.392C201.367 36.024 201.095 35.744 200.751 35.552C200.415 35.36 200.043 35.264 199.635 35.264C199.235 35.264 198.863 35.364 198.519 35.564C198.183 35.756 197.911 36.04 197.703 36.416C197.503 36.784 197.403 37.212 197.403 37.7C197.403 38.196 197.503 38.632 197.703 39.008C197.911 39.376 198.183 39.66 198.519 39.86C198.863 40.052 199.235 40.148 199.635 40.148C200.043 40.148 200.415 40.052 200.751 39.86C201.095 39.66 201.367 39.376 201.567 39.008C201.767 38.632 201.867 38.192 201.867 37.688ZM204.012 37.688C204.012 37.016 204.148 36.428 204.42 35.924C204.692 35.412 205.064 35.016 205.536 34.736C206.016 34.456 206.548 34.316 207.132 34.316C207.708 34.316 208.208 34.44 208.632 34.688C209.056 34.936 209.372 35.248 209.58 35.624V34.424H210.684V41H209.58V39.776C209.364 40.16 209.04 40.48 208.608 40.736C208.184 40.984 207.688 41.108 207.12 41.108C206.536 41.108 206.008 40.964 205.536 40.676C205.064 40.388 204.692 39.984 204.42 39.464C204.148 38.944 204.012 38.352 204.012 37.688ZM209.58 37.7C209.58 37.204 209.48 36.772 209.28 36.404C209.08 36.036 208.808 35.756 208.464 35.564C208.128 35.364 207.756 35.264 207.348 35.264C206.94 35.264 206.568 35.36 206.232 35.552C205.896 35.744 205.628 36.024 205.428 36.392C205.228 36.76 205.128 37.192 205.128 37.688C205.128 38.192 205.228 38.632 205.428 39.008C205.628 39.376 205.896 39.66 206.232 39.86C206.568 40.052 206.94 40.148 207.348 40.148C207.756 40.148 208.128 40.052 208.464 39.86C208.808 39.66 209.08 39.376 209.28 39.008C209.48 38.632 209.58 38.196 209.58 37.7ZM212.121 37.7C212.121 37.02 212.257 36.428 212.529 35.924C212.801 35.412 213.177 35.016 213.657 34.736C214.145 34.456 214.701 34.316 215.325 34.316C216.133 34.316 216.797 34.512 217.317 34.904C217.845 35.296 218.193 35.84 218.361 36.536H217.185C217.073 36.136 216.853 35.82 216.525 35.588C216.205 35.356 215.805 35.24 215.325 35.24C214.701 35.24 214.197 35.456 213.813 35.888C213.429 36.312 213.237 36.916 213.237 37.7C213.237 38.492 213.429 39.104 213.813 39.536C214.197 39.968 214.701 40.184 215.325 40.184C215.805 40.184 216.205 40.072 216.525 39.848C216.845 39.624 217.065 39.304 217.185 38.888H218.361C218.185 39.56 217.833 40.1 217.305 40.508C216.777 40.908 216.117 41.108 215.325 41.108C214.701 41.108 214.145 40.968 213.657 40.688C213.177 40.408 212.801 40.012 212.529 39.5C212.257 38.988 212.121 38.388 212.121 37.7ZM220.383 33.356C220.175 33.356 219.999 33.284 219.855 33.14C219.711 32.996 219.639 32.82 219.639 32.612C219.639 32.404 219.711 32.228 219.855 32.084C219.999 31.94 220.175 31.868 220.383 31.868C220.583 31.868 220.751 31.94 220.887 32.084C221.031 32.228 221.103 32.404 221.103 32.612C221.103 32.82 221.031 32.996 220.887 33.14C220.751 33.284 220.583 33.356 220.383 33.356ZM220.911 34.424V41H219.819V34.424H220.911ZM225.976 34.304C226.776 34.304 227.424 34.548 227.92 35.036C228.416 35.516 228.664 36.212 228.664 37.124V41H227.584V37.28C227.584 36.624 227.42 36.124 227.092 35.78C226.764 35.428 226.316 35.252 225.748 35.252C225.172 35.252 224.712 35.432 224.368 35.792C224.032 36.152 223.864 36.676 223.864 37.364V41H222.772V34.424H223.864V35.36C224.08 35.024 224.372 34.764 224.74 34.58C225.116 34.396 225.528 34.304 225.976 34.304ZM233.159 34.316C233.727 34.316 234.223 34.44 234.647 34.688C235.079 34.936 235.399 35.248 235.607 35.624V34.424H236.711V41.144C236.711 41.744 236.583 42.276 236.327 42.74C236.071 43.212 235.703 43.58 235.223 43.844C234.751 44.108 234.199 44.24 233.567 44.24C232.703 44.24 231.983 44.036 231.407 43.628C230.831 43.22 230.491 42.664 230.387 41.96H231.467C231.587 42.36 231.835 42.68 232.211 42.92C232.587 43.168 233.039 43.292 233.567 43.292C234.167 43.292 234.655 43.104 235.031 42.728C235.415 42.352 235.607 41.824 235.607 41.144V39.764C235.391 40.148 235.071 40.468 234.647 40.724C234.223 40.98 233.727 41.108 233.159 41.108C232.575 41.108 232.043 40.964 231.563 40.676C231.091 40.388 230.719 39.984 230.447 39.464C230.175 38.944 230.039 38.352 230.039 37.688C230.039 37.016 230.175 36.428 230.447 35.924C230.719 35.412 231.091 35.016 231.563 34.736C232.043 34.456 232.575 34.316 233.159 34.316ZM235.607 37.7C235.607 37.204 235.507 36.772 235.307 36.404C235.107 36.036 234.835 35.756 234.491 35.564C234.155 35.364 233.783 35.264 233.375 35.264C232.967 35.264 232.595 35.36 232.259 35.552C231.923 35.744 231.655 36.024 231.455 36.392C231.255 36.76 231.155 37.192 231.155 37.688C231.155 38.192 231.255 38.632 231.455 39.008C231.655 39.376 231.923 39.66 232.259 39.86C232.595 40.052 232.967 40.148 233.375 40.148C233.783 40.148 234.155 40.052 234.491 39.86C234.835 39.66 235.107 39.376 235.307 39.008C235.507 38.632 235.607 38.196 235.607 37.7ZM238.905 41.072C238.697 41.072 238.521 41 238.377 40.856C238.233 40.712 238.161 40.536 238.161 40.328C238.161 40.12 238.233 39.944 238.377 39.8C238.521 39.656 238.697 39.584 238.905 39.584C239.105 39.584 239.273 39.656 239.409 39.8C239.553 39.944 239.625 40.12 239.625 40.328C239.625 40.536 239.553 40.712 239.409 40.856C239.273 41 239.105 41.072 238.905 41.072ZM238.905 35.936C238.697 35.936 238.521 35.864 238.377 35.72C238.233 35.576 238.161 35.4 238.161 35.192C238.161 34.984 238.233 34.808 238.377 34.664C238.521 34.52 238.697 34.448 238.905 34.448C239.105 34.448 239.273 34.52 239.409 34.664C239.553 34.808 239.625 34.984 239.625 35.192C239.625 35.4 239.553 35.576 239.409 35.72C239.273 35.864 239.105 35.936 238.905 35.936ZM243.999 40.124C245.015 39.308 245.811 38.64 246.387 38.12C246.963 37.592 247.447 37.044 247.839 36.476C248.239 35.9 248.439 35.336 248.439 34.784C248.439 34.264 248.311 33.856 248.055 33.56C247.807 33.256 247.403 33.104 246.843 33.104C246.299 33.104 245.875 33.276 245.571 33.62C245.275 33.956 245.115 34.408 245.091 34.976H244.035C244.067 34.08 244.339 33.388 244.851 32.9C245.363 32.412 246.023 32.168 246.831 32.168C247.655 32.168 248.307 32.396 248.787 32.852C249.275 33.308 249.519 33.936 249.519 34.736C249.519 35.4 249.319 36.048 248.919 36.68C248.527 37.304 248.079 37.856 247.575 38.336C247.071 38.808 246.427 39.36 245.643 39.992H249.771V40.904H243.999V40.124ZM255.869 34.388C255.693 33.5 255.145 33.056 254.225 33.056C253.513 33.056 252.981 33.332 252.629 33.884C252.277 34.428 252.105 35.328 252.113 36.584C252.297 36.168 252.601 35.844 253.025 35.612C253.457 35.372 253.937 35.252 254.465 35.252C255.289 35.252 255.945 35.508 256.433 36.02C256.929 36.532 257.177 37.24 257.177 38.144C257.177 38.688 257.069 39.176 256.853 39.608C256.645 40.04 256.325 40.384 255.893 40.64C255.469 40.896 254.953 41.024 254.345 41.024C253.521 41.024 252.877 40.84 252.413 40.472C251.949 40.104 251.625 39.596 251.441 38.948C251.257 38.3 251.165 37.5 251.165 36.548C251.165 33.612 252.189 32.144 254.237 32.144C255.021 32.144 255.637 32.356 256.085 32.78C256.533 33.204 256.797 33.74 256.877 34.388H255.869ZM254.237 36.176C253.893 36.176 253.569 36.248 253.265 36.392C252.961 36.528 252.713 36.74 252.521 37.028C252.337 37.308 252.245 37.652 252.245 38.06C252.245 38.668 252.421 39.164 252.773 39.548C253.125 39.924 253.629 40.112 254.285 40.112C254.845 40.112 255.289 39.94 255.617 39.596C255.953 39.244 256.121 38.772 256.121 38.18C256.121 37.556 255.961 37.068 255.641 36.716C255.321 36.356 254.853 36.176 254.237 36.176Z" fill="#616161"/>
</svg>
