<svg width="427" height="60" viewBox="0 0 427 60" fill="none" xmlns="http://www.w3.org/2000/svg">
<path d="M21.44 8.536V31H15.968V21.752H7.456V31H1.984V8.536H7.456V17.336H15.968V8.536H21.44ZM42.2222 21.784C42.2222 22.296 42.1903 22.8293 42.1263 23.384H29.7423C29.8276 24.4933 30.1796 25.3467 30.7983 25.944C31.4383 26.52 32.2169 26.808 33.1343 26.808C34.4996 26.808 35.4489 26.232 35.9823 25.08H41.8063C41.5076 26.2533 40.9636 27.3093 40.1743 28.248C39.4063 29.1867 38.4356 29.9227 37.2623 30.456C36.0889 30.9893 34.7769 31.256 33.3263 31.256C31.5769 31.256 30.0196 30.8827 28.6543 30.136C27.2889 29.3893 26.2223 28.3227 25.4543 26.936C24.6863 25.5493 24.3023 23.928 24.3023 22.072C24.3023 20.216 24.6756 18.5947 25.4223 17.208C26.1903 15.8213 27.2569 14.7547 28.6223 14.008C29.9876 13.2613 31.5556 12.888 33.3263 12.888C35.0543 12.888 36.5903 13.2507 37.9343 13.976C39.2783 14.7013 40.3236 15.736 41.0703 17.08C41.8383 18.424 42.2222 19.992 42.2222 21.784ZM36.6223 20.344C36.6223 19.4053 36.3023 18.6587 35.6623 18.104C35.0223 17.5493 34.2223 17.272 33.2623 17.272C32.3449 17.272 31.5663 17.5387 30.9263 18.072C30.3076 18.6053 29.9236 19.3627 29.7743 20.344H36.6223ZM44.021 22.04C44.021 20.2053 44.3623 18.5947 45.045 17.208C45.749 15.8213 46.6983 14.7547 47.893 14.008C49.0877 13.2613 50.421 12.888 51.893 12.888C53.1517 12.888 54.2503 13.144 55.189 13.656C56.149 14.168 56.885 14.84 57.397 15.672V13.144H62.869V31H57.397V28.472C56.8637 29.304 56.117 29.976 55.157 30.488C54.2183 31 53.1197 31.256 51.861 31.256C50.4103 31.256 49.0877 30.8827 47.893 30.136C46.6983 29.368 45.749 28.2907 45.045 26.904C44.3623 25.496 44.021 23.8747 44.021 22.04ZM57.397 22.072C57.397 20.7067 57.013 19.6293 56.245 18.84C55.4983 18.0507 54.581 17.656 53.493 17.656C52.405 17.656 51.477 18.0507 50.709 18.84C49.9623 19.608 49.589 20.6747 49.589 22.04C49.589 23.4053 49.9623 24.4933 50.709 25.304C51.477 26.0933 52.405 26.488 53.493 26.488C54.581 26.488 55.4983 26.0933 56.245 25.304C57.013 24.5147 57.397 23.4373 57.397 22.072ZM65.7398 22.04C65.7398 20.2053 66.0811 18.5947 66.7638 17.208C67.4678 15.8213 68.4171 14.7547 69.6118 14.008C70.8064 13.2613 72.1398 12.888 73.6118 12.888C74.7851 12.888 75.8518 13.1333 76.8118 13.624C77.7931 14.1147 78.5611 14.776 79.1158 15.608V7.32H84.5878V31H79.1158V28.44C78.6038 29.2933 77.8678 29.976 76.9078 30.488C75.9691 31 74.8704 31.256 73.6118 31.256C72.1398 31.256 70.8064 30.8827 69.6118 30.136C68.4171 29.368 67.4678 28.2907 66.7638 26.904C66.0811 25.496 65.7398 23.8747 65.7398 22.04ZM79.1158 22.072C79.1158 20.7067 78.7318 19.6293 77.9638 18.84C77.2171 18.0507 76.2998 17.656 75.2118 17.656C74.1238 17.656 73.1958 18.0507 72.4278 18.84C71.6811 19.608 71.3078 20.6747 71.3078 22.04C71.3078 23.4053 71.6811 24.4933 72.4278 25.304C73.1958 26.0933 74.1238 26.488 75.2118 26.488C76.2998 26.488 77.2171 26.0933 77.9638 25.304C78.7318 24.5147 79.1158 23.4373 79.1158 22.072ZM91.2985 11.288C90.3385 11.288 89.5492 11.0107 88.9305 10.456C88.3332 9.88 88.0345 9.176 88.0345 8.344C88.0345 7.49067 88.3332 6.78667 88.9305 6.232C89.5492 5.656 90.3385 5.368 91.2985 5.368C92.2372 5.368 93.0052 5.656 93.6025 6.232C94.2212 6.78667 94.5305 7.49067 94.5305 8.344C94.5305 9.176 94.2212 9.88 93.6025 10.456C93.0052 11.0107 92.2372 11.288 91.2985 11.288ZM94.0185 13.144V31H88.5465V13.144H94.0185ZM108.864 12.952C110.955 12.952 112.619 13.6347 113.856 15C115.115 16.344 115.744 18.2 115.744 20.568V31H110.304V21.304C110.304 20.1093 109.995 19.1813 109.376 18.52C108.757 17.8587 107.925 17.528 106.88 17.528C105.835 17.528 105.003 17.8587 104.384 18.52C103.765 19.1813 103.456 20.1093 103.456 21.304V31H97.984V13.144H103.456V15.512C104.011 14.7227 104.757 14.104 105.696 13.656C106.635 13.1867 107.691 12.952 108.864 12.952ZM126.331 12.888C127.589 12.888 128.688 13.144 129.627 13.656C130.587 14.168 131.323 14.84 131.835 15.672V13.144H137.307V30.968C137.307 32.6107 136.976 34.0933 136.315 35.416C135.675 36.76 134.683 37.8267 133.339 38.616C132.016 39.4053 130.363 39.8 128.379 39.8C125.733 39.8 123.589 39.1707 121.947 37.912C120.304 36.6747 119.365 34.9893 119.131 32.856H124.539C124.709 33.5387 125.115 34.072 125.755 34.456C126.395 34.8613 127.184 35.064 128.123 35.064C129.253 35.064 130.149 34.7333 130.811 34.072C131.493 33.432 131.835 32.3973 131.835 30.968V28.44C131.301 29.272 130.565 29.9547 129.627 30.488C128.688 31 127.589 31.256 126.331 31.256C124.859 31.256 123.525 30.8827 122.331 30.136C121.136 29.368 120.187 28.2907 119.483 26.904C118.8 25.496 118.459 23.8747 118.459 22.04C118.459 20.2053 118.8 18.5947 119.483 17.208C120.187 15.8213 121.136 14.7547 122.331 14.008C123.525 13.2613 124.859 12.888 126.331 12.888ZM131.835 22.072C131.835 20.7067 131.451 19.6293 130.683 18.84C129.936 18.0507 129.019 17.656 127.931 17.656C126.843 17.656 125.915 18.0507 125.147 18.84C124.4 19.608 124.027 20.6747 124.027 22.04C124.027 23.4053 124.4 24.4933 125.147 25.304C125.915 26.0933 126.843 26.488 127.931 26.488C129.019 26.488 129.936 26.0933 130.683 25.304C131.451 24.5147 131.835 23.4373 131.835 22.072ZM146.927 12.728V7.64H155.791V31H150.095V12.728H146.927ZM180.619 17.496V22.04H166.539V17.496H180.619ZM206.827 8.536V12.92H197.675V17.656H204.523V21.912H197.675V31H192.203V8.536H206.827ZM217.831 31.256C216.081 31.256 214.503 30.8827 213.095 30.136C211.708 29.3893 210.609 28.3227 209.799 26.936C209.009 25.5493 208.615 23.928 208.615 22.072C208.615 20.2373 209.02 18.6267 209.831 17.24C210.641 15.832 211.751 14.7547 213.159 14.008C214.567 13.2613 216.145 12.888 217.895 12.888C219.644 12.888 221.223 13.2613 222.631 14.008C224.039 14.7547 225.148 15.832 225.959 17.24C226.769 18.6267 227.175 20.2373 227.175 22.072C227.175 23.9067 226.759 25.528 225.927 26.936C225.116 28.3227 223.996 29.3893 222.567 30.136C221.159 30.8827 219.58 31.256 217.831 31.256ZM217.831 26.52C218.876 26.52 219.761 26.136 220.487 25.368C221.233 24.6 221.607 23.5013 221.607 22.072C221.607 20.6427 221.244 19.544 220.519 18.776C219.815 18.008 218.94 17.624 217.895 17.624C216.828 17.624 215.943 18.008 215.239 18.776C214.535 19.5227 214.183 20.6213 214.183 22.072C214.183 23.5013 214.524 24.6 215.207 25.368C215.911 26.136 216.785 26.52 217.831 26.52ZM235.55 16.12C236.19 15.1387 236.99 14.3707 237.95 13.816C238.91 13.24 239.976 12.952 241.15 12.952V18.744H239.646C238.28 18.744 237.256 19.0427 236.574 19.64C235.891 20.216 235.55 21.24 235.55 22.712V31H230.078V13.144H235.55V16.12ZM267.667 15.768C267.667 17.0693 267.368 18.264 266.771 19.352C266.173 20.4187 265.256 21.2827 264.019 21.944C262.781 22.6053 261.245 22.936 259.411 22.936H256.019V31H250.547V8.536H259.411C261.203 8.536 262.717 8.84533 263.955 9.464C265.192 10.0827 266.12 10.936 266.739 12.024C267.357 13.112 267.667 14.36 267.667 15.768ZM258.995 18.584C260.04 18.584 260.819 18.3387 261.331 17.848C261.843 17.3573 262.099 16.664 262.099 15.768C262.099 14.872 261.843 14.1787 261.331 13.688C260.819 13.1973 260.04 12.952 258.995 12.952H256.019V18.584H258.995ZM269.427 22.04C269.427 20.2053 269.769 18.5947 270.451 17.208C271.155 15.8213 272.105 14.7547 273.299 14.008C274.494 13.2613 275.827 12.888 277.299 12.888C278.558 12.888 279.657 13.144 280.595 13.656C281.555 14.168 282.291 14.84 282.803 15.672V13.144H288.275V31H282.803V28.472C282.27 29.304 281.523 29.976 280.563 30.488C279.625 31 278.526 31.256 277.267 31.256C275.817 31.256 274.494 30.8827 273.299 30.136C272.105 29.368 271.155 28.2907 270.451 26.904C269.769 25.496 269.427 23.8747 269.427 22.04ZM282.803 22.072C282.803 20.7067 282.419 19.6293 281.651 18.84C280.905 18.0507 279.987 17.656 278.899 17.656C277.811 17.656 276.883 18.0507 276.115 18.84C275.369 19.608 274.995 20.6747 274.995 22.04C274.995 23.4053 275.369 24.4933 276.115 25.304C276.883 26.0933 277.811 26.488 278.899 26.488C279.987 26.488 280.905 26.0933 281.651 25.304C282.419 24.5147 282.803 23.4373 282.803 22.072ZM299.018 12.888C300.277 12.888 301.375 13.144 302.314 13.656C303.274 14.168 304.01 14.84 304.522 15.672V13.144H309.994V30.968C309.994 32.6107 309.663 34.0933 309.002 35.416C308.362 36.76 307.37 37.8267 306.026 38.616C304.703 39.4053 303.05 39.8 301.066 39.8C298.421 39.8 296.277 39.1707 294.634 37.912C292.991 36.6747 292.053 34.9893 291.818 32.856H297.226C297.397 33.5387 297.802 34.072 298.442 34.456C299.082 34.8613 299.871 35.064 300.81 35.064C301.941 35.064 302.837 34.7333 303.498 34.072C304.181 33.432 304.522 32.3973 304.522 30.968V28.44C303.989 29.272 303.253 29.9547 302.314 30.488C301.375 31 300.277 31.256 299.018 31.256C297.546 31.256 296.213 30.8827 295.018 30.136C293.823 29.368 292.874 28.2907 292.17 26.904C291.487 25.496 291.146 23.8747 291.146 22.04C291.146 20.2053 291.487 18.5947 292.17 17.208C292.874 15.8213 293.823 14.7547 295.018 14.008C296.213 13.2613 297.546 12.888 299.018 12.888ZM304.522 22.072C304.522 20.7067 304.138 19.6293 303.37 18.84C302.623 18.0507 301.706 17.656 300.618 17.656C299.53 17.656 298.602 18.0507 297.834 18.84C297.087 19.608 296.714 20.6747 296.714 22.04C296.714 23.4053 297.087 24.4933 297.834 25.304C298.602 26.0933 299.53 26.488 300.618 26.488C301.706 26.488 302.623 26.0933 303.37 25.304C304.138 24.5147 304.522 23.4373 304.522 22.072ZM330.785 21.784C330.785 22.296 330.753 22.8293 330.689 23.384H318.305C318.39 24.4933 318.742 25.3467 319.361 25.944C320.001 26.52 320.779 26.808 321.697 26.808C323.062 26.808 324.011 26.232 324.545 25.08H330.369C330.07 26.2533 329.526 27.3093 328.737 28.248C327.969 29.1867 326.998 29.9227 325.825 30.456C324.651 30.9893 323.339 31.256 321.889 31.256C320.139 31.256 318.582 30.8827 317.217 30.136C315.851 29.3893 314.785 28.3227 314.017 26.936C313.249 25.5493 312.865 23.928 312.865 22.072C312.865 20.216 313.238 18.5947 313.985 17.208C314.753 15.8213 315.819 14.7547 317.185 14.008C318.55 13.2613 320.118 12.888 321.889 12.888C323.617 12.888 325.153 13.2507 326.497 13.976C327.841 14.7013 328.886 15.736 329.633 17.08C330.401 18.424 330.785 19.992 330.785 21.784ZM325.185 20.344C325.185 19.4053 324.865 18.6587 324.225 18.104C323.585 17.5493 322.785 17.272 321.825 17.272C320.907 17.272 320.129 17.5387 319.489 18.072C318.87 18.6053 318.486 19.3627 318.337 20.344H325.185ZM356.613 8.536V12.92H350.661V31H345.189V12.92H339.237V8.536H356.613ZM362.111 11.288C361.151 11.288 360.362 11.0107 359.743 10.456C359.146 9.88 358.847 9.176 358.847 8.344C358.847 7.49067 359.146 6.78667 359.743 6.232C360.362 5.656 361.151 5.368 362.111 5.368C363.05 5.368 363.818 5.656 364.415 6.232C365.034 6.78667 365.343 7.49067 365.343 8.344C365.343 9.176 365.034 9.88 364.415 10.456C363.818 11.0107 363.05 11.288 362.111 11.288ZM364.831 13.144V31H359.359V13.144H364.831ZM378.749 26.36V31H375.965C373.981 31 372.434 30.52 371.325 29.56C370.215 28.5787 369.661 26.9893 369.661 24.792V17.688H367.485V13.144H369.661V8.792H375.133V13.144H378.717V17.688H375.133V24.856C375.133 25.3893 375.261 25.7733 375.517 26.008C375.773 26.2427 376.199 26.36 376.797 26.36H378.749ZM387.269 7.32V31H381.797V7.32H387.269ZM408.066 21.784C408.066 22.296 408.034 22.8293 407.97 23.384H395.586C395.671 24.4933 396.023 25.3467 396.642 25.944C397.282 26.52 398.061 26.808 398.978 26.808C400.343 26.808 401.293 26.232 401.826 25.08H407.65C407.351 26.2533 406.807 27.3093 406.018 28.248C405.25 29.1867 404.279 29.9227 403.106 30.456C401.933 30.9893 400.621 31.256 399.17 31.256C397.421 31.256 395.863 30.8827 394.498 30.136C393.133 29.3893 392.066 28.3227 391.298 26.936C390.53 25.5493 390.146 23.928 390.146 22.072C390.146 20.216 390.519 18.5947 391.266 17.208C392.034 15.8213 393.101 14.7547 394.466 14.008C395.831 13.2613 397.399 12.888 399.17 12.888C400.898 12.888 402.434 13.2507 403.778 13.976C405.122 14.7013 406.167 15.736 406.914 17.08C407.682 18.424 408.066 19.992 408.066 21.784ZM402.466 20.344C402.466 19.4053 402.146 18.6587 401.506 18.104C400.866 17.5493 400.066 17.272 399.106 17.272C398.189 17.272 397.41 17.5387 396.77 18.072C396.151 18.6053 395.767 19.3627 395.618 20.344H402.466ZM418.217 31.256C416.659 31.256 415.273 30.9893 414.057 30.456C412.841 29.9227 411.881 29.1973 411.177 28.28C410.473 27.3413 410.078 26.296 409.993 25.144H415.401C415.465 25.7627 415.753 26.264 416.265 26.648C416.777 27.032 417.406 27.224 418.153 27.224C418.835 27.224 419.358 27.096 419.721 26.84C420.105 26.5627 420.297 26.2107 420.297 25.784C420.297 25.272 420.03 24.8987 419.497 24.664C418.963 24.408 418.099 24.1307 416.905 23.832C415.625 23.5333 414.558 23.224 413.705 22.904C412.851 22.5627 412.115 22.04 411.497 21.336C410.878 20.6107 410.569 19.64 410.569 18.424C410.569 17.4 410.846 16.472 411.401 15.64C411.977 14.7867 412.809 14.1147 413.897 13.624C415.006 13.1333 416.318 12.888 417.833 12.888C420.073 12.888 421.833 13.4427 423.113 14.552C424.414 15.6613 425.161 17.1333 425.353 18.968H420.297C420.211 18.3493 419.934 17.8587 419.465 17.496C419.017 17.1333 418.419 16.952 417.673 16.952C417.033 16.952 416.542 17.08 416.201 17.336C415.859 17.5707 415.689 17.9013 415.689 18.328C415.689 18.84 415.955 19.224 416.489 19.48C417.043 19.736 417.897 19.992 419.049 20.248C420.371 20.5893 421.449 20.9307 422.281 21.272C423.113 21.592 423.838 22.1253 424.457 22.872C425.097 23.5973 425.427 24.5787 425.449 25.816C425.449 26.8613 425.15 27.8 424.553 28.632C423.977 29.4427 423.134 30.0827 422.025 30.552C420.937 31.0213 419.667 31.256 418.217 31.256Z" fill="#3A3A3A"/>
<path d="M5.652 46.636V47.524H2.016V50.344H4.968V51.232H2.016V55H0.924V46.636H5.652ZM9.83888 55.108C9.22288 55.108 8.66288 54.968 8.15888 54.688C7.66288 54.408 7.27088 54.012 6.98288 53.5C6.70288 52.98 6.56288 52.38 6.56288 51.7C6.56288 51.028 6.70688 50.436 6.99488 49.924C7.29088 49.404 7.69088 49.008 8.19488 48.736C8.69888 48.456 9.26288 48.316 9.88688 48.316C10.5109 48.316 11.0749 48.456 11.5789 48.736C12.0829 49.008 12.4789 49.4 12.7669 49.912C13.0629 50.424 13.2109 51.02 13.2109 51.7C13.2109 52.38 13.0589 52.98 12.7549 53.5C12.4589 54.012 12.0549 54.408 11.5429 54.688C11.0309 54.968 10.4629 55.108 9.83888 55.108ZM9.83888 54.148C10.2309 54.148 10.5989 54.056 10.9429 53.872C11.2869 53.688 11.5629 53.412 11.7709 53.044C11.9869 52.676 12.0949 52.228 12.0949 51.7C12.0949 51.172 11.9909 50.724 11.7829 50.356C11.5749 49.988 11.3029 49.716 10.9669 49.54C10.6309 49.356 10.2669 49.264 9.87488 49.264C9.47488 49.264 9.10688 49.356 8.77088 49.54C8.44288 49.716 8.17888 49.988 7.97888 50.356C7.77888 50.724 7.67888 51.172 7.67888 51.7C7.67888 52.236 7.77488 52.688 7.96688 53.056C8.16688 53.424 8.43088 53.7 8.75888 53.884C9.08688 54.06 9.44688 54.148 9.83888 54.148ZM17.8507 48.304C18.6507 48.304 19.2987 48.548 19.7947 49.036C20.2907 49.516 20.5387 50.212 20.5387 51.124V55H19.4587V51.28C19.4587 50.624 19.2947 50.124 18.9667 49.78C18.6387 49.428 18.1907 49.252 17.6227 49.252C17.0467 49.252 16.5867 49.432 16.2427 49.792C15.9067 50.152 15.7387 50.676 15.7387 51.364V55H14.6467V48.424H15.7387V49.36C15.9547 49.024 16.2467 48.764 16.6147 48.58C16.9907 48.396 17.4027 48.304 17.8507 48.304ZM23.6544 49.324V53.2C23.6544 53.52 23.7224 53.748 23.8584 53.884C23.9944 54.012 24.2304 54.076 24.5664 54.076H25.3704V55H24.3864C23.7784 55 23.3224 54.86 23.0184 54.58C22.7144 54.3 22.5624 53.84 22.5624 53.2V49.324H21.7104V48.424H22.5624V46.768H23.6544V48.424H25.3704V49.324H23.6544ZM32.2208 55.108C31.7168 55.108 31.2648 55.024 30.8648 54.856C30.4648 54.68 30.1488 54.44 29.9168 54.136C29.6848 53.824 29.5568 53.468 29.5328 53.068H30.6608C30.6928 53.396 30.8448 53.664 31.1168 53.872C31.3968 54.08 31.7608 54.184 32.2088 54.184C32.6248 54.184 32.9528 54.092 33.1928 53.908C33.4328 53.724 33.5528 53.492 33.5528 53.212C33.5528 52.924 33.4248 52.712 33.1688 52.576C32.9128 52.432 32.5168 52.292 31.9808 52.156C31.4928 52.028 31.0928 51.9 30.7808 51.772C30.4768 51.636 30.2128 51.44 29.9888 51.184C29.7728 50.92 29.6648 50.576 29.6648 50.152C29.6648 49.816 29.7648 49.508 29.9648 49.228C30.1648 48.948 30.4488 48.728 30.8168 48.568C31.1848 48.4 31.6048 48.316 32.0768 48.316C32.8048 48.316 33.3928 48.5 33.8408 48.868C34.2888 49.236 34.5288 49.74 34.5608 50.38H33.4688C33.4448 50.036 33.3048 49.76 33.0488 49.552C32.8008 49.344 32.4648 49.24 32.0408 49.24C31.6488 49.24 31.3368 49.324 31.1048 49.492C30.8728 49.66 30.7568 49.88 30.7568 50.152C30.7568 50.368 30.8248 50.548 30.9608 50.692C31.1048 50.828 31.2808 50.94 31.4888 51.028C31.7048 51.108 32.0008 51.2 32.3768 51.304C32.8488 51.432 33.2328 51.56 33.5288 51.688C33.8248 51.808 34.0768 51.992 34.2848 52.24C34.5008 52.488 34.6128 52.812 34.6208 53.212C34.6208 53.572 34.5208 53.896 34.3208 54.184C34.1208 54.472 33.8368 54.7 33.4688 54.868C33.1088 55.028 32.6928 55.108 32.2208 55.108ZM36.7263 47.356C36.5183 47.356 36.3423 47.284 36.1983 47.14C36.0543 46.996 35.9823 46.82 35.9823 46.612C35.9823 46.404 36.0543 46.228 36.1983 46.084C36.3423 45.94 36.5183 45.868 36.7263 45.868C36.9263 45.868 37.0943 45.94 37.2303 46.084C37.3743 46.228 37.4463 46.404 37.4463 46.612C37.4463 46.82 37.3743 46.996 37.2303 47.14C37.0943 47.284 36.9263 47.356 36.7263 47.356ZM37.2543 48.424V55H36.1623V48.424H37.2543ZM39.9314 54.1H43.1594V55H38.6834V54.1L41.8754 49.312H38.7074V48.424H43.1354V49.312L39.9314 54.1ZM50.5763 51.46C50.5763 51.668 50.5643 51.888 50.5403 52.12H45.2843C45.3243 52.768 45.5443 53.276 45.9443 53.644C46.3523 54.004 46.8443 54.184 47.4203 54.184C47.8923 54.184 48.2843 54.076 48.5963 53.86C48.9163 53.636 49.1403 53.34 49.2683 52.972H50.4443C50.2683 53.604 49.9163 54.12 49.3883 54.52C48.8603 54.912 48.2043 55.108 47.4203 55.108C46.7963 55.108 46.2363 54.968 45.7403 54.688C45.2523 54.408 44.8683 54.012 44.5883 53.5C44.3083 52.98 44.1683 52.38 44.1683 51.7C44.1683 51.02 44.3043 50.424 44.5763 49.912C44.8483 49.4 45.2283 49.008 45.7163 48.736C46.2123 48.456 46.7803 48.316 47.4203 48.316C48.0443 48.316 48.5963 48.452 49.0763 48.724C49.5563 48.996 49.9243 49.372 50.1803 49.852C50.4443 50.324 50.5763 50.86 50.5763 51.46ZM49.4483 51.232C49.4483 50.816 49.3563 50.46 49.1723 50.164C48.9883 49.86 48.7363 49.632 48.4163 49.48C48.1043 49.32 47.7563 49.24 47.3723 49.24C46.8203 49.24 46.3483 49.416 45.9563 49.768C45.5723 50.12 45.3523 50.608 45.2963 51.232H49.4483ZM55.565 55.072C55.357 55.072 55.181 55 55.037 54.856C54.893 54.712 54.821 54.536 54.821 54.328C54.821 54.12 54.893 53.944 55.037 53.8C55.181 53.656 55.357 53.584 55.565 53.584C55.765 53.584 55.933 53.656 56.069 53.8C56.213 53.944 56.285 54.12 56.285 54.328C56.285 54.536 56.213 54.712 56.069 54.856C55.933 55 55.765 55.072 55.565 55.072ZM55.565 49.936C55.357 49.936 55.181 49.864 55.037 49.72C54.893 49.576 54.821 49.4 54.821 49.192C54.821 48.984 54.893 48.808 55.037 48.664C55.181 48.52 55.357 48.448 55.565 48.448C55.765 48.448 55.933 48.52 56.069 48.664C56.213 48.808 56.285 48.984 56.285 49.192C56.285 49.4 56.213 49.576 56.069 49.72C55.933 49.864 55.765 49.936 55.565 49.936ZM60.7669 48.508C60.8229 47.772 61.1069 47.196 61.6189 46.78C62.1309 46.364 62.7949 46.156 63.6109 46.156C64.1549 46.156 64.6229 46.256 65.0149 46.456C65.4149 46.648 65.7149 46.912 65.9149 47.248C66.1229 47.584 66.2269 47.964 66.2269 48.388C66.2269 48.884 66.0829 49.312 65.7949 49.672C65.5149 50.032 65.1469 50.264 64.6909 50.368V50.428C65.2109 50.556 65.6229 50.808 65.9269 51.184C66.2309 51.56 66.3829 52.052 66.3829 52.66C66.3829 53.116 66.2789 53.528 66.0709 53.896C65.8629 54.256 65.5509 54.54 65.1349 54.748C64.7189 54.956 64.2189 55.06 63.6349 55.06C62.7869 55.06 62.0909 54.84 61.5469 54.4C61.0029 53.952 60.6989 53.32 60.6349 52.504H61.6909C61.7469 52.984 61.9429 53.376 62.2789 53.68C62.6149 53.984 63.0629 54.136 63.6229 54.136C64.1829 54.136 64.6069 53.992 64.8949 53.704C65.1909 53.408 65.3389 53.028 65.3389 52.564C65.3389 51.964 65.1389 51.532 64.7389 51.268C64.3389 51.004 63.7349 50.872 62.9269 50.872H62.6509V49.96H62.9389C63.6749 49.952 64.2309 49.832 64.6069 49.6C64.9829 49.36 65.1709 48.992 65.1709 48.496C65.1709 48.072 65.0309 47.732 64.7509 47.476C64.4789 47.22 64.0869 47.092 63.5749 47.092C63.0789 47.092 62.6789 47.22 62.3749 47.476C62.0709 47.732 61.8909 48.076 61.8349 48.508H60.7669ZM67.7253 54.124C68.7413 53.308 69.5373 52.64 70.1133 52.12C70.6893 51.592 71.1733 51.044 71.5653 50.476C71.9653 49.9 72.1653 49.336 72.1653 48.784C72.1653 48.264 72.0373 47.856 71.7813 47.56C71.5333 47.256 71.1293 47.104 70.5693 47.104C70.0253 47.104 69.6013 47.276 69.2973 47.62C69.0013 47.956 68.8413 48.408 68.8173 48.976H67.7613C67.7933 48.08 68.0653 47.388 68.5773 46.9C69.0893 46.412 69.7493 46.168 70.5573 46.168C71.3813 46.168 72.0333 46.396 72.5133 46.852C73.0013 47.308 73.2453 47.936 73.2453 48.736C73.2453 49.4 73.0453 50.048 72.6453 50.68C72.2533 51.304 71.8053 51.856 71.3013 52.336C70.7973 52.808 70.1533 53.36 69.3693 53.992H73.4973V54.904H67.7253V54.124ZM76.0316 49.636C76.2476 49.26 76.5676 48.948 76.9916 48.7C77.4236 48.444 77.9236 48.316 78.4916 48.316C79.0756 48.316 79.6036 48.456 80.0756 48.736C80.5556 49.016 80.9316 49.412 81.2036 49.924C81.4756 50.428 81.6116 51.016 81.6116 51.688C81.6116 52.352 81.4756 52.944 81.2036 53.464C80.9316 53.984 80.5556 54.388 80.0756 54.676C79.6036 54.964 79.0756 55.108 78.4916 55.108C77.9316 55.108 77.4356 54.984 77.0036 54.736C76.5796 54.48 76.2556 54.164 76.0316 53.788V58.12H74.9396V48.424H76.0316V49.636ZM80.4956 51.688C80.4956 51.192 80.3956 50.76 80.1956 50.392C79.9956 50.024 79.7236 49.744 79.3796 49.552C79.0436 49.36 78.6716 49.264 78.2636 49.264C77.8636 49.264 77.4916 49.364 77.1476 49.564C76.8116 49.756 76.5396 50.04 76.3316 50.416C76.1316 50.784 76.0316 51.212 76.0316 51.7C76.0316 52.196 76.1316 52.632 76.3316 53.008C76.5396 53.376 76.8116 53.66 77.1476 53.86C77.4916 54.052 77.8636 54.148 78.2636 54.148C78.6716 54.148 79.0436 54.052 79.3796 53.86C79.7236 53.66 79.9956 53.376 80.1956 53.008C80.3956 52.632 80.4956 52.192 80.4956 51.688ZM86.481 55L84.921 52.552L83.421 55H82.281L84.405 51.736L82.281 48.424H83.517L85.077 50.86L86.565 48.424H87.705L85.593 51.676L87.717 55H86.481ZM105.992 55L104 51.58H102.68V55H101.588V46.636H104.288C104.92 46.636 105.452 46.744 105.884 46.96C106.324 47.176 106.652 47.468 106.868 47.836C107.084 48.204 107.192 48.624 107.192 49.096C107.192 49.672 107.024 50.18 106.688 50.62C106.36 51.06 105.864 51.352 105.2 51.496L107.3 55H105.992ZM102.68 50.704H104.288C104.88 50.704 105.324 50.56 105.62 50.272C105.916 49.976 106.064 49.584 106.064 49.096C106.064 48.6 105.916 48.216 105.62 47.944C105.332 47.672 104.888 47.536 104.288 47.536H102.68V50.704ZM109.981 47.524V50.32H113.029V51.22H109.981V54.1H113.389V55H108.889V46.624H113.389V47.524H109.981ZM123.525 46.696V55H122.433V48.808L119.673 55H118.905L116.133 48.796V55H115.041V46.696H116.217L119.289 53.56L122.361 46.696H123.525ZM128.924 55.072C128.716 55.072 128.54 55 128.396 54.856C128.252 54.712 128.18 54.536 128.18 54.328C128.18 54.12 128.252 53.944 128.396 53.8C128.54 53.656 128.716 53.584 128.924 53.584C129.124 53.584 129.292 53.656 129.428 53.8C129.572 53.944 129.644 54.12 129.644 54.328C129.644 54.536 129.572 54.712 129.428 54.856C129.292 55 129.124 55.072 128.924 55.072ZM128.924 49.936C128.716 49.936 128.54 49.864 128.396 49.72C128.252 49.576 128.18 49.4 128.18 49.192C128.18 48.984 128.252 48.808 128.396 48.664C128.54 48.52 128.716 48.448 128.924 48.448C129.124 48.448 129.292 48.52 129.428 48.664C129.572 48.808 129.644 48.984 129.644 49.192C129.644 49.4 129.572 49.576 129.428 49.72C129.292 49.864 129.124 49.936 128.924 49.936ZM134.018 54.124C135.034 53.308 135.83 52.64 136.406 52.12C136.982 51.592 137.466 51.044 137.858 50.476C138.258 49.9 138.458 49.336 138.458 48.784C138.458 48.264 138.33 47.856 138.074 47.56C137.826 47.256 137.422 47.104 136.862 47.104C136.318 47.104 135.894 47.276 135.59 47.62C135.294 47.956 135.134 48.408 135.11 48.976H134.054C134.086 48.08 134.358 47.388 134.87 46.9C135.382 46.412 136.042 46.168 136.85 46.168C137.674 46.168 138.326 46.396 138.806 46.852C139.294 47.308 139.538 47.936 139.538 48.736C139.538 49.4 139.338 50.048 138.938 50.68C138.546 51.304 138.098 51.856 137.594 52.336C137.09 52.808 136.446 53.36 135.662 53.992H139.79V54.904H134.018V54.124ZM155.121 54.112H158.049V55H154.029V46.636H155.121V54.112ZM159.773 47.356C159.565 47.356 159.389 47.284 159.245 47.14C159.101 46.996 159.029 46.82 159.029 46.612C159.029 46.404 159.101 46.228 159.245 46.084C159.389 45.94 159.565 45.868 159.773 45.868C159.973 45.868 160.141 45.94 160.277 46.084C160.421 46.228 160.493 46.404 160.493 46.612C160.493 46.82 160.421 46.996 160.277 47.14C160.141 47.284 159.973 47.356 159.773 47.356ZM160.301 48.424V55H159.209V48.424H160.301ZM165.366 48.304C166.166 48.304 166.814 48.548 167.31 49.036C167.806 49.516 168.054 50.212 168.054 51.124V55H166.974V51.28C166.974 50.624 166.81 50.124 166.482 49.78C166.154 49.428 165.706 49.252 165.138 49.252C164.562 49.252 164.102 49.432 163.758 49.792C163.422 50.152 163.254 50.676 163.254 51.364V55H162.162V48.424H163.254V49.36C163.47 49.024 163.762 48.764 164.13 48.58C164.506 48.396 164.918 48.304 165.366 48.304ZM175.838 51.46C175.838 51.668 175.826 51.888 175.802 52.12H170.546C170.586 52.768 170.806 53.276 171.206 53.644C171.614 54.004 172.106 54.184 172.682 54.184C173.154 54.184 173.546 54.076 173.858 53.86C174.178 53.636 174.402 53.34 174.53 52.972H175.706C175.53 53.604 175.178 54.12 174.65 54.52C174.122 54.912 173.466 55.108 172.682 55.108C172.058 55.108 171.498 54.968 171.002 54.688C170.514 54.408 170.13 54.012 169.85 53.5C169.57 52.98 169.43 52.38 169.43 51.7C169.43 51.02 169.566 50.424 169.838 49.912C170.11 49.4 170.49 49.008 170.978 48.736C171.474 48.456 172.042 48.316 172.682 48.316C173.306 48.316 173.858 48.452 174.338 48.724C174.818 48.996 175.186 49.372 175.442 49.852C175.706 50.324 175.838 50.86 175.838 51.46ZM174.71 51.232C174.71 50.816 174.618 50.46 174.434 50.164C174.25 49.86 173.998 49.632 173.678 49.48C173.366 49.32 173.018 49.24 172.634 49.24C172.082 49.24 171.61 49.416 171.218 49.768C170.834 50.12 170.614 50.608 170.558 51.232H174.71ZM183.131 55.084C182.579 55.084 182.083 54.988 181.643 54.796C181.211 54.596 180.871 54.324 180.623 53.98C180.375 53.628 180.247 53.224 180.239 52.768H181.403C181.443 53.16 181.603 53.492 181.883 53.764C182.171 54.028 182.587 54.16 183.131 54.16C183.651 54.16 184.059 54.032 184.355 53.776C184.659 53.512 184.811 53.176 184.811 52.768C184.811 52.448 184.723 52.188 184.547 51.988C184.371 51.788 184.151 51.636 183.887 51.532C183.623 51.428 183.267 51.316 182.819 51.196C182.267 51.052 181.823 50.908 181.487 50.764C181.159 50.62 180.875 50.396 180.635 50.092C180.403 49.78 180.287 49.364 180.287 48.844C180.287 48.388 180.403 47.984 180.635 47.632C180.867 47.28 181.191 47.008 181.607 46.816C182.031 46.624 182.515 46.528 183.059 46.528C183.843 46.528 184.483 46.724 184.979 47.116C185.483 47.508 185.767 48.028 185.831 48.676H184.631C184.591 48.356 184.423 48.076 184.127 47.836C183.831 47.588 183.439 47.464 182.951 47.464C182.495 47.464 182.123 47.584 181.835 47.824C181.547 48.056 181.403 48.384 181.403 48.808C181.403 49.112 181.487 49.36 181.655 49.552C181.831 49.744 182.043 49.892 182.291 49.996C182.547 50.092 182.903 50.204 183.359 50.332C183.911 50.484 184.355 50.636 184.691 50.788C185.027 50.932 185.315 51.16 185.555 51.472C185.795 51.776 185.915 52.192 185.915 52.72C185.915 53.128 185.807 53.512 185.591 53.872C185.375 54.232 185.055 54.524 184.631 54.748C184.207 54.972 183.707 55.084 183.131 55.084ZM188.614 49.636C188.83 49.26 189.15 48.948 189.574 48.7C190.006 48.444 190.506 48.316 191.074 48.316C191.658 48.316 192.186 48.456 192.658 48.736C193.138 49.016 193.514 49.412 193.786 49.924C194.058 50.428 194.194 51.016 194.194 51.688C194.194 52.352 194.058 52.944 193.786 53.464C193.514 53.984 193.138 54.388 192.658 54.676C192.186 54.964 191.658 55.108 191.074 55.108C190.514 55.108 190.018 54.984 189.586 54.736C189.162 54.48 188.838 54.164 188.614 53.788V58.12H187.522V48.424H188.614V49.636ZM193.078 51.688C193.078 51.192 192.978 50.76 192.778 50.392C192.578 50.024 192.306 49.744 191.962 49.552C191.626 49.36 191.254 49.264 190.846 49.264C190.446 49.264 190.074 49.364 189.73 49.564C189.394 49.756 189.122 50.04 188.914 50.416C188.714 50.784 188.614 51.212 188.614 51.7C188.614 52.196 188.714 52.632 188.914 53.008C189.122 53.376 189.394 53.66 189.73 53.86C190.074 54.052 190.446 54.148 190.846 54.148C191.254 54.148 191.626 54.052 191.962 53.86C192.306 53.66 192.578 53.376 192.778 53.008C192.978 52.632 193.078 52.192 193.078 51.688ZM195.223 51.688C195.223 51.016 195.359 50.428 195.631 49.924C195.903 49.412 196.275 49.016 196.747 48.736C197.227 48.456 197.759 48.316 198.343 48.316C198.919 48.316 199.419 48.44 199.843 48.688C200.267 48.936 200.583 49.248 200.791 49.624V48.424H201.895V55H200.791V53.776C200.575 54.16 200.251 54.48 199.819 54.736C199.395 54.984 198.899 55.108 198.331 55.108C197.747 55.108 197.219 54.964 196.747 54.676C196.275 54.388 195.903 53.984 195.631 53.464C195.359 52.944 195.223 52.352 195.223 51.688ZM200.791 51.7C200.791 51.204 200.691 50.772 200.491 50.404C200.291 50.036 200.019 49.756 199.675 49.564C199.339 49.364 198.967 49.264 198.559 49.264C198.151 49.264 197.779 49.36 197.443 49.552C197.107 49.744 196.839 50.024 196.639 50.392C196.439 50.76 196.339 51.192 196.339 51.688C196.339 52.192 196.439 52.632 196.639 53.008C196.839 53.376 197.107 53.66 197.443 53.86C197.779 54.052 198.151 54.148 198.559 54.148C198.967 54.148 199.339 54.052 199.675 53.86C200.019 53.66 200.291 53.376 200.491 53.008C200.691 52.632 200.791 52.196 200.791 51.7ZM203.332 51.7C203.332 51.02 203.468 50.428 203.74 49.924C204.012 49.412 204.388 49.016 204.868 48.736C205.356 48.456 205.912 48.316 206.536 48.316C207.344 48.316 208.008 48.512 208.528 48.904C209.056 49.296 209.404 49.84 209.572 50.536H208.396C208.284 50.136 208.064 49.82 207.736 49.588C207.416 49.356 207.016 49.24 206.536 49.24C205.912 49.24 205.408 49.456 205.024 49.888C204.64 50.312 204.448 50.916 204.448 51.7C204.448 52.492 204.64 53.104 205.024 53.536C205.408 53.968 205.912 54.184 206.536 54.184C207.016 54.184 207.416 54.072 207.736 53.848C208.056 53.624 208.276 53.304 208.396 52.888H209.572C209.396 53.56 209.044 54.1 208.516 54.508C207.988 54.908 207.328 55.108 206.536 55.108C205.912 55.108 205.356 54.968 204.868 54.688C204.388 54.408 204.012 54.012 203.74 53.5C203.468 52.988 203.332 52.388 203.332 51.7ZM211.593 47.356C211.385 47.356 211.209 47.284 211.065 47.14C210.921 46.996 210.849 46.82 210.849 46.612C210.849 46.404 210.921 46.228 211.065 46.084C211.209 45.94 211.385 45.868 211.593 45.868C211.793 45.868 211.961 45.94 212.097 46.084C212.241 46.228 212.313 46.404 212.313 46.612C212.313 46.82 212.241 46.996 212.097 47.14C211.961 47.284 211.793 47.356 211.593 47.356ZM212.121 48.424V55H211.029V48.424H212.121ZM217.187 48.304C217.987 48.304 218.635 48.548 219.131 49.036C219.627 49.516 219.875 50.212 219.875 51.124V55H218.795V51.28C218.795 50.624 218.631 50.124 218.303 49.78C217.975 49.428 217.527 49.252 216.959 49.252C216.383 49.252 215.923 49.432 215.579 49.792C215.243 50.152 215.075 50.676 215.075 51.364V55H213.983V48.424H215.075V49.36C215.291 49.024 215.583 48.764 215.951 48.58C216.327 48.396 216.739 48.304 217.187 48.304ZM224.37 48.316C224.938 48.316 225.434 48.44 225.858 48.688C226.29 48.936 226.61 49.248 226.818 49.624V48.424H227.922V55.144C227.922 55.744 227.794 56.276 227.538 56.74C227.282 57.212 226.914 57.58 226.434 57.844C225.962 58.108 225.41 58.24 224.778 58.24C223.914 58.24 223.194 58.036 222.618 57.628C222.042 57.22 221.702 56.664 221.598 55.96H222.678C222.798 56.36 223.046 56.68 223.422 56.92C223.798 57.168 224.25 57.292 224.778 57.292C225.378 57.292 225.866 57.104 226.242 56.728C226.626 56.352 226.818 55.824 226.818 55.144V53.764C226.602 54.148 226.282 54.468 225.858 54.724C225.434 54.98 224.938 55.108 224.37 55.108C223.786 55.108 223.254 54.964 222.774 54.676C222.302 54.388 221.93 53.984 221.658 53.464C221.386 52.944 221.25 52.352 221.25 51.688C221.25 51.016 221.386 50.428 221.658 49.924C221.93 49.412 222.302 49.016 222.774 48.736C223.254 48.456 223.786 48.316 224.37 48.316ZM226.818 51.7C226.818 51.204 226.718 50.772 226.518 50.404C226.318 50.036 226.046 49.756 225.702 49.564C225.366 49.364 224.994 49.264 224.586 49.264C224.178 49.264 223.806 49.36 223.47 49.552C223.134 49.744 222.866 50.024 222.666 50.392C222.466 50.76 222.366 51.192 222.366 51.688C222.366 52.192 222.466 52.632 222.666 53.008C222.866 53.376 223.134 53.66 223.47 53.86C223.806 54.052 224.178 54.148 224.586 54.148C224.994 54.148 225.366 54.052 225.702 53.86C226.046 53.66 226.318 53.376 226.518 53.008C226.718 52.632 226.818 52.196 226.818 51.7ZM230.116 55.072C229.908 55.072 229.732 55 229.588 54.856C229.444 54.712 229.372 54.536 229.372 54.328C229.372 54.12 229.444 53.944 229.588 53.8C229.732 53.656 229.908 53.584 230.116 53.584C230.316 53.584 230.484 53.656 230.62 53.8C230.764 53.944 230.836 54.12 230.836 54.328C230.836 54.536 230.764 54.712 230.62 54.856C230.484 55 230.316 55.072 230.116 55.072ZM230.116 49.936C229.908 49.936 229.732 49.864 229.588 49.72C229.444 49.576 229.372 49.4 229.372 49.192C229.372 48.984 229.444 48.808 229.588 48.664C229.732 48.52 229.908 48.448 230.116 48.448C230.316 48.448 230.484 48.52 230.62 48.664C230.764 48.808 230.836 48.984 230.836 49.192C230.836 49.4 230.764 49.576 230.62 49.72C230.484 49.864 230.316 49.936 230.116 49.936ZM235.078 53.068V52.24L239.29 46.408H240.598V52.12H241.798V53.068H240.598V55H239.518V53.068H235.078ZM239.566 47.548L236.338 52.12H239.566V47.548ZM242.889 50.572C242.889 49.196 243.113 48.124 243.561 47.356C244.009 46.58 244.793 46.192 245.913 46.192C247.025 46.192 247.805 46.58 248.253 47.356C248.701 48.124 248.925 49.196 248.925 50.572C248.925 51.972 248.701 53.06 248.253 53.836C247.805 54.612 247.025 55 245.913 55C244.793 55 244.009 54.612 243.561 53.836C243.113 53.06 242.889 51.972 242.889 50.572ZM247.845 50.572C247.845 49.876 247.797 49.288 247.701 48.808C247.613 48.32 247.425 47.928 247.137 47.632C246.857 47.336 246.449 47.188 245.913 47.188C245.369 47.188 244.953 47.336 244.665 47.632C244.385 47.928 244.197 48.32 244.101 48.808C244.013 49.288 243.969 49.876 243.969 50.572C243.969 51.292 244.013 51.896 244.101 52.384C244.197 52.872 244.385 53.264 244.665 53.56C244.953 53.856 245.369 54.004 245.913 54.004C246.449 54.004 246.857 53.856 247.137 53.56C247.425 53.264 247.613 52.872 247.701 52.384C247.797 51.896 247.845 51.292 247.845 50.572Z" fill="#616161"/>
</svg>
