<svg width="427" height="44" viewBox="0 0 427 44" fill="none" xmlns="http://www.w3.org/2000/svg">
<path d="M6.816 12.256C7.22133 12.32 7.58933 12.4853 7.92 12.752C8.26133 13.0187 8.528 13.3493 8.72 13.744C8.92267 14.1387 9.024 14.56 9.024 15.008C9.024 15.5733 8.88 16.0853 8.592 16.544C8.304 16.992 7.88267 17.3493 7.328 17.616C6.784 17.872 6.13867 18 5.392 18H1.232V6.848H5.232C5.98933 6.848 6.63467 6.976 7.168 7.232C7.70133 7.47733 8.10133 7.81333 8.368 8.24C8.63467 8.66667 8.768 9.14667 8.768 9.68C8.768 10.3413 8.58667 10.8907 8.224 11.328C7.872 11.7547 7.40267 12.064 6.816 12.256ZM2.688 11.664H5.136C5.81867 11.664 6.34667 11.504 6.72 11.184C7.09333 10.864 7.28 10.4213 7.28 9.856C7.28 9.29067 7.09333 8.848 6.72 8.528C6.34667 8.208 5.808 8.048 5.104 8.048H2.688V11.664ZM5.264 16.8C5.98933 16.8 6.55467 16.6293 6.96 16.288C7.36533 15.9467 7.568 15.472 7.568 14.864C7.568 14.2453 7.35467 13.76 6.928 13.408C6.50133 13.0453 5.93067 12.864 5.216 12.864H2.688V16.8H5.264ZM14.8685 18.144C14.0472 18.144 13.3005 17.9573 12.6285 17.584C11.9672 17.2107 11.4445 16.6827 11.0605 16C10.6872 15.3067 10.5005 14.5067 10.5005 13.6C10.5005 12.704 10.6925 11.9147 11.0765 11.232C11.4712 10.5387 12.0045 10.0107 12.6765 9.648C13.3485 9.27467 14.1005 9.088 14.9325 9.088C15.7645 9.088 16.5165 9.27467 17.1885 9.648C17.8605 10.0107 18.3885 10.5333 18.7725 11.216C19.1672 11.8987 19.3645 12.6933 19.3645 13.6C19.3645 14.5067 19.1618 15.3067 18.7565 16C18.3618 16.6827 17.8232 17.2107 17.1405 17.584C16.4578 17.9573 15.7005 18.144 14.8685 18.144ZM14.8685 16.864C15.3912 16.864 15.8818 16.7413 16.3405 16.496C16.7992 16.2507 17.1672 15.8827 17.4445 15.392C17.7325 14.9013 17.8765 14.304 17.8765 13.6C17.8765 12.896 17.7378 12.2987 17.4605 11.808C17.1832 11.3173 16.8205 10.9547 16.3725 10.72C15.9245 10.4747 15.4392 10.352 14.9165 10.352C14.3832 10.352 13.8925 10.4747 13.4445 10.72C13.0072 10.9547 12.6552 11.3173 12.3885 11.808C12.1218 12.2987 11.9885 12.896 11.9885 13.6C11.9885 14.3147 12.1165 14.9173 12.3725 15.408C12.6392 15.8987 12.9912 16.2667 13.4285 16.512C13.8658 16.7467 14.3458 16.864 14.8685 16.864ZM20.7349 13.584C20.7349 12.688 20.9162 11.904 21.2789 11.232C21.6415 10.5493 22.1375 10.0213 22.7669 9.648C23.4069 9.27467 24.1215 9.088 24.9109 9.088C25.5935 9.088 26.2282 9.248 26.8149 9.568C27.4015 9.87733 27.8495 10.288 28.1589 10.8V6.16H29.6309V18H28.1589V16.352C27.8709 16.8747 27.4442 17.3067 26.8789 17.648C26.3135 17.9787 25.6522 18.144 24.8949 18.144C24.1162 18.144 23.4069 17.952 22.7669 17.568C22.1375 17.184 21.6415 16.6453 21.2789 15.952C20.9162 15.2587 20.7349 14.4693 20.7349 13.584ZM28.1589 13.6C28.1589 12.9387 28.0255 12.3627 27.7589 11.872C27.4922 11.3813 27.1295 11.008 26.6709 10.752C26.2229 10.4853 25.7269 10.352 25.1829 10.352C24.6389 10.352 24.1429 10.48 23.6949 10.736C23.2469 10.992 22.8895 11.3653 22.6229 11.856C22.3562 12.3467 22.2229 12.9227 22.2229 13.584C22.2229 14.256 22.3562 14.8427 22.6229 15.344C22.8895 15.8347 23.2469 16.2133 23.6949 16.48C24.1429 16.736 24.6389 16.864 25.1829 16.864C25.7269 16.864 26.2229 16.736 26.6709 16.48C27.1295 16.2133 27.4922 15.8347 27.7589 15.344C28.0255 14.8427 28.1589 14.2613 28.1589 13.6ZM39.6434 9.232L34.3634 22.128H32.8594L34.5874 17.904L31.0514 9.232H32.6674L35.4194 16.336L38.1394 9.232H39.6434ZM46.8286 16.816H50.7326V18H45.3726V6.848H46.8286V16.816ZM51.7349 13.584C51.7349 12.688 51.9162 11.904 52.2789 11.232C52.6415 10.5493 53.1375 10.0213 53.7669 9.648C54.4069 9.27467 55.1162 9.088 55.8949 9.088C56.6629 9.088 57.3295 9.25333 57.8949 9.584C58.4602 9.91467 58.8815 10.3307 59.1589 10.832V9.232H60.6309V18H59.1589V16.368C58.8709 16.88 58.4389 17.3067 57.8629 17.648C57.2975 17.9787 56.6362 18.144 55.8789 18.144C55.1002 18.144 54.3962 17.952 53.7669 17.568C53.1375 17.184 52.6415 16.6453 52.2789 15.952C51.9162 15.2587 51.7349 14.4693 51.7349 13.584ZM59.1589 13.6C59.1589 12.9387 59.0255 12.3627 58.7589 11.872C58.4922 11.3813 58.1295 11.008 57.6709 10.752C57.2229 10.4853 56.7269 10.352 56.1829 10.352C55.6389 10.352 55.1429 10.48 54.6949 10.736C54.2469 10.992 53.8895 11.3653 53.6229 11.856C53.3562 12.3467 53.2229 12.9227 53.2229 13.584C53.2229 14.256 53.3562 14.8427 53.6229 15.344C53.8895 15.8347 54.2469 16.2133 54.6949 16.48C55.1429 16.736 55.6389 16.864 56.1829 16.864C56.7269 16.864 57.2229 16.736 57.6709 16.48C58.1295 16.2133 58.4922 15.8347 58.7589 15.344C59.0255 14.8427 59.1589 14.2613 59.1589 13.6ZM64.5474 10.656C64.8034 10.1547 65.166 9.76533 65.6354 9.488C66.1154 9.21067 66.6967 9.072 67.3794 9.072V10.576H66.9954C65.3634 10.576 64.5474 11.4613 64.5474 13.232V18H63.0914V9.232H64.5474V10.656ZM72.6761 9.088C73.4335 9.088 74.0948 9.25333 74.6601 9.584C75.2361 9.91467 75.6628 10.3307 75.9401 10.832V9.232H77.4121V18.192C77.4121 18.992 77.2415 19.7013 76.9001 20.32C76.5588 20.9493 76.0681 21.44 75.4281 21.792C74.7988 22.144 74.0628 22.32 73.2201 22.32C72.0681 22.32 71.1081 22.048 70.3401 21.504C69.5721 20.96 69.1188 20.2187 68.9801 19.28H70.4201C70.5801 19.8133 70.9108 20.24 71.4121 20.56C71.9135 20.8907 72.5161 21.056 73.2201 21.056C74.0201 21.056 74.6708 20.8053 75.1721 20.304C75.6841 19.8027 75.9401 19.0987 75.9401 18.192V16.352C75.6521 16.864 75.2255 17.2907 74.6601 17.632C74.0948 17.9733 73.4335 18.144 72.6761 18.144C71.8975 18.144 71.1881 17.952 70.5481 17.568C69.9188 17.184 69.4228 16.6453 69.0601 15.952C68.6975 15.2587 68.5161 14.4693 68.5161 13.584C68.5161 12.688 68.6975 11.904 69.0601 11.232C69.4228 10.5493 69.9188 10.0213 70.5481 9.648C71.1881 9.27467 71.8975 9.088 72.6761 9.088ZM75.9401 13.6C75.9401 12.9387 75.8068 12.3627 75.5401 11.872C75.2735 11.3813 74.9108 11.008 74.4521 10.752C74.0041 10.4853 73.5081 10.352 72.9641 10.352C72.4201 10.352 71.9241 10.48 71.4761 10.736C71.0281 10.992 70.6708 11.3653 70.4041 11.856C70.1375 12.3467 70.0041 12.9227 70.0041 13.584C70.0041 14.256 70.1375 14.8427 70.4041 15.344C70.6708 15.8347 71.0281 16.2133 71.4761 16.48C71.9241 16.736 72.4201 16.864 72.9641 16.864C73.5081 16.864 74.0041 16.736 74.4521 16.48C74.9108 16.2133 75.2735 15.8347 75.5401 15.344C75.8068 14.8427 75.9401 14.2613 75.9401 13.6ZM87.8726 13.28C87.8726 13.5573 87.8566 13.8507 87.8246 14.16H80.8166C80.87 15.024 81.1633 15.7013 81.6966 16.192C82.2406 16.672 82.8966 16.912 83.6646 16.912C84.294 16.912 84.8166 16.768 85.2326 16.48C85.6593 16.1813 85.958 15.7867 86.1286 15.296H87.6966C87.462 16.1387 86.9926 16.8267 86.2886 17.36C85.5846 17.8827 84.71 18.144 83.6646 18.144C82.8326 18.144 82.086 17.9573 81.4246 17.584C80.774 17.2107 80.262 16.6827 79.8886 16C79.5153 15.3067 79.3286 14.5067 79.3286 13.6C79.3286 12.6933 79.51 11.8987 79.8726 11.216C80.2353 10.5333 80.742 10.0107 81.3926 9.648C82.054 9.27467 82.8113 9.088 83.6646 9.088C84.4966 9.088 85.2326 9.26933 85.8726 9.632C86.5126 9.99467 87.0033 10.496 87.3446 11.136C87.6966 11.7653 87.8726 12.48 87.8726 13.28ZM86.3686 12.976C86.3686 12.4213 86.246 11.9467 86.0006 11.552C85.7553 11.1467 85.4193 10.8427 84.9926 10.64C84.5766 10.4267 84.1126 10.32 83.6006 10.32C82.8646 10.32 82.2353 10.5547 81.7126 11.024C81.2006 11.4933 80.9073 12.144 80.8326 12.976H86.3686ZM100.14 11.52V12.752H93.7561V11.52H100.14ZM118.45 6.928V18H116.994V9.744L113.314 18H112.29L108.594 9.728V18H107.138V6.928H108.706L112.802 16.08L116.898 6.928H118.45ZM120.376 13.584C120.376 12.688 120.557 11.904 120.92 11.232C121.282 10.5493 121.778 10.0213 122.408 9.648C123.048 9.27467 123.757 9.088 124.536 9.088C125.304 9.088 125.97 9.25333 126.536 9.584C127.101 9.91467 127.522 10.3307 127.8 10.832V9.232H129.272V18H127.8V16.368C127.512 16.88 127.08 17.3067 126.504 17.648C125.938 17.9787 125.277 18.144 124.52 18.144C123.741 18.144 123.037 17.952 122.408 17.568C121.778 17.184 121.282 16.6453 120.92 15.952C120.557 15.2587 120.376 14.4693 120.376 13.584ZM127.8 13.6C127.8 12.9387 127.666 12.3627 127.4 11.872C127.133 11.3813 126.77 11.008 126.312 10.752C125.864 10.4853 125.368 10.352 124.824 10.352C124.28 10.352 123.784 10.48 123.336 10.736C122.888 10.992 122.53 11.3653 122.264 11.856C121.997 12.3467 121.864 12.9227 121.864 13.584C121.864 14.256 121.997 14.8427 122.264 15.344C122.53 15.8347 122.888 16.2133 123.336 16.48C123.784 16.736 124.28 16.864 124.824 16.864C125.368 16.864 125.864 16.736 126.312 16.48C126.77 16.2133 127.133 15.8347 127.4 15.344C127.666 14.8427 127.8 14.2613 127.8 13.6ZM132.484 7.808C132.207 7.808 131.972 7.712 131.78 7.52C131.588 7.328 131.492 7.09333 131.492 6.816C131.492 6.53867 131.588 6.304 131.78 6.112C131.972 5.92 132.207 5.824 132.484 5.824C132.751 5.824 132.975 5.92 133.156 6.112C133.348 6.304 133.444 6.53867 133.444 6.816C133.444 7.09333 133.348 7.328 133.156 7.52C132.975 7.712 132.751 7.808 132.484 7.808ZM133.188 9.232V18H131.732V9.232H133.188ZM139.942 9.072C141.008 9.072 141.872 9.39733 142.534 10.048C143.195 10.688 143.526 11.616 143.526 12.832V18H142.086V13.04C142.086 12.1653 141.867 11.4987 141.43 11.04C140.992 10.5707 140.395 10.336 139.638 10.336C138.87 10.336 138.256 10.576 137.798 11.056C137.35 11.536 137.126 12.2347 137.126 13.152V18H135.67V9.232H137.126V10.48C137.414 10.032 137.803 9.68533 138.294 9.44C138.795 9.19467 139.344 9.072 139.942 9.072ZM149.626 12.416C149.626 11.328 149.871 10.352 150.362 9.488C150.852 8.61333 151.519 7.93067 152.362 7.44C153.215 6.94933 154.159 6.704 155.194 6.704C156.41 6.704 157.471 6.99733 158.378 7.584C159.284 8.17067 159.946 9.00267 160.362 10.08H158.618C158.308 9.408 157.86 8.89067 157.274 8.528C156.698 8.16533 156.004 7.984 155.194 7.984C154.415 7.984 153.716 8.16533 153.098 8.528C152.479 8.89067 151.994 9.408 151.642 10.08C151.29 10.7413 151.114 11.52 151.114 12.416C151.114 13.3013 151.29 14.08 151.642 14.752C151.994 15.4133 152.479 15.9253 153.098 16.288C153.716 16.6507 154.415 16.832 155.194 16.832C156.004 16.832 156.698 16.656 157.274 16.304C157.86 15.9413 158.308 15.424 158.618 14.752H160.362C159.946 15.8187 159.284 16.6453 158.378 17.232C157.471 17.808 156.41 18.096 155.194 18.096C154.159 18.096 153.215 17.856 152.362 17.376C151.519 16.8853 150.852 16.208 150.362 15.344C149.871 14.48 149.626 13.504 149.626 12.416ZM166.353 18.144C165.532 18.144 164.785 17.9573 164.113 17.584C163.452 17.2107 162.929 16.6827 162.545 16C162.172 15.3067 161.985 14.5067 161.985 13.6C161.985 12.704 162.177 11.9147 162.561 11.232C162.956 10.5387 163.489 10.0107 164.161 9.648C164.833 9.27467 165.585 9.088 166.417 9.088C167.249 9.088 168.001 9.27467 168.673 9.648C169.345 10.0107 169.873 10.5333 170.257 11.216C170.652 11.8987 170.849 12.6933 170.849 13.6C170.849 14.5067 170.646 15.3067 170.241 16C169.846 16.6827 169.308 17.2107 168.625 17.584C167.942 17.9573 167.185 18.144 166.353 18.144ZM166.353 16.864C166.876 16.864 167.366 16.7413 167.825 16.496C168.284 16.2507 168.652 15.8827 168.929 15.392C169.217 14.9013 169.361 14.304 169.361 13.6C169.361 12.896 169.222 12.2987 168.945 11.808C168.668 11.3173 168.305 10.9547 167.857 10.72C167.409 10.4747 166.924 10.352 166.401 10.352C165.868 10.352 165.377 10.4747 164.929 10.72C164.492 10.9547 164.14 11.3173 163.873 11.808C163.606 12.2987 163.473 12.896 163.473 13.6C163.473 14.3147 163.601 14.9173 163.857 15.408C164.124 15.8987 164.476 16.2667 164.913 16.512C165.35 16.7467 165.83 16.864 166.353 16.864ZM177.035 9.072C178.102 9.072 178.966 9.39733 179.627 10.048C180.289 10.688 180.619 11.616 180.619 12.832V18H179.179V13.04C179.179 12.1653 178.961 11.4987 178.523 11.04C178.086 10.5707 177.489 10.336 176.731 10.336C175.963 10.336 175.35 10.576 174.891 11.056C174.443 11.536 174.219 12.2347 174.219 13.152V18H172.763V9.232H174.219V10.48C174.507 10.032 174.897 9.68533 175.387 9.44C175.889 9.19467 176.438 9.072 177.035 9.072ZM184.774 10.432V15.6C184.774 16.0267 184.864 16.3307 185.046 16.512C185.227 16.6827 185.542 16.768 185.99 16.768H187.062V18H185.75C184.939 18 184.331 17.8133 183.926 17.44C183.52 17.0667 183.318 16.4533 183.318 15.6V10.432H182.182V9.232H183.318V7.024H184.774V9.232H187.062V10.432H184.774ZM196.826 13.28C196.826 13.5573 196.81 13.8507 196.778 14.16H189.77C189.823 15.024 190.116 15.7013 190.65 16.192C191.194 16.672 191.85 16.912 192.618 16.912C193.247 16.912 193.77 16.768 194.186 16.48C194.612 16.1813 194.911 15.7867 195.082 15.296H196.65C196.415 16.1387 195.946 16.8267 195.242 17.36C194.538 17.8827 193.663 18.144 192.618 18.144C191.786 18.144 191.039 17.9573 190.378 17.584C189.727 17.2107 189.215 16.6827 188.842 16C188.468 15.3067 188.282 14.5067 188.282 13.6C188.282 12.6933 188.463 11.8987 188.826 11.216C189.188 10.5333 189.695 10.0107 190.346 9.648C191.007 9.27467 191.764 9.088 192.618 9.088C193.45 9.088 194.186 9.26933 194.826 9.632C195.466 9.99467 195.956 10.496 196.298 11.136C196.65 11.7653 196.826 12.48 196.826 13.28ZM195.322 12.976C195.322 12.4213 195.199 11.9467 194.954 11.552C194.708 11.1467 194.372 10.8427 193.946 10.64C193.53 10.4267 193.066 10.32 192.554 10.32C191.818 10.32 191.188 10.5547 190.666 11.024C190.154 11.4933 189.86 12.144 189.786 12.976H195.322ZM203.324 18L201.244 14.736L199.244 18H197.724L200.556 13.648L197.724 9.232H199.372L201.452 12.48L203.436 9.232H204.956L202.14 13.568L204.972 18H203.324ZM208.18 10.432V15.6C208.18 16.0267 208.271 16.3307 208.452 16.512C208.633 16.6827 208.948 16.768 209.396 16.768H210.468V18H209.156C208.345 18 207.737 17.8133 207.332 17.44C206.927 17.0667 206.724 16.4533 206.724 15.6V10.432H205.588V9.232H206.724V7.024H208.18V9.232H210.468V10.432H208.18ZM223.362 6.848V8.032H220.322V18H218.866V8.032H215.81V6.848H223.362ZM233.154 13.28C233.154 13.5573 233.138 13.8507 233.106 14.16H226.098C226.151 15.024 226.445 15.7013 226.978 16.192C227.522 16.672 228.178 16.912 228.946 16.912C229.575 16.912 230.098 16.768 230.514 16.48C230.941 16.1813 231.239 15.7867 231.41 15.296H232.978C232.743 16.1387 232.274 16.8267 231.57 17.36C230.866 17.8827 229.991 18.144 228.946 18.144C228.114 18.144 227.367 17.9573 226.706 17.584C226.055 17.2107 225.543 16.6827 225.17 16C224.797 15.3067 224.61 14.5067 224.61 13.6C224.61 12.6933 224.791 11.8987 225.154 11.216C225.517 10.5333 226.023 10.0107 226.674 9.648C227.335 9.27467 228.093 9.088 228.946 9.088C229.778 9.088 230.514 9.26933 231.154 9.632C231.794 9.99467 232.285 10.496 232.626 11.136C232.978 11.7653 233.154 12.48 233.154 13.28ZM231.65 12.976C231.65 12.4213 231.527 11.9467 231.282 11.552C231.037 11.1467 230.701 10.8427 230.274 10.64C229.858 10.4267 229.394 10.32 228.882 10.32C228.146 10.32 227.517 10.5547 226.994 11.024C226.482 11.4933 226.189 12.144 226.114 12.976H231.65ZM239.652 18L237.572 14.736L235.572 18H234.052L236.884 13.648L234.052 9.232H235.7L237.78 12.48L239.764 9.232H241.284L238.468 13.568L241.3 18H239.652ZM244.508 10.432V15.6C244.508 16.0267 244.599 16.3307 244.78 16.512C244.961 16.6827 245.276 16.768 245.724 16.768H246.796V18H245.484C244.673 18 244.065 17.8133 243.66 17.44C243.255 17.0667 243.052 16.4533 243.052 15.6V10.432H241.916V9.232H243.052V7.024H244.508V9.232H246.796V10.432H244.508Z" fill="#3A3A3A"/>
<path d="M5.652 30.636V31.524H2.016V34.344H4.968V35.232H2.016V39H0.924V30.636H5.652ZM9.83888 39.108C9.22288 39.108 8.66288 38.968 8.15888 38.688C7.66288 38.408 7.27088 38.012 6.98288 37.5C6.70288 36.98 6.56288 36.38 6.56288 35.7C6.56288 35.028 6.70688 34.436 6.99488 33.924C7.29088 33.404 7.69088 33.008 8.19488 32.736C8.69888 32.456 9.26288 32.316 9.88688 32.316C10.5109 32.316 11.0749 32.456 11.5789 32.736C12.0829 33.008 12.4789 33.4 12.7669 33.912C13.0629 34.424 13.2109 35.02 13.2109 35.7C13.2109 36.38 13.0589 36.98 12.7549 37.5C12.4589 38.012 12.0549 38.408 11.5429 38.688C11.0309 38.968 10.4629 39.108 9.83888 39.108ZM9.83888 38.148C10.2309 38.148 10.5989 38.056 10.9429 37.872C11.2869 37.688 11.5629 37.412 11.7709 37.044C11.9869 36.676 12.0949 36.228 12.0949 35.7C12.0949 35.172 11.9909 34.724 11.7829 34.356C11.5749 33.988 11.3029 33.716 10.9669 33.54C10.6309 33.356 10.2669 33.264 9.87488 33.264C9.47488 33.264 9.10688 33.356 8.77088 33.54C8.44288 33.716 8.17888 33.988 7.97888 34.356C7.77888 34.724 7.67888 35.172 7.67888 35.7C7.67888 36.236 7.77488 36.688 7.96688 37.056C8.16688 37.424 8.43088 37.7 8.75888 37.884C9.08688 38.06 9.44688 38.148 9.83888 38.148ZM17.8507 32.304C18.6507 32.304 19.2987 32.548 19.7947 33.036C20.2907 33.516 20.5387 34.212 20.5387 35.124V39H19.4587V35.28C19.4587 34.624 19.2947 34.124 18.9667 33.78C18.6387 33.428 18.1907 33.252 17.6227 33.252C17.0467 33.252 16.5867 33.432 16.2427 33.792C15.9067 34.152 15.7387 34.676 15.7387 35.364V39H14.6467V32.424H15.7387V33.36C15.9547 33.024 16.2467 32.764 16.6147 32.58C16.9907 32.396 17.4027 32.304 17.8507 32.304ZM23.6544 33.324V37.2C23.6544 37.52 23.7224 37.748 23.8584 37.884C23.9944 38.012 24.2304 38.076 24.5664 38.076H25.3704V39H24.3864C23.7784 39 23.3224 38.86 23.0184 38.58C22.7144 38.3 22.5624 37.84 22.5624 37.2V33.324H21.7104V32.424H22.5624V30.768H23.6544V32.424H25.3704V33.324H23.6544ZM32.2208 39.108C31.7168 39.108 31.2648 39.024 30.8648 38.856C30.4648 38.68 30.1488 38.44 29.9168 38.136C29.6848 37.824 29.5568 37.468 29.5328 37.068H30.6608C30.6928 37.396 30.8448 37.664 31.1168 37.872C31.3968 38.08 31.7608 38.184 32.2088 38.184C32.6248 38.184 32.9528 38.092 33.1928 37.908C33.4328 37.724 33.5528 37.492 33.5528 37.212C33.5528 36.924 33.4248 36.712 33.1688 36.576C32.9128 36.432 32.5168 36.292 31.9808 36.156C31.4928 36.028 31.0928 35.9 30.7808 35.772C30.4768 35.636 30.2128 35.44 29.9888 35.184C29.7728 34.92 29.6648 34.576 29.6648 34.152C29.6648 33.816 29.7648 33.508 29.9648 33.228C30.1648 32.948 30.4488 32.728 30.8168 32.568C31.1848 32.4 31.6048 32.316 32.0768 32.316C32.8048 32.316 33.3928 32.5 33.8408 32.868C34.2888 33.236 34.5288 33.74 34.5608 34.38H33.4688C33.4448 34.036 33.3048 33.76 33.0488 33.552C32.8008 33.344 32.4648 33.24 32.0408 33.24C31.6488 33.24 31.3368 33.324 31.1048 33.492C30.8728 33.66 30.7568 33.88 30.7568 34.152C30.7568 34.368 30.8248 34.548 30.9608 34.692C31.1048 34.828 31.2808 34.94 31.4888 35.028C31.7048 35.108 32.0008 35.2 32.3768 35.304C32.8488 35.432 33.2328 35.56 33.5288 35.688C33.8248 35.808 34.0768 35.992 34.2848 36.24C34.5008 36.488 34.6128 36.812 34.6208 37.212C34.6208 37.572 34.5208 37.896 34.3208 38.184C34.1208 38.472 33.8368 38.7 33.4688 38.868C33.1088 39.028 32.6928 39.108 32.2208 39.108ZM36.7263 31.356C36.5183 31.356 36.3423 31.284 36.1983 31.14C36.0543 30.996 35.9823 30.82 35.9823 30.612C35.9823 30.404 36.0543 30.228 36.1983 30.084C36.3423 29.94 36.5183 29.868 36.7263 29.868C36.9263 29.868 37.0943 29.94 37.2303 30.084C37.3743 30.228 37.4463 30.404 37.4463 30.612C37.4463 30.82 37.3743 30.996 37.2303 31.14C37.0943 31.284 36.9263 31.356 36.7263 31.356ZM37.2543 32.424V39H36.1623V32.424H37.2543ZM39.9314 38.1H43.1594V39H38.6834V38.1L41.8754 33.312H38.7074V32.424H43.1354V33.312L39.9314 38.1ZM50.5763 35.46C50.5763 35.668 50.5643 35.888 50.5403 36.12H45.2843C45.3243 36.768 45.5443 37.276 45.9443 37.644C46.3523 38.004 46.8443 38.184 47.4203 38.184C47.8923 38.184 48.2843 38.076 48.5963 37.86C48.9163 37.636 49.1403 37.34 49.2683 36.972H50.4443C50.2683 37.604 49.9163 38.12 49.3883 38.52C48.8603 38.912 48.2043 39.108 47.4203 39.108C46.7963 39.108 46.2363 38.968 45.7403 38.688C45.2523 38.408 44.8683 38.012 44.5883 37.5C44.3083 36.98 44.1683 36.38 44.1683 35.7C44.1683 35.02 44.3043 34.424 44.5763 33.912C44.8483 33.4 45.2283 33.008 45.7163 32.736C46.2123 32.456 46.7803 32.316 47.4203 32.316C48.0443 32.316 48.5963 32.452 49.0763 32.724C49.5563 32.996 49.9243 33.372 50.1803 33.852C50.4443 34.324 50.5763 34.86 50.5763 35.46ZM49.4483 35.232C49.4483 34.816 49.3563 34.46 49.1723 34.164C48.9883 33.86 48.7363 33.632 48.4163 33.48C48.1043 33.32 47.7563 33.24 47.3723 33.24C46.8203 33.24 46.3483 33.416 45.9563 33.768C45.5723 34.12 45.3523 34.608 45.2963 35.232H49.4483ZM55.565 39.072C55.357 39.072 55.181 39 55.037 38.856C54.893 38.712 54.821 38.536 54.821 38.328C54.821 38.12 54.893 37.944 55.037 37.8C55.181 37.656 55.357 37.584 55.565 37.584C55.765 37.584 55.933 37.656 56.069 37.8C56.213 37.944 56.285 38.12 56.285 38.328C56.285 38.536 56.213 38.712 56.069 38.856C55.933 39 55.765 39.072 55.565 39.072ZM55.565 33.936C55.357 33.936 55.181 33.864 55.037 33.72C54.893 33.576 54.821 33.4 54.821 33.192C54.821 32.984 54.893 32.808 55.037 32.664C55.181 32.52 55.357 32.448 55.565 32.448C55.765 32.448 55.933 32.52 56.069 32.664C56.213 32.808 56.285 32.984 56.285 33.192C56.285 33.4 56.213 33.576 56.069 33.72C55.933 33.864 55.765 33.936 55.565 33.936ZM60.5029 31.32V30.324H62.7589V39H61.6549V31.32H60.5029ZM69.4706 32.388C69.2946 31.5 68.7466 31.056 67.8266 31.056C67.1146 31.056 66.5826 31.332 66.2306 31.884C65.8786 32.428 65.7066 33.328 65.7146 34.584C65.8986 34.168 66.2026 33.844 66.6266 33.612C67.0586 33.372 67.5386 33.252 68.0666 33.252C68.8906 33.252 69.5466 33.508 70.0346 34.02C70.5306 34.532 70.7786 35.24 70.7786 36.144C70.7786 36.688 70.6706 37.176 70.4546 37.608C70.2466 38.04 69.9266 38.384 69.4946 38.64C69.0706 38.896 68.5546 39.024 67.9466 39.024C67.1226 39.024 66.4786 38.84 66.0146 38.472C65.5506 38.104 65.2266 37.596 65.0426 36.948C64.8586 36.3 64.7666 35.5 64.7666 34.548C64.7666 31.612 65.7906 30.144 67.8386 30.144C68.6226 30.144 69.2386 30.356 69.6866 30.78C70.1346 31.204 70.3986 31.74 70.4786 32.388H69.4706ZM67.8386 34.176C67.4946 34.176 67.1706 34.248 66.8666 34.392C66.5626 34.528 66.3146 34.74 66.1226 35.028C65.9386 35.308 65.8466 35.652 65.8466 36.06C65.8466 36.668 66.0226 37.164 66.3746 37.548C66.7266 37.924 67.2306 38.112 67.8866 38.112C68.4466 38.112 68.8906 37.94 69.2186 37.596C69.5546 37.244 69.7226 36.772 69.7226 36.18C69.7226 35.556 69.5626 35.068 69.2426 34.716C68.9226 34.356 68.4546 34.176 67.8386 34.176ZM73.5238 33.636C73.7398 33.26 74.0598 32.948 74.4838 32.7C74.9158 32.444 75.4158 32.316 75.9838 32.316C76.5678 32.316 77.0958 32.456 77.5678 32.736C78.0478 33.016 78.4238 33.412 78.6958 33.924C78.9678 34.428 79.1038 35.016 79.1038 35.688C79.1038 36.352 78.9678 36.944 78.6958 37.464C78.4238 37.984 78.0478 38.388 77.5678 38.676C77.0958 38.964 76.5678 39.108 75.9838 39.108C75.4238 39.108 74.9278 38.984 74.4958 38.736C74.0718 38.48 73.7478 38.164 73.5238 37.788V42.12H72.4318V32.424H73.5238V33.636ZM77.9878 35.688C77.9878 35.192 77.8878 34.76 77.6878 34.392C77.4878 34.024 77.2158 33.744 76.8718 33.552C76.5358 33.36 76.1638 33.264 75.7558 33.264C75.3558 33.264 74.9838 33.364 74.6398 33.564C74.3038 33.756 74.0318 34.04 73.8238 34.416C73.6238 34.784 73.5238 35.212 73.5238 35.7C73.5238 36.196 73.6238 36.632 73.8238 37.008C74.0318 37.376 74.3038 37.66 74.6398 37.86C74.9838 38.052 75.3558 38.148 75.7558 38.148C76.1638 38.148 76.5358 38.052 76.8718 37.86C77.2158 37.66 77.4878 37.376 77.6878 37.008C77.8878 36.632 77.9878 36.192 77.9878 35.688ZM83.9732 39L82.4132 36.552L80.9132 39H79.7732L81.8972 35.736L79.7732 32.424H81.0092L82.5692 34.86L84.0572 32.424H85.1972L83.0852 35.676L85.2092 39H83.9732ZM100.285 39L98.293 35.58H96.973V39H95.881V30.636H98.581C99.213 30.636 99.745 30.744 100.177 30.96C100.617 31.176 100.945 31.468 101.161 31.836C101.377 32.204 101.485 32.624 101.485 33.096C101.485 33.672 101.317 34.18 100.981 34.62C100.653 35.06 100.157 35.352 99.493 35.496L101.593 39H100.285ZM96.973 34.704H98.581C99.173 34.704 99.617 34.56 99.913 34.272C100.209 33.976 100.357 33.584 100.357 33.096C100.357 32.6 100.209 32.216 99.913 31.944C99.625 31.672 99.181 31.536 98.581 31.536H96.973V34.704ZM104.274 31.524V34.32H107.322V35.22H104.274V38.1H107.682V39H103.182V30.624H107.682V31.524H104.274ZM117.818 30.696V39H116.726V32.808L113.966 39H113.198L110.426 32.796V39H109.334V30.696H110.51L113.582 37.56L116.654 30.696H117.818ZM123.217 39.072C123.009 39.072 122.833 39 122.689 38.856C122.545 38.712 122.473 38.536 122.473 38.328C122.473 38.12 122.545 37.944 122.689 37.8C122.833 37.656 123.009 37.584 123.217 37.584C123.417 37.584 123.585 37.656 123.721 37.8C123.865 37.944 123.937 38.12 123.937 38.328C123.937 38.536 123.865 38.712 123.721 38.856C123.585 39 123.417 39.072 123.217 39.072ZM123.217 33.936C123.009 33.936 122.833 33.864 122.689 33.72C122.545 33.576 122.473 33.4 122.473 33.192C122.473 32.984 122.545 32.808 122.689 32.664C122.833 32.52 123.009 32.448 123.217 32.448C123.417 32.448 123.585 32.52 123.721 32.664C123.865 32.808 123.937 32.984 123.937 33.192C123.937 33.4 123.865 33.576 123.721 33.72C123.585 33.864 123.417 33.936 123.217 33.936ZM128.155 31.32V30.324H130.411V39H129.307V31.32H128.155ZM143.157 38.112H146.085V39H142.065V30.636H143.157V38.112ZM147.808 31.356C147.6 31.356 147.424 31.284 147.28 31.14C147.136 30.996 147.064 30.82 147.064 30.612C147.064 30.404 147.136 30.228 147.28 30.084C147.424 29.94 147.6 29.868 147.808 29.868C148.008 29.868 148.176 29.94 148.312 30.084C148.456 30.228 148.528 30.404 148.528 30.612C148.528 30.82 148.456 30.996 148.312 31.14C148.176 31.284 148.008 31.356 147.808 31.356ZM148.336 32.424V39H147.244V32.424H148.336ZM153.401 32.304C154.201 32.304 154.849 32.548 155.345 33.036C155.841 33.516 156.089 34.212 156.089 35.124V39H155.009V35.28C155.009 34.624 154.845 34.124 154.517 33.78C154.189 33.428 153.741 33.252 153.173 33.252C152.597 33.252 152.137 33.432 151.793 33.792C151.457 34.152 151.289 34.676 151.289 35.364V39H150.197V32.424H151.289V33.36C151.505 33.024 151.797 32.764 152.165 32.58C152.541 32.396 152.953 32.304 153.401 32.304ZM163.873 35.46C163.873 35.668 163.861 35.888 163.837 36.12H158.581C158.621 36.768 158.841 37.276 159.241 37.644C159.649 38.004 160.141 38.184 160.717 38.184C161.189 38.184 161.581 38.076 161.893 37.86C162.213 37.636 162.437 37.34 162.565 36.972H163.741C163.565 37.604 163.213 38.12 162.685 38.52C162.157 38.912 161.501 39.108 160.717 39.108C160.093 39.108 159.533 38.968 159.037 38.688C158.549 38.408 158.165 38.012 157.885 37.5C157.605 36.98 157.465 36.38 157.465 35.7C157.465 35.02 157.601 34.424 157.873 33.912C158.145 33.4 158.525 33.008 159.013 32.736C159.509 32.456 160.077 32.316 160.717 32.316C161.341 32.316 161.893 32.452 162.373 32.724C162.853 32.996 163.221 33.372 163.477 33.852C163.741 34.324 163.873 34.86 163.873 35.46ZM162.745 35.232C162.745 34.816 162.653 34.46 162.469 34.164C162.285 33.86 162.033 33.632 161.713 33.48C161.401 33.32 161.053 33.24 160.669 33.24C160.117 33.24 159.645 33.416 159.253 33.768C158.869 34.12 158.649 34.608 158.593 35.232H162.745ZM171.166 39.084C170.614 39.084 170.118 38.988 169.678 38.796C169.246 38.596 168.906 38.324 168.658 37.98C168.41 37.628 168.282 37.224 168.274 36.768H169.438C169.478 37.16 169.638 37.492 169.918 37.764C170.206 38.028 170.622 38.16 171.166 38.16C171.686 38.16 172.094 38.032 172.39 37.776C172.694 37.512 172.846 37.176 172.846 36.768C172.846 36.448 172.758 36.188 172.582 35.988C172.406 35.788 172.186 35.636 171.922 35.532C171.658 35.428 171.302 35.316 170.854 35.196C170.302 35.052 169.858 34.908 169.522 34.764C169.194 34.62 168.91 34.396 168.67 34.092C168.438 33.78 168.322 33.364 168.322 32.844C168.322 32.388 168.438 31.984 168.67 31.632C168.902 31.28 169.226 31.008 169.642 30.816C170.066 30.624 170.55 30.528 171.094 30.528C171.878 30.528 172.518 30.724 173.014 31.116C173.518 31.508 173.802 32.028 173.866 32.676H172.666C172.626 32.356 172.458 32.076 172.162 31.836C171.866 31.588 171.474 31.464 170.986 31.464C170.53 31.464 170.158 31.584 169.87 31.824C169.582 32.056 169.438 32.384 169.438 32.808C169.438 33.112 169.522 33.36 169.69 33.552C169.866 33.744 170.078 33.892 170.326 33.996C170.582 34.092 170.938 34.204 171.394 34.332C171.946 34.484 172.39 34.636 172.726 34.788C173.062 34.932 173.35 35.16 173.59 35.472C173.83 35.776 173.95 36.192 173.95 36.72C173.95 37.128 173.842 37.512 173.626 37.872C173.41 38.232 173.09 38.524 172.666 38.748C172.242 38.972 171.742 39.084 171.166 39.084ZM176.649 33.636C176.865 33.26 177.185 32.948 177.609 32.7C178.041 32.444 178.541 32.316 179.109 32.316C179.693 32.316 180.221 32.456 180.693 32.736C181.173 33.016 181.549 33.412 181.821 33.924C182.093 34.428 182.229 35.016 182.229 35.688C182.229 36.352 182.093 36.944 181.821 37.464C181.549 37.984 181.173 38.388 180.693 38.676C180.221 38.964 179.693 39.108 179.109 39.108C178.549 39.108 178.053 38.984 177.621 38.736C177.197 38.48 176.873 38.164 176.649 37.788V42.12H175.557V32.424H176.649V33.636ZM181.113 35.688C181.113 35.192 181.013 34.76 180.813 34.392C180.613 34.024 180.341 33.744 179.997 33.552C179.661 33.36 179.289 33.264 178.881 33.264C178.481 33.264 178.109 33.364 177.765 33.564C177.429 33.756 177.157 34.04 176.949 34.416C176.749 34.784 176.649 35.212 176.649 35.7C176.649 36.196 176.749 36.632 176.949 37.008C177.157 37.376 177.429 37.66 177.765 37.86C178.109 38.052 178.481 38.148 178.881 38.148C179.289 38.148 179.661 38.052 179.997 37.86C180.341 37.66 180.613 37.376 180.813 37.008C181.013 36.632 181.113 36.192 181.113 35.688ZM183.258 35.688C183.258 35.016 183.394 34.428 183.666 33.924C183.938 33.412 184.31 33.016 184.782 32.736C185.262 32.456 185.794 32.316 186.378 32.316C186.954 32.316 187.454 32.44 187.878 32.688C188.302 32.936 188.618 33.248 188.826 33.624V32.424H189.93V39H188.826V37.776C188.61 38.16 188.286 38.48 187.854 38.736C187.43 38.984 186.934 39.108 186.366 39.108C185.782 39.108 185.254 38.964 184.782 38.676C184.31 38.388 183.938 37.984 183.666 37.464C183.394 36.944 183.258 36.352 183.258 35.688ZM188.826 35.7C188.826 35.204 188.726 34.772 188.526 34.404C188.326 34.036 188.054 33.756 187.71 33.564C187.374 33.364 187.002 33.264 186.594 33.264C186.186 33.264 185.814 33.36 185.478 33.552C185.142 33.744 184.874 34.024 184.674 34.392C184.474 34.76 184.374 35.192 184.374 35.688C184.374 36.192 184.474 36.632 184.674 37.008C184.874 37.376 185.142 37.66 185.478 37.86C185.814 38.052 186.186 38.148 186.594 38.148C187.002 38.148 187.374 38.052 187.71 37.86C188.054 37.66 188.326 37.376 188.526 37.008C188.726 36.632 188.826 36.196 188.826 35.7ZM191.368 35.7C191.368 35.02 191.504 34.428 191.776 33.924C192.048 33.412 192.424 33.016 192.904 32.736C193.392 32.456 193.948 32.316 194.572 32.316C195.38 32.316 196.044 32.512 196.564 32.904C197.092 33.296 197.44 33.84 197.608 34.536H196.432C196.32 34.136 196.1 33.82 195.772 33.588C195.452 33.356 195.052 33.24 194.572 33.24C193.948 33.24 193.444 33.456 193.06 33.888C192.676 34.312 192.484 34.916 192.484 35.7C192.484 36.492 192.676 37.104 193.06 37.536C193.444 37.968 193.948 38.184 194.572 38.184C195.052 38.184 195.452 38.072 195.772 37.848C196.092 37.624 196.312 37.304 196.432 36.888H197.608C197.432 37.56 197.08 38.1 196.552 38.508C196.024 38.908 195.364 39.108 194.572 39.108C193.948 39.108 193.392 38.968 192.904 38.688C192.424 38.408 192.048 38.012 191.776 37.5C191.504 36.988 191.368 36.388 191.368 35.7ZM199.629 31.356C199.421 31.356 199.245 31.284 199.101 31.14C198.957 30.996 198.885 30.82 198.885 30.612C198.885 30.404 198.957 30.228 199.101 30.084C199.245 29.94 199.421 29.868 199.629 29.868C199.829 29.868 199.997 29.94 200.133 30.084C200.277 30.228 200.349 30.404 200.349 30.612C200.349 30.82 200.277 30.996 200.133 31.14C199.997 31.284 199.829 31.356 199.629 31.356ZM200.157 32.424V39H199.065V32.424H200.157ZM205.222 32.304C206.022 32.304 206.67 32.548 207.166 33.036C207.662 33.516 207.91 34.212 207.91 35.124V39H206.83V35.28C206.83 34.624 206.666 34.124 206.338 33.78C206.01 33.428 205.562 33.252 204.994 33.252C204.418 33.252 203.958 33.432 203.614 33.792C203.278 34.152 203.11 34.676 203.11 35.364V39H202.018V32.424H203.11V33.36C203.326 33.024 203.618 32.764 203.986 32.58C204.362 32.396 204.774 32.304 205.222 32.304ZM212.406 32.316C212.974 32.316 213.47 32.44 213.894 32.688C214.326 32.936 214.646 33.248 214.854 33.624V32.424H215.958V39.144C215.958 39.744 215.83 40.276 215.574 40.74C215.318 41.212 214.95 41.58 214.47 41.844C213.998 42.108 213.446 42.24 212.814 42.24C211.95 42.24 211.23 42.036 210.654 41.628C210.078 41.22 209.738 40.664 209.634 39.96H210.714C210.834 40.36 211.082 40.68 211.458 40.92C211.834 41.168 212.286 41.292 212.814 41.292C213.414 41.292 213.902 41.104 214.278 40.728C214.662 40.352 214.854 39.824 214.854 39.144V37.764C214.638 38.148 214.318 38.468 213.894 38.724C213.47 38.98 212.974 39.108 212.406 39.108C211.822 39.108 211.29 38.964 210.81 38.676C210.338 38.388 209.966 37.984 209.694 37.464C209.422 36.944 209.286 36.352 209.286 35.688C209.286 35.016 209.422 34.428 209.694 33.924C209.966 33.412 210.338 33.016 210.81 32.736C211.29 32.456 211.822 32.316 212.406 32.316ZM214.854 35.7C214.854 35.204 214.754 34.772 214.554 34.404C214.354 34.036 214.082 33.756 213.738 33.564C213.402 33.364 213.03 33.264 212.622 33.264C212.214 33.264 211.842 33.36 211.506 33.552C211.17 33.744 210.902 34.024 210.702 34.392C210.502 34.76 210.402 35.192 210.402 35.688C210.402 36.192 210.502 36.632 210.702 37.008C210.902 37.376 211.17 37.66 211.506 37.86C211.842 38.052 212.214 38.148 212.622 38.148C213.03 38.148 213.402 38.052 213.738 37.86C214.082 37.66 214.354 37.376 214.554 37.008C214.754 36.632 214.854 36.196 214.854 35.7ZM218.151 39.072C217.943 39.072 217.767 39 217.623 38.856C217.479 38.712 217.407 38.536 217.407 38.328C217.407 38.12 217.479 37.944 217.623 37.8C217.767 37.656 217.943 37.584 218.151 37.584C218.351 37.584 218.519 37.656 218.655 37.8C218.799 37.944 218.871 38.12 218.871 38.328C218.871 38.536 218.799 38.712 218.655 38.856C218.519 39 218.351 39.072 218.151 39.072ZM218.151 33.936C217.943 33.936 217.767 33.864 217.623 33.72C217.479 33.576 217.407 33.4 217.407 33.192C217.407 32.984 217.479 32.808 217.623 32.664C217.767 32.52 217.943 32.448 218.151 32.448C218.351 32.448 218.519 32.52 218.655 32.664C218.799 32.808 218.871 32.984 218.871 33.192C218.871 33.4 218.799 33.576 218.655 33.72C218.519 33.864 218.351 33.936 218.151 33.936ZM223.245 38.124C224.261 37.308 225.057 36.64 225.633 36.12C226.209 35.592 226.693 35.044 227.085 34.476C227.485 33.9 227.685 33.336 227.685 32.784C227.685 32.264 227.557 31.856 227.301 31.56C227.053 31.256 226.649 31.104 226.089 31.104C225.545 31.104 225.121 31.276 224.817 31.62C224.521 31.956 224.361 32.408 224.337 32.976H223.281C223.313 32.08 223.585 31.388 224.097 30.9C224.609 30.412 225.269 30.168 226.077 30.168C226.901 30.168 227.553 30.396 228.033 30.852C228.521 31.308 228.765 31.936 228.765 32.736C228.765 33.4 228.565 34.048 228.165 34.68C227.773 35.304 227.325 35.856 226.821 36.336C226.317 36.808 225.673 37.36 224.889 37.992H229.017V38.904H223.245V38.124ZM230.015 37.068V36.24L234.227 30.408H235.535V36.12H236.735V37.068H235.535V39H234.455V37.068H230.015ZM234.503 31.548L231.275 36.12H234.503V31.548Z" fill="#616161"/>
</svg>
