<svg width="427" height="52" viewBox="0 0 427 52" fill="none" xmlns="http://www.w3.org/2000/svg">
<path d="M15.552 7.248V24H12.192V16.872H5.016V24H1.656V7.248H5.016V14.136H12.192V7.248H15.552ZM31.2191 17.064C31.2191 17.544 31.1871 17.976 31.1231 18.36H21.4031C21.4831 19.32 21.8191 20.072 22.4111 20.616C23.0031 21.16 23.7311 21.432 24.5951 21.432C25.8431 21.432 26.7311 20.896 27.2591 19.824H30.8831C30.4991 21.104 29.7631 22.16 28.6751 22.992C27.5871 23.808 26.2511 24.216 24.6671 24.216C23.3871 24.216 22.2351 23.936 21.2111 23.376C20.2031 22.8 19.4111 21.992 18.8351 20.952C18.2751 19.912 17.9951 18.712 17.9951 17.352C17.9951 15.976 18.2751 14.768 18.8351 13.728C19.3951 12.688 20.1791 11.888 21.1871 11.328C22.1951 10.768 23.3551 10.488 24.6671 10.488C25.9311 10.488 27.0591 10.76 28.0511 11.304C29.0591 11.848 29.8351 12.624 30.3791 13.632C30.9391 14.624 31.2191 15.768 31.2191 17.064ZM27.7391 16.104C27.7231 15.24 27.4111 14.552 26.8031 14.04C26.1951 13.512 25.4511 13.248 24.5711 13.248C23.7391 13.248 23.0351 13.504 22.4591 14.016C21.8991 14.512 21.5551 15.208 21.4271 16.104H27.7391ZM32.8076 17.304C32.8076 15.96 33.0716 14.768 33.5996 13.728C34.1436 12.688 34.8716 11.888 35.7836 11.328C36.7116 10.768 37.7436 10.488 38.8796 10.488C39.8716 10.488 40.7356 10.688 41.4716 11.088C42.2236 11.488 42.8236 11.992 43.2716 12.6V10.704H46.6556V24H43.2716V22.056C42.8396 22.68 42.2396 23.2 41.4716 23.616C40.7196 24.016 39.8476 24.216 38.8556 24.216C37.7356 24.216 36.7116 23.928 35.7836 23.352C34.8716 22.776 34.1436 21.968 33.5996 20.928C33.0716 19.872 32.8076 18.664 32.8076 17.304ZM43.2716 17.352C43.2716 16.536 43.1116 15.84 42.7916 15.264C42.4716 14.672 42.0396 14.224 41.4956 13.92C40.9516 13.6 40.3676 13.44 39.7436 13.44C39.1196 13.44 38.5436 13.592 38.0156 13.896C37.4876 14.2 37.0556 14.648 36.7196 15.24C36.3996 15.816 36.2396 16.504 36.2396 17.304C36.2396 18.104 36.3996 18.808 36.7196 19.416C37.0556 20.008 37.4876 20.464 38.0156 20.784C38.5596 21.104 39.1356 21.264 39.7436 21.264C40.3676 21.264 40.9516 21.112 41.4956 20.808C42.0396 20.488 42.4716 20.04 42.7916 19.464C43.1116 18.872 43.2716 18.168 43.2716 17.352ZM49.0732 17.304C49.0732 15.96 49.3372 14.768 49.8652 13.728C50.4093 12.688 51.1453 11.888 52.0733 11.328C53.0013 10.768 54.0333 10.488 55.1693 10.488C56.0333 10.488 56.8573 10.68 57.6413 11.064C58.4253 11.432 59.0493 11.928 59.5133 12.552V6.24H62.9213V24H59.5133V22.032C59.0973 22.688 58.5133 23.216 57.7613 23.616C57.0093 24.016 56.1373 24.216 55.1453 24.216C54.0253 24.216 53.0013 23.928 52.0733 23.352C51.1453 22.776 50.4093 21.968 49.8652 20.928C49.3372 19.872 49.0732 18.664 49.0732 17.304ZM59.5373 17.352C59.5373 16.536 59.3773 15.84 59.0573 15.264C58.7373 14.672 58.3053 14.224 57.7613 13.92C57.2173 13.6 56.6333 13.44 56.0093 13.44C55.3853 13.44 54.8093 13.592 54.2812 13.896C53.7533 14.2 53.3213 14.648 52.9853 15.24C52.6653 15.816 52.5053 16.504 52.5053 17.304C52.5053 18.104 52.6653 18.808 52.9853 19.416C53.3213 20.008 53.7533 20.464 54.2812 20.784C54.8253 21.104 55.4013 21.264 56.0093 21.264C56.6333 21.264 57.2173 21.112 57.7613 20.808C58.3053 20.488 58.7373 20.04 59.0573 19.464C59.3773 18.872 59.5373 18.168 59.5373 17.352ZM67.9069 9.12C67.3149 9.12 66.8189 8.936 66.4189 8.568C66.0349 8.184 65.8429 7.712 65.8429 7.152C65.8429 6.592 66.0349 6.128 66.4189 5.76C66.8189 5.376 67.3149 5.184 67.9069 5.184C68.4989 5.184 68.9869 5.376 69.3709 5.76C69.7709 6.128 69.9709 6.592 69.9709 7.152C69.9709 7.712 69.7709 8.184 69.3709 8.568C68.9869 8.936 68.4989 9.12 67.9069 9.12ZM69.5629 10.704V24H66.2029V10.704H69.5629ZM80.2506 10.512C81.8346 10.512 83.1146 11.016 84.0906 12.024C85.0666 13.016 85.5546 14.408 85.5546 16.2V24H82.1946V16.656C82.1946 15.6 81.9306 14.792 81.4026 14.232C80.8746 13.656 80.1546 13.368 79.2426 13.368C78.3146 13.368 77.5786 13.656 77.0346 14.232C76.5066 14.792 76.2426 15.6 76.2426 16.656V24H72.8826V10.704H76.2426V12.36C76.6906 11.784 77.2586 11.336 77.9466 11.016C78.6506 10.68 79.4186 10.512 80.2506 10.512ZM93.9578 10.488C94.9498 10.488 95.8218 10.688 96.5738 11.088C97.3258 11.472 97.9178 11.976 98.3498 12.6V10.704H101.734V24.096C101.734 25.328 101.486 26.424 100.99 27.384C100.494 28.36 99.7498 29.128 98.7578 29.688C97.7658 30.264 96.5658 30.552 95.1578 30.552C93.2698 30.552 91.7178 30.112 90.5018 29.232C89.3018 28.352 88.6218 27.152 88.4618 25.632H91.7978C91.9738 26.24 92.3498 26.72 92.9258 27.072C93.5178 27.44 94.2298 27.624 95.0618 27.624C96.0378 27.624 96.8298 27.328 97.4378 26.736C98.0458 26.16 98.3498 25.28 98.3498 24.096V22.032C97.9178 22.656 97.3178 23.176 96.5498 23.592C95.7978 24.008 94.9338 24.216 93.9578 24.216C92.8378 24.216 91.8138 23.928 90.8858 23.352C89.9578 22.776 89.2218 21.968 88.6777 20.928C88.1497 19.872 87.8857 18.664 87.8857 17.304C87.8857 15.96 88.1497 14.768 88.6777 13.728C89.2218 12.688 89.9498 11.888 90.8618 11.328C91.7898 10.768 92.8218 10.488 93.9578 10.488ZM98.3498 17.352C98.3498 16.536 98.1898 15.84 97.8698 15.264C97.5498 14.672 97.1178 14.224 96.5738 13.92C96.0298 13.6 95.4458 13.44 94.8218 13.44C94.1978 13.44 93.6218 13.592 93.0938 13.896C92.5658 14.2 92.1338 14.648 91.7978 15.24C91.4778 15.816 91.3178 16.504 91.3178 17.304C91.3178 18.104 91.4778 18.808 91.7978 19.416C92.1338 20.008 92.5658 20.464 93.0938 20.784C93.6378 21.104 94.2138 21.264 94.8218 21.264C95.4458 21.264 96.0298 21.112 96.5738 20.808C97.1178 20.488 97.5498 20.04 97.8698 19.464C98.1898 18.872 98.3498 18.168 98.3498 17.352ZM111.406 20.208C112.942 18.928 114.166 17.864 115.078 17.016C115.99 16.152 116.75 15.256 117.358 14.328C117.966 13.4 118.27 12.488 118.27 11.592C118.27 10.776 118.078 10.136 117.694 9.672C117.31 9.208 116.718 8.976 115.918 8.976C115.118 8.976 114.502 9.248 114.07 9.792C113.638 10.32 113.414 11.048 113.398 11.976H110.134C110.198 10.056 110.766 8.6 111.838 7.608C112.926 6.616 114.302 6.12 115.966 6.12C117.79 6.12 119.19 6.608 120.166 7.584C121.142 8.544 121.63 9.816 121.63 11.4C121.63 12.648 121.294 13.84 120.622 14.976C119.95 16.112 119.182 17.104 118.318 17.952C117.454 18.784 116.326 19.792 114.934 20.976H122.014V23.76H110.158V21.264L111.406 20.208ZM140.458 14.016V16.848H130.282V14.016H140.458ZM160.289 7.248V9.96H153.305V14.256H158.657V16.92H153.305V24H149.945V7.248H160.289ZM168.576 24.216C167.296 24.216 166.144 23.936 165.12 23.376C164.096 22.8 163.288 21.992 162.696 20.952C162.12 19.912 161.832 18.712 161.832 17.352C161.832 15.992 162.128 14.792 162.72 13.752C163.328 12.712 164.152 11.912 165.192 11.352C166.232 10.776 167.392 10.488 168.672 10.488C169.952 10.488 171.112 10.776 172.152 11.352C173.192 11.912 174.008 12.712 174.6 13.752C175.208 14.792 175.512 15.992 175.512 17.352C175.512 18.712 175.2 19.912 174.576 20.952C173.968 21.992 173.136 22.8 172.08 23.376C171.04 23.936 169.872 24.216 168.576 24.216ZM168.576 21.288C169.184 21.288 169.752 21.144 170.28 20.856C170.824 20.552 171.256 20.104 171.576 19.512C171.896 18.92 172.056 18.2 172.056 17.352C172.056 16.088 171.72 15.12 171.048 14.448C170.392 13.76 169.584 13.416 168.624 13.416C167.664 13.416 166.856 13.76 166.2 14.448C165.56 15.12 165.24 16.088 165.24 17.352C165.24 18.616 165.552 19.592 166.176 20.28C166.816 20.952 167.616 21.288 168.576 21.288ZM181.336 12.768C181.768 12.064 182.328 11.512 183.016 11.112C183.72 10.712 184.52 10.512 185.416 10.512V14.04H184.528C183.472 14.04 182.672 14.288 182.128 14.784C181.6 15.28 181.336 16.144 181.336 17.376V24H177.976V10.704H181.336V12.768ZM199.182 24.168C198.014 24.168 196.958 23.968 196.014 23.568C195.086 23.168 194.35 22.592 193.806 21.84C193.262 21.088 192.982 20.2 192.966 19.176H196.566C196.614 19.864 196.854 20.408 197.286 20.808C197.734 21.208 198.342 21.408 199.11 21.408C199.894 21.408 200.51 21.224 200.958 20.856C201.406 20.472 201.63 19.976 201.63 19.368C201.63 18.872 201.478 18.464 201.174 18.144C200.87 17.824 200.486 17.576 200.022 17.4C199.574 17.208 198.95 17 198.15 16.776C197.062 16.456 196.174 16.144 195.486 15.84C194.814 15.52 194.23 15.048 193.734 14.424C193.254 13.784 193.014 12.936 193.014 11.88C193.014 10.888 193.262 10.024 193.758 9.288C194.254 8.552 194.95 7.992 195.846 7.608C196.742 7.208 197.766 7.008 198.918 7.008C200.646 7.008 202.046 7.432 203.118 8.28C204.206 9.112 204.806 10.28 204.918 11.784H201.222C201.19 11.208 200.942 10.736 200.478 10.368C200.03 9.984 199.43 9.792 198.678 9.792C198.022 9.792 197.494 9.96 197.094 10.296C196.71 10.632 196.518 11.12 196.518 11.76C196.518 12.208 196.662 12.584 196.95 12.888C197.254 13.176 197.622 13.416 198.054 13.608C198.502 13.784 199.126 13.992 199.926 14.232C201.014 14.552 201.902 14.872 202.59 15.192C203.278 15.512 203.87 15.992 204.366 16.632C204.862 17.272 205.11 18.112 205.11 19.152C205.11 20.048 204.878 20.88 204.414 21.648C203.95 22.416 203.27 23.032 202.374 23.496C201.478 23.944 200.414 24.168 199.182 24.168ZM220.383 17.064C220.383 17.544 220.351 17.976 220.287 18.36H210.567C210.647 19.32 210.983 20.072 211.575 20.616C212.167 21.16 212.895 21.432 213.759 21.432C215.007 21.432 215.895 20.896 216.423 19.824H220.047C219.663 21.104 218.927 22.16 217.839 22.992C216.751 23.808 215.415 24.216 213.831 24.216C212.551 24.216 211.399 23.936 210.375 23.376C209.367 22.8 208.575 21.992 207.999 20.952C207.439 19.912 207.159 18.712 207.159 17.352C207.159 15.976 207.439 14.768 207.999 13.728C208.559 12.688 209.343 11.888 210.351 11.328C211.359 10.768 212.519 10.488 213.831 10.488C215.095 10.488 216.223 10.76 217.215 11.304C218.223 11.848 218.999 12.624 219.543 13.632C220.103 14.624 220.383 15.768 220.383 17.064ZM216.903 16.104C216.887 15.24 216.575 14.552 215.967 14.04C215.359 13.512 214.615 13.248 213.735 13.248C212.903 13.248 212.199 13.504 211.623 14.016C211.063 14.512 210.719 15.208 210.591 16.104H216.903ZM221.972 17.352C221.972 15.976 222.252 14.776 222.812 13.752C223.372 12.712 224.148 11.912 225.14 11.352C226.132 10.776 227.268 10.488 228.548 10.488C230.196 10.488 231.556 10.904 232.628 11.736C233.716 12.552 234.444 13.704 234.812 15.192H231.188C230.996 14.616 230.668 14.168 230.204 13.848C229.756 13.512 229.196 13.344 228.524 13.344C227.564 13.344 226.804 13.696 226.244 14.4C225.684 15.088 225.404 16.072 225.404 17.352C225.404 18.616 225.684 19.6 226.244 20.304C226.804 20.992 227.564 21.336 228.524 21.336C229.884 21.336 230.772 20.728 231.188 19.512H234.812C234.444 20.952 233.716 22.096 232.628 22.944C231.54 23.792 230.18 24.216 228.548 24.216C227.268 24.216 226.132 23.936 225.14 23.376C224.148 22.8 223.372 22 222.812 20.976C222.252 19.936 221.972 18.728 221.972 17.352ZM241.185 13.464V19.896C241.185 20.344 241.289 20.672 241.497 20.88C241.721 21.072 242.089 21.168 242.601 21.168H244.161V24H242.049C239.217 24 237.801 22.624 237.801 19.872V13.464H236.217V10.704H237.801V7.416H241.185V10.704H244.161V13.464H241.185ZM248.282 9.12C247.69 9.12 247.194 8.936 246.794 8.568C246.41 8.184 246.218 7.712 246.218 7.152C246.218 6.592 246.41 6.128 246.794 5.76C247.194 5.376 247.69 5.184 248.282 5.184C248.874 5.184 249.362 5.376 249.746 5.76C250.146 6.128 250.346 6.592 250.346 7.152C250.346 7.712 250.146 8.184 249.746 8.568C249.362 8.936 248.874 9.12 248.282 9.12ZM249.938 10.704V24H246.578V10.704H249.938ZM259.162 24.216C257.882 24.216 256.73 23.936 255.706 23.376C254.682 22.8 253.874 21.992 253.282 20.952C252.706 19.912 252.418 18.712 252.418 17.352C252.418 15.992 252.714 14.792 253.306 13.752C253.914 12.712 254.738 11.912 255.778 11.352C256.818 10.776 257.978 10.488 259.258 10.488C260.538 10.488 261.698 10.776 262.738 11.352C263.778 11.912 264.594 12.712 265.186 13.752C265.794 14.792 266.098 15.992 266.098 17.352C266.098 18.712 265.786 19.912 265.162 20.952C264.554 21.992 263.722 22.8 262.666 23.376C261.626 23.936 260.458 24.216 259.162 24.216ZM259.162 21.288C259.77 21.288 260.338 21.144 260.866 20.856C261.41 20.552 261.842 20.104 262.162 19.512C262.482 18.92 262.642 18.2 262.642 17.352C262.642 16.088 262.306 15.12 261.634 14.448C260.978 13.76 260.17 13.416 259.21 13.416C258.25 13.416 257.442 13.76 256.786 14.448C256.146 15.12 255.826 16.088 255.826 17.352C255.826 18.616 256.138 19.592 256.762 20.28C257.402 20.952 258.202 21.288 259.162 21.288ZM275.93 10.512C277.514 10.512 278.794 11.016 279.77 12.024C280.746 13.016 281.234 14.408 281.234 16.2V24H277.874V16.656C277.874 15.6 277.61 14.792 277.082 14.232C276.554 13.656 275.834 13.368 274.922 13.368C273.994 13.368 273.258 13.656 272.714 14.232C272.186 14.792 271.922 15.6 271.922 16.656V24H268.562V10.704H271.922V12.36C272.37 11.784 272.938 11.336 273.626 11.016C274.33 10.68 275.098 10.512 275.93 10.512ZM301.548 7.248V9.96H297.084V24H293.724V9.96H289.26V7.248H301.548ZM305.704 9.12C305.112 9.12 304.616 8.936 304.216 8.568C303.832 8.184 303.64 7.712 303.64 7.152C303.64 6.592 303.832 6.128 304.216 5.76C304.616 5.376 305.112 5.184 305.704 5.184C306.296 5.184 306.784 5.376 307.168 5.76C307.568 6.128 307.768 6.592 307.768 7.152C307.768 7.712 307.568 8.184 307.168 8.568C306.784 8.936 306.296 9.12 305.704 9.12ZM307.36 10.704V24H304V10.704H307.36ZM314.591 13.464V19.896C314.591 20.344 314.695 20.672 314.903 20.88C315.127 21.072 315.495 21.168 316.007 21.168H317.567V24H315.455C312.623 24 311.207 22.624 311.207 19.872V13.464H309.623V10.704H311.207V7.416H314.591V10.704H317.567V13.464H314.591ZM323.344 6.24V24H319.984V6.24H323.344ZM339.024 17.064C339.024 17.544 338.992 17.976 338.928 18.36H329.208C329.288 19.32 329.624 20.072 330.216 20.616C330.808 21.16 331.536 21.432 332.4 21.432C333.648 21.432 334.536 20.896 335.064 19.824H338.688C338.304 21.104 337.568 22.16 336.48 22.992C335.392 23.808 334.056 24.216 332.472 24.216C331.192 24.216 330.04 23.936 329.016 23.376C328.008 22.8 327.216 21.992 326.64 20.952C326.08 19.912 325.8 18.712 325.8 17.352C325.8 15.976 326.08 14.768 326.64 13.728C327.2 12.688 327.984 11.888 328.992 11.328C330 10.768 331.16 10.488 332.472 10.488C333.736 10.488 334.864 10.76 335.856 11.304C336.864 11.848 337.64 12.624 338.184 13.632C338.744 14.624 339.024 15.768 339.024 17.064ZM335.544 16.104C335.528 15.24 335.216 14.552 334.608 14.04C334 13.512 333.256 13.248 332.376 13.248C331.544 13.248 330.84 13.504 330.264 14.016C329.704 14.512 329.36 15.208 329.232 16.104H335.544ZM346.564 24.216C345.476 24.216 344.5 24.024 343.636 23.64C342.772 23.24 342.084 22.704 341.572 22.032C341.076 21.36 340.804 20.616 340.756 19.8H344.14C344.204 20.312 344.452 20.736 344.884 21.072C345.332 21.408 345.884 21.576 346.54 21.576C347.18 21.576 347.676 21.448 348.028 21.192C348.396 20.936 348.58 20.608 348.58 20.208C348.58 19.776 348.356 19.456 347.908 19.248C347.476 19.024 346.78 18.784 345.82 18.528C344.828 18.288 344.012 18.04 343.372 17.784C342.748 17.528 342.204 17.136 341.74 16.608C341.292 16.08 341.068 15.368 341.068 14.472C341.068 13.736 341.276 13.064 341.692 12.456C342.124 11.848 342.732 11.368 343.516 11.016C344.316 10.664 345.252 10.488 346.324 10.488C347.908 10.488 349.172 10.888 350.116 11.688C351.06 12.472 351.58 13.536 351.676 14.88H348.46C348.412 14.352 348.188 13.936 347.788 13.632C347.404 13.312 346.884 13.152 346.228 13.152C345.62 13.152 345.148 13.264 344.812 13.488C344.492 13.712 344.332 14.024 344.332 14.424C344.332 14.872 344.556 15.216 345.004 15.456C345.452 15.68 346.148 15.912 347.092 16.152C348.052 16.392 348.844 16.64 349.468 16.896C350.092 17.152 350.628 17.552 351.076 18.096C351.54 18.624 351.78 19.328 351.796 20.208C351.796 20.976 351.58 21.664 351.148 22.272C350.732 22.88 350.124 23.36 349.324 23.712C348.54 24.048 347.62 24.216 346.564 24.216Z" fill="#3A3A3A"/>
<path d="M5.652 38.636V39.524H2.016V42.344H4.968V43.232H2.016V47H0.924V38.636H5.652ZM9.83888 47.108C9.22288 47.108 8.66288 46.968 8.15888 46.688C7.66288 46.408 7.27088 46.012 6.98288 45.5C6.70288 44.98 6.56288 44.38 6.56288 43.7C6.56288 43.028 6.70688 42.436 6.99488 41.924C7.29088 41.404 7.69088 41.008 8.19488 40.736C8.69888 40.456 9.26288 40.316 9.88688 40.316C10.5109 40.316 11.0749 40.456 11.5789 40.736C12.0829 41.008 12.4789 41.4 12.7669 41.912C13.0629 42.424 13.2109 43.02 13.2109 43.7C13.2109 44.38 13.0589 44.98 12.7549 45.5C12.4589 46.012 12.0549 46.408 11.5429 46.688C11.0309 46.968 10.4629 47.108 9.83888 47.108ZM9.83888 46.148C10.2309 46.148 10.5989 46.056 10.9429 45.872C11.2869 45.688 11.5629 45.412 11.7709 45.044C11.9869 44.676 12.0949 44.228 12.0949 43.7C12.0949 43.172 11.9909 42.724 11.7829 42.356C11.5749 41.988 11.3029 41.716 10.9669 41.54C10.6309 41.356 10.2669 41.264 9.87488 41.264C9.47488 41.264 9.10688 41.356 8.77088 41.54C8.44288 41.716 8.17888 41.988 7.97888 42.356C7.77888 42.724 7.67888 43.172 7.67888 43.7C7.67888 44.236 7.77488 44.688 7.96688 45.056C8.16688 45.424 8.43088 45.7 8.75888 45.884C9.08688 46.06 9.44688 46.148 9.83888 46.148ZM17.8507 40.304C18.6507 40.304 19.2987 40.548 19.7947 41.036C20.2907 41.516 20.5387 42.212 20.5387 43.124V47H19.4587V43.28C19.4587 42.624 19.2947 42.124 18.9667 41.78C18.6387 41.428 18.1907 41.252 17.6227 41.252C17.0467 41.252 16.5867 41.432 16.2427 41.792C15.9067 42.152 15.7387 42.676 15.7387 43.364V47H14.6467V40.424H15.7387V41.36C15.9547 41.024 16.2467 40.764 16.6147 40.58C16.9907 40.396 17.4027 40.304 17.8507 40.304ZM23.6544 41.324V45.2C23.6544 45.52 23.7224 45.748 23.8584 45.884C23.9944 46.012 24.2304 46.076 24.5664 46.076H25.3704V47H24.3864C23.7784 47 23.3224 46.86 23.0184 46.58C22.7144 46.3 22.5624 45.84 22.5624 45.2V41.324H21.7104V40.424H22.5624V38.768H23.6544V40.424H25.3704V41.324H23.6544ZM32.2208 47.108C31.7168 47.108 31.2648 47.024 30.8648 46.856C30.4648 46.68 30.1488 46.44 29.9168 46.136C29.6848 45.824 29.5568 45.468 29.5328 45.068H30.6608C30.6928 45.396 30.8448 45.664 31.1168 45.872C31.3968 46.08 31.7608 46.184 32.2088 46.184C32.6248 46.184 32.9528 46.092 33.1928 45.908C33.4328 45.724 33.5528 45.492 33.5528 45.212C33.5528 44.924 33.4248 44.712 33.1688 44.576C32.9128 44.432 32.5168 44.292 31.9808 44.156C31.4928 44.028 31.0928 43.9 30.7808 43.772C30.4768 43.636 30.2128 43.44 29.9888 43.184C29.7728 42.92 29.6648 42.576 29.6648 42.152C29.6648 41.816 29.7648 41.508 29.9648 41.228C30.1648 40.948 30.4488 40.728 30.8168 40.568C31.1848 40.4 31.6048 40.316 32.0768 40.316C32.8048 40.316 33.3928 40.5 33.8408 40.868C34.2888 41.236 34.5288 41.74 34.5608 42.38H33.4688C33.4448 42.036 33.3048 41.76 33.0488 41.552C32.8008 41.344 32.4648 41.24 32.0408 41.24C31.6488 41.24 31.3368 41.324 31.1048 41.492C30.8728 41.66 30.7568 41.88 30.7568 42.152C30.7568 42.368 30.8248 42.548 30.9608 42.692C31.1048 42.828 31.2808 42.94 31.4888 43.028C31.7048 43.108 32.0008 43.2 32.3768 43.304C32.8488 43.432 33.2328 43.56 33.5288 43.688C33.8248 43.808 34.0768 43.992 34.2848 44.24C34.5008 44.488 34.6128 44.812 34.6208 45.212C34.6208 45.572 34.5208 45.896 34.3208 46.184C34.1208 46.472 33.8368 46.7 33.4688 46.868C33.1088 47.028 32.6928 47.108 32.2208 47.108ZM36.7263 39.356C36.5183 39.356 36.3423 39.284 36.1983 39.14C36.0543 38.996 35.9823 38.82 35.9823 38.612C35.9823 38.404 36.0543 38.228 36.1983 38.084C36.3423 37.94 36.5183 37.868 36.7263 37.868C36.9263 37.868 37.0943 37.94 37.2303 38.084C37.3743 38.228 37.4463 38.404 37.4463 38.612C37.4463 38.82 37.3743 38.996 37.2303 39.14C37.0943 39.284 36.9263 39.356 36.7263 39.356ZM37.2543 40.424V47H36.1623V40.424H37.2543ZM39.9314 46.1H43.1594V47H38.6834V46.1L41.8754 41.312H38.7074V40.424H43.1354V41.312L39.9314 46.1ZM50.5763 43.46C50.5763 43.668 50.5643 43.888 50.5403 44.12H45.2843C45.3243 44.768 45.5443 45.276 45.9443 45.644C46.3523 46.004 46.8443 46.184 47.4203 46.184C47.8923 46.184 48.2843 46.076 48.5963 45.86C48.9163 45.636 49.1403 45.34 49.2683 44.972H50.4443C50.2683 45.604 49.9163 46.12 49.3883 46.52C48.8603 46.912 48.2043 47.108 47.4203 47.108C46.7963 47.108 46.2363 46.968 45.7403 46.688C45.2523 46.408 44.8683 46.012 44.5883 45.5C44.3083 44.98 44.1683 44.38 44.1683 43.7C44.1683 43.02 44.3043 42.424 44.5763 41.912C44.8483 41.4 45.2283 41.008 45.7163 40.736C46.2123 40.456 46.7803 40.316 47.4203 40.316C48.0443 40.316 48.5963 40.452 49.0763 40.724C49.5563 40.996 49.9243 41.372 50.1803 41.852C50.4443 42.324 50.5763 42.86 50.5763 43.46ZM49.4483 43.232C49.4483 42.816 49.3563 42.46 49.1723 42.164C48.9883 41.86 48.7363 41.632 48.4163 41.48C48.1043 41.32 47.7563 41.24 47.3723 41.24C46.8203 41.24 46.3483 41.416 45.9563 41.768C45.5723 42.12 45.3523 42.608 45.2963 43.232H49.4483ZM55.565 47.072C55.357 47.072 55.181 47 55.037 46.856C54.893 46.712 54.821 46.536 54.821 46.328C54.821 46.12 54.893 45.944 55.037 45.8C55.181 45.656 55.357 45.584 55.565 45.584C55.765 45.584 55.933 45.656 56.069 45.8C56.213 45.944 56.285 46.12 56.285 46.328C56.285 46.536 56.213 46.712 56.069 46.856C55.933 47 55.765 47.072 55.565 47.072ZM55.565 41.936C55.357 41.936 55.181 41.864 55.037 41.72C54.893 41.576 54.821 41.4 54.821 41.192C54.821 40.984 54.893 40.808 55.037 40.664C55.181 40.52 55.357 40.448 55.565 40.448C55.765 40.448 55.933 40.52 56.069 40.664C56.213 40.808 56.285 40.984 56.285 41.192C56.285 41.4 56.213 41.576 56.069 41.72C55.933 41.864 55.765 41.936 55.565 41.936ZM60.6589 46.124C61.6749 45.308 62.4709 44.64 63.0469 44.12C63.6229 43.592 64.1069 43.044 64.4989 42.476C64.8989 41.9 65.0989 41.336 65.0989 40.784C65.0989 40.264 64.9709 39.856 64.7149 39.56C64.4669 39.256 64.0629 39.104 63.5029 39.104C62.9589 39.104 62.5349 39.276 62.2309 39.62C61.9349 39.956 61.7749 40.408 61.7509 40.976H60.6949C60.7269 40.08 60.9989 39.388 61.5109 38.9C62.0229 38.412 62.6829 38.168 63.4909 38.168C64.3149 38.168 64.9669 38.396 65.4469 38.852C65.9349 39.308 66.1789 39.936 66.1789 40.736C66.1789 41.4 65.9789 42.048 65.5789 42.68C65.1869 43.304 64.7389 43.856 64.2349 44.336C63.7309 44.808 63.0869 45.36 62.3029 45.992H66.4309V46.904H60.6589V46.124ZM67.4292 45.068V44.24L71.6412 38.408H72.9492V44.12H74.1492V45.068H72.9492V47H71.8692V45.068H67.4292ZM71.9172 39.548L68.6892 44.12H71.9172V39.548ZM76.5121 41.636C76.7281 41.26 77.0481 40.948 77.4721 40.7C77.9041 40.444 78.4041 40.316 78.9721 40.316C79.5561 40.316 80.0841 40.456 80.5561 40.736C81.0361 41.016 81.4121 41.412 81.6841 41.924C81.9561 42.428 82.0921 43.016 82.0921 43.688C82.0921 44.352 81.9561 44.944 81.6841 45.464C81.4121 45.984 81.0361 46.388 80.5561 46.676C80.0841 46.964 79.5561 47.108 78.9721 47.108C78.4121 47.108 77.9161 46.984 77.4841 46.736C77.0601 46.48 76.7361 46.164 76.5121 45.788V50.12H75.4201V40.424H76.5121V41.636ZM80.9761 43.688C80.9761 43.192 80.8761 42.76 80.6761 42.392C80.4761 42.024 80.2041 41.744 79.8601 41.552C79.5241 41.36 79.1521 41.264 78.7441 41.264C78.3441 41.264 77.9721 41.364 77.6281 41.564C77.2921 41.756 77.0201 42.04 76.8121 42.416C76.6121 42.784 76.5121 43.212 76.5121 43.7C76.5121 44.196 76.6121 44.632 76.8121 45.008C77.0201 45.376 77.2921 45.66 77.6281 45.86C77.9721 46.052 78.3441 46.148 78.7441 46.148C79.1521 46.148 79.5241 46.052 79.8601 45.86C80.2041 45.66 80.4761 45.376 80.6761 45.008C80.8761 44.632 80.9761 44.192 80.9761 43.688ZM86.9615 47L85.4015 44.552L83.9015 47H82.7615L84.8855 43.736L82.7615 40.424H83.9975L85.5575 42.86L87.0455 40.424H88.1855L86.0735 43.676L88.1975 47H86.9615ZM103.273 47L101.281 43.58H99.9613V47H98.8693V38.636H101.569C102.201 38.636 102.733 38.744 103.165 38.96C103.605 39.176 103.933 39.468 104.149 39.836C104.365 40.204 104.473 40.624 104.473 41.096C104.473 41.672 104.305 42.18 103.969 42.62C103.641 43.06 103.145 43.352 102.481 43.496L104.581 47H103.273ZM99.9613 42.704H101.569C102.161 42.704 102.605 42.56 102.901 42.272C103.197 41.976 103.345 41.584 103.345 41.096C103.345 40.6 103.197 40.216 102.901 39.944C102.613 39.672 102.169 39.536 101.569 39.536H99.9613V42.704ZM107.262 39.524V42.32H110.31V43.22H107.262V46.1H110.67V47H106.17V38.624H110.67V39.524H107.262ZM120.806 38.696V47H119.714V40.808L116.954 47H116.186L113.414 40.796V47H112.322V38.696H113.498L116.57 45.56L119.642 38.696H120.806ZM126.206 47.072C125.998 47.072 125.822 47 125.678 46.856C125.534 46.712 125.462 46.536 125.462 46.328C125.462 46.12 125.534 45.944 125.678 45.8C125.822 45.656 125.998 45.584 126.206 45.584C126.406 45.584 126.574 45.656 126.71 45.8C126.854 45.944 126.926 46.12 126.926 46.328C126.926 46.536 126.854 46.712 126.71 46.856C126.574 47 126.406 47.072 126.206 47.072ZM126.206 41.936C125.998 41.936 125.822 41.864 125.678 41.72C125.534 41.576 125.462 41.4 125.462 41.192C125.462 40.984 125.534 40.808 125.678 40.664C125.822 40.52 125.998 40.448 126.206 40.448C126.406 40.448 126.574 40.52 126.71 40.664C126.854 40.808 126.926 40.984 126.926 41.192C126.926 41.4 126.854 41.576 126.71 41.72C126.574 41.864 126.406 41.936 126.206 41.936ZM131.144 39.32V38.324H133.4V47H132.296V39.32H131.144ZM135.803 47.072C135.595 47.072 135.419 47 135.275 46.856C135.131 46.712 135.059 46.536 135.059 46.328C135.059 46.12 135.131 45.944 135.275 45.8C135.419 45.656 135.595 45.584 135.803 45.584C136.003 45.584 136.171 45.656 136.307 45.8C136.451 45.944 136.523 46.12 136.523 46.328C136.523 46.536 136.451 46.712 136.307 46.856C136.171 47 136.003 47.072 135.803 47.072ZM143.327 39.272H139.115V42.008C139.299 41.752 139.571 41.544 139.931 41.384C140.291 41.216 140.679 41.132 141.095 41.132C141.759 41.132 142.299 41.272 142.715 41.552C143.131 41.824 143.427 42.18 143.603 42.62C143.787 43.052 143.879 43.512 143.879 44C143.879 44.576 143.771 45.092 143.555 45.548C143.339 46.004 143.007 46.364 142.559 46.628C142.119 46.892 141.571 47.024 140.915 47.024C140.075 47.024 139.395 46.808 138.875 46.376C138.355 45.944 138.039 45.368 137.927 44.648H138.995C139.099 45.104 139.319 45.46 139.655 45.716C139.991 45.972 140.415 46.1 140.927 46.1C141.559 46.1 142.035 45.912 142.355 45.536C142.675 45.152 142.835 44.648 142.835 44.024C142.835 43.4 142.675 42.92 142.355 42.584C142.035 42.24 141.563 42.068 140.939 42.068C140.515 42.068 140.143 42.172 139.823 42.38C139.511 42.58 139.283 42.856 139.139 43.208H138.107V38.312H143.327V39.272ZM162.598 46.112H165.526V47H161.506V38.636H162.598V46.112ZM167.25 39.356C167.042 39.356 166.866 39.284 166.722 39.14C166.578 38.996 166.506 38.82 166.506 38.612C166.506 38.404 166.578 38.228 166.722 38.084C166.866 37.94 167.042 37.868 167.25 37.868C167.45 37.868 167.618 37.94 167.754 38.084C167.898 38.228 167.97 38.404 167.97 38.612C167.97 38.82 167.898 38.996 167.754 39.14C167.618 39.284 167.45 39.356 167.25 39.356ZM167.778 40.424V47H166.686V40.424H167.778ZM172.843 40.304C173.643 40.304 174.291 40.548 174.787 41.036C175.283 41.516 175.531 42.212 175.531 43.124V47H174.451V43.28C174.451 42.624 174.287 42.124 173.959 41.78C173.631 41.428 173.183 41.252 172.615 41.252C172.039 41.252 171.579 41.432 171.235 41.792C170.899 42.152 170.731 42.676 170.731 43.364V47H169.639V40.424H170.731V41.36C170.947 41.024 171.239 40.764 171.607 40.58C171.983 40.396 172.395 40.304 172.843 40.304ZM183.315 43.46C183.315 43.668 183.303 43.888 183.279 44.12H178.023C178.063 44.768 178.283 45.276 178.683 45.644C179.091 46.004 179.583 46.184 180.159 46.184C180.631 46.184 181.023 46.076 181.335 45.86C181.655 45.636 181.879 45.34 182.007 44.972H183.183C183.007 45.604 182.655 46.12 182.127 46.52C181.599 46.912 180.943 47.108 180.159 47.108C179.535 47.108 178.975 46.968 178.479 46.688C177.991 46.408 177.607 46.012 177.327 45.5C177.047 44.98 176.907 44.38 176.907 43.7C176.907 43.02 177.043 42.424 177.315 41.912C177.587 41.4 177.967 41.008 178.455 40.736C178.951 40.456 179.519 40.316 180.159 40.316C180.783 40.316 181.335 40.452 181.815 40.724C182.295 40.996 182.663 41.372 182.919 41.852C183.183 42.324 183.315 42.86 183.315 43.46ZM182.187 43.232C182.187 42.816 182.095 42.46 181.911 42.164C181.727 41.86 181.475 41.632 181.155 41.48C180.843 41.32 180.495 41.24 180.111 41.24C179.559 41.24 179.087 41.416 178.695 41.768C178.311 42.12 178.091 42.608 178.035 43.232H182.187ZM190.607 47.084C190.055 47.084 189.559 46.988 189.119 46.796C188.687 46.596 188.347 46.324 188.099 45.98C187.851 45.628 187.723 45.224 187.715 44.768H188.879C188.919 45.16 189.079 45.492 189.359 45.764C189.647 46.028 190.063 46.16 190.607 46.16C191.127 46.16 191.535 46.032 191.831 45.776C192.135 45.512 192.287 45.176 192.287 44.768C192.287 44.448 192.199 44.188 192.023 43.988C191.847 43.788 191.627 43.636 191.363 43.532C191.099 43.428 190.743 43.316 190.295 43.196C189.743 43.052 189.299 42.908 188.963 42.764C188.635 42.62 188.351 42.396 188.111 42.092C187.879 41.78 187.763 41.364 187.763 40.844C187.763 40.388 187.879 39.984 188.111 39.632C188.343 39.28 188.667 39.008 189.083 38.816C189.507 38.624 189.991 38.528 190.535 38.528C191.319 38.528 191.959 38.724 192.455 39.116C192.959 39.508 193.243 40.028 193.307 40.676H192.107C192.067 40.356 191.899 40.076 191.603 39.836C191.307 39.588 190.915 39.464 190.427 39.464C189.971 39.464 189.599 39.584 189.311 39.824C189.023 40.056 188.879 40.384 188.879 40.808C188.879 41.112 188.963 41.36 189.131 41.552C189.307 41.744 189.519 41.892 189.767 41.996C190.023 42.092 190.379 42.204 190.835 42.332C191.387 42.484 191.831 42.636 192.167 42.788C192.503 42.932 192.791 43.16 193.031 43.472C193.271 43.776 193.391 44.192 193.391 44.72C193.391 45.128 193.283 45.512 193.067 45.872C192.851 46.232 192.531 46.524 192.107 46.748C191.683 46.972 191.183 47.084 190.607 47.084ZM196.09 41.636C196.306 41.26 196.626 40.948 197.05 40.7C197.482 40.444 197.982 40.316 198.55 40.316C199.134 40.316 199.662 40.456 200.134 40.736C200.614 41.016 200.99 41.412 201.262 41.924C201.534 42.428 201.67 43.016 201.67 43.688C201.67 44.352 201.534 44.944 201.262 45.464C200.99 45.984 200.614 46.388 200.134 46.676C199.662 46.964 199.134 47.108 198.55 47.108C197.99 47.108 197.494 46.984 197.062 46.736C196.638 46.48 196.314 46.164 196.09 45.788V50.12H194.998V40.424H196.09V41.636ZM200.554 43.688C200.554 43.192 200.454 42.76 200.254 42.392C200.054 42.024 199.782 41.744 199.438 41.552C199.102 41.36 198.73 41.264 198.322 41.264C197.922 41.264 197.55 41.364 197.206 41.564C196.87 41.756 196.598 42.04 196.39 42.416C196.19 42.784 196.09 43.212 196.09 43.7C196.09 44.196 196.19 44.632 196.39 45.008C196.598 45.376 196.87 45.66 197.206 45.86C197.55 46.052 197.922 46.148 198.322 46.148C198.73 46.148 199.102 46.052 199.438 45.86C199.782 45.66 200.054 45.376 200.254 45.008C200.454 44.632 200.554 44.192 200.554 43.688ZM202.7 43.688C202.7 43.016 202.836 42.428 203.108 41.924C203.38 41.412 203.752 41.016 204.224 40.736C204.704 40.456 205.236 40.316 205.82 40.316C206.396 40.316 206.896 40.44 207.32 40.688C207.744 40.936 208.06 41.248 208.268 41.624V40.424H209.372V47H208.268V45.776C208.052 46.16 207.728 46.48 207.296 46.736C206.872 46.984 206.376 47.108 205.808 47.108C205.224 47.108 204.696 46.964 204.224 46.676C203.752 46.388 203.38 45.984 203.108 45.464C202.836 44.944 202.7 44.352 202.7 43.688ZM208.268 43.7C208.268 43.204 208.168 42.772 207.968 42.404C207.768 42.036 207.496 41.756 207.152 41.564C206.816 41.364 206.444 41.264 206.036 41.264C205.628 41.264 205.256 41.36 204.92 41.552C204.584 41.744 204.316 42.024 204.116 42.392C203.916 42.76 203.816 43.192 203.816 43.688C203.816 44.192 203.916 44.632 204.116 45.008C204.316 45.376 204.584 45.66 204.92 45.86C205.256 46.052 205.628 46.148 206.036 46.148C206.444 46.148 206.816 46.052 207.152 45.86C207.496 45.66 207.768 45.376 207.968 45.008C208.168 44.632 208.268 44.196 208.268 43.7ZM210.809 43.7C210.809 43.02 210.945 42.428 211.217 41.924C211.489 41.412 211.865 41.016 212.345 40.736C212.833 40.456 213.389 40.316 214.013 40.316C214.821 40.316 215.485 40.512 216.005 40.904C216.533 41.296 216.881 41.84 217.049 42.536H215.873C215.761 42.136 215.541 41.82 215.213 41.588C214.893 41.356 214.493 41.24 214.013 41.24C213.389 41.24 212.885 41.456 212.501 41.888C212.117 42.312 211.925 42.916 211.925 43.7C211.925 44.492 212.117 45.104 212.501 45.536C212.885 45.968 213.389 46.184 214.013 46.184C214.493 46.184 214.893 46.072 215.213 45.848C215.533 45.624 215.753 45.304 215.873 44.888H217.049C216.873 45.56 216.521 46.1 215.993 46.508C215.465 46.908 214.805 47.108 214.013 47.108C213.389 47.108 212.833 46.968 212.345 46.688C211.865 46.408 211.489 46.012 211.217 45.5C210.945 44.988 210.809 44.388 210.809 43.7ZM219.07 39.356C218.862 39.356 218.686 39.284 218.542 39.14C218.398 38.996 218.326 38.82 218.326 38.612C218.326 38.404 218.398 38.228 218.542 38.084C218.686 37.94 218.862 37.868 219.07 37.868C219.27 37.868 219.438 37.94 219.574 38.084C219.718 38.228 219.79 38.404 219.79 38.612C219.79 38.82 219.718 38.996 219.574 39.14C219.438 39.284 219.27 39.356 219.07 39.356ZM219.598 40.424V47H218.506V40.424H219.598ZM224.663 40.304C225.463 40.304 226.111 40.548 226.607 41.036C227.103 41.516 227.351 42.212 227.351 43.124V47H226.271V43.28C226.271 42.624 226.107 42.124 225.779 41.78C225.451 41.428 225.003 41.252 224.435 41.252C223.859 41.252 223.399 41.432 223.055 41.792C222.719 42.152 222.551 42.676 222.551 43.364V47H221.459V40.424H222.551V41.36C222.767 41.024 223.059 40.764 223.427 40.58C223.803 40.396 224.215 40.304 224.663 40.304ZM231.847 40.316C232.415 40.316 232.911 40.44 233.335 40.688C233.767 40.936 234.087 41.248 234.295 41.624V40.424H235.399V47.144C235.399 47.744 235.271 48.276 235.015 48.74C234.759 49.212 234.391 49.58 233.911 49.844C233.439 50.108 232.887 50.24 232.255 50.24C231.391 50.24 230.671 50.036 230.095 49.628C229.519 49.22 229.179 48.664 229.075 47.96H230.155C230.275 48.36 230.523 48.68 230.899 48.92C231.275 49.168 231.727 49.292 232.255 49.292C232.855 49.292 233.343 49.104 233.719 48.728C234.103 48.352 234.295 47.824 234.295 47.144V45.764C234.079 46.148 233.759 46.468 233.335 46.724C232.911 46.98 232.415 47.108 231.847 47.108C231.263 47.108 230.731 46.964 230.251 46.676C229.779 46.388 229.407 45.984 229.135 45.464C228.863 44.944 228.727 44.352 228.727 43.688C228.727 43.016 228.863 42.428 229.135 41.924C229.407 41.412 229.779 41.016 230.251 40.736C230.731 40.456 231.263 40.316 231.847 40.316ZM234.295 43.7C234.295 43.204 234.195 42.772 233.995 42.404C233.795 42.036 233.523 41.756 233.179 41.564C232.843 41.364 232.471 41.264 232.063 41.264C231.655 41.264 231.283 41.36 230.947 41.552C230.611 41.744 230.343 42.024 230.143 42.392C229.943 42.76 229.843 43.192 229.843 43.688C229.843 44.192 229.943 44.632 230.143 45.008C230.343 45.376 230.611 45.66 230.947 45.86C231.283 46.052 231.655 46.148 232.063 46.148C232.471 46.148 232.843 46.052 233.179 45.86C233.523 45.66 233.795 45.376 233.995 45.008C234.195 44.632 234.295 44.196 234.295 43.7ZM237.592 47.072C237.384 47.072 237.208 47 237.064 46.856C236.92 46.712 236.848 46.536 236.848 46.328C236.848 46.12 236.92 45.944 237.064 45.8C237.208 45.656 237.384 45.584 237.592 45.584C237.792 45.584 237.96 45.656 238.096 45.8C238.24 45.944 238.312 46.12 238.312 46.328C238.312 46.536 238.24 46.712 238.096 46.856C237.96 47 237.792 47.072 237.592 47.072ZM237.592 41.936C237.384 41.936 237.208 41.864 237.064 41.72C236.92 41.576 236.848 41.4 236.848 41.192C236.848 40.984 236.92 40.808 237.064 40.664C237.208 40.52 237.384 40.448 237.592 40.448C237.792 40.448 237.96 40.52 238.096 40.664C238.24 40.808 238.312 40.984 238.312 41.192C238.312 41.4 238.24 41.576 238.096 41.72C237.96 41.864 237.792 41.936 237.592 41.936ZM242.794 40.508C242.85 39.772 243.134 39.196 243.646 38.78C244.158 38.364 244.822 38.156 245.638 38.156C246.182 38.156 246.65 38.256 247.042 38.456C247.442 38.648 247.742 38.912 247.942 39.248C248.15 39.584 248.254 39.964 248.254 40.388C248.254 40.884 248.11 41.312 247.822 41.672C247.542 42.032 247.174 42.264 246.718 42.368V42.428C247.238 42.556 247.65 42.808 247.954 43.184C248.258 43.56 248.41 44.052 248.41 44.66C248.41 45.116 248.306 45.528 248.098 45.896C247.89 46.256 247.578 46.54 247.162 46.748C246.746 46.956 246.246 47.06 245.662 47.06C244.814 47.06 244.118 46.84 243.574 46.4C243.03 45.952 242.726 45.32 242.662 44.504H243.718C243.774 44.984 243.97 45.376 244.306 45.68C244.642 45.984 245.09 46.136 245.65 46.136C246.21 46.136 246.634 45.992 246.922 45.704C247.218 45.408 247.366 45.028 247.366 44.564C247.366 43.964 247.166 43.532 246.766 43.268C246.366 43.004 245.762 42.872 244.954 42.872H244.678V41.96H244.966C245.702 41.952 246.258 41.832 246.634 41.6C247.01 41.36 247.198 40.992 247.198 40.496C247.198 40.072 247.058 39.732 246.778 39.476C246.506 39.22 246.114 39.092 245.602 39.092C245.106 39.092 244.706 39.22 244.402 39.476C244.098 39.732 243.918 40.076 243.862 40.508H242.794ZM249.753 46.124C250.769 45.308 251.565 44.64 252.141 44.12C252.717 43.592 253.201 43.044 253.593 42.476C253.993 41.9 254.193 41.336 254.193 40.784C254.193 40.264 254.065 39.856 253.809 39.56C253.561 39.256 253.157 39.104 252.597 39.104C252.053 39.104 251.629 39.276 251.325 39.62C251.029 39.956 250.869 40.408 250.845 40.976H249.789C249.821 40.08 250.093 39.388 250.605 38.9C251.117 38.412 251.777 38.168 252.585 38.168C253.409 38.168 254.061 38.396 254.541 38.852C255.029 39.308 255.273 39.936 255.273 40.736C255.273 41.4 255.073 42.048 254.673 42.68C254.281 43.304 253.833 43.856 253.329 44.336C252.825 44.808 252.181 45.36 251.397 45.992H255.525V46.904H249.753V46.124Z" fill="#616161"/>
</svg>
