<svg width="427" height="16" viewBox="0 0 427 16" fill="none" xmlns="http://www.w3.org/2000/svg">
<path d="M0.516 7.812C0.516 6.996 0.7 6.264 1.068 5.616C1.436 4.96 1.936 4.448 2.568 4.08C3.208 3.712 3.916 3.528 4.692 3.528C5.604 3.528 6.4 3.748 7.08 4.188C7.76 4.628 8.256 5.252 8.568 6.06H7.26C7.028 5.556 6.692 5.168 6.252 4.896C5.82 4.624 5.3 4.488 4.692 4.488C4.108 4.488 3.584 4.624 3.12 4.896C2.656 5.168 2.292 5.556 2.028 6.06C1.764 6.556 1.632 7.14 1.632 7.812C1.632 8.476 1.764 9.06 2.028 9.564C2.292 10.06 2.656 10.444 3.12 10.716C3.584 10.988 4.108 11.124 4.692 11.124C5.3 11.124 5.82 10.992 6.252 10.728C6.692 10.456 7.028 10.068 7.26 9.564H8.568C8.256 10.364 7.76 10.984 7.08 11.424C6.4 11.856 5.604 12.072 4.692 12.072C3.916 12.072 3.208 11.892 2.568 11.532C1.936 11.164 1.436 10.656 1.068 10.008C0.7 9.36 0.516 8.628 0.516 7.812ZM9.78553 8.688C9.78553 8.016 9.92153 7.428 10.1935 6.924C10.4655 6.412 10.8375 6.016 11.3095 5.736C11.7895 5.456 12.3215 5.316 12.9055 5.316C13.4815 5.316 13.9815 5.44 14.4055 5.688C14.8295 5.936 15.1455 6.248 15.3535 6.624V5.424H16.4575V12H15.3535V10.776C15.1375 11.16 14.8135 11.48 14.3815 11.736C13.9575 11.984 13.4615 12.108 12.8935 12.108C12.3095 12.108 11.7815 11.964 11.3095 11.676C10.8375 11.388 10.4655 10.984 10.1935 10.464C9.92153 9.944 9.78553 9.352 9.78553 8.688ZM15.3535 8.7C15.3535 8.204 15.2535 7.772 15.0535 7.404C14.8535 7.036 14.5815 6.756 14.2375 6.564C13.9015 6.364 13.5295 6.264 13.1215 6.264C12.7135 6.264 12.3415 6.36 12.0055 6.552C11.6695 6.744 11.4015 7.024 11.2015 7.392C11.0015 7.76 10.9015 8.192 10.9015 8.688C10.9015 9.192 11.0015 9.632 11.2015 10.008C11.4015 10.376 11.6695 10.66 12.0055 10.86C12.3415 11.052 12.7135 11.148 13.1215 11.148C13.5295 11.148 13.9015 11.052 14.2375 10.86C14.5815 10.66 14.8535 10.376 15.0535 10.008C15.2535 9.632 15.3535 9.196 15.3535 8.7ZM19.3949 6.636C19.6109 6.26 19.9309 5.948 20.3549 5.7C20.7869 5.444 21.2869 5.316 21.8549 5.316C22.4389 5.316 22.9669 5.456 23.4389 5.736C23.9189 6.016 24.2949 6.412 24.5669 6.924C24.8389 7.428 24.9749 8.016 24.9749 8.688C24.9749 9.352 24.8389 9.944 24.5669 10.464C24.2949 10.984 23.9189 11.388 23.4389 11.676C22.9669 11.964 22.4389 12.108 21.8549 12.108C21.2949 12.108 20.7989 11.984 20.3669 11.736C19.9429 11.48 19.6189 11.164 19.3949 10.788V15.12H18.3029V5.424H19.3949V6.636ZM23.8589 8.688C23.8589 8.192 23.7589 7.76 23.5589 7.392C23.3589 7.024 23.0869 6.744 22.7429 6.552C22.4069 6.36 22.0349 6.264 21.6269 6.264C21.2269 6.264 20.8549 6.364 20.5109 6.564C20.1749 6.756 19.9029 7.04 19.6949 7.416C19.4949 7.784 19.3949 8.212 19.3949 8.7C19.3949 9.196 19.4949 9.632 19.6949 10.008C19.9029 10.376 20.1749 10.66 20.5109 10.86C20.8549 11.052 21.2269 11.148 21.6269 11.148C22.0349 11.148 22.4069 11.052 22.7429 10.86C23.0869 10.66 23.3589 10.376 23.5589 10.008C23.7589 9.632 23.8589 9.192 23.8589 8.688ZM27.7443 6.324V10.2C27.7443 10.52 27.8123 10.748 27.9483 10.884C28.0843 11.012 28.3203 11.076 28.6563 11.076H29.4603V12H28.4763C27.8683 12 27.4123 11.86 27.1083 11.58C26.8043 11.3 26.6523 10.84 26.6523 10.2V6.324H25.8003V5.424H26.6523V3.768H27.7443V5.424H29.4603V6.324H27.7443ZM31.3474 4.356C31.1394 4.356 30.9634 4.284 30.8194 4.14C30.6754 3.996 30.6034 3.82 30.6034 3.612C30.6034 3.404 30.6754 3.228 30.8194 3.084C30.9634 2.94 31.1394 2.868 31.3474 2.868C31.5474 2.868 31.7154 2.94 31.8514 3.084C31.9954 3.228 32.0674 3.404 32.0674 3.612C32.0674 3.82 31.9954 3.996 31.8514 4.14C31.7154 4.284 31.5474 4.356 31.3474 4.356ZM31.8754 5.424V12H30.7834V5.424H31.8754ZM36.6045 12.108C35.9885 12.108 35.4285 11.968 34.9245 11.688C34.4285 11.408 34.0365 11.012 33.7485 10.5C33.4685 9.98 33.3285 9.38 33.3285 8.7C33.3285 8.028 33.4725 7.436 33.7605 6.924C34.0565 6.404 34.4565 6.008 34.9605 5.736C35.4645 5.456 36.0285 5.316 36.6525 5.316C37.2765 5.316 37.8405 5.456 38.3445 5.736C38.8485 6.008 39.2445 6.4 39.5325 6.912C39.8285 7.424 39.9765 8.02 39.9765 8.7C39.9765 9.38 39.8245 9.98 39.5205 10.5C39.2245 11.012 38.8205 11.408 38.3085 11.688C37.7965 11.968 37.2285 12.108 36.6045 12.108ZM36.6045 11.148C36.9965 11.148 37.3645 11.056 37.7085 10.872C38.0525 10.688 38.3285 10.412 38.5365 10.044C38.7525 9.676 38.8605 9.228 38.8605 8.7C38.8605 8.172 38.7565 7.724 38.5485 7.356C38.3405 6.988 38.0685 6.716 37.7325 6.54C37.3965 6.356 37.0325 6.264 36.6405 6.264C36.2405 6.264 35.8725 6.356 35.5365 6.54C35.2085 6.716 34.9445 6.988 34.7445 7.356C34.5445 7.724 34.4445 8.172 34.4445 8.7C34.4445 9.236 34.5405 9.688 34.7325 10.056C34.9325 10.424 35.1965 10.7 35.5245 10.884C35.8525 11.06 36.2125 11.148 36.6045 11.148ZM44.6163 5.304C45.4163 5.304 46.0643 5.548 46.5603 6.036C47.0563 6.516 47.3043 7.212 47.3043 8.124V12H46.2243V8.28C46.2243 7.624 46.0603 7.124 45.7323 6.78C45.4043 6.428 44.9563 6.252 44.3883 6.252C43.8123 6.252 43.3523 6.432 43.0083 6.792C42.6723 7.152 42.5043 7.676 42.5043 8.364V12H41.4123V5.424H42.5043V6.36C42.7203 6.024 43.0123 5.764 43.3803 5.58C43.7563 5.396 44.1683 5.304 44.6163 5.304ZM56.8473 7.14V8.064H52.0593V7.14H56.8473ZM63.1879 11.112H66.1159V12H62.0959V3.636H63.1879V11.112ZM66.8676 8.688C66.8676 8.016 67.0036 7.428 67.2756 6.924C67.5476 6.412 67.9196 6.016 68.3916 5.736C68.8716 5.456 69.4036 5.316 69.9876 5.316C70.5636 5.316 71.0636 5.44 71.4876 5.688C71.9116 5.936 72.2276 6.248 72.4356 6.624V5.424H73.5396V12H72.4356V10.776C72.2196 11.16 71.8956 11.48 71.4636 11.736C71.0396 11.984 70.5436 12.108 69.9756 12.108C69.3916 12.108 68.8636 11.964 68.3916 11.676C67.9196 11.388 67.5476 10.984 67.2756 10.464C67.0036 9.944 66.8676 9.352 66.8676 8.688ZM72.4356 8.7C72.4356 8.204 72.3356 7.772 72.1356 7.404C71.9356 7.036 71.6636 6.756 71.3196 6.564C70.9836 6.364 70.6116 6.264 70.2036 6.264C69.7956 6.264 69.4236 6.36 69.0876 6.552C68.7516 6.744 68.4836 7.024 68.2836 7.392C68.0836 7.76 67.9836 8.192 67.9836 8.688C67.9836 9.192 68.0836 9.632 68.2836 10.008C68.4836 10.376 68.7516 10.66 69.0876 10.86C69.4236 11.052 69.7956 11.148 70.2036 11.148C70.6116 11.148 70.9836 11.052 71.3196 10.86C71.6636 10.66 71.9356 10.376 72.1356 10.008C72.3356 9.632 72.4356 9.196 72.4356 8.7ZM76.4769 6.648C76.7009 6.256 77.0289 5.936 77.4609 5.688C77.8929 5.44 78.3849 5.316 78.9369 5.316C79.5289 5.316 80.0609 5.456 80.5329 5.736C81.0049 6.016 81.3769 6.412 81.6489 6.924C81.9209 7.428 82.0569 8.016 82.0569 8.688C82.0569 9.352 81.9209 9.944 81.6489 10.464C81.3769 10.984 81.0009 11.388 80.5209 11.676C80.0489 11.964 79.5209 12.108 78.9369 12.108C78.3689 12.108 77.8689 11.984 77.4369 11.736C77.0129 11.488 76.6929 11.172 76.4769 10.788V12H75.3849V3.12H76.4769V6.648ZM80.9409 8.688C80.9409 8.192 80.8409 7.76 80.6409 7.392C80.4409 7.024 80.1689 6.744 79.8249 6.552C79.4889 6.36 79.1169 6.264 78.7089 6.264C78.3089 6.264 77.9369 6.364 77.5929 6.564C77.2569 6.756 76.9849 7.04 76.7769 7.416C76.5769 7.784 76.4769 8.212 76.4769 8.7C76.4769 9.196 76.5769 9.632 76.7769 10.008C76.9849 10.376 77.2569 10.66 77.5929 10.86C77.9369 11.052 78.3089 11.148 78.7089 11.148C79.1169 11.148 79.4889 11.052 79.8249 10.86C80.1689 10.66 80.4409 10.376 80.6409 10.008C80.8409 9.632 80.9409 9.192 80.9409 8.688ZM89.4943 8.46C89.4943 8.668 89.4823 8.888 89.4583 9.12H84.2023C84.2423 9.768 84.4623 10.276 84.8623 10.644C85.2703 11.004 85.7623 11.184 86.3383 11.184C86.8103 11.184 87.2023 11.076 87.5143 10.86C87.8343 10.636 88.0583 10.34 88.1863 9.972H89.3623C89.1863 10.604 88.8343 11.12 88.3063 11.52C87.7783 11.912 87.1223 12.108 86.3383 12.108C85.7143 12.108 85.1543 11.968 84.6583 11.688C84.1703 11.408 83.7863 11.012 83.5063 10.5C83.2263 9.98 83.0863 9.38 83.0863 8.7C83.0863 8.02 83.2223 7.424 83.4943 6.912C83.7663 6.4 84.1463 6.008 84.6343 5.736C85.1303 5.456 85.6983 5.316 86.3383 5.316C86.9623 5.316 87.5143 5.452 87.9943 5.724C88.4743 5.996 88.8423 6.372 89.0983 6.852C89.3623 7.324 89.4943 7.86 89.4943 8.46ZM88.3663 8.232C88.3663 7.816 88.2743 7.46 88.0903 7.164C87.9063 6.86 87.6543 6.632 87.3343 6.48C87.0223 6.32 86.6743 6.24 86.2903 6.24C85.7383 6.24 85.2663 6.416 84.8743 6.768C84.4903 7.12 84.2703 7.608 84.2143 8.232H88.3663ZM92.0277 3.12V12H90.9357V3.12H92.0277ZM96.2168 12.108C95.7128 12.108 95.2608 12.024 94.8608 11.856C94.4608 11.68 94.1448 11.44 93.9128 11.136C93.6808 10.824 93.5528 10.468 93.5288 10.068H94.6568C94.6888 10.396 94.8408 10.664 95.1128 10.872C95.3928 11.08 95.7568 11.184 96.2048 11.184C96.6208 11.184 96.9488 11.092 97.1888 10.908C97.4288 10.724 97.5488 10.492 97.5488 10.212C97.5488 9.924 97.4208 9.712 97.1648 9.576C96.9088 9.432 96.5128 9.292 95.9768 9.156C95.4888 9.028 95.0888 8.9 94.7768 8.772C94.4728 8.636 94.2088 8.44 93.9848 8.184C93.7688 7.92 93.6608 7.576 93.6608 7.152C93.6608 6.816 93.7608 6.508 93.9608 6.228C94.1608 5.948 94.4448 5.728 94.8128 5.568C95.1808 5.4 95.6008 5.316 96.0728 5.316C96.8008 5.316 97.3888 5.5 97.8368 5.868C98.2848 6.236 98.5248 6.74 98.5568 7.38H97.4648C97.4408 7.036 97.3008 6.76 97.0448 6.552C96.7968 6.344 96.4608 6.24 96.0368 6.24C95.6448 6.24 95.3328 6.324 95.1008 6.492C94.8688 6.66 94.7528 6.88 94.7528 7.152C94.7528 7.368 94.8208 7.548 94.9568 7.692C95.1008 7.828 95.2768 7.94 95.4848 8.028C95.7008 8.108 95.9968 8.2 96.3728 8.304C96.8448 8.432 97.2288 8.56 97.5248 8.688C97.8208 8.808 98.0728 8.992 98.2808 9.24C98.4968 9.488 98.6088 9.812 98.6168 10.212C98.6168 10.572 98.5168 10.896 98.3168 11.184C98.1168 11.472 97.8328 11.7 97.4648 11.868C97.1048 12.028 96.6888 12.108 96.2168 12.108ZM101.286 10.488L99.9424 13.716H99.2104L100.086 10.488H101.286ZM110.885 3.636V4.524H108.605V12H107.513V4.524H105.221V3.636H110.885ZM111.821 8.688C111.821 8.016 111.957 7.428 112.229 6.924C112.501 6.412 112.873 6.016 113.345 5.736C113.825 5.456 114.357 5.316 114.941 5.316C115.517 5.316 116.017 5.44 116.441 5.688C116.865 5.936 117.181 6.248 117.389 6.624V5.424H118.493V12H117.389V10.776C117.173 11.16 116.849 11.48 116.417 11.736C115.993 11.984 115.497 12.108 114.929 12.108C114.345 12.108 113.817 11.964 113.345 11.676C112.873 11.388 112.501 10.984 112.229 10.464C111.957 9.944 111.821 9.352 111.821 8.688ZM117.389 8.7C117.389 8.204 117.289 7.772 117.089 7.404C116.889 7.036 116.617 6.756 116.273 6.564C115.937 6.364 115.565 6.264 115.157 6.264C114.749 6.264 114.377 6.36 114.041 6.552C113.705 6.744 113.437 7.024 113.237 7.392C113.037 7.76 112.937 8.192 112.937 8.688C112.937 9.192 113.037 9.632 113.237 10.008C113.437 10.376 113.705 10.66 114.041 10.86C114.377 11.052 114.749 11.148 115.157 11.148C115.565 11.148 115.937 11.052 116.273 10.86C116.617 10.66 116.889 10.376 117.089 10.008C117.289 9.632 117.389 9.196 117.389 8.7ZM123.05 5.316C123.618 5.316 124.114 5.44 124.538 5.688C124.97 5.936 125.29 6.248 125.498 6.624V5.424H126.602V12.144C126.602 12.744 126.474 13.276 126.218 13.74C125.962 14.212 125.594 14.58 125.114 14.844C124.642 15.108 124.09 15.24 123.458 15.24C122.594 15.24 121.874 15.036 121.298 14.628C120.722 14.22 120.382 13.664 120.278 12.96H121.358C121.478 13.36 121.726 13.68 122.102 13.92C122.478 14.168 122.93 14.292 123.458 14.292C124.058 14.292 124.546 14.104 124.922 13.728C125.306 13.352 125.498 12.824 125.498 12.144V10.764C125.282 11.148 124.962 11.468 124.538 11.724C124.114 11.98 123.618 12.108 123.05 12.108C122.466 12.108 121.934 11.964 121.454 11.676C120.982 11.388 120.61 10.984 120.338 10.464C120.066 9.944 119.93 9.352 119.93 8.688C119.93 8.016 120.066 7.428 120.338 6.924C120.61 6.412 120.982 6.016 121.454 5.736C121.934 5.456 122.466 5.316 123.05 5.316ZM125.498 8.7C125.498 8.204 125.398 7.772 125.198 7.404C124.998 7.036 124.726 6.756 124.382 6.564C124.046 6.364 123.674 6.264 123.266 6.264C122.858 6.264 122.486 6.36 122.15 6.552C121.814 6.744 121.546 7.024 121.346 7.392C121.146 7.76 121.046 8.192 121.046 8.688C121.046 9.192 121.146 9.632 121.346 10.008C121.546 10.376 121.814 10.66 122.15 10.86C122.486 11.052 122.858 11.148 123.266 11.148C123.674 11.148 124.046 11.052 124.382 10.86C124.726 10.66 124.998 10.376 125.198 10.008C125.398 9.632 125.498 9.196 125.498 8.7ZM130.775 12.108C130.271 12.108 129.819 12.024 129.419 11.856C129.019 11.68 128.703 11.44 128.471 11.136C128.239 10.824 128.111 10.468 128.087 10.068H129.215C129.247 10.396 129.399 10.664 129.671 10.872C129.951 11.08 130.315 11.184 130.763 11.184C131.179 11.184 131.507 11.092 131.747 10.908C131.987 10.724 132.107 10.492 132.107 10.212C132.107 9.924 131.979 9.712 131.723 9.576C131.467 9.432 131.071 9.292 130.535 9.156C130.047 9.028 129.647 8.9 129.335 8.772C129.031 8.636 128.767 8.44 128.543 8.184C128.327 7.92 128.219 7.576 128.219 7.152C128.219 6.816 128.319 6.508 128.519 6.228C128.719 5.948 129.003 5.728 129.371 5.568C129.739 5.4 130.159 5.316 130.631 5.316C131.359 5.316 131.947 5.5 132.395 5.868C132.843 6.236 133.083 6.74 133.115 7.38H132.023C131.999 7.036 131.859 6.76 131.603 6.552C131.355 6.344 131.019 6.24 130.595 6.24C130.203 6.24 129.891 6.324 129.659 6.492C129.427 6.66 129.311 6.88 129.311 7.152C129.311 7.368 129.379 7.548 129.515 7.692C129.659 7.828 129.835 7.94 130.043 8.028C130.259 8.108 130.555 8.2 130.931 8.304C131.403 8.432 131.787 8.56 132.083 8.688C132.379 8.808 132.631 8.992 132.839 9.24C133.055 9.488 133.167 9.812 133.175 10.212C133.175 10.572 133.075 10.896 132.875 11.184C132.675 11.472 132.391 11.7 132.023 11.868C131.663 12.028 131.247 12.108 130.775 12.108ZM135.845 10.488L134.501 13.716H133.769L134.645 10.488H135.845ZM146.739 3.636V12H145.647V8.208H141.387V12H140.295V3.636H141.387V7.308H145.647V3.636H146.739ZM149.168 4.356C148.96 4.356 148.784 4.284 148.64 4.14C148.496 3.996 148.424 3.82 148.424 3.612C148.424 3.404 148.496 3.228 148.64 3.084C148.784 2.94 148.96 2.868 149.168 2.868C149.368 2.868 149.536 2.94 149.672 3.084C149.816 3.228 149.888 3.404 149.888 3.612C149.888 3.82 149.816 3.996 149.672 4.14C149.536 4.284 149.368 4.356 149.168 4.356ZM149.696 5.424V12H148.604V5.424H149.696ZM154.761 5.304C155.561 5.304 156.209 5.548 156.705 6.036C157.201 6.516 157.449 7.212 157.449 8.124V12H156.369V8.28C156.369 7.624 156.205 7.124 155.877 6.78C155.549 6.428 155.101 6.252 154.533 6.252C153.957 6.252 153.497 6.432 153.153 6.792C152.817 7.152 152.649 7.676 152.649 8.364V12H151.557V5.424H152.649V6.36C152.865 6.024 153.157 5.764 153.525 5.58C153.901 5.396 154.313 5.304 154.761 5.304ZM160.565 6.324V10.2C160.565 10.52 160.633 10.748 160.769 10.884C160.905 11.012 161.141 11.076 161.477 11.076H162.281V12H161.297C160.689 12 160.233 11.86 159.929 11.58C159.625 11.3 159.473 10.84 159.473 10.2V6.324H158.621V5.424H159.473V3.768H160.565V5.424H162.281V6.324H160.565ZM165.932 12.108C165.428 12.108 164.976 12.024 164.576 11.856C164.176 11.68 163.86 11.44 163.628 11.136C163.396 10.824 163.268 10.468 163.244 10.068H164.372C164.404 10.396 164.556 10.664 164.828 10.872C165.108 11.08 165.472 11.184 165.92 11.184C166.336 11.184 166.664 11.092 166.904 10.908C167.144 10.724 167.264 10.492 167.264 10.212C167.264 9.924 167.136 9.712 166.88 9.576C166.624 9.432 166.228 9.292 165.692 9.156C165.204 9.028 164.804 8.9 164.492 8.772C164.188 8.636 163.924 8.44 163.7 8.184C163.484 7.92 163.376 7.576 163.376 7.152C163.376 6.816 163.476 6.508 163.676 6.228C163.876 5.948 164.16 5.728 164.528 5.568C164.896 5.4 165.316 5.316 165.788 5.316C166.516 5.316 167.104 5.5 167.552 5.868C168 6.236 168.24 6.74 168.272 7.38H167.18C167.156 7.036 167.016 6.76 166.76 6.552C166.512 6.344 166.176 6.24 165.752 6.24C165.36 6.24 165.048 6.324 164.816 6.492C164.584 6.66 164.468 6.88 164.468 7.152C164.468 7.368 164.536 7.548 164.672 7.692C164.816 7.828 164.992 7.94 165.2 8.028C165.416 8.108 165.712 8.2 166.088 8.304C166.56 8.432 166.944 8.56 167.24 8.688C167.536 8.808 167.788 8.992 167.996 9.24C168.212 9.488 168.324 9.812 168.332 10.212C168.332 10.572 168.232 10.896 168.032 11.184C167.832 11.472 167.548 11.7 167.18 11.868C166.82 12.028 166.404 12.108 165.932 12.108Z" fill="#3A3A3A"/>
</svg>
