<svg width="427" height="44" viewBox="0 0 427 44" fill="none" xmlns="http://www.w3.org/2000/svg">
<path d="M7.152 12.288C7.74933 12.3947 8.256 12.7093 8.672 13.232C9.088 13.7547 9.296 14.3467 9.296 15.008C9.296 15.5733 9.14667 16.0853 8.848 16.544C8.56 16.992 8.13867 17.3493 7.584 17.616C7.02933 17.872 6.384 18 5.648 18H1.2V6.88H5.44C6.19733 6.88 6.848 7.008 7.392 7.264C7.936 7.52 8.34667 7.86667 8.624 8.304C8.90133 8.73067 9.04 9.21067 9.04 9.744C9.04 10.384 8.86933 10.9173 8.528 11.344C8.18667 11.7707 7.728 12.0853 7.152 12.288ZM3.024 11.552H5.28C5.87733 11.552 6.34133 11.4187 6.672 11.152C7.01333 10.8747 7.184 10.48 7.184 9.968C7.184 9.46667 7.01333 9.07733 6.672 8.8C6.34133 8.512 5.87733 8.368 5.28 8.368H3.024V11.552ZM5.488 16.512C6.10667 16.512 6.592 16.3627 6.944 16.064C7.296 15.7653 7.472 15.3493 7.472 14.816C7.472 14.272 7.28533 13.84 6.912 13.52C6.53867 13.2 6.04267 13.04 5.424 13.04H3.024V16.512H5.488ZM15.1021 18.144C14.2701 18.144 13.5181 17.9573 12.8461 17.584C12.1741 17.2 11.6461 16.6667 11.2621 15.984C10.8781 15.2907 10.6861 14.4907 10.6861 13.584C10.6861 12.688 10.8835 11.8933 11.2781 11.2C11.6728 10.5067 12.2115 9.97333 12.8941 9.6C13.5768 9.22667 14.3395 9.04 15.1821 9.04C16.0248 9.04 16.7875 9.22667 17.4701 9.6C18.1528 9.97333 18.6915 10.5067 19.0861 11.2C19.4808 11.8933 19.6781 12.688 19.6781 13.584C19.6781 14.48 19.4755 15.2747 19.0701 15.968C18.6648 16.6613 18.1101 17.2 17.4061 17.584C16.7128 17.9573 15.9448 18.144 15.1021 18.144ZM15.1021 16.56C15.5715 16.56 16.0088 16.448 16.4141 16.224C16.8301 16 17.1661 15.664 17.4221 15.216C17.6781 14.768 17.8061 14.224 17.8061 13.584C17.8061 12.944 17.6835 12.4053 17.4381 11.968C17.1928 11.52 16.8675 11.184 16.4621 10.96C16.0568 10.736 15.6195 10.624 15.1501 10.624C14.6808 10.624 14.2435 10.736 13.8381 10.96C13.4435 11.184 13.1288 11.52 12.8941 11.968C12.6595 12.4053 12.5421 12.944 12.5421 13.584C12.5421 14.5333 12.7821 15.2693 13.2621 15.792C13.7528 16.304 14.3661 16.56 15.1021 16.56ZM20.8733 13.552C20.8733 12.6667 21.0546 11.8827 21.4173 11.2C21.7906 10.5173 22.2919 9.98933 22.9213 9.616C23.5613 9.232 24.2706 9.04 25.0493 9.04C25.6253 9.04 26.1906 9.168 26.7453 9.424C27.3106 9.66933 27.7586 10 28.0893 10.416V6.16H29.9293V18H28.0893V16.672C27.7906 17.0987 27.3746 17.4507 26.8413 17.728C26.3186 18.0053 25.7159 18.144 25.0333 18.144C24.2653 18.144 23.5613 17.952 22.9213 17.568C22.2919 17.1733 21.7906 16.6293 21.4173 15.936C21.0546 15.232 20.8733 14.4373 20.8733 13.552ZM28.0893 13.584C28.0893 12.976 27.9613 12.448 27.7053 12C27.4599 11.552 27.1346 11.2107 26.7293 10.976C26.3239 10.7413 25.8866 10.624 25.4173 10.624C24.9479 10.624 24.5106 10.7413 24.1053 10.976C23.6999 11.2 23.3693 11.536 23.1133 11.984C22.8679 12.4213 22.7453 12.944 22.7453 13.552C22.7453 14.16 22.8679 14.6933 23.1133 15.152C23.3693 15.6107 23.6999 15.9627 24.1053 16.208C24.5213 16.4427 24.9586 16.56 25.4173 16.56C25.8866 16.56 26.3239 16.4427 26.7293 16.208C27.1346 15.9733 27.4599 15.632 27.7053 15.184C27.9613 14.7253 28.0893 14.192 28.0893 13.584ZM40.261 9.184L34.853 22.144H32.965L34.757 17.856L31.285 9.184H33.317L35.797 15.904L38.373 9.184H40.261ZM47.6178 16.528H51.3778V18H45.7938V6.88H47.6178V16.528ZM52.2951 13.552C52.2951 12.6667 52.4765 11.8827 52.8391 11.2C53.2125 10.5173 53.7138 9.98933 54.3431 9.616C54.9831 9.232 55.6871 9.04 56.4551 9.04C57.1485 9.04 57.7511 9.17867 58.2631 9.456C58.7858 9.72267 59.2018 10.0587 59.5111 10.464V9.184H61.3511V18H59.5111V16.688C59.2018 17.104 58.7805 17.4507 58.2471 17.728C57.7138 18.0053 57.1058 18.144 56.4231 18.144C55.6658 18.144 54.9725 17.952 54.3431 17.568C53.7138 17.1733 53.2125 16.6293 52.8391 15.936C52.4765 15.232 52.2951 14.4373 52.2951 13.552ZM59.5111 13.584C59.5111 12.976 59.3831 12.448 59.1271 12C58.8818 11.552 58.5565 11.2107 58.1511 10.976C57.7458 10.7413 57.3085 10.624 56.8391 10.624C56.3698 10.624 55.9325 10.7413 55.5271 10.976C55.1218 11.2 54.7911 11.536 54.5351 11.984C54.2898 12.4213 54.1671 12.944 54.1671 13.552C54.1671 14.16 54.2898 14.6933 54.5351 15.152C54.7911 15.6107 55.1218 15.9627 55.5271 16.208C55.9431 16.4427 56.3805 16.56 56.8391 16.56C57.3085 16.56 57.7458 16.4427 58.1511 16.208C58.5565 15.9733 58.8818 15.632 59.1271 15.184C59.3831 14.7253 59.5111 14.192 59.5111 13.584ZM65.5709 10.464C65.8375 10.016 66.1895 9.66933 66.6269 9.424C67.0749 9.168 67.6029 9.04 68.2109 9.04V10.928H67.7469C67.0322 10.928 66.4882 11.1093 66.1149 11.472C65.7522 11.8347 65.5709 12.464 65.5709 13.36V18H63.7469V9.184H65.5709V10.464ZM73.4395 9.04C74.1222 9.04 74.7248 9.17867 75.2475 9.456C75.7808 9.72267 76.1968 10.0587 76.4955 10.464V9.184H78.3355V18.144C78.3355 18.9547 78.1648 19.6747 77.8235 20.304C77.4822 20.944 76.9862 21.4453 76.3355 21.808C75.6955 22.1707 74.9275 22.352 74.0315 22.352C72.8368 22.352 71.8448 22.0693 71.0555 21.504C70.2662 20.9493 69.8182 20.192 69.7115 19.232H71.5195C71.6582 19.6907 71.9515 20.0587 72.3995 20.336C72.8582 20.624 73.4022 20.768 74.0315 20.768C74.7675 20.768 75.3595 20.544 75.8075 20.096C76.2662 19.648 76.4955 18.9973 76.4955 18.144V16.672C76.1862 17.088 75.7648 17.44 75.2315 17.728C74.7088 18.0053 74.1115 18.144 73.4395 18.144C72.6715 18.144 71.9675 17.952 71.3275 17.568C70.6982 17.1733 70.1968 16.6293 69.8235 15.936C69.4608 15.232 69.2795 14.4373 69.2795 13.552C69.2795 12.6667 69.4608 11.8827 69.8235 11.2C70.1968 10.5173 70.6982 9.98933 71.3275 9.616C71.9675 9.232 72.6715 9.04 73.4395 9.04ZM76.4955 13.584C76.4955 12.976 76.3675 12.448 76.1115 12C75.8662 11.552 75.5408 11.2107 75.1355 10.976C74.7302 10.7413 74.2928 10.624 73.8235 10.624C73.3542 10.624 72.9168 10.7413 72.5115 10.976C72.1062 11.2 71.7755 11.536 71.5195 11.984C71.2742 12.4213 71.1515 12.944 71.1515 13.552C71.1515 14.16 71.2742 14.6933 71.5195 15.152C71.7755 15.6107 72.1062 15.9627 72.5115 16.208C72.9275 16.4427 73.3648 16.56 73.8235 16.56C74.2928 16.56 74.7302 16.4427 75.1355 16.208C75.5408 15.9733 75.8662 15.632 76.1115 15.184C76.3675 14.7253 76.4955 14.192 76.4955 13.584ZM88.8113 13.376C88.8113 13.7067 88.7899 14.0053 88.7473 14.272H82.0113C82.0646 14.976 82.3259 15.5413 82.7953 15.968C83.2646 16.3947 83.8406 16.608 84.5233 16.608C85.5046 16.608 86.1979 16.1973 86.6033 15.376H88.5712C88.3046 16.1867 87.8193 16.8533 87.1153 17.376C86.4219 17.888 85.5579 18.144 84.5233 18.144C83.6806 18.144 82.9233 17.9573 82.2513 17.584C81.5899 17.2 81.0673 16.6667 80.6833 15.984C80.3099 15.2907 80.1233 14.4907 80.1233 13.584C80.1233 12.6773 80.3046 11.8827 80.6673 11.2C81.0406 10.5067 81.5579 9.97333 82.2193 9.6C82.8913 9.22667 83.6593 9.04 84.5233 9.04C85.3553 9.04 86.0966 9.22133 86.7473 9.584C87.3979 9.94667 87.9046 10.4587 88.2673 11.12C88.6299 11.7707 88.8113 12.5227 88.8113 13.376ZM86.9073 12.8C86.8966 12.128 86.6566 11.5893 86.1873 11.184C85.7179 10.7787 85.1366 10.576 84.4433 10.576C83.8139 10.576 83.2753 10.7787 82.8273 11.184C82.3793 11.5787 82.1126 12.1173 82.0273 12.8H86.9073ZM92.6063 15.808L90.6703 20.224H89.4863L90.6223 15.808H92.6063ZM110.068 6.88V18H108.244V10.384L104.852 18H103.588L100.18 10.384V18H98.3563V6.88H100.324L104.228 15.6L108.116 6.88H110.068ZM120.546 13.376C120.546 13.7067 120.524 14.0053 120.482 14.272H113.746C113.799 14.976 114.06 15.5413 114.53 15.968C114.999 16.3947 115.575 16.608 116.258 16.608C117.239 16.608 117.932 16.1973 118.338 15.376H120.306C120.039 16.1867 119.554 16.8533 118.85 17.376C118.156 17.888 117.292 18.144 116.258 18.144C115.415 18.144 114.658 17.9573 113.986 17.584C113.324 17.2 112.802 16.6667 112.418 15.984C112.044 15.2907 111.858 14.4907 111.858 13.584C111.858 12.6773 112.039 11.8827 112.402 11.2C112.775 10.5067 113.292 9.97333 113.954 9.6C114.626 9.22667 115.394 9.04 116.258 9.04C117.09 9.04 117.831 9.22133 118.482 9.584C119.132 9.94667 119.639 10.4587 120.002 11.12C120.364 11.7707 120.546 12.5227 120.546 13.376ZM118.642 12.8C118.631 12.128 118.391 11.5893 117.922 11.184C117.452 10.7787 116.871 10.576 116.178 10.576C115.548 10.576 115.01 10.7787 114.562 11.184C114.114 11.5787 113.847 12.1173 113.762 12.8H118.642ZM121.733 13.552C121.733 12.6667 121.914 11.8827 122.277 11.2C122.65 10.5173 123.151 9.98933 123.781 9.616C124.421 9.232 125.13 9.04 125.909 9.04C126.485 9.04 127.05 9.168 127.605 9.424C128.17 9.66933 128.618 10 128.949 10.416V6.16H130.789V18H128.949V16.672C128.65 17.0987 128.234 17.4507 127.701 17.728C127.178 18.0053 126.575 18.144 125.893 18.144C125.125 18.144 124.421 17.952 123.781 17.568C123.151 17.1733 122.65 16.6293 122.277 15.936C121.914 15.232 121.733 14.4373 121.733 13.552ZM128.949 13.584C128.949 12.976 128.821 12.448 128.565 12C128.319 11.552 127.994 11.2107 127.589 10.976C127.183 10.7413 126.746 10.624 126.277 10.624C125.807 10.624 125.37 10.7413 124.965 10.976C124.559 11.2 124.229 11.536 123.973 11.984C123.727 12.4213 123.605 12.944 123.605 13.552C123.605 14.16 123.727 14.6933 123.973 15.152C124.229 15.6107 124.559 15.9627 124.965 16.208C125.381 16.4427 125.818 16.56 126.277 16.56C126.746 16.56 127.183 16.4427 127.589 16.208C127.994 15.9733 128.319 15.632 128.565 15.184C128.821 14.7253 128.949 14.192 128.949 13.584ZM134.112 8.016C133.782 8.016 133.504 7.904 133.28 7.68C133.056 7.456 132.944 7.17867 132.944 6.848C132.944 6.51733 133.056 6.24 133.28 6.016C133.504 5.792 133.782 5.68 134.112 5.68C134.432 5.68 134.704 5.792 134.928 6.016C135.152 6.24 135.264 6.51733 135.264 6.848C135.264 7.17867 135.152 7.456 134.928 7.68C134.704 7.904 134.432 8.016 134.112 8.016ZM135.008 9.184V18H133.184V9.184H135.008ZM145.387 9.184V18H143.563V16.96C143.275 17.3227 142.896 17.6107 142.427 17.824C141.968 18.0267 141.478 18.128 140.955 18.128C140.262 18.128 139.638 17.984 139.083 17.696C138.539 17.408 138.107 16.9813 137.787 16.416C137.478 15.8507 137.323 15.168 137.323 14.368V9.184H139.131V14.096C139.131 14.8853 139.328 15.4933 139.723 15.92C140.118 16.336 140.656 16.544 141.339 16.544C142.022 16.544 142.56 16.336 142.955 15.92C143.36 15.4933 143.563 14.8853 143.563 14.096V9.184H145.387ZM158.466 9.04C159.159 9.04 159.778 9.184 160.322 9.472C160.876 9.76 161.308 10.1867 161.618 10.752C161.938 11.3173 162.098 12 162.098 12.8V18H160.29V13.072C160.29 12.2827 160.092 11.68 159.698 11.264C159.303 10.8373 158.764 10.624 158.082 10.624C157.399 10.624 156.855 10.8373 156.45 11.264C156.055 11.68 155.858 12.2827 155.858 13.072V18H154.05V13.072C154.05 12.2827 153.852 11.68 153.458 11.264C153.063 10.8373 152.524 10.624 151.842 10.624C151.159 10.624 150.615 10.8373 150.21 11.264C149.815 11.68 149.618 12.2827 149.618 13.072V18H147.794V9.184H149.618V10.192C149.916 9.82933 150.295 9.54667 150.754 9.344C151.212 9.14133 151.703 9.04 152.226 9.04C152.93 9.04 153.559 9.18933 154.114 9.488C154.668 9.78667 155.095 10.2187 155.394 10.784C155.66 10.2507 156.076 9.82933 156.642 9.52C157.207 9.2 157.815 9.04 158.466 9.04ZM175.343 11.44V12.976H168.767V11.44H175.343ZM193.803 6.88V18H191.979V10.384L188.587 18H187.323L183.915 10.384V18H182.091V6.88H184.059L187.963 15.6L191.851 6.88H193.803ZM195.592 13.552C195.592 12.6667 195.773 11.8827 196.136 11.2C196.509 10.5173 197.011 9.98933 197.64 9.616C198.28 9.232 198.984 9.04 199.752 9.04C200.445 9.04 201.048 9.17867 201.56 9.456C202.083 9.72267 202.499 10.0587 202.808 10.464V9.184H204.648V18H202.808V16.688C202.499 17.104 202.077 17.4507 201.544 17.728C201.011 18.0053 200.403 18.144 199.72 18.144C198.963 18.144 198.269 17.952 197.64 17.568C197.011 17.1733 196.509 16.6293 196.136 15.936C195.773 15.232 195.592 14.4373 195.592 13.552ZM202.808 13.584C202.808 12.976 202.68 12.448 202.424 12C202.179 11.552 201.853 11.2107 201.448 10.976C201.043 10.7413 200.605 10.624 200.136 10.624C199.667 10.624 199.229 10.7413 198.824 10.976C198.419 11.2 198.088 11.536 197.832 11.984C197.587 12.4213 197.464 12.944 197.464 13.552C197.464 14.16 197.587 14.6933 197.832 15.152C198.088 15.6107 198.419 15.9627 198.824 16.208C199.24 16.4427 199.677 16.56 200.136 16.56C200.605 16.56 201.043 16.4427 201.448 16.208C201.853 15.9733 202.179 15.632 202.424 15.184C202.68 14.7253 202.808 14.192 202.808 13.584ZM207.972 8.016C207.641 8.016 207.364 7.904 207.14 7.68C206.916 7.456 206.804 7.17867 206.804 6.848C206.804 6.51733 206.916 6.24 207.14 6.016C207.364 5.792 207.641 5.68 207.972 5.68C208.292 5.68 208.564 5.792 208.788 6.016C209.012 6.24 209.124 6.51733 209.124 6.848C209.124 7.17867 209.012 7.456 208.788 7.68C208.564 7.904 208.292 8.016 207.972 8.016ZM208.868 9.184V18H207.044V9.184H208.868ZM215.711 9.04C216.404 9.04 217.023 9.184 217.567 9.472C218.121 9.76 218.553 10.1867 218.863 10.752C219.172 11.3173 219.327 12 219.327 12.8V18H217.519V13.072C217.519 12.2827 217.321 11.68 216.927 11.264C216.532 10.8373 215.993 10.624 215.311 10.624C214.628 10.624 214.084 10.8373 213.679 11.264C213.284 11.68 213.087 12.2827 213.087 13.072V18H211.263V9.184H213.087V10.192C213.385 9.82933 213.764 9.54667 214.223 9.344C214.692 9.14133 215.188 9.04 215.711 9.04ZM225.201 12.416C225.201 11.328 225.452 10.352 225.953 9.488C226.465 8.624 227.153 7.952 228.017 7.472C228.892 6.98133 229.847 6.736 230.881 6.736C232.065 6.736 233.116 7.02933 234.033 7.616C234.961 8.192 235.633 9.01333 236.049 10.08H233.857C233.569 9.49333 233.169 9.056 232.657 8.768C232.145 8.48 231.553 8.336 230.881 8.336C230.145 8.336 229.489 8.50133 228.913 8.832C228.337 9.16267 227.884 9.63733 227.553 10.256C227.233 10.8747 227.073 11.5947 227.073 12.416C227.073 13.2373 227.233 13.9573 227.553 14.576C227.884 15.1947 228.337 15.6747 228.913 16.016C229.489 16.3467 230.145 16.512 230.881 16.512C231.553 16.512 232.145 16.368 232.657 16.08C233.169 15.792 233.569 15.3547 233.857 14.768H236.049C235.633 15.8347 234.961 16.656 234.033 17.232C233.116 17.808 232.065 18.096 230.881 18.096C229.836 18.096 228.881 17.856 228.017 17.376C227.153 16.8853 226.465 16.208 225.953 15.344C225.452 14.48 225.201 13.504 225.201 12.416ZM242.008 18.144C241.176 18.144 240.424 17.9573 239.752 17.584C239.08 17.2 238.552 16.6667 238.168 15.984C237.784 15.2907 237.592 14.4907 237.592 13.584C237.592 12.688 237.79 11.8933 238.184 11.2C238.579 10.5067 239.118 9.97333 239.8 9.6C240.483 9.22667 241.246 9.04 242.088 9.04C242.931 9.04 243.694 9.22667 244.376 9.6C245.059 9.97333 245.598 10.5067 245.992 11.2C246.387 11.8933 246.584 12.688 246.584 13.584C246.584 14.48 246.382 15.2747 245.976 15.968C245.571 16.6613 245.016 17.2 244.312 17.584C243.619 17.9573 242.851 18.144 242.008 18.144ZM242.008 16.56C242.478 16.56 242.915 16.448 243.32 16.224C243.736 16 244.072 15.664 244.328 15.216C244.584 14.768 244.712 14.224 244.712 13.584C244.712 12.944 244.59 12.4053 244.344 11.968C244.099 11.52 243.774 11.184 243.368 10.96C242.963 10.736 242.526 10.624 242.056 10.624C241.587 10.624 241.15 10.736 240.744 10.96C240.35 11.184 240.035 11.52 239.8 11.968C239.566 12.4053 239.448 12.944 239.448 13.584C239.448 14.5333 239.688 15.2693 240.168 15.792C240.659 16.304 241.272 16.56 242.008 16.56ZM252.836 9.04C253.529 9.04 254.148 9.184 254.692 9.472C255.246 9.76 255.678 10.1867 255.988 10.752C256.297 11.3173 256.452 12 256.452 12.8V18H254.644V13.072C254.644 12.2827 254.446 11.68 254.052 11.264C253.657 10.8373 253.118 10.624 252.436 10.624C251.753 10.624 251.209 10.8373 250.804 11.264C250.409 11.68 250.212 12.2827 250.212 13.072V18H248.388V9.184H250.212V10.192C250.51 9.82933 250.889 9.54667 251.348 9.344C251.817 9.14133 252.313 9.04 252.836 9.04ZM260.906 10.672V15.552C260.906 15.8827 260.981 16.1227 261.13 16.272C261.29 16.4107 261.557 16.48 261.93 16.48H263.05V18H261.61C260.789 18 260.159 17.808 259.722 17.424C259.285 17.04 259.066 16.416 259.066 15.552V10.672H258.026V9.184H259.066V6.992H260.906V9.184H263.05V10.672H260.906ZM272.811 13.376C272.811 13.7067 272.79 14.0053 272.747 14.272H266.011C266.065 14.976 266.326 15.5413 266.795 15.968C267.265 16.3947 267.841 16.608 268.523 16.608C269.505 16.608 270.198 16.1973 270.603 15.376H272.571C272.305 16.1867 271.819 16.8533 271.115 17.376C270.422 17.888 269.558 18.144 268.523 18.144C267.681 18.144 266.923 17.9573 266.251 17.584C265.59 17.2 265.067 16.6667 264.683 15.984C264.31 15.2907 264.123 14.4907 264.123 13.584C264.123 12.6773 264.305 11.8827 264.667 11.2C265.041 10.5067 265.558 9.97333 266.219 9.6C266.891 9.22667 267.659 9.04 268.523 9.04C269.355 9.04 270.097 9.22133 270.747 9.584C271.398 9.94667 271.905 10.4587 272.267 11.12C272.63 11.7707 272.811 12.5227 272.811 13.376ZM270.907 12.8C270.897 12.128 270.657 11.5893 270.187 11.184C269.718 10.7787 269.137 10.576 268.443 10.576C267.814 10.576 267.275 10.7787 266.827 11.184C266.379 11.5787 266.113 12.1173 266.027 12.8H270.907ZM278.382 13.536L281.23 18H279.166L277.262 15.008L275.47 18H273.566L276.414 13.664L273.566 9.184H275.63L277.534 12.176L279.326 9.184H281.23L278.382 13.536ZM284.719 10.672V15.552C284.719 15.8827 284.793 16.1227 284.943 16.272C285.103 16.4107 285.369 16.48 285.743 16.48H286.863V18H285.423C284.601 18 283.972 17.808 283.535 17.424C283.097 17.04 282.879 16.416 282.879 15.552V10.672H281.839V9.184H282.879V6.992H284.719V9.184H286.863V10.672H284.719ZM299.884 6.88V8.368H296.924V18H295.1V8.368H292.124V6.88H299.884ZM309.811 13.376C309.811 13.7067 309.79 14.0053 309.747 14.272H303.011C303.065 14.976 303.326 15.5413 303.795 15.968C304.265 16.3947 304.841 16.608 305.523 16.608C306.505 16.608 307.198 16.1973 307.603 15.376H309.571C309.305 16.1867 308.819 16.8533 308.115 17.376C307.422 17.888 306.558 18.144 305.523 18.144C304.681 18.144 303.923 17.9573 303.251 17.584C302.59 17.2 302.067 16.6667 301.683 15.984C301.31 15.2907 301.123 14.4907 301.123 13.584C301.123 12.6773 301.305 11.8827 301.667 11.2C302.041 10.5067 302.558 9.97333 303.219 9.6C303.891 9.22667 304.659 9.04 305.523 9.04C306.355 9.04 307.097 9.22133 307.747 9.584C308.398 9.94667 308.905 10.4587 309.267 11.12C309.63 11.7707 309.811 12.5227 309.811 13.376ZM307.907 12.8C307.897 12.128 307.657 11.5893 307.187 11.184C306.718 10.7787 306.137 10.576 305.443 10.576C304.814 10.576 304.275 10.7787 303.827 11.184C303.379 11.5787 303.113 12.1173 303.027 12.8H307.907ZM315.382 13.536L318.23 18H316.166L314.262 15.008L312.47 18H310.566L313.414 13.664L310.566 9.184H312.63L314.534 12.176L316.326 9.184H318.23L315.382 13.536ZM321.719 10.672V15.552C321.719 15.8827 321.793 16.1227 321.943 16.272C322.103 16.4107 322.369 16.48 322.743 16.48H323.863V18H322.423C321.601 18 320.972 17.808 320.535 17.424C320.097 17.04 319.879 16.416 319.879 15.552V10.672H318.839V9.184H319.879V6.992H321.719V9.184H323.863V10.672H321.719Z" fill="#3A3A3A"/>
<path d="M5.652 30.636V31.524H2.016V34.344H4.968V35.232H2.016V39H0.924V30.636H5.652ZM9.83888 39.108C9.22288 39.108 8.66288 38.968 8.15888 38.688C7.66288 38.408 7.27088 38.012 6.98288 37.5C6.70288 36.98 6.56288 36.38 6.56288 35.7C6.56288 35.028 6.70688 34.436 6.99488 33.924C7.29088 33.404 7.69088 33.008 8.19488 32.736C8.69888 32.456 9.26288 32.316 9.88688 32.316C10.5109 32.316 11.0749 32.456 11.5789 32.736C12.0829 33.008 12.4789 33.4 12.7669 33.912C13.0629 34.424 13.2109 35.02 13.2109 35.7C13.2109 36.38 13.0589 36.98 12.7549 37.5C12.4589 38.012 12.0549 38.408 11.5429 38.688C11.0309 38.968 10.4629 39.108 9.83888 39.108ZM9.83888 38.148C10.2309 38.148 10.5989 38.056 10.9429 37.872C11.2869 37.688 11.5629 37.412 11.7709 37.044C11.9869 36.676 12.0949 36.228 12.0949 35.7C12.0949 35.172 11.9909 34.724 11.7829 34.356C11.5749 33.988 11.3029 33.716 10.9669 33.54C10.6309 33.356 10.2669 33.264 9.87488 33.264C9.47488 33.264 9.10688 33.356 8.77088 33.54C8.44288 33.716 8.17888 33.988 7.97888 34.356C7.77888 34.724 7.67888 35.172 7.67888 35.7C7.67888 36.236 7.77488 36.688 7.96688 37.056C8.16688 37.424 8.43088 37.7 8.75888 37.884C9.08688 38.06 9.44688 38.148 9.83888 38.148ZM17.8507 32.304C18.6507 32.304 19.2987 32.548 19.7947 33.036C20.2907 33.516 20.5387 34.212 20.5387 35.124V39H19.4587V35.28C19.4587 34.624 19.2947 34.124 18.9667 33.78C18.6387 33.428 18.1907 33.252 17.6227 33.252C17.0467 33.252 16.5867 33.432 16.2427 33.792C15.9067 34.152 15.7387 34.676 15.7387 35.364V39H14.6467V32.424H15.7387V33.36C15.9547 33.024 16.2467 32.764 16.6147 32.58C16.9907 32.396 17.4027 32.304 17.8507 32.304ZM23.6544 33.324V37.2C23.6544 37.52 23.7224 37.748 23.8584 37.884C23.9944 38.012 24.2304 38.076 24.5664 38.076H25.3704V39H24.3864C23.7784 39 23.3224 38.86 23.0184 38.58C22.7144 38.3 22.5624 37.84 22.5624 37.2V33.324H21.7104V32.424H22.5624V30.768H23.6544V32.424H25.3704V33.324H23.6544ZM32.2208 39.108C31.7168 39.108 31.2648 39.024 30.8648 38.856C30.4648 38.68 30.1488 38.44 29.9168 38.136C29.6848 37.824 29.5568 37.468 29.5328 37.068H30.6608C30.6928 37.396 30.8448 37.664 31.1168 37.872C31.3968 38.08 31.7608 38.184 32.2088 38.184C32.6248 38.184 32.9528 38.092 33.1928 37.908C33.4328 37.724 33.5528 37.492 33.5528 37.212C33.5528 36.924 33.4248 36.712 33.1688 36.576C32.9128 36.432 32.5168 36.292 31.9808 36.156C31.4928 36.028 31.0928 35.9 30.7808 35.772C30.4768 35.636 30.2128 35.44 29.9888 35.184C29.7728 34.92 29.6648 34.576 29.6648 34.152C29.6648 33.816 29.7648 33.508 29.9648 33.228C30.1648 32.948 30.4488 32.728 30.8168 32.568C31.1848 32.4 31.6048 32.316 32.0768 32.316C32.8048 32.316 33.3928 32.5 33.8408 32.868C34.2888 33.236 34.5288 33.74 34.5608 34.38H33.4688C33.4448 34.036 33.3048 33.76 33.0488 33.552C32.8008 33.344 32.4648 33.24 32.0408 33.24C31.6488 33.24 31.3368 33.324 31.1048 33.492C30.8728 33.66 30.7568 33.88 30.7568 34.152C30.7568 34.368 30.8248 34.548 30.9608 34.692C31.1048 34.828 31.2808 34.94 31.4888 35.028C31.7048 35.108 32.0008 35.2 32.3768 35.304C32.8488 35.432 33.2328 35.56 33.5288 35.688C33.8248 35.808 34.0768 35.992 34.2848 36.24C34.5008 36.488 34.6128 36.812 34.6208 37.212C34.6208 37.572 34.5208 37.896 34.3208 38.184C34.1208 38.472 33.8368 38.7 33.4688 38.868C33.1088 39.028 32.6928 39.108 32.2208 39.108ZM36.7263 31.356C36.5183 31.356 36.3423 31.284 36.1983 31.14C36.0543 30.996 35.9823 30.82 35.9823 30.612C35.9823 30.404 36.0543 30.228 36.1983 30.084C36.3423 29.94 36.5183 29.868 36.7263 29.868C36.9263 29.868 37.0943 29.94 37.2303 30.084C37.3743 30.228 37.4463 30.404 37.4463 30.612C37.4463 30.82 37.3743 30.996 37.2303 31.14C37.0943 31.284 36.9263 31.356 36.7263 31.356ZM37.2543 32.424V39H36.1623V32.424H37.2543ZM39.9314 38.1H43.1594V39H38.6834V38.1L41.8754 33.312H38.7074V32.424H43.1354V33.312L39.9314 38.1ZM50.5763 35.46C50.5763 35.668 50.5643 35.888 50.5403 36.12H45.2843C45.3243 36.768 45.5443 37.276 45.9443 37.644C46.3523 38.004 46.8443 38.184 47.4203 38.184C47.8923 38.184 48.2843 38.076 48.5963 37.86C48.9163 37.636 49.1403 37.34 49.2683 36.972H50.4443C50.2683 37.604 49.9163 38.12 49.3883 38.52C48.8603 38.912 48.2043 39.108 47.4203 39.108C46.7963 39.108 46.2363 38.968 45.7403 38.688C45.2523 38.408 44.8683 38.012 44.5883 37.5C44.3083 36.98 44.1683 36.38 44.1683 35.7C44.1683 35.02 44.3043 34.424 44.5763 33.912C44.8483 33.4 45.2283 33.008 45.7163 32.736C46.2123 32.456 46.7803 32.316 47.4203 32.316C48.0443 32.316 48.5963 32.452 49.0763 32.724C49.5563 32.996 49.9243 33.372 50.1803 33.852C50.4443 34.324 50.5763 34.86 50.5763 35.46ZM49.4483 35.232C49.4483 34.816 49.3563 34.46 49.1723 34.164C48.9883 33.86 48.7363 33.632 48.4163 33.48C48.1043 33.32 47.7563 33.24 47.3723 33.24C46.8203 33.24 46.3483 33.416 45.9563 33.768C45.5723 34.12 45.3523 34.608 45.2963 35.232H49.4483ZM55.565 39.072C55.357 39.072 55.181 39 55.037 38.856C54.893 38.712 54.821 38.536 54.821 38.328C54.821 38.12 54.893 37.944 55.037 37.8C55.181 37.656 55.357 37.584 55.565 37.584C55.765 37.584 55.933 37.656 56.069 37.8C56.213 37.944 56.285 38.12 56.285 38.328C56.285 38.536 56.213 38.712 56.069 38.856C55.933 39 55.765 39.072 55.565 39.072ZM55.565 33.936C55.357 33.936 55.181 33.864 55.037 33.72C54.893 33.576 54.821 33.4 54.821 33.192C54.821 32.984 54.893 32.808 55.037 32.664C55.181 32.52 55.357 32.448 55.565 32.448C55.765 32.448 55.933 32.52 56.069 32.664C56.213 32.808 56.285 32.984 56.285 33.192C56.285 33.4 56.213 33.576 56.069 33.72C55.933 33.864 55.765 33.936 55.565 33.936ZM60.5029 31.32V30.324H62.7589V39H61.6549V31.32H60.5029ZM69.4706 32.388C69.2946 31.5 68.7466 31.056 67.8266 31.056C67.1146 31.056 66.5826 31.332 66.2306 31.884C65.8786 32.428 65.7066 33.328 65.7146 34.584C65.8986 34.168 66.2026 33.844 66.6266 33.612C67.0586 33.372 67.5386 33.252 68.0666 33.252C68.8906 33.252 69.5466 33.508 70.0346 34.02C70.5306 34.532 70.7786 35.24 70.7786 36.144C70.7786 36.688 70.6706 37.176 70.4546 37.608C70.2466 38.04 69.9266 38.384 69.4946 38.64C69.0706 38.896 68.5546 39.024 67.9466 39.024C67.1226 39.024 66.4786 38.84 66.0146 38.472C65.5506 38.104 65.2266 37.596 65.0426 36.948C64.8586 36.3 64.7666 35.5 64.7666 34.548C64.7666 31.612 65.7906 30.144 67.8386 30.144C68.6226 30.144 69.2386 30.356 69.6866 30.78C70.1346 31.204 70.3986 31.74 70.4786 32.388H69.4706ZM67.8386 34.176C67.4946 34.176 67.1706 34.248 66.8666 34.392C66.5626 34.528 66.3146 34.74 66.1226 35.028C65.9386 35.308 65.8466 35.652 65.8466 36.06C65.8466 36.668 66.0226 37.164 66.3746 37.548C66.7266 37.924 67.2306 38.112 67.8866 38.112C68.4466 38.112 68.8906 37.94 69.2186 37.596C69.5546 37.244 69.7226 36.772 69.7226 36.18C69.7226 35.556 69.5626 35.068 69.2426 34.716C68.9226 34.356 68.4546 34.176 67.8386 34.176ZM73.5238 33.636C73.7398 33.26 74.0598 32.948 74.4838 32.7C74.9158 32.444 75.4158 32.316 75.9838 32.316C76.5678 32.316 77.0958 32.456 77.5678 32.736C78.0478 33.016 78.4238 33.412 78.6958 33.924C78.9678 34.428 79.1038 35.016 79.1038 35.688C79.1038 36.352 78.9678 36.944 78.6958 37.464C78.4238 37.984 78.0478 38.388 77.5678 38.676C77.0958 38.964 76.5678 39.108 75.9838 39.108C75.4238 39.108 74.9278 38.984 74.4958 38.736C74.0718 38.48 73.7478 38.164 73.5238 37.788V42.12H72.4318V32.424H73.5238V33.636ZM77.9878 35.688C77.9878 35.192 77.8878 34.76 77.6878 34.392C77.4878 34.024 77.2158 33.744 76.8718 33.552C76.5358 33.36 76.1638 33.264 75.7558 33.264C75.3558 33.264 74.9838 33.364 74.6398 33.564C74.3038 33.756 74.0318 34.04 73.8238 34.416C73.6238 34.784 73.5238 35.212 73.5238 35.7C73.5238 36.196 73.6238 36.632 73.8238 37.008C74.0318 37.376 74.3038 37.66 74.6398 37.86C74.9838 38.052 75.3558 38.148 75.7558 38.148C76.1638 38.148 76.5358 38.052 76.8718 37.86C77.2158 37.66 77.4878 37.376 77.6878 37.008C77.8878 36.632 77.9878 36.192 77.9878 35.688ZM83.9732 39L82.4132 36.552L80.9132 39H79.7732L81.8972 35.736L79.7732 32.424H81.0092L82.5692 34.86L84.0572 32.424H85.1972L83.0852 35.676L85.2092 39H83.9732ZM100.285 39L98.293 35.58H96.973V39H95.881V30.636H98.581C99.213 30.636 99.745 30.744 100.177 30.96C100.617 31.176 100.945 31.468 101.161 31.836C101.377 32.204 101.485 32.624 101.485 33.096C101.485 33.672 101.317 34.18 100.981 34.62C100.653 35.06 100.157 35.352 99.493 35.496L101.593 39H100.285ZM96.973 34.704H98.581C99.173 34.704 99.617 34.56 99.913 34.272C100.209 33.976 100.357 33.584 100.357 33.096C100.357 32.6 100.209 32.216 99.913 31.944C99.625 31.672 99.181 31.536 98.581 31.536H96.973V34.704ZM104.274 31.524V34.32H107.322V35.22H104.274V38.1H107.682V39H103.182V30.624H107.682V31.524H104.274ZM117.818 30.696V39H116.726V32.808L113.966 39H113.198L110.426 32.796V39H109.334V30.696H110.51L113.582 37.56L116.654 30.696H117.818ZM123.217 39.072C123.009 39.072 122.833 39 122.689 38.856C122.545 38.712 122.473 38.536 122.473 38.328C122.473 38.12 122.545 37.944 122.689 37.8C122.833 37.656 123.009 37.584 123.217 37.584C123.417 37.584 123.585 37.656 123.721 37.8C123.865 37.944 123.937 38.12 123.937 38.328C123.937 38.536 123.865 38.712 123.721 38.856C123.585 39 123.417 39.072 123.217 39.072ZM123.217 33.936C123.009 33.936 122.833 33.864 122.689 33.72C122.545 33.576 122.473 33.4 122.473 33.192C122.473 32.984 122.545 32.808 122.689 32.664C122.833 32.52 123.009 32.448 123.217 32.448C123.417 32.448 123.585 32.52 123.721 32.664C123.865 32.808 123.937 32.984 123.937 33.192C123.937 33.4 123.865 33.576 123.721 33.72C123.585 33.864 123.417 33.936 123.217 33.936ZM128.155 31.32V30.324H130.411V39H129.307V31.32H128.155ZM143.157 38.112H146.085V39H142.065V30.636H143.157V38.112ZM147.808 31.356C147.6 31.356 147.424 31.284 147.28 31.14C147.136 30.996 147.064 30.82 147.064 30.612C147.064 30.404 147.136 30.228 147.28 30.084C147.424 29.94 147.6 29.868 147.808 29.868C148.008 29.868 148.176 29.94 148.312 30.084C148.456 30.228 148.528 30.404 148.528 30.612C148.528 30.82 148.456 30.996 148.312 31.14C148.176 31.284 148.008 31.356 147.808 31.356ZM148.336 32.424V39H147.244V32.424H148.336ZM153.401 32.304C154.201 32.304 154.849 32.548 155.345 33.036C155.841 33.516 156.089 34.212 156.089 35.124V39H155.009V35.28C155.009 34.624 154.845 34.124 154.517 33.78C154.189 33.428 153.741 33.252 153.173 33.252C152.597 33.252 152.137 33.432 151.793 33.792C151.457 34.152 151.289 34.676 151.289 35.364V39H150.197V32.424H151.289V33.36C151.505 33.024 151.797 32.764 152.165 32.58C152.541 32.396 152.953 32.304 153.401 32.304ZM163.873 35.46C163.873 35.668 163.861 35.888 163.837 36.12H158.581C158.621 36.768 158.841 37.276 159.241 37.644C159.649 38.004 160.141 38.184 160.717 38.184C161.189 38.184 161.581 38.076 161.893 37.86C162.213 37.636 162.437 37.34 162.565 36.972H163.741C163.565 37.604 163.213 38.12 162.685 38.52C162.157 38.912 161.501 39.108 160.717 39.108C160.093 39.108 159.533 38.968 159.037 38.688C158.549 38.408 158.165 38.012 157.885 37.5C157.605 36.98 157.465 36.38 157.465 35.7C157.465 35.02 157.601 34.424 157.873 33.912C158.145 33.4 158.525 33.008 159.013 32.736C159.509 32.456 160.077 32.316 160.717 32.316C161.341 32.316 161.893 32.452 162.373 32.724C162.853 32.996 163.221 33.372 163.477 33.852C163.741 34.324 163.873 34.86 163.873 35.46ZM162.745 35.232C162.745 34.816 162.653 34.46 162.469 34.164C162.285 33.86 162.033 33.632 161.713 33.48C161.401 33.32 161.053 33.24 160.669 33.24C160.117 33.24 159.645 33.416 159.253 33.768C158.869 34.12 158.649 34.608 158.593 35.232H162.745ZM171.166 39.084C170.614 39.084 170.118 38.988 169.678 38.796C169.246 38.596 168.906 38.324 168.658 37.98C168.41 37.628 168.282 37.224 168.274 36.768H169.438C169.478 37.16 169.638 37.492 169.918 37.764C170.206 38.028 170.622 38.16 171.166 38.16C171.686 38.16 172.094 38.032 172.39 37.776C172.694 37.512 172.846 37.176 172.846 36.768C172.846 36.448 172.758 36.188 172.582 35.988C172.406 35.788 172.186 35.636 171.922 35.532C171.658 35.428 171.302 35.316 170.854 35.196C170.302 35.052 169.858 34.908 169.522 34.764C169.194 34.62 168.91 34.396 168.67 34.092C168.438 33.78 168.322 33.364 168.322 32.844C168.322 32.388 168.438 31.984 168.67 31.632C168.902 31.28 169.226 31.008 169.642 30.816C170.066 30.624 170.55 30.528 171.094 30.528C171.878 30.528 172.518 30.724 173.014 31.116C173.518 31.508 173.802 32.028 173.866 32.676H172.666C172.626 32.356 172.458 32.076 172.162 31.836C171.866 31.588 171.474 31.464 170.986 31.464C170.53 31.464 170.158 31.584 169.87 31.824C169.582 32.056 169.438 32.384 169.438 32.808C169.438 33.112 169.522 33.36 169.69 33.552C169.866 33.744 170.078 33.892 170.326 33.996C170.582 34.092 170.938 34.204 171.394 34.332C171.946 34.484 172.39 34.636 172.726 34.788C173.062 34.932 173.35 35.16 173.59 35.472C173.83 35.776 173.95 36.192 173.95 36.72C173.95 37.128 173.842 37.512 173.626 37.872C173.41 38.232 173.09 38.524 172.666 38.748C172.242 38.972 171.742 39.084 171.166 39.084ZM176.649 33.636C176.865 33.26 177.185 32.948 177.609 32.7C178.041 32.444 178.541 32.316 179.109 32.316C179.693 32.316 180.221 32.456 180.693 32.736C181.173 33.016 181.549 33.412 181.821 33.924C182.093 34.428 182.229 35.016 182.229 35.688C182.229 36.352 182.093 36.944 181.821 37.464C181.549 37.984 181.173 38.388 180.693 38.676C180.221 38.964 179.693 39.108 179.109 39.108C178.549 39.108 178.053 38.984 177.621 38.736C177.197 38.48 176.873 38.164 176.649 37.788V42.12H175.557V32.424H176.649V33.636ZM181.113 35.688C181.113 35.192 181.013 34.76 180.813 34.392C180.613 34.024 180.341 33.744 179.997 33.552C179.661 33.36 179.289 33.264 178.881 33.264C178.481 33.264 178.109 33.364 177.765 33.564C177.429 33.756 177.157 34.04 176.949 34.416C176.749 34.784 176.649 35.212 176.649 35.7C176.649 36.196 176.749 36.632 176.949 37.008C177.157 37.376 177.429 37.66 177.765 37.86C178.109 38.052 178.481 38.148 178.881 38.148C179.289 38.148 179.661 38.052 179.997 37.86C180.341 37.66 180.613 37.376 180.813 37.008C181.013 36.632 181.113 36.192 181.113 35.688ZM183.258 35.688C183.258 35.016 183.394 34.428 183.666 33.924C183.938 33.412 184.31 33.016 184.782 32.736C185.262 32.456 185.794 32.316 186.378 32.316C186.954 32.316 187.454 32.44 187.878 32.688C188.302 32.936 188.618 33.248 188.826 33.624V32.424H189.93V39H188.826V37.776C188.61 38.16 188.286 38.48 187.854 38.736C187.43 38.984 186.934 39.108 186.366 39.108C185.782 39.108 185.254 38.964 184.782 38.676C184.31 38.388 183.938 37.984 183.666 37.464C183.394 36.944 183.258 36.352 183.258 35.688ZM188.826 35.7C188.826 35.204 188.726 34.772 188.526 34.404C188.326 34.036 188.054 33.756 187.71 33.564C187.374 33.364 187.002 33.264 186.594 33.264C186.186 33.264 185.814 33.36 185.478 33.552C185.142 33.744 184.874 34.024 184.674 34.392C184.474 34.76 184.374 35.192 184.374 35.688C184.374 36.192 184.474 36.632 184.674 37.008C184.874 37.376 185.142 37.66 185.478 37.86C185.814 38.052 186.186 38.148 186.594 38.148C187.002 38.148 187.374 38.052 187.71 37.86C188.054 37.66 188.326 37.376 188.526 37.008C188.726 36.632 188.826 36.196 188.826 35.7ZM191.368 35.7C191.368 35.02 191.504 34.428 191.776 33.924C192.048 33.412 192.424 33.016 192.904 32.736C193.392 32.456 193.948 32.316 194.572 32.316C195.38 32.316 196.044 32.512 196.564 32.904C197.092 33.296 197.44 33.84 197.608 34.536H196.432C196.32 34.136 196.1 33.82 195.772 33.588C195.452 33.356 195.052 33.24 194.572 33.24C193.948 33.24 193.444 33.456 193.06 33.888C192.676 34.312 192.484 34.916 192.484 35.7C192.484 36.492 192.676 37.104 193.06 37.536C193.444 37.968 193.948 38.184 194.572 38.184C195.052 38.184 195.452 38.072 195.772 37.848C196.092 37.624 196.312 37.304 196.432 36.888H197.608C197.432 37.56 197.08 38.1 196.552 38.508C196.024 38.908 195.364 39.108 194.572 39.108C193.948 39.108 193.392 38.968 192.904 38.688C192.424 38.408 192.048 38.012 191.776 37.5C191.504 36.988 191.368 36.388 191.368 35.7ZM199.629 31.356C199.421 31.356 199.245 31.284 199.101 31.14C198.957 30.996 198.885 30.82 198.885 30.612C198.885 30.404 198.957 30.228 199.101 30.084C199.245 29.94 199.421 29.868 199.629 29.868C199.829 29.868 199.997 29.94 200.133 30.084C200.277 30.228 200.349 30.404 200.349 30.612C200.349 30.82 200.277 30.996 200.133 31.14C199.997 31.284 199.829 31.356 199.629 31.356ZM200.157 32.424V39H199.065V32.424H200.157ZM205.222 32.304C206.022 32.304 206.67 32.548 207.166 33.036C207.662 33.516 207.91 34.212 207.91 35.124V39H206.83V35.28C206.83 34.624 206.666 34.124 206.338 33.78C206.01 33.428 205.562 33.252 204.994 33.252C204.418 33.252 203.958 33.432 203.614 33.792C203.278 34.152 203.11 34.676 203.11 35.364V39H202.018V32.424H203.11V33.36C203.326 33.024 203.618 32.764 203.986 32.58C204.362 32.396 204.774 32.304 205.222 32.304ZM212.406 32.316C212.974 32.316 213.47 32.44 213.894 32.688C214.326 32.936 214.646 33.248 214.854 33.624V32.424H215.958V39.144C215.958 39.744 215.83 40.276 215.574 40.74C215.318 41.212 214.95 41.58 214.47 41.844C213.998 42.108 213.446 42.24 212.814 42.24C211.95 42.24 211.23 42.036 210.654 41.628C210.078 41.22 209.738 40.664 209.634 39.96H210.714C210.834 40.36 211.082 40.68 211.458 40.92C211.834 41.168 212.286 41.292 212.814 41.292C213.414 41.292 213.902 41.104 214.278 40.728C214.662 40.352 214.854 39.824 214.854 39.144V37.764C214.638 38.148 214.318 38.468 213.894 38.724C213.47 38.98 212.974 39.108 212.406 39.108C211.822 39.108 211.29 38.964 210.81 38.676C210.338 38.388 209.966 37.984 209.694 37.464C209.422 36.944 209.286 36.352 209.286 35.688C209.286 35.016 209.422 34.428 209.694 33.924C209.966 33.412 210.338 33.016 210.81 32.736C211.29 32.456 211.822 32.316 212.406 32.316ZM214.854 35.7C214.854 35.204 214.754 34.772 214.554 34.404C214.354 34.036 214.082 33.756 213.738 33.564C213.402 33.364 213.03 33.264 212.622 33.264C212.214 33.264 211.842 33.36 211.506 33.552C211.17 33.744 210.902 34.024 210.702 34.392C210.502 34.76 210.402 35.192 210.402 35.688C210.402 36.192 210.502 36.632 210.702 37.008C210.902 37.376 211.17 37.66 211.506 37.86C211.842 38.052 212.214 38.148 212.622 38.148C213.03 38.148 213.402 38.052 213.738 37.86C214.082 37.66 214.354 37.376 214.554 37.008C214.754 36.632 214.854 36.196 214.854 35.7ZM218.151 39.072C217.943 39.072 217.767 39 217.623 38.856C217.479 38.712 217.407 38.536 217.407 38.328C217.407 38.12 217.479 37.944 217.623 37.8C217.767 37.656 217.943 37.584 218.151 37.584C218.351 37.584 218.519 37.656 218.655 37.8C218.799 37.944 218.871 38.12 218.871 38.328C218.871 38.536 218.799 38.712 218.655 38.856C218.519 39 218.351 39.072 218.151 39.072ZM218.151 33.936C217.943 33.936 217.767 33.864 217.623 33.72C217.479 33.576 217.407 33.4 217.407 33.192C217.407 32.984 217.479 32.808 217.623 32.664C217.767 32.52 217.943 32.448 218.151 32.448C218.351 32.448 218.519 32.52 218.655 32.664C218.799 32.808 218.871 32.984 218.871 33.192C218.871 33.4 218.799 33.576 218.655 33.72C218.519 33.864 218.351 33.936 218.151 33.936ZM223.245 38.124C224.261 37.308 225.057 36.64 225.633 36.12C226.209 35.592 226.693 35.044 227.085 34.476C227.485 33.9 227.685 33.336 227.685 32.784C227.685 32.264 227.557 31.856 227.301 31.56C227.053 31.256 226.649 31.104 226.089 31.104C225.545 31.104 225.121 31.276 224.817 31.62C224.521 31.956 224.361 32.408 224.337 32.976H223.281C223.313 32.08 223.585 31.388 224.097 30.9C224.609 30.412 225.269 30.168 226.077 30.168C226.901 30.168 227.553 30.396 228.033 30.852C228.521 31.308 228.765 31.936 228.765 32.736C228.765 33.4 228.565 34.048 228.165 34.68C227.773 35.304 227.325 35.856 226.821 36.336C226.317 36.808 225.673 37.36 224.889 37.992H229.017V38.904H223.245V38.124ZM230.015 37.068V36.24L234.227 30.408H235.535V36.12H236.735V37.068H235.535V39H234.455V37.068H230.015ZM234.503 31.548L231.275 36.12H234.503V31.548Z" fill="#616161"/>
</svg>
