<svg width="427" height="16" viewBox="0 0 427 16" fill="none" xmlns="http://www.w3.org/2000/svg">
<path d="M0.444 7.812C0.444 6.996 0.632 6.264 1.008 5.616C1.392 4.968 1.908 4.464 2.556 4.104C3.212 3.736 3.928 3.552 4.704 3.552C5.592 3.552 6.38 3.772 7.068 4.212C7.764 4.644 8.268 5.26 8.58 6.06H6.936C6.72 5.62 6.42 5.292 6.036 5.076C5.652 4.86 5.208 4.752 4.704 4.752C4.152 4.752 3.66 4.876 3.228 5.124C2.796 5.372 2.456 5.728 2.208 6.192C1.968 6.656 1.848 7.196 1.848 7.812C1.848 8.428 1.968 8.968 2.208 9.432C2.456 9.896 2.796 10.256 3.228 10.512C3.66 10.76 4.152 10.884 4.704 10.884C5.208 10.884 5.652 10.776 6.036 10.56C6.42 10.344 6.72 10.016 6.936 9.576H8.58C8.268 10.376 7.764 10.992 7.068 11.424C6.38 11.856 5.592 12.072 4.704 12.072C3.92 12.072 3.204 11.892 2.556 11.532C1.908 11.164 1.392 10.656 1.008 10.008C0.632 9.36 0.444 8.628 0.444 7.812ZM9.72525 8.664C9.72525 8 9.86125 7.412 10.1333 6.9C10.4133 6.388 10.7893 5.992 11.2613 5.712C11.7413 5.424 12.2693 5.28 12.8453 5.28C13.3653 5.28 13.8173 5.384 14.2013 5.592C14.5933 5.792 14.9053 6.044 15.1373 6.348V5.388H16.5173V12H15.1373V11.016C14.9053 11.328 14.5893 11.588 14.1893 11.796C13.7893 12.004 13.3333 12.108 12.8213 12.108C12.2533 12.108 11.7333 11.964 11.2613 11.676C10.7893 11.38 10.4133 10.972 10.1333 10.452C9.86125 9.924 9.72525 9.328 9.72525 8.664ZM15.1373 8.688C15.1373 8.232 15.0413 7.836 14.8493 7.5C14.6653 7.164 14.4213 6.908 14.1173 6.732C13.8133 6.556 13.4853 6.468 13.1333 6.468C12.7813 6.468 12.4533 6.556 12.1493 6.732C11.8453 6.9 11.5973 7.152 11.4053 7.488C11.2213 7.816 11.1293 8.208 11.1293 8.664C11.1293 9.12 11.2213 9.52 11.4053 9.864C11.5973 10.208 11.8453 10.472 12.1493 10.656C12.4613 10.832 12.7893 10.92 13.1333 10.92C13.4853 10.92 13.8133 10.832 14.1173 10.656C14.4213 10.48 14.6653 10.224 14.8493 9.888C15.0413 9.544 15.1373 9.144 15.1373 8.688ZM19.6821 6.36C19.9141 6.056 20.2301 5.8 20.6301 5.592C21.0301 5.384 21.4821 5.28 21.9861 5.28C22.5621 5.28 23.0861 5.424 23.5581 5.712C24.0381 5.992 24.4141 6.388 24.6861 6.9C24.9581 7.412 25.0941 8 25.0941 8.664C25.0941 9.328 24.9581 9.924 24.6861 10.452C24.4141 10.972 24.0381 11.38 23.5581 11.676C23.0861 11.964 22.5621 12.108 21.9861 12.108C21.4821 12.108 21.0341 12.008 20.6421 11.808C20.2501 11.6 19.9301 11.344 19.6821 11.04V15.144H18.3141V5.388H19.6821V6.36ZM23.7021 8.664C23.7021 8.208 23.6061 7.816 23.4141 7.488C23.2301 7.152 22.9821 6.9 22.6701 6.732C22.3661 6.556 22.0381 6.468 21.6861 6.468C21.3421 6.468 21.0141 6.556 20.7021 6.732C20.3981 6.908 20.1501 7.164 19.9581 7.5C19.7741 7.836 19.6821 8.232 19.6821 8.688C19.6821 9.144 19.7741 9.544 19.9581 9.888C20.1501 10.224 20.3981 10.48 20.7021 10.656C21.0141 10.832 21.3421 10.92 21.6861 10.92C22.0381 10.92 22.3661 10.832 22.6701 10.656C22.9821 10.472 23.2301 10.208 23.4141 9.864C23.6061 9.52 23.7021 9.12 23.7021 8.664ZM28.0429 6.504V10.164C28.0429 10.412 28.0989 10.592 28.2109 10.704C28.3309 10.808 28.5309 10.86 28.8109 10.86H29.6509V12H28.5709C27.9549 12 27.4829 11.856 27.1549 11.568C26.8269 11.28 26.6629 10.812 26.6629 10.164V6.504H25.8829V5.388H26.6629V3.744H28.0429V5.388H29.6509V6.504H28.0429ZM31.6077 4.512C31.3597 4.512 31.1517 4.428 30.9837 4.26C30.8157 4.092 30.7317 3.884 30.7317 3.636C30.7317 3.388 30.8157 3.18 30.9837 3.012C31.1517 2.844 31.3597 2.76 31.6077 2.76C31.8477 2.76 32.0517 2.844 32.2197 3.012C32.3877 3.18 32.4717 3.388 32.4717 3.636C32.4717 3.884 32.3877 4.092 32.2197 4.26C32.0517 4.428 31.8477 4.512 31.6077 4.512ZM32.2797 5.388V12H30.9117V5.388H32.2797ZM36.9438 12.108C36.3198 12.108 35.7558 11.968 35.2518 11.688C34.7478 11.4 34.3518 11 34.0638 10.488C33.7758 9.968 33.6318 9.368 33.6318 8.688C33.6318 8.016 33.7798 7.42 34.0758 6.9C34.3718 6.38 34.7758 5.98 35.2878 5.7C35.7998 5.42 36.3718 5.28 37.0038 5.28C37.6358 5.28 38.2078 5.42 38.7198 5.7C39.2318 5.98 39.6358 6.38 39.9318 6.9C40.2278 7.42 40.3758 8.016 40.3758 8.688C40.3758 9.36 40.2238 9.956 39.9198 10.476C39.6158 10.996 39.1998 11.4 38.6718 11.688C38.1518 11.968 37.5758 12.108 36.9438 12.108ZM36.9438 10.92C37.2958 10.92 37.6238 10.836 37.9278 10.668C38.2398 10.5 38.4918 10.248 38.6838 9.912C38.8758 9.576 38.9718 9.168 38.9718 8.688C38.9718 8.208 38.8798 7.804 38.6958 7.476C38.5118 7.14 38.2678 6.888 37.9638 6.72C37.6598 6.552 37.3318 6.468 36.9798 6.468C36.6278 6.468 36.2998 6.552 35.9958 6.72C35.6998 6.888 35.4638 7.14 35.2878 7.476C35.1118 7.804 35.0238 8.208 35.0238 8.688C35.0238 9.4 35.2038 9.952 35.5638 10.344C35.9318 10.728 36.3918 10.92 36.9438 10.92ZM45.0641 5.28C45.5841 5.28 46.0481 5.388 46.4561 5.604C46.8721 5.82 47.1961 6.14 47.4281 6.564C47.6601 6.988 47.7761 7.5 47.7761 8.1V12H46.4201V8.304C46.4201 7.712 46.2721 7.26 45.9761 6.948C45.6801 6.628 45.2761 6.468 44.7641 6.468C44.2521 6.468 43.8441 6.628 43.5401 6.948C43.2441 7.26 43.0961 7.712 43.0961 8.304V12H41.7281V5.388H43.0961V6.144C43.3201 5.872 43.6041 5.66 43.9481 5.508C44.3001 5.356 44.6721 5.28 45.0641 5.28ZM57.7143 7.08V8.232H52.7823V7.08H57.7143ZM64.143 10.896H66.963V12H62.775V3.66H64.143V10.896ZM67.651 8.664C67.651 8 67.787 7.412 68.059 6.9C68.339 6.388 68.715 5.992 69.187 5.712C69.667 5.424 70.195 5.28 70.771 5.28C71.291 5.28 71.743 5.384 72.127 5.592C72.519 5.792 72.831 6.044 73.063 6.348V5.388H74.443V12H73.063V11.016C72.831 11.328 72.515 11.588 72.115 11.796C71.715 12.004 71.259 12.108 70.747 12.108C70.179 12.108 69.659 11.964 69.187 11.676C68.715 11.38 68.339 10.972 68.059 10.452C67.787 9.924 67.651 9.328 67.651 8.664ZM73.063 8.688C73.063 8.232 72.967 7.836 72.775 7.5C72.591 7.164 72.347 6.908 72.043 6.732C71.739 6.556 71.411 6.468 71.059 6.468C70.707 6.468 70.379 6.556 70.075 6.732C69.771 6.9 69.523 7.152 69.331 7.488C69.147 7.816 69.055 8.208 69.055 8.664C69.055 9.12 69.147 9.52 69.331 9.864C69.523 10.208 69.771 10.472 70.075 10.656C70.387 10.832 70.715 10.92 71.059 10.92C71.411 10.92 71.739 10.832 72.043 10.656C72.347 10.48 72.591 10.224 72.775 9.888C72.967 9.544 73.063 9.144 73.063 8.688ZM77.6078 6.372C77.8398 6.052 78.1558 5.792 78.5558 5.592C78.9638 5.384 79.4158 5.28 79.9118 5.28C80.4958 5.28 81.0238 5.42 81.4958 5.7C81.9678 5.98 82.3398 6.38 82.6118 6.9C82.8838 7.412 83.0198 8 83.0198 8.664C83.0198 9.328 82.8838 9.924 82.6118 10.452C82.3398 10.972 81.9638 11.38 81.4838 11.676C81.0118 11.964 80.4878 12.108 79.9118 12.108C79.3998 12.108 78.9438 12.008 78.5438 11.808C78.1518 11.608 77.8398 11.352 77.6078 11.04V12H76.2398V3.12H77.6078V6.372ZM81.6278 8.664C81.6278 8.208 81.5318 7.816 81.3398 7.488C81.1558 7.152 80.9078 6.9 80.5958 6.732C80.2918 6.556 79.9638 6.468 79.6118 6.468C79.2678 6.468 78.9398 6.556 78.6278 6.732C78.3238 6.908 78.0758 7.164 77.8838 7.5C77.6998 7.836 77.6078 8.232 77.6078 8.688C77.6078 9.144 77.6998 9.544 77.8838 9.888C78.0758 10.224 78.3238 10.48 78.6278 10.656C78.9398 10.832 79.2678 10.92 79.6118 10.92C79.9638 10.92 80.2918 10.832 80.5958 10.656C80.9078 10.472 81.1558 10.208 81.3398 9.864C81.5318 9.52 81.6278 9.12 81.6278 8.664ZM90.4327 8.532C90.4327 8.78 90.4167 9.004 90.3847 9.204H85.3327C85.3727 9.732 85.5687 10.156 85.9207 10.476C86.2727 10.796 86.7047 10.956 87.2167 10.956C87.9527 10.956 88.4727 10.648 88.7767 10.032H90.2527C90.0527 10.64 89.6887 11.14 89.1607 11.532C88.6407 11.916 87.9927 12.108 87.2167 12.108C86.5847 12.108 86.0167 11.968 85.5127 11.688C85.0167 11.4 84.6247 11 84.3367 10.488C84.0567 9.968 83.9167 9.368 83.9167 8.688C83.9167 8.008 84.0527 7.412 84.3247 6.9C84.6047 6.38 84.9927 5.98 85.4887 5.7C85.9927 5.42 86.5687 5.28 87.2167 5.28C87.8407 5.28 88.3967 5.416 88.8847 5.688C89.3727 5.96 89.7527 6.344 90.0247 6.84C90.2967 7.328 90.4327 7.892 90.4327 8.532ZM89.0047 8.1C88.9967 7.596 88.8167 7.192 88.4647 6.888C88.1127 6.584 87.6767 6.432 87.1567 6.432C86.6847 6.432 86.2807 6.584 85.9447 6.888C85.6087 7.184 85.4087 7.588 85.3447 8.1H89.0047ZM93.1469 3.12V12H91.7789V3.12H93.1469ZM97.343 12.108C96.823 12.108 96.355 12.016 95.939 11.832C95.531 11.64 95.207 11.384 94.967 11.064C94.727 10.736 94.599 10.372 94.583 9.972H95.999C96.023 10.252 96.155 10.488 96.395 10.68C96.643 10.864 96.951 10.956 97.319 10.956C97.703 10.956 97.999 10.884 98.207 10.74C98.423 10.588 98.531 10.396 98.531 10.164C98.531 9.916 98.411 9.732 98.171 9.612C97.939 9.492 97.567 9.36 97.055 9.216C96.559 9.08 96.155 8.948 95.843 8.82C95.531 8.692 95.259 8.496 95.027 8.232C94.803 7.968 94.691 7.62 94.691 7.188C94.691 6.836 94.795 6.516 95.003 6.228C95.211 5.932 95.507 5.7 95.891 5.532C96.283 5.364 96.731 5.28 97.235 5.28C97.987 5.28 98.591 5.472 99.047 5.856C99.511 6.232 99.759 6.748 99.791 7.404H98.423C98.399 7.108 98.279 6.872 98.063 6.696C97.847 6.52 97.555 6.432 97.187 6.432C96.827 6.432 96.551 6.5 96.359 6.636C96.167 6.772 96.071 6.952 96.071 7.176C96.071 7.352 96.135 7.5 96.263 7.62C96.391 7.74 96.547 7.836 96.731 7.908C96.915 7.972 97.187 8.056 97.547 8.16C98.027 8.288 98.419 8.42 98.723 8.556C99.035 8.684 99.303 8.876 99.527 9.132C99.751 9.388 99.867 9.728 99.875 10.152C99.875 10.528 99.771 10.864 99.563 11.16C99.355 11.456 99.059 11.688 98.675 11.856C98.299 12.024 97.855 12.108 97.343 12.108ZM102.853 10.356L101.401 13.668H100.513L101.365 10.356H102.853ZM112.554 3.66V4.776H110.334V12H108.966V4.776H106.734V3.66H112.554ZM113.483 8.664C113.483 8 113.619 7.412 113.891 6.9C114.171 6.388 114.547 5.992 115.019 5.712C115.499 5.424 116.027 5.28 116.603 5.28C117.123 5.28 117.575 5.384 117.959 5.592C118.351 5.792 118.663 6.044 118.895 6.348V5.388H120.275V12H118.895V11.016C118.663 11.328 118.347 11.588 117.947 11.796C117.547 12.004 117.091 12.108 116.579 12.108C116.011 12.108 115.491 11.964 115.019 11.676C114.547 11.38 114.171 10.972 113.891 10.452C113.619 9.924 113.483 9.328 113.483 8.664ZM118.895 8.688C118.895 8.232 118.799 7.836 118.607 7.5C118.423 7.164 118.179 6.908 117.875 6.732C117.571 6.556 117.243 6.468 116.891 6.468C116.539 6.468 116.211 6.556 115.907 6.732C115.603 6.9 115.355 7.152 115.163 7.488C114.979 7.816 114.887 8.208 114.887 8.664C114.887 9.12 114.979 9.52 115.163 9.864C115.355 10.208 115.603 10.472 115.907 10.656C116.219 10.832 116.547 10.92 116.891 10.92C117.243 10.92 117.571 10.832 117.875 10.656C118.179 10.48 118.423 10.224 118.607 9.888C118.799 9.544 118.895 9.144 118.895 8.688ZM124.736 5.28C125.248 5.28 125.7 5.384 126.092 5.592C126.492 5.792 126.804 6.044 127.028 6.348V5.388H128.408V12.108C128.408 12.716 128.28 13.256 128.024 13.728C127.768 14.208 127.396 14.584 126.908 14.856C126.428 15.128 125.852 15.264 125.18 15.264C124.284 15.264 123.54 15.052 122.948 14.628C122.356 14.212 122.02 13.644 121.94 12.924H123.296C123.4 13.268 123.62 13.544 123.956 13.752C124.3 13.968 124.708 14.076 125.18 14.076C125.732 14.076 126.176 13.908 126.512 13.572C126.856 13.236 127.028 12.748 127.028 12.108V11.004C126.796 11.316 126.48 11.58 126.08 11.796C125.688 12.004 125.24 12.108 124.736 12.108C124.16 12.108 123.632 11.964 123.152 11.676C122.68 11.38 122.304 10.972 122.024 10.452C121.752 9.924 121.616 9.328 121.616 8.664C121.616 8 121.752 7.412 122.024 6.9C122.304 6.388 122.68 5.992 123.152 5.712C123.632 5.424 124.16 5.28 124.736 5.28ZM127.028 8.688C127.028 8.232 126.932 7.836 126.74 7.5C126.556 7.164 126.312 6.908 126.008 6.732C125.704 6.556 125.376 6.468 125.024 6.468C124.672 6.468 124.344 6.556 124.04 6.732C123.736 6.9 123.488 7.152 123.296 7.488C123.112 7.816 123.02 8.208 123.02 8.664C123.02 9.12 123.112 9.52 123.296 9.864C123.488 10.208 123.736 10.472 124.04 10.656C124.352 10.832 124.68 10.92 125.024 10.92C125.376 10.92 125.704 10.832 126.008 10.656C126.312 10.48 126.556 10.224 126.74 9.888C126.932 9.544 127.028 9.144 127.028 8.688ZM132.605 12.108C132.085 12.108 131.617 12.016 131.201 11.832C130.793 11.64 130.469 11.384 130.229 11.064C129.989 10.736 129.861 10.372 129.845 9.972H131.261C131.285 10.252 131.417 10.488 131.657 10.68C131.905 10.864 132.213 10.956 132.581 10.956C132.965 10.956 133.261 10.884 133.469 10.74C133.685 10.588 133.793 10.396 133.793 10.164C133.793 9.916 133.673 9.732 133.433 9.612C133.201 9.492 132.829 9.36 132.317 9.216C131.821 9.08 131.417 8.948 131.105 8.82C130.793 8.692 130.521 8.496 130.289 8.232C130.065 7.968 129.953 7.62 129.953 7.188C129.953 6.836 130.057 6.516 130.265 6.228C130.473 5.932 130.769 5.7 131.153 5.532C131.545 5.364 131.993 5.28 132.497 5.28C133.249 5.28 133.853 5.472 134.309 5.856C134.773 6.232 135.021 6.748 135.053 7.404H133.685C133.661 7.108 133.541 6.872 133.325 6.696C133.109 6.52 132.817 6.432 132.449 6.432C132.089 6.432 131.813 6.5 131.621 6.636C131.429 6.772 131.333 6.952 131.333 7.176C131.333 7.352 131.397 7.5 131.525 7.62C131.653 7.74 131.809 7.836 131.993 7.908C132.177 7.972 132.449 8.056 132.809 8.16C133.289 8.288 133.681 8.42 133.985 8.556C134.297 8.684 134.565 8.876 134.789 9.132C135.013 9.388 135.129 9.728 135.137 10.152C135.137 10.528 135.033 10.864 134.825 11.16C134.617 11.456 134.321 11.688 133.937 11.856C133.561 12.024 133.117 12.108 132.605 12.108ZM138.115 10.356L136.663 13.668H135.775L136.627 10.356H138.115ZM149.087 3.66V12H147.719V8.352H143.795V12H142.427V3.66H143.795V7.236H147.719V3.66H149.087ZM151.584 4.512C151.336 4.512 151.128 4.428 150.96 4.26C150.792 4.092 150.708 3.884 150.708 3.636C150.708 3.388 150.792 3.18 150.96 3.012C151.128 2.844 151.336 2.76 151.584 2.76C151.824 2.76 152.028 2.844 152.196 3.012C152.364 3.18 152.448 3.388 152.448 3.636C152.448 3.884 152.364 4.092 152.196 4.26C152.028 4.428 151.824 4.512 151.584 4.512ZM152.256 5.388V12H150.888V5.388H152.256ZM157.388 5.28C157.908 5.28 158.372 5.388 158.78 5.604C159.196 5.82 159.52 6.14 159.752 6.564C159.984 6.988 160.1 7.5 160.1 8.1V12H158.744V8.304C158.744 7.712 158.596 7.26 158.3 6.948C158.004 6.628 157.6 6.468 157.088 6.468C156.576 6.468 156.168 6.628 155.864 6.948C155.568 7.26 155.42 7.712 155.42 8.304V12H154.052V5.388H155.42V6.144C155.644 5.872 155.928 5.66 156.272 5.508C156.624 5.356 156.996 5.28 157.388 5.28ZM163.441 6.504V10.164C163.441 10.412 163.497 10.592 163.609 10.704C163.729 10.808 163.929 10.86 164.209 10.86H165.049V12H163.969C163.353 12 162.881 11.856 162.553 11.568C162.225 11.28 162.061 10.812 162.061 10.164V6.504H161.281V5.388H162.061V3.744H163.441V5.388H165.049V6.504H163.441ZM168.71 12.108C168.19 12.108 167.722 12.016 167.306 11.832C166.898 11.64 166.574 11.384 166.334 11.064C166.094 10.736 165.966 10.372 165.95 9.972H167.366C167.39 10.252 167.522 10.488 167.762 10.68C168.01 10.864 168.318 10.956 168.686 10.956C169.07 10.956 169.366 10.884 169.574 10.74C169.79 10.588 169.898 10.396 169.898 10.164C169.898 9.916 169.778 9.732 169.538 9.612C169.306 9.492 168.934 9.36 168.422 9.216C167.926 9.08 167.522 8.948 167.21 8.82C166.898 8.692 166.626 8.496 166.394 8.232C166.17 7.968 166.058 7.62 166.058 7.188C166.058 6.836 166.162 6.516 166.37 6.228C166.578 5.932 166.874 5.7 167.258 5.532C167.65 5.364 168.098 5.28 168.602 5.28C169.354 5.28 169.958 5.472 170.414 5.856C170.878 6.232 171.126 6.748 171.158 7.404H169.79C169.766 7.108 169.646 6.872 169.43 6.696C169.214 6.52 168.922 6.432 168.554 6.432C168.194 6.432 167.918 6.5 167.726 6.636C167.534 6.772 167.438 6.952 167.438 7.176C167.438 7.352 167.502 7.5 167.63 7.62C167.758 7.74 167.914 7.836 168.098 7.908C168.282 7.972 168.554 8.056 168.914 8.16C169.394 8.288 169.786 8.42 170.09 8.556C170.402 8.684 170.67 8.876 170.894 9.132C171.118 9.388 171.234 9.728 171.242 10.152C171.242 10.528 171.138 10.864 170.93 11.16C170.722 11.456 170.426 11.688 170.042 11.856C169.666 12.024 169.222 12.108 168.71 12.108Z" fill="#3A3A3A"/>
</svg>
