<svg width="270" height="20" viewBox="0 0 270 20" fill="none" xmlns="http://www.w3.org/2000/svg">
<path d="M5.964 9.974C6.31867 10.03 6.64067 10.1747 6.93 10.408C7.22867 10.6413 7.462 10.9307 7.63 11.276C7.80733 11.6213 7.896 11.99 7.896 12.382C7.896 12.8767 7.77 13.3247 7.518 13.726C7.266 14.118 6.89733 14.4307 6.412 14.664C5.936 14.888 5.37133 15 4.718 15H1.078V5.242H4.578C5.24067 5.242 5.80533 5.354 6.272 5.578C6.73867 5.79267 7.08867 6.08667 7.322 6.46C7.55533 6.83333 7.672 7.25333 7.672 7.72C7.672 8.29867 7.51333 8.77933 7.196 9.162C6.888 9.53533 6.47733 9.806 5.964 9.974ZM2.352 9.456H4.494C5.09133 9.456 5.55333 9.316 5.88 9.036C6.20667 8.756 6.37 8.36867 6.37 7.874C6.37 7.37933 6.20667 6.992 5.88 6.712C5.55333 6.432 5.082 6.292 4.466 6.292H2.352V9.456ZM4.606 13.95C5.24067 13.95 5.73533 13.8007 6.09 13.502C6.44467 13.2033 6.622 12.788 6.622 12.256C6.622 11.7147 6.43533 11.29 6.062 10.982C5.68867 10.6647 5.18933 10.506 4.564 10.506H2.352V13.95H4.606ZM13.0099 15.126C12.2913 15.126 11.6379 14.9627 11.0499 14.636C10.4713 14.3093 10.0139 13.8473 9.67794 13.25C9.35127 12.6433 9.18794 11.9433 9.18794 11.15C9.18794 10.366 9.35594 9.67533 9.69194 9.078C10.0373 8.47133 10.5039 8.00933 11.0919 7.692C11.6799 7.36533 12.3379 7.202 13.0659 7.202C13.7939 7.202 14.4519 7.36533 15.0399 7.692C15.6279 8.00933 16.0899 8.46667 16.4259 9.064C16.7713 9.66133 16.9439 10.3567 16.9439 11.15C16.9439 11.9433 16.7666 12.6433 16.4119 13.25C16.0666 13.8473 15.5953 14.3093 14.9979 14.636C14.4006 14.9627 13.7379 15.126 13.0099 15.126ZM13.0099 14.006C13.4673 14.006 13.8966 13.8987 14.2979 13.684C14.6993 13.4693 15.0213 13.1473 15.2639 12.718C15.5159 12.2887 15.6419 11.766 15.6419 11.15C15.6419 10.534 15.5206 10.0113 15.2779 9.582C15.0353 9.15267 14.7179 8.83533 14.3259 8.63C13.9339 8.41533 13.5093 8.308 13.0519 8.308C12.5853 8.308 12.1559 8.41533 11.7639 8.63C11.3813 8.83533 11.0733 9.15267 10.8399 9.582C10.6066 10.0113 10.4899 10.534 10.4899 11.15C10.4899 11.7753 10.6019 12.3027 10.8259 12.732C11.0593 13.1613 11.3673 13.4833 11.7499 13.698C12.1326 13.9033 12.5526 14.006 13.0099 14.006ZM18.143 11.136C18.143 10.352 18.3017 9.666 18.619 9.078C18.9363 8.48067 19.3703 8.01867 19.921 7.692C20.481 7.36533 21.1063 7.202 21.797 7.202C22.3943 7.202 22.9497 7.342 23.463 7.622C23.9763 7.89267 24.3683 8.252 24.639 8.7V4.64H25.927V15H24.639V13.558C24.387 14.0153 24.0137 14.3933 23.519 14.692C23.0243 14.9813 22.4457 15.126 21.783 15.126C21.1017 15.126 20.481 14.958 19.921 14.622C19.3703 14.286 18.9363 13.8147 18.619 13.208C18.3017 12.6013 18.143 11.9107 18.143 11.136ZM24.639 11.15C24.639 10.5713 24.5223 10.0673 24.289 9.638C24.0557 9.20867 23.7383 8.882 23.337 8.658C22.945 8.42467 22.511 8.308 22.035 8.308C21.559 8.308 21.125 8.42 20.733 8.644C20.341 8.868 20.0283 9.19467 19.795 9.624C19.5617 10.0533 19.445 10.5573 19.445 11.136C19.445 11.724 19.5617 12.2373 19.795 12.676C20.0283 13.1053 20.341 13.4367 20.733 13.67C21.125 13.894 21.559 14.006 22.035 14.006C22.511 14.006 22.945 13.894 23.337 13.67C23.7383 13.4367 24.0557 13.1053 24.289 12.676C24.5223 12.2373 24.639 11.7287 24.639 11.15ZM34.688 7.328L30.068 18.612H28.752L30.264 14.916L27.17 7.328H28.584L30.992 13.544L33.372 7.328H34.688ZM42.795 15.098C42.151 15.098 41.5724 14.986 41.059 14.762C40.555 14.5287 40.1584 14.2113 39.869 13.81C39.5797 13.3993 39.4304 12.928 39.421 12.396H40.779C40.8257 12.8533 41.0124 13.2407 41.339 13.558C41.675 13.866 42.1604 14.02 42.795 14.02C43.4017 14.02 43.8777 13.8707 44.223 13.572C44.5777 13.264 44.755 12.872 44.755 12.396C44.755 12.0227 44.6524 11.7193 44.447 11.486C44.2417 11.2527 43.985 11.0753 43.677 10.954C43.369 10.8327 42.9537 10.702 42.431 10.562C41.787 10.394 41.269 10.226 40.877 10.058C40.4944 9.89 40.163 9.62867 39.883 9.274C39.6124 8.91 39.477 8.42467 39.477 7.818C39.477 7.286 39.6124 6.81467 39.883 6.404C40.1537 5.99333 40.5317 5.676 41.017 5.452C41.5117 5.228 42.0764 5.116 42.711 5.116C43.6257 5.116 44.3724 5.34467 44.951 5.802C45.539 6.25933 45.8704 6.866 45.945 7.622H44.545C44.4984 7.24867 44.3024 6.922 43.957 6.642C43.6117 6.35267 43.1544 6.208 42.585 6.208C42.053 6.208 41.619 6.348 41.283 6.628C40.947 6.89867 40.779 7.28133 40.779 7.776C40.779 8.13067 40.877 8.42 41.073 8.644C41.2784 8.868 41.5257 9.04067 41.815 9.162C42.1137 9.274 42.529 9.40467 43.061 9.554C43.705 9.73133 44.223 9.90867 44.615 10.086C45.007 10.254 45.343 10.52 45.623 10.884C45.903 11.2387 46.043 11.724 46.043 12.34C46.043 12.816 45.917 13.264 45.665 13.684C45.413 14.104 45.0397 14.4447 44.545 14.706C44.0504 14.9673 43.467 15.098 42.795 15.098ZM57.1438 7.188C57.7412 7.188 58.2732 7.314 58.7398 7.566C59.2065 7.80867 59.5752 8.17733 59.8458 8.672C60.1165 9.16667 60.2518 9.76867 60.2518 10.478V15H58.9918V10.66C58.9918 9.89467 58.8005 9.31133 58.4178 8.91C58.0445 8.49933 57.5358 8.294 56.8918 8.294C56.2292 8.294 55.7018 8.50867 55.3098 8.938C54.9178 9.358 54.7218 9.96933 54.7218 10.772V15H53.4618V10.66C53.4618 9.89467 53.2705 9.31133 52.8878 8.91C52.5145 8.49933 52.0058 8.294 51.3618 8.294C50.6992 8.294 50.1718 8.50867 49.7798 8.938C49.3878 9.358 49.1918 9.96933 49.1918 10.772V15H47.9178V7.328H49.1918V8.434C49.4438 8.03267 49.7798 7.72467 50.1998 7.51C50.6292 7.29533 51.1005 7.188 51.6138 7.188C52.2578 7.188 52.8272 7.33267 53.3218 7.622C53.8165 7.91133 54.1852 8.336 54.4278 8.896C54.6425 8.35467 54.9972 7.93467 55.4918 7.636C55.9865 7.33733 56.5372 7.188 57.1438 7.188ZM61.8657 11.136C61.8657 10.352 62.0243 9.666 62.3417 9.078C62.659 8.48067 63.093 8.01867 63.6437 7.692C64.2037 7.36533 64.8243 7.202 65.5057 7.202C66.1777 7.202 66.761 7.34667 67.2557 7.636C67.7503 7.92533 68.119 8.28933 68.3617 8.728V7.328H69.6497V15H68.3617V13.572C68.1097 14.02 67.7317 14.3933 67.2277 14.692C66.733 14.9813 66.1543 15.126 65.4917 15.126C64.8103 15.126 64.1943 14.958 63.6437 14.622C63.093 14.286 62.659 13.8147 62.3417 13.208C62.0243 12.6013 61.8657 11.9107 61.8657 11.136ZM68.3617 11.15C68.3617 10.5713 68.245 10.0673 68.0117 9.638C67.7783 9.20867 67.461 8.882 67.0597 8.658C66.6677 8.42467 66.2337 8.308 65.7577 8.308C65.2817 8.308 64.8477 8.42 64.4557 8.644C64.0637 8.868 63.751 9.19467 63.5177 9.624C63.2843 10.0533 63.1677 10.5573 63.1677 11.136C63.1677 11.724 63.2843 12.2373 63.5177 12.676C63.751 13.1053 64.0637 13.4367 64.4557 13.67C64.8477 13.894 65.2817 14.006 65.7577 14.006C66.2337 14.006 66.6677 13.894 67.0597 13.67C67.461 13.4367 67.7783 13.1053 68.0117 12.676C68.245 12.2373 68.3617 11.7287 68.3617 11.15ZM73.0766 4.64V15H71.8026V4.64H73.0766ZM76.5219 4.64V15H75.2479V4.64H76.5219ZM87.7457 9.33V10.408H82.1597V9.33H87.7457ZM96.963 15.098C96.319 15.098 95.7403 14.986 95.227 14.762C94.723 14.5287 94.3263 14.2113 94.037 13.81C93.7477 13.3993 93.5983 12.928 93.589 12.396H94.947C94.9937 12.8533 95.1803 13.2407 95.507 13.558C95.843 13.866 96.3283 14.02 96.963 14.02C97.5697 14.02 98.0457 13.8707 98.391 13.572C98.7457 13.264 98.923 12.872 98.923 12.396C98.923 12.0227 98.8203 11.7193 98.615 11.486C98.4097 11.2527 98.153 11.0753 97.845 10.954C97.537 10.8327 97.1217 10.702 96.599 10.562C95.955 10.394 95.437 10.226 95.045 10.058C94.6623 9.89 94.331 9.62867 94.051 9.274C93.7803 8.91 93.645 8.42467 93.645 7.818C93.645 7.286 93.7803 6.81467 94.051 6.404C94.3217 5.99333 94.6997 5.676 95.185 5.452C95.6797 5.228 96.2443 5.116 96.879 5.116C97.7937 5.116 98.5403 5.34467 99.119 5.802C99.707 6.25933 100.038 6.866 100.113 7.622H98.713C98.6663 7.24867 98.4703 6.922 98.125 6.642C97.7797 6.35267 97.3223 6.208 96.753 6.208C96.221 6.208 95.787 6.348 95.451 6.628C95.115 6.89867 94.947 7.28133 94.947 7.776C94.947 8.13067 95.045 8.42 95.241 8.644C95.4463 8.868 95.6937 9.04067 95.983 9.162C96.2817 9.274 96.697 9.40467 97.229 9.554C97.873 9.73133 98.391 9.90867 98.783 10.086C99.175 10.254 99.511 10.52 99.791 10.884C100.071 11.2387 100.211 11.724 100.211 12.34C100.211 12.816 100.085 13.264 99.833 13.684C99.581 14.104 99.2077 14.4447 98.713 14.706C98.2183 14.9673 97.635 15.098 96.963 15.098ZM109.086 10.87C109.086 11.1127 109.072 11.3693 109.044 11.64H102.912C102.958 12.396 103.215 12.9887 103.682 13.418C104.158 13.838 104.732 14.048 105.404 14.048C105.954 14.048 106.412 13.922 106.776 13.67C107.149 13.4087 107.41 13.0633 107.56 12.634H108.932C108.726 13.3713 108.316 13.9733 107.7 14.44C107.084 14.8973 106.318 15.126 105.404 15.126C104.676 15.126 104.022 14.9627 103.444 14.636C102.874 14.3093 102.426 13.8473 102.1 13.25C101.773 12.6433 101.61 11.9433 101.61 11.15C101.61 10.3567 101.768 9.66133 102.086 9.064C102.403 8.46667 102.846 8.00933 103.416 7.692C103.994 7.36533 104.657 7.202 105.404 7.202C106.132 7.202 106.776 7.36067 107.336 7.678C107.896 7.99533 108.325 8.434 108.624 8.994C108.932 9.54467 109.086 10.17 109.086 10.87ZM107.77 10.604C107.77 10.1187 107.662 9.70333 107.448 9.358C107.233 9.00333 106.939 8.73733 106.566 8.56C106.202 8.37333 105.796 8.28 105.348 8.28C104.704 8.28 104.153 8.48533 103.696 8.896C103.248 9.30667 102.991 9.876 102.926 10.604H107.77ZM110.291 11.15C110.291 10.3567 110.45 9.666 110.767 9.078C111.085 8.48067 111.523 8.01867 112.083 7.692C112.653 7.36533 113.301 7.202 114.029 7.202C114.972 7.202 115.747 7.43067 116.353 7.888C116.969 8.34533 117.375 8.98 117.571 9.792H116.199C116.069 9.32533 115.812 8.95667 115.429 8.686C115.056 8.41533 114.589 8.28 114.029 8.28C113.301 8.28 112.713 8.532 112.265 9.036C111.817 9.53067 111.593 10.2353 111.593 11.15C111.593 12.074 111.817 12.788 112.265 13.292C112.713 13.796 113.301 14.048 114.029 14.048C114.589 14.048 115.056 13.9173 115.429 13.656C115.803 13.3947 116.059 13.0213 116.199 12.536H117.571C117.366 13.32 116.955 13.95 116.339 14.426C115.723 14.8927 114.953 15.126 114.029 15.126C113.301 15.126 112.653 14.9627 112.083 14.636C111.523 14.3093 111.085 13.8473 110.767 13.25C110.45 12.6527 110.291 11.9527 110.291 11.15ZM122.617 15.126C121.899 15.126 121.245 14.9627 120.657 14.636C120.079 14.3093 119.621 13.8473 119.285 13.25C118.959 12.6433 118.795 11.9433 118.795 11.15C118.795 10.366 118.963 9.67533 119.299 9.078C119.645 8.47133 120.111 8.00933 120.699 7.692C121.287 7.36533 121.945 7.202 122.673 7.202C123.401 7.202 124.059 7.36533 124.647 7.692C125.235 8.00933 125.697 8.46667 126.033 9.064C126.379 9.66133 126.551 10.3567 126.551 11.15C126.551 11.9433 126.374 12.6433 126.019 13.25C125.674 13.8473 125.203 14.3093 124.605 14.636C124.008 14.9627 123.345 15.126 122.617 15.126ZM122.617 14.006C123.075 14.006 123.504 13.8987 123.905 13.684C124.307 13.4693 124.629 13.1473 124.871 12.718C125.123 12.2887 125.249 11.766 125.249 11.15C125.249 10.534 125.128 10.0113 124.885 9.582C124.643 9.15267 124.325 8.83533 123.933 8.63C123.541 8.41533 123.117 8.308 122.659 8.308C122.193 8.308 121.763 8.41533 121.371 8.63C120.989 8.83533 120.681 9.15267 120.447 9.582C120.214 10.0113 120.097 10.534 120.097 11.15C120.097 11.7753 120.209 12.3027 120.433 12.732C120.667 13.1613 120.975 13.4833 121.357 13.698C121.74 13.9033 122.16 14.006 122.617 14.006ZM131.964 7.188C132.898 7.188 133.654 7.47267 134.232 8.042C134.811 8.602 135.1 9.414 135.1 10.478V15H133.84V10.66C133.84 9.89467 133.649 9.31133 133.266 8.91C132.884 8.49933 132.361 8.294 131.698 8.294C131.026 8.294 130.49 8.504 130.088 8.924C129.696 9.344 129.5 9.95533 129.5 10.758V15H128.226V7.328H129.5V8.42C129.752 8.028 130.093 7.72467 130.522 7.51C130.961 7.29533 131.442 7.188 131.964 7.188ZM136.706 11.136C136.706 10.352 136.864 9.666 137.182 9.078C137.499 8.48067 137.933 8.01867 138.484 7.692C139.044 7.36533 139.669 7.202 140.36 7.202C140.957 7.202 141.512 7.342 142.026 7.622C142.539 7.89267 142.931 8.252 143.202 8.7V4.64H144.49V15H143.202V13.558C142.95 14.0153 142.576 14.3933 142.082 14.692C141.587 14.9813 141.008 15.126 140.346 15.126C139.664 15.126 139.044 14.958 138.484 14.622C137.933 14.286 137.499 13.8147 137.182 13.208C136.864 12.6013 136.706 11.9107 136.706 11.136ZM143.202 11.15C143.202 10.5713 143.085 10.0673 142.852 9.638C142.618 9.20867 142.301 8.882 141.9 8.658C141.508 8.42467 141.074 8.308 140.598 8.308C140.122 8.308 139.688 8.42 139.296 8.644C138.904 8.868 138.591 9.19467 138.358 9.624C138.124 10.0533 138.008 10.5573 138.008 11.136C138.008 11.724 138.124 12.2373 138.358 12.676C138.591 13.1053 138.904 13.4367 139.296 13.67C139.688 13.894 140.122 14.006 140.598 14.006C141.074 14.006 141.508 13.894 141.9 13.67C142.301 13.4367 142.618 13.1053 142.852 12.676C143.085 12.2373 143.202 11.7287 143.202 11.15ZM146.166 11.136C146.166 10.352 146.325 9.666 146.642 9.078C146.96 8.48067 147.394 8.01867 147.944 7.692C148.504 7.36533 149.125 7.202 149.806 7.202C150.478 7.202 151.062 7.34667 151.556 7.636C152.051 7.92533 152.42 8.28933 152.662 8.728V7.328H153.95V15H152.662V13.572C152.41 14.02 152.032 14.3933 151.528 14.692C151.034 14.9813 150.455 15.126 149.792 15.126C149.111 15.126 148.495 14.958 147.944 14.622C147.394 14.286 146.96 13.8147 146.642 13.208C146.325 12.6013 146.166 11.9107 146.166 11.136ZM152.662 11.15C152.662 10.5713 152.546 10.0673 152.312 9.638C152.079 9.20867 151.762 8.882 151.36 8.658C150.968 8.42467 150.534 8.308 150.058 8.308C149.582 8.308 149.148 8.42 148.756 8.644C148.364 8.868 148.052 9.19467 147.818 9.624C147.585 10.0533 147.468 10.5573 147.468 11.136C147.468 11.724 147.585 12.2373 147.818 12.676C148.052 13.1053 148.364 13.4367 148.756 13.67C149.148 13.894 149.582 14.006 150.058 14.006C150.534 14.006 150.968 13.894 151.36 13.67C151.762 13.4367 152.079 13.1053 152.312 12.676C152.546 12.2373 152.662 11.7287 152.662 11.15ZM157.377 8.574C157.601 8.13533 157.919 7.79467 158.329 7.552C158.749 7.30933 159.258 7.188 159.855 7.188V8.504H159.519C158.091 8.504 157.377 9.27867 157.377 10.828V15H156.103V7.328H157.377V8.574ZM167.934 7.328L163.314 18.612H161.998L163.51 14.916L160.416 7.328H161.83L164.238 13.544L166.618 7.328H167.934ZM174.221 5.242V15H172.947V5.242H174.221ZM180.13 7.188C181.064 7.188 181.82 7.47267 182.398 8.042C182.977 8.602 183.266 9.414 183.266 10.478V15H182.006V10.66C182.006 9.89467 181.815 9.31133 181.432 8.91C181.05 8.49933 180.527 8.294 179.864 8.294C179.192 8.294 178.656 8.504 178.254 8.924C177.862 9.344 177.666 9.95533 177.666 10.758V15H176.392V7.328H177.666V8.42C177.918 8.028 178.259 7.72467 178.688 7.51C179.127 7.29533 179.608 7.188 180.13 7.188ZM188.47 8.378H186.86V15H185.586V8.378H184.592V7.328H185.586V6.782C185.586 5.92333 185.805 5.298 186.244 4.906C186.692 4.50467 187.406 4.304 188.386 4.304V5.368C187.826 5.368 187.429 5.48 187.196 5.704C186.972 5.91867 186.86 6.278 186.86 6.782V7.328H188.47V8.378ZM193.301 15.126C192.582 15.126 191.929 14.9627 191.341 14.636C190.762 14.3093 190.305 13.8473 189.969 13.25C189.642 12.6433 189.479 11.9433 189.479 11.15C189.479 10.366 189.647 9.67533 189.983 9.078C190.328 8.47133 190.795 8.00933 191.383 7.692C191.971 7.36533 192.629 7.202 193.357 7.202C194.085 7.202 194.743 7.36533 195.331 7.692C195.919 8.00933 196.381 8.46667 196.717 9.064C197.062 9.66133 197.235 10.3567 197.235 11.15C197.235 11.9433 197.058 12.6433 196.703 13.25C196.358 13.8473 195.886 14.3093 195.289 14.636C194.692 14.9627 194.029 15.126 193.301 15.126ZM193.301 14.006C193.758 14.006 194.188 13.8987 194.589 13.684C194.99 13.4693 195.312 13.1473 195.555 12.718C195.807 12.2887 195.933 11.766 195.933 11.15C195.933 10.534 195.812 10.0113 195.569 9.582C195.326 9.15267 195.009 8.83533 194.617 8.63C194.225 8.41533 193.8 8.308 193.343 8.308C192.876 8.308 192.447 8.41533 192.055 8.63C191.672 8.83533 191.364 9.15267 191.131 9.582C190.898 10.0113 190.781 10.534 190.781 11.15C190.781 11.7753 190.893 12.3027 191.117 12.732C191.35 13.1613 191.658 13.4833 192.041 13.698C192.424 13.9033 192.844 14.006 193.301 14.006Z" fill="#3A3A3A"/>
</svg>
