<svg width="427" height="48" viewBox="0 0 427 48" fill="none" xmlns="http://www.w3.org/2000/svg">
<path d="M12.96 7.04V21H10.16V15.06H4.18V21H1.38V7.04H4.18V12.78H10.16V7.04H12.96ZM26.0159 15.22C26.0159 15.62 25.9893 15.98 25.9359 16.3H17.8359C17.9026 17.1 18.1826 17.7267 18.6759 18.18C19.1693 18.6333 19.7759 18.86 20.4959 18.86C21.5359 18.86 22.2759 18.4133 22.7159 17.52H25.7359C25.4159 18.5867 24.8026 19.4667 23.8959 20.16C22.9893 20.84 21.8759 21.18 20.5559 21.18C19.4893 21.18 18.5293 20.9467 17.6759 20.48C16.8359 20 16.1759 19.3267 15.6959 18.46C15.2293 17.5933 14.9959 16.5933 14.9959 15.46C14.9959 14.3133 15.2293 13.3067 15.6959 12.44C16.1626 11.5733 16.8159 10.9067 17.6559 10.44C18.4959 9.97333 19.4626 9.74 20.5559 9.74C21.6093 9.74 22.5493 9.96667 23.3759 10.42C24.2159 10.8733 24.8626 11.52 25.3159 12.36C25.7826 13.1867 26.0159 14.14 26.0159 15.22ZM23.1159 14.42C23.1026 13.7 22.8426 13.1267 22.3359 12.7C21.8293 12.26 21.2093 12.04 20.4759 12.04C19.7826 12.04 19.1959 12.2533 18.7159 12.68C18.2493 13.0933 17.9626 13.6733 17.8559 14.42H23.1159ZM27.3397 15.42C27.3397 14.3 27.5597 13.3067 27.9997 12.44C28.453 11.5733 29.0597 10.9067 29.8197 10.44C30.593 9.97333 31.453 9.74 32.3997 9.74C33.2264 9.74 33.9464 9.90667 34.5597 10.24C35.1864 10.5733 35.6864 10.9933 36.0597 11.5V9.92H38.8797V21H36.0597V19.38C35.6997 19.9 35.1997 20.3333 34.5597 20.68C33.933 21.0133 33.2064 21.18 32.3797 21.18C31.4464 21.18 30.593 20.94 29.8197 20.46C29.0597 19.98 28.453 19.3067 27.9997 18.44C27.5597 17.56 27.3397 16.5533 27.3397 15.42ZM36.0597 15.46C36.0597 14.78 35.9264 14.2 35.6597 13.72C35.393 13.2267 35.033 12.8533 34.5797 12.6C34.1264 12.3333 33.6397 12.2 33.1197 12.2C32.5997 12.2 32.1197 12.3267 31.6797 12.58C31.2397 12.8333 30.8797 13.2067 30.5997 13.7C30.333 14.18 30.1997 14.7533 30.1997 15.42C30.1997 16.0867 30.333 16.6733 30.5997 17.18C30.8797 17.6733 31.2397 18.0533 31.6797 18.32C32.133 18.5867 32.613 18.72 33.1197 18.72C33.6397 18.72 34.1264 18.5933 34.5797 18.34C35.033 18.0733 35.393 17.7 35.6597 17.22C35.9264 16.7267 36.0597 16.14 36.0597 15.46ZM40.8944 15.42C40.8944 14.3 41.1144 13.3067 41.5544 12.44C42.0077 11.5733 42.621 10.9067 43.3944 10.44C44.1677 9.97333 45.0277 9.74 45.9744 9.74C46.6944 9.74 47.381 9.9 48.0344 10.22C48.6877 10.5267 49.2077 10.94 49.5944 11.46V6.2H52.4344V21H49.5944V19.36C49.2477 19.9067 48.761 20.3467 48.1344 20.68C47.5077 21.0133 46.781 21.18 45.9544 21.18C45.021 21.18 44.1677 20.94 43.3944 20.46C42.621 19.98 42.0077 19.3067 41.5544 18.44C41.1144 17.56 40.8944 16.5533 40.8944 15.42ZM49.6144 15.46C49.6144 14.78 49.481 14.2 49.2144 13.72C48.9477 13.2267 48.5877 12.8533 48.1344 12.6C47.681 12.3333 47.1944 12.2 46.6744 12.2C46.1544 12.2 45.6744 12.3267 45.2344 12.58C44.7944 12.8333 44.4344 13.2067 44.1544 13.7C43.8877 14.18 43.7544 14.7533 43.7544 15.42C43.7544 16.0867 43.8877 16.6733 44.1544 17.18C44.4344 17.6733 44.7944 18.0533 45.2344 18.32C45.6877 18.5867 46.1677 18.72 46.6744 18.72C47.1944 18.72 47.681 18.5933 48.1344 18.34C48.5877 18.0733 48.9477 17.7 49.2144 17.22C49.481 16.7267 49.6144 16.14 49.6144 15.46ZM56.5891 8.6C56.0957 8.6 55.6824 8.44667 55.3491 8.14C55.0291 7.82 54.8691 7.42667 54.8691 6.96C54.8691 6.49333 55.0291 6.10667 55.3491 5.8C55.6824 5.48 56.0957 5.32 56.5891 5.32C57.0824 5.32 57.4891 5.48 57.8091 5.8C58.1424 6.10667 58.3091 6.49333 58.3091 6.96C58.3091 7.42667 58.1424 7.82 57.8091 8.14C57.4891 8.44667 57.0824 8.6 56.5891 8.6ZM57.9691 9.92V21H55.1691V9.92H57.9691ZM66.8755 9.76C68.1955 9.76 69.2621 10.18 70.0755 11.02C70.8888 11.8467 71.2955 13.0067 71.2955 14.5V21H68.4955V14.88C68.4955 14 68.2755 13.3267 67.8355 12.86C67.3955 12.38 66.7955 12.14 66.0355 12.14C65.2621 12.14 64.6488 12.38 64.1955 12.86C63.7555 13.3267 63.5355 14 63.5355 14.88V21H60.7355V9.92H63.5355V11.3C63.9088 10.82 64.3821 10.4467 64.9555 10.18C65.5421 9.9 66.1821 9.76 66.8755 9.76ZM78.2981 9.74C79.1248 9.74 79.8515 9.90667 80.4781 10.24C81.1048 10.56 81.5981 10.98 81.9581 11.5V9.92H84.7781V21.08C84.7781 22.1067 84.5715 23.02 84.1581 23.82C83.7448 24.6333 83.1248 25.2733 82.2981 25.74C81.4715 26.22 80.4715 26.46 79.2981 26.46C77.7248 26.46 76.4315 26.0933 75.4181 25.36C74.4181 24.6267 73.8515 23.6267 73.7181 22.36H76.4981C76.6448 22.8667 76.9581 23.2667 77.4381 23.56C77.9315 23.8667 78.5248 24.02 79.2181 24.02C80.0315 24.02 80.6915 23.7733 81.1981 23.28C81.7048 22.8 81.9581 22.0667 81.9581 21.08V19.36C81.5981 19.88 81.0981 20.3133 80.4581 20.66C79.8315 21.0067 79.1115 21.18 78.2981 21.18C77.3648 21.18 76.5115 20.94 75.7381 20.46C74.9648 19.98 74.3515 19.3067 73.8981 18.44C73.4581 17.56 73.2381 16.5533 73.2381 15.42C73.2381 14.3 73.4581 13.3067 73.8981 12.44C74.3515 11.5733 74.9581 10.9067 75.7181 10.44C76.4915 9.97333 77.3515 9.74 78.2981 9.74ZM81.9581 15.46C81.9581 14.78 81.8248 14.2 81.5581 13.72C81.2915 13.2267 80.9315 12.8533 80.4781 12.6C80.0248 12.3333 79.5381 12.2 79.0181 12.2C78.4981 12.2 78.0181 12.3267 77.5781 12.58C77.1381 12.8333 76.7781 13.2067 76.4981 13.7C76.2315 14.18 76.0981 14.7533 76.0981 15.42C76.0981 16.0867 76.2315 16.6733 76.4981 17.18C76.7781 17.6733 77.1381 18.0533 77.5781 18.32C78.0315 18.5867 78.5115 18.72 79.0181 18.72C79.5381 18.72 80.0248 18.5933 80.4781 18.34C80.9315 18.0733 81.2915 17.7 81.5581 17.22C81.8248 16.7267 81.9581 16.14 81.9581 15.46ZM91.9984 10.26C92.0651 8.92667 92.5318 7.9 93.3984 7.18C94.2784 6.44667 95.4318 6.08 96.8584 6.08C97.8318 6.08 98.6651 6.25333 99.3584 6.6C100.052 6.93333 100.572 7.39333 100.918 7.98C101.278 8.55333 101.458 9.20667 101.458 9.94C101.458 10.78 101.238 11.4933 100.798 12.08C100.372 12.6533 99.8584 13.04 99.2584 13.24V13.32C100.032 13.56 100.632 13.9867 101.058 14.6C101.498 15.2133 101.718 16 101.718 16.96C101.718 17.76 101.532 18.4733 101.158 19.1C100.798 19.7267 100.258 20.22 99.5384 20.58C98.8318 20.9267 97.9784 21.1 96.9784 21.1C95.4718 21.1 94.2451 20.72 93.2984 19.96C92.3518 19.2 91.8518 18.08 91.7984 16.6H94.5184C94.5451 17.2533 94.7651 17.78 95.1784 18.18C95.6051 18.5667 96.1851 18.76 96.9184 18.76C97.5984 18.76 98.1184 18.5733 98.4784 18.2C98.8518 17.8133 99.0384 17.32 99.0384 16.72C99.0384 15.92 98.7851 15.3467 98.2784 15C97.7718 14.6533 96.9851 14.48 95.9184 14.48H95.3384V12.18H95.9184C97.8118 12.18 98.7584 11.5467 98.7584 10.28C98.7584 9.70667 98.5851 9.26 98.2384 8.94C97.9051 8.62 97.4184 8.46 96.7784 8.46C96.1518 8.46 95.6651 8.63333 95.3184 8.98C94.9851 9.31333 94.7918 9.74 94.7384 10.26H91.9984ZM117.537 12.68V15.04H109.057V12.68H117.537ZM134.062 7.04V9.3H128.243V12.88H132.703V15.1H128.243V21H125.443V7.04H134.062ZM140.968 21.18C139.901 21.18 138.941 20.9467 138.088 20.48C137.235 20 136.561 19.3267 136.068 18.46C135.588 17.5933 135.348 16.5933 135.348 15.46C135.348 14.3267 135.595 13.3267 136.088 12.46C136.595 11.5933 137.281 10.9267 138.148 10.46C139.015 9.98 139.981 9.74 141.048 9.74C142.115 9.74 143.081 9.98 143.948 10.46C144.815 10.9267 145.495 11.5933 145.988 12.46C146.495 13.3267 146.748 14.3267 146.748 15.46C146.748 16.5933 146.488 17.5933 145.968 18.46C145.461 19.3267 144.768 20 143.888 20.48C143.021 20.9467 142.048 21.18 140.968 21.18ZM140.968 18.74C141.475 18.74 141.948 18.62 142.388 18.38C142.841 18.1267 143.201 17.7533 143.468 17.26C143.735 16.7667 143.868 16.1667 143.868 15.46C143.868 14.4067 143.588 13.6 143.028 13.04C142.481 12.4667 141.808 12.18 141.008 12.18C140.208 12.18 139.535 12.4667 138.988 13.04C138.455 13.6 138.188 14.4067 138.188 15.46C138.188 16.5133 138.448 17.3267 138.968 17.9C139.501 18.46 140.168 18.74 140.968 18.74ZM151.602 11.64C151.962 11.0533 152.429 10.5933 153.002 10.26C153.589 9.92667 154.255 9.76 155.002 9.76V12.7H154.262C153.382 12.7 152.715 12.9067 152.262 13.32C151.822 13.7333 151.602 14.4533 151.602 15.48V21H148.802V9.92H151.602V11.64ZM166.473 21.14C165.5 21.14 164.62 20.9733 163.833 20.64C163.06 20.3067 162.447 19.8267 161.993 19.2C161.54 18.5733 161.307 17.8333 161.293 16.98H164.293C164.333 17.5533 164.533 18.0067 164.893 18.34C165.267 18.6733 165.773 18.84 166.413 18.84C167.067 18.84 167.58 18.6867 167.953 18.38C168.327 18.06 168.513 17.6467 168.513 17.14C168.513 16.7267 168.387 16.3867 168.133 16.12C167.88 15.8533 167.56 15.6467 167.173 15.5C166.8 15.34 166.28 15.1667 165.613 14.98C164.707 14.7133 163.967 14.4533 163.393 14.2C162.833 13.9333 162.347 13.54 161.933 13.02C161.533 12.4867 161.333 11.78 161.333 10.9C161.333 10.0733 161.54 9.35333 161.953 8.74C162.367 8.12667 162.947 7.66 163.693 7.34C164.44 7.00667 165.293 6.84 166.253 6.84C167.693 6.84 168.86 7.19333 169.753 7.9C170.66 8.59333 171.16 9.56667 171.253 10.82H168.173C168.147 10.34 167.94 9.94667 167.553 9.64C167.18 9.32 166.68 9.16 166.053 9.16C165.507 9.16 165.067 9.3 164.733 9.58C164.413 9.86 164.253 10.2667 164.253 10.8C164.253 11.1733 164.373 11.4867 164.613 11.74C164.867 11.98 165.173 12.18 165.533 12.34C165.907 12.4867 166.427 12.66 167.093 12.86C168 13.1267 168.74 13.3933 169.313 13.66C169.887 13.9267 170.38 14.3267 170.793 14.86C171.207 15.3933 171.413 16.0933 171.413 16.96C171.413 17.7067 171.22 18.4 170.833 19.04C170.447 19.68 169.88 20.1933 169.133 20.58C168.387 20.9533 167.5 21.14 166.473 21.14ZM184.301 9.92V21H181.481V19.6C181.121 20.08 180.648 20.46 180.061 20.74C179.488 21.0067 178.861 21.14 178.181 21.14C177.314 21.14 176.548 20.96 175.881 20.6C175.214 20.2267 174.688 19.6867 174.301 18.98C173.928 18.26 173.741 17.4067 173.741 16.42V9.92H176.541V16.02C176.541 16.9 176.761 17.58 177.201 18.06C177.641 18.5267 178.241 18.76 179.001 18.76C179.774 18.76 180.381 18.5267 180.821 18.06C181.261 17.58 181.481 16.9 181.481 16.02V9.92H184.301ZM189.864 11.54C190.224 11.0067 190.717 10.5733 191.344 10.24C191.984 9.90667 192.71 9.74 193.524 9.74C194.47 9.74 195.324 9.97333 196.084 10.44C196.857 10.9067 197.464 11.5733 197.904 12.44C198.357 13.2933 198.584 14.2867 198.584 15.42C198.584 16.5533 198.357 17.56 197.904 18.44C197.464 19.3067 196.857 19.98 196.084 20.46C195.324 20.94 194.47 21.18 193.524 21.18C192.697 21.18 191.97 21.02 191.344 20.7C190.73 20.3667 190.237 19.94 189.864 19.42V21H187.064V6.2H189.864V11.54ZM195.724 15.42C195.724 14.7533 195.584 14.18 195.304 13.7C195.037 13.2067 194.677 12.8333 194.224 12.58C193.784 12.3267 193.304 12.2 192.784 12.2C192.277 12.2 191.797 12.3333 191.344 12.6C190.904 12.8533 190.544 13.2267 190.264 13.72C189.997 14.2133 189.864 14.7933 189.864 15.46C189.864 16.1267 189.997 16.7067 190.264 17.2C190.544 17.6933 190.904 18.0733 191.344 18.34C191.797 18.5933 192.277 18.72 192.784 18.72C193.304 18.72 193.784 18.5867 194.224 18.32C194.677 18.0533 195.037 17.6733 195.304 17.18C195.584 16.6867 195.724 16.1 195.724 15.42ZM204.858 21.18C203.952 21.18 203.138 21.02 202.418 20.7C201.698 20.3667 201.125 19.92 200.698 19.36C200.285 18.8 200.058 18.18 200.018 17.5H202.838C202.892 17.9267 203.098 18.28 203.458 18.56C203.832 18.84 204.292 18.98 204.838 18.98C205.372 18.98 205.785 18.8733 206.078 18.66C206.385 18.4467 206.538 18.1733 206.538 17.84C206.538 17.48 206.352 17.2133 205.978 17.04C205.618 16.8533 205.038 16.6533 204.238 16.44C203.412 16.24 202.732 16.0333 202.198 15.82C201.678 15.6067 201.225 15.28 200.838 14.84C200.465 14.4 200.278 13.8067 200.278 13.06C200.278 12.4467 200.452 11.8867 200.798 11.38C201.158 10.8733 201.665 10.4733 202.318 10.18C202.985 9.88667 203.765 9.74 204.658 9.74C205.978 9.74 207.032 10.0733 207.818 10.74C208.605 11.3933 209.038 12.28 209.118 13.4H206.438C206.398 12.96 206.212 12.6133 205.878 12.36C205.558 12.0933 205.125 11.96 204.578 11.96C204.072 11.96 203.678 12.0533 203.398 12.24C203.132 12.4267 202.998 12.6867 202.998 13.02C202.998 13.3933 203.185 13.68 203.558 13.88C203.932 14.0667 204.512 14.26 205.298 14.46C206.098 14.66 206.758 14.8667 207.278 15.08C207.798 15.2933 208.245 15.6267 208.618 16.08C209.005 16.52 209.205 17.1067 209.218 17.84C209.218 18.48 209.038 19.0533 208.678 19.56C208.332 20.0667 207.825 20.4667 207.158 20.76C206.505 21.04 205.738 21.18 204.858 21.18ZM221.817 15.22C221.817 15.62 221.79 15.98 221.737 16.3H213.637C213.703 17.1 213.983 17.7267 214.477 18.18C214.97 18.6333 215.577 18.86 216.297 18.86C217.337 18.86 218.077 18.4133 218.517 17.52H221.537C221.217 18.5867 220.603 19.4667 219.697 20.16C218.79 20.84 217.677 21.18 216.357 21.18C215.29 21.18 214.33 20.9467 213.477 20.48C212.637 20 211.977 19.3267 211.497 18.46C211.03 17.5933 210.797 16.5933 210.797 15.46C210.797 14.3133 211.03 13.3067 211.497 12.44C211.963 11.5733 212.617 10.9067 213.457 10.44C214.297 9.97333 215.263 9.74 216.357 9.74C217.41 9.74 218.35 9.96667 219.177 10.42C220.017 10.8733 220.663 11.52 221.117 12.36C221.583 13.1867 221.817 14.14 221.817 15.22ZM218.917 14.42C218.903 13.7 218.643 13.1267 218.137 12.7C217.63 12.26 217.01 12.04 216.277 12.04C215.583 12.04 214.997 12.2533 214.517 12.68C214.05 13.0933 213.763 13.6733 213.657 14.42H218.917ZM223.14 15.46C223.14 14.3133 223.374 13.3133 223.84 12.46C224.307 11.5933 224.954 10.9267 225.78 10.46C226.607 9.98 227.554 9.74 228.62 9.74C229.994 9.74 231.127 10.0867 232.02 10.78C232.927 11.46 233.534 12.42 233.84 13.66H230.82C230.66 13.18 230.387 12.8067 230 12.54C229.627 12.26 229.16 12.12 228.6 12.12C227.8 12.12 227.167 12.4133 226.7 13C226.234 13.5733 226 14.3933 226 15.46C226 16.5133 226.234 17.3333 226.7 17.92C227.167 18.4933 227.8 18.78 228.6 18.78C229.734 18.78 230.474 18.2733 230.82 17.26H233.84C233.534 18.46 232.927 19.4133 232.02 20.12C231.114 20.8267 229.98 21.18 228.62 21.18C227.554 21.18 226.607 20.9467 225.78 20.48C224.954 20 224.307 19.3333 223.84 18.48C223.374 17.6133 223.14 16.6067 223.14 15.46ZM239.152 12.22V17.58C239.152 17.9533 239.238 18.2267 239.412 18.4C239.598 18.56 239.905 18.64 240.332 18.64H241.632V21H239.872C237.512 21 236.332 19.8533 236.332 17.56V12.22H235.012V9.92H236.332V7.18H239.152V9.92H241.632V12.22H239.152ZM245.066 8.6C244.572 8.6 244.159 8.44667 243.826 8.14C243.506 7.82 243.346 7.42667 243.346 6.96C243.346 6.49333 243.506 6.10667 243.826 5.8C244.159 5.48 244.572 5.32 245.066 5.32C245.559 5.32 245.966 5.48 246.286 5.8C246.619 6.10667 246.786 6.49333 246.786 6.96C246.786 7.42667 246.619 7.82 246.286 8.14C245.966 8.44667 245.559 8.6 245.066 8.6ZM246.446 9.92V21H243.646V9.92H246.446ZM254.132 21.18C253.065 21.18 252.105 20.9467 251.252 20.48C250.399 20 249.725 19.3267 249.232 18.46C248.752 17.5933 248.512 16.5933 248.512 15.46C248.512 14.3267 248.759 13.3267 249.252 12.46C249.759 11.5933 250.445 10.9267 251.312 10.46C252.179 9.98 253.145 9.74 254.212 9.74C255.279 9.74 256.245 9.98 257.112 10.46C257.979 10.9267 258.659 11.5933 259.152 12.46C259.659 13.3267 259.912 14.3267 259.912 15.46C259.912 16.5933 259.652 17.5933 259.132 18.46C258.625 19.3267 257.932 20 257.052 20.48C256.185 20.9467 255.212 21.18 254.132 21.18ZM254.132 18.74C254.639 18.74 255.112 18.62 255.552 18.38C256.005 18.1267 256.365 17.7533 256.632 17.26C256.899 16.7667 257.032 16.1667 257.032 15.46C257.032 14.4067 256.752 13.6 256.192 13.04C255.645 12.4667 254.972 12.18 254.172 12.18C253.372 12.18 252.699 12.4667 252.152 13.04C251.619 13.6 251.352 14.4067 251.352 15.46C251.352 16.5133 251.612 17.3267 252.132 17.9C252.665 18.46 253.332 18.74 254.132 18.74ZM268.106 9.76C269.426 9.76 270.493 10.18 271.306 11.02C272.119 11.8467 272.526 13.0067 272.526 14.5V21H269.726V14.88C269.726 14 269.506 13.3267 269.066 12.86C268.626 12.38 268.026 12.14 267.266 12.14C266.493 12.14 265.879 12.38 265.426 12.86C264.986 13.3267 264.766 14 264.766 14.88V21H261.966V9.92H264.766V11.3C265.139 10.82 265.613 10.4467 266.186 10.18C266.773 9.9 267.413 9.76 268.106 9.76ZM289.454 7.04V9.3H285.734V21H282.934V9.3H279.214V7.04H289.454ZM292.917 8.6C292.424 8.6 292.011 8.44667 291.677 8.14C291.357 7.82 291.197 7.42667 291.197 6.96C291.197 6.49333 291.357 6.10667 291.677 5.8C292.011 5.48 292.424 5.32 292.917 5.32C293.411 5.32 293.817 5.48 294.137 5.8C294.471 6.10667 294.637 6.49333 294.637 6.96C294.637 7.42667 294.471 7.82 294.137 8.14C293.817 8.44667 293.411 8.6 292.917 8.6ZM294.297 9.92V21H291.497V9.92H294.297ZM300.324 12.22V17.58C300.324 17.9533 300.41 18.2267 300.584 18.4C300.77 18.56 301.077 18.64 301.504 18.64H302.804V21H301.044C298.684 21 297.504 19.8533 297.504 17.56V12.22H296.184V9.92H297.504V7.18H300.324V9.92H302.804V12.22H300.324ZM307.618 6.2V21H304.818V6.2H307.618ZM320.684 15.22C320.684 15.62 320.657 15.98 320.604 16.3H312.504C312.571 17.1 312.851 17.7267 313.344 18.18C313.837 18.6333 314.444 18.86 315.164 18.86C316.204 18.86 316.944 18.4133 317.384 17.52H320.404C320.084 18.5867 319.471 19.4667 318.564 20.16C317.657 20.84 316.544 21.18 315.224 21.18C314.157 21.18 313.197 20.9467 312.344 20.48C311.504 20 310.844 19.3267 310.364 18.46C309.897 17.5933 309.664 16.5933 309.664 15.46C309.664 14.3133 309.897 13.3067 310.364 12.44C310.831 11.5733 311.484 10.9067 312.324 10.44C313.164 9.97333 314.131 9.74 315.224 9.74C316.277 9.74 317.217 9.96667 318.044 10.42C318.884 10.8733 319.531 11.52 319.984 12.36C320.451 13.1867 320.684 14.14 320.684 15.22ZM317.784 14.42C317.771 13.7 317.511 13.1267 317.004 12.7C316.497 12.26 315.877 12.04 315.144 12.04C314.451 12.04 313.864 12.2533 313.384 12.68C312.917 13.0933 312.631 13.6733 312.524 14.42H317.784ZM326.968 21.18C326.061 21.18 325.248 21.02 324.528 20.7C323.808 20.3667 323.234 19.92 322.808 19.36C322.394 18.8 322.168 18.18 322.128 17.5H324.948C325.001 17.9267 325.208 18.28 325.568 18.56C325.941 18.84 326.401 18.98 326.948 18.98C327.481 18.98 327.894 18.8733 328.188 18.66C328.494 18.4467 328.648 18.1733 328.648 17.84C328.648 17.48 328.461 17.2133 328.088 17.04C327.728 16.8533 327.148 16.6533 326.348 16.44C325.521 16.24 324.841 16.0333 324.308 15.82C323.788 15.6067 323.334 15.28 322.948 14.84C322.574 14.4 322.388 13.8067 322.388 13.06C322.388 12.4467 322.561 11.8867 322.908 11.38C323.268 10.8733 323.774 10.4733 324.428 10.18C325.094 9.88667 325.874 9.74 326.768 9.74C328.088 9.74 329.141 10.0733 329.928 10.74C330.714 11.3933 331.148 12.28 331.228 13.4H328.548C328.508 12.96 328.321 12.6133 327.988 12.36C327.668 12.0933 327.234 11.96 326.688 11.96C326.181 11.96 325.788 12.0533 325.508 12.24C325.241 12.4267 325.108 12.6867 325.108 13.02C325.108 13.3933 325.294 13.68 325.668 13.88C326.041 14.0667 326.621 14.26 327.408 14.46C328.208 14.66 328.868 14.8667 329.388 15.08C329.908 15.2933 330.354 15.6267 330.728 16.08C331.114 16.52 331.314 17.1067 331.328 17.84C331.328 18.48 331.148 19.0533 330.788 19.56C330.441 20.0667 329.934 20.4667 329.268 20.76C328.614 21.04 327.848 21.18 326.968 21.18Z" fill="#3A3A3A"/>
<path d="M5.652 34.636V35.524H2.016V38.344H4.968V39.232H2.016V43H0.924V34.636H5.652ZM9.83888 43.108C9.22288 43.108 8.66288 42.968 8.15888 42.688C7.66288 42.408 7.27088 42.012 6.98288 41.5C6.70288 40.98 6.56288 40.38 6.56288 39.7C6.56288 39.028 6.70688 38.436 6.99488 37.924C7.29088 37.404 7.69088 37.008 8.19488 36.736C8.69888 36.456 9.26288 36.316 9.88688 36.316C10.5109 36.316 11.0749 36.456 11.5789 36.736C12.0829 37.008 12.4789 37.4 12.7669 37.912C13.0629 38.424 13.2109 39.02 13.2109 39.7C13.2109 40.38 13.0589 40.98 12.7549 41.5C12.4589 42.012 12.0549 42.408 11.5429 42.688C11.0309 42.968 10.4629 43.108 9.83888 43.108ZM9.83888 42.148C10.2309 42.148 10.5989 42.056 10.9429 41.872C11.2869 41.688 11.5629 41.412 11.7709 41.044C11.9869 40.676 12.0949 40.228 12.0949 39.7C12.0949 39.172 11.9909 38.724 11.7829 38.356C11.5749 37.988 11.3029 37.716 10.9669 37.54C10.6309 37.356 10.2669 37.264 9.87488 37.264C9.47488 37.264 9.10688 37.356 8.77088 37.54C8.44288 37.716 8.17888 37.988 7.97888 38.356C7.77888 38.724 7.67888 39.172 7.67888 39.7C7.67888 40.236 7.77488 40.688 7.96688 41.056C8.16688 41.424 8.43088 41.7 8.75888 41.884C9.08688 42.06 9.44688 42.148 9.83888 42.148ZM17.8507 36.304C18.6507 36.304 19.2987 36.548 19.7947 37.036C20.2907 37.516 20.5387 38.212 20.5387 39.124V43H19.4587V39.28C19.4587 38.624 19.2947 38.124 18.9667 37.78C18.6387 37.428 18.1907 37.252 17.6227 37.252C17.0467 37.252 16.5867 37.432 16.2427 37.792C15.9067 38.152 15.7387 38.676 15.7387 39.364V43H14.6467V36.424H15.7387V37.36C15.9547 37.024 16.2467 36.764 16.6147 36.58C16.9907 36.396 17.4027 36.304 17.8507 36.304ZM23.6544 37.324V41.2C23.6544 41.52 23.7224 41.748 23.8584 41.884C23.9944 42.012 24.2304 42.076 24.5664 42.076H25.3704V43H24.3864C23.7784 43 23.3224 42.86 23.0184 42.58C22.7144 42.3 22.5624 41.84 22.5624 41.2V37.324H21.7104V36.424H22.5624V34.768H23.6544V36.424H25.3704V37.324H23.6544ZM32.2208 43.108C31.7168 43.108 31.2648 43.024 30.8648 42.856C30.4648 42.68 30.1488 42.44 29.9168 42.136C29.6848 41.824 29.5568 41.468 29.5328 41.068H30.6608C30.6928 41.396 30.8448 41.664 31.1168 41.872C31.3968 42.08 31.7608 42.184 32.2088 42.184C32.6248 42.184 32.9528 42.092 33.1928 41.908C33.4328 41.724 33.5528 41.492 33.5528 41.212C33.5528 40.924 33.4248 40.712 33.1688 40.576C32.9128 40.432 32.5168 40.292 31.9808 40.156C31.4928 40.028 31.0928 39.9 30.7808 39.772C30.4768 39.636 30.2128 39.44 29.9888 39.184C29.7728 38.92 29.6648 38.576 29.6648 38.152C29.6648 37.816 29.7648 37.508 29.9648 37.228C30.1648 36.948 30.4488 36.728 30.8168 36.568C31.1848 36.4 31.6048 36.316 32.0768 36.316C32.8048 36.316 33.3928 36.5 33.8408 36.868C34.2888 37.236 34.5288 37.74 34.5608 38.38H33.4688C33.4448 38.036 33.3048 37.76 33.0488 37.552C32.8008 37.344 32.4648 37.24 32.0408 37.24C31.6488 37.24 31.3368 37.324 31.1048 37.492C30.8728 37.66 30.7568 37.88 30.7568 38.152C30.7568 38.368 30.8248 38.548 30.9608 38.692C31.1048 38.828 31.2808 38.94 31.4888 39.028C31.7048 39.108 32.0008 39.2 32.3768 39.304C32.8488 39.432 33.2328 39.56 33.5288 39.688C33.8248 39.808 34.0768 39.992 34.2848 40.24C34.5008 40.488 34.6128 40.812 34.6208 41.212C34.6208 41.572 34.5208 41.896 34.3208 42.184C34.1208 42.472 33.8368 42.7 33.4688 42.868C33.1088 43.028 32.6928 43.108 32.2208 43.108ZM36.7263 35.356C36.5183 35.356 36.3423 35.284 36.1983 35.14C36.0543 34.996 35.9823 34.82 35.9823 34.612C35.9823 34.404 36.0543 34.228 36.1983 34.084C36.3423 33.94 36.5183 33.868 36.7263 33.868C36.9263 33.868 37.0943 33.94 37.2303 34.084C37.3743 34.228 37.4463 34.404 37.4463 34.612C37.4463 34.82 37.3743 34.996 37.2303 35.14C37.0943 35.284 36.9263 35.356 36.7263 35.356ZM37.2543 36.424V43H36.1623V36.424H37.2543ZM39.9314 42.1H43.1594V43H38.6834V42.1L41.8754 37.312H38.7074V36.424H43.1354V37.312L39.9314 42.1ZM50.5763 39.46C50.5763 39.668 50.5643 39.888 50.5403 40.12H45.2843C45.3243 40.768 45.5443 41.276 45.9443 41.644C46.3523 42.004 46.8443 42.184 47.4203 42.184C47.8923 42.184 48.2843 42.076 48.5963 41.86C48.9163 41.636 49.1403 41.34 49.2683 40.972H50.4443C50.2683 41.604 49.9163 42.12 49.3883 42.52C48.8603 42.912 48.2043 43.108 47.4203 43.108C46.7963 43.108 46.2363 42.968 45.7403 42.688C45.2523 42.408 44.8683 42.012 44.5883 41.5C44.3083 40.98 44.1683 40.38 44.1683 39.7C44.1683 39.02 44.3043 38.424 44.5763 37.912C44.8483 37.4 45.2283 37.008 45.7163 36.736C46.2123 36.456 46.7803 36.316 47.4203 36.316C48.0443 36.316 48.5963 36.452 49.0763 36.724C49.5563 36.996 49.9243 37.372 50.1803 37.852C50.4443 38.324 50.5763 38.86 50.5763 39.46ZM49.4483 39.232C49.4483 38.816 49.3563 38.46 49.1723 38.164C48.9883 37.86 48.7363 37.632 48.4163 37.48C48.1043 37.32 47.7563 37.24 47.3723 37.24C46.8203 37.24 46.3483 37.416 45.9563 37.768C45.5723 38.12 45.3523 38.608 45.2963 39.232H49.4483ZM55.565 43.072C55.357 43.072 55.181 43 55.037 42.856C54.893 42.712 54.821 42.536 54.821 42.328C54.821 42.12 54.893 41.944 55.037 41.8C55.181 41.656 55.357 41.584 55.565 41.584C55.765 41.584 55.933 41.656 56.069 41.8C56.213 41.944 56.285 42.12 56.285 42.328C56.285 42.536 56.213 42.712 56.069 42.856C55.933 43 55.765 43.072 55.565 43.072ZM55.565 37.936C55.357 37.936 55.181 37.864 55.037 37.72C54.893 37.576 54.821 37.4 54.821 37.192C54.821 36.984 54.893 36.808 55.037 36.664C55.181 36.52 55.357 36.448 55.565 36.448C55.765 36.448 55.933 36.52 56.069 36.664C56.213 36.808 56.285 36.984 56.285 37.192C56.285 37.4 56.213 37.576 56.069 37.72C55.933 37.864 55.765 37.936 55.565 37.936ZM60.6589 42.124C61.6749 41.308 62.4709 40.64 63.0469 40.12C63.6229 39.592 64.1069 39.044 64.4989 38.476C64.8989 37.9 65.0989 37.336 65.0989 36.784C65.0989 36.264 64.9709 35.856 64.7149 35.56C64.4669 35.256 64.0629 35.104 63.5029 35.104C62.9589 35.104 62.5349 35.276 62.2309 35.62C61.9349 35.956 61.7749 36.408 61.7509 36.976H60.6949C60.7269 36.08 60.9989 35.388 61.5109 34.9C62.0229 34.412 62.6829 34.168 63.4909 34.168C64.3149 34.168 64.9669 34.396 65.4469 34.852C65.9349 35.308 66.1789 35.936 66.1789 36.736C66.1789 37.4 65.9789 38.048 65.5789 38.68C65.1869 39.304 64.7389 39.856 64.2349 40.336C63.7309 40.808 63.0869 41.36 62.3029 41.992H66.4309V42.904H60.6589V42.124ZM67.6932 38.572C67.6932 37.196 67.9172 36.124 68.3652 35.356C68.8132 34.58 69.5972 34.192 70.7172 34.192C71.8292 34.192 72.6092 34.58 73.0572 35.356C73.5052 36.124 73.7292 37.196 73.7292 38.572C73.7292 39.972 73.5052 41.06 73.0572 41.836C72.6092 42.612 71.8292 43 70.7172 43C69.5972 43 68.8132 42.612 68.3652 41.836C67.9172 41.06 67.6932 39.972 67.6932 38.572ZM72.6492 38.572C72.6492 37.876 72.6012 37.288 72.5052 36.808C72.4172 36.32 72.2292 35.928 71.9412 35.632C71.6612 35.336 71.2532 35.188 70.7172 35.188C70.1732 35.188 69.7572 35.336 69.4692 35.632C69.1892 35.928 69.0012 36.32 68.9052 36.808C68.8172 37.288 68.7732 37.876 68.7732 38.572C68.7732 39.292 68.8172 39.896 68.9052 40.384C69.0012 40.872 69.1892 41.264 69.4692 41.56C69.7572 41.856 70.1732 42.004 70.7172 42.004C71.2532 42.004 71.6612 41.856 71.9412 41.56C72.2292 41.264 72.4172 40.872 72.5052 40.384C72.6012 39.896 72.6492 39.292 72.6492 38.572ZM76.5004 37.636C76.7164 37.26 77.0364 36.948 77.4604 36.7C77.8924 36.444 78.3924 36.316 78.9604 36.316C79.5444 36.316 80.0724 36.456 80.5444 36.736C81.0244 37.016 81.4004 37.412 81.6724 37.924C81.9444 38.428 82.0804 39.016 82.0804 39.688C82.0804 40.352 81.9444 40.944 81.6724 41.464C81.4004 41.984 81.0244 42.388 80.5444 42.676C80.0724 42.964 79.5444 43.108 78.9604 43.108C78.4004 43.108 77.9044 42.984 77.4724 42.736C77.0484 42.48 76.7244 42.164 76.5004 41.788V46.12H75.4084V36.424H76.5004V37.636ZM80.9644 39.688C80.9644 39.192 80.8644 38.76 80.6644 38.392C80.4644 38.024 80.1924 37.744 79.8484 37.552C79.5124 37.36 79.1404 37.264 78.7324 37.264C78.3324 37.264 77.9604 37.364 77.6164 37.564C77.2804 37.756 77.0084 38.04 76.8004 38.416C76.6004 38.784 76.5004 39.212 76.5004 39.7C76.5004 40.196 76.6004 40.632 76.8004 41.008C77.0084 41.376 77.2804 41.66 77.6164 41.86C77.9604 42.052 78.3324 42.148 78.7324 42.148C79.1404 42.148 79.5124 42.052 79.8484 41.86C80.1924 41.66 80.4644 41.376 80.6644 41.008C80.8644 40.632 80.9644 40.192 80.9644 39.688ZM86.9498 43L85.3898 40.552L83.8898 43H82.7498L84.8738 39.736L82.7498 36.424H83.9858L85.5458 38.86L87.0338 36.424H88.1738L86.0618 39.676L88.1858 43H86.9498ZM103.262 43L101.27 39.58H99.9496V43H98.8576V34.636H101.558C102.19 34.636 102.722 34.744 103.154 34.96C103.594 35.176 103.922 35.468 104.138 35.836C104.354 36.204 104.462 36.624 104.462 37.096C104.462 37.672 104.294 38.18 103.958 38.62C103.63 39.06 103.134 39.352 102.47 39.496L104.57 43H103.262ZM99.9496 38.704H101.558C102.15 38.704 102.594 38.56 102.89 38.272C103.186 37.976 103.334 37.584 103.334 37.096C103.334 36.6 103.186 36.216 102.89 35.944C102.602 35.672 102.158 35.536 101.558 35.536H99.9496V38.704ZM107.25 35.524V38.32H110.298V39.22H107.25V42.1H110.658V43H106.158V34.624H110.658V35.524H107.25ZM120.795 34.696V43H119.703V36.808L116.943 43H116.175L113.403 36.796V43H112.311V34.696H113.487L116.559 41.56L119.631 34.696H120.795ZM126.194 43.072C125.986 43.072 125.81 43 125.666 42.856C125.522 42.712 125.45 42.536 125.45 42.328C125.45 42.12 125.522 41.944 125.666 41.8C125.81 41.656 125.986 41.584 126.194 41.584C126.394 41.584 126.562 41.656 126.698 41.8C126.842 41.944 126.914 42.12 126.914 42.328C126.914 42.536 126.842 42.712 126.698 42.856C126.562 43 126.394 43.072 126.194 43.072ZM126.194 37.936C125.986 37.936 125.81 37.864 125.666 37.72C125.522 37.576 125.45 37.4 125.45 37.192C125.45 36.984 125.522 36.808 125.666 36.664C125.81 36.52 125.986 36.448 126.194 36.448C126.394 36.448 126.562 36.52 126.698 36.664C126.842 36.808 126.914 36.984 126.914 37.192C126.914 37.4 126.842 37.576 126.698 37.72C126.562 37.864 126.394 37.936 126.194 37.936ZM131.132 35.32V34.324H133.388V43H132.284V35.32H131.132ZM135.792 43.072C135.584 43.072 135.408 43 135.264 42.856C135.12 42.712 135.048 42.536 135.048 42.328C135.048 42.12 135.12 41.944 135.264 41.8C135.408 41.656 135.584 41.584 135.792 41.584C135.992 41.584 136.16 41.656 136.296 41.8C136.44 41.944 136.512 42.12 136.512 42.328C136.512 42.536 136.44 42.712 136.296 42.856C136.16 43 135.992 43.072 135.792 43.072ZM137.651 42.124C138.667 41.308 139.463 40.64 140.039 40.12C140.615 39.592 141.099 39.044 141.491 38.476C141.891 37.9 142.091 37.336 142.091 36.784C142.091 36.264 141.963 35.856 141.707 35.56C141.459 35.256 141.055 35.104 140.495 35.104C139.951 35.104 139.527 35.276 139.223 35.62C138.927 35.956 138.767 36.408 138.743 36.976H137.687C137.719 36.08 137.991 35.388 138.503 34.9C139.015 34.412 139.675 34.168 140.483 34.168C141.307 34.168 141.959 34.396 142.439 34.852C142.927 35.308 143.171 35.936 143.171 36.736C143.171 37.4 142.971 38.048 142.571 38.68C142.179 39.304 141.731 39.856 141.227 40.336C140.723 40.808 140.079 41.36 139.295 41.992H143.423V42.904H137.651V42.124ZM150.217 35.272H146.005V38.008C146.189 37.752 146.461 37.544 146.821 37.384C147.181 37.216 147.569 37.132 147.985 37.132C148.649 37.132 149.189 37.272 149.605 37.552C150.021 37.824 150.317 38.18 150.493 38.62C150.677 39.052 150.769 39.512 150.769 40C150.769 40.576 150.661 41.092 150.445 41.548C150.229 42.004 149.897 42.364 149.449 42.628C149.009 42.892 148.461 43.024 147.805 43.024C146.965 43.024 146.285 42.808 145.765 42.376C145.245 41.944 144.929 41.368 144.817 40.648H145.885C145.989 41.104 146.209 41.46 146.545 41.716C146.881 41.972 147.305 42.1 147.817 42.1C148.449 42.1 148.925 41.912 149.245 41.536C149.565 41.152 149.725 40.648 149.725 40.024C149.725 39.4 149.565 38.92 149.245 38.584C148.925 38.24 148.453 38.068 147.829 38.068C147.405 38.068 147.033 38.172 146.713 38.38C146.401 38.58 146.173 38.856 146.029 39.208H144.997V34.312H150.217V35.272ZM163.09 42.112H166.018V43H161.998V34.636H163.09V42.112ZM167.742 35.356C167.534 35.356 167.358 35.284 167.214 35.14C167.07 34.996 166.998 34.82 166.998 34.612C166.998 34.404 167.07 34.228 167.214 34.084C167.358 33.94 167.534 33.868 167.742 33.868C167.942 33.868 168.11 33.94 168.246 34.084C168.39 34.228 168.462 34.404 168.462 34.612C168.462 34.82 168.39 34.996 168.246 35.14C168.11 35.284 167.942 35.356 167.742 35.356ZM168.27 36.424V43H167.178V36.424H168.27ZM173.335 36.304C174.135 36.304 174.783 36.548 175.279 37.036C175.775 37.516 176.023 38.212 176.023 39.124V43H174.943V39.28C174.943 38.624 174.779 38.124 174.451 37.78C174.123 37.428 173.675 37.252 173.107 37.252C172.531 37.252 172.071 37.432 171.727 37.792C171.391 38.152 171.223 38.676 171.223 39.364V43H170.131V36.424H171.223V37.36C171.439 37.024 171.731 36.764 172.099 36.58C172.475 36.396 172.887 36.304 173.335 36.304ZM183.807 39.46C183.807 39.668 183.795 39.888 183.771 40.12H178.515C178.555 40.768 178.775 41.276 179.175 41.644C179.583 42.004 180.075 42.184 180.651 42.184C181.123 42.184 181.515 42.076 181.827 41.86C182.147 41.636 182.371 41.34 182.499 40.972H183.675C183.499 41.604 183.147 42.12 182.619 42.52C182.091 42.912 181.435 43.108 180.651 43.108C180.027 43.108 179.467 42.968 178.971 42.688C178.483 42.408 178.099 42.012 177.819 41.5C177.539 40.98 177.399 40.38 177.399 39.7C177.399 39.02 177.535 38.424 177.807 37.912C178.079 37.4 178.459 37.008 178.947 36.736C179.443 36.456 180.011 36.316 180.651 36.316C181.275 36.316 181.827 36.452 182.307 36.724C182.787 36.996 183.155 37.372 183.411 37.852C183.675 38.324 183.807 38.86 183.807 39.46ZM182.679 39.232C182.679 38.816 182.587 38.46 182.403 38.164C182.219 37.86 181.967 37.632 181.647 37.48C181.335 37.32 180.987 37.24 180.603 37.24C180.051 37.24 179.579 37.416 179.187 37.768C178.803 38.12 178.583 38.608 178.527 39.232H182.679ZM191.099 43.084C190.547 43.084 190.051 42.988 189.611 42.796C189.179 42.596 188.839 42.324 188.591 41.98C188.343 41.628 188.215 41.224 188.207 40.768H189.371C189.411 41.16 189.571 41.492 189.851 41.764C190.139 42.028 190.555 42.16 191.099 42.16C191.619 42.16 192.027 42.032 192.323 41.776C192.627 41.512 192.779 41.176 192.779 40.768C192.779 40.448 192.691 40.188 192.515 39.988C192.339 39.788 192.119 39.636 191.855 39.532C191.591 39.428 191.235 39.316 190.787 39.196C190.235 39.052 189.791 38.908 189.455 38.764C189.127 38.62 188.843 38.396 188.603 38.092C188.371 37.78 188.255 37.364 188.255 36.844C188.255 36.388 188.371 35.984 188.603 35.632C188.835 35.28 189.159 35.008 189.575 34.816C189.999 34.624 190.483 34.528 191.027 34.528C191.811 34.528 192.451 34.724 192.947 35.116C193.451 35.508 193.735 36.028 193.799 36.676H192.599C192.559 36.356 192.391 36.076 192.095 35.836C191.799 35.588 191.407 35.464 190.919 35.464C190.463 35.464 190.091 35.584 189.803 35.824C189.515 36.056 189.371 36.384 189.371 36.808C189.371 37.112 189.455 37.36 189.623 37.552C189.799 37.744 190.011 37.892 190.259 37.996C190.515 38.092 190.871 38.204 191.327 38.332C191.879 38.484 192.323 38.636 192.659 38.788C192.995 38.932 193.283 39.16 193.523 39.472C193.763 39.776 193.883 40.192 193.883 40.72C193.883 41.128 193.775 41.512 193.559 41.872C193.343 42.232 193.023 42.524 192.599 42.748C192.175 42.972 191.675 43.084 191.099 43.084ZM196.582 37.636C196.798 37.26 197.118 36.948 197.542 36.7C197.974 36.444 198.474 36.316 199.042 36.316C199.626 36.316 200.154 36.456 200.626 36.736C201.106 37.016 201.482 37.412 201.754 37.924C202.026 38.428 202.162 39.016 202.162 39.688C202.162 40.352 202.026 40.944 201.754 41.464C201.482 41.984 201.106 42.388 200.626 42.676C200.154 42.964 199.626 43.108 199.042 43.108C198.482 43.108 197.986 42.984 197.554 42.736C197.13 42.48 196.806 42.164 196.582 41.788V46.12H195.49V36.424H196.582V37.636ZM201.046 39.688C201.046 39.192 200.946 38.76 200.746 38.392C200.546 38.024 200.274 37.744 199.93 37.552C199.594 37.36 199.222 37.264 198.814 37.264C198.414 37.264 198.042 37.364 197.698 37.564C197.362 37.756 197.09 38.04 196.882 38.416C196.682 38.784 196.582 39.212 196.582 39.7C196.582 40.196 196.682 40.632 196.882 41.008C197.09 41.376 197.362 41.66 197.698 41.86C198.042 42.052 198.414 42.148 198.814 42.148C199.222 42.148 199.594 42.052 199.93 41.86C200.274 41.66 200.546 41.376 200.746 41.008C200.946 40.632 201.046 40.192 201.046 39.688ZM203.192 39.688C203.192 39.016 203.328 38.428 203.6 37.924C203.872 37.412 204.244 37.016 204.716 36.736C205.196 36.456 205.728 36.316 206.312 36.316C206.888 36.316 207.388 36.44 207.812 36.688C208.236 36.936 208.552 37.248 208.76 37.624V36.424H209.864V43H208.76V41.776C208.544 42.16 208.22 42.48 207.788 42.736C207.364 42.984 206.868 43.108 206.3 43.108C205.716 43.108 205.188 42.964 204.716 42.676C204.244 42.388 203.872 41.984 203.6 41.464C203.328 40.944 203.192 40.352 203.192 39.688ZM208.76 39.7C208.76 39.204 208.66 38.772 208.46 38.404C208.26 38.036 207.988 37.756 207.644 37.564C207.308 37.364 206.936 37.264 206.528 37.264C206.12 37.264 205.748 37.36 205.412 37.552C205.076 37.744 204.808 38.024 204.608 38.392C204.408 38.76 204.308 39.192 204.308 39.688C204.308 40.192 204.408 40.632 204.608 41.008C204.808 41.376 205.076 41.66 205.412 41.86C205.748 42.052 206.12 42.148 206.528 42.148C206.936 42.148 207.308 42.052 207.644 41.86C207.988 41.66 208.26 41.376 208.46 41.008C208.66 40.632 208.76 40.196 208.76 39.7ZM211.301 39.7C211.301 39.02 211.437 38.428 211.709 37.924C211.981 37.412 212.357 37.016 212.837 36.736C213.325 36.456 213.881 36.316 214.505 36.316C215.313 36.316 215.977 36.512 216.497 36.904C217.025 37.296 217.373 37.84 217.541 38.536H216.365C216.253 38.136 216.033 37.82 215.705 37.588C215.385 37.356 214.985 37.24 214.505 37.24C213.881 37.24 213.377 37.456 212.993 37.888C212.609 38.312 212.417 38.916 212.417 39.7C212.417 40.492 212.609 41.104 212.993 41.536C213.377 41.968 213.881 42.184 214.505 42.184C214.985 42.184 215.385 42.072 215.705 41.848C216.025 41.624 216.245 41.304 216.365 40.888H217.541C217.365 41.56 217.013 42.1 216.485 42.508C215.957 42.908 215.297 43.108 214.505 43.108C213.881 43.108 213.325 42.968 212.837 42.688C212.357 42.408 211.981 42.012 211.709 41.5C211.437 40.988 211.301 40.388 211.301 39.7ZM219.562 35.356C219.354 35.356 219.178 35.284 219.034 35.14C218.89 34.996 218.818 34.82 218.818 34.612C218.818 34.404 218.89 34.228 219.034 34.084C219.178 33.94 219.354 33.868 219.562 33.868C219.762 33.868 219.93 33.94 220.066 34.084C220.21 34.228 220.282 34.404 220.282 34.612C220.282 34.82 220.21 34.996 220.066 35.14C219.93 35.284 219.762 35.356 219.562 35.356ZM220.09 36.424V43H218.998V36.424H220.09ZM225.155 36.304C225.955 36.304 226.603 36.548 227.099 37.036C227.595 37.516 227.843 38.212 227.843 39.124V43H226.763V39.28C226.763 38.624 226.599 38.124 226.271 37.78C225.943 37.428 225.495 37.252 224.927 37.252C224.351 37.252 223.891 37.432 223.547 37.792C223.211 38.152 223.043 38.676 223.043 39.364V43H221.951V36.424H223.043V37.36C223.259 37.024 223.551 36.764 223.919 36.58C224.295 36.396 224.707 36.304 225.155 36.304ZM232.339 36.316C232.907 36.316 233.403 36.44 233.827 36.688C234.259 36.936 234.579 37.248 234.787 37.624V36.424H235.891V43.144C235.891 43.744 235.763 44.276 235.507 44.74C235.251 45.212 234.883 45.58 234.403 45.844C233.931 46.108 233.379 46.24 232.747 46.24C231.883 46.24 231.163 46.036 230.587 45.628C230.011 45.22 229.671 44.664 229.567 43.96H230.647C230.767 44.36 231.015 44.68 231.391 44.92C231.767 45.168 232.219 45.292 232.747 45.292C233.347 45.292 233.835 45.104 234.211 44.728C234.595 44.352 234.787 43.824 234.787 43.144V41.764C234.571 42.148 234.251 42.468 233.827 42.724C233.403 42.98 232.907 43.108 232.339 43.108C231.755 43.108 231.223 42.964 230.743 42.676C230.271 42.388 229.899 41.984 229.627 41.464C229.355 40.944 229.219 40.352 229.219 39.688C229.219 39.016 229.355 38.428 229.627 37.924C229.899 37.412 230.271 37.016 230.743 36.736C231.223 36.456 231.755 36.316 232.339 36.316ZM234.787 39.7C234.787 39.204 234.687 38.772 234.487 38.404C234.287 38.036 234.015 37.756 233.671 37.564C233.335 37.364 232.963 37.264 232.555 37.264C232.147 37.264 231.775 37.36 231.439 37.552C231.103 37.744 230.835 38.024 230.635 38.392C230.435 38.76 230.335 39.192 230.335 39.688C230.335 40.192 230.435 40.632 230.635 41.008C230.835 41.376 231.103 41.66 231.439 41.86C231.775 42.052 232.147 42.148 232.555 42.148C232.963 42.148 233.335 42.052 233.671 41.86C234.015 41.66 234.287 41.376 234.487 41.008C234.687 40.632 234.787 40.196 234.787 39.7ZM238.085 43.072C237.877 43.072 237.701 43 237.557 42.856C237.413 42.712 237.341 42.536 237.341 42.328C237.341 42.12 237.413 41.944 237.557 41.8C237.701 41.656 237.877 41.584 238.085 41.584C238.285 41.584 238.453 41.656 238.589 41.8C238.733 41.944 238.805 42.12 238.805 42.328C238.805 42.536 238.733 42.712 238.589 42.856C238.453 43 238.285 43.072 238.085 43.072ZM238.085 37.936C237.877 37.936 237.701 37.864 237.557 37.72C237.413 37.576 237.341 37.4 237.341 37.192C237.341 36.984 237.413 36.808 237.557 36.664C237.701 36.52 237.877 36.448 238.085 36.448C238.285 36.448 238.453 36.52 238.589 36.664C238.733 36.808 238.805 36.984 238.805 37.192C238.805 37.4 238.733 37.576 238.589 37.72C238.453 37.864 238.285 37.936 238.085 37.936ZM243.178 42.124C244.194 41.308 244.99 40.64 245.566 40.12C246.142 39.592 246.626 39.044 247.018 38.476C247.418 37.9 247.618 37.336 247.618 36.784C247.618 36.264 247.49 35.856 247.234 35.56C246.986 35.256 246.582 35.104 246.022 35.104C245.478 35.104 245.054 35.276 244.75 35.62C244.454 35.956 244.294 36.408 244.27 36.976H243.214C243.246 36.08 243.518 35.388 244.03 34.9C244.542 34.412 245.202 34.168 246.01 34.168C246.834 34.168 247.486 34.396 247.966 34.852C248.454 35.308 248.698 35.936 248.698 36.736C248.698 37.4 248.498 38.048 248.098 38.68C247.706 39.304 247.258 39.856 246.754 40.336C246.25 40.808 245.606 41.36 244.822 41.992H248.95V42.904H243.178V42.124ZM251.797 38.488C251.349 38.312 251.005 38.056 250.765 37.72C250.525 37.384 250.405 36.976 250.405 36.496C250.405 36.064 250.513 35.676 250.729 35.332C250.945 34.98 251.265 34.704 251.689 34.504C252.121 34.296 252.641 34.192 253.249 34.192C253.857 34.192 254.373 34.296 254.797 34.504C255.229 34.704 255.553 34.98 255.769 35.332C255.993 35.676 256.105 36.064 256.105 36.496C256.105 36.96 255.981 37.368 255.733 37.72C255.485 38.064 255.145 38.32 254.713 38.488C255.209 38.64 255.601 38.908 255.889 39.292C256.185 39.668 256.333 40.124 256.333 40.66C256.333 41.18 256.205 41.636 255.949 42.028C255.693 42.412 255.329 42.712 254.857 42.928C254.393 43.136 253.857 43.24 253.249 43.24C252.641 43.24 252.105 43.136 251.641 42.928C251.185 42.712 250.829 42.412 250.573 42.028C250.317 41.636 250.189 41.18 250.189 40.66C250.189 40.124 250.333 39.664 250.621 39.28C250.909 38.896 251.301 38.632 251.797 38.488ZM255.049 36.628C255.049 36.14 254.889 35.764 254.569 35.5C254.249 35.236 253.809 35.104 253.249 35.104C252.697 35.104 252.261 35.236 251.941 35.5C251.621 35.764 251.461 36.144 251.461 36.64C251.461 37.088 251.625 37.448 251.953 37.72C252.289 37.992 252.721 38.128 253.249 38.128C253.785 38.128 254.217 37.992 254.545 37.72C254.881 37.44 255.049 37.076 255.049 36.628ZM253.249 38.968C252.657 38.968 252.173 39.108 251.797 39.388C251.421 39.66 251.233 40.072 251.233 40.624C251.233 41.136 251.413 41.548 251.773 41.86C252.141 42.172 252.633 42.328 253.249 42.328C253.865 42.328 254.353 42.172 254.713 41.86C255.073 41.548 255.253 41.136 255.253 40.624C255.253 40.088 255.069 39.68 254.701 39.4C254.333 39.112 253.849 38.968 253.249 38.968Z" fill="#616161"/>
</svg>
