<svg width="263" height="29" viewBox="0 0 263 29" fill="none" xmlns="http://www.w3.org/2000/svg">
<path d="M5.652 15.636V16.524H2.016V19.344H4.968V20.232H2.016V24H0.924V15.636H5.652ZM9.83888 24.108C9.22288 24.108 8.66288 23.968 8.15888 23.688C7.66288 23.408 7.27088 23.012 6.98288 22.5C6.70288 21.98 6.56288 21.38 6.56288 20.7C6.56288 20.028 6.70688 19.436 6.99488 18.924C7.29088 18.404 7.69088 18.008 8.19488 17.736C8.69888 17.456 9.26288 17.316 9.88688 17.316C10.5109 17.316 11.0749 17.456 11.5789 17.736C12.0829 18.008 12.4789 18.4 12.7669 18.912C13.0629 19.424 13.2109 20.02 13.2109 20.7C13.2109 21.38 13.0589 21.98 12.7549 22.5C12.4589 23.012 12.0549 23.408 11.5429 23.688C11.0309 23.968 10.4629 24.108 9.83888 24.108ZM9.83888 23.148C10.2309 23.148 10.5989 23.056 10.9429 22.872C11.2869 22.688 11.5629 22.412 11.7709 22.044C11.9869 21.676 12.0949 21.228 12.0949 20.7C12.0949 20.172 11.9909 19.724 11.7829 19.356C11.5749 18.988 11.3029 18.716 10.9669 18.54C10.6309 18.356 10.2669 18.264 9.87488 18.264C9.47488 18.264 9.10688 18.356 8.77088 18.54C8.44288 18.716 8.17888 18.988 7.97888 19.356C7.77888 19.724 7.67888 20.172 7.67888 20.7C7.67888 21.236 7.77488 21.688 7.96688 22.056C8.16688 22.424 8.43088 22.7 8.75888 22.884C9.08688 23.06 9.44688 23.148 9.83888 23.148ZM17.8507 17.304C18.6507 17.304 19.2987 17.548 19.7947 18.036C20.2907 18.516 20.5387 19.212 20.5387 20.124V24H19.4587V20.28C19.4587 19.624 19.2947 19.124 18.9667 18.78C18.6387 18.428 18.1907 18.252 17.6227 18.252C17.0467 18.252 16.5867 18.432 16.2427 18.792C15.9067 19.152 15.7387 19.676 15.7387 20.364V24H14.6467V17.424H15.7387V18.36C15.9547 18.024 16.2467 17.764 16.6147 17.58C16.9907 17.396 17.4027 17.304 17.8507 17.304ZM23.6544 18.324V22.2C23.6544 22.52 23.7224 22.748 23.8584 22.884C23.9944 23.012 24.2304 23.076 24.5664 23.076H25.3704V24H24.3864C23.7784 24 23.3224 23.86 23.0184 23.58C22.7144 23.3 22.5624 22.84 22.5624 22.2V18.324H21.7104V17.424H22.5624V15.768H23.6544V17.424H25.3704V18.324H23.6544ZM32.2208 24.108C31.7168 24.108 31.2648 24.024 30.8648 23.856C30.4648 23.68 30.1488 23.44 29.9168 23.136C29.6848 22.824 29.5568 22.468 29.5328 22.068H30.6608C30.6928 22.396 30.8448 22.664 31.1168 22.872C31.3968 23.08 31.7608 23.184 32.2088 23.184C32.6248 23.184 32.9528 23.092 33.1928 22.908C33.4328 22.724 33.5528 22.492 33.5528 22.212C33.5528 21.924 33.4248 21.712 33.1688 21.576C32.9128 21.432 32.5168 21.292 31.9808 21.156C31.4928 21.028 31.0928 20.9 30.7808 20.772C30.4768 20.636 30.2128 20.44 29.9888 20.184C29.7728 19.92 29.6648 19.576 29.6648 19.152C29.6648 18.816 29.7648 18.508 29.9648 18.228C30.1648 17.948 30.4488 17.728 30.8168 17.568C31.1848 17.4 31.6048 17.316 32.0768 17.316C32.8048 17.316 33.3928 17.5 33.8408 17.868C34.2888 18.236 34.5288 18.74 34.5608 19.38H33.4688C33.4448 19.036 33.3048 18.76 33.0488 18.552C32.8008 18.344 32.4648 18.24 32.0408 18.24C31.6488 18.24 31.3368 18.324 31.1048 18.492C30.8728 18.66 30.7568 18.88 30.7568 19.152C30.7568 19.368 30.8248 19.548 30.9608 19.692C31.1048 19.828 31.2808 19.94 31.4888 20.028C31.7048 20.108 32.0008 20.2 32.3768 20.304C32.8488 20.432 33.2328 20.56 33.5288 20.688C33.8248 20.808 34.0768 20.992 34.2848 21.24C34.5008 21.488 34.6128 21.812 34.6208 22.212C34.6208 22.572 34.5208 22.896 34.3208 23.184C34.1208 23.472 33.8368 23.7 33.4688 23.868C33.1088 24.028 32.6928 24.108 32.2208 24.108ZM36.7263 16.356C36.5183 16.356 36.3423 16.284 36.1983 16.14C36.0543 15.996 35.9823 15.82 35.9823 15.612C35.9823 15.404 36.0543 15.228 36.1983 15.084C36.3423 14.94 36.5183 14.868 36.7263 14.868C36.9263 14.868 37.0943 14.94 37.2303 15.084C37.3743 15.228 37.4463 15.404 37.4463 15.612C37.4463 15.82 37.3743 15.996 37.2303 16.14C37.0943 16.284 36.9263 16.356 36.7263 16.356ZM37.2543 17.424V24H36.1623V17.424H37.2543ZM39.9314 23.1H43.1594V24H38.6834V23.1L41.8754 18.312H38.7074V17.424H43.1354V18.312L39.9314 23.1ZM50.5763 20.46C50.5763 20.668 50.5643 20.888 50.5403 21.12H45.2843C45.3243 21.768 45.5443 22.276 45.9443 22.644C46.3523 23.004 46.8443 23.184 47.4203 23.184C47.8923 23.184 48.2843 23.076 48.5963 22.86C48.9163 22.636 49.1403 22.34 49.2683 21.972H50.4443C50.2683 22.604 49.9163 23.12 49.3883 23.52C48.8603 23.912 48.2043 24.108 47.4203 24.108C46.7963 24.108 46.2363 23.968 45.7403 23.688C45.2523 23.408 44.8683 23.012 44.5883 22.5C44.3083 21.98 44.1683 21.38 44.1683 20.7C44.1683 20.02 44.3043 19.424 44.5763 18.912C44.8483 18.4 45.2283 18.008 45.7163 17.736C46.2123 17.456 46.7803 17.316 47.4203 17.316C48.0443 17.316 48.5963 17.452 49.0763 17.724C49.5563 17.996 49.9243 18.372 50.1803 18.852C50.4443 19.324 50.5763 19.86 50.5763 20.46ZM49.4483 20.232C49.4483 19.816 49.3563 19.46 49.1723 19.164C48.9883 18.86 48.7363 18.632 48.4163 18.48C48.1043 18.32 47.7563 18.24 47.3723 18.24C46.8203 18.24 46.3483 18.416 45.9563 18.768C45.5723 19.12 45.3523 19.608 45.2963 20.232H49.4483ZM55.565 24.072C55.357 24.072 55.181 24 55.037 23.856C54.893 23.712 54.821 23.536 54.821 23.328C54.821 23.12 54.893 22.944 55.037 22.8C55.181 22.656 55.357 22.584 55.565 22.584C55.765 22.584 55.933 22.656 56.069 22.8C56.213 22.944 56.285 23.12 56.285 23.328C56.285 23.536 56.213 23.712 56.069 23.856C55.933 24 55.765 24.072 55.565 24.072ZM55.565 18.936C55.357 18.936 55.181 18.864 55.037 18.72C54.893 18.576 54.821 18.4 54.821 18.192C54.821 17.984 54.893 17.808 55.037 17.664C55.181 17.52 55.357 17.448 55.565 17.448C55.765 17.448 55.933 17.52 56.069 17.664C56.213 17.808 56.285 17.984 56.285 18.192C56.285 18.4 56.213 18.576 56.069 18.72C55.933 18.864 55.765 18.936 55.565 18.936ZM60.5029 16.32V15.324H62.7589V24H61.6549V16.32H60.5029ZM64.5026 23.124C65.5186 22.308 66.3146 21.64 66.8906 21.12C67.4666 20.592 67.9506 20.044 68.3426 19.476C68.7426 18.9 68.9426 18.336 68.9426 17.784C68.9426 17.264 68.8146 16.856 68.5586 16.56C68.3106 16.256 67.9066 16.104 67.3466 16.104C66.8026 16.104 66.3786 16.276 66.0746 16.62C65.7786 16.956 65.6186 17.408 65.5946 17.976H64.5386C64.5706 17.08 64.8426 16.388 65.3546 15.9C65.8666 15.412 66.5266 15.168 67.3346 15.168C68.1586 15.168 68.8106 15.396 69.2906 15.852C69.7786 16.308 70.0226 16.936 70.0226 17.736C70.0226 18.4 69.8226 19.048 69.4226 19.68C69.0306 20.304 68.5826 20.856 68.0786 21.336C67.5746 21.808 66.9306 22.36 66.1466 22.992H70.2746V23.904H64.5026V23.124ZM72.809 18.636C73.025 18.26 73.345 17.948 73.769 17.7C74.201 17.444 74.701 17.316 75.269 17.316C75.853 17.316 76.381 17.456 76.853 17.736C77.333 18.016 77.709 18.412 77.981 18.924C78.253 19.428 78.389 20.016 78.389 20.688C78.389 21.352 78.253 21.944 77.981 22.464C77.709 22.984 77.333 23.388 76.853 23.676C76.381 23.964 75.853 24.108 75.269 24.108C74.709 24.108 74.213 23.984 73.781 23.736C73.357 23.48 73.033 23.164 72.809 22.788V27.12H71.717V17.424H72.809V18.636ZM77.273 20.688C77.273 20.192 77.173 19.76 76.973 19.392C76.773 19.024 76.501 18.744 76.157 18.552C75.821 18.36 75.449 18.264 75.041 18.264C74.641 18.264 74.269 18.364 73.925 18.564C73.589 18.756 73.317 19.04 73.109 19.416C72.909 19.784 72.809 20.212 72.809 20.7C72.809 21.196 72.909 21.632 73.109 22.008C73.317 22.376 73.589 22.66 73.925 22.86C74.269 23.052 74.641 23.148 75.041 23.148C75.449 23.148 75.821 23.052 76.157 22.86C76.501 22.66 76.773 22.376 76.973 22.008C77.173 21.632 77.273 21.192 77.273 20.688ZM83.2583 24L81.6983 21.552L80.1983 24H79.0583L81.1823 20.736L79.0583 17.424H80.2943L81.8543 19.86L83.3423 17.424H84.4823L82.3703 20.676L84.4943 24H83.2583ZM99.5702 24L97.5782 20.58H96.2582V24H95.1662V15.636H97.8662C98.4982 15.636 99.0302 15.744 99.4622 15.96C99.9022 16.176 100.23 16.468 100.446 16.836C100.662 17.204 100.77 17.624 100.77 18.096C100.77 18.672 100.602 19.18 100.266 19.62C99.9382 20.06 99.4422 20.352 98.7782 20.496L100.878 24H99.5702ZM96.2582 19.704H97.8662C98.4582 19.704 98.9022 19.56 99.1982 19.272C99.4942 18.976 99.6422 18.584 99.6422 18.096C99.6422 17.6 99.4942 17.216 99.1982 16.944C98.9102 16.672 98.4662 16.536 97.8662 16.536H96.2582V19.704ZM103.559 16.524V19.32H106.607V20.22H103.559V23.1H106.967V24H102.467V15.624H106.967V16.524H103.559ZM117.103 15.696V24H116.011V17.808L113.251 24H112.483L109.711 17.796V24H108.619V15.696H109.795L112.867 22.56L115.939 15.696H117.103ZM122.502 24.072C122.294 24.072 122.118 24 121.974 23.856C121.83 23.712 121.758 23.536 121.758 23.328C121.758 23.12 121.83 22.944 121.974 22.8C122.118 22.656 122.294 22.584 122.502 22.584C122.702 22.584 122.87 22.656 123.006 22.8C123.15 22.944 123.222 23.12 123.222 23.328C123.222 23.536 123.15 23.712 123.006 23.856C122.87 24 122.702 24.072 122.502 24.072ZM122.502 18.936C122.294 18.936 122.118 18.864 121.974 18.72C121.83 18.576 121.758 18.4 121.758 18.192C121.758 17.984 121.83 17.808 121.974 17.664C122.118 17.52 122.294 17.448 122.502 17.448C122.702 17.448 122.87 17.52 123.006 17.664C123.15 17.808 123.222 17.984 123.222 18.192C123.222 18.4 123.15 18.576 123.006 18.72C122.87 18.864 122.702 18.936 122.502 18.936ZM127.728 19.572C127.728 18.196 127.952 17.124 128.4 16.356C128.848 15.58 129.632 15.192 130.752 15.192C131.864 15.192 132.644 15.58 133.092 16.356C133.54 17.124 133.764 18.196 133.764 19.572C133.764 20.972 133.54 22.06 133.092 22.836C132.644 23.612 131.864 24 130.752 24C129.632 24 128.848 23.612 128.4 22.836C127.952 22.06 127.728 20.972 127.728 19.572ZM132.684 19.572C132.684 18.876 132.636 18.288 132.54 17.808C132.452 17.32 132.264 16.928 131.976 16.632C131.696 16.336 131.288 16.188 130.752 16.188C130.208 16.188 129.792 16.336 129.504 16.632C129.224 16.928 129.036 17.32 128.94 17.808C128.852 18.288 128.808 18.876 128.808 19.572C128.808 20.292 128.852 20.896 128.94 21.384C129.036 21.872 129.224 22.264 129.504 22.56C129.792 22.856 130.208 23.004 130.752 23.004C131.288 23.004 131.696 22.856 131.976 22.56C132.264 22.264 132.452 21.872 132.54 21.384C132.636 20.896 132.684 20.292 132.684 19.572ZM135.792 24.072C135.584 24.072 135.408 24 135.264 23.856C135.12 23.712 135.048 23.536 135.048 23.328C135.048 23.12 135.12 22.944 135.264 22.8C135.408 22.656 135.584 22.584 135.792 22.584C135.992 22.584 136.16 22.656 136.296 22.8C136.44 22.944 136.512 23.12 136.512 23.328C136.512 23.536 136.44 23.712 136.296 23.856C136.16 24 135.992 24.072 135.792 24.072ZM143.123 16.176L139.787 24H138.683L142.067 16.284H137.435V15.348H143.123V16.176ZM149.866 16.272H145.654V19.008C145.838 18.752 146.11 18.544 146.47 18.384C146.83 18.216 147.218 18.132 147.634 18.132C148.298 18.132 148.838 18.272 149.254 18.552C149.67 18.824 149.966 19.18 150.142 19.62C150.326 20.052 150.418 20.512 150.418 21C150.418 21.576 150.31 22.092 150.094 22.548C149.878 23.004 149.546 23.364 149.098 23.628C148.658 23.892 148.11 24.024 147.454 24.024C146.614 24.024 145.934 23.808 145.414 23.376C144.894 22.944 144.578 22.368 144.466 21.648H145.534C145.638 22.104 145.858 22.46 146.194 22.716C146.53 22.972 146.954 23.1 147.466 23.1C148.098 23.1 148.574 22.912 148.894 22.536C149.214 22.152 149.374 21.648 149.374 21.024C149.374 20.4 149.214 19.92 148.894 19.584C148.574 19.24 148.102 19.068 147.478 19.068C147.054 19.068 146.682 19.172 146.362 19.38C146.05 19.58 145.822 19.856 145.678 20.208H144.646V15.312H149.866V16.272ZM162.739 23.112H165.667V24H161.647V15.636H162.739V23.112ZM167.39 16.356C167.182 16.356 167.006 16.284 166.862 16.14C166.718 15.996 166.646 15.82 166.646 15.612C166.646 15.404 166.718 15.228 166.862 15.084C167.006 14.94 167.182 14.868 167.39 14.868C167.59 14.868 167.758 14.94 167.894 15.084C168.038 15.228 168.11 15.404 168.11 15.612C168.11 15.82 168.038 15.996 167.894 16.14C167.758 16.284 167.59 16.356 167.39 16.356ZM167.918 17.424V24H166.826V17.424H167.918ZM172.983 17.304C173.783 17.304 174.431 17.548 174.927 18.036C175.423 18.516 175.671 19.212 175.671 20.124V24H174.591V20.28C174.591 19.624 174.427 19.124 174.099 18.78C173.771 18.428 173.323 18.252 172.755 18.252C172.179 18.252 171.719 18.432 171.375 18.792C171.039 19.152 170.871 19.676 170.871 20.364V24H169.779V17.424H170.871V18.36C171.087 18.024 171.379 17.764 171.747 17.58C172.123 17.396 172.535 17.304 172.983 17.304ZM183.455 20.46C183.455 20.668 183.443 20.888 183.419 21.12H178.163C178.203 21.768 178.423 22.276 178.823 22.644C179.231 23.004 179.723 23.184 180.299 23.184C180.771 23.184 181.163 23.076 181.475 22.86C181.795 22.636 182.019 22.34 182.147 21.972H183.323C183.147 22.604 182.795 23.12 182.267 23.52C181.739 23.912 181.083 24.108 180.299 24.108C179.675 24.108 179.115 23.968 178.619 23.688C178.131 23.408 177.747 23.012 177.467 22.5C177.187 21.98 177.047 21.38 177.047 20.7C177.047 20.02 177.183 19.424 177.455 18.912C177.727 18.4 178.107 18.008 178.595 17.736C179.091 17.456 179.659 17.316 180.299 17.316C180.923 17.316 181.475 17.452 181.955 17.724C182.435 17.996 182.803 18.372 183.059 18.852C183.323 19.324 183.455 19.86 183.455 20.46ZM182.327 20.232C182.327 19.816 182.235 19.46 182.051 19.164C181.867 18.86 181.615 18.632 181.295 18.48C180.983 18.32 180.635 18.24 180.251 18.24C179.699 18.24 179.227 18.416 178.835 18.768C178.451 19.12 178.231 19.608 178.175 20.232H182.327ZM190.748 24.084C190.196 24.084 189.7 23.988 189.26 23.796C188.828 23.596 188.488 23.324 188.24 22.98C187.992 22.628 187.864 22.224 187.856 21.768H189.02C189.06 22.16 189.22 22.492 189.5 22.764C189.788 23.028 190.204 23.16 190.748 23.16C191.268 23.16 191.676 23.032 191.972 22.776C192.276 22.512 192.428 22.176 192.428 21.768C192.428 21.448 192.34 21.188 192.164 20.988C191.988 20.788 191.768 20.636 191.504 20.532C191.24 20.428 190.884 20.316 190.436 20.196C189.884 20.052 189.44 19.908 189.104 19.764C188.776 19.62 188.492 19.396 188.252 19.092C188.02 18.78 187.904 18.364 187.904 17.844C187.904 17.388 188.02 16.984 188.252 16.632C188.484 16.28 188.808 16.008 189.224 15.816C189.648 15.624 190.132 15.528 190.676 15.528C191.46 15.528 192.1 15.724 192.596 16.116C193.1 16.508 193.384 17.028 193.448 17.676H192.248C192.208 17.356 192.04 17.076 191.744 16.836C191.448 16.588 191.056 16.464 190.568 16.464C190.112 16.464 189.74 16.584 189.452 16.824C189.164 17.056 189.02 17.384 189.02 17.808C189.02 18.112 189.104 18.36 189.272 18.552C189.448 18.744 189.66 18.892 189.908 18.996C190.164 19.092 190.52 19.204 190.976 19.332C191.528 19.484 191.972 19.636 192.308 19.788C192.644 19.932 192.932 20.16 193.172 20.472C193.412 20.776 193.532 21.192 193.532 21.72C193.532 22.128 193.424 22.512 193.208 22.872C192.992 23.232 192.672 23.524 192.248 23.748C191.824 23.972 191.324 24.084 190.748 24.084ZM196.231 18.636C196.447 18.26 196.767 17.948 197.191 17.7C197.623 17.444 198.123 17.316 198.691 17.316C199.275 17.316 199.803 17.456 200.275 17.736C200.755 18.016 201.131 18.412 201.403 18.924C201.675 19.428 201.811 20.016 201.811 20.688C201.811 21.352 201.675 21.944 201.403 22.464C201.131 22.984 200.755 23.388 200.275 23.676C199.803 23.964 199.275 24.108 198.691 24.108C198.131 24.108 197.635 23.984 197.203 23.736C196.779 23.48 196.455 23.164 196.231 22.788V27.12H195.139V17.424H196.231V18.636ZM200.695 20.688C200.695 20.192 200.595 19.76 200.395 19.392C200.195 19.024 199.923 18.744 199.579 18.552C199.243 18.36 198.871 18.264 198.463 18.264C198.063 18.264 197.691 18.364 197.347 18.564C197.011 18.756 196.739 19.04 196.531 19.416C196.331 19.784 196.231 20.212 196.231 20.7C196.231 21.196 196.331 21.632 196.531 22.008C196.739 22.376 197.011 22.66 197.347 22.86C197.691 23.052 198.063 23.148 198.463 23.148C198.871 23.148 199.243 23.052 199.579 22.86C199.923 22.66 200.195 22.376 200.395 22.008C200.595 21.632 200.695 21.192 200.695 20.688ZM202.84 20.688C202.84 20.016 202.976 19.428 203.248 18.924C203.52 18.412 203.892 18.016 204.364 17.736C204.844 17.456 205.376 17.316 205.96 17.316C206.536 17.316 207.036 17.44 207.46 17.688C207.884 17.936 208.2 18.248 208.408 18.624V17.424H209.512V24H208.408V22.776C208.192 23.16 207.868 23.48 207.436 23.736C207.012 23.984 206.516 24.108 205.948 24.108C205.364 24.108 204.836 23.964 204.364 23.676C203.892 23.388 203.52 22.984 203.248 22.464C202.976 21.944 202.84 21.352 202.84 20.688ZM208.408 20.7C208.408 20.204 208.308 19.772 208.108 19.404C207.908 19.036 207.636 18.756 207.292 18.564C206.956 18.364 206.584 18.264 206.176 18.264C205.768 18.264 205.396 18.36 205.06 18.552C204.724 18.744 204.456 19.024 204.256 19.392C204.056 19.76 203.956 20.192 203.956 20.688C203.956 21.192 204.056 21.632 204.256 22.008C204.456 22.376 204.724 22.66 205.06 22.86C205.396 23.052 205.768 23.148 206.176 23.148C206.584 23.148 206.956 23.052 207.292 22.86C207.636 22.66 207.908 22.376 208.108 22.008C208.308 21.632 208.408 21.196 208.408 20.7ZM210.95 20.7C210.95 20.02 211.086 19.428 211.358 18.924C211.63 18.412 212.006 18.016 212.486 17.736C212.974 17.456 213.53 17.316 214.154 17.316C214.962 17.316 215.626 17.512 216.146 17.904C216.674 18.296 217.022 18.84 217.19 19.536H216.014C215.902 19.136 215.682 18.82 215.354 18.588C215.034 18.356 214.634 18.24 214.154 18.24C213.53 18.24 213.026 18.456 212.642 18.888C212.258 19.312 212.066 19.916 212.066 20.7C212.066 21.492 212.258 22.104 212.642 22.536C213.026 22.968 213.53 23.184 214.154 23.184C214.634 23.184 215.034 23.072 215.354 22.848C215.674 22.624 215.894 22.304 216.014 21.888H217.19C217.014 22.56 216.662 23.1 216.134 23.508C215.606 23.908 214.946 24.108 214.154 24.108C213.53 24.108 212.974 23.968 212.486 23.688C212.006 23.408 211.63 23.012 211.358 22.5C211.086 21.988 210.95 21.388 210.95 20.7ZM219.211 16.356C219.003 16.356 218.827 16.284 218.683 16.14C218.539 15.996 218.467 15.82 218.467 15.612C218.467 15.404 218.539 15.228 218.683 15.084C218.827 14.94 219.003 14.868 219.211 14.868C219.411 14.868 219.579 14.94 219.715 15.084C219.859 15.228 219.931 15.404 219.931 15.612C219.931 15.82 219.859 15.996 219.715 16.14C219.579 16.284 219.411 16.356 219.211 16.356ZM219.739 17.424V24H218.647V17.424H219.739ZM224.804 17.304C225.604 17.304 226.252 17.548 226.748 18.036C227.244 18.516 227.492 19.212 227.492 20.124V24H226.412V20.28C226.412 19.624 226.248 19.124 225.92 18.78C225.592 18.428 225.144 18.252 224.576 18.252C224 18.252 223.54 18.432 223.196 18.792C222.86 19.152 222.692 19.676 222.692 20.364V24H221.6V17.424H222.692V18.36C222.908 18.024 223.2 17.764 223.568 17.58C223.944 17.396 224.356 17.304 224.804 17.304ZM231.988 17.316C232.556 17.316 233.052 17.44 233.476 17.688C233.908 17.936 234.228 18.248 234.436 18.624V17.424H235.54V24.144C235.54 24.744 235.412 25.276 235.156 25.74C234.9 26.212 234.532 26.58 234.052 26.844C233.58 27.108 233.028 27.24 232.396 27.24C231.532 27.24 230.812 27.036 230.236 26.628C229.66 26.22 229.32 25.664 229.216 24.96H230.296C230.416 25.36 230.664 25.68 231.04 25.92C231.416 26.168 231.868 26.292 232.396 26.292C232.996 26.292 233.484 26.104 233.86 25.728C234.244 25.352 234.436 24.824 234.436 24.144V22.764C234.22 23.148 233.9 23.468 233.476 23.724C233.052 23.98 232.556 24.108 231.988 24.108C231.404 24.108 230.872 23.964 230.392 23.676C229.92 23.388 229.548 22.984 229.276 22.464C229.004 21.944 228.868 21.352 228.868 20.688C228.868 20.016 229.004 19.428 229.276 18.924C229.548 18.412 229.92 18.016 230.392 17.736C230.872 17.456 231.404 17.316 231.988 17.316ZM234.436 20.7C234.436 20.204 234.336 19.772 234.136 19.404C233.936 19.036 233.664 18.756 233.32 18.564C232.984 18.364 232.612 18.264 232.204 18.264C231.796 18.264 231.424 18.36 231.088 18.552C230.752 18.744 230.484 19.024 230.284 19.392C230.084 19.76 229.984 20.192 229.984 20.688C229.984 21.192 230.084 21.632 230.284 22.008C230.484 22.376 230.752 22.66 231.088 22.86C231.424 23.052 231.796 23.148 232.204 23.148C232.612 23.148 232.984 23.052 233.32 22.86C233.664 22.66 233.936 22.376 234.136 22.008C234.336 21.632 234.436 21.196 234.436 20.7ZM237.733 24.072C237.525 24.072 237.349 24 237.205 23.856C237.061 23.712 236.989 23.536 236.989 23.328C236.989 23.12 237.061 22.944 237.205 22.8C237.349 22.656 237.525 22.584 237.733 22.584C237.933 22.584 238.101 22.656 238.237 22.8C238.381 22.944 238.453 23.12 238.453 23.328C238.453 23.536 238.381 23.712 238.237 23.856C238.101 24 237.933 24.072 237.733 24.072ZM237.733 18.936C237.525 18.936 237.349 18.864 237.205 18.72C237.061 18.576 236.989 18.4 236.989 18.192C236.989 17.984 237.061 17.808 237.205 17.664C237.349 17.52 237.525 17.448 237.733 17.448C237.933 17.448 238.101 17.52 238.237 17.664C238.381 17.808 238.453 17.984 238.453 18.192C238.453 18.4 238.381 18.576 238.237 18.72C238.101 18.864 237.933 18.936 237.733 18.936ZM242.671 16.32V15.324H244.927V24H243.823V16.32H242.671ZM251.639 17.388C251.463 16.5 250.915 16.056 249.995 16.056C249.283 16.056 248.751 16.332 248.399 16.884C248.047 17.428 247.875 18.328 247.883 19.584C248.067 19.168 248.371 18.844 248.795 18.612C249.227 18.372 249.707 18.252 250.235 18.252C251.059 18.252 251.715 18.508 252.203 19.02C252.699 19.532 252.947 20.24 252.947 21.144C252.947 21.688 252.839 22.176 252.623 22.608C252.415 23.04 252.095 23.384 251.663 23.64C251.239 23.896 250.723 24.024 250.115 24.024C249.291 24.024 248.647 23.84 248.183 23.472C247.719 23.104 247.395 22.596 247.211 21.948C247.027 21.3 246.935 20.5 246.935 19.548C246.935 16.612 247.959 15.144 250.007 15.144C250.791 15.144 251.407 15.356 251.855 15.78C252.303 16.204 252.567 16.74 252.647 17.388H251.639ZM250.007 19.176C249.663 19.176 249.339 19.248 249.035 19.392C248.731 19.528 248.483 19.74 248.291 20.028C248.107 20.308 248.015 20.652 248.015 21.06C248.015 21.668 248.191 22.164 248.543 22.548C248.895 22.924 249.399 23.112 250.055 23.112C250.615 23.112 251.059 22.94 251.387 22.596C251.723 22.244 251.891 21.772 251.891 21.18C251.891 20.556 251.731 20.068 251.411 19.716C251.091 19.356 250.623 19.176 250.007 19.176Z" fill="#616161"/>
</svg>
